<svg xmlns="http://www.w3.org/2000/svg" xmlns:xlink="http://www.w3.org/1999/xlink" width="145.271" height="47.358" viewBox="0 0 145.271 47.358"><defs><style>.a{fill:none;}.b{clip-path:url(#a);}.c{fill:#fff;}</style><clipPath id="a"><rect class="a" width="145.271" height="47.358"/></clipPath></defs><g class="b"><path class="c" d="M0,9.281C0,2.442,1.877,0,7.105,0a20.183,20.183,0,0,1,4.218.345.782.782,0,0,1,.657.965l-.049.417a.767.767,0,0,1-.919.718c-1.177-.1-2.181-.128-3.907-.128-3.311,0-4.369,1.693-4.369,6.963s1.058,6.963,4.369,6.963a35.127,35.127,0,0,0,4.271-.173.756.756,0,0,1,.923.719l.049.395a.761.761,0,0,1-.638.939,18.436,18.436,0,0,1-4.605.439C1.878,18.563,0,16.119,0,9.281" transform="translate(0 0)"/><path class="c" d="M34.777,24.3c-2.334,0-3.964-1.283-3.964-3.639V19.388c0-2.024,1.358-3.191,3.7-3.191h4.7a.256.256,0,0,0,.289-.288v-.688c-.023-1.661-.627-2.048-2.592-2.048-.993,0-2.766,0-4.432.1a.821.821,0,0,1-.987-.773c-.139-.745.045-1.026.809-1.143a37.867,37.867,0,0,1,5.151-.322c3.028,0,4.577.957,4.577,4.185v7.938a.794.794,0,0,1-.89.894h-.279c-.537,0-.777-.074-.935-.758l-.055-.314c-.068-.243-.214-.314-.382-.146A7.034,7.034,0,0,1,34.777,24.3Zm.518-2.141a6.617,6.617,0,0,0,4-1.067.576.576,0,0,0,.211-.476v-2.23a.256.256,0,0,0-.289-.288l-4.227.013c-1.242.049-1.626.635-1.626,1.639v.594c0,1.287.617,1.815,1.93,1.815Z" transform="translate(-16.201 -5.803)"/><path class="c" d="M62.468,23.268V12.237a.735.735,0,0,1,.823-.826h.365c.512,0,.8.143.868.645l.029.243a.285.285,0,0,0,.5.191,9.977,9.977,0,0,1,4.657-1.369c.566-.068.852.285.777.852l-.072.69c-.074.518-.356.686-.851.777a29.022,29.022,0,0,0-4.281.893.405.405,0,0,0-.285.4v8.53a.735.735,0,0,1-.826.826h-.874a.738.738,0,0,1-.826-.826" transform="translate(-32.845 -5.843)"/><path class="c" d="M90.323,18.619a19.816,19.816,0,0,1-5.108-.709.806.806,0,0,1-.619-.852V1A.8.8,0,0,1,85.49.108h.738A.8.8,0,0,1,87.122,1V3.556A13.467,13.467,0,0,1,87,5.656c-.049.376.119.337.45.217a10.049,10.049,0,0,1,3.414-.584c3.095,0,5.248.937,5.248,6.778,0,4.189-1.269,6.552-5.791,6.552Zm.158-2.114c2.172-.045,3.036-1.088,3.036-4.528,0-3.8-.843-4.505-2.946-4.505a13.133,13.133,0,0,0-3.188.425c-.213.049-.285.256-.285.583l.022,7.2a.514.514,0,0,0,.447.537,12.571,12.571,0,0,0,2.913.285Z" transform="translate(-44.48 -0.057)"/><path class="c" d="M146.462,23.16v-10.9a.793.793,0,0,1,.887-.894h.417c.56,0,.843.214.91.622l.029.266c.023.217.191.266.431.123a10.338,10.338,0,0,1,5.222-1.346c2.232,0,3.444,1.215,3.444,3.5V23.16a.8.8,0,0,1-.893.893h-.738a.8.8,0,0,1-.893-.893V15.266c0-1.614-.416-2.094-1.615-2.094a9.962,9.962,0,0,0-4.459,1.12.34.34,0,0,0-.217.337v8.53a.8.8,0,0,1-.893.893h-.738a.8.8,0,0,1-.894-.893" transform="translate(-77.008 -5.803)"/><path class="c" d="M178.473,15.2V1a.8.8,0,0,1,.894-.894h.738A.8.8,0,0,1,181,1l-.023,13.632a1.46,1.46,0,0,0,1.65,1.627h.353a.861.861,0,0,1,.958.816l.023.3c.046.534-.12.929-.661,1.023a10.458,10.458,0,0,1-1.634.149,3,3,0,0,1-3.192-3.35" transform="translate(-93.839 -0.057)"/><path class="c" d="M193.859,29.693c-.518.075-.8-.2-.923-.715a.872.872,0,0,1,.608-1.131,4.953,4.953,0,0,0,2.727-2.457,5.018,5.018,0,0,0,.29-.6c.1-.217-.019-.363-.273-.386a1.447,1.447,0,0,1-1.13-1l-4-10.714c-.213-.567.045-.946.661-.946h.968a.869.869,0,0,1,.92.683l2.935,8.537c.137.416.251.836.384,1.248.049.213.127.307.254.307s.227-.094.276-.285c.163-.442.3-.881.433-1.277l2.89-8.53a.87.87,0,0,1,.92-.683h.99c.615,0,.874.379.661.946l-4.575,12.348c-.767,2.066-2.214,4.276-5.018,4.658Z" transform="translate(-100.472 -6.174)"/><path class="c" d="M225.84,20.548c-2.173,0-3.313-1.275-3.313-3.576V9.928a.316.316,0,0,0-.356-.356h-.989c-.748,0-.962-.282-.962-.89,0-.741.282-.935.939-.981l1.012-.056c.24-.023.356-.142.356-.359V4.723a.738.738,0,0,1,.826-.826h.851a.737.737,0,0,1,.826.826V7.262a.315.315,0,0,0,.356.356h2.608c.706,0,.962.328.962.969,0,.7-.214.984-.962.984h-2.608a.316.316,0,0,0-.356.356v6.7c0,1.2.437,1.627,1.649,1.627h1.08c.564,0,.826.207.92.929.094.832-.165,1.095-.642,1.166a17.129,17.129,0,0,1-2.2.2Z" transform="translate(-115.789 -2.049)"/><path class="c" d="M244.375,23.529v-10.9a.8.8,0,0,1,.894-.894h.715a.8.8,0,0,1,.894.894v10.9a.8.8,0,0,1-.894.894h-.715a.8.8,0,0,1-.894-.894" transform="translate(-128.49 -6.173)"/><path class="c" d="M262.921,24.366c-4.431,0-6.059-1.765-6.059-6.665s1.65-6.665,6.078-6.665a14.884,14.884,0,0,1,3.385.386.827.827,0,0,1,.657,1.059.892.892,0,0,1-.991.77c-.958-.046-1.944-.079-2.631-.079-2.864,0-3.857,1.012-3.857,4.527,0,3.538.993,4.55,3.857,4.55.608,0,1.757-.032,2.853-.147a.806.806,0,0,1,1.014.726.867.867,0,0,1-.661,1.1,15.765,15.765,0,0,1-3.646.435Z" transform="translate(-135.055 -5.803)"/><path class="c" d="M284.649,24.078c-.563-.068-.754-.4-.706-1.052.049-.676.308-.891.874-.864,1.055.04,2.326.069,3.6.065,2.78-.007,3.607-.253,3.607-1.55,0-1.13-.732-1.426-2.006-1.691l-3.4-.746a3.281,3.281,0,0,1-2.884-3.677c0-2.6,1.469-3.557,4.941-3.528,1.407.026,3.139.13,4.6.308A.792.792,0,0,1,294,12.351c-.071.722-.333.936-.919.91-1.324-.055-2.683-.088-4.026-.092-2.194-.007-2.891.168-2.891,1.394,0,1.179.609,1.434,1.807,1.72l3.444.769c2.117.48,3.037,1.456,3.037,3.624,0,2.81-1.722,3.661-5.5,3.661a35.923,35.923,0,0,1-4.3-.26" transform="translate(-149.183 -5.802)"/><path class="c" d="M119.543,22.761l-5.2-5.2a6.471,6.471,0,0,0-.886,2.4l6.089,6.089Z" transform="translate(-59.653 -9.232)"/><path class="c" d="M120.975,16.127l-3.069-3.069a6.537,6.537,0,0,0-1.729,1.553l4.8,4.8Z" transform="translate(-61.085 -6.866)"/><path class="c" d="M130.2,11.647a6.476,6.476,0,0,0-2.428-.611v3.04Z" transform="translate(-67.178 -5.803)"/><path class="c" d="M123.6,11.036a6.481,6.481,0,0,0-2.428.611l2.428,2.429Z" transform="translate(-63.711 -5.803)"/><path class="c" d="M113.288,24.529c0,.037,0,.073,0,.11a6.519,6.519,0,0,0,6.169,6.509V30.7Z" transform="translate(-59.564 -12.897)"/><path class="c" d="M127.766,19.408l4.8-4.8a6.539,6.539,0,0,0-1.729-1.553l-3.069,3.069Z" transform="translate(-67.178 -6.865)"/><path class="c" d="M127.766,26.043l6.089-6.089a6.474,6.474,0,0,0-.887-2.4l-5.2,5.2Z" transform="translate(-67.178 -9.232)"/><path class="c" d="M127.766,31.148a6.518,6.518,0,0,0,6.169-6.509c0-.037,0-.074,0-.11L127.766,30.7Z" transform="translate(-67.178 -12.897)"/><path class="c" d="M16.8,75.007a.527.527,0,0,1-.588-.588V63.2a2.479,2.479,0,0,1,2.777-2.564h5.378a.532.532,0,0,1,.542.622l-.015.347a.547.547,0,0,1-.619.568H19.44c-.97,0-1.389.419-1.389,1.388v3.063a.228.228,0,0,0,.256.256l5.157.006a.521.521,0,0,1,.588.582v.315a.523.523,0,0,1-.588.582l-5.157.006a.228.228,0,0,0-.256.256V74.42a.525.525,0,0,1-.588.588H16.8Z" transform="translate(-8.523 -31.883)"/><path class="c" d="M39.542,74.353c0-3.646,1.252-5.34,4.723-5.34,3.426,0,4.707,1.693,4.707,5.34s-1.282,5.324-4.707,5.324c-3.471,0-4.723-1.678-4.723-5.324m7.588,0c0-2.728-.717-3.842-2.865-3.842-2.194,0-2.865,1.114-2.865,3.842s.671,3.827,2.865,3.827c2.149,0,2.865-1.114,2.865-3.827" transform="translate(-20.791 -36.286)"/><path class="c" d="M65.843,74.353c0-3.646,1.251-5.34,4.722-5.34,3.426,0,4.707,1.693,4.707,5.34s-1.282,5.324-4.707,5.324c-3.471,0-4.722-1.678-4.722-5.324m7.587,0c0-2.728-.717-3.842-2.865-3.842-2.194,0-2.865,1.114-2.865,3.842s.671,3.827,2.865,3.827c2.149,0,2.865-1.114,2.865-3.827" transform="translate(-34.62 -36.286)"/><path class="c" d="M95.367,76.56c-1.708,0-2.595-.978-2.595-2.741V67.882a.228.228,0,0,0-.256-.256h-.907c-.525,0-.679-.2-.679-.628,0-.514.2-.657.664-.689l.922-.047c.175-.016.256-.1.256-.262V63.821a.527.527,0,0,1,.588-.588h.585a.525.525,0,0,1,.588.588v2.164a.228.228,0,0,0,.257.257h2.3c.5,0,.679.229.679.69,0,.5-.153.695-.679.695h-2.3a.228.228,0,0,0-.257.256v5.7c0,.982.391,1.363,1.378,1.363H96.9c.4,0,.588.142.654.647.066.575-.118.766-.461.815a14.087,14.087,0,0,1-1.729.151Z" transform="translate(-47.81 -33.247)"/><path class="c" d="M112.314,83.645a.567.567,0,0,1-.634-.634V70.2a.575.575,0,0,1,.445-.609,15.759,15.759,0,0,1,4.081-.573c3.508,0,4.541,1.822,4.541,5.248,0,4.535-1.608,5.4-4.11,5.4a8.709,8.709,0,0,1-2.946-.524c-.235-.087-.359-.106-.322.159a8.768,8.768,0,0,1,.087,1.5v2.211a.565.565,0,0,1-.634.634h-.509Zm6.606-9.322c0-2.876-.742-3.782-2.608-3.812a10.314,10.314,0,0,0-2.539.272.363.363,0,0,0-.317.377L113.44,77.3c0,.229.051.371.2.408a10.742,10.742,0,0,0,2.795.417c1.773,0,2.48-.678,2.48-3.8" transform="translate(-58.72 -36.287)"/><path class="c" d="M138.374,78.851V69.894a.523.523,0,0,1,.582-.588h.248c.357,0,.561.1.613.466l.026.271c.03.205.194.256.353.138a8.459,8.459,0,0,1,3.892-1.111c.4-.045.609.2.552.609l-.051.473c-.057.368-.256.491-.609.552a17.991,17.991,0,0,0-3.626.792.29.29,0,0,0-.2.292v7.062a.522.522,0,0,1-.588.588h-.6a.527.527,0,0,1-.588-.588" transform="translate(-72.756 -36.314)"/><path class="c" d="M157.263,61.565a1.163,1.163,0,1,1,1.168,1.168,1.166,1.166,0,0,1-1.168-1.168m.281,12.687V65.387a.564.564,0,0,1,.633-.633h.494a.562.562,0,0,1,.634.633v8.866a.563.563,0,0,1-.634.634h-.494a.567.567,0,0,1-.633-.634" transform="translate(-82.687 -31.761)"/><path class="c" d="M170.379,78.777V69.912a.559.559,0,0,1,.622-.633h.29c.394,0,.592.154.638.451l.026.286c.016.159.138.2.313.093a8.715,8.715,0,0,1,4.272-1.1,2.482,2.482,0,0,1,2.748,2.789v6.975a.567.567,0,0,1-.634.634h-.508a.565.565,0,0,1-.634-.634V72.305c0-1.34-.4-1.78-1.456-1.78a8.567,8.567,0,0,0-3.742.944.244.244,0,0,0-.159.246v7.062a.565.565,0,0,1-.634.634h-.509a.567.567,0,0,1-.634-.634" transform="translate(-89.583 -36.286)"/><path class="c" d="M199.815,76.56c-1.708,0-2.595-.978-2.595-2.741V67.882a.228.228,0,0,0-.256-.256h-.907c-.525,0-.679-.2-.679-.628,0-.514.2-.657.664-.689l.922-.047c.175-.016.256-.1.256-.262V63.821a.527.527,0,0,1,.588-.588h.585a.525.525,0,0,1,.588.588v2.164a.228.228,0,0,0,.257.257h2.3c.5,0,.679.229.679.69,0,.5-.153.695-.679.695h-2.3a.228.228,0,0,0-.257.256v5.7c0,.982.391,1.363,1.378,1.363h.992c.4,0,.588.142.654.647.066.575-.118.766-.461.815a14.086,14.086,0,0,1-1.729.151Z" transform="translate(-102.728 -33.247)"/><path class="c" d="M0,72.467V50.515a.8.8,0,0,1,.894-.894h.715a.8.8,0,0,1,.894.894V72.467a.8.8,0,0,1-.894.894H.894A.8.8,0,0,1,0,72.467" transform="translate(0 -26.09)"/><path class="c" d="M243.708,1.651a1.569,1.569,0,1,1,1.579,1.579,1.573,1.573,0,0,1-1.579-1.579" transform="translate(-128.139 -0.048)"/></g></svg>