<svg xmlns="http://www.w3.org/2000/svg" xmlns:xlink="http://www.w3.org/1999/xlink" width="124.714" height="40.657" viewBox="0 0 124.714 40.657"><defs><style>.a{fill:none;}.b{clip-path:url(#a);}.c{fill:#fff;}</style><clipPath id="a"><rect class="a" width="124.714" height="40.657"/></clipPath></defs><g transform="translate(3 -13.492)"><g class="b" transform="translate(-3 13.492)"><path class="c" d="M0,7.969C0,2.1,1.611,0,6.1,0A17.33,17.33,0,0,1,9.721.3a.673.673,0,0,1,.565.828l-.042.358a.658.658,0,0,1-.79.617c-1.01-.083-1.873-.109-3.354-.109-2.842,0-3.751,1.453-3.751,5.978s.909,5.978,3.751,5.978A30.2,30.2,0,0,0,9.767,13.8a.649.649,0,0,1,.792.617l.042.339a.653.653,0,0,1-.548.806,15.848,15.848,0,0,1-3.954.376c-4.487,0-6.1-2.1-6.1-7.968" transform="translate(0 0)"/><path class="c" d="M22.8,18.334c-2,0-3.4-1.1-3.4-3.124V14.117c0-1.738,1.166-2.739,3.178-2.739h4.037a.22.22,0,0,0,.248-.248v-.59c-.02-1.425-.539-1.758-2.225-1.758-.852,0-2.375,0-3.8.087a.7.7,0,0,1-.848-.664c-.12-.64.039-.881.695-.981A32.464,32.464,0,0,1,25.1,6.947c2.6,0,3.929.823,3.929,3.593v6.815a.682.682,0,0,1-.764.767h-.239c-.461,0-.667-.064-.8-.651l-.047-.269c-.059-.209-.184-.27-.328-.125A6.044,6.044,0,0,1,22.8,18.334Zm.444-1.838a5.682,5.682,0,0,0,3.434-.916.5.5,0,0,0,.181-.409V13.257a.22.22,0,0,0-.248-.247l-3.629.012c-1.067.041-1.4.545-1.4,1.407v.51c0,1.1.53,1.558,1.657,1.558Z" transform="translate(-6.854 -2.454)"/><path class="c" d="M39.326,17.432V7.961a.632.632,0,0,1,.706-.709h.314c.44,0,.684.122.746.554l.025.209a.245.245,0,0,0,.426.164A8.562,8.562,0,0,1,45.54,7c.486-.058.731.244.667.731l-.061.592c-.064.445-.306.589-.731.667a24.87,24.87,0,0,0-3.676.767.348.348,0,0,0-.244.348v7.323a.631.631,0,0,1-.709.709h-.75a.634.634,0,0,1-.709-.709" transform="translate(-13.895 -2.472)"/><path class="c" d="M58.173,15.959a16.983,16.983,0,0,1-4.385-.609.692.692,0,0,1-.531-.731V.836a.685.685,0,0,1,.767-.768h.634a.684.684,0,0,1,.767.768V3.028a11.554,11.554,0,0,1-.1,1.8c-.042.323.1.29.386.187a8.621,8.621,0,0,1,2.931-.5c2.657,0,4.505.805,4.505,5.819,0,3.6-1.089,5.625-4.972,5.625Zm.136-1.815c1.865-.039,2.606-.934,2.606-3.887,0-3.264-.724-3.868-2.529-3.868a11.262,11.262,0,0,0-2.736.365c-.184.041-.244.219-.244.5l.019,6.183a.442.442,0,0,0,.383.462,10.8,10.8,0,0,0,2.5.244Z" transform="translate(-18.817 -0.024)"/><path class="c" d="M92.2,17.356V8a.681.681,0,0,1,.761-.767h.359c.48,0,.723.184.781.534L94.13,8c.02.186.164.228.371.106a8.874,8.874,0,0,1,4.483-1.156,2.674,2.674,0,0,1,2.957,3v7.406a.685.685,0,0,1-.767.767h-.633a.684.684,0,0,1-.768-.767V10.58c0-1.385-.357-1.8-1.386-1.8a8.556,8.556,0,0,0-3.828.961.291.291,0,0,0-.187.29v7.323a.683.683,0,0,1-.767.767h-.633a.685.685,0,0,1-.768-.767" transform="translate(-32.579 -2.455)"/><path class="c" d="M112.357,13.028V.836a.684.684,0,0,1,.768-.767h.633a.683.683,0,0,1,.768.767l-.02,11.7a1.253,1.253,0,0,0,1.417,1.4h.3a.74.74,0,0,1,.823.7l.019.261c.039.458-.1.8-.567.878a9.008,9.008,0,0,1-1.4.128,2.576,2.576,0,0,1-2.741-2.876" transform="translate(-39.699 -0.024)"/><path class="c" d="M122.676,22.8c-.445.064-.687-.173-.792-.614a.748.748,0,0,1,.523-.97,4.254,4.254,0,0,0,2.34-2.11,4.248,4.248,0,0,0,.249-.517c.083-.186-.017-.311-.234-.33a1.242,1.242,0,0,1-.97-.859l-3.431-9.2c-.184-.487.039-.812.567-.812h.831a.746.746,0,0,1,.789.587l2.52,7.329c.117.357.215.717.33,1.072.041.183.109.264.217.264s.195-.081.237-.244c.14-.38.254-.756.372-1.1L128.7,7.979a.747.747,0,0,1,.79-.587h.85c.528,0,.75.325.567.812l-3.927,10.6C126.326,20.578,125.084,22.476,122.676,22.8Z" transform="translate(-42.505 -2.612)"/><path class="c" d="M143.463,16.748c-1.866,0-2.844-1.095-2.844-3.07V7.63a.271.271,0,0,0-.306-.306h-.849c-.642,0-.826-.242-.826-.764,0-.636.242-.8.806-.842l.868-.048c.206-.019.306-.122.306-.308v-2.2a.634.634,0,0,1,.709-.709h.73a.632.632,0,0,1,.709.709v2.18a.271.271,0,0,0,.306.306h2.239c.606,0,.825.281.825.832,0,.6-.184.845-.825.845h-2.239a.271.271,0,0,0-.306.306v5.753c0,1.027.375,1.4,1.416,1.4h.928c.484,0,.709.178.789.8.081.714-.141.94-.55,1a14.679,14.679,0,0,1-1.888.169Z" transform="translate(-48.985 -0.866)"/><path class="c" d="M153.844,17.512V8.159a.684.684,0,0,1,.768-.768h.614a.683.683,0,0,1,.767.768v9.353a.683.683,0,0,1-.767.768h-.614a.685.685,0,0,1-.768-.768" transform="translate(-54.358 -2.611)"/><path class="c" d="M166.907,18.391c-3.8,0-5.2-1.515-5.2-5.722s1.417-5.721,5.219-5.721a12.744,12.744,0,0,1,2.906.332.709.709,0,0,1,.564.909.766.766,0,0,1-.851.662c-.823-.039-1.669-.068-2.258-.068-2.459,0-3.312.869-3.312,3.887,0,3.037.853,3.907,3.312,3.907.522,0,1.509-.028,2.449-.126a.692.692,0,0,1,.87.623.745.745,0,0,1-.567.945A13.541,13.541,0,0,1,166.907,18.391Z" transform="translate(-57.136 -2.455)"/><path class="c" d="M179.409,18.144c-.484-.058-.648-.342-.606-.9.041-.581.264-.764.75-.742.906.034,2,.059,3.087.056,2.387-.006,3.1-.218,3.1-1.331,0-.971-.629-1.225-1.722-1.452l-2.917-.641a2.817,2.817,0,0,1-2.476-3.156c0-2.229,1.262-3.054,4.242-3.029,1.208.023,2.695.112,3.948.265a.68.68,0,0,1,.628.865c-.061.62-.286.8-.79.781-1.136-.047-2.3-.076-3.456-.078-1.883-.006-2.483.144-2.483,1.2,0,1.011.523,1.231,1.552,1.477l2.956.66c1.817.412,2.607,1.25,2.607,3.112,0,2.412-1.478,3.143-4.723,3.143a30.754,30.754,0,0,1-3.694-.223" transform="translate(-63.113 -2.454)"/><path class="c" d="M76.651,15.521l-4.467-4.467a5.544,5.544,0,0,0-.76,2.056l5.227,5.227Z" transform="translate(-25.236 -3.905)"/><path class="c" d="M77.257,10.855,74.622,8.22a5.628,5.628,0,0,0-1.484,1.333l4.119,4.119Z" transform="translate(-25.842 -2.904)"/><path class="c" d="M82.519,7.472a5.573,5.573,0,0,0-2.086-.525v2.61Z" transform="translate(-28.42 -2.454)"/><path class="c" d="M78.368,6.948a5.563,5.563,0,0,0-2.085.525l2.085,2.085Z" transform="translate(-26.953 -2.455)"/><path class="c" d="M71.32,15.442c0,.032,0,.063,0,.094a5.6,5.6,0,0,0,5.3,5.588v-.389Z" transform="translate(-25.199 -5.456)"/><path class="c" d="M80.434,13.672l4.119-4.119A5.642,5.642,0,0,0,83.069,8.22l-2.635,2.635Z" transform="translate(-28.42 -2.904)"/><path class="c" d="M80.434,18.337l5.228-5.227a5.552,5.552,0,0,0-.761-2.056l-4.467,4.467Z" transform="translate(-28.42 -3.905)"/><path class="c" d="M80.434,21.124a5.6,5.6,0,0,0,5.3-5.588c0-.032,0-.063,0-.094l-5.294,5.294Z" transform="translate(-28.42 -5.456)"/><path class="c" d="M10.709,50.51a.452.452,0,0,1-.505-.5v-9.63a2.128,2.128,0,0,1,2.384-2.2H17.2a.458.458,0,0,1,.466.534l-.013.3a.469.469,0,0,1-.532.487H12.978c-.832,0-1.192.36-1.192,1.192v2.63a.2.2,0,0,0,.22.22l4.427,0a.447.447,0,0,1,.505.5v.271a.449.449,0,0,1-.505.5l-4.427.005a.2.2,0,0,0-.22.22v4.97a.451.451,0,0,1-.505.505h-.572Z" transform="translate(-3.605 -13.488)"/><path class="c" d="M24.894,48.031c0-3.131,1.075-4.584,4.055-4.584,2.941,0,4.042,1.453,4.042,4.584S31.89,52.6,28.949,52.6c-2.979,0-4.055-1.44-4.055-4.571m6.515,0c0-2.342-.615-3.3-2.46-3.3-1.884,0-2.459.956-2.459,3.3s.576,3.286,2.459,3.286c1.845,0,2.46-.956,2.46-3.286" transform="translate(-8.796 -15.351)"/><path class="c" d="M41.451,48.031c0-3.131,1.075-4.584,4.054-4.584,2.941,0,4.042,1.453,4.042,4.584S48.446,52.6,45.5,52.6c-2.979,0-4.054-1.44-4.054-4.571m6.514,0c0-2.342-.615-3.3-2.46-3.3-1.884,0-2.459.956-2.459,3.3s.576,3.286,2.459,3.286c1.845,0,2.46-.956,2.46-3.286" transform="translate(-14.646 -15.351)"/><path class="c" d="M61.054,51.249a2.057,2.057,0,0,1-2.228-2.354V43.8a.2.2,0,0,0-.22-.22h-.779c-.451,0-.583-.171-.583-.539,0-.441.17-.564.57-.592l.792-.04c.15-.014.22-.088.22-.225v-1.87a.453.453,0,0,1,.505-.505h.5a.451.451,0,0,1,.505.505V42.17a.2.2,0,0,0,.22.22h1.975c.43,0,.583.2.583.593,0,.425-.132.6-.583.6H60.558a.2.2,0,0,0-.22.22v4.9c0,.843.336,1.17,1.183,1.17h.851c.342,0,.505.122.562.555.057.493-.1.658-.4.7a12.1,12.1,0,0,1-1.484.129Z" transform="translate(-20.227 -14.065)"/><path class="c" d="M70.851,56.008a.487.487,0,0,1-.544-.544v-11a.494.494,0,0,1,.382-.523,13.542,13.542,0,0,1,3.5-.492c3.012,0,3.9,1.564,3.9,4.505,0,3.893-1.38,4.635-3.528,4.635a7.482,7.482,0,0,1-2.529-.449c-.2-.075-.308-.092-.277.136a7.553,7.553,0,0,1,.074,1.29v1.9a.485.485,0,0,1-.544.544h-.436Zm5.671-8c0-2.469-.637-3.247-2.239-3.273a8.819,8.819,0,0,0-2.179.234.312.312,0,0,0-.273.324l-.012,5.266c0,.2.044.319.176.35a9.232,9.232,0,0,0,2.4.358c1.522,0,2.129-.581,2.129-3.259" transform="translate(-24.842 -15.351)"/><path class="c" d="M87.113,51.88v-7.69a.449.449,0,0,1,.5-.5h.213c.307,0,.482.088.526.4l.022.233c.027.177.166.22.3.119a7.259,7.259,0,0,1,3.341-.954c.346-.039.523.176.473.523l-.043.405c-.049.316-.22.422-.523.474a15.431,15.431,0,0,0-3.113.68.248.248,0,0,0-.175.25V51.88a.449.449,0,0,1-.505.505h-.515a.453.453,0,0,1-.505-.505" transform="translate(-30.78 -15.363)"/><path class="c" d="M99,39.024a1,1,0,1,1,1,1,1,1,0,0,1-1-1m.241,10.892V42.3a.484.484,0,0,1,.543-.543h.424a.482.482,0,0,1,.544.543v7.611a.483.483,0,0,1-.544.544h-.424a.486.486,0,0,1-.543-.544" transform="translate(-34.981 -13.437)"/><path class="c" d="M107.261,51.83V44.218a.479.479,0,0,1,.534-.543h.25c.338,0,.508.131.548.387l.023.245c.013.137.119.168.268.08a7.485,7.485,0,0,1,3.667-.941,2.13,2.13,0,0,1,2.358,2.395V51.83a.487.487,0,0,1-.544.544h-.437a.484.484,0,0,1-.544-.544V46.274c0-1.15-.344-1.528-1.25-1.528a7.357,7.357,0,0,0-3.212.81.21.21,0,0,0-.136.211V51.83a.485.485,0,0,1-.544.544H107.8a.487.487,0,0,1-.544-.544" transform="translate(-37.899 -15.351)"/><path class="c" d="M126.808,51.249a2.057,2.057,0,0,1-2.228-2.354V43.8a.2.2,0,0,0-.22-.22h-.779c-.451,0-.583-.171-.583-.539,0-.441.171-.564.57-.592l.792-.04c.15-.014.22-.088.22-.225v-1.87a.453.453,0,0,1,.505-.505h.5a.451.451,0,0,1,.505.505V42.17a.2.2,0,0,0,.22.22h1.975c.43,0,.583.2.583.593,0,.425-.132.6-.583.6h-1.975a.2.2,0,0,0-.22.22v4.9c0,.843.336,1.17,1.183,1.17h.851c.342,0,.505.122.562.555.057.493-.1.658-.4.7a12.1,12.1,0,0,1-1.484.129Z" transform="translate(-43.46 -14.065)"/><path class="c" d="M0,50.851V32.006a.684.684,0,0,1,.768-.768h.614a.683.683,0,0,1,.767.768V50.851a.683.683,0,0,1-.767.768H.768A.685.685,0,0,1,0,50.851" transform="translate(0 -11.037)"/><path class="c" d="M153.425,1.4a1.347,1.347,0,1,1,1.355,1.355A1.35,1.35,0,0,1,153.425,1.4" transform="translate(-54.21 -0.02)"/></g></g></svg>