<svg xmlns="http://www.w3.org/2000/svg" xmlns:xlink="http://www.w3.org/1999/xlink" width="94.282" height="97.767" viewBox="0 0 94.282 97.767"><defs><style>.a,.e,.k{fill:none;}.b{clip-path:url(#a);}.c{opacity:0.3;}.d{clip-path:url(#c);}.e{stroke:#cee6ad;stroke-miterlimit:10;}.f{opacity:0.5;}.g{clip-path:url(#d);}.h{fill:#cee6ad;}.i{fill:#4d997f;}.j{fill:#fe5000;}.k{stroke:#002744;stroke-linecap:round;stroke-linejoin:round;stroke-width:1.5px;}.l{fill:#002744;}</style><clipPath id="a"><rect class="a" width="94.282" height="97.767"/></clipPath><clipPath id="c"><rect class="a" width="92.827" height="83.692"/></clipPath><clipPath id="d"><rect class="a" width="65.922" height="65.626"/></clipPath></defs><g transform="translate(-1189 -1087)"><g transform="translate(1189 1087)"><g class="b"><g transform="translate(0 0)"><g class="b"><g class="c" transform="translate(1.455 8.111)"><g class="d"><path class="e" d="M19.948,92.385a45.991,45.991,0,1,1,55.671.657" transform="translate(-1.801 -9.689)"/></g></g><g class="f" transform="translate(14.907 21.564)"><g class="g"><path class="h" d="M55.044,91.178l-1.8-2.065,1.514-.046a30.827,30.827,0,1,0-10.24-.331l-.42,2.09a32.968,32.968,0,1,1,10.943.352" transform="translate(-17.664 -25.552)"/></g></g><path class="h" d="M71.412,61.274A18.025,18.025,0,1,1,53.387,43.249,18.026,18.026,0,0,1,71.412,61.274" transform="translate(-5.519 -6.75)"/><path class="h" d="M16.745,70.157c-3.643-3.8-5.587-10.989,1.144-14.832.7-3.758,8.932-8.9,16.651-6.563-.781.851-2.779,3.037-.4,3.3s2.7-1,3.4-1.771.239-.431,1.654,0,8.18,4.081,6.343,8.9-5.355,6.351-10.524,5.077c0,0-.6.01.737-1.479s2.238-2.049,1.141-3.176-2.3.3-2.96.963-1.7,1.906-1.7,1.906a10.792,10.792,0,0,1-1.327-.2c-.741-.159-2.625-.958-3.723-.538-1.759.825-5.415,1.306-7.964,2.34s-2.915,4.808-2.478,6.067" transform="translate(-2.095 -7.519)"/><path class="i" d="M17.049,71.735c-2.974-3.813-1.591-8.607.954-9.99a6.167,6.167,0,0,1,5.053-.284,13.714,13.714,0,0,1,2.459-2.734c1.258-.954,3.585-.278,2.478,1.384l-1.25,1.874,1.45.845a7.281,7.281,0,0,1-3.007,1.037c-2.423.506-9.841,2.325-8.137,7.869" transform="translate(-2.398 -9.097)"/><path class="h" d="M55.174,10.015a1.277,1.277,0,0,0-.74.713,1.229,1.229,0,0,0,0,.9,1.267,1.267,0,0,0,1.625.763L60.1,10.884c.644.65,1.274,1.336,1.853,2.045a16.133,16.133,0,0,1,1.763,2.594l-3.054,1.122a1.272,1.272,0,0,0-.74.713,1.311,1.311,0,0,0-.005.918,1.265,1.265,0,0,0,1.624.763L64.7,17.873c.7,2.8-.38,5.016-2.037,7.376-3.135,2.074-7.07,2.349-10.91-.811l.206-3.244a1.266,1.266,0,0,0-.814-1.281,1.213,1.213,0,0,0-.365-.081,1.275,1.275,0,0,0-1.344,1.187l-.051.879C46.608,18.092,44.4,11.1,48.669.75c.668,2.186,5.171,4.727,9.321,8.217Z" transform="translate(-7.222 -0.117)"/><path class="h" d="M87.39,57.006a1.4,1.4,0,0,0,.469-1.023,1.347,1.347,0,0,0-.363-.917,1.387,1.387,0,0,0-1.961-.127l-3.517,3.155c-.917-.405-1.834-.852-2.707-1.343a17.764,17.764,0,0,1-2.836-1.939l2.665-2.366a1.4,1.4,0,0,0,.469-1.024,1.438,1.438,0,0,0-.363-.938,1.386,1.386,0,0,0-1.96-.128l-2.75,2.452c-1.833-2.579-1.619-5.265-.873-8.335,2.366-3.368,6.267-5.222,11.446-3.539L86.2,44.322a1.388,1.388,0,0,0,1.344.981,1.356,1.356,0,0,0,.405-.063,1.4,1.4,0,0,0,.895-1.749l-.3-.917c4.349,2.771,9.4,9.017,9.187,21.274-1.556-1.961-7.162-2.75-12.79-4.647Z" transform="translate(-11.411 -6.29)"/><path class="j" d="M49.621,88.615c.4-29.339,7.512-54.912,27.7-71.917a1.386,1.386,0,0,1,1.949.133l.675.787a1.354,1.354,0,0,1-.113,1.873,61.5,61.5,0,0,0-5.615,6.116C60.541,43.189,56.945,66.283,57.732,88.091" transform="translate(-7.744 -2.553)"/><path class="k" d="M49.621,88.615c.4-29.339,7.512-54.912,27.7-71.917a1.386,1.386,0,0,1,1.949.133l.675.787a1.354,1.354,0,0,1-.113,1.873,61.5,61.5,0,0,0-5.615,6.116C60.541,43.189,56.945,66.283,57.732,88.091" transform="translate(-7.744 -2.553)"/><path class="k" d="M42.569,109.318a10.9,10.9,0,0,1,18.887-4.862" transform="translate(-6.644 -15.718)"/><path class="k" d="M27.534,112.861a4.826,4.826,0,0,1,6.906-3" transform="translate(-4.297 -17.059)"/><path class="k" d="M14.016,113.2a7.577,7.577,0,0,1,11.05-5.438,2.043,2.043,0,0,0,2.748-.889,6.618,6.618,0,0,1,3.374-3.308,7.927,7.927,0,0,1,8.726,1.606" transform="translate(-2.188 -16.065)"/><path class="k" d="M73.821,108.829a11.4,11.4,0,0,1,8.647-2.089c4.428.6,7.9,3.242,8.816,6.386" transform="translate(-11.521 -16.64)"/><path class="k" d="M61.936,110.321a5.08,5.08,0,0,1,10.151-.412" transform="translate(-9.666 -16.393)"/><path class="k" d="M50.066,90.8a8.666,8.666,0,0,0,3.745,1.067,10.5,10.5,0,0,0,3.917-.618" transform="translate(-7.814 -14.171)"/><path class="k" d="M58.152,81.79a9.7,9.7,0,0,0,1.239-.354" transform="translate(-9.076 -12.71)"/><path class="k" d="M51.5,80.96a7.753,7.753,0,0,0,3.35.954" transform="translate(-8.038 -12.636)"/><path class="k" d="M52.774,70.355a7.675,7.675,0,0,0,3.151,1.4,9.3,9.3,0,0,0,3.51-.061" transform="translate(-8.237 -10.98)"/><path class="k" d="M60.043,63.477a9.442,9.442,0,0,0,1.747-.008" transform="translate(-9.371 -9.906)"/><path class="k" d="M54.927,61.216a6.865,6.865,0,0,0,2.235,1.4" transform="translate(-8.573 -9.554)"/><path class="k" d="M58.234,52.118a6.6,6.6,0,0,0,2.423,1.709,7.988,7.988,0,0,0,2.971.541" transform="translate(-9.089 -8.134)"/><path class="k" d="M61.576,44.532a6.093,6.093,0,0,0,2.2,1.62,7.378,7.378,0,0,0,2.73.554" transform="translate(-9.61 -6.95)"/><path class="k" d="M69.473,39.449a6.925,6.925,0,0,0,.973.172" transform="translate(-10.843 -6.157)"/><path class="k" d="M65.63,36.881a4.939,4.939,0,0,0,1.147,1.171" transform="translate(-10.243 -5.756)"/><path class="k" d="M73.223,33.245a6.5,6.5,0,0,0,.9.253" transform="translate(-11.428 -5.189)"/><path class="k" d="M69.912,30.523a4.623,4.623,0,0,0,.958,1.191" transform="translate(-10.911 -4.764)"/><path class="k" d="M74.426,24.9a4.53,4.53,0,0,0,1.243,1.614,5.485,5.485,0,0,0,1.84.959" transform="translate(-11.616 -3.886)"/><path class="k" d="M79.059,20.677a3.652,3.652,0,0,0,1,1.3,4.429,4.429,0,0,0,1.478.771" transform="translate(-12.339 -3.227)"/><path class="k" d="M82.822,17.461a3.134,3.134,0,0,0,.716,1.222,3.809,3.809,0,0,0,1.186.822" transform="translate(-12.926 -2.725)"/><path class="k" d="M50.664,65.89C44.8,59.3,35.566,52.607,19.806,55.777c-5.129,1.032-6.7,5.285-6.493,8.65.225,3.615,3.412,7.139,3.412,6.789-1.744-8.077,9.076-6.661,11.144-8.906" transform="translate(-2.075 -8.579)"/><path class="k" d="M42.842,49.775c5.035,2.109,9.038,6.451,7.036,10.254" transform="translate(-6.686 -7.768)"/><path class="k" d="M18.122,55.592c2.725-6.1,9.269-7.914,16.043-7.3a14.053,14.053,0,0,1,1.586.231" transform="translate(-2.828 -7.52)"/><path class="k" d="M38.446,66.236c7.052,2.956,10.747-4.311,10.747-4.311" transform="translate(-6 -9.665)"/><path class="k" d="M34.093,65.114a48.842,48.842,0,0,0-5.481-2.094" transform="translate(-4.466 -9.836)"/><path class="k" d="M16.553,64.159c.816-2.4,3.618-2.818,7.221-2.109" transform="translate(-2.583 -9.636)"/><path class="k" d="M37.925,66.128,40.3,63.6a1.413,1.413,0,0,0,.385-.97,1.4,1.4,0,0,0-2.387-.986l-3.188,3.188" transform="translate(-5.479 -9.557)"/><path class="k" d="M28.065,62.271,29.513,60.1a1.227,1.227,0,0,0,.2-.662,1.206,1.206,0,0,0-1.046-1.2,2.119,2.119,0,0,0-2.033.924c-.477.738-1.108,1.694-1.524,2.34" transform="translate(-3.919 -9.086)"/><path class="k" d="M41.881,49.59,40.51,51.084a3.257,3.257,0,0,1-2.386,1.046,3.414,3.414,0,0,1-.878-.123.782.782,0,0,1-.385-1.246l1.786-2.171" transform="translate(-5.725 -7.583)"/><path class="k" d="M68.168,45.329c8.012-.45,18.48.979,24.958,10.84" transform="translate(-10.639 -7.063)"/><path class="k" d="M87.39,57.006a1.4,1.4,0,0,0,.469-1.023,1.347,1.347,0,0,0-.363-.917,1.387,1.387,0,0,0-1.961-.127l-3.517,3.155c-.917-.405-1.834-.852-2.707-1.343a17.764,17.764,0,0,1-2.836-1.939l2.665-2.366a1.4,1.4,0,0,0,.469-1.024,1.438,1.438,0,0,0-.363-.938,1.386,1.386,0,0,0-1.96-.128l-2.75,2.452c-1.833-2.579-1.619-5.265-.873-8.335,2.366-3.368,6.267-5.222,11.446-3.539L86.2,44.322a1.388,1.388,0,0,0,1.344.981,1.356,1.356,0,0,0,.405-.063,1.4,1.4,0,0,0,.895-1.749l-.3-.917c4.349,2.771,9.4,9.017,9.187,21.274-1.556-1.961-7.162-2.75-12.79-4.647Z" transform="translate(-11.411 -6.29)"/><path class="k" d="M67.226,28.319c-6.961-2.29-15.382-7-17.6-17.541" transform="translate(-7.746 -1.682)"/><path class="k" d="M55.174,10.015a1.277,1.277,0,0,0-.74.713,1.229,1.229,0,0,0,0,.9,1.267,1.267,0,0,0,1.625.763L60.1,10.884c.644.65,1.274,1.336,1.853,2.045a16.133,16.133,0,0,1,1.763,2.594l-3.054,1.122a1.272,1.272,0,0,0-.74.713,1.311,1.311,0,0,0-.005.918,1.265,1.265,0,0,0,1.624.763L64.7,17.873c.7,2.8-.38,5.016-2.037,7.376-3.135,2.074-7.07,2.349-10.91-.811l.206-3.244a1.266,1.266,0,0,0-.814-1.281,1.213,1.213,0,0,0-.365-.081,1.275,1.275,0,0,0-1.344,1.187l-.051.879C46.608,18.092,44.4,11.1,48.669.75c.668,2.186,5.171,4.727,9.321,8.217Z" transform="translate(-7.222 -0.117)"/><line class="k" y2="3.083" transform="translate(64.352 68.325)"/><line class="k" x1="3.083" transform="translate(62.81 69.866)"/><line class="k" y2="3.083" transform="translate(37.819 29.584)"/><line class="k" x1="3.083" transform="translate(36.277 31.125)"/><line class="k" y2="3.083" transform="translate(21.191 76.172)"/><line class="k" x1="3.083" transform="translate(19.649 77.714)"/><path class="l" d="M96.008,75.883a.747.747,0,1,1-.747-.747.747.747,0,0,1,.747.747" transform="translate(-14.751 -11.727)"/><path class="l" d="M71.236,89.777a.747.747,0,1,1-.747-.747.747.747,0,0,1,.747.747" transform="translate(-10.885 -13.895)"/><circle class="k" cx="2.223" cy="2.223" r="2.223" transform="translate(82.487 81.305)"/><circle class="k" cx="1.969" cy="1.969" r="1.969" transform="translate(0.633 64.814)"/><path class="l" d="M36.326,75a.747.747,0,1,1-.747-.747.747.747,0,0,1,.747.747" transform="translate(-5.436 -11.588)"/><path class="l" d="M43.178,92.833a.747.747,0,1,1-.747-.747.747.747,0,0,1,.747.747" transform="translate(-6.506 -14.372)"/><path class="l" d="M23.892,42.382a.747.747,0,1,1-.747-.747.747.747,0,0,1,.747.747" transform="translate(-3.496 -6.498)"/></g></g></g></g></g></svg>