<svg xmlns="http://www.w3.org/2000/svg" xmlns:xlink="http://www.w3.org/1999/xlink" width="85.013" height="85.013" viewBox="0 0 85.013 85.013"><defs><style>.a,.c,.d,.f{fill:none;}.b{clip-path:url(#a);}.c,.d,.f{stroke:#fff;stroke-linecap:round;stroke-miterlimit:10;}.c{stroke-width:0.5px;}.d{stroke-width:0.25px;}.e{fill:#cee6ad;}.g{fill:#fff;}</style><clipPath id="a"><rect class="a" width="85.013" height="85.013"/></clipPath></defs><g transform="translate(0 0)"><g class="b"><line class="c" y2="84.624" transform="translate(3.593 0.194)"/><line class="c" x1="84.624" transform="translate(0.195 81.217)"/><line class="d" x1="84.624" transform="translate(0.195 71.58)"/><line class="d" x1="84.624" transform="translate(0.195 56.619)"/><line class="d" x1="84.624" transform="translate(0.195 41.658)"/><line class="d" x1="84.624" transform="translate(0.195 26.697)"/><line class="d" x1="84.624" transform="translate(0.195 11.737)"/></g></g><line class="c" x1="2.532" transform="translate(2.327 71.58)"/><line class="c" x1="2.532" transform="translate(2.327 56.619)"/><line class="c" x1="2.532" transform="translate(2.327 41.658)"/><line class="c" x1="2.532" transform="translate(2.327 26.697)"/><line class="c" x1="2.532" transform="translate(2.327 11.737)"/><line class="c" y1="2.532" transform="translate(14.703 79.951)"/><line class="c" y1="2.532" transform="translate(29.663 79.951)"/><line class="c" y1="2.532" transform="translate(44.624 79.951)"/><line class="c" y1="2.532" transform="translate(59.585 79.951)"/><line class="c" y1="2.532" transform="translate(74.546 79.951)"/><g transform="translate(0 0)"><g class="b"><path class="e" d="M19.557,94.47h-2.9A1.66,1.66,0,0,1,15,92.809v-13.4a1.66,1.66,0,0,1,1.66-1.66h2.9a1.66,1.66,0,0,1,1.66,1.66v13.4a1.66,1.66,0,0,1-1.66,1.66" transform="translate(-3.34 -17.316)"/><path class="e" d="M38.72,96.454h-2.9a1.66,1.66,0,0,1-1.66-1.66V88.325a1.66,1.66,0,0,1,1.66-1.66h2.9a1.66,1.66,0,0,1,1.66,1.66v6.469a1.66,1.66,0,0,1-1.66,1.66" transform="translate(-7.608 -19.301)"/><path class="e" d="M57.967,90.95h-2.9a1.66,1.66,0,0,1-1.66-1.66V63.612a1.66,1.66,0,0,1,1.66-1.66h2.9a1.66,1.66,0,0,1,1.66,1.66V89.29a1.66,1.66,0,0,1-1.66,1.66" transform="translate(-11.895 -13.797)"/><path class="e" d="M96.462,90.95h-2.9a1.66,1.66,0,0,1-1.66-1.66V63.612a1.66,1.66,0,0,1,1.66-1.66h2.9a1.66,1.66,0,0,1,1.66,1.66V89.29a1.66,1.66,0,0,1-1.66,1.66" transform="translate(-20.468 -13.797)"/><path class="e" d="M77.215,85.367h-2.9a1.66,1.66,0,0,1-1.66-1.66V38.543a1.66,1.66,0,0,1,1.66-1.66h2.9a1.66,1.66,0,0,1,1.66,1.66V83.707a1.66,1.66,0,0,1-1.66,1.66" transform="translate(-16.181 -8.214)"/><path class="f" d="M18.915,62.26l14.2,7.187a.986.986,0,0,0,1.253-.314l14.47-20.665L63.1,30.885a.83.83,0,0,1,1.325.047l14.33,20.523" transform="translate(-4.212 -6.81)"/><path class="g" d="M78.586,29.8a2.7,2.7,0,1,1-2.7-2.7,2.7,2.7,0,0,1,2.7,2.7" transform="translate(-16.297 -6.035)"/><path class="g" d="M40.091,79.946a2.7,2.7,0,1,1-2.7-2.7,2.7,2.7,0,0,1,2.7,2.7" transform="translate(-7.724 -17.203)"/></g></g></svg>