<svg xmlns="http://www.w3.org/2000/svg" xmlns:xlink="http://www.w3.org/1999/xlink" width="366.083" height="365.469" viewBox="0 0 366.083 365.469"><defs><style>.a{fill:none;}.b{clip-path:url(#a);}.c{fill:#09f;}.d{fill:#cee6ad;}.e{fill:#fe5000;}.f{fill:#005c99;}.g{fill:#4d997f;}.h{fill:#e6500b;}.i{fill:#002744;}.j{fill:#0e555c;}</style><clipPath id="a"><rect class="a" width="366.083" height="365.468"/></clipPath></defs><g class="b"><path class="c" d="M192.4,85.673l.255,0V0a179.634,179.634,0,0,0-34.867,3.357L174.119,87.4A97.456,97.456,0,0,1,192.4,85.673" transform="translate(-9.299)"/><path class="d" d="M172.957,87.611,156.621,3.568A183.161,183.161,0,0,0,138.062,8.2l25.021,81.842a96.4,96.4,0,0,1,9.874-2.427" transform="translate(-8.137 -0.21)"/><path class="e" d="M160.881,90.326,135.859,8.484A173.926,173.926,0,0,0,100.694,23.41l41.473,74.818a96.52,96.52,0,0,1,18.714-7.9" transform="translate(-5.935 -0.5)"/><path class="f" d="M139.484,99.164,98.011,24.346A174.463,174.463,0,0,0,55.155,57.231l61.511,59.4a97.383,97.383,0,0,1,22.818-17.466" transform="translate(-3.251 -1.435)"/><path class="g" d="M113.844,118.69,52.333,59.29A176.677,176.677,0,0,0,7.274,138.932l82.531,22.114a96.872,96.872,0,0,1,24.039-42.356" transform="translate(-0.429 -3.494)"/><path class="h" d="M86.08,191.171a97.108,97.108,0,0,1,3.3-25.137L6.844,143.919C-6.4,193.343-.484,238.269,25.1,282.58l74.05-42.753A96.553,96.553,0,0,1,86.08,191.171" transform="translate(0 -8.482)"/><path class="i" d="M184.668,294.193a96.97,96.97,0,0,1-83.946-48.359l-74.05,42.753A178.759,178.759,0,0,0,67.464,337.2,182.733,182.733,0,0,0,324.9,314.678l-65.836-55.243a96.805,96.805,0,0,1-74.4,34.758" transform="translate(-1.572 -14.489)"/><path class="j" d="M194.833,0V85.677a97.009,97.009,0,0,1,74.145,159.27l65.837,55.243c29.386-35.022,42.751-71.742,42.751-117.458A182.733,182.733,0,0,0,194.833,0" transform="translate(-11.483)"/></g></svg>