<?xml version="1.0" encoding="UTF-8"?><svg id="Capa_2" xmlns="http://www.w3.org/2000/svg" xmlns:xlink="http://www.w3.org/1999/xlink" viewBox="0 0 387.8 62.82"><defs><style>.cls-1{fill:#005c99;}.cls-2{fill:url(#Degradado_sin_nombre_9-4);}.cls-3{fill:url(#Degradado_sin_nombre_9-5);}.cls-4{fill:url(#Degradado_sin_nombre_9-2);}.cls-5{fill:url(#Degradado_sin_nombre_9-7);}.cls-6{fill:url(#Degradado_sin_nombre_9-3);}.cls-7{fill:url(#Degradado_sin_nombre_9-6);}.cls-8{fill:url(#Degradado_sin_nombre_9);}.cls-9{fill:url(#Degradado_sin_nombre_9-8);}</style><linearGradient id="Degradado_sin_nombre_9" x1="151.75" y1="6.41" x2="151.75" y2="50.48" gradientTransform="matrix(1, 0, 0, 1, 0, 0)" gradientUnits="userSpaceOnUse"><stop offset="0" stop-color="#ceef9e"/><stop offset="1" stop-color="#359b79"/></linearGradient><linearGradient id="Degradado_sin_nombre_9-2" x1="153.47" y1="6.41" x2="153.47" y2="50.48" xlink:href="#Degradado_sin_nombre_9"/><linearGradient id="Degradado_sin_nombre_9-3" x1="164.98" y1="6.41" x2="164.98" y2="50.48" xlink:href="#Degradado_sin_nombre_9"/><linearGradient id="Degradado_sin_nombre_9-4" x1="156.63" y1="6.41" x2="156.63" y2="50.48" xlink:href="#Degradado_sin_nombre_9"/><linearGradient id="Degradado_sin_nombre_9-5" x1="151.64" x2="151.64" y2="50.48" xlink:href="#Degradado_sin_nombre_9"/><linearGradient id="Degradado_sin_nombre_9-6" x1="168.14" y1="6.41" x2="168.14" y2="50.48" xlink:href="#Degradado_sin_nombre_9"/><linearGradient id="Degradado_sin_nombre_9-7" x1="169.87" y1="6.41" x2="169.87" y2="50.48" xlink:href="#Degradado_sin_nombre_9"/><linearGradient id="Degradado_sin_nombre_9-8" x1="169.97" y1="6.41" x2="169.97" y2="50.48" xlink:href="#Degradado_sin_nombre_9"/></defs><g id="Capa_1-2"><g><g><path class="cls-1" d="M0,24.78C0,6.52,5.01,0,18.97,0c5.05,0,8.03,.29,11.26,.92,1.33,.31,1.95,1.2,1.75,2.58l-.13,1.11c-.2,1.37-1.07,2.05-2.45,1.92-3.14-.26-5.82-.34-10.43-.34-8.84,0-11.66,4.52-11.66,18.59s2.82,18.59,11.66,18.59c4.84,0,8.19-.07,11.4-.46,1.39-.13,2.27,.48,2.46,1.92l.13,1.05c.19,1.31-.38,2.19-1.7,2.51-3.36,.82-6.83,1.17-12.29,1.17C5.01,49.55,0,43.03,0,24.78Z"/><path class="cls-1" d="M49.59,49.38c-6.23,0-10.58-3.43-10.58-9.71v-3.4c0-5.4,3.63-8.52,9.88-8.52h12.55c.51,0,.77-.26,.77-.77v-1.83c-.06-4.43-1.67-5.47-6.92-5.47-2.65,0-7.38,0-11.83,.27-1.52,.13-2.33-.51-2.64-2.06-.37-1.99,.12-2.74,2.16-3.05,4.51-.68,10.18-.86,13.75-.86,8.08,0,12.22,2.56,12.22,11.17v21.19c0,1.57-.81,2.39-2.38,2.39h-.74c-1.43,0-2.07-.2-2.5-2.02l-.15-.84c-.18-.65-.57-.84-1.02-.39-2.74,2.38-6.93,3.91-12.58,3.91h0Zm1.38-5.71c3.04,0,7.06-.26,10.68-2.85,.37-.25,.56-.77,.56-1.27v-5.95c0-.51-.26-.77-.77-.77l-11.28,.04c-3.32,.13-4.34,1.7-4.34,4.38v1.59c0,3.44,1.65,4.85,5.15,4.85h0Z"/><path class="cls-1" d="M79.08,46.52V17.07c0-1.45,.76-2.2,2.2-2.2h.98c1.37,0,2.13,.38,2.32,1.72l.08,.65c.12,.76,.74,.95,1.32,.51,4.17-2.33,7.72-3.39,12.43-3.65,1.51-.18,2.27,.76,2.07,2.27l-.19,1.84c-.2,1.38-.95,1.83-2.27,2.07-1.83,.24-6.72,.97-11.43,2.39-.51,.19-.76,.57-.76,1.08v22.77c0,1.45-.75,2.2-2.2,2.2h-2.33c-1.44,0-2.21-.76-2.21-2.2Z"/><path class="cls-1" d="M122.38,49.55c-4.2,0-10.86-.88-13.64-1.89-1.2-.43-1.65-1.13-1.65-2.27V2.52c0-1.56,.82-2.39,2.39-2.39h1.97c1.56,0,2.39,.81,2.39,2.39v6.82c0,2.44-.05,3.61-.32,5.61-.13,1,.32,.9,1.2,.58,3.57-1.37,7.39-1.56,9.11-1.56,8.26,0,14.01,2.5,14.01,18.09,0,11.18-3.39,17.49-15.46,17.49h0Zm.42-5.64c5.8-.12,8.1-2.9,8.1-12.09,0-10.15-2.25-12.03-7.86-12.03-2.37,0-5.21,.31-8.51,1.14-.57,.13-.76,.68-.76,1.56l.06,19.23c0,.81,.44,1.24,1.19,1.43,1.69,.46,5.22,.82,7.78,.76h0Z"/><path class="cls-1" d="M185.41,46.33V17.25c0-1.57,.81-2.39,2.37-2.39h1.11c1.49,0,2.25,.57,2.43,1.66l.08,.71c.06,.58,.51,.71,1.15,.33,4.65-2.63,9.3-3.59,13.94-3.59,5.96,0,9.2,3.24,9.2,9.33v23.03c0,1.56-.82,2.39-2.39,2.39h-1.97c-1.57,0-2.39-.82-2.39-2.39V25.26c0-4.31-1.11-5.59-4.31-5.59-3.66,0-6.99,.72-11.9,2.99-.39,.19-.58,.45-.58,.9v22.77c0,1.56-.81,2.39-2.38,2.39h-1.97c-1.57,0-2.39-.82-2.39-2.39Z"/><path class="cls-1" d="M225.93,40.44V2.52c0-1.57,.82-2.39,2.39-2.39h1.97c1.57,0,2.39,.81,2.39,2.39l-.06,36.39c0,2.88,1.53,4.34,4.41,4.34h.94c1.43,0,2.44,.74,2.56,2.18l.06,.81c.12,1.43-.32,2.48-1.76,2.73-1.53,.27-3.26,.4-4.36,.4-5.2,0-8.52-3.16-8.52-8.94Z"/><path class="cls-1" d="M249.29,62.78c-1.38,.2-2.14-.54-2.46-1.91-.39-1.5,.24-2.45,1.62-3.02,3.68-1.49,5.78-3.66,7.28-6.56,.28-.51,.55-1.03,.77-1.61,.26-.58-.05-.97-.73-1.03-1.5-.3-2.45-1.18-3.02-2.67l-10.67-28.6c-.57-1.51,.12-2.53,1.76-2.53h2.58c1.25,0,2.07,.56,2.45,1.82l7.83,22.79c.37,1.11,.67,2.23,1.03,3.33,.13,.57,.34,.82,.68,.82s.61-.25,.74-.76c.44-1.18,.79-2.35,1.16-3.41l7.71-22.77c.38-1.26,1.2-1.82,2.46-1.82h2.64c1.64,0,2.33,1.01,1.76,2.53l-12.21,32.96c-2.05,5.52-5.91,11.41-13.4,12.43h0Z"/><path class="cls-1" d="M293.78,49.38c-5.8,0-8.84-3.4-8.84-9.55V21.03c0-.63-.32-.95-.95-.95h-2.64c-2,0-2.57-.75-2.57-2.38,0-1.98,.75-2.5,2.51-2.62l2.7-.15c.64-.06,.95-.38,.95-.96V7.14c0-1.44,.76-2.2,2.21-2.2h2.27c1.44,0,2.2,.75,2.2,2.2v6.78c0,.63,.32,.95,.95,.95h6.96c1.88,0,2.57,.87,2.57,2.59,0,1.88-.57,2.63-2.57,2.63h-6.96c-.63,0-.95,.32-.95,.95v17.89c0,3.19,1.17,4.34,4.4,4.34h2.88c1.5,0,2.2,.55,2.45,2.48,.25,2.22-.44,2.92-1.71,3.11-2.1,.33-4.59,.53-5.87,.53h0Z"/><path class="cls-1" d="M308.51,4.28c0-2.28,1.88-4.16,4.21-4.16s4.16,1.89,4.16,4.16-1.89,4.21-4.16,4.21-4.21-1.88-4.21-4.21Zm.84,42.06V17.25c0-1.57,.82-2.39,2.39-2.39h1.91c1.57,0,2.39,.81,2.39,2.39v29.09c0,1.57-.81,2.39-2.39,2.39h-1.91c-1.57,0-2.39-.82-2.39-2.39Z"/><path class="cls-1" d="M341.34,49.55c-11.83,0-16.17-4.71-16.17-17.79s4.41-17.79,16.23-17.79c2.47,0,6.01,.27,9.04,1.03,1.45,.38,2.01,1.38,1.75,2.83-.32,1.44-1.2,2.07-2.65,2.06-2.56-.12-5.19-.21-7.02-.21-7.65,0-10.3,2.7-10.3,12.09s2.65,12.15,10.3,12.15c1.62,0,4.69-.09,7.61-.39,1.57-.19,2.46,.49,2.71,1.94,.25,1.56-.37,2.57-1.76,2.94-3.04,.75-6.49,1.16-9.73,1.16h0Z"/><path class="cls-1" d="M361.62,48.79c-1.5-.18-2.01-1.06-1.88-2.81,.13-1.81,.82-2.38,2.33-2.31,2.82,.11,6.21,.18,9.6,.18,7.42-.02,9.63-.68,9.63-4.14,0-3.02-1.95-3.81-5.35-4.52l-9.07-1.99c-5.58-1.27-7.7-4.38-7.7-9.81,0-6.93,3.92-9.5,13.19-9.42,3.76,.07,8.38,.35,12.28,.82,1.38,.19,2.14,1,1.95,2.69-.19,1.93-.89,2.5-2.45,2.43-3.53-.15-7.16-.23-10.75-.24-5.86-.02-7.72,.45-7.72,3.72s1.63,3.83,4.83,4.59l9.19,2.05c5.65,1.28,8.11,3.89,8.11,9.68,0,7.5-4.6,9.77-14.69,9.77-2.04,0-6.47-.07-11.49-.69Z"/></g><g><path class="cls-8" d="M159.88,36.12l-13.89-13.89c-1.18,1.92-2,4.08-2.37,6.39l16.25,16.25v-8.76Z"/><path class="cls-4" d="M159.88,24.72l-8.19-8.19c-1.78,1.1-3.34,2.5-4.61,4.14l12.81,12.81v-8.76Z"/><path class="cls-6" d="M168.22,15.6c-1.98-.94-4.17-1.51-6.48-1.63v8.12l6.48-6.48Z"/><path class="cls-2" d="M159.88,13.97c-2.31,.12-4.5,.7-6.48,1.63l6.48,6.48V13.97Z"/><path class="cls-3" d="M143.41,31.05c0,.1,0,.19,0,.29,0,9.3,7.29,16.89,16.47,17.37v-1.21l-16.46-16.46Z"/><path class="cls-7" d="M161.74,33.48l12.81-12.81c-1.28-1.64-2.84-3.05-4.62-4.15l-8.19,8.19v8.76Z"/><path class="cls-5" d="M161.74,44.88l16.25-16.25c-.36-2.31-1.18-4.48-2.37-6.39l-13.89,13.89v8.76Z"/><path class="cls-9" d="M161.74,48.72c9.18-.48,16.47-8.08,16.47-17.37,0-.1,0-.2,0-.29l-16.46,16.46v1.21Z"/></g></g></g></svg>