<?xml version="1.0" encoding="UTF-8"?><svg id="Capa_2" xmlns="http://www.w3.org/2000/svg" xmlns:xlink="http://www.w3.org/1999/xlink" viewBox="0 0 32 32"><defs><style>.cls-1{fill:url(#Degradado_sin_nombre_9-4);}.cls-2{fill:url(#Degradado_sin_nombre_9-5);}.cls-3{fill:url(#Degradado_sin_nombre_9-2);}.cls-4{fill:url(#Degradado_sin_nombre_9-7);}.cls-5{fill:url(#Degradado_sin_nombre_9-3);}.cls-6{fill:url(#Degradado_sin_nombre_9-6);}.cls-7{fill:url(#Degradado_sin_nombre_9);}.cls-8{fill:url(#Degradado_sin_nombre_9-8);}</style><linearGradient id="Degradado_sin_nombre_9" x1="7.67" y1="-6.96" x2="7.67" y2="33.62" gradientUnits="userSpaceOnUse"><stop offset="0" stop-color="#ceef9e"/><stop offset="1" stop-color="#359b79"/></linearGradient><linearGradient id="Degradado_sin_nombre_9-2" x1="9.25" y1="-6.96" x2="9.25" y2="33.62" xlink:href="#Degradado_sin_nombre_9"/><linearGradient id="Degradado_sin_nombre_9-3" x1="19.84" y1="-6.96" x2="19.84" y2="33.62" xlink:href="#Degradado_sin_nombre_9"/><linearGradient id="Degradado_sin_nombre_9-4" x1="12.16" y1="-6.96" x2="12.16" y2="33.62" xlink:href="#Degradado_sin_nombre_9"/><linearGradient id="Degradado_sin_nombre_9-5" x1="7.57" x2="7.57" y2="33.62" xlink:href="#Degradado_sin_nombre_9"/><linearGradient id="Degradado_sin_nombre_9-6" x1="22.75" y1="-6.96" x2="22.75" y2="33.62" xlink:href="#Degradado_sin_nombre_9"/><linearGradient id="Degradado_sin_nombre_9-7" x1="24.33" y1="-6.96" x2="24.33" y2="33.62" xlink:href="#Degradado_sin_nombre_9"/><linearGradient id="Degradado_sin_nombre_9-8" x1="24.43" x2="24.43" y2="33.62" xlink:href="#Degradado_sin_nombre_9"/></defs><g id="Capa_1-2"><path class="cls-7" d="m15.14,20.39L2.37,7.6c-1.09,1.77-1.84,3.76-2.18,5.89l14.95,14.97v-8.07Z"/><path class="cls-3" d="m15.14,9.9L7.61,2.36c-1.63,1.01-3.07,2.31-4.24,3.82l11.78,11.79v-8.07Z"/><path class="cls-5" d="m22.82,1.5c-1.82-.86-3.84-1.39-5.96-1.5v7.47l5.96-5.97Z"/><path class="cls-1" d="m15.14,0c-2.12.11-4.14.64-5.96,1.5l5.96,5.97V0Z"/><path class="cls-2" d="m0,15.73c0,.09,0,.18,0,.27,0,8.56,6.71,15.55,15.14,16v-1.11L0,15.73Z"/><path class="cls-6" d="m16.86,17.97l11.78-11.79c-1.17-1.51-2.61-2.81-4.24-3.82l-7.53,7.54v8.07Z"/><path class="cls-4" d="m16.86,28.46l14.95-14.97c-.33-2.13-1.09-4.12-2.18-5.89l-12.77,12.79v8.07Z"/><path class="cls-8" d="m16.86,32c8.44-.45,15.14-7.44,15.14-16,0-.09,0-.18,0-.27l-15.14,15.16v1.11Z"/></g></svg>