<svg xmlns="http://www.w3.org/2000/svg" width="16.47" height="16.5" viewBox="0 0 16.47 16.5"><defs><style>.a{fill:none;stroke:#eef1f4;stroke-linecap:round;stroke-linejoin:round;stroke-width:1.5px;}</style></defs><g transform="translate(0.75 0.75)"><path class="a" d="M53.082,102.23v2.258a1.5,1.5,0,0,1-1.641,1.505,14.894,14.894,0,0,1-6.5-2.311,14.676,14.676,0,0,1-4.516-4.516,14.9,14.9,0,0,1-2.311-6.526A1.505,1.505,0,0,1,39.616,91h2.258a1.505,1.505,0,0,1,1.505,1.295,9.663,9.663,0,0,0,.527,2.115A1.505,1.505,0,0,1,43.568,96l-.956.956a12.043,12.043,0,0,0,4.516,4.516l.956-.956a1.505,1.505,0,0,1,1.588-.339,9.662,9.662,0,0,0,2.115.527,1.5,1.5,0,0,1,1.295,1.528Z" transform="translate(-38.112 -91)"/></g></svg>