<svg id="icon_Likedin" xmlns="http://www.w3.org/2000/svg" width="26" height="26" viewBox="0 0 26 26">
  <path id="Trazado_6767" data-name="Trazado 6767" d="M244.6,2h20.8A2.6,2.6,0,0,1,268,4.6V25.4a2.6,2.6,0,0,1-2.6,2.6H244.6a2.6,2.6,0,0,1-2.6-2.6V4.6A2.6,2.6,0,0,1,244.6,2Zm0,2.6V25.4h20.8V4.6Zm11.7,6.5a3.93,3.93,0,0,0-2.012.588L253.7,11.1h-1.3v9.1H255V15a1.414,1.414,0,0,1,1.3-1.3h1.3a1.414,1.414,0,0,1,1.3,1.3v5.2h2.6V15a3.949,3.949,0,0,0-3.9-3.9Zm-6.5-1.3a1.3,1.3,0,1,0-1.3-1.3A1.3,1.3,0,0,0,249.8,9.8Zm-1.3,1.3v9.1h2.6V11.1Z" transform="translate(-242 -2)" fill="#202626" fill-rule="evenodd"/>
</svg>
