<svg xmlns="http://www.w3.org/2000/svg" width="19.5" height="17.5" viewBox="0 0 19.5 17.5">
  <g id="icon_results" transform="translate(0.75 0.75)">
    <path id="Trazado_6461" data-name="Trazado 6461" d="M893.5,94a.5.5,0,0,0-.5.5v6a.5.5,0,0,0,.5.5h3a.5.5,0,0,0,.5-.5v-6a.5.5,0,0,0-.5-.5Z" transform="translate(-893 -85)" fill="none" stroke="#202626" stroke-linecap="round" stroke-width="1.5" fill-rule="evenodd"/>
    <path id="Trazado_6462" data-name="Trazado 6462" d="M900.5,85a.5.5,0,0,0-.5.5v15a.5.5,0,0,0,.5.5h3a.5.5,0,0,0,.5-.5v-15a.5.5,0,0,0-.5-.5Z" transform="translate(-893 -85)" fill="none" stroke="#202626" stroke-linecap="round" stroke-width="1.5" fill-rule="evenodd"/>
    <path id="Trazado_6463" data-name="Trazado 6463" d="M907.5,89a.5.5,0,0,0-.5.5v11a.5.5,0,0,0,.5.5h3a.5.5,0,0,0,.5-.5v-11a.5.5,0,0,0-.5-.5Z" transform="translate(-893 -85)" fill="none" stroke="#202626" stroke-linecap="round" stroke-width="1.5" fill-rule="evenodd"/>
  </g>
</svg>
