<svg id="icon_AddImg" xmlns="http://www.w3.org/2000/svg" xmlns:xlink="http://www.w3.org/1999/xlink" width="40.87" height="40.879" viewBox="0 0 40.87 40.879">
  <defs>
    <clipPath id="clip-path">
      <rect id="Rectángulo_3731" data-name="Rectángulo 3731" width="40.87" height="40.879" transform="translate(0 0)" fill="none"/>
    </clipPath>
  </defs>
  <g id="Grupo_2935" data-name="Grupo 2935" transform="translate(0 0)" clip-path="url(#clip-path)">
    <path id="Trazado_19573" data-name="Trazado 19573" d="M34.728,0H6.154A6.16,6.16,0,0,0,0,6.152V34.736a6.151,6.151,0,0,0,6.144,6.143H34.728a6.15,6.15,0,0,0,6.142-6.143V6.143A6.15,6.15,0,0,0,34.728,0" fill="#c6cccb"/>
    <path id="Trazado_19574" data-name="Trazado 19574" d="M20.434,13.936a4.427,4.427,0,1,1-4.427-4.427,4.427,4.427,0,0,1,4.427,4.427" fill="#fff"/>
    <path id="Trazado_19575" data-name="Trazado 19575" d="M24.2,38.884H7.069A5.07,5.07,0,0,1,2,33.814v-5.26l3.74-5.07a4.413,4.413,0,0,1,7.09,0l4.18,5.66,1.34,1.82Z" fill="#f0f2f2"/>
    <path id="Trazado_19576" data-name="Trazado 19576" d="M38.87,23.139v10.67a5.07,5.07,0,0,1-5.07,5.07H11.41l5.19-7.73.13-.2,9-13.4a5.893,5.893,0,0,1,9.38,0Z" fill="#fff"/>
  </g>
</svg>
