<svg id="icon_edit" xmlns="http://www.w3.org/2000/svg" xmlns:xlink="http://www.w3.org/1999/xlink" width="15.418" height="15.418" viewBox="0 0 15.418 15.418">
  <defs>
    <clipPath id="clip-path">
      <rect id="Rectángulo_3531" data-name="Rectángulo 3531" width="15.418" height="15.418" transform="translate(0 0)" fill="none" stroke="#9ca09f" stroke-width="1"/>
    </clipPath>
  </defs>
  <g id="Grupo_2543" data-name="Grupo 2543" transform="translate(0 0)" clip-path="url(#clip-path)">
    <path id="Trazado_19081" data-name="Trazado 19081" d="M3.731,14.087l-2.747.576a.194.194,0,0,1-.23-.229l.577-2.747a1.255,1.255,0,0,1,.34-.629l9.977-9.977a1.133,1.133,0,0,1,1.6,0L14.337,2.17a1.133,1.133,0,0,1,0,1.6L4.36,13.747A1.255,1.255,0,0,1,3.731,14.087Z" fill="none" stroke="#9ca09f" stroke-linecap="round" stroke-width="1.5"/>
    <path id="Trazado_19082" data-name="Trazado 19082" d="M10.36,2.369l2.688,2.688" fill="none" stroke="#9ca09f" stroke-linecap="round" stroke-width="1.5"/>
    <line id="Línea_6494" data-name="Línea 6494" x2="7.894" transform="translate(6.773 14.668)" fill="none" stroke="#9ca09f" stroke-linecap="round" stroke-width="1.5"/>
  </g>
</svg>
