<svg xmlns="http://www.w3.org/2000/svg" width="19.588" height="19.589" viewBox="0 0 19.588 19.589">
  <g id="icon_register" transform="translate(0.75 0.839)">
    <path id="Trazado_6229" data-name="Trazado 6229" d="M91,133v8H75V123H85" transform="translate(-75 -123)" fill="none" stroke="#202626" stroke-linecap="round" stroke-linejoin="round" stroke-width="1.5"/>
    <path id="Trazado_6230" data-name="Trazado 6230" d="M89.336,123.664a2,2,0,0,1,2.828,0l.172.172a2,2,0,0,1,0,2.828l-7.158,7.158a2.006,2.006,0,0,1-1.022.547l-2.862.572a.2.2,0,0,1-.235-.235l.572-2.862a2,2,0,0,1,.547-1.022Z" transform="translate(-75 -123)" fill="none" stroke="#202626" stroke-width="1.5" fill-rule="evenodd"/>
    <path id="Trazado_6231" data-name="Trazado 6231" d="M88.5,124.5l3,3" transform="translate(-75 -123)" fill="none" stroke="#202626" stroke-width="1.5"/>
  </g>
</svg>
