<svg xmlns="http://www.w3.org/2000/svg" xmlns:xlink="http://www.w3.org/1999/xlink" width="60" height="60" viewBox="0 0 60 60">
  <defs>
    <clipPath id="clip-path">
      <rect id="Rectángulo_3328" data-name="Rectángulo 3328" width="22.404" height="35.37" transform="translate(146.213 15.849)" fill="none"/>
    </clipPath>
    <clipPath id="clip-path-2">
      <rect id="Rectángulo_3329" data-name="Rectángulo 3329" width="43.78" height="43.81" transform="translate(153.553 7.409)" fill="none"/>
    </clipPath>
  </defs>
  <g id="illustration_Bodega" transform="translate(0)">
    <g id="Grupo_2383" data-name="Grupo 2383" transform="translate(-983.97 -273)">
      <path id="Trazado_17624" data-name="Trazado 17624" d="M150.346,0H193.2a8.572,8.572,0,0,1,8.572,8.571V51.429A8.572,8.572,0,0,1,193.2,60H150.346a8.571,8.571,0,0,1-8.571-8.571V8.571A8.571,8.571,0,0,1,150.346,0" transform="translate(842.195 273)" fill="#cee6ad"/>
      <rect id="Rectángulo_3327" data-name="Rectángulo 3327" width="2.802" height="7.99" transform="matrix(0.545, -0.838, 0.838, 0.545, 989.829, 284.732)" fill="#ff895a"/>
      <path id="Trazado_17625" data-name="Trazado 17625" d="M172.188,47.15a1.572,1.572,0,1,1-1.572-1.571,1.571,1.571,0,0,1,1.572,1.571" transform="translate(842.195 273)" fill="#4d997f"/>
      <g id="Grupo_2363" data-name="Grupo 2363" transform="translate(842.195 273)" opacity="0.51">
        <g id="Grupo_2362" data-name="Grupo 2362">
          <g id="Grupo_2361" data-name="Grupo 2361" clip-path="url(#clip-path)">
            <path id="Trazado_17626" data-name="Trazado 17626" d="M165.173,47.009a5.765,5.765,0,0,1,3.444-5.166v-.509L160.683,19.26l-5.49-3.13a1.224,1.224,0,0,0-1.24,0,2.508,2.508,0,0,1-.4-.28v1.31a1.825,1.825,0,0,0,.58,1.33h-.76a1.778,1.778,0,0,0-1.75,1.81V33.7a1.841,1.841,0,0,0,.3,1.01h-3.96a1.753,1.753,0,0,0-1.75,1.75v13.01a1.746,1.746,0,0,0,1.75,1.75h19.17a5.558,5.558,0,0,1-1.96-4.21" fill="#4d997f"/>
          </g>
        </g>
      </g>
      <g id="Grupo_2366" data-name="Grupo 2366" transform="translate(842.195 273)" opacity="0.51">
        <g id="Grupo_2365" data-name="Grupo 2365">
          <g id="Grupo_2364" data-name="Grupo 2364" clip-path="url(#clip-path-2)">
            <path id="Trazado_17627" data-name="Trazado 17627" d="M197.333,36.459v13.01a1.746,1.746,0,0,1-1.75,1.75h-19.87a5.561,5.561,0,0,0,1.96-4.21,4.662,4.662,0,0,0-.13-1.13l12.81-4.74-.48-1.6-12.92,4.79a6.309,6.309,0,0,0-5.53-3.11,8.671,8.671,0,0,0-.89.061v-.161h-.13L162.2,18.68l-6.12-3.98-.63-1.131-1.9-1.3V9.209a1.782,1.782,0,0,1,1.75-1.8h7.71a1.776,1.776,0,0,1,1.75,1.8V17.16a1.79,1.79,0,0,1-.58,1.33h25.23a1.777,1.777,0,0,1,1.75,1.809V33.7a1.841,1.841,0,0,1-.3,1.009h4.72a1.753,1.753,0,0,1,1.75,1.75" fill="#4d997f"/>
          </g>
        </g>
      </g>
      <path id="Trazado_17628" data-name="Trazado 17628" d="M177.59,45.861a5.444,5.444,0,0,1-5.287,6.73h-1.687" transform="translate(842.195 273)" fill="none" stroke="#002744" stroke-linecap="round" stroke-miterlimit="10" stroke-width="0.75"/>
      <path id="Trazado_17629" data-name="Trazado 17629" d="M172.321,47.15a1.7,1.7,0,1,1-1.7-1.7A1.7,1.7,0,0,1,172.321,47.15Z" transform="translate(842.195 273)" fill="none" stroke="#002744" stroke-linecap="round" stroke-miterlimit="10" stroke-width="0.75"/>
      <path id="Trazado_17630" data-name="Trazado 17630" d="M168.83,41.943l-7.342-20.78a3.822,3.822,0,0,0-1.517-1.928l-5.208-3.381" transform="translate(842.195 273)" fill="none" stroke="#002744" stroke-linecap="round" stroke-miterlimit="10" stroke-width="0.75"/>
      <path id="Trazado_17631" data-name="Trazado 17631" d="M155.637,14.4l5.288,3.524a5.393,5.393,0,0,1,2.1,2.678l7.6,21.106" transform="translate(842.195 273)" fill="none" stroke="#002744" stroke-linecap="round" stroke-miterlimit="10" stroke-width="0.75"/>
      <path id="Trazado_17632" data-name="Trazado 17632" d="M148.316,12.33l-.528-.36c-.308-.211-.313-.741-.01-1.186l.594-.87c.3-.444.8-.634,1.107-.423l5.977,4.077c.308.21.313.741.01,1.185l-.594.871c-.3.444-.8.634-1.108.423l-.784-.535" transform="translate(842.195 273)" fill="none" stroke="#002744" stroke-linecap="round" stroke-miterlimit="10" stroke-width="0.75"/>
      <path id="Trazado_17633" data-name="Trazado 17633" d="M152.953,15.442c-.383-.261-.27-.426-.653-.688s-.5-.095-.878-.356-.271-.428-.655-.69-.5-.1-.883-.36-.273-.428-.659-.692-.5-.1-.885-.361" transform="translate(842.195 273)" fill="none" stroke="#002744" stroke-linecap="round" stroke-miterlimit="10" stroke-width="0.75"/>
      <path id="Trazado_17634" data-name="Trazado 17634" d="M175.663,44.8l14.206-5.259.483,1.6L176.145,46.4" transform="translate(842.195 273)" fill="none" stroke="#002744" stroke-linecap="round" stroke-miterlimit="10" stroke-width="0.75"/>
      <path id="Trazado_17635" data-name="Trazado 17635" d="M191.062,37.394l-5.07-13.782a1.62,1.62,0,0,0-2.082-.963l-15.8,5.813a1.609,1.609,0,0,0-.951,2.078l4.1,11.154a4.529,4.529,0,0,1,4.244,3.151l14.6-5.368a1.621,1.621,0,0,0,.962-2.083" transform="translate(842.195 273)" fill="#ff895a"/>
      <path id="Trazado_17636" data-name="Trazado 17636" d="M185.992,23.612l5.07,13.782a1.622,1.622,0,0,1-.962,2.083l-3.68,1.353L180.23,24l3.68-1.353a1.62,1.62,0,0,1,2.082.962" transform="translate(842.195 273)" fill="#fe5000"/>
      <path id="Trazado_17637" data-name="Trazado 17637" d="M171.248,41.674l-4.21-11.445a1.287,1.287,0,0,1,.763-1.652l16.42-6.04a1.288,1.288,0,0,1,1.652.764l5.3,14.406a1.287,1.287,0,0,1-.763,1.652l-14.87,5.469" transform="translate(842.195 273)" fill="none" stroke="#002744" stroke-linecap="round" stroke-miterlimit="10" stroke-width="0.75"/>
      <line id="Línea_5955" data-name="Línea 5955" x2="6.188" y2="16.821" transform="translate(1022.691 296.908)" fill="none" stroke="#002744" stroke-linecap="round" stroke-miterlimit="10" stroke-width="0.75"/>
      <rect id="Rectángulo_3330" data-name="Rectángulo 3330" width="3.548" height="4.005" transform="matrix(0.939, -0.345, 0.345, 0.939, 1014.075, 300.076)" fill="none" stroke="#002744" stroke-linecap="round" stroke-miterlimit="10" stroke-width="0.75"/>
      <path id="Trazado_17638" data-name="Trazado 17638" d="M177.117,11.213l4.046,11a1.3,1.3,0,0,1-.768,1.663l-12.614,4.639a1.285,1.285,0,0,1-1.653-.771l-4.047-11a1.285,1.285,0,0,1,.759-1.659l12.614-4.64a1.294,1.294,0,0,1,1.663.768" transform="translate(842.195 273)" fill="#ff895a"/>
      <path id="Trazado_17639" data-name="Trazado 17639" d="M177.117,11.213l4.046,11a1.3,1.3,0,0,1-.768,1.663l-2.937,1.08-4.941-13.433,2.937-1.08a1.294,1.294,0,0,1,1.663.768" transform="translate(842.195 273)" fill="#fe5000"/>
      <path id="Rectángulo_3331" data-name="Rectángulo 3331" d="M1.286,0H14.734A1.286,1.286,0,0,1,16.02,1.286V13.021a1.287,1.287,0,0,1-1.287,1.287H1.287A1.287,1.287,0,0,1,0,13.021V1.286A1.286,1.286,0,0,1,1.286,0Z" transform="translate(1003.826 288.531) rotate(-20.195)" fill="none" stroke="#002744" stroke-linecap="round" stroke-miterlimit="10" stroke-width="0.75"/>
      <line id="Línea_5956" data-name="Línea 5956" x2="4.94" y2="13.428" transform="translate(1014.924 284.449)" fill="none" stroke="#002744" stroke-linecap="round" stroke-miterlimit="10" stroke-width="0.75"/>
      <rect id="Rectángulo_3332" data-name="Rectángulo 3332" width="2.832" height="3.198" transform="matrix(0.938, -0.345, 0.345, 0.938, 1008.046, 286.979)" fill="none" stroke="#002744" stroke-linecap="round" stroke-miterlimit="10" stroke-width="0.75"/>
      <path id="Trazado_17640" data-name="Trazado 17640" d="M166.958,51.178a5.441,5.441,0,1,1,3.658,1.413" transform="translate(842.195 273)" fill="none" stroke="#002744" stroke-linecap="round" stroke-miterlimit="10" stroke-width="0.75"/>
      <path id="Trazado_17641" data-name="Trazado 17641" d="M169.339,52.44c-.1-.024-.2-.05-.294-.08a4.951,4.951,0,0,1-.484-.171" transform="translate(842.195 273)" fill="none" stroke="#002744" stroke-linecap="round" stroke-miterlimit="10" stroke-width="0.75"/>
    </g>
  </g>
</svg>
