<svg id="illustration_ViajesNegocios" xmlns="http://www.w3.org/2000/svg" width="60" height="60" viewBox="0 0 60 60">
  <path id="Trazado_18431" data-name="Trazado 18431" d="M222.042,0H264.9a8.572,8.572,0,0,1,8.572,8.571V51.429A8.572,8.572,0,0,1,264.9,60H222.042a8.571,8.571,0,0,1-8.571-8.571V8.571A8.571,8.571,0,0,1,222.042,0" transform="translate(-213.471)" fill="#f7f9f7"/>
  <rect id="Rectángulo_3451" data-name="Rectángulo 3451" width="7.931" height="1.308" transform="translate(13.51 9.166)" fill="#eef9ed"/>
  <path id="Trazado_18432" data-name="Trazado 18432" d="M236.029,43.514h-9.607a4.891,4.891,0,0,1-4.891-4.891V21.838a4.891,4.891,0,0,1,4.891-4.891h9.607a4.891,4.891,0,0,1,4.891,4.891V38.623a4.891,4.891,0,0,1-4.891,4.891" transform="translate(-213.471)" fill="#eef9ed"/>
  <path id="Trazado_18433" data-name="Trazado 18433" d="M240.92,21.19V39.275a4.242,4.242,0,0,1-4.242,4.241h-2.237a3.7,3.7,0,0,0,3.7-3.7V20.652a3.7,3.7,0,0,0-3.7-3.7h2.237a4.243,4.243,0,0,1,4.242,4.242" transform="translate(-213.471)" fill="#c6cccb"/>
  <path id="Trazado_18434" data-name="Trazado 18434" d="M258.844,33.81l.026,0h-.046a1.645,1.645,0,0,0-.187-.019H244.608a1.765,1.765,0,0,0-1.765,1.765v8.191a1.765,1.765,0,0,0,1.765,1.765h14.029a1.765,1.765,0,0,0,1.765-1.765V35.554a1.759,1.759,0,0,0-1.558-1.744" transform="translate(-213.471)" fill="#eef9ed"/>
  <path id="Trazado_18435" data-name="Trazado 18435" d="M231.516,16.946h2.721a3.7,3.7,0,0,1,3.7,3.7V39.809a3.7,3.7,0,0,1-3.7,3.7h-2.721" transform="translate(-213.471)" fill="none" stroke="#002744" stroke-linecap="round" stroke-miterlimit="10" stroke-width="0.75"/>
  <rect id="Rectángulo_3452" data-name="Rectángulo 3452" width="8.469" height="1.563" rx="0.669" transform="translate(13.315 9.016)" fill="none" stroke="#002744" stroke-linecap="round" stroke-miterlimit="10" stroke-width="0.75"/>
  <line id="Línea_6263" data-name="Línea 6263" y2="6.367" transform="translate(14.733 10.578)" fill="none" stroke="#002744" stroke-linecap="round" stroke-miterlimit="10" stroke-width="0.75"/>
  <line id="Línea_6264" data-name="Línea 6264" y2="6.367" transform="translate(20.367 10.578)" fill="none" stroke="#002744" stroke-linecap="round" stroke-miterlimit="10" stroke-width="0.75"/>
  <path id="Trazado_18436" data-name="Trazado 18436" d="M225.377,39.287h0a.847.847,0,0,1-.847-.846V24.983a.847.847,0,0,1,1.693,0V38.441A.846.846,0,0,1,225.377,39.287Z" transform="translate(-213.471)" fill="none" stroke="#002744" stroke-linecap="round" stroke-miterlimit="10" stroke-width="0.75"/>
  <path id="Trazado_18437" data-name="Trazado 18437" d="M229.545,39.287h0a.847.847,0,0,1-.847-.846V24.983a.847.847,0,0,1,1.693,0V38.441A.846.846,0,0,1,229.545,39.287Z" transform="translate(-213.471)" fill="none" stroke="#002744" stroke-linecap="round" stroke-miterlimit="10" stroke-width="0.75"/>
  <path id="Trazado_18438" data-name="Trazado 18438" d="M233.712,39.287h0a.846.846,0,0,1-.846-.846V24.983a.846.846,0,1,1,1.692,0V38.441A.846.846,0,0,1,233.712,39.287Z" transform="translate(-213.471)" fill="none" stroke="#002744" stroke-linecap="round" stroke-miterlimit="10" stroke-width="0.75"/>
  <path id="Trazado_18439" data-name="Trazado 18439" d="M226.335,46.175h0a1.258,1.258,0,0,1-1.258-1.257v-.149a1.257,1.257,0,0,1,2.514,0v.149A1.257,1.257,0,0,1,226.335,46.175Z" transform="translate(-213.471)" fill="none" stroke="#002744" stroke-linecap="round" stroke-miterlimit="10" stroke-width="0.75"/>
  <path id="Trazado_18440" data-name="Trazado 18440" d="M226.742,43.513h.494a1.256,1.256,0,0,1,1.256,1.257v.149a1.256,1.256,0,0,1-1.256,1.256h-.9" transform="translate(-213.471)" fill="none" stroke="#002744" stroke-linecap="round" stroke-miterlimit="10" stroke-width="0.75"/>
  <path id="Trazado_18441" data-name="Trazado 18441" d="M234.807,46.175h0a1.257,1.257,0,0,1-1.257-1.257v-.149a1.257,1.257,0,0,1,2.514,0v.149A1.257,1.257,0,0,1,234.807,46.175Z" transform="translate(-213.471)" fill="none" stroke="#002744" stroke-linecap="round" stroke-miterlimit="10" stroke-width="0.75"/>
  <path id="Trazado_18442" data-name="Trazado 18442" d="M235.214,43.513h.494a1.256,1.256,0,0,1,1.256,1.257v.149a1.256,1.256,0,0,1-1.256,1.256h-.9" transform="translate(-213.471)" fill="none" stroke="#002744" stroke-linecap="round" stroke-miterlimit="10" stroke-width="0.75"/>
  <path id="Trazado_18443" data-name="Trazado 18443" d="M255.964,33.789H244.685a1.766,1.766,0,0,0-1.766,1.765v8.19a1.766,1.766,0,0,0,1.766,1.766h11.279a1.766,1.766,0,0,0,1.765-1.766v-8.19c0-1.476.64-1.746,1.217-1.746" transform="translate(-213.471)" fill="none" stroke="#002744" stroke-linecap="round" stroke-miterlimit="10" stroke-width="0.75"/>
  <path id="Trazado_18444" data-name="Trazado 18444" d="M257.729,36V37.37a2.714,2.714,0,0,1-2.713,2.714h-9.384a2.714,2.714,0,0,1-2.713-2.714V36" transform="translate(-213.471)" fill="none" stroke="#002744" stroke-linecap="round" stroke-miterlimit="10" stroke-width="0.75"/>
  <path id="Trazado_18445" data-name="Trazado 18445" d="M252.165,33.789h6.548a1.765,1.765,0,0,1,1.765,1.765v8.19a1.766,1.766,0,0,1-1.765,1.766h-6.548" transform="translate(-213.471)" fill="none" stroke="#002744" stroke-linecap="round" stroke-miterlimit="10" stroke-width="0.75"/>
  <line id="Línea_6265" data-name="Línea 6265" x2="2.908" transform="translate(35.243 40.994)" fill="none" stroke="#002744" stroke-linecap="round" stroke-miterlimit="10" stroke-width="0.75"/>
  <path id="Trazado_18446" data-name="Trazado 18446" d="M249.43,40.995v1.454a.673.673,0,0,0,.673.673h.156a.673.673,0,0,0,.673-.673V40.995" transform="translate(-213.471)" fill="none" stroke="#002744" stroke-linecap="round" stroke-miterlimit="10" stroke-width="0.75"/>
  <path id="Trazado_18447" data-name="Trazado 18447" d="M253.417,31.749h-4.146a.8.8,0,0,0-.8.8v1.244h1.1v-.738a.2.2,0,0,1,.2-.2h3.053a.2.2,0,0,1,.2.2v.738h1.057V32.422A.673.673,0,0,0,253.417,31.749Z" transform="translate(-213.471)" fill="none" stroke="#002744" stroke-linecap="round" stroke-miterlimit="10" stroke-width="0.75"/>
  <line id="Línea_6266" data-name="Línea 6266" y1="0.53" transform="translate(7.856 25.641)" fill="none" stroke="#002744" stroke-linecap="round" stroke-miterlimit="10" stroke-width="0.75"/>
  <path id="Trazado_18448" data-name="Trazado 18448" d="M221.327,23.054V21.188a4.243,4.243,0,0,1,4.242-4.243h10.9a4.243,4.243,0,0,1,4.243,4.243V39.27a4.243,4.243,0,0,1-4.243,4.242h-10.9a4.242,4.242,0,0,1-4.242-4.242V27.645" transform="translate(-213.471)" fill="none" stroke="#002744" stroke-linecap="round" stroke-miterlimit="10" stroke-width="0.75"/>
  <path id="Trazado_18449" data-name="Trazado 18449" d="M258.562,50.984h-38.3a2.4,2.4,0,1,1,0-4.809h38.3a2.4,2.4,0,0,1,0,4.809Z" transform="translate(-213.471)" fill="none" stroke="#002744" stroke-linecap="round" stroke-miterlimit="10" stroke-width="0.75"/>
  <path id="Trazado_18450" data-name="Trazado 18450" d="M226.635,46.175h41.28a2.4,2.4,0,1,1,0,4.809h-41.28" transform="translate(-213.471)" fill="none" stroke="#002744" stroke-linecap="round" stroke-miterlimit="10" stroke-width="0.75"/>
  <path id="Trazado_18451" data-name="Trazado 18451" d="M258.22,49.333H220.6a.754.754,0,1,1,0-1.507H258.22a.754.754,0,0,1,0,1.507" transform="translate(-213.471)" fill="#c6cccb"/>
</svg>
