<svg xmlns="http://www.w3.org/2000/svg" width="60" height="60" viewBox="0 0 60 60">
  <g id="Illustration_PlantaEnergia" transform="translate(0)">
    <g id="Grupo_2425" data-name="Grupo 2425" transform="translate(-1044.97 -774)">
      <path id="Trazado_18124" data-name="Trazado 18124" d="M150.346,0H193.2a8.572,8.572,0,0,1,8.572,8.571V51.429A8.572,8.572,0,0,1,193.2,60H150.346a8.571,8.571,0,0,1-8.571-8.571V8.571A8.571,8.571,0,0,1,150.346,0" transform="translate(903.195 774)" fill="#cee6ad"/>
      <path id="Trazado_18125" data-name="Trazado 18125" d="M169.592,48.349h23.68V46.712s-1.64-1.786-1.64-3.076H151.918c0,1.29-1.64,3.076-1.64,3.076v1.637h20.187" transform="translate(903.195 774)" fill="#fe5000"/>
      <path id="Trazado_18126" data-name="Trazado 18126" d="M158.31,11.651h29.859a3.489,3.489,0,0,1,3.489,3.489v28.5H158.31" transform="translate(903.195 774)" fill="#fe5000"/>
      <path id="Trazado_18127" data-name="Trazado 18127" d="M183.908,43.636H151.923v-28.5a3.491,3.491,0,0,1,3.49-3.49h25.006a3.49,3.49,0,0,1,3.489,3.49Z" transform="translate(903.195 774)" fill="#ff895a"/>
      <path id="Trazado_18128" data-name="Trazado 18128" d="M183.908,43.636H151.923v-28.5a3.491,3.491,0,0,1,3.49-3.49h25.006a3.49,3.49,0,0,1,3.489,3.49Z" transform="translate(903.195 774)" fill="none" stroke="#002744" stroke-linecap="round" stroke-miterlimit="10" stroke-width="0.75"/>
      <path id="Trazado_18129" data-name="Trazado 18129" d="M158.31,11.651h29.859a3.489,3.489,0,0,1,3.489,3.489v28.5H158.31" transform="translate(903.195 774)" fill="none" stroke="#002744" stroke-linecap="round" stroke-miterlimit="10" stroke-width="0.75"/>
      <path id="Trazado_18130" data-name="Trazado 18130" d="M151.918,43.315c0,1.378-1.64,3.285-1.64,3.285v1.749h20.188" transform="translate(903.195 774)" fill="none" stroke="#002744" stroke-linecap="round" stroke-miterlimit="10" stroke-width="0.75"/>
      <path id="Trazado_18131" data-name="Trazado 18131" d="M191.632,43.315c0,1.378,1.64,3.285,1.64,3.285v1.749h-23.68" transform="translate(903.195 774)" fill="none" stroke="#002744" stroke-linecap="round" stroke-miterlimit="10" stroke-width="0.75"/>
      <path id="Trazado_18132" data-name="Trazado 18132" d="M183.938,43.315c0,1.378,1.64,3.285,1.64,3.285v1.749H165.39" transform="translate(903.195 774)" fill="none" stroke="#002744" stroke-linecap="round" stroke-miterlimit="10" stroke-width="0.75"/>
      <rect id="Rectángulo_3431" data-name="Rectángulo 3431" width="22.268" height="12.15" rx="1.586" transform="translate(1059.977 790.092)" fill="none" stroke="#002744" stroke-linecap="round" stroke-miterlimit="10" stroke-width="0.75"/>
      <path id="Trazado_18133" data-name="Trazado 18133" d="M167.733,35.054l1.882-4.3a.328.328,0,0,0-.571-.312l-4.516,6.4s2.685.028,3.66,0L166.647,41.1a.327.327,0,0,0,.571.311c.667-.977,3.436-5.341,4.042-6.228,0,0-2.608-.1-3.527-.126" transform="translate(903.195 774)" fill="#4d997f"/>
      <path id="Trazado_18134" data-name="Trazado 18134" d="M167.679,35.054l1.882-4.3a.328.328,0,0,0-.571-.312l-4.516,6.4s2.685.028,3.66,0L166.593,41.1a.327.327,0,0,0,.571.311c.667-.977,3.436-5.341,4.042-6.228C171.206,35.18,168.6,35.08,167.679,35.054Z" transform="translate(903.195 774)" fill="none" stroke="#002744" stroke-linejoin="round" stroke-width="0.75"/>
      <line id="Línea_6118" data-name="Línea 6118" x2="4.798" transform="translate(1088.573 806.799)" fill="none" stroke="#002744" stroke-linecap="round" stroke-miterlimit="10" stroke-width="0.75"/>
      <line id="Línea_6119" data-name="Línea 6119" x2="4.798" transform="translate(1088.573 808.396)" fill="none" stroke="#002744" stroke-linecap="round" stroke-miterlimit="10" stroke-width="0.75"/>
      <line id="Línea_6120" data-name="Línea 6120" x2="4.798" transform="translate(1088.573 809.994)" fill="none" stroke="#002744" stroke-linecap="round" stroke-miterlimit="10" stroke-width="0.75"/>
      <line id="Línea_6121" data-name="Línea 6121" x2="4.798" transform="translate(1088.573 811.592)" fill="none" stroke="#002744" stroke-linecap="round" stroke-miterlimit="10" stroke-width="0.75"/>
      <line id="Línea_6122" data-name="Línea 6122" x2="4.798" transform="translate(1088.573 813.189)" fill="none" stroke="#002744" stroke-linecap="round" stroke-miterlimit="10" stroke-width="0.75"/>
      <line id="Línea_6123" data-name="Línea 6123" x2="1.609" transform="translate(1080.635 809.994)" fill="none" stroke="#002744" stroke-linecap="round" stroke-miterlimit="10" stroke-width="0.75"/>
      <line id="Línea_6124" data-name="Línea 6124" x2="1.609" transform="translate(1080.635 811.592)" fill="none" stroke="#002744" stroke-linecap="round" stroke-miterlimit="10" stroke-width="0.75"/>
      <line id="Línea_6125" data-name="Línea 6125" x2="1.609" transform="translate(1080.635 813.189)" fill="none" stroke="#002744" stroke-linecap="round" stroke-miterlimit="10" stroke-width="0.75"/>
      <line id="Línea_6126" data-name="Línea 6126" x2="1.609" transform="translate(1059.976 809.994)" fill="none" stroke="#002744" stroke-linecap="round" stroke-miterlimit="10" stroke-width="0.75"/>
      <line id="Línea_6127" data-name="Línea 6127" x2="1.609" transform="translate(1059.976 811.592)" fill="none" stroke="#002744" stroke-linecap="round" stroke-miterlimit="10" stroke-width="0.75"/>
      <line id="Línea_6128" data-name="Línea 6128" x2="1.609" transform="translate(1059.976 813.189)" fill="none" stroke="#002744" stroke-linecap="round" stroke-miterlimit="10" stroke-width="0.75"/>
      <path id="Trazado_18135" data-name="Trazado 18135" d="M188.649,18.361c0,.733-.39,1.328-.871,1.328s-.872-.595-.872-1.328.39-1.328.872-1.328S188.649,17.628,188.649,18.361Z" transform="translate(903.195 774)" fill="none" stroke="#002744" stroke-linecap="round" stroke-miterlimit="10" stroke-width="0.75"/>
      <path id="Trazado_18136" data-name="Trazado 18136" d="M188.649,22.875c0,.734-.39,1.329-.871,1.329s-.872-.6-.872-1.329.39-1.327.872-1.327S188.649,22.143,188.649,22.875Z" transform="translate(903.195 774)" fill="none" stroke="#002744" stroke-linecap="round" stroke-miterlimit="10" stroke-width="0.75"/>
      <path id="Trazado_18137" data-name="Trazado 18137" d="M164.243,17.352l-5.812,9.02v.593h3.549l6.306-9.613Z" transform="translate(903.195 774)" fill="#fe5000"/>
      <path id="Trazado_18138" data-name="Trazado 18138" d="M167.3,20.481l-4.178,6.484h1.81Z" transform="translate(903.195 774)" fill="#fe5000"/>
      <path id="Trazado_18139" data-name="Trazado 18139" d="M158.43,24.406l4.545-7.054h-2.788L158.43,22.31Z" transform="translate(903.195 774)" fill="#fe5000"/>
      <rect id="Rectángulo_3432" data-name="Rectángulo 3432" width="19.05" height="9.613" rx="0.447" transform="translate(1061.585 791.352)" fill="none" stroke="#002744" stroke-linecap="round" stroke-miterlimit="10" stroke-width="0.75"/>
    </g>
  </g>
</svg>
