<svg id="illustration_Add_OtherCategory" xmlns="http://www.w3.org/2000/svg" width="60" height="60" viewBox="0 0 60 60">
  <g id="Grupo_2499" data-name="Grupo 2499" transform="translate(0)">
    <path id="Trazado_18884" data-name="Trazado 18884" d="M207.15,0h42.857a8.572,8.572,0,0,1,8.572,8.571V51.429A8.572,8.572,0,0,1,250.007,60H207.15a8.571,8.571,0,0,1-8.571-8.571V8.571A8.571,8.571,0,0,1,207.15,0" transform="translate(-198.579)" fill="#f7f9f7"/>
    <path id="Trazado_18885" data-name="Trazado 18885" d="M217.987,15.358a1.417,1.417,0,0,1-.924-2.493,17.81,17.81,0,0,1,7.8-3.847,1.418,1.418,0,1,1,.6,2.772,14.952,14.952,0,0,0-6.554,3.226,1.407,1.407,0,0,1-.922.342" transform="translate(-198.579)" fill="#c6cccb"/>
    <path id="Trazado_18886" data-name="Trazado 18886" d="M244.591,22.265a1.419,1.419,0,0,1-1.3-.843c-2.787-6.287-7.507-9.958-13.292-10.338a1.418,1.418,0,0,1,.186-2.83c6.788.446,12.511,4.826,15.7,12.018a1.418,1.418,0,0,1-1.295,1.993" transform="translate(-198.579)" fill="#c6cccb"/>
    <path id="Trazado_18887" data-name="Trazado 18887" d="M224.859,44.427a1.408,1.408,0,0,1-.158-.009c-.388-.043-3.866-.573-6.537-5.772-1.518-2.959-2.223-6.992-2.043-11.667a13.624,13.624,0,0,1,3.317-8.707,1.418,1.418,0,0,1,2.131,1.872,10.848,10.848,0,0,0-2.614,6.944c-.162,4.189.436,7.737,1.732,10.263,1.97,3.836,4.262,4.238,4.358,4.252a1.435,1.435,0,0,1,1.2,1.592,1.407,1.407,0,0,1-1.388,1.232" transform="translate(-198.579)" fill="#c6cccb"/>
    <path id="Trazado_18888" data-name="Trazado 18888" d="M238.313,40.658a1.418,1.418,0,0,1-1.36-1.822,28.4,28.4,0,0,0,1.3-12.282c-.336-4.549-3.573-7.767-5.656-8.509a12.549,12.549,0,0,0-6.475-.479,1.418,1.418,0,0,1-.578-2.776,15.357,15.357,0,0,1,8.005.583c3.347,1.193,7.123,5.444,7.533,10.973a31.116,31.116,0,0,1-1.41,13.3,1.419,1.419,0,0,1-1.358,1.014" transform="translate(-198.579)" fill="#c6cccb"/>
    <path id="Trazado_18889" data-name="Trazado 18889" d="M223.522,34.948a1.419,1.419,0,0,1-1.407-1.257,44.435,44.435,0,0,1-.226-6.909,6.514,6.514,0,0,1,3.35-5.45,6.929,6.929,0,0,1,6.643.134,1.418,1.418,0,0,1-1.4,2.466,4.126,4.126,0,0,0-3.9-.1,3.607,3.607,0,0,0-1.859,3.151,42.1,42.1,0,0,0,.215,6.386,1.418,1.418,0,0,1-1.248,1.57,1.484,1.484,0,0,1-.163.009" transform="translate(-198.579)" fill="#c6cccb"/>
    <path id="Trazado_18890" data-name="Trazado 18890" d="M234.006,29.71a1.419,1.419,0,0,1-1.418-1.4,9.016,9.016,0,0,0-.1-1.29,1.418,1.418,0,0,1,2.8-.479,12.175,12.175,0,0,1,.14,1.743,1.418,1.418,0,0,1-1.4,1.431Z" transform="translate(-198.579)" fill="#c6cccb"/>
    <path id="Trazado_18891" data-name="Trazado 18891" d="M229.238,44.52a1.418,1.418,0,0,1-.679-2.663c2.895-1.575,4.273-5.81,3.934-8.995a1.418,1.418,0,1,1,2.82-.3c.432,4.055-1.314,9.564-5.4,11.786a1.4,1.4,0,0,1-.676.173" transform="translate(-198.579)" fill="#c6cccb"/>
    <path id="Trazado_18892" data-name="Trazado 18892" d="M226.706,39.047a1.418,1.418,0,0,1-.646-2.68c.164-.138,1.732-1.65,1.21-8.556A1.417,1.417,0,0,1,230.1,27.6c.7,9.206-2.021,11.014-2.872,11.35a1.417,1.417,0,0,1-.519.1m-.52-2.737h0" transform="translate(-198.579)" fill="#c6cccb"/>
    <path id="Trazado_18893" data-name="Trazado 18893" d="M239.736,50.213a1.418,1.418,0,0,1-.976-2.447c1.8-1.7,4.114-6.014,5.054-10.951a37.331,37.331,0,0,0,.476-10.772,1.419,1.419,0,0,1,2.821-.3,40.229,40.229,0,0,1-.511,11.6c-.944,4.957-3.366,10.089-5.89,12.479a1.407,1.407,0,0,1-.974.389" transform="translate(-198.579)" fill="#c6cccb"/>
    <path id="Trazado_18894" data-name="Trazado 18894" d="M228.956,50.649a1.418,1.418,0,0,1-.276-2.808,10.28,10.28,0,0,0,6.535-4.483,1.417,1.417,0,0,1,2.359,1.571,13.083,13.083,0,0,1-8.34,5.692,1.394,1.394,0,0,1-.278.028" transform="translate(-198.579)" fill="#c6cccb"/>
    <path id="Trazado_18895" data-name="Trazado 18895" d="M213,39.4a1.418,1.418,0,0,1-1.282-.809c-2.858-6.006-2.39-16.7.926-21.182a1.418,1.418,0,1,1,2.28,1.686c-2.481,3.358-3.24,12.823-.645,18.278A1.417,1.417,0,0,1,213,39.4" transform="translate(-198.579)" fill="#c6cccb"/>
    <path id="Trazado_18896" data-name="Trazado 18896" d="M222.71,50.705a1.408,1.408,0,0,1-.57-.121,17.711,17.711,0,0,1-8.235-7.335,1.418,1.418,0,1,1,2.49-1.358,15.081,15.081,0,0,0,6.888,6.1,1.418,1.418,0,0,1-.573,2.715" transform="translate(-198.579)" fill="#c6cccb"/>
    <path id="Trazado_18897" data-name="Trazado 18897" d="M250.4,43.674a8.586,8.586,0,1,1-8.586-8.586,8.586,8.586,0,0,1,8.586,8.586" transform="translate(-198.579)" fill="#eef9ed"/>
    <path id="Trazado_18898" data-name="Trazado 18898" d="M250.4,43.674a8.586,8.586,0,1,1-8.586-8.586A8.586,8.586,0,0,1,250.4,43.674Z" transform="translate(-198.579)" fill="none" stroke="#002744" stroke-linecap="round" stroke-linejoin="round" stroke-width="0.75"/>
    <path id="Trazado_18899" data-name="Trazado 18899" d="M245.578,42.227h-2.316V39.911a1.447,1.447,0,1,0-2.894,0v2.316h-2.316a1.447,1.447,0,1,0,0,2.894h2.316v2.316a1.447,1.447,0,1,0,2.894,0V45.121h2.316a1.447,1.447,0,0,0,0-2.894" transform="translate(-198.579)" fill="#c6cccb"/>
    <path id="Trazado_18900" data-name="Trazado 18900" d="M245.578,42.45h-2.316V40.134a1.447,1.447,0,1,0-2.894,0V42.45h-2.316a1.447,1.447,0,1,0,0,2.894h2.316V47.66a1.447,1.447,0,1,0,2.894,0V45.344h2.316a1.447,1.447,0,0,0,0-2.894Z" transform="translate(-198.579)" fill="none" stroke="#002744" stroke-linecap="round" stroke-linejoin="round" stroke-width="0.75"/>
  </g>
</svg>
