<svg id="Illustrarion_aire" xmlns="http://www.w3.org/2000/svg" width="60" height="60" viewBox="0 0 60 60">
  <g id="Grupo_2416" data-name="Grupo 2416" transform="translate(-825 -716.054)">
    <path id="Trazado_18074" data-name="Trazado 18074" d="M8.571,1.054H51.428A8.572,8.572,0,0,1,60,9.625V52.483a8.572,8.572,0,0,1-8.572,8.571H8.571A8.571,8.571,0,0,1,0,52.483V9.625A8.571,8.571,0,0,1,8.571,1.054" transform="translate(825 715)" fill="#eef9ed"/>
    <path id="Trazado_18075" data-name="Trazado 18075" d="M40.852,19.34h9.379a2.411,2.411,0,0,1,2.411,2.412v16.5a2.411,2.411,0,0,1-2.411,2.412H13.051" transform="translate(825 715)" fill="#fe5000"/>
    <path id="Trazado_18076" data-name="Trazado 18076" d="M20.23,19.34H46.7A2.66,2.66,0,0,1,49.36,22V38a2.66,2.66,0,0,1-2.66,2.66H10.017A2.66,2.66,0,0,1,7.357,38V22a2.66,2.66,0,0,1,2.66-2.66h3.892" transform="translate(825 715)" fill="#ff895a"/>
    <path id="Trazado_18077" data-name="Trazado 18077" d="M10.786,40.224V35.937A2.412,2.412,0,0,1,13.2,33.525H43.52a2.411,2.411,0,0,1,2.411,2.412v4.287" transform="translate(825 715)" fill="#cee6ad"/>
    <path id="Trazado_18078" data-name="Trazado 18078" d="M20.23,19.34H46.7A2.66,2.66,0,0,1,49.36,22V38a2.66,2.66,0,0,1-2.66,2.66H10.017A2.66,2.66,0,0,1,7.357,38V22a2.66,2.66,0,0,1,2.66-2.66h3.892" transform="translate(825 715)" fill="none" stroke="#002744" stroke-linecap="round" stroke-miterlimit="10" stroke-width="0.75"/>
    <line id="Línea_6099" data-name="Línea 6099" x2="1.133" transform="translate(840.555 734.34)" fill="none" stroke="#002744" stroke-linecap="round" stroke-miterlimit="10" stroke-width="0.75"/>
    <path id="Trazado_18079" data-name="Trazado 18079" d="M40.852,19.34h9.379a2.411,2.411,0,0,1,2.411,2.412v16.5a2.411,2.411,0,0,1-2.411,2.412H13.051" transform="translate(825 715)" fill="none" stroke="#002744" stroke-linecap="round" stroke-miterlimit="10" stroke-width="0.75"/>
    <path id="Trazado_18080" data-name="Trazado 18080" d="M10.786,40.224V35.937A2.412,2.412,0,0,1,13.2,33.525H43.52a2.411,2.411,0,0,1,2.411,2.412v4.287" transform="translate(825 715)" fill="none" stroke="#002744" stroke-linecap="round" stroke-miterlimit="10" stroke-width="0.75"/>
    <line id="Línea_6100" data-name="Línea 6100" x2="28.739" transform="translate(838.989 750.869)" fill="none" stroke="#002744" stroke-linecap="round" stroke-miterlimit="10" stroke-width="0.75"/>
    <line id="Línea_6101" data-name="Línea 6101" x2="28.739" transform="translate(838.989 752.277)" fill="none" stroke="#002744" stroke-linecap="round" stroke-miterlimit="10" stroke-width="0.75"/>
    <line id="Línea_6102" data-name="Línea 6102" x2="28.739" transform="translate(838.989 753.684)" fill="none" stroke="#002744" stroke-linecap="round" stroke-miterlimit="10" stroke-width="0.75"/>
    <path id="Trazado_18081" data-name="Trazado 18081" d="M41.79,23.192h-25.9a.938.938,0,0,1,0-1.876h25.9a.938.938,0,0,1,0,1.876Z" transform="translate(825 715)" fill="none" stroke="#002744" stroke-linecap="round" stroke-miterlimit="10" stroke-width="0.75"/>
    <path id="Trazado_18082" data-name="Trazado 18082" d="M41.79,26.542h0a.938.938,0,1,1,.938-.938A.938.938,0,0,1,41.79,26.542Z" transform="translate(825 715)" fill="none" stroke="#002744" stroke-linecap="round" stroke-miterlimit="10" stroke-width="0.75"/>
    <path id="Trazado_18083" data-name="Trazado 18083" d="M38.264,26.542h0A.938.938,0,1,1,39.2,25.6.938.938,0,0,1,38.264,26.542Z" transform="translate(825 715)" fill="none" stroke="#002744" stroke-linecap="round" stroke-miterlimit="10" stroke-width="0.75"/>
    <path id="Trazado_18084" data-name="Trazado 18084" d="M34.738,26.542h0a.938.938,0,1,1,.938-.938A.938.938,0,0,1,34.738,26.542Z" transform="translate(825 715)" fill="none" stroke="#002744" stroke-linecap="round" stroke-miterlimit="10" stroke-width="0.75"/>
    <path id="Trazado_18085" data-name="Trazado 18085" d="M11.474,42.844c-.226.768-.61.655-.836,1.423s.157.881-.069,1.648-.61.656-.837,1.424.157.884-.07,1.654-.611.657-.838,1.427" transform="translate(825 715)" fill="none" stroke="#002744" stroke-linecap="round" stroke-miterlimit="10" stroke-width="0.75"/>
    <path id="Trazado_18086" data-name="Trazado 18086" d="M14.8,42.787c-.226.768-.649.644-.875,1.412s.2.892-.03,1.659-.649.644-.876,1.413" transform="translate(825 715)" fill="none" stroke="#002744" stroke-linecap="round" stroke-miterlimit="10" stroke-width="0.75"/>
    <path id="Trazado_18087" data-name="Trazado 18087" d="M18.013,42.844c-.226.768-.61.655-.836,1.423s.157.881-.069,1.648-.61.656-.837,1.424.157.884-.07,1.654-.611.657-.838,1.427" transform="translate(825 715)" fill="none" stroke="#002744" stroke-linecap="round" stroke-miterlimit="10" stroke-width="0.75"/>
    <path id="Trazado_18088" data-name="Trazado 18088" d="M35.382,42.844c-.226.768-.61.655-.836,1.423s.157.881-.069,1.648-.61.656-.837,1.424.157.884-.07,1.654-.611.657-.838,1.427" transform="translate(825 715)" fill="none" stroke="#002744" stroke-linecap="round" stroke-miterlimit="10" stroke-width="0.75"/>
    <path id="Trazado_18089" data-name="Trazado 18089" d="M38.706,42.787c-.226.768-.649.644-.875,1.412s.2.892-.03,1.659-.649.644-.876,1.413" transform="translate(825 715)" fill="none" stroke="#002744" stroke-linecap="round" stroke-miterlimit="10" stroke-width="0.75"/>
    <path id="Trazado_18090" data-name="Trazado 18090" d="M41.92,42.844c-.226.768-.61.655-.836,1.423s.157.881-.069,1.648-.61.656-.837,1.424.157.884-.07,1.654-.611.657-.838,1.427" transform="translate(825 715)" fill="none" stroke="#002744" stroke-linecap="round" stroke-miterlimit="10" stroke-width="0.75"/>
  </g>
</svg>
