<svg id="Grupo_1313" data-name="Grupo 1313" xmlns="http://www.w3.org/2000/svg" xmlns:xlink="http://www.w3.org/1999/xlink" width="300" height="213.025" viewBox="0 0 300 213.025">
  <defs>
    <clipPath id="clip-path">
      <rect id="Rectángulo_1958" data-name="Rectángulo 1958" width="300" height="213.025" fill="none"/>
    </clipPath>
  </defs>
  <g id="Grupo_1120" data-name="Grupo 1120" clip-path="url(#clip-path)">
    <path id="Trazado_9072" data-name="Trazado 9072" d="M12.605,0h274.79A12.6,12.6,0,0,1,300,12.605V200.42a12.6,12.6,0,0,1-12.605,12.605H12.605A12.6,12.6,0,0,1,0,200.42V12.605A12.6,12.6,0,0,1,12.605,0" transform="translate(0 0)" fill="#fff"/>
    <path id="Trazado_9073" data-name="Trazado 9073" d="M140.886,110.666H29.5a6.306,6.306,0,0,1,0-12.611H136.78l2.818,5.515Z" transform="translate(6.042 25.544)" fill="#eef9ed"/>
    <path id="Trazado_9074" data-name="Trazado 9074" d="M58.4,111.427H29.628a6.936,6.936,0,0,1,0-13.872h99.7a.63.63,0,0,1,0,1.261h-99.7a5.675,5.675,0,0,0,0,11.351H58.4a.63.63,0,0,1,0,1.261Z" transform="translate(5.912 25.413)" fill="#002744"/>
    <path id="Línea_1796" data-name="Línea 1796" d="M53.23.761H.13A.63.63,0,1,1,.13-.5h53.1a.63.63,0,0,1,0,1.261Z" transform="translate(82.819 136.079)" fill="#002744"/>
    <path id="Línea_1797" data-name="Línea 1797" d="M2.956.761H.13A.63.63,0,0,1,.13-.5H2.956a.63.63,0,0,1,0,1.261Z" transform="translate(68.982 136.079)" fill="#002744"/>
    <path id="Trazado_9075" data-name="Trazado 9075" d="M210.952,63.873H29.5a6.306,6.306,0,1,0,0,12.611H210.952a6.306,6.306,0,0,0,0-12.611" transform="translate(6.042 16.639)" fill="#eef9ed"/>
    <path id="Trazado_9076" data-name="Trazado 9076" d="M182.167,111.427H139.25a.63.63,0,0,1,0-1.261h42.916a5.675,5.675,0,0,0,0-11.351H134.324a.63.63,0,0,1,0-1.261h47.842a6.936,6.936,0,0,1,0,13.872Z" transform="translate(34.828 25.413)" fill="#002744"/>
    <path id="Trazado_9077" data-name="Trazado 9077" d="M211.082,77.244H77.038a.63.63,0,0,1,0-1.261H211.082a5.675,5.675,0,0,0,0-11.351H29.628a5.675,5.675,0,0,0,0,11.351H58.4a.63.63,0,0,1,0,1.261H29.628a6.936,6.936,0,0,1,0-13.872H211.082a6.936,6.936,0,0,1,0,13.872Z" transform="translate(5.912 16.509)" fill="#002744"/>
    <path id="Línea_1798" data-name="Línea 1798" d="M2.956.761H.13A.63.63,0,0,1,.13-.5H2.956a.63.63,0,0,1,0,1.261Z" transform="translate(68.982 92.992)" fill="#002744"/>
    <path id="Trazado_9078" data-name="Trazado 9078" d="M183.444,71.106a10.8,10.8,0,1,1-10.795-10.795,10.795,10.795,0,0,1,10.795,10.795" transform="translate(42.163 15.711)" fill="#cee6ad"/>
    <path id="Trazado_9079" data-name="Trazado 9079" d="M172.779,59.811a11.425,11.425,0,1,1-11.426,11.425A11.438,11.438,0,0,1,172.779,59.811Zm0,21.59a10.165,10.165,0,1,0-10.166-10.165A10.176,10.176,0,0,0,172.779,81.4Z" transform="translate(42.033 15.581)" fill="#002744"/>
    <path id="Trazado_9080" data-name="Trazado 9080" d="M210.952,29.8H29.5a6.306,6.306,0,1,0,0,12.611H210.952a6.306,6.306,0,0,0,0-12.611" transform="translate(6.042 7.762)" fill="#eef9ed"/>
    <path id="Trazado_9081" data-name="Trazado 9081" d="M211.082,43.168H77.038a.63.63,0,1,1,0-1.261H211.082a5.675,5.675,0,0,0,0-11.351H29.628a5.675,5.675,0,0,0,0,11.351H58.4a.63.63,0,0,1,0,1.261H29.628a6.936,6.936,0,0,1,0-13.872H211.082a6.936,6.936,0,0,1,0,13.872Z" transform="translate(5.912 7.632)" fill="#002744"/>
    <path id="Línea_1799" data-name="Línea 1799" d="M2.956.761H.13A.63.63,0,0,1,.13-.5H2.956a.63.63,0,0,1,0,1.261Z" transform="translate(68.982 50.039)" fill="#002744"/>
    <path id="Trazado_9082" data-name="Trazado 9082" d="M183.444,37.03a10.8,10.8,0,1,1-10.795-10.795A10.795,10.795,0,0,1,183.444,37.03" transform="translate(42.163 6.834)" fill="#cee6ad"/>
    <path id="Trazado_9083" data-name="Trazado 9083" d="M172.779,25.735A11.425,11.425,0,1,1,161.353,37.16,11.438,11.438,0,0,1,172.779,25.735Zm0,21.59A10.165,10.165,0,1,0,162.613,37.16,10.176,10.176,0,0,0,172.779,47.325Z" transform="translate(42.033 6.704)" fill="#002744"/>
    <path id="Trazado_9084" data-name="Trazado 9084" d="M211.082,145.68H77.038a.63.63,0,1,1,0-1.261H211.082a5.675,5.675,0,0,0,0-11.351H29.628a5.675,5.675,0,0,0,0,11.351H58.4a.63.63,0,0,1,0,1.261H29.628a6.936,6.936,0,0,1,0-13.872H211.082a6.936,6.936,0,0,1,0,13.872Z" transform="translate(5.912 34.337)" fill="#002744"/>
    <path id="Línea_1800" data-name="Línea 1800" d="M2.956.761H.13A.63.63,0,0,1,.13-.5H2.956a.63.63,0,0,1,0,1.261Z" transform="translate(68.982 179.256)" fill="#002744"/>
    <path id="Trazado_9085" data-name="Trazado 9085" d="M44.783,139.542a10.8,10.8,0,1,1-10.795-10.795,10.795,10.795,0,0,1,10.795,10.795" transform="translate(6.042 33.539)" fill="#eef9ed"/>
    <path id="Trazado_9086" data-name="Trazado 9086" d="M34.118,128.247a11.425,11.425,0,1,1-11.426,11.425A11.438,11.438,0,0,1,34.118,128.247Zm0,21.59a10.165,10.165,0,1,0-10.166-10.165A10.176,10.176,0,0,0,34.118,149.837Z" transform="translate(5.911 33.409)" fill="#002744"/>
    <path id="Línea_1801" data-name="Línea 1801" d="M3.594.761H.13A.63.63,0,0,1,.13-.5H3.594a.63.63,0,0,1,0,1.261Z" transform="translate(143.334 136.079)" fill="#002744"/>
    <path id="Trazado_9087" data-name="Trazado 9087" d="M123.185,110.078c-1.752,2.571-4.261,1.248-6.605-.05-2.105-1.185-5.082-2.236-5.74-.222-2.424,7.412-10.886,4.747-10.886-4.682,0-5.5,2.8-9.367,5.9-8.85,1.235.2,2.508,1.8,3.681,3.2s3.618.63,5.357.05c10.4-3.492,11.382,6.013,8.294,10.55" transform="translate(26.038 25.068)" fill="#cee6ad"/>
    <path id="Trazado_9088" data-name="Trazado 9088" d="M121.966,110c-1.752,2.571-4.26,1.248-6.605-.05a.776.776,0,0,1-.151-.151c-.076-.214-.265-5.786-4.9-7.424-4.4-1.563-3.731-4.805-5.672-5.851,1.235.2,2.508,1.477,3.681,2.876s3.618.63,5.357.05c10.4-3.492,11.382,6.013,8.294,10.55" transform="translate(27.258 25.145)" fill="#97c17c"/>
    <path id="Trazado_9089" data-name="Trazado 9089" d="M105.211,95.687c1.239,0,3.111.624,4.988,3.594.152.241.455.561,1.322.561a11.192,11.192,0,0,0,3.194-.74l.111-.037a13.579,13.579,0,0,1,4.253-.785h0a5.831,5.831,0,0,1,5.567,3.078,8.324,8.324,0,0,1,.785,4.7,9.992,9.992,0,0,1-1.59,4.509,3.672,3.672,0,0,1-3.176,1.736,12.124,12.124,0,0,1-5-1.7,8.983,8.983,0,0,0-3.09-1.192c-.272,0-.553.049-.744.638a8.09,8.09,0,0,1-2.282,3.709,4.9,4.9,0,0,1-3.235,1.249,6.1,6.1,0,0,1-4.767-2.661,11.507,11.507,0,0,1-2.093-7.081,13.574,13.574,0,0,1,1.592-6.705C102.12,96.708,103.6,95.687,105.211,95.687Zm6.31,5.416a2.618,2.618,0,0,1-2.387-1.148c-1.244-1.967-2.6-3.007-3.923-3.007-2.481,0-4.5,3.732-4.5,8.319,0,5.309,2.847,8.482,5.6,8.482,1.9,0,3.477-1.489,4.319-4.085a1.938,1.938,0,0,1,1.942-1.51h0a9.276,9.276,0,0,1,3.66,1.328,11.326,11.326,0,0,0,4.434,1.566,2.417,2.417,0,0,0,2.133-1.183,8.265,8.265,0,0,0,.734-7.916,4.682,4.682,0,0,0-4.454-2.407h0a12.339,12.339,0,0,0-3.853.719l-.111.037A12.077,12.077,0,0,1,111.521,101.1Z" transform="translate(25.907 24.927)" fill="#002744"/>
    <path id="Trazado_9090" data-name="Trazado 9090" d="M146.6,123.2a12.664,12.664,0,0,0-.416,3.227,6.707,6.707,0,0,1-.064.706v.013c-.454,3.416-3.34,5.382-7.563,6.819-4.524,1.525-8.217,1.147-9.931.328s-2.37-3.05-2.824-3.567-4.539-2.508-6.252-3.643-4.892-2.546-6.606-5.975-3.629-5.95-4.223-7.929,1.286-4.235,4.11-2.836c2.81,1.387,4.347,4.349,5.357,5.143s1.776.416,1.576-.088-1.1-4.992-1.475-7.361a23.536,23.536,0,0,0-1.891-5.748c-.5-1.084-.442-3.139-3.014-1.676a8.607,8.607,0,0,1-2.559,1.084,3.262,3.262,0,0,1-2.067-.328c-1.284-.529-2.067-2.433-.868-3.3,0,0,2.495-2.685,3.555-4.034a5.987,5.987,0,0,1,3.566-1.916c4.073-.718,6.115,3.126,6.479,3.618a.993.993,0,0,0,1.237.34c4.045-1.853,6.454.025,6.895.908s.957.63,1.335.605c2.924-.819,4.866-.05,5.521.756a1.529,1.529,0,0,0,1.324.744c3.681-.315,4.172,1.9,5.786,6.29a58.919,58.919,0,0,1,2.975,10.853,19.5,19.5,0,0,1,.039,6.971" transform="translate(27.95 23.973)" fill="#99d6ff"/>
    <path id="Trazado_9091" data-name="Trazado 9091" d="M145.514,125.079a8.067,8.067,0,0,1-6.171,5.622c-.86.205-4.533,1.4-4.979-1.1-4.581-2.666-8.747-9.712-10.7-13.685-1.632-3.321-3.147-9.391-3.961-11.366-2.013-4.887-3.432-4.882-5.22-8.763a7.226,7.226,0,0,1,.281,3.349c.944.132,1.02,1.393,1.379,2.166a23.535,23.535,0,0,1,1.891,5.748c.378,2.37,1.273,6.857,1.475,7.361s-.567.87-1.576.088a2.32,2.32,0,0,1-.328-.3,7.729,7.729,0,0,1-3.918-2.341,4.315,4.315,0,0,0-5.218-1.172c-.353.592-.217.8,0,1.509.592,1.979,2.508,4.513,4.223,7.929s4.9,4.84,6.605,5.975,5.786,3.139,6.252,3.643,1.109,2.761,2.824,3.567,5.408,1.2,9.933-.328c4.223-1.437,7.109-3.4,7.563-6.819v-.013c-.126-.353-.239-.706-.353-1.071" transform="translate(28.201 24.954)" fill="#09f"/>
    <path id="Trazado_9092" data-name="Trazado 9092" d="M128.606,123.467a.63.63,0,0,1-.086-1.255c.385-.053.522-.073.57-.081a.631.631,0,1,1,.224,1.241l-.092.014-.528.074A.636.636,0,0,1,128.606,123.467Z" transform="translate(33.339 31.812)" fill="#002744"/>
    <path id="Trazado_9093" data-name="Trazado 9093" d="M129.279,128.2a8.495,8.495,0,0,1-5.122-1.563c-1.3-.9-4.34-2.782-7.425-4.676a10.548,10.548,0,0,1-4.775-5.081,35.052,35.052,0,0,0-3.449-6.071,3.67,3.67,0,0,1-.559-3.81,3.276,3.276,0,0,1,3.089-1.612c1.953,0,3.705,1.264,5.858,4.228a3.381,3.381,0,0,0,2.584,1.7,1.25,1.25,0,0,1,.856.336.63.63,0,0,1-.829.939c-.048-.008-.122-.017-.18-.024a4.6,4.6,0,0,1-3.452-2.214c-2.374-3.268-3.778-3.708-4.838-3.708a2.052,2.052,0,0,0-1.967.926,2.491,2.491,0,0,0,.46,2.5,36.333,36.333,0,0,1,3.576,6.292,9.34,9.34,0,0,0,4.285,4.524c3.1,1.9,6.154,3.793,7.484,4.714,2.209,1.531,4.074,1.4,6.047,1.262l.507-.034a.63.63,0,1,1,.08,1.258l-.5.034C130.454,128.163,129.877,128.2,129.279,128.2Z" transform="translate(28.039 27.455)" fill="#002744"/>
    <path id="Trazado_9094" data-name="Trazado 9094" d="M120.107,118.242a.63.63,0,0,1-.6-.437,11.9,11.9,0,0,0-.737-1.734,16.8,16.8,0,0,1-1.712-5.8l-.008-.056c-.717-4.741-.846-5.6-1.989-8.017a37.155,37.155,0,0,1-1.8-4.748c-.545-1.684-1.377-1.48-1.47-1.451l.015-.005-.438-1.182a2.007,2.007,0,0,1,1.505.116,3.358,3.358,0,0,1,1.588,2.134,35.46,35.46,0,0,0,1.741,4.6c1.222,2.588,1.373,3.584,2.1,8.366l.008.056a15.546,15.546,0,0,0,1.6,5.429,13.109,13.109,0,0,1,.806,1.905.631.631,0,0,1-.6.824Z" transform="translate(29.012 24.675)" fill="#002744"/>
    <path id="Trazado_9095" data-name="Trazado 9095" d="M130.312,102.9a.628.628,0,0,1-.422-.162,14.032,14.032,0,0,1-2.251-3.605c-.357-.7-.694-1.365-.994-1.853-.874-1.421-1.356-2.2-3.491-2.213a8.522,8.522,0,0,0-2.92.578c-.257.086-.524.175-.787.251a.63.63,0,0,1-.352-1.21c.24-.07.483-.151.74-.237a9.713,9.713,0,0,1,3.325-.643c2.835.013,3.634,1.311,4.559,2.813.327.531.675,1.217,1.044,1.942a13.981,13.981,0,0,0,1.972,3.241.63.63,0,0,1-.422,1.1Z" transform="translate(30.906 24.437)" fill="#002744"/>
    <path id="Trazado_9096" data-name="Trazado 9096" d="M134.4,102.328a.629.629,0,0,1-.509-.258,11.178,11.178,0,0,1-1.357-2.561c-.142-.342-.289-.7-.464-1.065a3.3,3.3,0,0,0-3.055-1.937,17.749,17.749,0,0,0-3.4.523l-.015,0a.63.63,0,1,1-.267-1.232l.015,0a18.636,18.636,0,0,1,3.64-.552A4.487,4.487,0,0,1,133.2,97.9c.188.4.34.765.488,1.121a10.019,10.019,0,0,0,1.21,2.3.63.63,0,0,1-.508,1Z" transform="translate(32.52 24.812)" fill="#002744"/>
    <path id="Trazado_9097" data-name="Trazado 9097" d="M135.912,127.884a.63.63,0,0,1-.251-1.209c4.212-1.827,4.789-6.822,4.506-9.208q-.047-.4-.091-.773a42.142,42.142,0,0,0-3.262-12.944c-.27-.687-.462-1.339-.632-1.914a6.035,6.035,0,0,0-1.288-2.731,3.008,3.008,0,0,0-2.485-1.016,11.023,11.023,0,0,1-1.36-.128.63.63,0,1,1,.208-1.243,9.843,9.843,0,0,0,1.212.112,4.226,4.226,0,0,1,3.316,1.384,7.134,7.134,0,0,1,1.606,3.266c.17.577.347,1.174.6,1.81a43.163,43.163,0,0,1,3.341,13.258q.044.377.091.771c.322,2.708-.363,8.391-5.256,10.513A.628.628,0,0,1,135.912,127.884Z" transform="translate(34.002 25.193)" fill="#002744"/>
    <path id="Trazado_9098" data-name="Trazado 9098" d="M128.692,128.684a7.152,7.152,0,0,1-5.085-1.592,9.9,9.9,0,0,1-1.819-2.427,2.153,2.153,0,0,0-.454-.659.63.63,0,0,1,.492-1.16,2.416,2.416,0,0,1,1.06,1.2,8.655,8.655,0,0,0,1.6,2.144c1.809,1.765,6.347,1.641,11.843-.325,2.851-1.021,6.127-3.259,5.541-8.126a.63.63,0,1,1,1.251-.151,8.24,8.24,0,0,1-1.328,5.885,10.087,10.087,0,0,1-5.04,3.579A24.7,24.7,0,0,1,128.692,128.684Z" transform="translate(31.508 30.488)" fill="#002744"/>
    <path id="Trazado_9099" data-name="Trazado 9099" d="M113.869,99.029a2.772,2.772,0,0,0,.063-.466c-2.386,1.868-5.014,1.587-6.426.478-.013-.113.8-2.181.792-2.307.908.782,3.139-1.953,4.866-1.486s1.815,3.555,1.815,3.555a3.3,3.3,0,0,0-1.109.227" transform="translate(28.006 24.798)" fill="#09f"/>
    <path id="Trazado_9100" data-name="Trazado 9100" d="M126.244,103.6a.629.629,0,0,1-.487-.23,25,25,0,0,1-2.44-3.85c-.256-.463-.521-.942-.8-1.427-1.273-2.206-3.26-4.6-4.34-5.238-1.132-.665-2.453-.633-4.56.111-.816.288-1.238.7-2.661,2.576A14.2,14.2,0,0,1,109.6,97a6.081,6.081,0,0,0-1.513,1.853,1.291,1.291,0,0,0,.242,1.087,2.24,2.24,0,0,0,1.7.9,3.636,3.636,0,0,0,2.742-.766c.109-.07.224-.143.344-.219a2.669,2.669,0,0,1,2.4-.5,1.583,1.583,0,0,1,.907,1.055l-1.228.286a.154.154,0,0,0,0,.016.321.321,0,0,0-.173-.2c-.088-.033-.437-.1-1.244.4-.117.073-.227.143-.332.211a4.869,4.869,0,0,1-3.5.963,3.51,3.51,0,0,1-2.654-1.427,2.538,2.538,0,0,1-.425-2.163,6.471,6.471,0,0,1,1.841-2.4,13.343,13.343,0,0,0,1.231-1.319c1.422-1.878,2.028-2.574,3.246-3,2.467-.871,4.147-.874,5.618-.009,1.426.837,3.557,3.553,4.793,5.7.285.495.553.979.812,1.447a24.1,24.1,0,0,0,2.31,3.66.63.63,0,0,1-.487,1.03Z" transform="translate(27.82 23.738)" fill="#002744"/>
    <path id="Trazado_9101" data-name="Trazado 9101" d="M81.219,88.61l23.961,8.611L83.544,92.829Z" transform="translate(21.158 23.083)" fill="#99d6ff"/>
    <path id="Trazado_9102" data-name="Trazado 9102" d="M109.428,96.528,96.735,79.906,90.023,82.44Z" transform="translate(23.451 20.816)" fill="#99d6ff"/>
    <path id="Trazado_9103" data-name="Trazado 9103" d="M104.392,110.517,76.2,117.176l10.264.547Z" transform="translate(19.85 28.79)" fill="#99d6ff"/>
    <path id="Trazado_9104" data-name="Trazado 9104" d="M104.529,112.881l-6.843,11.062-5.2-2.866Z" transform="translate(24.093 29.406)" fill="#09f"/>
    <path id="Trazado_9105" data-name="Trazado 9105" d="M76.684,91.86a2.058,2.058,0,1,1-1.868-2.231,2.057,2.057,0,0,1,1.868,2.231" transform="translate(18.907 23.347)" fill="#09f"/>
    <path id="Trazado_9106" data-name="Trazado 9106" d="M60.271,112.41a.8.8,0,1,1-.8-.8.8.8,0,0,1,.8.8" transform="translate(15.284 29.075)" fill="#09f"/>
    <path id="Trazado_9107" data-name="Trazado 9107" d="M53.535,94.472a.8.8,0,1,1-.8-.8.8.8,0,0,1,.8.8" transform="translate(13.529 24.402)" fill="#99d6ff"/>
    <path id="Trazado_9108" data-name="Trazado 9108" d="M85.539,86a1.218,1.218,0,1,1-1.218-1.218A1.218,1.218,0,0,1,85.539,86" transform="translate(21.649 22.087)" fill="#99d6ff"/>
    <path id="Trazado_9109" data-name="Trazado 9109" d="M85.781,120.109a1.419,1.419,0,1,1-1.419-1.419,1.419,1.419,0,0,1,1.419,1.419" transform="translate(21.607 30.919)" fill="#99d6ff"/>
    <path id="Trazado_9110" data-name="Trazado 9110" d="M212.647,50.1h-14.8a3.684,3.684,0,0,1-3.684-3.684V31.51a3.684,3.684,0,0,1,1.23-2.748l5.584-4.984a3.683,3.683,0,0,1,2.453-.937h9.213a3.685,3.685,0,0,1,3.684,3.684V46.415a3.685,3.685,0,0,1-3.684,3.684" transform="translate(50.581 5.95)" fill="#eef9ed"/>
    <path id="Trazado_9111" data-name="Trazado 9111" d="M209.516,22.842V36.3a4.417,4.417,0,0,1-4.417,4.417H194.167v5.589a3.792,3.792,0,0,0,3.792,3.792h14.583a3.792,3.792,0,0,0,3.792-3.792V26.634a3.792,3.792,0,0,0-3.792-3.792Z" transform="translate(50.581 5.95)" fill="#cee6ad"/>
    <path id="Trazado_9112" data-name="Trazado 9112" d="M212.777,50.86h-14.8a4.32,4.32,0,0,1-4.315-4.315v-14.9a4.317,4.317,0,0,1,1.441-3.218l5.584-4.984a4.307,4.307,0,0,1,2.873-1.1h9.213a4.32,4.32,0,0,1,4.315,4.315V46.545A4.32,4.32,0,0,1,212.777,50.86ZM203.564,23.6a3.048,3.048,0,0,0-2.033.776l-5.584,4.984a3.055,3.055,0,0,0-1.02,2.278v14.9a3.058,3.058,0,0,0,3.054,3.054h14.8a3.058,3.058,0,0,0,3.054-3.054V26.657a3.058,3.058,0,0,0-3.054-3.054Z" transform="translate(50.451 5.82)" fill="#002744"/>
    <path id="Trazado_9113" data-name="Trazado 9113" d="M200.475,31.955H194.31a.63.63,0,0,1,0-1.261h6.165A2.027,2.027,0,0,0,202.5,28.67V23a.63.63,0,0,1,1.261,0v5.67A3.289,3.289,0,0,1,200.475,31.955Z" transform="translate(50.454 5.827)" fill="#002744"/>
    <path id="Línea_1802" data-name="Línea 1802" d="M5.368.761H.13A.63.63,0,1,1,.13-.5H5.368a.63.63,0,1,1,0,1.261Z" transform="translate(257.348 33.196)" fill="#002744"/>
    <path id="Línea_1803" data-name="Línea 1803" d="M5.368.761H.13A.63.63,0,1,1,.13-.5H5.368a.63.63,0,1,1,0,1.261Z" transform="translate(257.348 37.022)" fill="#002744"/>
    <path id="Línea_1804" data-name="Línea 1804" d="M13.9.761H.13A.63.63,0,0,1,.13-.5H13.9a.63.63,0,1,1,0,1.261Z" transform="translate(248.816 40.848)" fill="#002744"/>
    <path id="Línea_1805" data-name="Línea 1805" d="M13.9.761H.13A.63.63,0,0,1,.13-.5H13.9a.63.63,0,1,1,0,1.261Z" transform="translate(248.816 44.674)" fill="#002744"/>
    <path id="Línea_1806" data-name="Línea 1806" d="M13.9.761H.13A.63.63,0,0,1,.13-.5H13.9a.63.63,0,1,1,0,1.261Z" transform="translate(248.816 48.5)" fill="#002744"/>
    <path id="Línea_1807" data-name="Línea 1807" d="M13.9.761H.13A.63.63,0,0,1,.13-.5H13.9a.63.63,0,1,1,0,1.261Z" transform="translate(248.816 52.326)" fill="#002744"/>
    <path id="Trazado_9114" data-name="Trazado 9114" d="M212.647,83.072h-14.8a3.684,3.684,0,0,1-3.684-3.684v-14.9a3.684,3.684,0,0,1,1.23-2.748l5.584-4.984a3.683,3.683,0,0,1,2.453-.937h9.213a3.685,3.685,0,0,1,3.684,3.684V79.388a3.685,3.685,0,0,1-3.684,3.684" transform="translate(50.581 14.54)" fill="#eef9ed"/>
    <path id="Trazado_9115" data-name="Trazado 9115" d="M209.516,55.816v13.46a4.417,4.417,0,0,1-4.417,4.417H194.167v5.589a3.792,3.792,0,0,0,3.792,3.792h14.583a3.792,3.792,0,0,0,3.792-3.792V59.608a3.792,3.792,0,0,0-3.792-3.792Z" transform="translate(50.581 14.54)" fill="#cee6ad"/>
    <path id="Trazado_9116" data-name="Trazado 9116" d="M212.777,83.833h-14.8a4.32,4.32,0,0,1-4.315-4.315v-14.9a4.317,4.317,0,0,1,1.441-3.218l5.584-4.984a4.307,4.307,0,0,1,2.873-1.1h9.213a4.32,4.32,0,0,1,4.315,4.315V79.518A4.32,4.32,0,0,1,212.777,83.833Zm-9.213-27.257a3.048,3.048,0,0,0-2.033.776l-5.584,4.984a3.055,3.055,0,0,0-1.02,2.278v14.9a3.058,3.058,0,0,0,3.054,3.054h14.8a3.058,3.058,0,0,0,3.054-3.054V59.63a3.058,3.058,0,0,0-3.054-3.054Z" transform="translate(50.451 14.41)" fill="#002744"/>
    <path id="Trazado_9117" data-name="Trazado 9117" d="M200.475,64.929H194.31a.63.63,0,0,1,0-1.261h6.165a2.027,2.027,0,0,0,2.024-2.024v-5.67a.63.63,0,0,1,1.261,0v5.67A3.289,3.289,0,0,1,200.475,64.929Z" transform="translate(50.454 14.417)" fill="#002744"/>
    <path id="Línea_1808" data-name="Línea 1808" d="M5.368.761H.13A.63.63,0,1,1,.13-.5H5.368a.63.63,0,1,1,0,1.261Z" transform="translate(257.348 74.759)" fill="#002744"/>
    <path id="Línea_1809" data-name="Línea 1809" d="M5.368.761H.13A.63.63,0,1,1,.13-.5H5.368a.63.63,0,1,1,0,1.261Z" transform="translate(257.348 78.585)" fill="#002744"/>
    <path id="Línea_1810" data-name="Línea 1810" d="M13.9.761H.13A.63.63,0,0,1,.13-.5H13.9a.63.63,0,1,1,0,1.261Z" transform="translate(248.816 82.411)" fill="#002744"/>
    <path id="Línea_1811" data-name="Línea 1811" d="M13.9.761H.13A.63.63,0,0,1,.13-.5H13.9a.63.63,0,1,1,0,1.261Z" transform="translate(248.816 86.237)" fill="#002744"/>
    <path id="Línea_1812" data-name="Línea 1812" d="M13.9.761H.13A.63.63,0,0,1,.13-.5H13.9a.63.63,0,1,1,0,1.261Z" transform="translate(248.816 90.063)" fill="#002744"/>
    <path id="Línea_1813" data-name="Línea 1813" d="M13.9.761H.13A.63.63,0,0,1,.13-.5H13.9a.63.63,0,1,1,0,1.261Z" transform="translate(248.816 93.889)" fill="#002744"/>
  </g>
</svg>
