<?xml version="1.0" encoding="UTF-8"?><svg id="Capa_2" xmlns="http://www.w3.org/2000/svg" xmlns:xlink="http://www.w3.org/1999/xlink" viewBox="0 0 486.5 612.35"><defs><style>.cls-1,.cls-2{fill:#fff;}.cls-3{fill:url(#Degradado_sin_nombre_21);}.cls-4{fill:url(#Degradado_sin_nombre_18);}.cls-5,.cls-6,.cls-7,.cls-8,.cls-9,.cls-10,.cls-11,.cls-12,.cls-13{fill:none;}.cls-5,.cls-6,.cls-7,.cls-8,.cls-10,.cls-11,.cls-12,.cls-13{stroke-miterlimit:10;}.cls-5,.cls-6,.cls-7,.cls-8,.cls-10,.cls-11,.cls-13{stroke:#fff;}.cls-14{fill:#cee6ad;}.cls-15{fill:#fe5000;}.cls-2{font-family:Sora-Bold, Sora;font-size:16.29px;font-variation-settings:'wght' 700;font-weight:700;letter-spacing:0em;}.cls-6,.cls-10{stroke-width:2px;}.cls-16{fill:url(#Degradado_sin_nombre_19);}.cls-7,.cls-11{stroke-width:.5px;}.cls-17{fill:url(#Degradado_sin_nombre_20);}.cls-18{clip-path:url(#clippath);}.cls-19{fill:url(#Degradado_sin_nombre_17);}.cls-8{opacity:.5;stroke-width:7px;}.cls-20{fill:url(#Degradado_sin_nombre_16);}.cls-10,.cls-11,.cls-12,.cls-13{stroke-linecap:round;}.cls-12{stroke:#cee6ad;stroke-width:10px;}.cls-13{stroke-width:.25px;}</style><clipPath id="clippath"><circle class="cls-9" cx="243.61" cy="264.88" r="221.59"/></clipPath><linearGradient id="Degradado_sin_nombre_16" x1="209.21" y1="115.08" x2="309.14" y2="154.53" gradientTransform="translate(58.06 -43.47) rotate(11.57)" gradientUnits="userSpaceOnUse"><stop offset="0" stop-color="#cee6ad"/><stop offset=".19" stop-color="#d0e7b0"/><stop offset=".36" stop-color="#d7eabc"/><stop offset=".54" stop-color="#e2f0cf"/><stop offset=".68" stop-color="#f0f7e6"/><stop offset=".75" stop-color="#e8f3da"/><stop offset="1" stop-color="#cee6ad"/></linearGradient><linearGradient id="Degradado_sin_nombre_19" x1="279.23" y1="252.01" x2="274.77" y2="335.23" gradientTransform="translate(58.06 -43.47) rotate(11.57)" gradientUnits="userSpaceOnUse"><stop offset="0" stop-color="#cee6ad"/><stop offset=".16" stop-color="#d0e7b0"/><stop offset=".31" stop-color="#d7eabc"/><stop offset=".45" stop-color="#e2f0cf"/><stop offset=".57" stop-color="#f0f7e6"/><stop offset=".66" stop-color="#e8f3da"/><stop offset="1" stop-color="#cee6ad"/></linearGradient><linearGradient id="Degradado_sin_nombre_20" x1="281.66" y1="371.96" x2="320.11" y2="316.23" gradientTransform="translate(58.06 -43.47) rotate(11.57)" gradientUnits="userSpaceOnUse"><stop offset=".17" stop-color="#f0f7e6"/><stop offset=".26" stop-color="#e9f3db"/><stop offset=".54" stop-color="#daecc2"/><stop offset=".8" stop-color="#d1e7b2"/><stop offset="1" stop-color="#cee6ad"/></linearGradient><linearGradient id="Degradado_sin_nombre_18" x1="129.46" y1="201.35" x2="166.9" y2="338.71" gradientTransform="translate(58.06 -43.47) rotate(11.57)" gradientUnits="userSpaceOnUse"><stop offset="0" stop-color="#cee6ad"/><stop offset=".11" stop-color="#d7eabd"/><stop offset=".32" stop-color="#f0f7e6"/><stop offset=".47" stop-color="#e1efcd"/><stop offset=".64" stop-color="#d6eabb"/><stop offset=".81" stop-color="#d0e7b0"/><stop offset="1" stop-color="#cee6ad"/></linearGradient><linearGradient id="Degradado_sin_nombre_17" x1="107.32" y1="285.97" x2="109.56" y2="153.55" gradientTransform="translate(58.06 -43.47) rotate(11.57)" gradientUnits="userSpaceOnUse"><stop offset="0" stop-color="#cee6ad"/><stop offset=".16" stop-color="#d0e7b0"/><stop offset=".3" stop-color="#d7eabc"/><stop offset=".45" stop-color="#e2f0cf"/><stop offset=".57" stop-color="#f0f7e6"/><stop offset=".66" stop-color="#e8f3da"/><stop offset="1" stop-color="#cee6ad"/></linearGradient><linearGradient id="Degradado_sin_nombre_21" x1="378.33" y1="264.49" x2="360.61" y2="395.81" gradientTransform="translate(58.06 -43.47) rotate(11.57)" gradientUnits="userSpaceOnUse"><stop offset="0" stop-color="#cee6ad"/><stop offset=".21" stop-color="#d0e7b0"/><stop offset=".4" stop-color="#d7eabc"/><stop offset=".59" stop-color="#e2f0cf"/><stop offset=".75" stop-color="#f0f7e6"/><stop offset=".8" stop-color="#e8f3da"/><stop offset="1" stop-color="#cee6ad"/></linearGradient></defs><g id="Capa_1-2"><g class="cls-18"><line class="cls-13" x1="81.23" y1="-2.4" x2="81.23" y2="525.99"/><line class="cls-13" x1="165.09" y1="-2.4" x2="165.09" y2="525.99"/><line class="cls-13" x1="248.96" y1="-2.4" x2="248.96" y2="525.99"/><line class="cls-13" x1="332.83" y1="-2.4" x2="332.83" y2="525.99"/><line class="cls-13" x1="416.7" y1="-2.4" x2="416.7" y2="525.99"/><line class="cls-13" x1="513.15" y1="10.19" x2="-15.23" y2="10.19"/><line class="cls-13" x1="513.15" y1="94.06" x2="-15.23" y2="94.06"/><line class="cls-13" x1="513.15" y1="177.93" x2="-15.23" y2="177.93"/><line class="cls-13" x1="513.15" y1="261.8" x2="-15.23" y2="261.8"/><line class="cls-13" x1="513.15" y1="345.66" x2="-15.23" y2="345.66"/><line class="cls-13" x1="513.15" y1="429.53" x2="-15.23" y2="429.53"/><line class="cls-13" x1="513.15" y1="513.4" x2="-15.23" y2="513.4"/></g><path class="cls-8" d="m277.43,561.22c0,9.26-4.52,17.46-11.47,22.52-4.59,3.34-10.25,5.31-16.36,5.31-15.37,0-27.83-12.46-27.83-27.83s12.46-27.83,27.83-27.83,27.83,12.46,27.83,27.83Z"/><path class="cls-14" d="m165.69,160.6c-1.05-.22-2.08-.67-2.99-1.37-3.18-2.46-3.76-7.03-1.3-10.2,10.72-13.85,24.81-24.56,40.75-30.97,3.73-1.5,7.96.31,9.46,4.03,1.5,3.73-.31,7.96-4.03,9.46-13.54,5.45-25.53,14.57-34.67,26.38-1.75,2.27-4.58,3.21-7.21,2.67Z"/><path class="cls-20" d="m323.84,183.76c-1.99-.41-3.8-1.64-4.88-3.55-21.95-38.93-52.54-59.14-86.14-56.9-4.01.26-7.47-2.76-7.74-6.77-.27-4.01,2.77-7.47,6.77-7.74,18.25-1.22,36.57,3.38,52.97,13.28,18.16,10.96,33.9,28.12,46.8,50.98,1.97,3.5.74,7.93-2.76,9.91-1.59.9-3.37,1.13-5.03.79Z"/><path class="cls-14" d="m226.71,342.5c-8.97-1.83-25.17-8.38-35.91-31.54-7.56-16.31-17.91-38.64-21.46-71.67-2.32-21.6,1.27-40.91,10.67-57.38,1.99-3.49,6.43-4.7,9.92-2.72,3.49,1.99,4.7,6.43,2.72,9.92-7.85,13.77-10.82,30.13-8.84,48.63,3.28,30.64,13.05,51.72,20.19,67.1,10.97,23.67,28.12,23.82,28.84,23.82,4.02-.13,7.33,3.02,7.46,7.03.13,4.01-3.06,7.38-7.07,7.51-.32.01-2.8.06-6.52-.7Z"/><path class="cls-14" d="m304.85,307.8c-3.66-.75-6.2-4.19-5.76-7.96,4.71-40.35.92-58.51-3.88-81.49-6.29-30.13-28.3-48.9-41.19-52.1-12.23-3.02-26.22-2.24-37.4,2.13-3.74,1.46-7.96-.39-9.42-4.13-1.46-3.74.39-7.96,4.13-9.42,20.01-7.82,38.98-4.5,46.2-2.7,19.79,4.91,44.72,28.74,51.92,63.24,4.87,23.31,9.07,43.45,4.09,86.15-.46,3.99-4.08,6.85-8.06,6.38-.21-.02-.42-.06-.62-.1Z"/><path class="cls-14" d="m215.25,282.83c-2.67-.55-4.91-2.57-5.61-5.39-.25-1-6.02-24.62-7.54-43.98-1.26-16.15,4.46-29.9,15.71-37.74,10.29-7.17,23.97-8.27,35.71-2.87,3.65,1.68,5.24,6,3.56,9.65-1.68,3.65-6,5.25-9.65,3.56-7.07-3.25-15.23-2.65-21.31,1.59-7.01,4.88-10.39,13.64-9.52,24.67,1.42,18.15,7.1,41.41,7.16,41.64.96,3.9-1.43,7.84-5.32,8.8-1.08.27-2.17.28-3.19.07Z"/><path class="cls-14" d="m270.26,240.48c-2.9-.59-5.27-2.94-5.73-6.04-.46-3.07-1.21-6.57-1.85-8.7-1.16-3.85,1.03-7.9,4.87-9.06,3.84-1.16,7.9,1.02,9.06,4.87,1.01,3.36,1.85,7.74,2.3,10.72.6,3.97-2.14,7.68-6.11,8.27-.87.13-1.73.1-2.54-.06Z"/><path class="cls-16" d="m256.6,340.12c-1.56-.32-3.03-1.15-4.13-2.48-2.57-3.09-2.14-7.67.95-10.24,15.62-12.97,19.73-42.57,14.69-63.69-.93-3.91,1.48-7.83,5.38-8.76,3.91-.93,7.83,1.48,8.76,5.38,5.99,25.09,1.18,61.05-19.54,78.26-1.77,1.47-4.02,1.96-6.11,1.53Z"/><path class="cls-14" d="m237.15,306.77c-1.88-.38-3.6-1.51-4.7-3.26-2.01-3.21-1.22-7.38,1.73-9.63.79-.92,9.26-12.17-.49-58.52-.83-3.93,1.69-7.79,5.62-8.61,3.93-.83,7.79,1.69,8.61,5.62,12.08,57.39-1.11,70.72-5.44,73.44-1.65,1.04-3.56,1.33-5.32.97Zm-2.43-13.27s0,0,0,0t0,0Zm.01,0h0s0,0,0,0Zm0,0h0s0,0,0,0Z"/><path class="cls-14" d="m321.74,368.46c-.94-.19-1.86-.58-2.7-1.16-3.29-2.3-4.1-6.83-1.8-10.12,8.89-12.74,18.33-43.02,19.18-76.22.61-23.99-1.89-48.5-7.23-70.88-.93-3.91,1.48-7.83,5.38-8.76,3.91-.93,7.83,1.48,8.76,5.38,5.63,23.59,8.27,49.39,7.62,74.63-.82,32.35-9.78,66.97-21.79,84.17-1.71,2.45-4.67,3.53-7.43,2.96Z"/><path class="cls-17" d="m260.64,379.99c-2.36-.48-4.43-2.13-5.35-4.55-1.42-3.75.47-7.95,4.22-9.38,14.73-5.59,26.68-17.98,33.64-34.89,1.53-3.71,5.77-5.49,9.49-3.96,3.71,1.53,5.48,5.78,3.96,9.49-8.51,20.67-23.4,35.92-41.93,42.95-1.33.51-2.73.59-4.03.33Z"/><path class="cls-4" d="m159.23,320.12c-1.93-.4-3.7-1.57-4.79-3.4-10.33-17.3-17.77-42.91-20.41-70.25-2.59-26.84-.23-50.46,6.47-64.79,1.7-3.64,6.02-5.21,9.67-3.51,3.64,1.7,5.21,6.03,3.51,9.67-11.36,24.31-6.98,87.56,13.25,121.43,2.06,3.45.93,7.91-2.51,9.97-1.62.97-3.47,1.23-5.18.88Z"/><path class="cls-14" d="m225.05,385.4c-.29-.06-.57-.14-.86-.23-10.14-3.39-35.6-14.09-53.04-40.19-2.23-3.34-1.34-7.85,2-10.09,3.34-2.23,7.86-1.33,10.09,2,15.37,23,38.76,32.2,45.57,34.48,3.81,1.27,5.86,5.39,4.59,9.2-1.18,3.52-4.79,5.55-8.34,4.82Z"/><path class="cls-14" d="m222.86,417.07c-59.78-12.24-96.67-65.48-112.35-118.69-1.14-3.85,1.07-7.89,4.92-9.03,3.85-1.14,7.89,1.07,9.03,4.92,17.76,60.26,64.88,120.68,143.87,109.48,3.97-.56,7.66,2.2,8.22,6.18.56,3.98-2.2,7.66-6.18,8.22-17.19,2.44-33.03,1.88-47.51-1.08Z"/><path class="cls-19" d="m110.88,267.12c-2.93-.6-5.3-2.98-5.74-6.11-7.37-52,3.26-99.97,29.15-131.62,2.54-3.11,7.12-3.57,10.23-1.02,3.11,2.54,3.57,7.12,1.02,10.23-23.32,28.51-32.8,72.38-26,120.37.56,3.98-2.2,7.66-6.18,8.22-.85.12-1.68.09-2.48-.07Z"/><path class="cls-14" d="m194.78,100.6c-2.18-.45-4.12-1.88-5.14-4.05-1.7-3.64-.13-7.97,3.51-9.67,18.24-8.52,41.46-11.71,56.46-7.74,3.88,1.03,6.2,5,5.17,8.89s-5,6.22-8.89,5.17c-11.63-3.08-31.65-.12-46.59,6.86-1.47.69-3.05.84-4.53.54Z"/><path class="cls-14" d="m308,429.34c-1.96-.4-3.75-1.61-4.84-3.48-10.54-18.2-18.16-31.34-2.02-49.44,2.67-3,7.27-3.26,10.27-.59,3,2.67,3.26,7.27.59,10.27-8.82,9.9-6.88,14.12,3.75,32.47,2.01,3.48.83,7.92-2.65,9.94-1.6.93-3.42,1.18-5.1.83Z"/><path class="cls-14" d="m371.28,255.33c-3.14-.64-5.58-3.32-5.79-6.67-4.82-76.9-31.3-125.08-83.34-151.65-3.58-1.83-5-6.21-3.17-9.78,1.83-3.58,6.21-5,9.78-3.17,29.95,15.29,52.75,37.89,67.77,67.19,13.36,26.05,21.04,57.62,23.47,96.5.25,4.01-2.79,7.46-6.8,7.71-.66.04-1.3,0-1.92-.13Z"/><path class="cls-3" d="m332.3,412.16c-.86-.18-1.7-.51-2.48-1.01-3.38-2.17-4.35-6.67-2.17-10.05,13.39-20.79,36.23-63.91,38.76-119.08.18-4.01,3.58-7.11,7.6-6.93,4.01.18,7.11,3.58,6.93,7.6-2.68,58.58-26.87,104.27-41.06,126.29-1.67,2.6-4.72,3.77-7.57,3.19Z"/><path class="cls-14" d="m217.52,449.23c-37.19-7.61-61.22-27.25-69.86-35.38-2.92-2.75-3.06-7.36-.31-10.28,2.75-2.92,7.36-3.06,10.28-.31,11.83,11.14,55.84,46.26,125.44,30.5,3.91-.89,7.81,1.57,8.7,5.49.89,3.92-1.57,7.81-5.49,8.7-26.29,5.95-49.32,5.26-68.75,1.28Z"/><path class="cls-14" d="m129.38,395.13c-1.46-.3-2.85-1.05-3.93-2.24-3.81-4.21-16.44-22.44-23.65-35.27-1.97-3.5-.72-7.93,2.78-9.9,3.5-1.97,7.93-.72,9.9,2.78,6.84,12.18,18.79,29.36,21.76,32.64,2.69,2.98,2.46,7.58-.51,10.27-1.78,1.61-4.15,2.18-6.34,1.73Z"/><circle class="cls-7" cx="116.25" cy="184.82" r="22.31"/><circle class="cls-5" cx="116.25" cy="184.82" r="12.01"/><circle class="cls-7" cx="140.41" cy="227.18" r="22.31"/><circle class="cls-5" cx="140.41" cy="227.18" r="12.01"/><circle class="cls-7" cx="268.47" cy="370.97" r="22.31"/><circle class="cls-5" cx="268.47" cy="370.97" r="12.01"/><circle class="cls-7" cx="272.6" cy="308.93" r="22.31"/><circle class="cls-5" cx="272.6" cy="308.93" r="12.01"/><circle class="cls-7" cx="345.6" cy="383.53" r="22.31"/><circle class="cls-5" cx="345.6" cy="383.53" r="12.01"/><circle class="cls-7" cx="304.03" cy="148.58" r="22.31"/><circle class="cls-5" cx="304.03" cy="148.58" r="12.01"/><polyline class="cls-10" points="1 74.43 1 1 73.57 1"/><polyline class="cls-10" points="412.07 1.43 485.5 1.43 485.5 74"/><polyline class="cls-10" points="1 537.92 1 611.35 73.57 611.35"/><polyline class="cls-10" points="412.07 610.92 485.5 610.92 485.5 538.35"/><rect class="cls-1" x="37.68" y="545.87" width="94.48" height="7.47" rx="3.73" ry="3.73"/><rect class="cls-15" x="37.68" y="533.8" width="45.79" height="7.47" rx="3.73" ry="3.73"/><rect class="cls-15" x="282.49" y="581.58" width="14.74" height="7.47" rx="3.73" ry="3.73"/><rect class="cls-1" x="211.58" y="525.51" width="14.74" height="7.47" rx="3.73" ry="3.73"/><path class="cls-12" d="m249.6,533.39c15.37,0,27.83,12.46,27.83,27.83,0,9.26-4.52,17.46-11.47,22.52"/><text class="cls-2" transform="translate(232.52 566.61)"><tspan x="0" y="0">45%</tspan></text><rect class="cls-5" x="397.06" y="508.76" width="30.02" height="72.23" rx="3.67" ry="3.67" transform="translate(956.95 132.81) rotate(90)"/><rect class="cls-6" x="401.52" y="513.54" width="20.87" height="62.67" rx=".71" ry=".71" transform="translate(956.83 132.92) rotate(90)"/><rect class="cls-15" x="379.34" y="543.05" width="13.79" height="3.66" rx=".83" ry=".83" transform="translate(931.11 158.64) rotate(90)"/><rect class="cls-15" x="384.85" y="543.05" width="13.79" height="3.66" rx=".83" ry=".83" transform="translate(936.62 153.13) rotate(90)"/><rect class="cls-15" x="390.36" y="543.05" width="13.79" height="3.66" rx=".83" ry=".83" transform="translate(942.13 147.62) rotate(90)"/><rect class="cls-1" x="395.87" y="543.05" width="13.79" height="3.66" rx=".83" ry=".83" transform="translate(947.64 142.11) rotate(90)"/><rect class="cls-1" x="401.38" y="543.05" width="13.79" height="3.66" rx=".83" ry=".83" transform="translate(953.15 136.6) rotate(90)"/><rect class="cls-1" x="406.89" y="543.05" width="13.79" height="3.66" rx=".83" ry=".83" transform="translate(958.66 131.09) rotate(90)"/><line class="cls-10" x1="38.99" y1="561.68" x2="103.38" y2="561.68"/><line class="cls-10" x1="38.99" y1="570.31" x2="103.38" y2="570.31"/><line class="cls-10" x1="38.99" y1="578.94" x2="89.6" y2="578.94"/><line class="cls-10" x1="377.91" y1="570.25" x2="442.3" y2="570.25"/><line class="cls-10" x1="377.91" y1="578.88" x2="428.52" y2="578.88"/><circle class="cls-11" cx="243.61" cy="264.88" r="241.89"/><circle class="cls-10" cx="243.61" cy="264.88" r="221.59"/><circle class="cls-11" cx="243.61" cy="264.88" r="227.78"/></g></svg>