<svg id="Illustración_PlantaCombustion" xmlns="http://www.w3.org/2000/svg" width="60" height="60" viewBox="0 0 60 60">
  <g id="Grupo_2432" data-name="Grupo 2432" transform="translate(-928.708 -861)">
    <path id="Trazado_18204" data-name="Trazado 18204" d="M79.279,0h42.857a8.572,8.572,0,0,1,8.572,8.571V51.429A8.572,8.572,0,0,1,122.136,60H79.279a8.571,8.571,0,0,1-8.571-8.571V8.571A8.571,8.571,0,0,1,79.279,0" transform="translate(858 861)" fill="#99d6ff"/>
    <path id="Trazado_18205" data-name="Trazado 18205" d="M104.189,13.4V11.856h.188V8.415H106.3V6.107h-4.948V8.415h1.443v1.643H99.882v-.04a.757.757,0,0,0-.756-.756H97.1a.757.757,0,0,0-.757.756v1.171a.756.756,0,0,0,.757.756h2.023a.756.756,0,0,0,.756-.756v0h1.624V13.4h-2v3.088h7.814V13.4Z" transform="translate(858 861)" fill="#ff895a"/>
    <path id="Trazado_18206" data-name="Trazado 18206" d="M111.143,18.19V52.05c0,.59-1.11,1.13-2.92,1.52a36.857,36.857,0,0,1-7.43.66c-5.71,0-10.35-.97-10.35-2.18V18.19c0-1.2,4.64-2.18,10.35-2.18a36.769,36.769,0,0,1,7.43.67c1.81.39,2.92.92,2.92,1.51" transform="translate(858 861)" fill="#ff895a"/>
    <path id="Trazado_18207" data-name="Trazado 18207" d="M111.143,18.19V52.05c0,.59-1.11,1.13-2.92,1.52V16.68c1.81.39,2.92.92,2.92,1.51" transform="translate(858 861)" fill="#fe5000"/>
    <line id="Línea_6161" data-name="Línea 6161" y1="0.795" transform="translate(948.36 883.74)" fill="none" stroke="#002744" stroke-linecap="round" stroke-miterlimit="10" stroke-width="0.75"/>
    <path id="Trazado_18208" data-name="Trazado 18208" d="M90.36,21.054V18.193c0-1.2,4.633-2.181,10.347-2.181s10.348.976,10.348,2.181V52.05c0,1.205-4.633,2.181-10.348,2.181S90.36,53.255,90.36,52.05V27.259" transform="translate(858 861)" fill="none" stroke="#002744" stroke-linecap="round" stroke-miterlimit="10" stroke-width="0.75"/>
    <rect id="Rectángulo_3441" data-name="Rectángulo 3441" width="7.777" height="14.518" rx="0.913" transform="translate(951.016 883.74)" fill="none" stroke="#002744" stroke-linecap="round" stroke-miterlimit="10" stroke-width="0.75"/>
    <path id="Trazado_18209" data-name="Trazado 18209" d="M99.258,16.033v-2a.652.652,0,0,1,.652-.652h6.89a.652.652,0,0,1,.652.652V15.87c0,.36-.037.6-.4.6" transform="translate(858 861)" fill="none" stroke="#002744" stroke-linecap="round" stroke-miterlimit="10" stroke-width="0.75"/>
    <path id="Trazado_18210" data-name="Trazado 18210" d="M97.557,12.06h0a1.211,1.211,0,0,1-1.211-1.211v-.376a1.211,1.211,0,0,1,2.422,0v.376A1.211,1.211,0,0,1,97.557,12.06Z" transform="translate(858 861)" fill="none" stroke="#002744" stroke-linecap="round" stroke-miterlimit="10" stroke-width="0.75"/>
    <path id="Trazado_18211" data-name="Trazado 18211" d="M97.557,9.262h1.211a1.211,1.211,0,0,1,1.211,1.211v.376a1.211,1.211,0,0,1-1.211,1.21H97.557" transform="translate(858 861)" fill="none" stroke="#002744" stroke-linecap="round" stroke-miterlimit="10" stroke-width="0.75"/>
    <path id="Trazado_18212" data-name="Trazado 18212" d="M101.607,13.382V11.513a.329.329,0,0,0-.328-.328h-1.3" transform="translate(858 861)" fill="none" stroke="#002744" stroke-linecap="round" stroke-miterlimit="10" stroke-width="0.75"/>
    <path id="Trazado_18213" data-name="Trazado 18213" d="M99.979,9.76h1.3a1.755,1.755,0,0,1,1.753,1.754v1.868" transform="translate(858 861)" fill="none" stroke="#002744" stroke-linecap="round" stroke-miterlimit="10" stroke-width="0.75"/>
    <line id="Línea_6162" data-name="Línea 6162" y2="36.476" transform="translate(966.226 878.125)" fill="none" stroke="#002744" stroke-linecap="round" stroke-miterlimit="10" stroke-width="0.75"/>
    <line id="Línea_6163" data-name="Línea 6163" y2="2.896" transform="translate(963.528 874.383)" fill="none" stroke="#002744" stroke-linecap="round" stroke-miterlimit="10" stroke-width="0.75"/>
    <line id="Línea_6164" data-name="Línea 6164" y2="2.344" transform="translate(960.795 869.291)" fill="none" stroke="#002744" stroke-linecap="round" stroke-miterlimit="10" stroke-width="0.75"/>
    <line id="Línea_6165" data-name="Línea 6165" y2="5.091" transform="translate(962.377 869.291)" fill="none" stroke="#002744" stroke-linecap="round" stroke-miterlimit="10" stroke-width="0.75"/>
    <rect id="Rectángulo_3442" data-name="Rectángulo 3442" width="3.741" height="2.257" rx="0.483" transform="translate(959.352 867.033)" fill="none" stroke="#002744" stroke-linecap="round" stroke-miterlimit="10" stroke-width="0.75"/>
    <path id="Trazado_18214" data-name="Trazado 18214" d="M103.409,6.034h2.432a.46.46,0,0,1,.459.459V7.832a.46.46,0,0,1-.459.459h-2.432" transform="translate(858 861)" fill="none" stroke="#002744" stroke-linecap="round" stroke-miterlimit="10" stroke-width="0.75"/>
    <path id="Trazado_18215" data-name="Trazado 18215" d="M96.342,50.858A3.915,3.915,0,0,1,94.689,44.4c2.131-2.588,2.523-2.828,2.479-4.285A3.7,3.7,0,0,1,99.1,43.05c.177,1.258-1.131,2.921.631,2.921.954,0,.826-1.29.826-1.29,1.316,1.316,1.5,5.2-1.587,6.059a1.791,1.791,0,0,0-.218-2.927c0,1.584-2.292,1.472-2.292-.432a3.347,3.347,0,0,1,.96-2.529s-2.048.444-2.048,3.793a3.125,3.125,0,0,0,.966,2.213" transform="translate(858 861)" fill="#09f"/>
    <path id="Trazado_18216" data-name="Trazado 18216" d="M96.342,50.858A3.915,3.915,0,0,1,94.689,44.4c2.131-2.588,2.523-2.828,2.479-4.285A3.7,3.7,0,0,1,99.1,43.05c.177,1.258-1.131,2.921.631,2.921.954,0,.826-1.29.826-1.29,1.316,1.316,1.5,5.2-1.587,6.059a1.791,1.791,0,0,0-.218-2.927c0,1.584-2.292,1.472-2.292-.432a3.347,3.347,0,0,1,.96-2.529s-2.048.444-2.048,3.793A3.125,3.125,0,0,0,96.342,50.858Z" transform="translate(858 861)" fill="none" stroke="#002744" stroke-linecap="round" stroke-linejoin="round" stroke-width="0.75"/>
    <path id="Trazado_18217" data-name="Trazado 18217" d="M105.528,23.894a1.153,1.153,0,1,1-1.153-1.153A1.153,1.153,0,0,1,105.528,23.894Z" transform="translate(858 861)" fill="none" stroke="#002744" stroke-linecap="round" stroke-linejoin="round" stroke-width="0.75"/>
    <path id="Trazado_18218" data-name="Trazado 18218" d="M105.528,28.162a1.153,1.153,0,1,1-1.153-1.153A1.153,1.153,0,0,1,105.528,28.162Z" transform="translate(858 861)" fill="none" stroke="#002744" stroke-linecap="round" stroke-linejoin="round" stroke-width="0.75"/>
    <path id="Trazado_18219" data-name="Trazado 18219" d="M98.6,32.04h0a.661.661,0,0,1-.661-.661V28.621a.661.661,0,0,1,1.322,0v2.758A.661.661,0,0,1,98.6,32.04Z" transform="translate(858 861)" fill="none" stroke="#002744" stroke-linecap="round" stroke-miterlimit="10" stroke-width="0.75"/>
  </g>
</svg>
