<svg id="illustration_HomeOffice" xmlns="http://www.w3.org/2000/svg" width="60" height="60" viewBox="0 0 60 60">
  <g id="Grupo_2493" data-name="Grupo 2493" transform="translate(-897.775 -951)">
    <path id="Trazado_18836" data-name="Trazado 18836" d="M150.346,0H193.2a8.572,8.572,0,0,1,8.572,8.571V51.429A8.572,8.572,0,0,1,193.2,60H150.346a8.571,8.571,0,0,1-8.571-8.571V8.571A8.571,8.571,0,0,1,150.346,0" transform="translate(756 951)" fill="#cee6ad"/>
    <path id="Trazado_18837" data-name="Trazado 18837" d="M168.077,51.644h21.279a4.893,4.893,0,0,0,4.893-4.892V27.875a3.719,3.719,0,0,0-1.368-2.882l-12.166-9.927a2.536,2.536,0,0,0-1.607-.573h-4.644" transform="translate(756 951)" fill="#fe5000"/>
    <path id="Trazado_18838" data-name="Trazado 18838" d="M159.322,28.235v-.36a3.721,3.721,0,0,1,1.368-2.883l12.166-9.926a2.543,2.543,0,0,1,3.216,0l12.165,9.926a3.722,3.722,0,0,1,1.369,2.883V46.751a4.894,4.894,0,0,1-4.893,4.894h-20.5a4.894,4.894,0,0,1-4.893-4.894V38.7" transform="translate(756 951)" fill="#ff895a"/>
    <path id="Trazado_18839" data-name="Trazado 18839" d="M179.108,51.644H169.82V39.891a1.716,1.716,0,0,1,1.715-1.717h5.858a1.716,1.716,0,0,1,1.715,1.717Z" transform="translate(756 951)" fill="#fe5000"/>
    <path id="Trazado_18840" data-name="Trazado 18840" d="M177.169,27a2.706,2.706,0,1,1-2.705-2.7,2.7,2.7,0,0,1,2.705,2.7" transform="translate(756 951)" fill="#fe5000"/>
    <path id="Trazado_18841" data-name="Trazado 18841" d="M167.47,12.8a1.587,1.587,0,0,0-.2.02,2.544,2.544,0,0,0-3.738-1.177,3.99,3.99,0,0,0-7.917.707,3.942,3.942,0,0,0,.069.682,1.994,1.994,0,1,0-1.493,3.312H167.47a1.772,1.772,0,1,0,0-3.544" transform="translate(756 951)" fill="#ff895a"/>
    <path id="Trazado_18842" data-name="Trazado 18842" d="M161.893,33.437a6.255,6.255,0,1,1-6.255-6.255,6.254,6.254,0,0,1,6.255,6.255" transform="translate(756 951)" fill="#4d997f"/>
    <path id="Trazado_18843" data-name="Trazado 18843" d="M192.233,37.59H191.8a.594.594,0,0,1-.594-.594V31.523a.594.594,0,0,1,.594-.594h.428a.594.594,0,0,1,.594.594V37a.594.594,0,0,1-.594.594" transform="translate(756 951)" fill="#ff895a"/>
    <path id="Trazado_18844" data-name="Trazado 18844" d="M159.239,28.235v-.36a3.721,3.721,0,0,1,1.368-2.883l12.166-9.926a2.543,2.543,0,0,1,3.216,0l12.165,9.926a3.722,3.722,0,0,1,1.369,2.883V46.751a4.894,4.894,0,0,1-4.893,4.894h-20.5a4.894,4.894,0,0,1-4.893-4.894V38.7" transform="translate(756 951)" fill="none" stroke="#002744" stroke-linecap="round" stroke-miterlimit="10" stroke-width="0.75"/>
    <path id="Trazado_18845" data-name="Trazado 18845" d="M167.994,51.644h21.279a4.893,4.893,0,0,0,4.893-4.892V27.875a3.719,3.719,0,0,0-1.368-2.882l-12.166-9.927a2.536,2.536,0,0,0-1.607-.573h-4.644" transform="translate(756 951)" fill="none" stroke="#002744" stroke-linecap="round" stroke-miterlimit="10" stroke-width="0.75"/>
    <path id="Trazado_18846" data-name="Trazado 18846" d="M179.025,51.644h-9.288V39.891a1.716,1.716,0,0,1,1.715-1.717h5.858a1.716,1.716,0,0,1,1.715,1.717Z" transform="translate(756 951)" fill="none" stroke="#002744" stroke-linecap="round" stroke-miterlimit="10" stroke-width="0.75"/>
    <path id="Trazado_18847" data-name="Trazado 18847" d="M178.517,27a4.136,4.136,0,1,1-4.136-4.136A4.136,4.136,0,0,1,178.517,27Z" transform="translate(756 951)" fill="none" stroke="#002744" stroke-linecap="round" stroke-miterlimit="10" stroke-width="0.75"/>
    <rect id="Rectángulo_3472" data-name="Rectángulo 3472" width="2.749" height="1.858" transform="translate(939.124 982.578)" fill="none" stroke="#002744" stroke-linecap="round" stroke-linejoin="round" stroke-width="0.75"/>
    <rect id="Rectángulo_3473" data-name="Rectángulo 3473" width="2.749" height="1.858" transform="translate(940.799 984.438)" fill="none" stroke="#002744" stroke-linecap="round" stroke-linejoin="round" stroke-width="0.75"/>
    <line id="Línea_6359" data-name="Línea 6359" x1="0.316" transform="translate(937.574 986.295)" fill="none" stroke="#002744" stroke-linecap="round" stroke-miterlimit="10" stroke-width="0.75"/>
    <line id="Línea_6360" data-name="Línea 6360" x1="1.492" transform="translate(939.307 986.295)" fill="none" stroke="#002744" stroke-linecap="round" stroke-miterlimit="10" stroke-width="0.75"/>
    <path id="Trazado_18848" data-name="Trazado 18848" d="M167.387,12.8a1.587,1.587,0,0,0-.2.02,2.544,2.544,0,0,0-3.738-1.177,3.99,3.99,0,0,0-7.917.707,3.942,3.942,0,0,0,.069.682,1.994,1.994,0,1,0-1.493,3.312h13.275a1.772,1.772,0,1,0,0-3.544Z" transform="translate(756 951)" fill="none" stroke="#002744" stroke-linecap="round" stroke-linejoin="round" stroke-width="0.75"/>
    <circle id="Elipse_180" data-name="Elipse 180" cx="6.255" cy="6.255" r="6.255" transform="translate(905.3 978.182)" fill="none" stroke="#002744" stroke-linecap="round" stroke-linejoin="round" stroke-width="0.75"/>
    <line id="Línea_6361" data-name="Línea 6361" y2="18.889" transform="translate(911.555 983.756)" fill="none" stroke="#002744" stroke-linecap="round" stroke-linejoin="round" stroke-width="0.75"/>
    <line id="Línea_6362" data-name="Línea 6362" x2="2.346" y2="2.346" transform="translate(909.187 984.715)" fill="none" stroke="#002744" stroke-linecap="round" stroke-linejoin="round" stroke-width="0.75"/>
    <line id="Línea_6363" data-name="Línea 6363" x2="1.173" y2="1.173" transform="translate(910.359 988.234)" fill="none" stroke="#002744" stroke-linecap="round" stroke-linejoin="round" stroke-width="0.75"/>
    <line id="Línea_6364" data-name="Línea 6364" y1="1.393" x2="1.393" transform="translate(911.555 986.574)" fill="none" stroke="#002744" stroke-linecap="round" stroke-linejoin="round" stroke-width="0.75"/>
    <line id="Línea_6365" data-name="Línea 6365" x2="4.471" transform="translate(944.583 976.412)" fill="none" stroke="#002744" stroke-linecap="round" stroke-miterlimit="10" stroke-width="0.75"/>
    <line id="Línea_6366" data-name="Línea 6366" x2="4.471" transform="translate(945.522 978.801)" fill="none" stroke="#002744" stroke-linecap="round" stroke-miterlimit="10" stroke-width="0.75"/>
    <rect id="Rectángulo_3474" data-name="Rectángulo 3474" width="1.616" height="6.661" rx="0.594" transform="translate(947.128 981.93)" fill="none" stroke="#002744" stroke-linecap="round" stroke-miterlimit="10" stroke-width="0.75"/>
    <path id="Trazado_18849" data-name="Trazado 18849" d="M171.911,27.681c.018.062,2.946-3.246,2.946-3.246l1.164.6-3.311,3.9Z" transform="translate(756 951)" fill="#ff895a"/>
    <path id="Trazado_18850" data-name="Trazado 18850" d="M176.391,25.411c.027.038-2.945,3.976-2.945,3.976h.73l2.769-3.464Z" transform="translate(756 951)" fill="#ff895a"/>
    <path id="Trazado_18851" data-name="Trazado 18851" d="M176.945,27a2.565,2.565,0,1,1-2.564-2.564A2.564,2.564,0,0,1,176.945,27Z" transform="translate(756 951)" fill="none" stroke="#002744" stroke-linecap="round" stroke-miterlimit="10" stroke-width="0.75"/>
  </g>
</svg>
