<svg id="illustration_Mensajeria" xmlns="http://www.w3.org/2000/svg" width="60" height="60" viewBox="0 0 60 60">
  <path id="Trazado_18752" data-name="Trazado 18752" d="M221.377,0h42.857a8.572,8.572,0,0,1,8.572,8.571V51.429A8.572,8.572,0,0,1,264.234,60H221.377a8.571,8.571,0,0,1-8.571-8.571V8.571A8.571,8.571,0,0,1,221.377,0" transform="translate(-212.806)" fill="#f7f9f7"/>
  <path id="Trazado_18753" data-name="Trazado 18753" d="M235.846,16.832h22.447V37.838a2.345,2.345,0,0,1-2.345,2.345h-20.1" transform="translate(-212.806)" fill="#c6cccb"/>
  <path id="Trazado_18754" data-name="Trazado 18754" d="M232.516,40.183h26.508a1.731,1.731,0,0,1,1.731,1.731v6.6a1.731,1.731,0,0,1-1.731,1.731H246.377" transform="translate(-212.806)" fill="#c6cccb"/>
  <path id="Trazado_18755" data-name="Trazado 18755" d="M249.991,40.183h-19.3a2.745,2.745,0,0,1-2.745-2.744V16.832h24.792V37.439a2.744,2.744,0,0,1-2.744,2.744" transform="translate(-212.806)" fill="#eef9ed"/>
  <path id="Trazado_18756" data-name="Trazado 18756" d="M241.748,22.34h-2.8a.936.936,0,0,1-.936-.936V16.832h4.671V21.4a.936.936,0,0,1-.936.936" transform="translate(-212.806)" fill="#c6cccb"/>
  <path id="Trazado_18757" data-name="Trazado 18757" d="M228.712,50.244h-2.368a1.731,1.731,0,0,1-1.731-1.731v-6.6a1.731,1.731,0,0,1,1.731-1.731h27.122a1.731,1.731,0,0,1,1.731,1.731v6.6a1.731,1.731,0,0,1-1.731,1.731H234.08" transform="translate(-212.806)" fill="#eef9ed"/>
  <path id="Trazado_18758" data-name="Trazado 18758" d="M241.233,43.787h-2.656a1.007,1.007,0,0,1-1.007-1.007v-2.6h4.67v2.6a1.007,1.007,0,0,1-1.007,1.007" transform="translate(-212.806)" fill="#c6cccb"/>
  <path id="Trazado_18759" data-name="Trazado 18759" d="M263.281,11.756h-3.842a2.071,2.071,0,0,0-1.347.5l-5.357,4.579H258.3l5.208-4.451a.355.355,0,0,0-.231-.625" transform="translate(-212.806)" fill="#eef9ed"/>
  <path id="Trazado_18760" data-name="Trazado 18760" d="M226.14,11.756h-3.811a.355.355,0,0,0-.212.64l5.955,4.436h5.569l-6.262-4.665a2.073,2.073,0,0,0-1.239-.411" transform="translate(-212.806)" fill="#c6cccb"/>
  <path id="Trazado_18761" data-name="Trazado 18761" d="M249.991,40.183h-19.3a2.745,2.745,0,0,1-2.745-2.744V16.832h24.792V37.439A2.744,2.744,0,0,1,249.991,40.183Z" transform="translate(-212.806)" fill="none" stroke="#002744" stroke-linecap="round" stroke-miterlimit="10" stroke-width="0.75"/>
  <path id="Trazado_18762" data-name="Trazado 18762" d="M235.846,16.832h22.447V37.838a2.345,2.345,0,0,1-2.345,2.345h-20.1" transform="translate(-212.806)" fill="none" stroke="#002744" stroke-linecap="round" stroke-miterlimit="10" stroke-width="0.75"/>
  <path id="Trazado_18763" data-name="Trazado 18763" d="M241.748,22.34h-2.8a.936.936,0,0,1-.936-.936V16.832h4.671V21.4A.936.936,0,0,1,241.748,22.34Z" transform="translate(-212.806)" fill="none" stroke="#002744" stroke-linecap="round" stroke-miterlimit="10" stroke-width="0.75"/>
  <line id="Línea_6327" data-name="Línea 6327" y2="2.843" transform="translate(30.842 33.838)" fill="none" stroke="#002744" stroke-linecap="round" stroke-miterlimit="10" stroke-width="0.75"/>
  <line id="Línea_6328" data-name="Línea 6328" y2="2.843" transform="translate(31.984 33.838)" fill="none" stroke="#002744" stroke-linecap="round" stroke-miterlimit="10" stroke-width="0.75"/>
  <line id="Línea_6329" data-name="Línea 6329" y2="2.843" transform="translate(33.127 33.838)" fill="none" stroke="#002744" stroke-linecap="round" stroke-miterlimit="10" stroke-width="0.75"/>
  <line id="Línea_6330" data-name="Línea 6330" y2="2.843" transform="translate(34.269 33.838)" fill="none" stroke="#002744" stroke-linecap="round" stroke-miterlimit="10" stroke-width="0.75"/>
  <line id="Línea_6331" data-name="Línea 6331" y2="2.843" transform="translate(35.411 33.838)" fill="none" stroke="#002744" stroke-linecap="round" stroke-miterlimit="10" stroke-width="0.75"/>
  <line id="Línea_6332" data-name="Línea 6332" x1="0.914" transform="translate(17.428 50.244)" fill="none" stroke="#002744" stroke-linecap="round" stroke-miterlimit="10" stroke-width="0.75"/>
  <path id="Trazado_18764" data-name="Trazado 18764" d="M228.712,50.244h-2.368a1.731,1.731,0,0,1-1.731-1.731v-6.6a1.731,1.731,0,0,1,1.731-1.731h27.122a1.731,1.731,0,0,1,1.731,1.731v6.6a1.731,1.731,0,0,1-1.731,1.731H234.08" transform="translate(-212.806)" fill="none" stroke="#002744" stroke-linecap="round" stroke-miterlimit="10" stroke-width="0.75"/>
  <path id="Trazado_18765" data-name="Trazado 18765" d="M232.516,40.183h26.508a1.731,1.731,0,0,1,1.731,1.731v6.6a1.731,1.731,0,0,1-1.731,1.731H246.377" transform="translate(-212.806)" fill="none" stroke="#002744" stroke-linecap="round" stroke-miterlimit="10" stroke-width="0.75"/>
  <path id="Trazado_18766" data-name="Trazado 18766" d="M241.233,43.787h-2.656a1.007,1.007,0,0,1-1.007-1.007v-2.6h4.67v2.6A1.007,1.007,0,0,1,241.233,43.787Z" transform="translate(-212.806)" fill="none" stroke="#002744" stroke-linecap="round" stroke-miterlimit="10" stroke-width="0.75"/>
  <path id="Trazado_18767" data-name="Trazado 18767" d="M263.281,11.756h-3.842a2.071,2.071,0,0,0-1.347.5l-5.357,4.579H258.3l5.208-4.451A.355.355,0,0,0,263.281,11.756Z" transform="translate(-212.806)" fill="none" stroke="#002744" stroke-linecap="round" stroke-miterlimit="10" stroke-width="0.75"/>
  <path id="Trazado_18768" data-name="Trazado 18768" d="M226.14,11.756h-3.811a.355.355,0,0,0-.212.64l5.955,4.436h5.569l-6.262-4.665A2.073,2.073,0,0,0,226.14,11.756Z" transform="translate(-212.806)" fill="none" stroke="#002744" stroke-linecap="round" stroke-linejoin="round" stroke-width="0.75"/>
</svg>
