<svg id="Illustration_beginRegister" xmlns="http://www.w3.org/2000/svg" xmlns:xlink="http://www.w3.org/1999/xlink" width="450" height="269.788" viewBox="0 0 450 269.788">
  <defs>
    <clipPath id="clip-path">
      <rect id="Rectángulo_2076" data-name="Rectángulo 2076" width="450" height="269.788" fill="none"/>
    </clipPath>
    <clipPath id="clip-path-3">
      <rect id="Rectángulo_2069" data-name="Rectángulo 2069" width="450" height="181.167" fill="none"/>
    </clipPath>
  </defs>
  <g id="Grupo_1203" data-name="Grupo 1203" clip-path="url(#clip-path)">
    <g id="Grupo_1202" data-name="Grupo 1202">
      <g id="Grupo_1201" data-name="Grupo 1201" clip-path="url(#clip-path)">
        <g id="Grupo_1200" data-name="Grupo 1200" transform="translate(0 79.171)" opacity="0.2">
          <g id="Grupo_1199" data-name="Grupo 1199">
            <g id="Grupo_1198" data-name="Grupo 1198" clip-path="url(#clip-path-3)">
              <path id="Trazado_9755" data-name="Trazado 9755" d="M194.747,103.759H17.209a17.2,17.2,0,0,1,0-34.407H194.747a17.2,17.2,0,0,1,0,34.407" transform="translate(0.001 -69.352)" fill="#99d6ff"/>
              <path id="Trazado_9756" data-name="Trazado 9756" d="M330.906,103.759H304.033a17.2,17.2,0,0,1,0-34.407h26.874a17.2,17.2,0,1,1,0,34.407" transform="translate(40.609 -69.352)" fill="#99d6ff"/>
              <path id="Trazado_9757" data-name="Trazado 9757" d="M367.65,103.759h0a17.2,17.2,0,1,1,17.2-17.2,17.2,17.2,0,0,1-17.2,17.2" transform="translate(49.615 -69.352)" fill="#99d6ff"/>
              <path id="Trazado_9758" data-name="Trazado 9758" d="M22.918,231.013h0A11.943,11.943,0,1,1,34.861,219.07a11.943,11.943,0,0,1-11.943,11.943" transform="translate(1.554 -49.846)" fill="#99d6ff"/>
              <path id="Trazado_9759" data-name="Trazado 9759" d="M365.532,219.264h0a11.943,11.943,0,1,1,11.943-11.943,11.943,11.943,0,0,1-11.943,11.943" transform="translate(50.061 -51.509)" fill="#99d6ff"/>
              <path id="Trazado_9760" data-name="Trazado 9760" d="M381.255,164.039h0a17.2,17.2,0,1,1,17.2-17.2,17.2,17.2,0,0,1-17.2,17.2" transform="translate(51.542 -60.818)" fill="#99d6ff"/>
              <path id="Trazado_9761" data-name="Trazado 9761" d="M303.1,116.715a17.216,17.216,0,0,1-17.2,17.19H134.55a17.206,17.206,0,0,0,0-34.413H285.373c9.476,0,17.744,7.747,17.731,17.223" transform="translate(19.049 -65.085)" fill="#99d6ff"/>
              <path id="Trazado_9762" data-name="Trazado 9762" d="M342.661,164.039H113.745a17.2,17.2,0,0,1,0-34.407H342.661a17.2,17.2,0,1,1,0,34.407" transform="translate(13.668 -60.818)" fill="#99d6ff"/>
              <path id="Trazado_9763" data-name="Trazado 9763" d="M193.977,194.181H17.746C8.264,194.181-.018,186.43,0,176.948a17.216,17.216,0,0,1,17.214-17.18H193.977a17.206,17.206,0,0,0,0,34.413" transform="translate(0 -56.551)" fill="#99d6ff"/>
              <path id="Trazado_9764" data-name="Trazado 9764" d="M313.407,224.318H129.19a13.864,13.864,0,0,1-13.864-13.864v-6.678a13.864,13.864,0,0,1,13.864-13.864H313.407a13.864,13.864,0,0,1,13.864,13.864v6.678a13.864,13.864,0,0,1-13.864,13.864" transform="translate(16.328 -52.283)" fill="#99d6ff"/>
              <path id="Trazado_9765" data-name="Trazado 9765" d="M170.633,69.352c36.961.023,22.736,34.347,56.591,34.407a.038.038,0,0,1,.027.063c-21.6,21.545-43.37,13.676-43.584,13.6l-.008-.007-13.054-13.643a.032.032,0,0,1-.011-.025V69.389a.037.037,0,0,1,.039-.037" transform="translate(24.152 -69.352)" fill="#99d6ff"/>
              <path id="Trazado_9766" data-name="Trazado 9766" d="M138.735,226.194c-36.962-.023-22.736-34.347-56.593-34.407a.037.037,0,0,1-.026-.063c21.6-21.545,43.369-13.676,43.583-13.6l.008.007,13.055,13.643a.035.035,0,0,1,.01.025v34.356a.037.037,0,0,1-.038.036" transform="translate(11.624 -54.159)" fill="#99d6ff"/>
            </g>
          </g>
        </g>
        <path id="Trazado_9767" data-name="Trazado 9767" d="M149.034,91.573A66.646,66.646,0,1,1,80.47,26.9a66.646,66.646,0,0,1,68.564,64.67" transform="translate(2.233 3.805)" fill="#eef9ed"/>
        <path id="Trazado_9768" data-name="Trazado 9768" d="M353.944,63.649A65.563,65.563,0,1,1,286.494.03a65.562,65.562,0,0,1,67.45,63.619" transform="translate(31.55 0)" fill="#eef9ed"/>
        <path id="Trazado_9769" data-name="Trazado 9769" d="M135.569,126.7H35.158a8.953,8.953,0,0,0-8.953,8.952v8.871a1.513,1.513,0,0,0,1.514,1.513H142.7a1.817,1.817,0,0,0,1.817-1.817v-8.566a8.952,8.952,0,0,0-8.952-8.952" transform="translate(3.71 17.938)" fill="#c6cccb"/>
        <path id="Trazado_9770" data-name="Trazado 9770" d="M85.911,183.091H73.258A15.554,15.554,0,0,1,57.7,167.537V152.476h43.762v15.061a15.554,15.554,0,0,1-15.554,15.554" transform="translate(8.17 21.587)" fill="#c6cccb"/>
        <path id="Trazado_9771" data-name="Trazado 9771" d="M338.256,237.12H48.605c-2.49,0-3.548-2.5-1.558-3.685a20.117,20.117,0,0,1,10.213-2.7H346.909c2.49,0,3.549,2.5,1.558,3.685a20.124,20.124,0,0,1-10.211,2.7" transform="translate(6.514 32.668)" fill="#c6cccb"/>
        <path id="Trazado_9772" data-name="Trazado 9772" d="M210.881,194.426H158.36a2.162,2.162,0,0,1-2.162-2.162V178.5a2.162,2.162,0,0,1,2.162-2.162h52.521a2.162,2.162,0,0,1,2.162,2.162v13.762a2.162,2.162,0,0,1-2.162,2.162" transform="translate(22.114 24.966)" fill="#c6cccb"/>
        <path id="Trazado_9773" data-name="Trazado 9773" d="M210.881,177.269H158.36a2.162,2.162,0,0,1-2.162-2.162v-3.222a2.161,2.161,0,0,1,2.162-2.162h52.521a2.161,2.161,0,0,1,2.162,2.162v3.222a2.162,2.162,0,0,1-2.162,2.162" transform="translate(22.114 24.029)" fill="#c6cccb"/>
        <path id="Trazado_9774" data-name="Trazado 9774" d="M309.479,219.432v19.11H295.266v-19.11l-7.843-6.907-5.263-7.352-6-10.822-4.007-2.169h14.213l4.007,2.169,6,10.822,5.274,7.352Z" transform="translate(38.53 27.209)" fill="#c6cccb"/>
        <path id="Trazado_9775" data-name="Trazado 9775" d="M325.507,219.432v19.11H308.863l-3.254-7.215-3.973-2.569H82.191l-3.973,2.569-3.254,7.215H58.549v-19.11l6.9-6.907,5.217-7.352,5.32-10.263,4.361-2.523h1.849v-.205h220.2l4.007,2.169,6,10.822,5.263,7.352Z" transform="translate(8.289 27.209)" fill="#f7f9f7"/>
        <path id="Trazado_9776" data-name="Trazado 9776" d="M231.9,203.214H132.309a3.328,3.328,0,0,1,0-6.655H231.9a3.328,3.328,0,0,1,0,6.655" transform="translate(18.261 27.829)" fill="#c6cccb"/>
        <path id="Trazado_9777" data-name="Trazado 9777" d="M205.2,194.426H152.68a2.162,2.162,0,0,1-2.162-2.162V178.5a2.162,2.162,0,0,1,2.162-2.162H205.2a2.162,2.162,0,0,1,2.162,2.162v13.762a2.162,2.162,0,0,1-2.162,2.162" transform="translate(21.31 24.966)" fill="#f7f9f7"/>
        <path id="Trazado_9778" data-name="Trazado 9778" d="M204.96,177.269H152.439a2.162,2.162,0,0,1-2.162-2.162v-3.222a2.161,2.161,0,0,1,2.162-2.162H204.96a2.161,2.161,0,0,1,2.162,2.162v3.222a2.162,2.162,0,0,1-2.162,2.162" transform="translate(21.276 24.029)" fill="#f7f9f7"/>
        <path id="Trazado_9779" data-name="Trazado 9779" d="M163.757,184.763a4.021,4.021,0,1,1-4.021-4.021,4.021,4.021,0,0,1,4.021,4.021" transform="translate(22.046 25.589)" fill="#c6cccb"/>
        <path id="Trazado_9780" data-name="Trazado 9780" d="M164.76,186.195a4.522,4.522,0,1,1-4.522-4.522,4.521,4.521,0,0,1,4.522,4.522" transform="translate(22.046 25.721)" fill="#c6cccb"/>
        <path id="Trazado_9781" data-name="Trazado 9781" d="M179.935,184.763a4.021,4.021,0,1,1-4.021-4.021,4.021,4.021,0,0,1,4.021,4.021" transform="translate(24.337 25.589)" fill="#c6cccb"/>
        <path id="Trazado_9782" data-name="Trazado 9782" d="M180.938,186.195a4.522,4.522,0,1,1-4.522-4.522,4.521,4.521,0,0,1,4.522,4.522" transform="translate(24.337 25.721)" fill="#c6cccb"/>
        <path id="Trazado_9783" data-name="Trazado 9783" d="M196.112,184.763a4.021,4.021,0,1,1-4.021-4.021,4.021,4.021,0,0,1,4.021,4.021" transform="translate(26.627 25.589)" fill="#c6cccb"/>
        <path id="Trazado_9784" data-name="Trazado 9784" d="M197.115,186.195a4.522,4.522,0,1,1-4.522-4.522,4.521,4.521,0,0,1,4.522,4.522" transform="translate(26.627 25.721)" fill="#c6cccb"/>
        <path id="Trazado_9785" data-name="Trazado 9785" d="M356.9,231.212h-40.6c-1.1,0-1.589-.853-1.082-1.9a3.58,3.58,0,0,1,2.919-1.9h40.6c1.1,0,1.589.853,1.082,1.9a3.582,3.582,0,0,1-2.919,1.9" transform="translate(44.599 32.196)" fill="#c6cccb"/>
        <path id="Trazado_9786" data-name="Trazado 9786" d="M206.064,175.558H161.637V140.932a12.43,12.43,0,0,1,12.43-12.43h19.568a12.43,12.43,0,0,1,12.429,12.43Z" transform="translate(22.884 18.193)" fill="#c6cccb"/>
        <path id="Trazado_9787" data-name="Trazado 9787" d="M200.625,175.558H156.2V140.932a12.43,12.43,0,0,1,12.43-12.43H188.2a12.43,12.43,0,0,1,12.43,12.43Z" transform="translate(22.114 18.193)" fill="#f7f9f7"/>
        <path id="Trazado_9788" data-name="Trazado 9788" d="M165.3,159.319h23.276a1.624,1.624,0,0,0,1.624-1.624v-7.477a12.429,12.429,0,0,0-12.428-12.43h-1.667a12.429,12.429,0,0,0-12.43,12.43v7.477a1.624,1.624,0,0,0,1.624,1.624" transform="translate(23.173 19.508)" fill="#fff"/>
        <path id="Trazado_9789" data-name="Trazado 9789" d="M188.309,162.618H165.573a1.9,1.9,0,1,1,0-3.79h22.736a1.9,1.9,0,1,1,0,3.79" transform="translate(23.173 22.487)" fill="#c6cccb"/>
        <path id="Trazado_9790" data-name="Trazado 9790" d="M201.134,171.1h-3.682V160.488l1.212,1.3h2.469Z" transform="translate(27.955 22.722)" fill="#9ca09f"/>
        <path id="Trazado_9791" data-name="Trazado 9791" d="M266.057,136.517l-66.893,11.337a1.741,1.741,0,0,0-1.45,1.716v14.18a1.774,1.774,0,0,0,2.353,1.677l65.99-22.755Z" transform="translate(27.992 19.328)" fill="#f7f9f7"/>
        <path id="Trazado_9792" data-name="Trazado 9792" d="M174.5,154.774h0a2.144,2.144,0,0,0,2.973-1.071l4.071-9.726a1.23,1.23,0,0,0-2.17-1.137l-5.684,8.88a2.143,2.143,0,0,0,.811,3.054" transform="translate(24.543 20.143)" fill="#cee6ad"/>
        <path id="Trazado_9793" data-name="Trazado 9793" d="M94.639,168.383l69.915-2.981V147.466l-70.064,15a1.229,1.229,0,0,0-.974,1.2v3.634a1.076,1.076,0,0,0,1.123,1.075" transform="translate(13.24 20.878)" fill="#f7f9f7"/>
        <path id="Trazado_9794" data-name="Trazado 9794" d="M80.277,183.091H67.624a15.554,15.554,0,0,1-15.555-15.554V152.476H95.831v15.061a15.554,15.554,0,0,1-15.554,15.554" transform="translate(7.372 21.587)" fill="#f7f9f7"/>
        <path id="Trazado_9795" data-name="Trazado 9795" d="M77.689,166.637a5.815,5.815,0,1,1-5.815-5.815,5.816,5.816,0,0,1,5.815,5.815" transform="translate(9.353 22.769)" fill="#c6cccb"/>
        <path id="Trazado_9796" data-name="Trazado 9796" d="M79.357,168.124a6.49,6.49,0,1,1-6.491-6.491,6.491,6.491,0,0,1,6.491,6.491" transform="translate(9.397 22.884)" fill="#c6cccb"/>
        <path id="Trazado_9797" data-name="Trazado 9797" d="M93.1,164.578v11.078s3.353-2.813,3.353-9.831c-.445.027-3,.623-3.353-1.247" transform="translate(13.181 23.301)" fill="#9ca09f"/>
        <path id="Trazado_9798" data-name="Trazado 9798" d="M154.061,147.942l-2.094,17.644,4.312-.184V147.467Z" transform="translate(21.515 20.878)" fill="#c6cccb"/>
        <path id="Trazado_9799" data-name="Trazado 9799" d="M74.3,194.008h-2.92a1.882,1.882,0,0,1-1.881-1.881V179.295H76.18v12.831a1.882,1.882,0,0,1-1.881,1.881" transform="translate(9.839 25.384)" fill="#c6cccb"/>
        <path id="Trazado_9800" data-name="Trazado 9800" d="M76.049,183.312l-6.212.444v-4.461h6.212Z" transform="translate(9.887 25.384)" fill="#9ca09f"/>
        <path id="Trazado_9801" data-name="Trazado 9801" d="M127.622,126.7H27.211a8.953,8.953,0,0,0-8.953,8.952v8.871a1.513,1.513,0,0,0,1.514,1.513H134.757a1.817,1.817,0,0,0,1.817-1.817v-8.566a8.952,8.952,0,0,0-8.952-8.952" transform="translate(2.585 17.938)" fill="#f7f9f7"/>
        <path id="Trazado_9802" data-name="Trazado 9802" d="M125.336,153.727h-86.7l-9.187-3.09-10.329-7H144.535l-11.036,7.6Z" transform="translate(2.707 20.336)" fill="#c6cccb"/>
        <path id="Trazado_9803" data-name="Trazado 9803" d="M123.622,143.769l8.993-.13-11.036,7.6-9.26,2.484h-9.01l9.01-2.566Z" transform="translate(14.626 20.336)" fill="#9ca09f"/>
        <path id="Trazado_9804" data-name="Trazado 9804" d="M128.924,114.322H32.58a5.839,5.839,0,0,0-5.839,5.839v8.292H134.763v-8.292a5.839,5.839,0,0,0-5.839-5.839" transform="translate(3.786 16.186)" fill="#f7f9f7"/>
        <path id="Trazado_9805" data-name="Trazado 9805" d="M341.258,102.117H240.847a8.953,8.953,0,0,0-8.953,8.952v8.871a1.514,1.514,0,0,0,1.514,1.513h93.58a4.257,4.257,0,0,1,1.683-1.05,4.3,4.3,0,0,1,2.2-.492h.078a5.676,5.676,0,0,1,2.88.78l.987.763h13.578a1.817,1.817,0,0,0,1.817-1.817v-8.566a8.952,8.952,0,0,0-8.952-8.952" transform="translate(32.831 14.458)" fill="#c6cccb"/>
        <path id="Trazado_9806" data-name="Trazado 9806" d="M304.407,150.484a4.277,4.277,0,0,1,1.18-1.837,4.348,4.348,0,0,1,.694-.584c.049-.143.107-.281.153-.426-7.131-.017-7.316-10.773-.59-11.385-2.691-1.76-3.146-5.819-1.366-8.36H263.392v15.061a15.555,15.555,0,0,0,15.555,15.555H291.6a15.514,15.514,0,0,0,12.321-6.082,4.271,4.271,0,0,1,.485-1.942" transform="translate(37.291 18.107)" fill="#c6cccb"/>
        <path id="Trazado_9807" data-name="Trazado 9807" d="M285.966,158.508H273.313a15.554,15.554,0,0,1-15.555-15.554V127.893H301.52v15.061a15.554,15.554,0,0,1-15.554,15.554" transform="translate(36.493 18.107)" fill="#f7f9f7"/>
        <path id="Trazado_9808" data-name="Trazado 9808" d="M283.378,142.053a5.815,5.815,0,1,1-5.815-5.815,5.816,5.816,0,0,1,5.815,5.815" transform="translate(38.474 19.288)" fill="#c6cccb"/>
        <path id="Trazado_9809" data-name="Trazado 9809" d="M285.046,143.54a6.49,6.49,0,1,1-6.491-6.491,6.491,6.491,0,0,1,6.491,6.491" transform="translate(38.519 19.403)" fill="#c6cccb"/>
        <path id="Trazado_9810" data-name="Trazado 9810" d="M299.76,147.486l.893-1.155a5.778,5.778,0,0,1,.8-.653c.058-.2.123-.382.177-.6a5.674,5.674,0,0,1-2.763-.772l-.078-.059v6.218s.082-.076.2-.191a5.67,5.67,0,0,1,.773-2.792" transform="translate(42.302 20.423)" fill="#cee6ad"/>
        <path id="Trazado_9811" data-name="Trazado 9811" d="M279.987,169.424h-2.92a1.882,1.882,0,0,1-1.881-1.881V154.711h6.683v12.831a1.882,1.882,0,0,1-1.881,1.881" transform="translate(38.96 21.904)" fill="#c6cccb"/>
        <path id="Trazado_9812" data-name="Trazado 9812" d="M281.738,158.728l-6.212.444v-4.461h6.212Z" transform="translate(39.009 21.904)" fill="#9ca09f"/>
        <path id="Trazado_9813" data-name="Trazado 9813" d="M333.311,102.117H232.9a8.953,8.953,0,0,0-8.953,8.952v8.871a1.514,1.514,0,0,0,1.514,1.513H327.885a5.662,5.662,0,0,1,8.376,0h4.185a1.817,1.817,0,0,0,1.817-1.817v-8.566a8.952,8.952,0,0,0-8.952-8.952" transform="translate(31.706 14.458)" fill="#f7f9f7"/>
        <path id="Trazado_9814" data-name="Trazado 9814" d="M224.808,119.055l10.329,7,9.187,3.09H310a5.256,5.256,0,0,1,4.081-1.728,5.61,5.61,0,0,1,2.865.727c-1.524-3.38.116-8.308,4.948-8.308a5.169,5.169,0,0,1,4.678,2.562,5.792,5.792,0,0,1,1.554-3.34Z" transform="translate(31.828 16.856)" fill="#c6cccb"/>
        <path id="Trazado_9815" data-name="Trazado 9815" d="M323.627,124.386a5.206,5.206,0,0,1,5.217-3.779,5.366,5.366,0,0,1,3.565,1.226l4.033-2.779h-14.29a6.114,6.114,0,0,1,1.475,5.331" transform="translate(45.61 16.856)" fill="#c6cccb"/>
        <path id="Trazado_9816" data-name="Trazado 9816" d="M327.316,119.185l-4.226,2.764a6.082,6.082,0,0,1,.384,1.2,4.386,4.386,0,0,1,.661-.788,6.343,6.343,0,0,1,4.035-1.671h.078a5.677,5.677,0,0,1,2.881.78l.793.613,4.387-3.023Z" transform="translate(45.743 16.856)" fill="#cee6ad"/>
        <path id="Trazado_9817" data-name="Trazado 9817" d="M335.773,89.738H239.429a5.839,5.839,0,0,0-5.839,5.839v8.292H341.612V95.577a5.839,5.839,0,0,0-5.839-5.839" transform="translate(33.071 12.705)" fill="#f7f9f7"/>
        <path id="Trazado_9818" data-name="Trazado 9818" d="M53.715,56.112a3.425,3.425,0,0,1-1.945-6.246,46.3,46.3,0,0,1,21.214-7.792,3.424,3.424,0,1,1,.74,6.808,39.422,39.422,0,0,0-18.069,6.626,3.413,3.413,0,0,1-1.94.6" transform="translate(7.12 5.954)" fill="#cee6ad"/>
        <path id="Trazado_9819" data-name="Trazado 9819" d="M115.913,82.3a3.427,3.427,0,0,1-3.259-2.377c-7.476-23.245-23.211-29.247-31.924-30.755a3.425,3.425,0,0,1,1.169-6.75C99.32,45.44,112.907,58.345,119.173,77.83a3.43,3.43,0,0,1-3.26,4.475" transform="translate(11.027 5.999)" fill="#cee6ad"/>
        <path id="Trazado_9820" data-name="Trazado 9820" d="M36.046,92.689c-.111,0-.221-.006-.334-.016a3.425,3.425,0,0,1-3.078-3.74C34.082,74,35.574,68.5,43.307,58.286a3.425,3.425,0,1,1,5.461,4.134c-6.589,8.706-7.9,12.516-9.318,27.175a3.425,3.425,0,0,1-3.4,3.094" transform="translate(4.618 8.06)" fill="#cee6ad"/>
        <path id="Trazado_9821" data-name="Trazado 9821" d="M113.693,118.695c.113-1.7.2-3.538.29-5.473.111-2.333.225-4.746.4-7.058.1-1.355.422-3.276.8-5.5a105.882,105.882,0,0,0,1.64-13.677,3.425,3.425,0,0,0-6.845-.255,100.28,100.28,0,0,1-1.55,12.8c-.4,2.393-.749,4.459-.873,6.128-.178,2.405-.295,4.864-.406,7.243-.1,2.034-.192,4.006-.317,5.8Z" transform="translate(15.124 11.813)" fill="#cee6ad"/>
        <path id="Trazado_9822" data-name="Trazado 9822" d="M44.461,121.952h6.755a3.4,3.4,0,0,0,.045-.542c-.006-.261-.452-26.15,1.852-37.339,1.61-7.823,4.586-13.778,8.844-17.7a3.425,3.425,0,1,0-4.641-5.039C51.98,66.247,48.308,73.433,46.4,82.69c-2.456,11.926-2.011,37.752-1.991,38.844a3.341,3.341,0,0,0,.049.418" transform="translate(6.281 8.555)" fill="#cee6ad"/>
        <path id="Trazado_9823" data-name="Trazado 9823" d="M104.181,92.229a3.558,3.558,0,0,1-.452-.029,3.425,3.425,0,0,1-2.948-3.844c1.486-11.283-6.605-20.768-12.541-23.625a33.014,33.014,0,0,0-16.858-3.063,3.424,3.424,0,1,1-.679-6.815A39.947,39.947,0,0,1,91.209,58.56c7.968,3.833,18.313,15.891,16.362,30.691a3.426,3.426,0,0,1-3.39,2.977" transform="translate(9.573 7.742)" fill="#cee6ad"/>
        <path id="Trazado_9824" data-name="Trazado 9824" d="M101.969,117.005a134.474,134.474,0,0,1,.116-17.979,3.425,3.425,0,1,0-6.833-.466,141.984,141.984,0,0,0-.151,18.444Z" transform="translate(13.432 13.502)" fill="#cee6ad"/>
        <path id="Trazado_9825" data-name="Trazado 9825" d="M60.681,104.206a3.308,3.308,0,0,1-.333-.016,3.425,3.425,0,0,1-3.08-3.738c.04-.406.978-10.061,2.33-17.621C60.712,76.6,64.281,71.975,69.646,69.8a17.858,17.858,0,0,1,16.968,2.155,3.425,3.425,0,1,1-4,5.563,11.092,11.092,0,0,0-10.4-1.371c-2.2.892-5,2.985-5.88,7.894-1.3,7.284-2.245,16.975-2.255,17.073a3.426,3.426,0,0,1-3.405,3.095" transform="translate(8.106 9.706)" fill="#cee6ad"/>
        <path id="Trazado_9826" data-name="Trazado 9826" d="M86.7,93.712c-.1,0-.2,0-.3-.013a3.423,3.423,0,0,1-3.118-3.707q.147-1.719.271-3.436a3.424,3.424,0,1,1,6.832.477c-.082,1.184-.177,2.364-.28,3.548a3.424,3.424,0,0,1-3.408,3.13" transform="translate(11.789 11.804)" fill="#cee6ad"/>
        <path id="Trazado_9827" data-name="Trazado 9827" d="M88.321,117.066c.046-6.561.551-12.625,1.107-18.373a3.424,3.424,0,1,0-6.816-.66c-.574,5.936-1.1,12.206-1.142,19.032Z" transform="translate(11.534 13.442)" fill="#cee6ad"/>
        <path id="Trazado_9828" data-name="Trazado 9828" d="M57.015,115.36h6.856c.054-1.574.078-3.253.046-5a3.425,3.425,0,1,0-6.848.122c.031,1.707,0,3.347-.054,4.881" transform="translate(8.072 15.148)" fill="#cee6ad"/>
        <path id="Trazado_9829" data-name="Trazado 9829" d="M72.364,114.638a3.328,3.328,0,0,1-.352-.018,3.423,3.423,0,0,1-3.059-3.754c.091-.9,2.248-22.054,2.725-26.078a3.425,3.425,0,1,1,6.8.807c-.47,3.967-2.691,25.745-2.712,25.965a3.425,3.425,0,0,1-3.4,3.078" transform="translate(9.76 11.576)" fill="#cee6ad"/>
        <path id="Trazado_9830" data-name="Trazado 9830" d="M39.312,116.707c-.223-5.123-.382-10.731-.337-15.78a3.426,3.426,0,0,0-3.394-3.454H35.55a3.424,3.424,0,0,0-3.424,3.4c-.046,5.074.111,10.69.331,15.839Z" transform="translate(4.547 13.8)" fill="#cee6ad"/>
        <path id="Trazado_9831" data-name="Trazado 9831" d="M246.126,51.091a3.427,3.427,0,0,1-3.074-4.928c7.772-15.92,20.215-26.217,35.037-29A46.653,46.653,0,0,1,317.626,28.6a3.424,3.424,0,1,1-4.648,5.03A39.686,39.686,0,0,0,279.351,23.9c-8.942,1.676-21.431,7.421-30.145,25.269a3.425,3.425,0,0,1-3.08,1.924" transform="translate(34.362 2.325)" fill="#cee6ad"/>
        <path id="Trazado_9832" data-name="Trazado 9832" d="M319.754,80.593c-.114,0-.23-.006-.345-.017a3.423,3.423,0,0,1-3.066-3.749c1.92-19.175-.087-26.793-5.014-35.709a3.425,3.425,0,1,1,6-3.313c6.287,11.377,7.7,21.026,5.832,39.7a3.424,3.424,0,0,1-3.4,3.083" transform="translate(44.017 5.102)" fill="#cee6ad"/>
        <path id="Trazado_9833" data-name="Trazado 9833" d="M238.312,94.824h6.778a3.411,3.411,0,0,0,.018-.78c-.247-2.478.17-6.812.611-11.4.228-2.37.465-4.822.63-7.228.115-1.669.066-3.764.009-6.19a100.4,100.4,0,0,1,.29-12.887,3.425,3.425,0,1,0-6.812-.725,105.96,105.96,0,0,0-.325,13.772c.053,2.256.1,4.2,0,5.559-.16,2.314-.39,4.718-.614,7.044-.494,5.145-.921,9.587-.608,12.733,0,.035.015.067.019.1" transform="translate(33.722 7.44)" fill="#cee6ad"/>
        <path id="Trazado_9834" data-name="Trazado 9834" d="M251.234,96.489h3.582a3.4,3.4,0,0,0,1.542-2.139c3.008-13.126,3.349-26.4,3.6-36.093l.014-.526a20.2,20.2,0,0,1,4.315-11.267,3.425,3.425,0,0,0-5.169-4.5,26.96,26.96,0,0,0-5.993,15.587l-.014.525c-.256,9.928-.573,22.282-3.427,34.741a3.412,3.412,0,0,0,1.551,3.669" transform="translate(35.337 5.775)" fill="#cee6ad"/>
        <path id="Trazado_9835" data-name="Trazado 9835" d="M273.065,37.68c6.667-2.114,17.206-2.08,24.587,2.991,6.378,4.381,9.932,11.928,10.564,22.433.565,9.411-2.152,28.476-3.139,34.979h6.929c1.126-7.5,3.63-25.69,3.047-35.39-.765-12.721-5.315-22.03-13.523-27.667C290.874,27.7,277.322,29.144,271,31.151a3.424,3.424,0,1,0,2.07,6.529" transform="translate(38.029 4.181)" fill="#cee6ad"/>
        <path id="Trazado_9836" data-name="Trazado 9836" d="M270.014,96.142a214.663,214.663,0,0,0,2.03-24.071c.16-3.569.312-6.939.56-10.356.6-8.174,6.268-11.679,11.568-11.625,4.352.084,9.522,2.764,9.77,10.036.251,7.393-.2,17.121-.2,17.218a3.425,3.425,0,1,0,6.841.321c.019-.409.467-10.1.206-17.772-.381-11.229-8.812-16.5-16.482-16.651-8.539-.135-17.655,5.954-18.531,17.975-.257,3.513-.417,7.089-.571,10.548a203.4,203.4,0,0,1-2.138,24.377Z" transform="translate(37.244 6.122)" fill="#cee6ad"/>
        <path id="Trazado_9837" data-name="Trazado 9837" d="M294.665,90.462c.127-1.016.273-2.063.446-3.134a3.424,3.424,0,1,0-6.759-1.1c-.239,1.462-.429,2.88-.587,4.233Z" transform="translate(40.741 11.801)" fill="#cee6ad"/>
        <path id="Trazado_9838" data-name="Trazado 9838" d="M280.26,89.347q-.072,0-.144,0a3.425,3.425,0,0,1-3.281-3.563c.01-.22.917-22.093,1.016-26.087a3.425,3.425,0,0,1,6.847.172c-.1,4.049-.982,25.3-1.018,26.2a3.426,3.426,0,0,1-3.42,3.283" transform="translate(39.194 7.979)" fill="#cee6ad"/>
        <path id="Trazado_9839" data-name="Trazado 9839" d="M319.321,91.043c.85-4.718,1.255-7.7,1.283-7.909a3.425,3.425,0,0,0-6.789-.911c-.007.056-.474,3.48-1.461,8.82Z" transform="translate(44.223 11.221)" fill="#cee6ad"/>
        <path id="Trazado_9840" data-name="Trazado 9840" d="M310.848,115.471H299.993a1.5,1.5,0,0,1-1.506-1.5,6.707,6.707,0,0,1,6.707-6.707h6.445" transform="translate(42.259 15.186)" fill="#c6cccb"/>
        <path id="Trazado_9841" data-name="Trazado 9841" d="M310.259,185.495l0,27.554c0,3.727,2.387,6.747,6.114,6.747l49.973-5.679s-.2-.111-.2-1.067l.03-99.041a6.75,6.75,0,0,0-6.752-6.748H303.533a6.747,6.747,0,0,1,6.753,6.748v6.152Z" transform="translate(42.974 15.186)" fill="#f7f9f7"/>
        <path id="Trazado_9842" data-name="Trazado 9842" d="M374.49,201.347a1.177,1.177,0,0,1,1.135,1.5,5.121,5.121,0,0,1-4.9,3.625H315.14a5.13,5.13,0,0,0,5.037-4.187,1.166,1.166,0,0,1,1.151-.942Z" transform="translate(44.617 28.506)" fill="#fff"/>
        <path id="Trazado_9843" data-name="Trazado 9843" d="M302,133.982a19.815,19.815,0,1,1,10.517,25.974A19.815,19.815,0,0,1,302,133.982" transform="translate(42.534 17.257)" fill="#fff"/>
        <path id="Trazado_9844" data-name="Trazado 9844" d="M306.853,157.365a4.443,4.443,0,0,1,.055-3.9" transform="translate(43.384 21.728)" fill="#eef9ed"/>
        <path id="Trazado_9845" data-name="Trazado 9845" d="M307.185,153.976a5.169,5.169,0,0,1-5.936-8.465" transform="translate(42.339 20.601)" fill="#eef9ed"/>
        <path id="Trazado_9846" data-name="Trazado 9846" d="M301.369,145.975a5.169,5.169,0,0,1-.549-10.323" transform="translate(41.897 19.205)" fill="#eef9ed"/>
        <path id="Trazado_9847" data-name="Trazado 9847" d="M300.738,136.012a5.169,5.169,0,1,1,5.006-9.046" transform="translate(42.2 17.884)" fill="#eef9ed"/>
        <path id="Trazado_9848" data-name="Trazado 9848" d="M305.483,127.227a5.169,5.169,0,1,1,9.038-5.018" transform="translate(43.158 16.925)" fill="#eef9ed"/>
        <path id="Trazado_9849" data-name="Trazado 9849" d="M314.161,122.292a5.169,5.169,0,0,1,10.324.533" transform="translate(44.478 16.62)" fill="#eef9ed"/>
        <path id="Trazado_9850" data-name="Trazado 9850" d="M324.022,122.7a5.169,5.169,0,1,1,8.473,5.924" transform="translate(45.875 17.06)" fill="#eef9ed"/>
        <path id="Trazado_9851" data-name="Trazado 9851" d="M331.988,128.342a5.169,5.169,0,0,1,4.047,9.514" transform="translate(47.002 18.112)" fill="#eef9ed"/>
        <path id="Trazado_9852" data-name="Trazado 9852" d="M335.838,137.482a5.169,5.169,0,1,1-1.61,10.213" transform="translate(47.32 19.465)" fill="#eef9ed"/>
        <path id="Trazado_9853" data-name="Trazado 9853" d="M334.7,147.21a5.169,5.169,0,0,1-6.776,7.807" transform="translate(46.428 20.842)" fill="#eef9ed"/>
        <path id="Trazado_9854" data-name="Trazado 9854" d="M306.024,135.325a14.764,14.764,0,1,1,7.836,19.353,14.764,14.764,0,0,1-7.836-19.353" transform="translate(43.16 17.884)" fill="#cee6ad"/>
        <path id="Trazado_9855" data-name="Trazado 9855" d="M315.8,146.663a.648.648,0,0,1-.458-.19l-5.369-5.369a.648.648,0,0,1,.917-.917l4.91,4.91,11.31-11.31a.648.648,0,0,1,.917.917l-11.769,11.769A.648.648,0,0,1,315.8,146.663Z" transform="translate(43.781 18.837)" fill="#7f8182"/>
        <path id="Trazado_9856" data-name="Trazado 9856" d="M322.393,157.06l-9.765,29.113-5.017-6.617-7.993,2.252,9.506-28.339,3.644,2.217,6.072,1.373Z" transform="translate(42.419 21.728)" fill="#cee6ad"/>
        <path id="Trazado_9857" data-name="Trazado 9857" d="M317.533,163.947l7.262,21.649,5.017-6.617,7.993,2.252-9.219-27.485-8.832,3.785Z" transform="translate(44.956 21.767)" fill="#cee6ad"/>
        <path id="Línea_2067" data-name="Línea 2067" d="M7.677.8H.148a.648.648,0,0,1,0-1.3H7.677a.648.648,0,0,1,0,1.3Z" transform="translate(359.833 200.532)" fill="#7f8182"/>
        <rect id="Rectángulo_2070" data-name="Rectángulo 2070" width="14.213" height="17.357" transform="translate(333.796 248.395)" fill="#9ca09f"/>
        <path id="Trazado_9858" data-name="Trazado 9858" d="M87.279,183.889H67.35a15.781,15.781,0,0,1-15.781-15.781V151.976H103.06v9.388h-1.3v-8.092h-48.9v14.835A14.5,14.5,0,0,0,67.35,182.592H87.279a14.5,14.5,0,0,0,14.484-14.484h1.3a15.781,15.781,0,0,1-15.781,15.781Z" transform="translate(7.223 21.439)" fill="#7f8182"/>
        <path id="Trazado_9859" data-name="Trazado 9859" d="M77.73,183.739H73.036v-1.3H77.73a14.5,14.5,0,0,0,14.484-14.483V152.476h1.3v15.483a15.78,15.78,0,0,1-15.781,15.78Z" transform="translate(10.34 21.587)" fill="#7f8182"/>
        <path id="Trazado_9860" data-name="Trazado 9860" d="M121.926,156.922H42.277a28.818,28.818,0,0,1-16.039-5.035l-6.16-4.127a5.753,5.753,0,0,1-2.32-4.8v-5.7A12.49,12.49,0,0,1,20.32,129.5a8.1,8.1,0,0,1,6.353-3.3H137.529a8.1,8.1,0,0,1,6.353,3.3,12.491,12.491,0,0,1,2.562,7.766v5.7a5.753,5.753,0,0,1-2.318,4.8l-6.16,4.127A28.823,28.823,0,0,1,121.926,156.922ZM26.673,127.5c-4.2,0-7.618,4.38-7.618,9.764v5.7a4.451,4.451,0,0,0,1.745,3.721l6.16,4.127a27.526,27.526,0,0,0,15.318,4.815h79.649a27.532,27.532,0,0,0,15.318-4.815l6.16-4.127a4.451,4.451,0,0,0,1.743-3.721v-5.7c0-5.384-3.417-9.764-7.618-9.764Z" transform="translate(2.437 17.79)" fill="#7f8182"/>
        <path id="Línea_2068" data-name="Línea 2068" d="M83.988.8H.148a.648.648,0,0,1,0-1.3h83.84a.648.648,0,0,1,0,1.3Z" transform="translate(63.253 163.827)" fill="#7f8182"/>
        <path id="Línea_2069" data-name="Línea 2069" d="M2.929.8H.148a.648.648,0,0,1,0-1.3H2.929a.648.648,0,0,1,0,1.3Z" transform="translate(53.799 163.827)" fill="#7f8182"/>
        <path id="Línea_2070" data-name="Línea 2070" d="M10.437.8H.148a.648.648,0,1,1,0-1.3H10.437a.648.648,0,1,1,0,1.3Z" transform="translate(34.611 163.827)" fill="#7f8182"/>
        <path id="Trazado_9861" data-name="Trazado 9861" d="M103.893,156.922h-6.57v-1.3h6.57a27.532,27.532,0,0,0,15.318-4.815l6.16-4.127a4.451,4.451,0,0,0,1.743-3.721v-5.7c0-5.384-3.417-9.764-7.618-9.764H81.72v-1.3H119.5a8.1,8.1,0,0,1,6.353,3.3,12.491,12.491,0,0,1,2.562,7.766v5.7a5.753,5.753,0,0,1-2.318,4.8l-6.16,4.127A28.823,28.823,0,0,1,103.893,156.922Z" transform="translate(11.57 17.79)" fill="#7f8182"/>
        <path id="Trazado_9862" data-name="Trazado 9862" d="M72.022,160.291a6.464,6.464,0,1,1-6.462,6.464A6.471,6.471,0,0,1,72.022,160.291Zm0,11.63a5.167,5.167,0,1,0-5.166-5.167A5.173,5.173,0,0,0,72.022,171.921Z" transform="translate(9.204 22.616)" fill="#7f8182"/>
        <path id="Trazado_9863" data-name="Trazado 9863" d="M95,169.263a1.988,1.988,0,0,1-1.986-1.987v-3.333A2,2,0,0,1,94.587,162l70.765-15.152V166.1l-70.26,3.161Zm69.054-20.811-69.2,14.816a.693.693,0,0,0-.546.674v3.333a.69.69,0,0,0,.721.689l69.022-3.106Z" transform="translate(13.091 20.695)" fill="#7f8182"/>
        <path id="Trazado_9864" data-name="Trazado 9864" d="M74.292,195.014H71.86a2.658,2.658,0,0,1-2.655-2.655V178.794h7.742v13.564A2.658,2.658,0,0,1,74.292,195.014ZM70.5,180.091v12.267a1.36,1.36,0,0,0,1.358,1.358h2.432a1.36,1.36,0,0,0,1.358-1.358V180.091Z" transform="translate(9.72 25.236)" fill="#7f8182"/>
        <path id="Trazado_9865" data-name="Trazado 9865" d="M199.594,166.206a2.392,2.392,0,0,1-2.379-2.39V149.883a2.38,2.38,0,0,1,1.983-2.353L266.284,136l.22,1.278-67.086,11.529a1.087,1.087,0,0,0-.905,1.074v13.933a1.09,1.09,0,0,0,1.443,1.032l66.3-22.605.419,1.227-66.3,22.606A2.411,2.411,0,0,1,199.594,166.206Z" transform="translate(27.844 19.178)" fill="#7f8182"/>
        <path id="Trazado_9866" data-name="Trazado 9866" d="M201.49,176.448H155.216V141.3a13.316,13.316,0,0,1,13.3-13.3h19.673a13.316,13.316,0,0,1,13.3,13.3Zm-44.977-1.3h43.68V141.3a12.017,12.017,0,0,0-12-12H168.517a12.017,12.017,0,0,0-12,12Z" transform="translate(21.898 18.045)" fill="#7f8182"/>
        <path id="Rectángulo_2071" data-name="Rectángulo 2071" d="M2.872-.5h51.4a3.376,3.376,0,0,1,3.372,3.372V4.886A3.376,3.376,0,0,1,54.27,8.258H2.872A3.376,3.376,0,0,1-.5,4.886V2.872A3.376,3.376,0,0,1,2.872-.5Zm51.4,7.461a2.077,2.077,0,0,0,2.075-2.075V2.872A2.077,2.077,0,0,0,54.27.8H2.872A2.077,2.077,0,0,0,.8,2.872V4.886A2.077,2.077,0,0,0,2.872,6.961Z" transform="translate(171.68 193.696)" fill="#7f8182"/>
        <path id="Rectángulo_2072" data-name="Rectángulo 2072" d="M2.872-.5h51.4a3.376,3.376,0,0,1,3.372,3.372V15.516a3.376,3.376,0,0,1-3.372,3.372H2.872A3.376,3.376,0,0,1-.5,15.516V2.872A3.376,3.376,0,0,1,2.872-.5Zm51.4,18.091a2.077,2.077,0,0,0,2.075-2.075V2.872A2.077,2.077,0,0,0,54.27.8H2.872A2.077,2.077,0,0,0,.8,2.872V15.516a2.077,2.077,0,0,0,2.075,2.075Z" transform="translate(171.68 201.158)" fill="#7f8182"/>
        <path id="Línea_2071" data-name="Línea 2071" d="M.8,9.781H-.5V0H.8Z" transform="translate(229.075 184.064)" fill="#7f8182"/>
        <path id="Trazado_9867" data-name="Trazado 9867" d="M205.359,148.831h-1.3v-6.778A12.768,12.768,0,0,0,191.309,129.3H173.136V128h18.173a14.05,14.05,0,0,1,14.051,14.051Z" transform="translate(24.512 18.045)" fill="#7f8182"/>
        <path id="Trazado_9868" data-name="Trazado 9868" d="M210.189,178.062H158.423v-1.3h51.766a1.893,1.893,0,0,0,1.89-1.892v-2.382a1.893,1.893,0,0,0-1.89-1.89H158.423v-1.3h51.766a3.191,3.191,0,0,1,3.187,3.187v2.382A3.191,3.191,0,0,1,210.189,178.062Z" transform="translate(22.429 23.892)" fill="#7f8182"/>
        <path id="Trazado_9869" data-name="Trazado 9869" d="M210.189,195.227H158.423v-1.3h51.766a1.893,1.893,0,0,0,1.89-1.89V179.027a1.893,1.893,0,0,0-1.89-1.89H158.423v-1.3h51.766a3.191,3.191,0,0,1,3.187,3.187V192.04A3.191,3.191,0,0,1,210.189,195.227Z" transform="translate(22.429 24.818)" fill="#7f8182"/>
        <path id="Trazado_9870" data-name="Trazado 9870" d="M326.168,239.334H308.762l-2.232-4.992-.012-.039a6.662,6.662,0,0,0-6.408-4.748h-216A6.659,6.659,0,0,0,77.7,234.3l-.012.039-2.232,4.992H58.052v-17.86a5,5,0,0,1,1.426-3.507l5.1-5.241a36.894,36.894,0,0,0,7.336-10.858l2.106-4.766a9.1,9.1,0,0,1,8.314-5.415H300.671a9.093,9.093,0,0,1,8.314,5.415l1.7,3.842a36.8,36.8,0,0,0,8.705,12.194l5.168,4.785a5.043,5.043,0,0,1,1.612,3.689Zm-16.565-1.3h15.268V221.613a3.742,3.742,0,0,0-1.2-2.738l-5.168-4.785a38.087,38.087,0,0,1-9.01-12.621l-1.7-3.842a7.8,7.8,0,0,0-7.127-4.642H82.339a7.8,7.8,0,0,0-7.127,4.642l-2.106,4.766a38.187,38.187,0,0,1-7.593,11.239l-5.1,5.241a3.712,3.712,0,0,0-1.058,2.6v16.563H74.617l1.856-4.151a7.994,7.994,0,0,1,7.636-5.628h216a8,8,0,0,1,7.637,5.628Z" transform="translate(8.141 27.061)" fill="#7f8182"/>
        <path id="Trazado_9871" data-name="Trazado 9871" d="M313.109,239.334H296.123v-1.3h15.689V221.613a3.742,3.742,0,0,0-1.2-2.738l-5.169-4.785a38.106,38.106,0,0,1-9.01-12.621l-1.7-3.843a7.8,7.8,0,0,0-7.129-4.642H251.78v-1.3h35.832a9.1,9.1,0,0,1,8.315,5.415l1.7,3.843a36.816,36.816,0,0,0,8.7,12.194l5.169,4.785a5.043,5.043,0,0,1,1.611,3.689Z" transform="translate(35.647 27.061)" fill="#7f8182"/>
        <path id="Línea_2072" data-name="Línea 2072" d="M144.617.8H.148a.648.648,0,0,1,0-1.3H144.617a.648.648,0,1,1,0,1.3Z" transform="translate(72.964 248.247)" fill="#7f8182"/>
        <path id="Línea_2073" data-name="Línea 2073" d="M78.931.8H.148a.648.648,0,1,1,0-1.3H78.931a.648.648,0,0,1,0,1.3Z" transform="translate(245.962 248.247)" fill="#7f8182"/>
        <path id="Línea_2074" data-name="Línea 2074" d="M14.065.8H.148a.648.648,0,0,1,0-1.3H14.065a.648.648,0,0,1,0,1.3Z" transform="translate(333.512 248.247)" fill="#7f8182"/>
        <path id="Línea_2075" data-name="Línea 2075" d="M6.082.8H.148a.648.648,0,0,1,0-1.3H6.082a.648.648,0,1,1,0,1.3Z" transform="translate(222.591 248.247)" fill="#7f8182"/>
        <path id="Rectángulo_2073" data-name="Rectángulo 2073" d="M3.476-.5H103.3a3.976,3.976,0,1,1,0,7.952H3.476a3.976,3.976,0,1,1,0-7.952ZM103.3,6.155A2.679,2.679,0,1,0,103.3.8H3.476a2.679,2.679,0,1,0,0,5.359Z" transform="translate(146.862 224.239)" fill="#7f8182"/>
        <path id="Elipse_129" data-name="Elipse 129" d="M4.169-.5A4.669,4.669,0,1,1-.5,4.169,4.674,4.674,0,0,1,4.169-.5Zm0,8.041A3.372,3.372,0,1,0,.8,4.169,3.376,3.376,0,0,0,4.169,7.541Z" transform="translate(214.55 206.182)" fill="#7f8182"/>
        <path id="Elipse_130" data-name="Elipse 130" d="M4.169-.5A4.669,4.669,0,1,1-.5,4.169,4.674,4.674,0,0,1,4.169-.5Zm0,8.041A3.372,3.372,0,1,0,.8,4.169,3.376,3.376,0,0,0,4.169,7.541Z" transform="translate(196.082 206.182)" fill="#7f8182"/>
        <path id="Elipse_131" data-name="Elipse 131" d="M4.169-.5A4.669,4.669,0,1,1-.5,4.169,4.674,4.674,0,0,1,4.169-.5Zm0,8.041A3.372,3.372,0,1,0,.8,4.169,3.376,3.376,0,0,0,4.169,7.541Z" transform="translate(177.614 206.182)" fill="#7f8182"/>
        <path id="Línea_2076" data-name="Línea 2076" d="M.148,3.662A.648.648,0,0,1-.5,3.014V.148a.648.648,0,1,1,1.3,0V3.014A.648.648,0,0,1,.148,3.662Z" transform="translate(151.96 226.134)" fill="#7f8182"/>
        <path id="Línea_2077" data-name="Línea 2077" d="M.148,3.662A.648.648,0,0,1-.5,3.014V.148a.648.648,0,1,1,1.3,0V3.014A.648.648,0,0,1,.148,3.662Z" transform="translate(156.328 226.134)" fill="#7f8182"/>
        <path id="Línea_2078" data-name="Línea 2078" d="M.148,3.662A.648.648,0,0,1-.5,3.014V.148a.648.648,0,1,1,1.3,0V3.014A.648.648,0,0,1,.148,3.662Z" transform="translate(160.695 226.134)" fill="#7f8182"/>
        <path id="Línea_2079" data-name="Línea 2079" d="M.148,3.662A.648.648,0,0,1-.5,3.014V.148a.648.648,0,1,1,1.3,0V3.014A.648.648,0,0,1,.148,3.662Z" transform="translate(165.062 226.134)" fill="#7f8182"/>
        <path id="Línea_2080" data-name="Línea 2080" d="M.148,3.662A.648.648,0,0,1-.5,3.014V.148a.648.648,0,1,1,1.3,0V3.014A.648.648,0,0,1,.148,3.662Z" transform="translate(169.43 226.134)" fill="#7f8182"/>
        <path id="Línea_2081" data-name="Línea 2081" d="M.148,3.662A.648.648,0,0,1-.5,3.014V.148a.648.648,0,1,1,1.3,0V3.014A.648.648,0,0,1,.148,3.662Z" transform="translate(173.797 226.134)" fill="#7f8182"/>
        <path id="Línea_2082" data-name="Línea 2082" d="M.148,3.662A.648.648,0,0,1-.5,3.014V.148a.648.648,0,1,1,1.3,0V3.014A.648.648,0,0,1,.148,3.662Z" transform="translate(178.164 226.134)" fill="#7f8182"/>
        <path id="Línea_2083" data-name="Línea 2083" d="M.148,3.662A.648.648,0,0,1-.5,3.014V.148a.648.648,0,1,1,1.3,0V3.014A.648.648,0,0,1,.148,3.662Z" transform="translate(182.532 226.134)" fill="#7f8182"/>
        <path id="Línea_2084" data-name="Línea 2084" d="M.148,3.662A.648.648,0,0,1-.5,3.014V.148a.648.648,0,1,1,1.3,0V3.014A.648.648,0,0,1,.148,3.662Z" transform="translate(186.899 226.134)" fill="#7f8182"/>
        <path id="Línea_2085" data-name="Línea 2085" d="M.148,3.662A.648.648,0,0,1-.5,3.014V.148a.648.648,0,1,1,1.3,0V3.014A.648.648,0,0,1,.148,3.662Z" transform="translate(191.266 226.134)" fill="#7f8182"/>
        <path id="Línea_2086" data-name="Línea 2086" d="M.148,3.662A.648.648,0,0,1-.5,3.014V.148a.648.648,0,1,1,1.3,0V3.014A.648.648,0,0,1,.148,3.662Z" transform="translate(195.634 226.134)" fill="#7f8182"/>
        <path id="Línea_2087" data-name="Línea 2087" d="M.148,3.662A.648.648,0,0,1-.5,3.014V.148a.648.648,0,1,1,1.3,0V3.014A.648.648,0,0,1,.148,3.662Z" transform="translate(200.001 226.134)" fill="#7f8182"/>
        <path id="Línea_2088" data-name="Línea 2088" d="M.148,3.662A.648.648,0,0,1-.5,3.014V.148a.648.648,0,1,1,1.3,0V3.014A.648.648,0,0,1,.148,3.662Z" transform="translate(204.368 226.134)" fill="#7f8182"/>
        <path id="Línea_2089" data-name="Línea 2089" d="M.148,3.662A.648.648,0,0,1-.5,3.014V.148a.648.648,0,1,1,1.3,0V3.014A.648.648,0,0,1,.148,3.662Z" transform="translate(208.736 226.134)" fill="#7f8182"/>
        <path id="Línea_2090" data-name="Línea 2090" d="M.148,3.662A.648.648,0,0,1-.5,3.014V.148a.648.648,0,1,1,1.3,0V3.014A.648.648,0,0,1,.148,3.662Z" transform="translate(213.103 226.134)" fill="#7f8182"/>
        <path id="Línea_2091" data-name="Línea 2091" d="M.148,3.662A.648.648,0,0,1-.5,3.014V.148a.648.648,0,1,1,1.3,0V3.014A.648.648,0,0,1,.148,3.662Z" transform="translate(217.47 226.134)" fill="#7f8182"/>
        <path id="Línea_2092" data-name="Línea 2092" d="M.148,3.662A.648.648,0,0,1-.5,3.014V.148a.648.648,0,1,1,1.3,0V3.014A.648.648,0,0,1,.148,3.662Z" transform="translate(221.838 226.134)" fill="#7f8182"/>
        <path id="Línea_2093" data-name="Línea 2093" d="M.148,3.662A.648.648,0,0,1-.5,3.014V.148a.648.648,0,1,1,1.3,0V3.014A.648.648,0,0,1,.148,3.662Z" transform="translate(226.205 226.134)" fill="#7f8182"/>
        <path id="Línea_2094" data-name="Línea 2094" d="M.148,3.662A.648.648,0,0,1-.5,3.014V.148a.648.648,0,1,1,1.3,0V3.014A.648.648,0,0,1,.148,3.662Z" transform="translate(230.572 226.134)" fill="#7f8182"/>
        <path id="Línea_2095" data-name="Línea 2095" d="M.148,3.662A.648.648,0,0,1-.5,3.014V.148a.648.648,0,1,1,1.3,0V3.014A.648.648,0,0,1,.148,3.662Z" transform="translate(234.94 226.134)" fill="#7f8182"/>
        <path id="Línea_2096" data-name="Línea 2096" d="M.148,3.662A.648.648,0,0,1-.5,3.014V.148a.648.648,0,1,1,1.3,0V3.014A.648.648,0,0,1,.148,3.662Z" transform="translate(239.307 226.134)" fill="#7f8182"/>
        <path id="Línea_2097" data-name="Línea 2097" d="M.148,3.662A.648.648,0,0,1-.5,3.014V.148a.648.648,0,1,1,1.3,0V3.014A.648.648,0,0,1,.148,3.662Z" transform="translate(243.674 226.134)" fill="#7f8182"/>
        <path id="Línea_2098" data-name="Línea 2098" d="M.148,3.662A.648.648,0,0,1-.5,3.014V.148a.648.648,0,1,1,1.3,0V3.014A.648.648,0,0,1,.148,3.662Z" transform="translate(248.042 226.134)" fill="#7f8182"/>
        <path id="Trazado_9872" data-name="Trazado 9872" d="M188.427,160H165.786a2.734,2.734,0,0,1-2.731-2.731v-6.684a13.316,13.316,0,0,1,13.3-13.3h1.5a13.316,13.316,0,0,1,13.3,13.3v6.684A2.734,2.734,0,0,1,188.427,160Zm-12.071-21.418a12.017,12.017,0,0,0-12,12v6.684a1.435,1.435,0,0,0,1.434,1.434h22.641a1.435,1.435,0,0,0,1.434-1.434v-6.684a12.017,12.017,0,0,0-12-12Z" transform="translate(23.007 19.359)" fill="#7f8182"/>
        <path id="Rectángulo_2074" data-name="Rectángulo 2074" d="M2.043-.5h22.8a2.543,2.543,0,1,1,0,5.087H2.043a2.543,2.543,0,0,1,0-5.087Zm22.8,3.79a1.247,1.247,0,1,0,0-2.493H2.043a1.247,1.247,0,0,0,0,2.493Z" transform="translate(186.671 181.167)" fill="#7f8182"/>
        <path id="Trazado_9873" data-name="Trazado 9873" d="M175.64,155.817h0a2.792,2.792,0,0,1-2.35-4.3l5.684-8.881a1.878,1.878,0,0,1,3.314,1.737l-4.071,9.726A2.788,2.788,0,0,1,175.64,155.817Zm4.917-12.747a.579.579,0,0,0-.49.269l-5.684,8.881a1.5,1.5,0,1,0,2.639,1.383l4.071-9.726a.582.582,0,0,0-.535-.806Z" transform="translate(24.395 19.994)" fill="#7f8182"/>
        <path id="Línea_2099" data-name="Línea 2099" d="M3.014.8H.148a.648.648,0,0,1,0-1.3H3.014a.648.648,0,1,1,0,1.3Z" transform="translate(207.938 171.265)" fill="#7f8182"/>
        <path id="Línea_2100" data-name="Línea 2100" d="M.149,2.23A.648.648,0,0,1-.176,1.02L2.306-.413A.648.648,0,0,1,2.954.71L.473,2.143A.646.646,0,0,1,.149,2.23Z" transform="translate(206.869 165.847)" fill="#7f8182"/>
        <path id="Línea_2101" data-name="Línea 2101" d="M.148,3.662A.648.648,0,0,1-.5,3.014V.148a.648.648,0,1,1,1.3,0V3.014A.648.648,0,0,1,.148,3.662Z" transform="translate(199.966 160.428)" fill="#7f8182"/>
        <path id="Línea_2102" data-name="Línea 2102" d="M1.582,3.279a.648.648,0,0,1-.562-.324L-.413.473A.648.648,0,1,1,.71-.176L2.143,2.306a.649.649,0,0,1-.561.973Z" transform="translate(194.547 161.88)" fill="#7f8182"/>
        <path id="Línea_2103" data-name="Línea 2103" d="M2.63,2.23a.645.645,0,0,1-.324-.087L-.176.71A.648.648,0,0,1,.473-.413L2.954,1.02A.648.648,0,0,1,2.63,2.23Z" transform="translate(190.58 165.847)" fill="#7f8182"/>
        <path id="Línea_2104" data-name="Línea 2104" d="M3.014.8H.148a.648.648,0,0,1,0-1.3H3.014a.648.648,0,1,1,0,1.3Z" transform="translate(189.128 171.265)" fill="#7f8182"/>
        <path id="Trazado_9874" data-name="Trazado 9874" d="M342.408,104.4H233.09V95.816a6.677,6.677,0,0,1,6.669-6.669h95.979a6.677,6.677,0,0,1,6.669,6.669Zm-108.021-1.3H341.111V95.816a5.378,5.378,0,0,0-5.372-5.372H239.759a5.378,5.378,0,0,0-5.372,5.372Z" transform="translate(32.923 12.544)" fill="#7f8182"/>
        <path id="Línea_2105" data-name="Línea 2105" d="M95.759.8H.148a.648.648,0,0,1,0-1.3H95.759a.648.648,0,0,1,0,1.3Z" transform="translate(270.785 106.831)" fill="#7f8182"/>
        <path id="Trazado_9875" data-name="Trazado 9875" d="M135.56,129.25H26.242v-8.759a6.677,6.677,0,0,1,6.669-6.669H128.89a6.677,6.677,0,0,1,6.669,6.669Zm-108.021-1.3H134.263v-7.462a5.378,5.378,0,0,0-5.372-5.372H32.911a5.378,5.378,0,0,0-5.372,5.372Z" transform="translate(3.638 16.037)" fill="#7f8182"/>
        <path id="Línea_2106" data-name="Línea 2106" d="M95.759.8H.148a.648.648,0,0,1,0-1.3H95.759a.648.648,0,0,1,0,1.3Z" transform="translate(34.651 135)" fill="#7f8182"/>
        <path id="Trazado_9876" data-name="Trazado 9876" d="M246.275,51.887a4.1,4.1,0,0,1-1.783-.414,4.072,4.072,0,0,1-1.874-5.447c7.863-16.108,20.471-26.531,35.5-29.35a44.606,44.606,0,0,1,8.2-.754,47.444,47.444,0,0,1,31.9,12.352,4.073,4.073,0,1,1-5.529,5.982,39.15,39.15,0,0,0-26.323-10.192,36.726,36.726,0,0,0-6.744.619c-8.8,1.648-21.085,7.309-29.681,24.916A4.048,4.048,0,0,1,246.275,51.887Zm40.042-34.668a43.307,43.307,0,0,0-7.959.731c-14.616,2.741-26.895,12.914-34.574,28.644a2.776,2.776,0,1,0,4.989,2.436c8.833-18.091,21.52-23.918,30.608-25.622a38.025,38.025,0,0,1,6.983-.641,40.46,40.46,0,0,1,27.2,10.537,2.776,2.776,0,1,0,3.768-4.077A46.133,46.133,0,0,0,286.317,17.219Z" transform="translate(34.213 2.177)" fill="#7f8182"/>
        <path id="Trazado_9877" data-name="Trazado 9877" d="M319.9,81.39c-.135,0-.273-.007-.409-.02a4.072,4.072,0,0,1-3.648-4.459c1.9-19-.075-26.534-4.936-35.33a4.073,4.073,0,1,1,7.131-3.94c6.361,11.512,7.8,21.252,5.91,40.082A4.056,4.056,0,0,1,319.9,81.39Zm-5.43-44.557a2.776,2.776,0,0,0-2.427,4.12c4.993,9.036,7.029,16.74,5.092,36.087a2.775,2.775,0,0,0,2.486,3.039c.093.009.188.014.28.014a2.764,2.764,0,0,0,2.758-2.5c1.857-18.526.459-28.082-5.755-39.326A2.781,2.781,0,0,0,314.472,36.833Z" transform="translate(43.868 4.954)" fill="#7f8182"/>
        <path id="Trazado_9878" data-name="Trazado 9878" d="M245.807,95.621h-7.915l-.073-.548a1.029,1.029,0,0,1-.024-.14c-.319-3.206.111-7.677.608-12.853.212-2.205.452-4.7.613-7.031.091-1.322.046-3.251-.006-5.484v-.016a106.446,106.446,0,0,1,.329-13.856,4.061,4.061,0,0,1,4.04-3.644,4.128,4.128,0,0,1,.443.024,4.08,4.08,0,0,1,3.618,4.482,99.646,99.646,0,0,0-.287,12.768v.035c.057,2.44.107,4.548-.01,6.249-.166,2.412-.4,4.864-.631,7.236l0,.023c-.437,4.55-.85,8.848-.61,11.261a4.032,4.032,0,0,1-.021.928Zm-6.762-1.3h5.572q0-.034-.006-.068c-.253-2.539.166-6.9.609-11.513l0-.023c.228-2.363.463-4.806.628-7.2.113-1.642.064-3.722.008-6.13v-.036a100.694,100.694,0,0,1,.294-12.936,2.781,2.781,0,0,0-2.468-3.055,2.83,2.83,0,0,0-.3-.017,2.767,2.767,0,0,0-2.75,2.484,105.383,105.383,0,0,0-.322,13.688v.016c.053,2.265.1,4.222,0,5.6-.162,2.349-.4,4.852-.616,7.061A82.278,82.278,0,0,0,239.045,94.324Z" transform="translate(33.574 7.292)" fill="#7f8182"/>
        <path id="Trazado_9879" data-name="Trazado 9879" d="M255.149,97.286H251.2l-.156-.1a4.063,4.063,0,0,1-1.844-4.366c2.839-12.391,3.156-24.706,3.411-34.6l.014-.535a25.736,25.736,0,0,1,3.068-11.3,26.148,26.148,0,0,1,3.084-4.7,4.074,4.074,0,0,1,6.153,5.341,19.682,19.682,0,0,0-4.16,10.863l-.014.526c-.249,9.719-.591,23.029-3.614,36.221a4.034,4.034,0,0,1-1.834,2.546Zm-3.573-1.3h3.194a2.737,2.737,0,0,0,1.1-1.635c2.994-13.066,3.334-26.3,3.582-35.965l.014-.527a19.382,19.382,0,0,1,2.28-8.28,19.927,19.927,0,0,1,2.188-3.39l.005-.006a2.777,2.777,0,0,0-4.19-3.645,26.355,26.355,0,0,0-5.834,15.178l-.014.535c-.256,9.954-.575,22.342-3.443,34.859A2.764,2.764,0,0,0,251.576,95.989Z" transform="translate(35.189 5.627)" fill="#7f8182"/>
        <path id="Trazado_9880" data-name="Trazado 9880" d="M282.526,29.028h0c5.179,0,12.77.974,19.52,5.612,8.382,5.756,13.026,15.232,13.8,28.163.588,9.776-1.939,28.1-3.053,35.525l-.083.552h-8.242l.113-.746c.878-5.785,3.7-25.4,3.133-34.843-.62-10.295-4.08-17.676-10.284-21.938a26.832,26.832,0,0,0-15.074-4.2,30.48,30.48,0,0,0-8.951,1.292,4.073,4.073,0,1,1-2.461-7.765A40.021,40.021,0,0,1,282.526,29.028ZM311.6,97.583c1.145-7.705,3.525-25.282,2.958-34.7-.752-12.511-5.208-21.653-13.243-27.172-6.476-4.45-13.791-5.384-18.786-5.384a38.674,38.674,0,0,0-11.186,1.593,2.776,2.776,0,1,0,1.677,5.293,31.357,31.357,0,0,1,9.343-1.352,28.132,28.132,0,0,1,15.808,4.427c6.551,4.5,10.2,12.214,10.844,22.929.541,9.016-1.853,26.5-3.033,34.37Z" transform="translate(37.88 4.032)" fill="#7f8182"/>
        <path id="Trazado_9881" data-name="Trazado 9881" d="M270.744,96.939h-8.268l.122-.753a204.348,204.348,0,0,0,2.13-24.3c.154-3.455.313-7.028.572-10.566a20,20,0,0,1,6.5-13.886,18.805,18.805,0,0,1,12.4-4.693l.288,0a18.259,18.259,0,0,1,5.972,1.126,17.12,17.12,0,0,1,5.421,3.207,17.5,17.5,0,0,1,5.727,12.945c.264,7.761-.187,17.418-.206,17.825a4.065,4.065,0,0,1-4.064,3.883c-.065,0-.13,0-.2,0a4.08,4.08,0,0,1-3.878-4.26c0-.1.452-9.789.2-17.166-.232-6.819-5.066-9.33-9.134-9.409h-.11c-4.611,0-10.205,2.887-10.8,11.024-.251,3.443-.4,6.792-.559,10.338a215.009,215.009,0,0,1-2.037,24.141ZM264,95.642h5.633A217.475,217.475,0,0,0,271.57,72.19c.159-3.556.31-6.914.562-10.375a13.374,13.374,0,0,1,4.186-9.292,11.858,11.858,0,0,1,7.906-2.935h.129a10.272,10.272,0,0,1,10.411,10.662c.252,7.429-.2,17.173-.2,17.271a2.781,2.781,0,0,0,2.643,2.9c.045,0,.09,0,.134,0a2.77,2.77,0,0,0,2.769-2.647c0-.1.468-10.012.205-17.72-.367-10.805-8.472-15.881-15.847-16.025l-.265,0c-8.12,0-16.775,5.969-17.607,17.376-.257,3.52-.416,7.084-.57,10.53A209.843,209.843,0,0,1,264,95.642Z" transform="translate(37.07 5.973)" fill="#7f8182"/>
        <path id="Trazado_9882" data-name="Trazado 9882" d="M295.4,91.259h-8.2l.084-.723c.175-1.506.369-2.9.591-4.262a4.052,4.052,0,0,1,4.015-3.419,4.131,4.131,0,0,1,.658.053,4.07,4.07,0,0,1,3.366,4.674c-.161.992-.306,2.009-.443,3.109Zm-6.741-1.3h5.6c.118-.9.242-1.754.377-2.589a2.774,2.774,0,0,0-2.294-3.186,2.83,2.83,0,0,0-.45-.036,2.761,2.761,0,0,0-2.735,2.33C288.975,87.6,288.812,88.749,288.662,89.962Z" transform="translate(40.575 11.653)" fill="#7f8182"/>
        <path id="Trazado_9883" data-name="Trazado 9883" d="M280.408,90.144q-.087,0-.175,0a4.073,4.073,0,0,1-3.9-4.237c.008-.173.917-22.1,1.016-26.077a4.073,4.073,0,0,1,1.213-2.808,3.989,3.989,0,0,1,2.962-1.161A4.072,4.072,0,0,1,285.5,60.03c-.059,2.392-.412,11.469-.992,25.559l-.027.649A4.063,4.063,0,0,1,280.408,90.144Zm.979-32.993a2.776,2.776,0,0,0-2.739,2.707c-.1,3.98-1.009,25.931-1.017,26.1a2.776,2.776,0,0,0,2.66,2.885l.117,0a2.769,2.769,0,0,0,2.772-2.662l.027-.649c.58-14.083.932-23.152.991-25.538a2.775,2.775,0,0,0-2.706-2.845h-.007Z" transform="translate(39.045 7.83)" fill="#7f8182"/>
        <path id="Trazado_9884" data-name="Trazado 9884" d="M53.863,56.909a4.074,4.074,0,0,1-2.313-7.428,46.95,46.95,0,0,1,21.512-7.9,4.152,4.152,0,0,1,.432-.023,4.072,4.072,0,0,1,.448,8.12A38.773,38.773,0,0,0,56.17,56.191,4.054,4.054,0,0,1,53.863,56.909ZM73.494,42.852a2.837,2.837,0,0,0-.295.015,45.647,45.647,0,0,0-20.914,7.682,2.777,2.777,0,0,0,3.15,4.573A40.073,40.073,0,0,1,73.8,48.387a2.775,2.775,0,0,0-.308-5.534Z" transform="translate(6.972 5.806)" fill="#7f8182"/>
        <path id="Trazado_9885" data-name="Trazado 9885" d="M116.061,83.1a4.061,4.061,0,0,1-3.876-2.827C104.812,57.353,89.336,51.443,80.767,49.96a4.074,4.074,0,1,1,1.392-8.028c17.667,3.06,31.438,16.126,37.78,35.847a4.079,4.079,0,0,1-3.878,5.322ZM81.455,43.167a2.778,2.778,0,0,0-.466,5.515c8.857,1.533,24.849,7.624,32.43,31.2a2.776,2.776,0,1,0,5.285-1.7c-6.19-19.247-19.591-31.992-36.768-34.967A2.786,2.786,0,0,0,81.455,43.167Z" transform="translate(10.879 5.85)" fill="#7f8182"/>
        <path id="Trazado_9886" data-name="Trazado 9886" d="M36.195,93.486c-.127,0-.255-.006-.393-.019a4.073,4.073,0,0,1-3.664-4.448c1.462-15.076,2.971-20.63,10.8-30.976a4.073,4.073,0,1,1,6.5,4.916C42.94,71.539,41.652,75.3,40.244,89.806A4.055,4.055,0,0,1,36.195,93.486Zm9.995-35.759a2.76,2.76,0,0,0-2.217,1.1c-7.636,10.089-9.11,15.529-10.544,30.318a2.777,2.777,0,0,0,2.495,3.032c.095.009.185.013.272.013a2.763,2.763,0,0,0,2.759-2.508c.68-7.011,1.349-11.872,2.753-15.968,1.412-4.119,3.523-7.349,6.693-11.536a2.774,2.774,0,0,0-2.21-4.451Z" transform="translate(4.47 7.912)" fill="#7f8182"/>
        <path id="Trazado_9887" data-name="Trazado 9887" d="M114.459,119.492h-8.171l.049-.694c.124-1.765.22-3.742.316-5.781.106-2.258.227-4.817.407-7.261.127-1.7.476-3.778.88-6.185a99.758,99.758,0,0,0,1.542-12.716,4.079,4.079,0,0,1,4.212-3.919h.007a4.078,4.078,0,0,1,3.921,4.221,106.3,106.3,0,0,1-1.649,13.761c-.355,2.109-.69,4.1-.79,5.442-.17,2.292-.283,4.689-.393,7.006l-.01.214c-.089,1.878-.172,3.652-.282,5.307Zm-6.782-1.3h5.567c.091-1.469.165-3.033.242-4.676l.01-.214c.11-2.326.224-4.73.4-7.04.1-1.4.444-3.421.8-5.561a105.235,105.235,0,0,0,1.632-13.594,2.776,2.776,0,0,0-5.549-.207,100.782,100.782,0,0,1-1.559,12.881c-.4,2.378-.744,4.43-.866,6.069-.18,2.426-.3,4.976-.405,7.226C107.864,114.863,107.78,116.6,107.677,118.195Z" transform="translate(14.965 11.664)" fill="#7f8182"/>
        <path id="Trazado_9888" data-name="Trazado 9888" d="M51.927,122.749H44.046l-.078-.558c0-.03-.009-.06-.014-.09a2.865,2.865,0,0,1-.042-.407c-.021-1.093-.475-26.942,2-38.986,1.933-9.393,5.671-16.695,11.108-21.7A4.074,4.074,0,1,1,62.543,67c-4.157,3.828-7.066,9.666-8.648,17.353-2.293,11.138-1.844,36.938-1.838,37.194a4,4,0,0,1-.051.647Zm-6.723-1.3h5.554c-.032-1.925-.374-26.48,1.867-37.363,1.637-7.958,4.679-14.029,9.04-18.045A2.777,2.777,0,0,0,57.9,61.959c-5.233,4.82-8.839,11.889-10.716,21.01C44.826,94.434,45.159,118.708,45.2,121.452Z" transform="translate(6.133 8.407)" fill="#7f8182"/>
        <path id="Trazado_9889" data-name="Trazado 9889" d="M104.329,93.025a4.228,4.228,0,0,1-.534-.034,4.073,4.073,0,0,1-3.508-4.572,22.083,22.083,0,0,0-3.395-14.544,23.3,23.3,0,0,0-8.785-8.411,33.032,33.032,0,0,0-13.838-3.132c-.913,0-1.812.044-2.674.13q-.2.019-.4.019a4.072,4.072,0,0,1-.411-8.125c1.171-.116,2.369-.174,3.563-.174a41.4,41.4,0,0,1,17.289,3.942A31.5,31.5,0,0,1,103.808,69.6a30.032,30.032,0,0,1,4.554,19.887A4.082,4.082,0,0,1,104.329,93.025Zm-30.06-31.99a34.374,34.374,0,0,1,14.4,3.26,24.294,24.294,0,0,1,9.323,8.894,23.365,23.365,0,0,1,3.58,15.4,2.776,2.776,0,0,0,2.39,3.116,2.913,2.913,0,0,0,.367.023,2.782,2.782,0,0,0,2.748-2.414c1.909-14.48-8.208-26.273-16-30.022A40.054,40.054,0,0,0,74.35,55.479c-1.151,0-2.307.057-3.435.168a2.775,2.775,0,0,0,.283,5.537c.09,0,.181,0,.271-.013C72.37,61.081,73.313,61.035,74.269,61.035Z" transform="translate(9.425 7.593)" fill="#7f8182"/>
        <path id="Trazado_9890" data-name="Trazado 9890" d="M102.81,117.8h-8.17l-.037-.609a142.316,142.316,0,0,1,.151-18.528,4.081,4.081,0,0,1,4.056-3.8c.095,0,.191,0,.286.01a4.072,4.072,0,0,1,3.786,4.341,133.592,133.592,0,0,0-.116,17.892Zm-6.949-1.3h5.566a136.057,136.057,0,0,1,.16-17.374,2.776,2.776,0,1,0-5.54-.377A142.1,142.1,0,0,0,95.862,116.505Z" transform="translate(13.283 13.354)" fill="#7f8182"/>
        <path id="Trazado_9891" data-name="Trazado 9891" d="M60.83,105a3.935,3.935,0,0,1-.4-.019,4.077,4.077,0,0,1-3.66-4.445l0-.023c.1-1.041,1.035-10.377,2.335-17.651,1.155-6.454,4.863-11.256,10.443-13.521a17.683,17.683,0,0,1,6.676-1.286,18.869,18.869,0,0,1,10.915,3.515,4.074,4.074,0,0,1,.933,5.686,4.087,4.087,0,0,1-3.312,1.7,4.037,4.037,0,0,1-2.374-.768A10.681,10.681,0,0,0,76.2,76.214a9.489,9.489,0,0,0-3.589.679c-2.047.831-4.66,2.79-5.486,7.407-1.309,7.316-2.238,16.926-2.247,17.019A4.057,4.057,0,0,1,60.83,105Zm15.4-35.647a16.392,16.392,0,0,0-6.188,1.191c-5.152,2.091-8.58,6.548-9.653,12.548-1.292,7.225-2.219,16.514-2.321,17.549l0,.022a2.779,2.779,0,0,0,2.5,3.029,2.669,2.669,0,0,0,.271.013,2.764,2.764,0,0,0,2.76-2.509c.008-.091.951-9.8,2.262-17.125.93-5.2,3.926-7.428,6.275-8.381a10.778,10.778,0,0,1,4.077-.774,11.989,11.989,0,0,1,6.942,2.22,2.749,2.749,0,0,0,1.617.523,2.777,2.777,0,0,0,2.743-3.227,2.757,2.757,0,0,0-1.121-1.806A17.562,17.562,0,0,0,76.226,69.355Z" transform="translate(7.957 9.558)" fill="#7f8182"/>
        <path id="Trazado_9892" data-name="Trazado 9892" d="M86.844,94.509c-.112,0-.226,0-.349-.015a4.072,4.072,0,0,1-3.712-4.409c.106-1.232.194-2.353.27-3.426a4.094,4.094,0,0,1,4.08-3.788c.087,0,.175,0,.263.008a4.073,4.073,0,0,1,3.783,4.348c-.076,1.1-.168,2.263-.281,3.559a4.072,4.072,0,0,1-4.054,3.723Zm.288-10.341a2.793,2.793,0,0,0-2.787,2.582c-.076,1.08-.165,2.207-.271,3.446A2.775,2.775,0,0,0,86.6,93.2c.085.007.165.01.242.01a2.791,2.791,0,0,0,2.762-2.537c.112-1.289.2-2.446.279-3.538a2.776,2.776,0,0,0-2.576-2.964C87.253,84.171,87.192,84.169,87.132,84.169Z" transform="translate(11.64 11.655)" fill="#7f8182"/>
        <path id="Trazado_9893" data-name="Trazado 9893" d="M89.114,117.863H80.967l0-.653c.045-6.84.576-13.218,1.145-19.091a4.068,4.068,0,0,1,4.076-3.679c.121,0,.243.005.363.016h.006A4.08,4.08,0,0,1,90.223,98.9c-.547,5.652-1.059,11.783-1.1,18.314Zm-6.84-1.3h5.554c.074-6.341.573-12.29,1.1-17.787a2.782,2.782,0,0,0-2.492-3.032c-.082-.007-.166-.011-.248-.011a2.776,2.776,0,0,0-2.785,2.507C82.859,103.9,82.346,110.023,82.274,116.566Z" transform="translate(11.385 13.293)" fill="#7f8182"/>
        <path id="Trazado_9894" data-name="Trazado 9894" d="M64.652,116.157H56.5l.026-.673c.063-1.668.081-3.3.053-4.845a4.079,4.079,0,0,1,4-4.146h.043a4.061,4.061,0,0,1,4.1,4c.03,1.617.014,3.264-.046,5.037Zm-6.812-1.3H63.4c.043-1.514.051-2.941.026-4.343a2.774,2.774,0,0,0-2.808-2.728h-.022a2.781,2.781,0,0,0-2.722,2.826C57.9,111.977,57.885,113.4,57.84,114.86Z" transform="translate(7.918 14.999)" fill="#7f8182"/>
        <path id="Trazado_9895" data-name="Trazado 9895" d="M72.513,115.434a3.955,3.955,0,0,1-.42-.022,4.077,4.077,0,0,1-3.636-4.464c.022-.217,2.237-21.961,2.726-26.089a4.076,4.076,0,0,1,4.048-3.593,4.141,4.141,0,0,1,.474.027,4.079,4.079,0,0,1,3.567,4.525c-.473,3.989-2.693,25.77-2.711,25.952A4.059,4.059,0,0,1,72.513,115.434Zm2.718-32.871a2.779,2.779,0,0,0-2.76,2.449c-.488,4.118-2.7,25.851-2.724,26.068a2.779,2.779,0,0,0,2.48,3.043,2.681,2.681,0,0,0,.286.015,2.766,2.766,0,0,0,2.758-2.495c.018-.18,2.24-21.981,2.714-25.976a2.78,2.78,0,0,0-2.43-3.085A2.829,2.829,0,0,0,75.231,82.564Z" transform="translate(9.611 11.428)" fill="#7f8182"/>
        <path id="Trazado_9896" data-name="Trazado 9896" d="M320.041,91.84h-8.288l.142-.766c.983-5.315,1.452-8.753,1.456-8.783a4.073,4.073,0,1,1,8.075,1.079c-.017.125-.421,3.131-1.288,7.938Zm-6.731-1.3h5.646c.8-4.465,1.167-7.227,1.183-7.346a2.776,2.776,0,1,0-5.5-.739h0C314.614,82.625,314.184,85.742,313.311,90.543Z" transform="translate(44.044 11.072)" fill="#7f8182"/>
        <path id="Trazado_9897" data-name="Trazado 9897" d="M40.138,117.5H31.984l-.027-.621c-.26-6.08-.372-11.42-.332-15.873A4.084,4.084,0,0,1,35.7,96.973h.032a4.08,4.08,0,0,1,4.042,4.108c-.04,4.4.073,9.7.336,15.746Zm-6.911-1.3h5.557c-.243-5.792-.347-10.881-.308-15.137a2.78,2.78,0,0,0-2.751-2.8H35.7a2.784,2.784,0,0,0-2.775,2.752C32.884,105.3,32.987,110.407,33.227,116.207Z" transform="translate(4.399 13.652)" fill="#7f8182"/>
        <path id="Trazado_9898" data-name="Trazado 9898" d="M311,116.268H300.141a2.156,2.156,0,0,1-2.154-2.153,7.363,7.363,0,0,1,7.355-7.355h6.445v1.3h-6.445a6.065,6.065,0,0,0-6.058,6.058.858.858,0,0,0,.857.856H311Z" transform="translate(42.111 15.037)" fill="#7f8182"/>
        <path id="Trazado_9899" data-name="Trazado 9899" d="M366.489,215.464a.647.647,0,0,1-.621-.464,6.941,6.941,0,0,1-.222-1.8l.031-99.041a6.108,6.108,0,0,0-6.1-6.1h-51.71a7.391,7.391,0,0,1,3.219,6.1v7.28a.649.649,0,0,1-.648.648h0a.648.648,0,0,1-.648-.649v-7.28a6.108,6.108,0,0,0-6.1-6.1.648.648,0,0,1,0-1.3h55.892a7.406,7.406,0,0,1,7.4,7.4l-.031,99.041a5.766,5.766,0,0,0,.169,1.437.649.649,0,0,1-.624.829Z" transform="translate(42.825 15.037)" fill="#7f8182"/>
        <path id="Trazado_9900" data-name="Trazado 9900" d="M316.322,210.143a7.406,7.406,0,0,1-7.4-7.4l0-22.724h1.3l0,22.724a6.108,6.108,0,0,0,6.1,6.1Z" transform="translate(43.659 25.488)" fill="#7f8182"/>
        <path id="Trazado_9901" data-name="Trazado 9901" d="M321.327,200.847H374.49a1.845,1.845,0,0,1,1.476.745,1.785,1.785,0,0,1,.279,1.6,5.77,5.77,0,0,1-5.52,4.084H315.14v-1.3a4.482,4.482,0,0,0,4.4-3.657A1.813,1.813,0,0,1,321.327,200.847Zm49.4,5.129A4.473,4.473,0,0,0,375,202.811a.5.5,0,0,0-.081-.447.536.536,0,0,0-.434-.22H321.327a.516.516,0,0,0-.513.413,5.743,5.743,0,0,1-1.594,3.024,5.889,5.889,0,0,1-.437.4Z" transform="translate(44.617 28.358)" fill="#7f8182"/>
        <path id="Trazado_9902" data-name="Trazado 9902" d="M320.4,121.39a20.471,20.471,0,1,1-11.175,3.318A20.334,20.334,0,0,1,320.4,121.39Zm-.017,39.641a19.19,19.19,0,1,0-7.467-1.523A19.142,19.142,0,0,0,320.387,161.031Z" transform="translate(42.384 17.109)" fill="#7f8182"/>
        <path id="Trazado_9903" data-name="Trazado 9903" d="M307,158.162a.649.649,0,0,1-.587-.372,5.107,5.107,0,0,1,.045-4.425.648.648,0,1,1,1.194.506,3.8,3.8,0,0,0-.065,3.367.649.649,0,0,1-.586.925Z" transform="translate(43.236 21.579)" fill="#7f8182"/>
        <path id="Trazado_9904" data-name="Trazado 9904" d="M304.378,155.711a5.887,5.887,0,0,1-1.018-.089,5.818,5.818,0,0,1-2.335-10.493.648.648,0,0,1,.745,1.062,4.521,4.521,0,0,0,5.191,7.4.648.648,0,1,1,.745,1.062A5.774,5.774,0,0,1,304.378,155.711Z" transform="translate(42.191 20.453)" fill="#7f8182"/>
        <path id="Trazado_9905" data-name="Trazado 9905" d="M301.236,146.78a5.817,5.817,0,0,1-.3-11.627.648.648,0,1,1,.068,1.3,4.521,4.521,0,0,0,.48,9.028.648.648,0,1,1,.069,1.3Q301.393,146.78,301.236,146.78Z" transform="translate(41.748 19.057)" fill="#7f8182"/>
        <path id="Trazado_9906" data-name="Trazado 9906" d="M300.885,136.809a.646.646,0,0,1-.313-.081,5.818,5.818,0,0,1,5.634-10.18.648.648,0,1,1-.628,1.135,4.521,4.521,0,1,0-4.378,7.911.648.648,0,0,1-.315,1.216Z" transform="translate(42.052 17.735)" fill="#7f8182"/>
        <path id="Trazado_9907" data-name="Trazado 9907" d="M305.631,128.025a.648.648,0,0,1-.567-.334,5.817,5.817,0,1,1,10.172-5.648.648.648,0,0,1-1.134.629,4.52,4.52,0,1,0-7.9,4.389.649.649,0,0,1-.566.963Z" transform="translate(43.01 16.777)" fill="#7f8182"/>
        <path id="Trazado_9908" data-name="Trazado 9908" d="M324.634,123.622H324.6a.648.648,0,0,1-.614-.681,4.521,4.521,0,0,0-9.029-.466.648.648,0,0,1-1.3-.067,5.817,5.817,0,0,1,11.62.6A.648.648,0,0,1,324.634,123.622Z" transform="translate(44.33 16.471)" fill="#7f8182"/>
        <path id="Trazado_9909" data-name="Trazado 9909" d="M332.643,129.425a.648.648,0,0,1-.531-1.02,4.521,4.521,0,1,0-7.41-5.181.648.648,0,0,1-1.063-.743,5.817,5.817,0,1,1,9.536,6.666A.648.648,0,0,1,332.643,129.425Z" transform="translate(45.726 16.912)" fill="#7f8182"/>
        <path id="Trazado_9910" data-name="Trazado 9910" d="M336.184,138.653a.649.649,0,0,1-.254-1.245,4.521,4.521,0,0,0-3.539-8.321.648.648,0,1,1-.508-1.193,5.818,5.818,0,0,1,4.555,10.707A.646.646,0,0,1,336.184,138.653Z" transform="translate(46.854 17.964)" fill="#7f8182"/>
        <path id="Trazado_9911" data-name="Trazado 9911" d="M335.184,148.555a5.835,5.835,0,0,1-.909-.071.648.648,0,1,1,.2-1.281,4.521,4.521,0,1,0,1.408-8.932.648.648,0,1,1,.2-1.281,5.818,5.818,0,0,1-.9,11.565Z" transform="translate(47.171 19.316)" fill="#7f8182"/>
        <path id="Trazado_9912" data-name="Trazado 9912" d="M331.455,157.08a5.77,5.77,0,0,1-3.8-1.425.648.648,0,0,1,.85-.979,4.521,4.521,0,1,0,5.926-6.828.648.648,0,0,1,.85-.98,5.818,5.818,0,0,1-3.4,10.2Q331.664,157.08,331.455,157.08Z" transform="translate(46.279 20.693)" fill="#7f8182"/>
        <path id="Trazado_9913" data-name="Trazado 9913" d="M319.775,125.816a15.416,15.416,0,1,1-14.2,9.4A15.317,15.317,0,0,1,319.775,125.816Zm-.013,29.535a14.132,14.132,0,1,0-5.5-1.122A14.1,14.1,0,0,0,319.762,155.352Z" transform="translate(43.011 17.735)" fill="#7f8182"/>
        <path id="Trazado_9914" data-name="Trazado 9914" d="M315.8,146.663a.648.648,0,0,1-.458-.19l-5.369-5.369a.648.648,0,0,1,.917-.917l4.91,4.91,11.31-11.31a.648.648,0,0,1,.917.917l-11.769,11.769A.648.648,0,0,1,315.8,146.663Z" transform="translate(43.781 18.837)" fill="#7f8182"/>
        <path id="Trazado_9915" data-name="Trazado 9915" d="M313.082,187.589l-5.491-7.242-8.747,2.465,9.9-29.5,1.229.412L300.853,180.9l7.237-2.039,4.543,5.991,9.426-28.1,1.229.412Z" transform="translate(42.189 21.681)" fill="#7f8182"/>
        <path id="Trazado_9916" data-name="Trazado 9916" d="M324.711,187.012,317.059,164.2l1.229-.412,6.871,20.486,4.543-5.991,7.238,2.039L328.112,154l1.229-.412,9.61,28.648L330.2,179.77Z" transform="translate(44.815 21.72)" fill="#7f8182"/>
        <path id="Línea_2107" data-name="Línea 2107" d="M23.433.8H.148a.648.648,0,0,1,0-1.3H23.433a.648.648,0,0,1,0,1.3Z" transform="translate(379.154 142.258)" fill="#7f8182"/>
        <path id="Línea_2108" data-name="Línea 2108" d="M23.433.8H.148a.648.648,0,0,1,0-1.3H23.433a.648.648,0,0,1,0,1.3Z" transform="translate(374.593 137.409)" fill="#7f8182"/>
        <path id="Línea_2109" data-name="Línea 2109" d="M37.459.8H.148a.648.648,0,0,1,0-1.3h37.31a.648.648,0,0,1,0,1.3Z" transform="translate(360.568 133.861)" fill="#7f8182"/>
        <path id="Línea_2110" data-name="Línea 2110" d="M19.026.8H.148a.648.648,0,1,1,0-1.3H19.026a.648.648,0,0,1,0,1.3Z" transform="translate(381.035 145.892)" fill="#7f8182"/>
        <path id="Línea_2111" data-name="Línea 2111" d="M16.552.8H.148a.648.648,0,1,1,0-1.3h16.4a.648.648,0,0,1,0,1.3Z" transform="translate(386.035 149.526)" fill="#7f8182"/>
        <path id="Línea_2112" data-name="Línea 2112" d="M19.026.8H.148a.648.648,0,1,1,0-1.3H19.026a.648.648,0,0,1,0,1.3Z" transform="translate(383.561 156.795)" fill="#7f8182"/>
        <path id="Línea_2113" data-name="Línea 2113" d="M15.7.8H.148a.648.648,0,1,1,0-1.3H15.7a.648.648,0,1,1,0,1.3Z" transform="translate(386.882 164.102)" fill="#7f8182"/>
        <path id="Línea_2114" data-name="Línea 2114" d="M21.188.8H.148a.648.648,0,1,1,0-1.3H21.188a.648.648,0,0,1,0,1.3Z" transform="translate(381.399 167.736)" fill="#7f8182"/>
        <path id="Línea_2115" data-name="Línea 2115" d="M19.026.8H.148a.648.648,0,1,1,0-1.3H19.026a.648.648,0,0,1,0,1.3Z" transform="translate(383.561 171.37)" fill="#7f8182"/>
        <path id="Línea_2116" data-name="Línea 2116" d="M20.623.8H.148a.648.648,0,0,1,0-1.3H20.623a.648.648,0,1,1,0,1.3Z" transform="translate(381.964 175.005)" fill="#7f8182"/>
        <path id="Línea_2117" data-name="Línea 2117" d="M27.994.8H.148a.648.648,0,1,1,0-1.3H27.994a.648.648,0,0,1,0,1.3Z" transform="translate(374.593 178.639)" fill="#7f8182"/>
        <path id="Línea_2118" data-name="Línea 2118" d="M25.189.8H.148a.648.648,0,0,1,0-1.3H25.189a.648.648,0,0,1,0,1.3Z" transform="translate(377.398 185.995)" fill="#7f8182"/>
        <path id="Línea_2119" data-name="Línea 2119" d="M23.191.8H.148a.648.648,0,0,1,0-1.3H23.191a.648.648,0,1,1,0,1.3Z" transform="translate(379.397 193.264)" fill="#7f8182"/>
        <path id="Línea_2120" data-name="Línea 2120" d="M21.451.8H.148a.648.648,0,1,1,0-1.3h21.3a.648.648,0,1,1,0,1.3Z" transform="translate(381.136 196.898)" fill="#7f8182"/>
        <path id="Línea_2121" data-name="Línea 2121" d="M20.753.8H.148a.648.648,0,1,1,0-1.3h20.6a.648.648,0,0,1,0,1.3Z" transform="translate(381.835 200.532)" fill="#7f8182"/>
        <path id="Línea_2122" data-name="Línea 2122" d="M7.677.8H.148a.648.648,0,0,1,0-1.3H7.677a.648.648,0,0,1,0,1.3Z" transform="translate(359.833 200.532)" fill="#7f8182"/>
        <path id="Línea_2123" data-name="Línea 2123" d="M42.754.8H.148a.648.648,0,0,1,0-1.3H42.754a.648.648,0,0,1,0,1.3Z" transform="translate(359.833 208.217)" fill="#7f8182"/>
        <path id="Línea_2124" data-name="Línea 2124" d="M42.754.8H.148a.648.648,0,0,1,0-1.3H42.754a.648.648,0,0,1,0,1.3Z" transform="translate(359.833 215.486)" fill="#7f8182"/>
        <path id="Línea_2125" data-name="Línea 2125" d="M42.754.8H.148a.648.648,0,0,1,0-1.3H42.754a.648.648,0,0,1,0,1.3Z" transform="translate(359.833 219.12)" fill="#7f8182"/>
        <path id="Trazado_9917" data-name="Trazado 9917" d="M292.848,159.165h-19.93a15.781,15.781,0,0,1-15.781-15.781v-16.13h48.2v1.3H258.434v14.834a14.5,14.5,0,0,0,14.484,14.484h19.93a14.376,14.376,0,0,0,11.573-5.773l1.036.781A15.92,15.92,0,0,1,300,157.452,15.614,15.614,0,0,1,292.848,159.165Z" transform="translate(36.327 17.939)" fill="#7f8182"/>
        <path id="Trazado_9918" data-name="Trazado 9918" d="M283.3,159.016H278.6v-1.3H283.3a14.5,14.5,0,0,0,14.484-14.483V127.753h1.3v15.483a15.78,15.78,0,0,1-15.781,15.78Z" transform="translate(39.445 18.087)" fill="#7f8182"/>
        <path id="Trazado_9919" data-name="Trazado 9919" d="M310.129,132.2H247.845a28.81,28.81,0,0,1-16.038-5.035l-6.161-4.127a5.755,5.755,0,0,1-2.318-4.8v-5.7a12.49,12.49,0,0,1,2.562-7.766,8.1,8.1,0,0,1,6.352-3.3H343.1a7.708,7.708,0,0,1,4.914,1.827,10.758,10.758,0,0,1,3.194,4.627l-1.217.449c-1.257-3.405-3.962-5.606-6.892-5.606H232.242c-4.2,0-7.618,4.38-7.618,9.764v5.7a4.453,4.453,0,0,0,1.744,3.721l6.161,4.127a27.519,27.519,0,0,0,15.316,4.815h62.285Z" transform="translate(31.541 14.29)" fill="#7f8182"/>
        <path id="Línea_2126" data-name="Línea 2126" d="M55.331.8H.148a.648.648,0,0,1,0-1.3H55.331a.648.648,0,0,1,0,1.3Z" transform="translate(297.926 135.603)" fill="#7f8182"/>
        <path id="Línea_2127" data-name="Línea 2127" d="M2.929.8H.148a.648.648,0,0,1,0-1.3H2.929a.648.648,0,0,1,0,1.3Z" transform="translate(288.471 135.603)" fill="#7f8182"/>
        <path id="Línea_2128" data-name="Línea 2128" d="M10.437.8H.148a.648.648,0,0,1,0-1.3H10.437a.648.648,0,0,1,0,1.3Z" transform="translate(269.283 135.603)" fill="#7f8182"/>
        <path id="Trazado_9920" data-name="Trazado 9920" d="M331.958,108.381c-1.257-3.406-3.963-5.607-6.893-5.607H287.289v-1.3h37.776a7.709,7.709,0,0,1,4.915,1.827,10.761,10.761,0,0,1,3.194,4.628Z" transform="translate(40.674 14.289)" fill="#7f8182"/>
        <path id="Trazado_9921" data-name="Trazado 9921" d="M277.591,148.5a6.464,6.464,0,1,1,6.464-6.464A6.47,6.47,0,0,1,277.591,148.5Zm0-11.63a5.167,5.167,0,1,0,5.167,5.167A5.172,5.172,0,0,0,277.591,136.865Z" transform="translate(38.308 19.116)" fill="#7f8182"/>
        <path id="Trazado_9922" data-name="Trazado 9922" d="M279.86,170.291h-2.432a2.658,2.658,0,0,1-2.655-2.655V154.071h7.742v13.564A2.658,2.658,0,0,1,279.86,170.291Zm-3.79-14.923v12.267a1.36,1.36,0,0,0,1.359,1.358h2.432a1.36,1.36,0,0,0,1.359-1.358V155.368Z" transform="translate(38.824 21.736)" fill="#7f8182"/>
      </g>
    </g>
  </g>
</svg>
