<svg id="illustration_Desplazamientos" xmlns="http://www.w3.org/2000/svg" width="60" height="60" viewBox="0 0 60 60">
  <g id="Grupo_2443" data-name="Grupo 2443" transform="translate(-842.11 -551)">
    <path id="Trazado_18300" data-name="Trazado 18300" d="M149.681,0h42.857a8.572,8.572,0,0,1,8.572,8.571V51.429A8.572,8.572,0,0,1,192.538,60H149.681a8.571,8.571,0,0,1-8.571-8.571V8.571A8.571,8.571,0,0,1,149.681,0" transform="translate(701 551)" fill="#cee6ad"/>
    <path id="Trazado_18301" data-name="Trazado 18301" d="M193.953,47.59H157.3a20.956,20.956,0,0,1-5.365-.69c-1.328-.353-.97-1.745.449-1.745H189.73a18.3,18.3,0,0,1,4.7.6c1.393.37,1.017,1.831-.472,1.831" transform="translate(701 551)" fill="#4d997f"/>
    <path id="Trazado_18302" data-name="Trazado 18302" d="M194.88,40.6h-.733a.634.634,0,0,0-.648.562c-.324,2.832-2.32,4.964-4.656,4.964H185.91a5.742,5.742,0,0,1-5.543-4.384.636.636,0,0,0-.614-.494H168.037a.636.636,0,0,0-.614.494c-.563,2.542-2.473,4.384-4.537,4.384H159.97a5.711,5.711,0,0,1-5.713-5.7,5.088,5.088,0,0,1,.239-1.534.657.657,0,0,0-.29-.717l-1.279-.784a5.342,5.342,0,0,1,1.825-3.155,7.207,7.207,0,0,1,5.031-1.945.652.652,0,0,0,.648-.613,14.257,14.257,0,0,1,3.956-8.818.64.64,0,0,0-.46-1.074l-1.4-.017a.5.5,0,0,1-.358-.188.539.539,0,0,1-.119-.392l.563-3.291a.839.839,0,0,1,.818-.7l1.16-.017a2.516,2.516,0,0,1,1.739.716l.1.136a.635.635,0,0,0,.631.222.61.61,0,0,0,.477-.427l.512-1.654.17-.119A.665.665,0,0,0,168,16.4l-1.075,3.479a.851.851,0,0,1-.051.222.648.648,0,0,0,.068.631l.768,1.023a.636.636,0,0,0-.631-.221.615.615,0,0,0-.495.494c-.1.46-.256.972-.443,1.6-.938,3.138-2.354,7.879.528,11.887,2.32,3.24,5.3,3.7,7.334,3.052a4.22,4.22,0,0,0,3.121-3.854,6.374,6.374,0,0,0-1.569-4.4,3.6,3.6,0,0,1-.955-1.978.64.64,0,0,0-.239-.443.981.981,0,0,1-.409-.751V26.73a1.59,1.59,0,0,1,1.569-1.586h12.517a1.921,1.921,0,0,1,1.91,1.927,1.039,1.039,0,0,1-.511.87.6.6,0,0,0-.307.528.635.635,0,0,0,.29.546c2.643,1.688,5.457,5.611,5.457,11.58" transform="translate(701 551)" fill="#ff895a"/>
    <path id="Trazado_18303" data-name="Trazado 18303" d="M165.572,41.292a5.675,5.675,0,1,0-5.639,5.045,5.6,5.6,0,0,0,.874-.074,5.6,5.6,0,0,0,.874.074,5.673,5.673,0,0,0,5.639-5.045Z" transform="translate(701 551)" fill="#fe5000"/>
    <path id="Trazado_18304" data-name="Trazado 18304" d="M193.471,40.963c-.13,3.02-2.19,5.41-4.72,5.41h-2.93a5.718,5.718,0,0,1-5.65-4.86c-.02-.16-.04-.32-.05-.48l11.4-.06Z" transform="translate(701 551)" fill="#fe5000"/>
    <line id="Línea_6215" data-name="Línea 6215" y1="0.01" transform="translate(892.521 591.963)" fill="#fe5000"/>
    <path id="Trazado_18305" data-name="Trazado 18305" d="M154.257,40.661a5.708,5.708,0,1,0,5.708-5.708A5.708,5.708,0,0,0,154.257,40.661Z" transform="translate(701 551)" fill="none" stroke="#002744" stroke-linecap="round" stroke-miterlimit="10" stroke-width="0.75"/>
    <path id="Trazado_18306" data-name="Trazado 18306" d="M159.965,46.37h2.93c2.317,0,4.245-2.229,4.65-4.885" transform="translate(701 551)" fill="none" stroke="#002744" stroke-linecap="round" stroke-miterlimit="10" stroke-width="0.75"/>
    <path id="Trazado_18307" data-name="Trazado 18307" d="M158.43,40.661a1.536,1.536,0,1,0,1.535-1.535A1.535,1.535,0,0,0,158.43,40.661Z" transform="translate(701 551)" fill="none" stroke="#002744" stroke-linecap="round" stroke-miterlimit="10" stroke-width="0.75"/>
    <path id="Trazado_18308" data-name="Trazado 18308" d="M180.209,41.031a5.709,5.709,0,0,0,11.4-.066" transform="translate(701 551)" fill="none" stroke="#002744" stroke-linecap="round" stroke-miterlimit="10" stroke-width="0.75"/>
    <path id="Trazado_18309" data-name="Trazado 18309" d="M185.906,46.37h2.929c2.527,0,4.59-2.393,4.721-5.4" transform="translate(701 551)" fill="none" stroke="#002744" stroke-linecap="round" stroke-miterlimit="10" stroke-width="0.75"/>
    <path id="Trazado_18310" data-name="Trazado 18310" d="M184.37,40.843a1.535,1.535,0,0,0,3.071,0" transform="translate(701 551)" fill="none" stroke="#002744" stroke-linecap="round" stroke-miterlimit="10" stroke-width="0.75"/>
    <path id="Trazado_18311" data-name="Trazado 18311" d="M154.624,38.663l-1.693-1.021c0-1.582,2.73-5.481,7.476-5.127,4.594.343,7.688,2.912,7.688,8.97" transform="translate(701 551)" fill="none" stroke="#002744" stroke-linecap="round" stroke-miterlimit="10" stroke-width="0.75"/>
    <line id="Línea_6216" data-name="Línea 6216" x1="14.588" transform="translate(866.609 592.484)" fill="none" stroke="#002744" stroke-linecap="round" stroke-miterlimit="10" stroke-width="0.75"/>
    <path id="Trazado_18312" data-name="Trazado 18312" d="M179.466,40.843s-2.109-6.447.743-8.712,14.667-1.458,14.667,8.712Z" transform="translate(701 551)" fill="none" stroke="#002744" stroke-linecap="round" stroke-miterlimit="10" stroke-width="0.75"/>
    <path id="Trazado_18313" data-name="Trazado 18313" d="M194.876,40.843c0-8.591-5.577-12.5-8-12.5H174.567c0,2.213,2.56,2.532,2.56,6.606,0,3.906-6.346,6.532-10.455.8s.579-13.077,0-14.711c0,0-6.266,4.356-6.266,11.471" transform="translate(701 551)" fill="none" stroke="#002744" stroke-linecap="round" stroke-miterlimit="10" stroke-width="0.75"/>
    <path id="Trazado_18314" data-name="Trazado 18314" d="M189.352,28.347h-14.83a.573.573,0,0,1-.573-.573V26.312a.926.926,0,0,1,.926-.927h13.96a1.127,1.127,0,0,1,1.126,1.127v1.225A.61.61,0,0,1,189.352,28.347Z" transform="translate(701 551)" fill="none" stroke="#002744" stroke-linecap="round" stroke-miterlimit="10" stroke-width="0.75"/>
    <path id="Trazado_18315" data-name="Trazado 18315" d="M164.674,22.036l-2.125-.026a.5.5,0,0,1-.484-.58l.562-3.293a.828.828,0,0,1,.8-.689l1.206-.02a2.3,2.3,0,1,1,.039,4.608Z" transform="translate(701 551)" fill="none" stroke="#002744" stroke-linecap="round" stroke-miterlimit="10" stroke-width="0.75"/>
    <line id="Línea_6217" data-name="Línea 6217" x2="1.508" y2="2.052" transform="translate(867.863 571.836)" fill="none" stroke="#002744" stroke-linecap="round" stroke-miterlimit="10" stroke-width="0.75"/>
    <path id="Trazado_18316" data-name="Trazado 18316" d="M166.958,20.022l1.1-3.613,1.508-.967" transform="translate(701 551)" fill="none" stroke="#002744" stroke-linecap="round" stroke-miterlimit="10" stroke-width="0.75"/>
    <line id="Línea_6218" data-name="Línea 6218" x2="0.683" y2="2.782" transform="translate(870.236 564.627)" fill="none" stroke="#002744" stroke-linecap="round" stroke-miterlimit="10" stroke-width="0.75"/>
    <line id="Línea_6219" data-name="Línea 6219" y2="2.962" transform="translate(881.197 576.385)" fill="none" stroke="#002744" stroke-linecap="round" stroke-miterlimit="10" stroke-width="0.75"/>
    <line id="Línea_6220" data-name="Línea 6220" x1="12.222" y1="3.651" transform="translate(848.744 565.584)" fill="none" stroke="#002744" stroke-linecap="round" stroke-miterlimit="10" stroke-width="0.75"/>
    <line id="Línea_6221" data-name="Línea 6221" y1="3.652" x2="12.222" transform="translate(848.514 572.848)" fill="none" stroke="#002744" stroke-linecap="round" stroke-miterlimit="10" stroke-width="0.75"/>
    <line id="Línea_6222" data-name="Línea 6222" y1="0.418" x2="4.742" transform="translate(856.223 571.436)" fill="none" stroke="#002744" stroke-linecap="round" stroke-miterlimit="10" stroke-width="0.75"/>
    <line id="Línea_6223" data-name="Línea 6223" y1="0.142" x2="1.606" transform="translate(851.87 572.096)" fill="none" stroke="#002744" stroke-linecap="round" stroke-miterlimit="10" stroke-width="0.75"/>
  </g>
</svg>
