<svg xmlns="http://www.w3.org/2000/svg" width="60" height="60" viewBox="0 0 60 60">
  <g id="Illustration_Fabric" transform="translate(0)">
    <g id="Grupo_2399" data-name="Grupo 2399" transform="translate(-978.775 -398)">
      <path id="Trazado_17800" data-name="Trazado 17800" d="M150.346,0H193.2a8.572,8.572,0,0,1,8.572,8.571V51.429A8.572,8.572,0,0,1,193.2,60H150.346a8.571,8.571,0,0,1-8.571-8.571V8.571A8.571,8.571,0,0,1,150.346,0" transform="translate(837 398)" fill="#cee6ad"/>
      <path id="Trazado_17801" data-name="Trazado 17801" d="M191.952,33.3v11.95a1.319,1.319,0,0,1-1.32,1.32h-13.7a1.31,1.31,0,0,1-1.31-1.32V33.3a1.31,1.31,0,0,1,1.31-1.32h13.7a1.319,1.319,0,0,1,1.32,1.32" transform="translate(837 398)" fill="#ff895a"/>
      <path id="Trazado_17802" data-name="Trazado 17802" d="M191.952,33.3v11.95a1.319,1.319,0,0,1-1.32,1.32h-3.19V31.982h3.19a1.319,1.319,0,0,1,1.32,1.32" transform="translate(837 398)" fill="#fe5000"/>
      <path id="Trazado_17803" data-name="Trazado 17803" d="M167.929,32.6,164.244,42a1.331,1.331,0,0,1-1.719.748l-12.75-5a1.319,1.319,0,0,1-.741-1.706L153.4,24.913a1.315,1.315,0,0,1,1.7-.754L164.886,28l2.737,1.081-3.143,4.874.163.725.521.392.832-.1Z" transform="translate(837 398)" fill="#ff895a"/>
      <path id="Trazado_17804" data-name="Trazado 17804" d="M167.929,32.6,164.244,42a1.331,1.331,0,0,1-1.719.748l-2.961-1.167L164.886,28l2.737,1.081-3.143,4.874.163.725.521.392.832-.1Z" transform="translate(837 398)" fill="#fe5000"/>
      <path id="Trazado_17805" data-name="Trazado 17805" d="M182.874,46.569c4.8,0,3.857,6.594.215,6.594h11.356a3.3,3.3,0,0,0,0-6.594Z" transform="translate(837 398)" fill="#4d997f"/>
      <path id="Trazado_17806" data-name="Trazado 17806" d="M160.614,46.569h22.26a3.3,3.3,0,1,1,0,6.594H150.552a3.3,3.3,0,0,1,0-6.594h4.537" transform="translate(837 398)" fill="none" stroke="#002744" stroke-linecap="round" stroke-miterlimit="10" stroke-width="0.75"/>
      <line id="Línea_6007" data-name="Línea 6007" x2="1.374" transform="translate(994.524 444.568)" fill="none" stroke="#002744" stroke-linecap="round" stroke-miterlimit="10" stroke-width="0.75"/>
      <path id="Trazado_17807" data-name="Trazado 17807" d="M172.677,46.569h21.768a3.3,3.3,0,0,1,0,6.594H172.677" transform="translate(837 398)" fill="none" stroke="#002744" stroke-linecap="round" stroke-miterlimit="10" stroke-width="0.75"/>
      <path id="Trazado_17808" data-name="Trazado 17808" d="M154.4,49.866a1.833,1.833,0,1,1-1.834-1.834A1.834,1.834,0,0,1,154.4,49.866Z" transform="translate(837 398)" fill="none" stroke="#002744" stroke-linecap="round" stroke-miterlimit="10" stroke-width="0.75"/>
      <path id="Trazado_17809" data-name="Trazado 17809" d="M161.474,49.866a1.833,1.833,0,1,1-1.834-1.834A1.834,1.834,0,0,1,161.474,49.866Z" transform="translate(837 398)" fill="none" stroke="#002744" stroke-linecap="round" stroke-miterlimit="10" stroke-width="0.75"/>
      <path id="Trazado_17810" data-name="Trazado 17810" d="M168.546,49.866a1.834,1.834,0,1,1-1.834-1.834A1.834,1.834,0,0,1,168.546,49.866Z" transform="translate(837 398)" fill="none" stroke="#002744" stroke-linecap="round" stroke-miterlimit="10" stroke-width="0.75"/>
      <path id="Trazado_17811" data-name="Trazado 17811" d="M175.618,49.866a1.833,1.833,0,1,1-1.834-1.834A1.834,1.834,0,0,1,175.618,49.866Z" transform="translate(837 398)" fill="none" stroke="#002744" stroke-linecap="round" stroke-miterlimit="10" stroke-width="0.75"/>
      <path id="Trazado_17812" data-name="Trazado 17812" d="M182.69,49.866a1.834,1.834,0,1,1-1.834-1.834A1.834,1.834,0,0,1,182.69,49.866Z" transform="translate(837 398)" fill="none" stroke="#002744" stroke-linecap="round" stroke-miterlimit="10" stroke-width="0.75"/>
      <rect id="Rectángulo_3413" data-name="Rectángulo 3413" width="16.331" height="14.585" rx="1.287" transform="translate(1012.618 429.984)" fill="none" stroke="#002744" stroke-linecap="round" stroke-miterlimit="10" stroke-width="0.75"/>
      <line id="Línea_6008" data-name="Línea 6008" y2="14.585" transform="translate(1024.672 429.984)" fill="none" stroke="#002744" stroke-linecap="round" stroke-miterlimit="10" stroke-width="0.75"/>
      <rect id="Rectángulo_3414" data-name="Rectángulo 3414" width="2.887" height="3.259" transform="translate(1017.202 429.984)" fill="none" stroke="#002744" stroke-linecap="round" stroke-miterlimit="10" stroke-width="0.75"/>
      <path id="Trazado_17813" data-name="Trazado 17813" d="M167.9,32.676l-3.659,9.352a1.287,1.287,0,0,1-1.667.73l-12.812-5.013a1.286,1.286,0,0,1-.729-1.667l4.376-11.186a1.286,1.286,0,0,1,1.667-.729L167.7,29.1" transform="translate(837 398)" fill="none" stroke="#002744" stroke-linecap="round" stroke-miterlimit="10" stroke-width="0.75"/>
      <line id="Línea_6009" data-name="Línea 6009" x1="5.314" y2="13.582" transform="translate(996.792 426.086)" fill="none" stroke="#002744" stroke-linecap="round" stroke-miterlimit="10" stroke-width="0.75"/>
      <rect id="Rectángulo_3415" data-name="Rectángulo 3415" width="3.259" height="2.887" transform="translate(993.961 426.4) rotate(-68.633)" fill="none" stroke="#002744" stroke-linecap="round" stroke-miterlimit="10" stroke-width="0.75"/>
      <path id="Trazado_17814" data-name="Trazado 17814" d="M167.23,17.247a2.851,2.851,0,1,1-1.937-3.536A2.851,2.851,0,0,1,167.23,17.247Z" transform="translate(837 398)" fill="none" stroke="#002744" stroke-linecap="round" stroke-miterlimit="10" stroke-width="0.75"/>
      <path id="Trazado_17815" data-name="Trazado 17815" d="M168.674,18.323a2.884,2.884,0,0,0,.243-.584A2.85,2.85,0,0,0,166.98,14.2l-1.686-.493" transform="translate(837 398)" fill="none" stroke="#002744" stroke-linecap="round" stroke-miterlimit="10" stroke-width="0.75"/>
      <path id="Trazado_17816" data-name="Trazado 17816" d="M165.68,16.794a1.236,1.236,0,1,1-.84-1.533A1.237,1.237,0,0,1,165.68,16.794Z" transform="translate(837 398)" fill="none" stroke="#002744" stroke-linecap="round" stroke-miterlimit="10" stroke-width="0.75"/>
      <path id="Trazado_17817" data-name="Trazado 17817" d="M153.439,21.4a1.236,1.236,0,1,1-.84-1.533A1.237,1.237,0,0,1,153.439,21.4Z" transform="translate(837 398)" fill="none" stroke="#002744" stroke-linecap="round" stroke-miterlimit="10" stroke-width="0.75"/>
      <path id="Trazado_17818" data-name="Trazado 17818" d="M172.387,26.936a1.236,1.236,0,1,1-.84-1.533A1.237,1.237,0,0,1,172.387,26.936Z" transform="translate(837 398)" fill="none" stroke="#002744" stroke-linecap="round" stroke-miterlimit="10" stroke-width="0.75"/>
      <line id="Línea_6010" data-name="Línea 6010" y1="5.596" x2="10.886" transform="translate(988.66 412.373)" fill="none" stroke="#002744" stroke-linecap="round" stroke-miterlimit="10" stroke-width="0.75"/>
      <line id="Línea_6011" data-name="Línea 6011" y1="3.052" x2="11.086" transform="translate(989.608 417.184)" fill="none" stroke="#002744" stroke-linecap="round" stroke-miterlimit="10" stroke-width="0.75"/>
      <line id="Línea_6012" data-name="Línea 6012" x2="7.059" y2="8.295" transform="translate(1000.076 416.916)" fill="none" stroke="#002744" stroke-linecap="round" stroke-miterlimit="10" stroke-width="0.75"/>
      <line id="Línea_6013" data-name="Línea 6013" x1="5.202" y1="10.722" transform="translate(1004.082 413.271)" fill="none" stroke="#002744" stroke-linecap="round" stroke-miterlimit="10" stroke-width="0.75"/>
      <path id="Trazado_17819" data-name="Trazado 17819" d="M170.1,25.88l-5.447,7.654a1,1,0,0,0,1.6,1.206l5.8-7.264" transform="translate(837 398)" fill="none" stroke="#002744" stroke-linecap="round" stroke-miterlimit="10" stroke-width="0.75"/>
      <line id="Línea_6014" data-name="Línea 6014" x1="0.302" y1="3.247" transform="translate(990.486 419.125)" fill="none" stroke="#002744" stroke-linecap="round" stroke-miterlimit="10" stroke-width="0.75"/>
      <line id="Línea_6015" data-name="Línea 6015" x2="0.98" y2="6.955" transform="translate(988.049 419.334)" fill="none" stroke="#002744" stroke-linecap="round" stroke-miterlimit="10" stroke-width="0.75"/>
      <path id="Trazado_17820" data-name="Trazado 17820" d="M163.561,13.706l0-2.55,2.814.005-.006,2.74" transform="translate(837 398)" fill="none" stroke="#002744" stroke-linecap="round" stroke-miterlimit="10" stroke-width="0.75"/>
      <path id="Trazado_17821" data-name="Trazado 17821" d="M163.573,7.248l0-1.811a.74.74,0,0,1,.742-.738l1.334,0a.74.74,0,0,1,.738.742l0,1.81" transform="translate(837 398)" fill="none" stroke="#002744" stroke-linecap="round" stroke-miterlimit="10" stroke-width="0.75"/>
      <path id="Trazado_17822" data-name="Trazado 17822" d="M166.723,11.161l-3.5-.007a.639.639,0,0,1,0-1.277l3.5.007a.639.639,0,1,1,0,1.277Z" transform="translate(837 398)" fill="none" stroke="#002744" stroke-linecap="round" stroke-miterlimit="10" stroke-width="0.75"/>
      <path id="Trazado_17823" data-name="Trazado 17823" d="M166.728,8.654l-3.5-.007a.639.639,0,0,1,0-1.277l3.5.007a.639.639,0,1,1,0,1.277Z" transform="translate(837 398)" fill="none" stroke="#002744" stroke-linecap="round" stroke-miterlimit="10" stroke-width="0.75"/>
      <path id="Trazado_17824" data-name="Trazado 17824" d="M166.372,9.76l-2.794-.005a.492.492,0,0,1,0-.983l2.794.005a.492.492,0,0,1,0,.983Z" transform="translate(837 398)" fill="none" stroke="#002744" stroke-linecap="round" stroke-miterlimit="10" stroke-width="0.75"/>
    </g>
  </g>
</svg>
