<svg id="Illustration_OtherSpace" xmlns="http://www.w3.org/2000/svg" width="60" height="60" viewBox="0 0 60 60">
  <g id="Grupo_2360" data-name="Grupo 2360" transform="translate(-873.708 -189)">
    <path id="Trazado_17580" data-name="Trazado 17580" d="M79.279,0h42.857a8.572,8.572,0,0,1,8.572,8.571V51.429A8.572,8.572,0,0,1,122.136,60H79.279a8.571,8.571,0,0,1-8.571-8.571V8.571A8.571,8.571,0,0,1,79.279,0" transform="translate(803 189)" fill="#99d6ff"/>
    <path id="Trazado_17581" data-name="Trazado 17581" d="M81.134,49.5H78.087a1.347,1.347,0,0,1-1.346-1.347V43.2a.353.353,0,0,1,.353-.353h5.033a.354.354,0,0,1,.354.353v4.957A1.347,1.347,0,0,1,81.134,49.5" transform="translate(803 189)" fill="#fe5000"/>
    <path id="Trazado_17582" data-name="Trazado 17582" d="M85.055,29.979a45.446,45.446,0,0,0-3.764,5.412h0a65.83,65.83,0,0,0-1.718-8.11A65.6,65.6,0,0,0,78.023,35.4h0a45.378,45.378,0,0,0-3.763-5.412A50.677,50.677,0,0,0,77.4,42.375h.123c0,.117,0,.233,0,.351h4.357c0-.12,0-.238-.006-.357h.036a50.729,50.729,0,0,0,3.147-12.39" transform="translate(803 189)" fill="#ceef9e"/>
    <path id="Trazado_17583" data-name="Trazado 17583" d="M77.477,42.725a65.858,65.858,0,0,1,2.05-15.445,62.518,62.518,0,0,1,2.307,15.445" transform="translate(803 189)" fill="none" stroke="#002744" stroke-linecap="round" stroke-linejoin="round" stroke-width="0.75"/>
    <path id="Trazado_17584" data-name="Trazado 17584" d="M81.247,35.39a45.479,45.479,0,0,1,3.764-5.411,50.716,50.716,0,0,1-3.147,12.389" transform="translate(803 189)" fill="none" stroke="#002744" stroke-linecap="round" stroke-linejoin="round" stroke-width="0.75"/>
    <path id="Trazado_17585" data-name="Trazado 17585" d="M77.975,35.4a45.446,45.446,0,0,0-3.764-5.412,50.73,50.73,0,0,0,3.147,12.39" transform="translate(803 189)" fill="none" stroke="#002744" stroke-linecap="round" stroke-linejoin="round" stroke-width="0.75"/>
    <path id="Trazado_17586" data-name="Trazado 17586" d="M81.134,49.5H78.087a1.347,1.347,0,0,1-1.346-1.347V43.2a.353.353,0,0,1,.353-.353h5.033a.354.354,0,0,1,.354.353v4.957A1.347,1.347,0,0,1,81.134,49.5Z" transform="translate(803 189)" fill="none" stroke="#002744" stroke-linecap="round" stroke-linejoin="round" stroke-width="0.75"/>
    <line id="Línea_5941" data-name="Línea 5941" x2="3.005" transform="translate(882.476 234.576)" fill="none" stroke="#002744" stroke-linecap="round" stroke-linejoin="round" stroke-width="0.75"/>
    <rect id="Rectángulo_3318" data-name="Rectángulo 3318" width="2.718" height="1.485" transform="translate(902.357 201.16)" fill="#cee6ad"/>
    <rect id="Rectángulo_3319" data-name="Rectángulo 3319" width="2.027" height="1.604" transform="translate(902.736 199.75)" fill="#cee6ad"/>
    <path id="Trazado_17587" data-name="Trazado 17587" d="M105.8,21.993H95.606a1.628,1.628,0,0,1-1.628-1.628v-.1a6.466,6.466,0,0,1,6.466-6.466h.515a6.466,6.466,0,0,1,6.466,6.466v.1a1.628,1.628,0,0,1-1.628,1.628" transform="translate(803 189)" fill="#cee6ad"/>
    <path id="Trazado_17588" data-name="Trazado 17588" d="M126.225,39.439v7.64a1.509,1.509,0,0,1-1.51,1.51h-11.84l-.62,0H97.935l-.4,0H85.5a1.507,1.507,0,0,1-1.5-1.51v-7.7a1.632,1.632,0,0,1,1.63-1.64h.87v-1.72a5.348,5.348,0,0,1,5.34-5.35h26.74a5.356,5.356,0,0,1,5.35,5.35V37.8h.66a1.635,1.635,0,0,1,1.64,1.64" transform="translate(803 189)" fill="#ff895a"/>
    <path id="Trazado_17589" data-name="Trazado 17589" d="M101.983,44.456H90.277a1.3,1.3,0,0,1-1.3-1.3V41.623a1.3,1.3,0,0,1,1.3-1.3h11.706a1.3,1.3,0,0,1,1.3,1.3V43.16a1.3,1.3,0,0,1-1.3,1.3" transform="translate(803 189)" fill="#fe5000"/>
    <path id="Trazado_17590" data-name="Trazado 17590" d="M116.666,44.456H104.96a1.3,1.3,0,0,1-1.3-1.3V41.623a1.3,1.3,0,0,1,1.3-1.3h11.706a1.3,1.3,0,0,1,1.3,1.3V43.16a1.3,1.3,0,0,1-1.3,1.3" transform="translate(803 189)" fill="#fe5000"/>
    <path id="Trazado_17591" data-name="Trazado 17591" d="M126.225,39.439v7.64a1.509,1.509,0,0,1-1.51,1.51h-3.3l-.17-.04s1.83-.54,1.83-1.46v-7.07c0-1.84-.76-2.31-2.49-2.31,0-4.68-2.37-7.04-4.98-7.04h2.97a5.356,5.356,0,0,1,5.35,5.35V37.8h.66a1.635,1.635,0,0,1,1.64,1.64" transform="translate(803 189)" fill="#fe5000"/>
    <path id="Trazado_17592" data-name="Trazado 17592" d="M87.348,48.585H85.624a1.633,1.633,0,0,1-1.632-1.634v-7.6a1.633,1.633,0,0,1,1.632-1.633h1.724a1.633,1.633,0,0,1,1.633,1.633v6.943" transform="translate(803 189)" fill="none" stroke="#002744" stroke-linecap="round" stroke-miterlimit="10" stroke-width="0.75"/>
    <line id="Línea_5942" data-name="Línea 5942" x1="2.522" transform="translate(891.472 237.584)" fill="none" stroke="#002744" stroke-linecap="round" stroke-miterlimit="10" stroke-width="0.75"/>
    <line id="Línea_5943" data-name="Línea 5943" x2="26.347" transform="translate(893.362 233.455)" fill="none" stroke="#002744" stroke-linecap="round" stroke-miterlimit="10" stroke-width="0.75"/>
    <rect id="Rectángulo_3320" data-name="Rectángulo 3320" width="14.554" height="4.128" rx="1.547" transform="translate(891.981 229.328)" fill="none" stroke="#002744" stroke-linecap="round" stroke-miterlimit="10" stroke-width="0.75"/>
    <rect id="Rectángulo_3321" data-name="Rectángulo 3321" width="14.554" height="4.128" rx="1.547" transform="translate(906.536 229.328)" fill="none" stroke="#002744" stroke-linecap="round" stroke-miterlimit="10" stroke-width="0.75"/>
    <path id="Trazado_17593" data-name="Trazado 17593" d="M86.486,37.712V36.255a5.584,5.584,0,0,1,5.583-5.583H115a5.584,5.584,0,0,1,5.583,5.583v1.457" transform="translate(803 189)" fill="none" stroke="#002744" stroke-linecap="round" stroke-miterlimit="10" stroke-width="0.75"/>
    <path id="Trazado_17594" data-name="Trazado 17594" d="M93.169,30.673h25.55a5.253,5.253,0,0,1,5.252,5.252v1.788" transform="translate(803 189)" fill="none" stroke="#002744" stroke-linecap="round" stroke-miterlimit="10" stroke-width="0.75"/>
    <path id="Trazado_17595" data-name="Trazado 17595" d="M92.464,48.585h28.983a1.633,1.633,0,0,0,1.633-1.634v-7.6a1.633,1.633,0,0,0-1.633-1.633h-1.723a1.634,1.634,0,0,0-1.634,1.633v7.1" transform="translate(803 189)" fill="none" stroke="#002744" stroke-linecap="round" stroke-miterlimit="10" stroke-width="0.75"/>
    <path id="Trazado_17596" data-name="Trazado 17596" d="M121.714,37.712H124.6a1.644,1.644,0,0,1,1.634,1.652v7.568a1.643,1.643,0,0,1-1.634,1.652h-2.881" transform="translate(803 189)" fill="none" stroke="#002744" stroke-linecap="round" stroke-miterlimit="10" stroke-width="0.75"/>
    <path id="Trazado_17597" data-name="Trazado 17597" d="M86.771,48.584A6.437,6.437,0,0,0,85.6,52.192c-.557,0-.913.274-.913.586s.276.517.78.517h.893a.547.547,0,0,0,.531-.493c.208-1.506,1.6-3.136,2.707-4.218" transform="translate(803 189)" fill="none" stroke="#002744" stroke-linecap="round" stroke-miterlimit="10" stroke-width="0.75"/>
    <path id="Trazado_17598" data-name="Trazado 17598" d="M120.225,48.584a6.437,6.437,0,0,1,1.169,3.608c.557,0,.913.274.913.586s-.276.517-.78.517h-.894a.547.547,0,0,1-.53-.493c-.208-1.506-1.6-3.136-2.707-4.218" transform="translate(803 189)" fill="none" stroke="#002744" stroke-linecap="round" stroke-miterlimit="10" stroke-width="0.75"/>
    <path id="Trazado_17599" data-name="Trazado 17599" d="M106.027,21.993H95.36a1.4,1.4,0,0,1-1.4-1.4V20.25A6.448,6.448,0,0,1,100.41,13.8h.567a6.448,6.448,0,0,1,6.448,6.448v.345A1.4,1.4,0,0,1,106.027,21.993Z" transform="translate(803 189)" fill="none" stroke="#002744" stroke-linecap="round" stroke-miterlimit="10" stroke-width="0.75"/>
    <path id="Trazado_17600" data-name="Trazado 17600" d="M101.432,13.8H99.954a.821.821,0,0,1,0-1.641h1.478a.821.821,0,0,1,0,1.641Z" transform="translate(803 189)" fill="none" stroke="#002744" stroke-linecap="round" stroke-miterlimit="10" stroke-width="0.75"/>
    <path id="Trazado_17601" data-name="Trazado 17601" d="M101.774,12.161H99.613A.164.164,0,0,1,99.449,12v-.221a1.244,1.244,0,1,1,2.488,0V12A.163.163,0,0,1,101.774,12.161Z" transform="translate(803 189)" fill="none" stroke="#002744" stroke-linecap="round" stroke-miterlimit="10" stroke-width="0.75"/>
    <line id="Línea_5944" data-name="Línea 5944" y1="4.996" transform="translate(903.693 194.537)" fill="none" stroke="#002744" stroke-linecap="round" stroke-miterlimit="10" stroke-width="0.75"/>
    <line id="Línea_5945" data-name="Línea 5945" x2="9.067" transform="translate(901.229 208.822)" fill="none" stroke="#002744" stroke-linecap="round" stroke-miterlimit="10" stroke-width="0.75"/>
    <line id="Línea_5946" data-name="Línea 5946" x2="0.29" transform="translate(899.782 208.822)" fill="none" stroke="#002744" stroke-linecap="round" stroke-miterlimit="10" stroke-width="0.75"/>
    <line id="Línea_5947" data-name="Línea 5947" x2="1.512" transform="translate(896.978 208.822)" fill="none" stroke="#002744" stroke-linecap="round" stroke-miterlimit="10" stroke-width="0.75"/>
  </g>
</svg>
