<svg id="illustration_AdquisicionTech" xmlns="http://www.w3.org/2000/svg" width="60" height="60" viewBox="0 0 60 60">
  <g id="Grupo_2472" data-name="Grupo 2472" transform="translate(-879.708 -784)">
    <path id="Trazado_18634" data-name="Trazado 18634" d="M79.279,0h42.857a8.572,8.572,0,0,1,8.572,8.571V51.429A8.572,8.572,0,0,1,122.136,60H79.279a8.571,8.571,0,0,1-8.571-8.571V8.571A8.571,8.571,0,0,1,79.279,0" transform="translate(809 784)" fill="#99d6ff"/>
    <path id="Trazado_18635" data-name="Trazado 18635" d="M119.54,40.65H83.131a1.8,1.8,0,0,1-1.8-1.8V14.469a1.8,1.8,0,0,1,1.8-1.8H119.54a1.8,1.8,0,0,1,1.8,1.8V38.853a1.8,1.8,0,0,1-1.8,1.8" transform="translate(809 784)" fill="#ff895a"/>
    <rect id="Rectángulo_3461" data-name="Rectángulo 3461" width="6.871" height="4.476" transform="translate(905.962 824.84)" fill="#ff895a"/>
    <path id="Trazado_18636" data-name="Trazado 18636" d="M95.822,47.508h-6.25a1.006,1.006,0,0,1,0-2.012h6.25Z" transform="translate(809 784)" fill="#ff895a"/>
    <path id="Trazado_18637" data-name="Trazado 18637" d="M107.077,40.42h-2.791V44.4a1.121,1.121,0,0,1-1.125,1.121L96.632,45.5a1.062,1.062,0,1,0,0,2.123h8.555a1.5,1.5,0,0,0,1.5-1.5v-.012h.393Z" transform="translate(809 784)" fill="#fe5000"/>
    <path id="Trazado_18638" data-name="Trazado 18638" d="M119.683,40.65h-.424c-.544,0-1.806.252-2.152-.114-.32-.34.255-1.279.255-1.783V14.276a1.9,1.9,0,0,1,1.9-1.9h.424a1.9,1.9,0,0,1,1.9,1.9V38.753a1.9,1.9,0,0,1-1.9,1.9" transform="translate(809 784)" fill="#fe5000"/>
    <path id="Trazado_18639" data-name="Trazado 18639" d="M83.811,35.358,99.95,12.672h4.58L88.594,35.358Z" transform="translate(809 784)" fill="#fe5000"/>
    <path id="Trazado_18640" data-name="Trazado 18640" d="M107.292,12.672h4.561L97.4,26.734Z" transform="translate(809 784)" fill="#fe5000"/>
    <path id="Trazado_18641" data-name="Trazado 18641" d="M81.335,27.974v6.065H82.3L97.4,12.673H91.878Z" transform="translate(809 784)" fill="#fe5000"/>
    <path id="Trazado_18642" data-name="Trazado 18642" d="M120.426,47.348h-6.937a3.213,3.213,0,0,1,3.213-3.212h1.477a2.247,2.247,0,0,1,2.247,2.247Z" transform="translate(809 784)" fill="#09f"/>
    <rect id="Rectángulo_3462" data-name="Rectángulo 3462" width="40.003" height="28.271" rx="1.994" transform="translate(890.334 796.379)" fill="none" stroke="#002744" stroke-linecap="round" stroke-miterlimit="10" stroke-width="0.75"/>
    <path id="Trazado_18643" data-name="Trazado 18643" d="M119.393,12.379a1.878,1.878,0,0,0-1.99,2.054V38.941a1.709,1.709,0,0,1-1.709,1.709" transform="translate(809 784)" fill="none" stroke="#002744" stroke-linecap="round" stroke-miterlimit="10" stroke-width="0.75"/>
    <path id="Trazado_18644" data-name="Trazado 18644" d="M104.114,40.65v4.074a.772.772,0,0,1-.772.772H96.629a1.063,1.063,0,1,0,0,2.125h7.914a2.533,2.533,0,0,0,2.534-2.534V40.65Z" transform="translate(809 784)" fill="none" stroke="#002744" stroke-linecap="round" stroke-miterlimit="10" stroke-width="0.75"/>
    <path id="Trazado_18645" data-name="Trazado 18645" d="M99.926,40.65H96.963v4.074a.772.772,0,0,1-.772.772H89.478a1.063,1.063,0,1,0,0,2.125h7.914" transform="translate(809 784)" fill="none" stroke="#002744" stroke-linecap="round" stroke-miterlimit="10" stroke-width="0.75"/>
    <line id="Línea_6311" data-name="Línea 6311" x2="40.317" transform="translate(892.811 831.621)" fill="none" stroke="#002744" stroke-linecap="round" stroke-miterlimit="10" stroke-width="0.75"/>
    <line id="Línea_6312" data-name="Línea 6312" x2="2.308" transform="translate(886.288 831.621)" fill="none" stroke="#002744" stroke-linecap="round" stroke-miterlimit="10" stroke-width="0.75"/>
    <path id="Trazado_18646" data-name="Trazado 18646" d="M113.49,47.621a3.721,3.721,0,0,1,6.937-1.873,1.235,1.235,0,0,1-1.047,1.873Z" transform="translate(809 784)" fill="none" stroke="#002744" stroke-linecap="round" stroke-miterlimit="10" stroke-width="0.75"/>
    <path id="Trazado_18647" data-name="Trazado 18647" d="M117.362,45.123a7.734,7.734,0,0,1,2.03-.509" transform="translate(809 784)" fill="none" stroke="#002744" stroke-linecap="round" stroke-miterlimit="10" stroke-width="0.75"/>
    <path id="Trazado_18648" data-name="Trazado 18648" d="M95.189,35.333H120.92" transform="translate(809 784)" fill="none" stroke="#002744" stroke-linecap="round" stroke-miterlimit="10" stroke-width="0.75"/>
    <line id="Línea_6313" data-name="Línea 6313" x2="0.99" transform="translate(899.736 819.357)" fill="none" stroke="#002744" stroke-linecap="round" stroke-miterlimit="10" stroke-width="0.75"/>
    <line id="Línea_6314" data-name="Línea 6314" x2="6.775" transform="translate(890.334 819.332)" fill="none" stroke="#002744" stroke-linecap="round" stroke-miterlimit="10" stroke-width="0.75"/>
  </g>
</svg>
