<svg id="Illustration_Fabric" xmlns="http://www.w3.org/2000/svg" width="60" height="60" viewBox="0 0 60 60">
  <g id="Grupo_2400" data-name="Grupo 2400" transform="translate(-907.708 -398)">
    <path id="Trazado_17825" data-name="Trazado 17825" d="M79.279,0h42.857a8.572,8.572,0,0,1,8.572,8.571V51.429A8.572,8.572,0,0,1,122.136,60H79.279a8.571,8.571,0,0,1-8.571-8.571V8.571A8.571,8.571,0,0,1,79.279,0" transform="translate(837 398)" fill="#99d6ff"/>
    <path id="Trazado_17826" data-name="Trazado 17826" d="M120.885,33.3v11.95a1.319,1.319,0,0,1-1.32,1.32h-13.7a1.31,1.31,0,0,1-1.31-1.32V33.3a1.31,1.31,0,0,1,1.31-1.32h13.7a1.319,1.319,0,0,1,1.32,1.32" transform="translate(837 398)" fill="#ff895a"/>
    <path id="Trazado_17827" data-name="Trazado 17827" d="M120.885,33.3v11.95a1.319,1.319,0,0,1-1.32,1.32h-3.19V31.982h3.19a1.319,1.319,0,0,1,1.32,1.32" transform="translate(837 398)" fill="#fe5000"/>
    <path id="Trazado_17828" data-name="Trazado 17828" d="M96.862,32.6,93.177,42a1.331,1.331,0,0,1-1.719.748l-12.75-5a1.32,1.32,0,0,1-.742-1.706l4.367-11.132a1.315,1.315,0,0,1,1.7-.754L93.819,28l2.737,1.081-3.143,4.874.163.725.521.392.832-.1Z" transform="translate(837 398)" fill="#ff895a"/>
    <path id="Trazado_17829" data-name="Trazado 17829" d="M96.862,32.6,93.177,42a1.331,1.331,0,0,1-1.719.748L88.5,41.58,93.819,28l2.737,1.081-3.143,4.874.163.725.521.392.832-.1Z" transform="translate(837 398)" fill="#fe5000"/>
    <path id="Trazado_17830" data-name="Trazado 17830" d="M111.807,46.569c4.8,0,3.857,6.594.214,6.594h11.357a3.3,3.3,0,0,0,0-6.594Z" transform="translate(837 398)" fill="#09f"/>
    <path id="Trazado_17831" data-name="Trazado 17831" d="M89.547,46.569h22.26a3.3,3.3,0,0,1,0,6.594H79.485a3.3,3.3,0,0,1,0-6.594h4.537" transform="translate(837 398)" fill="none" stroke="#002744" stroke-linecap="round" stroke-miterlimit="10" stroke-width="0.75"/>
    <line id="Línea_6016" data-name="Línea 6016" x2="1.374" transform="translate(923.458 444.568)" fill="none" stroke="#002744" stroke-linecap="round" stroke-miterlimit="10" stroke-width="0.75"/>
    <path id="Trazado_17832" data-name="Trazado 17832" d="M101.61,46.569h21.768a3.3,3.3,0,1,1,0,6.594H101.61" transform="translate(837 398)" fill="none" stroke="#002744" stroke-linecap="round" stroke-miterlimit="10" stroke-width="0.75"/>
    <path id="Trazado_17833" data-name="Trazado 17833" d="M83.335,49.866A1.833,1.833,0,1,1,81.5,48.032,1.834,1.834,0,0,1,83.335,49.866Z" transform="translate(837 398)" fill="none" stroke="#002744" stroke-linecap="round" stroke-miterlimit="10" stroke-width="0.75"/>
    <path id="Trazado_17834" data-name="Trazado 17834" d="M90.407,49.866a1.833,1.833,0,1,1-1.834-1.834A1.834,1.834,0,0,1,90.407,49.866Z" transform="translate(837 398)" fill="none" stroke="#002744" stroke-linecap="round" stroke-miterlimit="10" stroke-width="0.75"/>
    <path id="Trazado_17835" data-name="Trazado 17835" d="M97.479,49.866a1.833,1.833,0,1,1-1.834-1.834A1.834,1.834,0,0,1,97.479,49.866Z" transform="translate(837 398)" fill="none" stroke="#002744" stroke-linecap="round" stroke-miterlimit="10" stroke-width="0.75"/>
    <path id="Trazado_17836" data-name="Trazado 17836" d="M104.551,49.866a1.833,1.833,0,1,1-1.834-1.834A1.834,1.834,0,0,1,104.551,49.866Z" transform="translate(837 398)" fill="none" stroke="#002744" stroke-linecap="round" stroke-miterlimit="10" stroke-width="0.75"/>
    <path id="Trazado_17837" data-name="Trazado 17837" d="M111.623,49.866a1.833,1.833,0,1,1-1.834-1.834A1.834,1.834,0,0,1,111.623,49.866Z" transform="translate(837 398)" fill="none" stroke="#002744" stroke-linecap="round" stroke-miterlimit="10" stroke-width="0.75"/>
    <rect id="Rectángulo_3416" data-name="Rectángulo 3416" width="16.331" height="14.585" rx="1.287" transform="translate(941.551 429.984)" fill="none" stroke="#002744" stroke-linecap="round" stroke-miterlimit="10" stroke-width="0.75"/>
    <line id="Línea_6017" data-name="Línea 6017" y2="14.585" transform="translate(953.605 429.984)" fill="none" stroke="#002744" stroke-linecap="round" stroke-miterlimit="10" stroke-width="0.75"/>
    <rect id="Rectángulo_3417" data-name="Rectángulo 3417" width="2.887" height="3.259" transform="translate(946.135 429.984)" fill="none" stroke="#002744" stroke-linecap="round" stroke-miterlimit="10" stroke-width="0.75"/>
    <path id="Trazado_17838" data-name="Trazado 17838" d="M96.835,32.676l-3.659,9.352a1.287,1.287,0,0,1-1.667.73L78.7,37.745a1.286,1.286,0,0,1-.729-1.667l4.376-11.186a1.286,1.286,0,0,1,1.667-.729L96.63,29.1" transform="translate(837 398)" fill="none" stroke="#002744" stroke-linecap="round" stroke-miterlimit="10" stroke-width="0.75"/>
    <line id="Línea_6018" data-name="Línea 6018" x1="5.314" y2="13.582" transform="translate(925.725 426.086)" fill="none" stroke="#002744" stroke-linecap="round" stroke-miterlimit="10" stroke-width="0.75"/>
    <rect id="Rectángulo_3418" data-name="Rectángulo 3418" width="3.259" height="2.887" transform="matrix(0.364, -0.931, 0.931, 0.364, 922.894, 426.4)" fill="none" stroke="#002744" stroke-linecap="round" stroke-miterlimit="10" stroke-width="0.75"/>
    <path id="Trazado_17839" data-name="Trazado 17839" d="M96.163,17.247a2.851,2.851,0,1,1-1.937-3.536A2.851,2.851,0,0,1,96.163,17.247Z" transform="translate(837 398)" fill="none" stroke="#002744" stroke-linecap="round" stroke-miterlimit="10" stroke-width="0.75"/>
    <path id="Trazado_17840" data-name="Trazado 17840" d="M97.607,18.323a2.884,2.884,0,0,0,.243-.584A2.85,2.85,0,0,0,95.913,14.2l-1.686-.493" transform="translate(837 398)" fill="none" stroke="#002744" stroke-linecap="round" stroke-miterlimit="10" stroke-width="0.75"/>
    <path id="Trazado_17841" data-name="Trazado 17841" d="M94.613,16.794a1.236,1.236,0,1,1-.84-1.533A1.237,1.237,0,0,1,94.613,16.794Z" transform="translate(837 398)" fill="none" stroke="#002744" stroke-linecap="round" stroke-miterlimit="10" stroke-width="0.75"/>
    <path id="Trazado_17842" data-name="Trazado 17842" d="M82.372,21.4a1.236,1.236,0,1,1-.84-1.533A1.237,1.237,0,0,1,82.372,21.4Z" transform="translate(837 398)" fill="none" stroke="#002744" stroke-linecap="round" stroke-miterlimit="10" stroke-width="0.75"/>
    <path id="Trazado_17843" data-name="Trazado 17843" d="M101.32,26.936a1.236,1.236,0,1,1-.84-1.533A1.237,1.237,0,0,1,101.32,26.936Z" transform="translate(837 398)" fill="none" stroke="#002744" stroke-linecap="round" stroke-miterlimit="10" stroke-width="0.75"/>
    <line id="Línea_6019" data-name="Línea 6019" y1="5.596" x2="10.886" transform="translate(917.593 412.373)" fill="none" stroke="#002744" stroke-linecap="round" stroke-miterlimit="10" stroke-width="0.75"/>
    <line id="Línea_6020" data-name="Línea 6020" y1="3.052" x2="11.086" transform="translate(918.541 417.184)" fill="none" stroke="#002744" stroke-linecap="round" stroke-miterlimit="10" stroke-width="0.75"/>
    <line id="Línea_6021" data-name="Línea 6021" x2="7.059" y2="8.295" transform="translate(929.009 416.916)" fill="none" stroke="#002744" stroke-linecap="round" stroke-miterlimit="10" stroke-width="0.75"/>
    <line id="Línea_6022" data-name="Línea 6022" x1="5.202" y1="10.722" transform="translate(933.015 413.271)" fill="none" stroke="#002744" stroke-linecap="round" stroke-miterlimit="10" stroke-width="0.75"/>
    <path id="Trazado_17844" data-name="Trazado 17844" d="M99.034,25.88l-5.447,7.654a1,1,0,0,0,1.6,1.206l5.8-7.264" transform="translate(837 398)" fill="none" stroke="#002744" stroke-linecap="round" stroke-miterlimit="10" stroke-width="0.75"/>
    <line id="Línea_6023" data-name="Línea 6023" x1="0.302" y1="3.247" transform="translate(919.419 419.125)" fill="none" stroke="#002744" stroke-linecap="round" stroke-miterlimit="10" stroke-width="0.75"/>
    <line id="Línea_6024" data-name="Línea 6024" x2="0.98" y2="6.955" transform="translate(916.982 419.334)" fill="none" stroke="#002744" stroke-linecap="round" stroke-miterlimit="10" stroke-width="0.75"/>
    <path id="Trazado_17845" data-name="Trazado 17845" d="M92.494,13.706l0-2.55,2.814.005-.006,2.74" transform="translate(837 398)" fill="none" stroke="#002744" stroke-linecap="round" stroke-miterlimit="10" stroke-width="0.75"/>
    <path id="Trazado_17846" data-name="Trazado 17846" d="M92.506,7.248l0-1.811a.74.74,0,0,1,.742-.738l1.334,0a.74.74,0,0,1,.738.742l0,1.81" transform="translate(837 398)" fill="none" stroke="#002744" stroke-linecap="round" stroke-miterlimit="10" stroke-width="0.75"/>
    <path id="Trazado_17847" data-name="Trazado 17847" d="M95.656,11.161l-3.5-.007a.639.639,0,0,1,0-1.277l3.5.007a.639.639,0,1,1,0,1.277Z" transform="translate(837 398)" fill="none" stroke="#002744" stroke-linecap="round" stroke-miterlimit="10" stroke-width="0.75"/>
    <path id="Trazado_17848" data-name="Trazado 17848" d="M95.661,8.654l-3.5-.007a.639.639,0,0,1,0-1.277l3.5.007a.639.639,0,1,1,0,1.277Z" transform="translate(837 398)" fill="none" stroke="#002744" stroke-linecap="round" stroke-miterlimit="10" stroke-width="0.75"/>
    <path id="Trazado_17849" data-name="Trazado 17849" d="M95.305,9.76l-2.794-.005a.492.492,0,0,1,0-.983l2.794.005a.492.492,0,0,1,0,.983Z" transform="translate(837 398)" fill="none" stroke="#002744" stroke-linecap="round" stroke-miterlimit="10" stroke-width="0.75"/>
  </g>
</svg>
