<svg id="illustration_Residuos" xmlns="http://www.w3.org/2000/svg" width="60" height="60" viewBox="0 0 60 60">
  <g id="Grupo_2462" data-name="Grupo 2462" transform="translate(0)">
    <path id="Trazado_18512" data-name="Trazado 18512" d="M221.377,0h42.857a8.572,8.572,0,0,1,8.572,8.571V51.429A8.572,8.572,0,0,1,264.234,60H221.377a8.571,8.571,0,0,1-8.571-8.571V8.571A8.571,8.571,0,0,1,221.377,0" transform="translate(-212.806)" fill="#f7f9f7"/>
    <path id="Trazado_18513" data-name="Trazado 18513" d="M232.444,11.253l21.774-.015a1.179,1.179,0,1,1,0,2.358L232.3,13.581" transform="translate(-212.806)" fill="#c6cccb"/>
    <path id="Trazado_18514" data-name="Trazado 18514" d="M238.828,8.253h8.184a6.612,6.612,0,0,1,3.625,1.082l2.9,1.9H232.3" transform="translate(-212.806)" fill="#c6cccb"/>
    <path id="Trazado_18515" data-name="Trazado 18515" d="M233.731,13.6h20.61a1.082,1.082,0,0,1,1.081,1.148l-1.935,32.43a4.862,4.862,0,0,1-4.853,4.572H233.291" transform="translate(-212.806)" fill="#c6cccb"/>
    <path id="Trazado_18516" data-name="Trazado 18516" d="M228.189,42.412l-.834-27.945a.845.845,0,0,1,.845-.87h21.57a.845.845,0,0,1,.844.9L248.625,47.82a4.176,4.176,0,0,1-4.168,3.927H228.468" transform="translate(-212.806)" fill="#eef9ed"/>
    <path id="Trazado_18517" data-name="Trazado 18517" d="M250.3,13.6l-21.918-.015a7.334,7.334,0,0,0-2.381.4l-4.218,1.731a1.119,1.119,0,0,1-.738-2.113l4.059-1.754a10.285,10.285,0,0,1,3.422-.589l21.774-.015a1.179,1.179,0,1,1,0,2.358" transform="translate(-212.806)" fill="#eef9ed"/>
    <path id="Trazado_18518" data-name="Trazado 18518" d="M250.059,11.239H228.817l2.9-1.9a6.612,6.612,0,0,1,3.625-1.082h8.184a6.618,6.618,0,0,1,3.626,1.082Z" transform="translate(-212.806)" fill="#eef9ed"/>
    <path id="Trazado_18519" data-name="Trazado 18519" d="M228.426,42.412h2.542a4.668,4.668,0,0,1,0,9.335h-2.542" transform="translate(-212.806)" fill="#c6cccb"/>
    <path id="Trazado_18520" data-name="Trazado 18520" d="M233.093,47.079a4.668,4.668,0,1,1-4.667-4.667,4.667,4.667,0,0,1,4.667,4.667" transform="translate(-212.806)" fill="#eef9ed"/>
    <path id="Trazado_18521" data-name="Trazado 18521" d="M229.729,47.079a1.3,1.3,0,1,1-1.3-1.3,1.3,1.3,0,0,1,1.3,1.3" transform="translate(-212.806)" fill="#c6cccb"/>
    <path id="Trazado_18522" data-name="Trazado 18522" d="M227.3,18.805l-.108-3.63a1.532,1.532,0,0,1,1.531-1.578h20.872a.836.836,0,0,1,.835.887l-1.951,32.69a4.862,4.862,0,0,1-4.853,4.572H228.279" transform="translate(-212.806)" fill="none" stroke="#002744" stroke-linecap="round" stroke-miterlimit="10" stroke-width="0.75"/>
    <line id="Línea_6283" data-name="Línea 6283" x1="0.026" y1="0.887" transform="translate(14.552 20.85)" fill="none" stroke="#002744" stroke-linecap="round" stroke-miterlimit="10" stroke-width="0.75"/>
    <line id="Línea_6284" data-name="Línea 6284" x1="0.492" y1="16.486" transform="translate(14.703 25.926)" fill="none" stroke="#002744" stroke-linecap="round" stroke-miterlimit="10" stroke-width="0.75"/>
    <path id="Trazado_18523" data-name="Trazado 18523" d="M233.543,13.6h20.74a.961.961,0,0,1,.959,1.019L253.3,47.175a4.862,4.862,0,0,1-4.853,4.572H233.1" transform="translate(-212.806)" fill="none" stroke="#002744" stroke-linecap="round" stroke-miterlimit="10" stroke-width="0.75"/>
    <path id="Trazado_18524" data-name="Trazado 18524" d="M250.112,13.6l-21.918-.015a7.334,7.334,0,0,0-2.381.4L221.6,15.709a1.119,1.119,0,0,1-.738-2.113l4.059-1.754a10.285,10.285,0,0,1,3.422-.589l21.774-.015a1.179,1.179,0,1,1,0,2.358Z" transform="translate(-212.806)" fill="none" stroke="#002744" stroke-linecap="round" stroke-miterlimit="10" stroke-width="0.75"/>
    <path id="Trazado_18525" data-name="Trazado 18525" d="M232.255,11.253l21.774-.015a1.179,1.179,0,0,1,0,2.358l-21.919-.015" transform="translate(-212.806)" fill="none" stroke="#002744" stroke-linecap="round" stroke-miterlimit="10" stroke-width="0.75"/>
    <path id="Trazado_18526" data-name="Trazado 18526" d="M249.871,11.239H228.629l2.9-1.9a6.612,6.612,0,0,1,3.625-1.082h8.184a6.618,6.618,0,0,1,3.626,1.082Z" transform="translate(-212.806)" fill="none" stroke="#002744" stroke-linecap="round" stroke-miterlimit="10" stroke-width="0.75"/>
    <path id="Trazado_18527" data-name="Trazado 18527" d="M238.639,8.253h8.184a6.612,6.612,0,0,1,3.625,1.082l2.9,1.9H232.11" transform="translate(-212.806)" fill="none" stroke="#002744" stroke-linecap="round" stroke-miterlimit="10" stroke-width="0.75"/>
    <path id="Trazado_18528" data-name="Trazado 18528" d="M232.9,47.079a4.667,4.667,0,1,1-4.667-4.667A4.667,4.667,0,0,1,232.9,47.079Z" transform="translate(-212.806)" fill="none" stroke="#002744" stroke-linecap="round" stroke-miterlimit="10" stroke-width="0.75"/>
    <path id="Trazado_18529" data-name="Trazado 18529" d="M228.238,42.412h2.542a4.668,4.668,0,0,1,0,9.335h-2.542" transform="translate(-212.806)" fill="none" stroke="#002744" stroke-linecap="round" stroke-miterlimit="10" stroke-width="0.75"/>
    <line id="Línea_6285" data-name="Línea 6285" x2="19.019" transform="translate(22.641 18.805)" fill="none" stroke="#002744" stroke-linecap="round" stroke-miterlimit="10" stroke-width="0.75"/>
    <circle id="Elipse_175" data-name="Elipse 175" cx="1.303" cy="1.303" r="1.303" transform="translate(14.129 45.777)" fill="none" stroke="#002744" stroke-linecap="round" stroke-miterlimit="10" stroke-width="0.75"/>
    <path id="Trazado_18530" data-name="Trazado 18530" d="M262.709,41.6l-2.676-4.468a1.039,1.039,0,0,0-.823-.4h-1.323a1.044,1.044,0,0,0-.984.695L252.469,47.7a3.162,3.162,0,0,0,3.037,4.044h4.25a5.766,5.766,0,0,0,5.569-4.273A5.108,5.108,0,0,0,262.709,41.6Z" transform="translate(-212.806)" fill="#c6cccb"/>
    <path id="Trazado_18531" data-name="Trazado 18531" d="M257.885,35.614a.828.828,0,0,1-.825-.757l-.5-5.762a1.04,1.04,0,0,1,2.021-.423l.226.668a3.619,3.619,0,0,0,3.912,2.426.716.716,0,0,1,.763.455,1.332,1.332,0,0,1-.6,1.636l-2.966,1.652a.827.827,0,0,1-.4.1Z" transform="translate(-212.806)" fill="#c6cccb"/>
    <path id="Trazado_18532" data-name="Trazado 18532" d="M262.52,41.6l-2.676-4.468a1.041,1.041,0,0,0-.823-.4H257.7a1.044,1.044,0,0,0-.984.695L252.28,47.7a3.162,3.162,0,0,0,3.037,4.044h4.25a5.766,5.766,0,0,0,5.569-4.273A5.108,5.108,0,0,0,262.52,41.6Z" transform="translate(-212.806)" fill="none" stroke="#002744" stroke-linecap="round" stroke-miterlimit="10" stroke-width="0.75"/>
    <path id="Trazado_18533" data-name="Trazado 18533" d="M257.7,35.614a.828.828,0,0,1-.826-.757l-.5-5.762a1.04,1.04,0,0,1,2.021-.423l.226.668a3.619,3.619,0,0,0,3.912,2.426.716.716,0,0,1,.763.455,1.332,1.332,0,0,1-.6,1.636l-2.966,1.652a.827.827,0,0,1-.4.1Z" transform="translate(-212.806)" fill="none" stroke="#002744" stroke-linecap="round" stroke-miterlimit="10" stroke-width="0.75"/>
    <path id="Trazado_18534" data-name="Trazado 18534" d="M262.069,43.6c1.455,2.139,1.337,3.951.178,5.406" transform="translate(-212.806)" fill="none" stroke="#002744" stroke-linecap="round" stroke-miterlimit="10" stroke-width="0.75"/>
    <line id="Línea_6286" data-name="Línea 6286" x1="0.713" y1="1.396" transform="translate(47.629 40.834)" fill="none" stroke="#002744" stroke-linecap="round" stroke-miterlimit="10" stroke-width="0.75"/>
    <line id="Línea_6287" data-name="Línea 6287" x1="0.056" y1="4.53" transform="translate(45.586 28.672)" fill="none" stroke="#002744" stroke-linecap="round" stroke-miterlimit="10" stroke-width="0.75"/>
  </g>
</svg>
