<svg id="illustration_AdquisicionTech" xmlns="http://www.w3.org/2000/svg" width="60" height="60" viewBox="0 0 60 60">
  <g id="Grupo_2470" data-name="Grupo 2470" transform="translate(-809 -784)">
    <path id="Trazado_18649" data-name="Trazado 18649" d="M8.571,0H51.428A8.572,8.572,0,0,1,60,8.571V51.429A8.572,8.572,0,0,1,51.428,60H8.571A8.571,8.571,0,0,1,0,51.429V8.571A8.571,8.571,0,0,1,8.571,0" transform="translate(809 784)" fill="#eef9ed"/>
    <path id="Trazado_18650" data-name="Trazado 18650" d="M48.832,40.65H12.423a1.8,1.8,0,0,1-1.8-1.8V14.469a1.8,1.8,0,0,1,1.8-1.8H48.832a1.8,1.8,0,0,1,1.8,1.8V38.853a1.8,1.8,0,0,1-1.8,1.8" transform="translate(809 784)" fill="#ff895a"/>
    <rect id="Rectángulo_3463" data-name="Rectángulo 3463" width="6.871" height="4.476" transform="translate(835.254 824.84)" fill="#ff895a"/>
    <path id="Trazado_18651" data-name="Trazado 18651" d="M25.114,47.508h-6.25a1.006,1.006,0,1,1,0-2.012h6.25Z" transform="translate(809 784)" fill="#ff895a"/>
    <path id="Trazado_18652" data-name="Trazado 18652" d="M36.369,40.42H33.578V44.4a1.121,1.121,0,0,1-1.125,1.121L25.924,45.5a1.062,1.062,0,1,0,0,2.123h8.555a1.5,1.5,0,0,0,1.5-1.5v-.012h.393Z" transform="translate(809 784)" fill="#fe5000"/>
    <path id="Trazado_18653" data-name="Trazado 18653" d="M48.975,40.65h-.424c-.544,0-1.806.252-2.152-.114-.32-.34.255-1.279.255-1.783V14.276a1.9,1.9,0,0,1,1.9-1.9h.424a1.9,1.9,0,0,1,1.9,1.9V38.753a1.9,1.9,0,0,1-1.9,1.9" transform="translate(809 784)" fill="#fe5000"/>
    <path id="Trazado_18654" data-name="Trazado 18654" d="M13.1,35.358,29.242,12.672h4.58L17.886,35.358Z" transform="translate(809 784)" fill="#fe5000"/>
    <path id="Trazado_18655" data-name="Trazado 18655" d="M36.584,12.672h4.561L26.694,26.734Z" transform="translate(809 784)" fill="#fe5000"/>
    <path id="Trazado_18656" data-name="Trazado 18656" d="M10.627,27.974v6.065h.964l15.1-21.366H21.17Z" transform="translate(809 784)" fill="#fe5000"/>
    <path id="Trazado_18657" data-name="Trazado 18657" d="M49.718,47.348H42.781a3.213,3.213,0,0,1,3.213-3.212h1.477a2.247,2.247,0,0,1,2.247,2.247Z" transform="translate(809 784)" fill="#cee6ad"/>
    <rect id="Rectángulo_3464" data-name="Rectángulo 3464" width="40.003" height="28.271" rx="1.994" transform="translate(819.626 796.379)" fill="none" stroke="#002744" stroke-linecap="round" stroke-miterlimit="10" stroke-width="0.75"/>
    <path id="Trazado_18658" data-name="Trazado 18658" d="M48.685,12.379A1.878,1.878,0,0,0,46.7,14.433V38.941a1.709,1.709,0,0,1-1.709,1.709" transform="translate(809 784)" fill="none" stroke="#002744" stroke-linecap="round" stroke-miterlimit="10" stroke-width="0.75"/>
    <path id="Trazado_18659" data-name="Trazado 18659" d="M33.406,40.65v4.074a.772.772,0,0,1-.772.772H25.921a1.063,1.063,0,1,0,0,2.125h7.914a2.533,2.533,0,0,0,2.534-2.534V40.65Z" transform="translate(809 784)" fill="none" stroke="#002744" stroke-linecap="round" stroke-miterlimit="10" stroke-width="0.75"/>
    <path id="Trazado_18660" data-name="Trazado 18660" d="M29.218,40.65H26.255v4.074a.772.772,0,0,1-.772.772H18.77a1.063,1.063,0,1,0,0,2.125h7.914" transform="translate(809 784)" fill="none" stroke="#002744" stroke-linecap="round" stroke-miterlimit="10" stroke-width="0.75"/>
    <line id="Línea_6315" data-name="Línea 6315" x2="40.317" transform="translate(822.103 831.621)" fill="none" stroke="#002744" stroke-linecap="round" stroke-miterlimit="10" stroke-width="0.75"/>
    <line id="Línea_6316" data-name="Línea 6316" x2="2.308" transform="translate(815.581 831.621)" fill="none" stroke="#002744" stroke-linecap="round" stroke-miterlimit="10" stroke-width="0.75"/>
    <path id="Trazado_18661" data-name="Trazado 18661" d="M42.782,47.621a3.721,3.721,0,0,1,6.937-1.873,1.235,1.235,0,0,1-1.047,1.873Z" transform="translate(809 784)" fill="none" stroke="#002744" stroke-linecap="round" stroke-miterlimit="10" stroke-width="0.75"/>
    <path id="Trazado_18662" data-name="Trazado 18662" d="M46.654,45.123a7.734,7.734,0,0,1,2.03-.509" transform="translate(809 784)" fill="none" stroke="#002744" stroke-linecap="round" stroke-miterlimit="10" stroke-width="0.75"/>
    <path id="Trazado_18663" data-name="Trazado 18663" d="M24.482,35.333H50.213" transform="translate(809 784)" fill="none" stroke="#002744" stroke-linecap="round" stroke-miterlimit="10" stroke-width="0.75"/>
    <line id="Línea_6317" data-name="Línea 6317" x2="0.99" transform="translate(829.028 819.357)" fill="none" stroke="#002744" stroke-linecap="round" stroke-miterlimit="10" stroke-width="0.75"/>
    <line id="Línea_6318" data-name="Línea 6318" x2="6.775" transform="translate(819.627 819.332)" fill="none" stroke="#002744" stroke-linecap="round" stroke-miterlimit="10" stroke-width="0.75"/>
  </g>
</svg>
