<svg id="illustration_ConsumoAgua" xmlns="http://www.w3.org/2000/svg" width="60" height="60" viewBox="0 0 60 60">
  <g id="Grupo_2479" data-name="Grupo 2479" transform="translate(-895.775 -826)">
    <path id="Trazado_18686" data-name="Trazado 18686" d="M150.346,0H193.2a8.572,8.572,0,0,1,8.572,8.571V51.429A8.572,8.572,0,0,1,193.2,60H150.346a8.571,8.571,0,0,1-8.571-8.571V8.571A8.571,8.571,0,0,1,150.346,0" transform="translate(754 826)" fill="#cee6ad"/>
    <path id="Trazado_18687" data-name="Trazado 18687" d="M181.208,21.3h7.436a.806.806,0,0,0,.806-.806v-1.7a5.9,5.9,0,0,0-5.9-5.9h-3.222" transform="translate(754 826)" fill="#fe5000"/>
    <path id="Trazado_18688" data-name="Trazado 18688" d="M181.171,22.95h7.8a.585.585,0,0,1,.585.585V39.343a.69.69,0,0,1-.689.689h-8.281" transform="translate(754 826)" fill="#fe5000"/>
    <path id="Trazado_18689" data-name="Trazado 18689" d="M180.616,40.032h9.634a2.437,2.437,0,0,1,2.437,2.437v.455a.5.5,0,0,1-.5.5H178.68" transform="translate(754 826)" fill="#fe5000"/>
    <path id="Trazado_18690" data-name="Trazado 18690" d="M179.053,43.425h12.76a.874.874,0,0,1,0,1.748h-12.76" transform="translate(754 826)" fill="#fe5000"/>
    <path id="Trazado_18691" data-name="Trazado 18691" d="M159.526,14.331h0a1.443,1.443,0,0,0,1.443,1.443H172.9a4.719,4.719,0,0,1,4.719,4.719.806.806,0,0,0,.806.806h7.436a.806.806,0,0,0,.806-.806v-1.7a5.9,5.9,0,0,0-5.9-5.9h-19.8a1.443,1.443,0,0,0-1.443,1.443" transform="translate(754 826)" fill="#ff895a"/>
    <path id="Trazado_18692" data-name="Trazado 18692" d="M178.285,22.95h7.8a.585.585,0,0,1,.585.585v16.5H177.7v-.914a5.91,5.91,0,0,0-5.549-5.9L151.76,31.974a.95.95,0,0,1-.892-.948,5.269,5.269,0,0,1,5.346-5.268L172.708,26c3.939.073,4.992-1.068,4.992-2.462a.585.585,0,0,1,.585-.585" transform="translate(754 826)" fill="#ff895a"/>
    <path id="Trazado_18693" data-name="Trazado 18693" d="M189.444,43.425H175.938a.5.5,0,0,1-.5-.5v-.455a2.437,2.437,0,0,1,2.437-2.437h9.634a2.437,2.437,0,0,1,2.437,2.437v.455a.5.5,0,0,1-.5.5" transform="translate(754 826)" fill="#ff895a"/>
    <path id="Trazado_18694" data-name="Trazado 18694" d="M160.25,35.417l-6.975-.407a.353.353,0,0,1-.333-.374l.128-2.2a.354.354,0,0,1,.374-.333l6.976.407a.354.354,0,0,1,.333.374l-.129,2.2a.354.354,0,0,1-.374.333" transform="translate(754 826)" fill="#ff895a"/>
    <path id="Trazado_18695" data-name="Trazado 18695" d="M159.994,46.3a3.666,3.666,0,0,1-7.332,0c0-2.561,2.135-5.539,3.146-7.345a.594.594,0,0,1,1.04,0c1.011,1.806,3.146,4.472,3.146,7.345" transform="translate(754 826)" fill="#4d997f"/>
    <path id="Trazado_18696" data-name="Trazado 18696" d="M189.072,45.173H176.311a.874.874,0,0,1,0-1.748h12.761a.874.874,0,0,1,0,1.748" transform="translate(754 826)" fill="#ff895a"/>
    <path id="Trazado_18697" data-name="Trazado 18697" d="M159.521,14.331h0a1.443,1.443,0,0,0,1.443,1.443H172.9a4.719,4.719,0,0,1,4.719,4.719.806.806,0,0,0,.806.806h7.436a.806.806,0,0,0,.806-.806v-1.7a5.9,5.9,0,0,0-5.9-5.9h-19.8A1.443,1.443,0,0,0,159.521,14.331Z" transform="translate(754 826)" fill="none" stroke="#002744" stroke-linecap="round" stroke-miterlimit="10" stroke-width="0.75"/>
    <path id="Trazado_18698" data-name="Trazado 18698" d="M181.2,21.3h7.436a.806.806,0,0,0,.806-.806v-1.7a5.9,5.9,0,0,0-5.9-5.9h-3.222" transform="translate(754 826)" fill="none" stroke="#002744" stroke-linecap="round" stroke-miterlimit="10" stroke-width="0.75"/>
    <path id="Trazado_18699" data-name="Trazado 18699" d="M178.28,22.95h7.8a.585.585,0,0,1,.585.585v16.5H177.7v-.914a5.91,5.91,0,0,0-5.549-5.9l-20.391-1.245a.95.95,0,0,1-.892-.948,5.269,5.269,0,0,1,5.346-5.268L172.7,26c3.939.073,4.992-1.068,4.992-2.462A.585.585,0,0,1,178.28,22.95Z" transform="translate(754 826)" fill="none" stroke="#002744" stroke-linecap="round" stroke-miterlimit="10" stroke-width="0.75"/>
    <path id="Trazado_18700" data-name="Trazado 18700" d="M180.582,40.032h8.281a.69.69,0,0,0,.689-.689V23.535a.585.585,0,0,0-.585-.585h-7.8" transform="translate(754 826)" fill="none" stroke="#002744" stroke-linecap="round" stroke-miterlimit="10" stroke-width="0.75"/>
    <path id="Trazado_18701" data-name="Trazado 18701" d="M189.44,43.425H175.934a.5.5,0,0,1-.5-.5v-.455a2.437,2.437,0,0,1,2.437-2.437H187.5a2.437,2.437,0,0,1,2.437,2.437v.455A.5.5,0,0,1,189.44,43.425Z" transform="translate(754 826)" fill="none" stroke="#002744" stroke-linecap="round" stroke-miterlimit="10" stroke-width="0.75"/>
    <rect id="Rectángulo_3466" data-name="Rectángulo 3466" width="2.912" height="7.696" rx="0.354" transform="matrix(0.058, -0.998, 0.998, 0.058, 906.917, 860.99)" fill="none" stroke="#002744" stroke-linecap="round" stroke-miterlimit="10" stroke-width="0.75"/>
    <path id="Trazado_18702" data-name="Trazado 18702" d="M159.989,46.3a3.666,3.666,0,0,1-7.332,0c0-2.561,2.135-5.539,3.146-7.345a.594.594,0,0,1,1.04,0C157.854,40.759,159.989,43.425,159.989,46.3Z" transform="translate(754 826)" fill="none" stroke="#002744" stroke-linecap="round" stroke-miterlimit="10" stroke-width="0.75"/>
    <path id="Trazado_18703" data-name="Trazado 18703" d="M189.067,45.173h-12.76a.874.874,0,1,1,0-1.748h12.76a.874.874,0,0,1,0,1.748Z" transform="translate(754 826)" fill="none" stroke="#002744" stroke-linecap="round" stroke-miterlimit="10" stroke-width="0.75"/>
    <path id="Trazado_18704" data-name="Trazado 18704" d="M180.611,40.032h9.634a2.437,2.437,0,0,1,2.437,2.437v.455a.5.5,0,0,1-.5.5H178.675" transform="translate(754 826)" fill="none" stroke="#002744" stroke-linecap="round" stroke-miterlimit="10" stroke-width="0.75"/>
    <path id="Trazado_18705" data-name="Trazado 18705" d="M179.048,43.425h12.76a.874.874,0,1,1,0,1.748h-12.76" transform="translate(754 826)" fill="none" stroke="#002744" stroke-linecap="round" stroke-miterlimit="10" stroke-width="0.75"/>
    <line id="Línea_6321" data-name="Línea 6321" x2="0.849" y2="0.061" transform="translate(912.846 859.59)" fill="none" stroke="#002744" stroke-linecap="round" stroke-miterlimit="10" stroke-width="0.75"/>
    <line id="Línea_6322" data-name="Línea 6322" x2="3.328" y2="0.241" transform="translate(908.154 859.25)" fill="none" stroke="#002744" stroke-linecap="round" stroke-miterlimit="10" stroke-width="0.75"/>
    <path id="Trazado_18706" data-name="Trazado 18706" d="M158.585,46.285a2.257,2.257,0,0,1-2.257,2.257" transform="translate(754 826)" fill="none" stroke="#002744" stroke-linecap="round" stroke-miterlimit="10" stroke-width="0.75"/>
    <path id="Trazado_18707" data-name="Trazado 18707" d="M158.372,44.6a9.228,9.228,0,0,0-.61-1.611" transform="translate(754 826)" fill="none" stroke="#002744" stroke-linecap="round" stroke-miterlimit="10" stroke-width="0.75"/>
  </g>
</svg>
