<svg id="Grupo_1314" data-name="Grupo 1314" xmlns="http://www.w3.org/2000/svg" xmlns:xlink="http://www.w3.org/1999/xlink" width="300" height="213.025" viewBox="0 0 300 213.025">
  <defs>
    <clipPath id="clip-path">
      <rect id="Rectángulo_2052" data-name="Rectángulo 2052" width="300" height="213.025" fill="none"/>
    </clipPath>
  </defs>
  <g id="Grupo_1196" data-name="Grupo 1196" clip-path="url(#clip-path)">
    <path id="Trazado_9642" data-name="Trazado 9642" d="M12.605,0h274.79A12.6,12.6,0,0,1,300,12.605V200.42a12.6,12.6,0,0,1-12.605,12.605H12.605A12.6,12.6,0,0,1,0,200.42V12.605A12.6,12.6,0,0,1,12.605,0" transform="translate(0 0)" fill="#fff"/>
    <path id="Trazado_9643" data-name="Trazado 9643" d="M224.017,161.565H155V80.235h58.942a10.071,10.071,0,0,1,10.071,10.07Z" transform="translate(40.379 20.902)" fill="#edffef"/>
    <rect id="Rectángulo_2033" data-name="Rectángulo 2033" width="13.402" height="7.366" transform="translate(253.422 112.592)" fill="#edffef"/>
    <rect id="Rectángulo_2034" data-name="Rectángulo 2034" width="13.402" height="7.366" transform="translate(253.422 128.079)" fill="#edffef"/>
    <path id="Trazado_9644" data-name="Trazado 9644" d="M26.909,62.885v6.489h2.1v7.639h-2.1v7.339h2.1v24.411h-2.1v55.267H90.023V62.885Z" transform="translate(7.01 16.382)" fill="#edffef"/>
    <rect id="Rectángulo_2035" data-name="Rectángulo 2035" width="43.656" height="11.559" transform="translate(44.553 72.358)" fill="#edffef"/>
    <rect id="Rectángulo_2036" data-name="Rectángulo 2036" width="22.816" height="19.422" transform="translate(56.321 57.601)" fill="#edffef"/>
    <path id="Trazado_9645" data-name="Trazado 9645" d="M57.4,91.72a61.194,61.194,0,0,1-25.132-5.1l.527-1.145c9.009,4.144,20.609,5.821,31.827,4.6,11.348-1.236,21.1-5.351,26.766-11.291l.912.87A34.526,34.526,0,0,1,80.32,87.5a57.022,57.022,0,0,1-15.559,3.828A68.067,68.067,0,0,1,57.4,91.72Z" transform="translate(8.406 20.522)" fill="#005c99"/>
    <path id="Trazado_9646" data-name="Trazado 9646" d="M69.33,91.688A61.191,61.191,0,0,1,44.2,86.583l.527-1.145c9.009,4.145,20.61,5.822,31.828,4.6,11.348-1.236,21.1-5.351,26.766-11.292l.912.87a34.525,34.525,0,0,1-11.982,7.847,57.013,57.013,0,0,1-15.559,3.828A68.067,68.067,0,0,1,69.33,91.688Z" transform="translate(11.514 20.514)" fill="#005c99"/>
    <path id="Trazado_9647" data-name="Trazado 9647" d="M57.4,103.958a61.194,61.194,0,0,1-25.132-5.1l.527-1.145c9.009,4.144,20.609,5.821,31.827,4.6,11.348-1.236,21.1-5.351,26.766-11.291l.912.87A34.525,34.525,0,0,1,80.32,99.733a57.021,57.021,0,0,1-15.559,3.828A68.067,68.067,0,0,1,57.4,103.958Z" transform="translate(8.406 23.71)" fill="#005c99"/>
    <path id="Trazado_9648" data-name="Trazado 9648" d="M69.329,103.925a61.2,61.2,0,0,1-25.132-5.1l.527-1.145c9.009,4.144,20.61,5.821,31.828,4.6,11.348-1.236,21.1-5.351,26.766-11.291l.912.87A34.526,34.526,0,0,1,92.247,99.7a57.02,57.02,0,0,1-15.559,3.828A68.06,68.06,0,0,1,69.329,103.925Z" transform="translate(11.514 23.702)" fill="#005c99"/>
    <path id="Trazado_9649" data-name="Trazado 9649" d="M183.666,73.271V84.3a5.3,5.3,0,0,1-5.3,5.3h-7.069V71.453h10.553a1.813,1.813,0,0,1,1.692,1.174,1.592,1.592,0,0,1,.126.644" transform="translate(44.623 18.614)" fill="#ceef9e"/>
    <path id="Trazado_9650" data-name="Trazado 9650" d="M183.29,77.052v7.17a5.3,5.3,0,0,1-5.3,5.3h-5.25v-3c2.7-.229,5.792.393,7.142-1.407.773-1.03,2.138-13.268,2.138-13.268.132-.3,1.068.28,1.068.28.089.2.2,4.7.2,4.922" transform="translate(44.999 18.695)" fill="#359b79"/>
    <path id="Trazado_9651" data-name="Trazado 9651" d="M178.494,90.365h-7.068a.63.63,0,0,1,0-1.261h7.068a4.677,4.677,0,0,0,4.671-4.671V73.4a.951.951,0,0,0-.074-.39q-.008-.018-.014-.035a1.175,1.175,0,0,0-1.1-.762H171.426a.63.63,0,0,1,0-1.261h10.552a2.441,2.441,0,0,1,2.275,1.567,2.186,2.186,0,0,1,.173.881V84.433A5.939,5.939,0,0,1,178.494,90.365Z" transform="translate(44.493 18.484)" fill="#002744"/>
    <path id="Trazado_9652" data-name="Trazado 9652" d="M196.058,169.447H74.8a6.3,6.3,0,0,1-6.3-6.3V61.009a6.3,6.3,0,0,1,6.3-6.3H196.058a6.3,6.3,0,0,1,6.3,6.3V163.145a6.3,6.3,0,0,1-6.3,6.3" transform="translate(17.845 14.251)" fill="#fff"/>
    <path id="Trazado_9653" data-name="Trazado 9653" d="M68.662,73.657l133.86-3.824v-1.35H68.662Z" transform="translate(17.887 17.84)" fill="#edffef"/>
    <path id="Rectángulo_2037" data-name="Rectángulo 2037" d="M6.433-.5H127.688a6.941,6.941,0,0,1,6.933,6.933V108.569a6.941,6.941,0,0,1-6.933,6.933H6.433A6.941,6.941,0,0,1-.5,108.569V6.433A6.941,6.941,0,0,1,6.433-.5ZM127.688,114.241a5.679,5.679,0,0,0,5.672-5.672V6.433A5.679,5.679,0,0,0,127.688.761H6.433A5.679,5.679,0,0,0,.761,6.433V108.569a5.679,5.679,0,0,0,5.672,5.672Z" transform="translate(86.42 68.826)" fill="#002744"/>
    <path id="Trazado_9654" data-name="Trazado 9654" d="M201.978,70.528H69.922a2.583,2.583,0,0,1-2.583-2.583V63.214a2.582,2.582,0,0,1,2.583-2.583H201.978a2.582,2.582,0,0,1,2.583,2.583v4.732a2.583,2.583,0,0,1-2.583,2.583" transform="translate(17.542 15.795)" fill="#ceef9e"/>
    <path id="Rectángulo_2038" data-name="Rectángulo 2038" d="M2.713-.5H134.77a3.217,3.217,0,0,1,3.213,3.213V7.445a3.217,3.217,0,0,1-3.213,3.213H2.713A3.217,3.217,0,0,1-.5,7.445V2.713A3.217,3.217,0,0,1,2.713-.5ZM134.77,9.4a1.955,1.955,0,0,0,1.952-1.953V2.713A1.955,1.955,0,0,0,134.77.761H2.713A1.955,1.955,0,0,0,.761,2.713V7.445A1.955,1.955,0,0,0,2.713,9.4Z" transform="translate(84.75 76.295)" fill="#002744"/>
    <path id="Línea_1999" data-name="Línea 1999" d="M.13,5.109a.63.63,0,0,1-.63-.63V.13A.63.63,0,0,1,.761.13V4.479A.63.63,0,0,1,.13,5.109Z" transform="translate(90.374 78.994)" fill="#002744"/>
    <path id="Línea_2000" data-name="Línea 2000" d="M.13,5.109a.63.63,0,0,1-.63-.63V.13A.63.63,0,0,1,.761.13V4.479A.63.63,0,0,1,.13,5.109Z" transform="translate(95.248 78.994)" fill="#002744"/>
    <path id="Línea_2001" data-name="Línea 2001" d="M.13,5.109a.63.63,0,0,1-.63-.63V.13A.63.63,0,0,1,.761.13V4.479A.63.63,0,0,1,.13,5.109Z" transform="translate(100.122 78.994)" fill="#002744"/>
    <path id="Línea_2002" data-name="Línea 2002" d="M.13,5.109a.63.63,0,0,1-.63-.63V.13A.63.63,0,0,1,.761.13V4.479A.63.63,0,0,1,.13,5.109Z" transform="translate(104.996 78.994)" fill="#002744"/>
    <path id="Línea_2003" data-name="Línea 2003" d="M.13,5.109a.63.63,0,0,1-.63-.63V.13A.63.63,0,0,1,.761.13V4.479A.63.63,0,0,1,.13,5.109Z" transform="translate(109.87 78.994)" fill="#002744"/>
    <path id="Línea_2004" data-name="Línea 2004" d="M.13,5.109a.63.63,0,0,1-.63-.63V.13A.63.63,0,0,1,.761.13V4.479A.63.63,0,0,1,.13,5.109Z" transform="translate(114.744 78.994)" fill="#002744"/>
    <path id="Línea_2005" data-name="Línea 2005" d="M.13,5.109a.63.63,0,0,1-.63-.63V.13A.63.63,0,0,1,.761.13V4.479A.63.63,0,0,1,.13,5.109Z" transform="translate(119.619 78.994)" fill="#002744"/>
    <path id="Línea_2006" data-name="Línea 2006" d="M.13,5.109a.63.63,0,0,1-.63-.63V.13A.63.63,0,0,1,.761.13V4.479A.63.63,0,0,1,.13,5.109Z" transform="translate(124.493 78.994)" fill="#002744"/>
    <path id="Línea_2007" data-name="Línea 2007" d="M.13,5.109a.63.63,0,0,1-.63-.63V.13A.63.63,0,0,1,.761.13V4.479A.63.63,0,0,1,.13,5.109Z" transform="translate(129.367 78.994)" fill="#002744"/>
    <path id="Línea_2008" data-name="Línea 2008" d="M.13,5.109a.63.63,0,0,1-.63-.63V.13A.63.63,0,0,1,.761.13V4.479A.63.63,0,0,1,.13,5.109Z" transform="translate(134.241 78.994)" fill="#002744"/>
    <path id="Línea_2009" data-name="Línea 2009" d="M.13,5.109a.63.63,0,0,1-.63-.63V.13A.63.63,0,0,1,.761.13V4.479A.63.63,0,0,1,.13,5.109Z" transform="translate(139.115 78.994)" fill="#002744"/>
    <path id="Línea_2010" data-name="Línea 2010" d="M.13,5.109a.63.63,0,0,1-.63-.63V.13A.63.63,0,0,1,.761.13V4.479A.63.63,0,0,1,.13,5.109Z" transform="translate(143.989 78.994)" fill="#002744"/>
    <path id="Línea_2011" data-name="Línea 2011" d="M.13,5.109a.63.63,0,0,1-.63-.63V.13A.63.63,0,0,1,.761.13V4.479A.63.63,0,0,1,.13,5.109Z" transform="translate(148.863 78.994)" fill="#002744"/>
    <path id="Línea_2012" data-name="Línea 2012" d="M.13,5.109a.63.63,0,0,1-.63-.63V.13A.63.63,0,0,1,.761.13V4.479A.63.63,0,0,1,.13,5.109Z" transform="translate(153.737 78.994)" fill="#002744"/>
    <path id="Línea_2013" data-name="Línea 2013" d="M.13,5.109a.63.63,0,0,1-.63-.63V.13A.63.63,0,0,1,.761.13V4.479A.63.63,0,0,1,.13,5.109Z" transform="translate(158.611 78.994)" fill="#002744"/>
    <path id="Línea_2014" data-name="Línea 2014" d="M.13,5.109a.63.63,0,0,1-.63-.63V.13A.63.63,0,0,1,.761.13V4.479A.63.63,0,0,1,.13,5.109Z" transform="translate(163.485 78.994)" fill="#002744"/>
    <path id="Línea_2015" data-name="Línea 2015" d="M.13,5.109a.63.63,0,0,1-.63-.63V.13A.63.63,0,0,1,.761.13V4.479A.63.63,0,0,1,.13,5.109Z" transform="translate(168.359 78.994)" fill="#002744"/>
    <path id="Línea_2016" data-name="Línea 2016" d="M.13,5.109a.63.63,0,0,1-.63-.63V.13A.63.63,0,0,1,.761.13V4.479A.63.63,0,0,1,.13,5.109Z" transform="translate(173.233 78.994)" fill="#002744"/>
    <path id="Línea_2017" data-name="Línea 2017" d="M.13,5.109a.63.63,0,0,1-.63-.63V.13A.63.63,0,0,1,.761.13V4.479A.63.63,0,0,1,.13,5.109Z" transform="translate(178.107 78.994)" fill="#002744"/>
    <path id="Línea_2018" data-name="Línea 2018" d="M.13,5.109a.63.63,0,0,1-.63-.63V.13A.63.63,0,0,1,.761.13V4.479A.63.63,0,0,1,.13,5.109Z" transform="translate(182.981 78.994)" fill="#002744"/>
    <path id="Línea_2019" data-name="Línea 2019" d="M.13,5.109a.63.63,0,0,1-.63-.63V.13A.63.63,0,0,1,.761.13V4.479A.63.63,0,0,1,.13,5.109Z" transform="translate(187.855 78.994)" fill="#002744"/>
    <path id="Línea_2020" data-name="Línea 2020" d="M.13,5.109a.63.63,0,0,1-.63-.63V.13A.63.63,0,0,1,.761.13V4.479A.63.63,0,0,1,.13,5.109Z" transform="translate(192.729 78.994)" fill="#002744"/>
    <path id="Línea_2021" data-name="Línea 2021" d="M.13,5.109a.63.63,0,0,1-.63-.63V.13A.63.63,0,0,1,.761.13V4.479A.63.63,0,0,1,.13,5.109Z" transform="translate(197.603 78.994)" fill="#002744"/>
    <path id="Línea_2022" data-name="Línea 2022" d="M.13,5.109a.63.63,0,0,1-.63-.63V.13A.63.63,0,0,1,.761.13V4.479A.63.63,0,0,1,.13,5.109Z" transform="translate(202.477 78.994)" fill="#002744"/>
    <path id="Línea_2023" data-name="Línea 2023" d="M.13,5.109a.63.63,0,0,1-.63-.63V.13A.63.63,0,0,1,.761.13V4.479A.63.63,0,0,1,.13,5.109Z" transform="translate(207.351 78.994)" fill="#002744"/>
    <path id="Línea_2024" data-name="Línea 2024" d="M.13,5.109a.63.63,0,0,1-.63-.63V.13A.63.63,0,0,1,.761.13V4.479A.63.63,0,0,1,.13,5.109Z" transform="translate(212.225 78.994)" fill="#002744"/>
    <path id="Línea_2025" data-name="Línea 2025" d="M.13,5.109a.63.63,0,0,1-.63-.63V.13A.63.63,0,0,1,.761.13V4.479A.63.63,0,0,1,.13,5.109Z" transform="translate(217.099 78.994)" fill="#002744"/>
    <path id="Trazado_9655" data-name="Trazado 9655" d="M96.949,59.013h-18.3a.63.63,0,0,1-.63-.63v-8.8a5.338,5.338,0,0,1,4.144-5.221l16.058-3.737a1.491,1.491,0,0,1,1.829,1.453v2.294a1.492,1.492,0,0,1-1.119,1.445l-1.355.35V58.382A.63.63,0,0,1,96.949,59.013Zm-17.666-1.26H96.319V45.68a.63.63,0,0,1,.473-.61L98.62,44.6a.232.232,0,0,0,.174-.224V42.08a.231.231,0,0,0-.23-.232.239.239,0,0,0-.054.006L82.453,45.592a4.083,4.083,0,0,0-3.169,3.993Z" transform="translate(20.325 10.573)" fill="#002744"/>
    <path id="Línea_2026" data-name="Línea 2026" d="M.13,3.042A.63.63,0,0,1-.013,1.8l9.8-2.282A.63.63,0,1,1,10.074.744L.273,3.026A.632.632,0,0,1,.13,3.042Z" transform="translate(105.183 56.618)" fill="#002744"/>
    <path id="Trazado_9656" data-name="Trazado 9656" d="M80.689,57.362a.63.63,0,0,1-.63-.63V50.043c0-1.651.553-2.6,1.793-3.076a.63.63,0,1,1,.452,1.176c-.639.246-.985.621-.985,1.9v6.689A.63.63,0,0,1,80.689,57.362Z" transform="translate(20.856 12.224)" fill="#002744"/>
    <path id="Trazado_9657" data-name="Trazado 9657" d="M78.314,103.641v3.7l19.642-2.292v-1.411Z" transform="translate(20.401 26.999)" fill="#edffef"/>
    <path id="Trazado_9658" data-name="Trazado 9658" d="M95.2,108.218H80.341a.63.63,0,0,1-.63-.63V82.164a3.186,3.186,0,0,1,3.183-3.183H92.65a3.186,3.186,0,0,1,3.183,3.183v25.424A.63.63,0,0,1,95.2,108.218Zm-14.231-1.261h13.6V82.164a1.924,1.924,0,0,0-1.922-1.922H82.894a1.924,1.924,0,0,0-1.922,1.922Z" transform="translate(20.765 20.575)" fill="#002744"/>
    <path id="Rectángulo_2039" data-name="Rectángulo 2039" d="M.13-.5H19.773a.63.63,0,0,1,.63.63V2.607a.63.63,0,0,1-.63.63H.13a.63.63,0,0,1-.63-.63V.13A.63.63,0,0,1,.13-.5ZM19.142.761H.761V1.977H19.142Z" transform="translate(98.585 128.033)" fill="#002744"/>
    <path id="Línea_2027" data-name="Línea 2027" d="M14.992.761H.13A.63.63,0,0,1,.13-.5H14.992a.63.63,0,0,1,0,1.261Z" transform="translate(100.976 115.545)" fill="#002744"/>
    <path id="Línea_2028" data-name="Línea 2028" d="M14.992.761H.13A.63.63,0,0,1,.13-.5H14.992a.63.63,0,0,1,0,1.261Z" transform="translate(100.976 103.269)" fill="#002744"/>
    <path id="Trazado_9659" data-name="Trazado 9659" d="M82.453,89.282l6-6.255h3.03l-9.028,9.518Z" transform="translate(21.479 21.629)" fill="#edffef"/>
    <path id="Trazado_9660" data-name="Trazado 9660" d="M85.484,90.232l6.319-7h.342v2.493l-6.66,7.105Z" transform="translate(22.269 21.682)" fill="#edffef"/>
    <path id="Trazado_9661" data-name="Trazado 9661" d="M101.827,103.641v3.7l19.642-2.292v-1.411Z" transform="translate(26.526 26.999)" fill="#edffef"/>
    <path id="Trazado_9662" data-name="Trazado 9662" d="M104.9,96.544l11.888-12.315V88.6L104.9,100.589Z" transform="translate(27.328 21.942)" fill="#edffef"/>
    <path id="Trazado_9663" data-name="Trazado 9663" d="M116.076,88.549l-8.428,8.79v.993l8.428-8.716Z" transform="translate(28.043 23.067)" fill="#edffef"/>
    <path id="Trazado_9664" data-name="Trazado 9664" d="M118.819,108.218H103.957a.63.63,0,0,1-.63-.63V82.164a3.186,3.186,0,0,1,3.183-3.183h9.756a3.186,3.186,0,0,1,3.183,3.183v25.424A.63.63,0,0,1,118.819,108.218Zm-14.231-1.261h13.6V82.164a1.924,1.924,0,0,0-1.922-1.922H106.51a1.924,1.924,0,0,0-1.922,1.922Z" transform="translate(26.917 20.575)" fill="#002744"/>
    <path id="Rectángulo_2040" data-name="Rectángulo 2040" d="M.13-.5H19.773a.63.63,0,0,1,.63.63V2.607a.63.63,0,0,1-.63.63H.13a.63.63,0,0,1-.63-.63V.13A.63.63,0,0,1,.13-.5ZM19.142.761H.761V1.977H19.142Z" transform="translate(128.354 128.033)" fill="#002744"/>
    <path id="Línea_2029" data-name="Línea 2029" d="M14.992.761H.13A.63.63,0,0,1,.13-.5H14.992a.63.63,0,0,1,0,1.261Z" transform="translate(130.745 115.545)" fill="#002744"/>
    <path id="Línea_2030" data-name="Línea 2030" d="M14.992.761H.13A.63.63,0,0,1,.13-.5H14.992a.63.63,0,0,1,0,1.261Z" transform="translate(130.745 103.269)" fill="#002744"/>
    <path id="Trazado_9665" data-name="Trazado 9665" d="M125.669,103.641v3.7l19.642-2.292v-1.411Z" transform="translate(32.737 26.999)" fill="#edffef"/>
    <path id="Trazado_9666" data-name="Trazado 9666" d="M142.557,108.218H127.7a.63.63,0,0,1-.63-.63V82.164a3.186,3.186,0,0,1,3.183-3.183H140a3.186,3.186,0,0,1,3.183,3.183v25.424A.63.63,0,0,1,142.557,108.218Zm-14.231-1.261h13.6V82.164A1.924,1.924,0,0,0,140,80.241h-9.756a1.924,1.924,0,0,0-1.922,1.922Z" transform="translate(33.101 20.575)" fill="#002744"/>
    <path id="Rectángulo_2041" data-name="Rectángulo 2041" d="M.13-.5H19.773a.63.63,0,0,1,.63.63V2.607a.63.63,0,0,1-.63.63H.13a.63.63,0,0,1-.63-.63V.13A.63.63,0,0,1,.13-.5ZM19.142.761H.761V1.977H19.142Z" transform="translate(158.275 128.033)" fill="#002744"/>
    <path id="Línea_2031" data-name="Línea 2031" d="M14.992.761H.13A.63.63,0,1,1,.13-.5H14.992a.63.63,0,0,1,0,1.261Z" transform="translate(160.666 115.545)" fill="#002744"/>
    <path id="Línea_2032" data-name="Línea 2032" d="M14.992.761H.13A.63.63,0,1,1,.13-.5H14.992a.63.63,0,0,1,0,1.261Z" transform="translate(160.666 103.269)" fill="#002744"/>
    <path id="Trazado_9667" data-name="Trazado 9667" d="M129.807,89.282l6-6.255h3.03l-9.028,9.518Z" transform="translate(33.815 21.629)" fill="#edffef"/>
    <path id="Trazado_9668" data-name="Trazado 9668" d="M132.838,90.232l6.319-7h.342v2.493l-6.66,7.105Z" transform="translate(34.605 21.682)" fill="#edffef"/>
    <path id="Trazado_9669" data-name="Trazado 9669" d="M149.182,103.641v3.7l19.642-2.292v-1.411Z" transform="translate(38.862 26.999)" fill="#edffef"/>
    <path id="Trazado_9670" data-name="Trazado 9670" d="M152.257,96.544l11.888-12.315V88.6l-11.888,11.987Z" transform="translate(39.664 21.942)" fill="#edffef"/>
    <path id="Trazado_9671" data-name="Trazado 9671" d="M163.43,88.549,155,97.339v.993l8.428-8.716Z" transform="translate(40.379 23.067)" fill="#edffef"/>
    <path id="Trazado_9672" data-name="Trazado 9672" d="M166.173,108.218H151.311a.63.63,0,0,1-.63-.63V82.164a3.186,3.186,0,0,1,3.183-3.183h9.756a3.186,3.186,0,0,1,3.183,3.183v25.424A.63.63,0,0,1,166.173,108.218Zm-14.231-1.261h13.6V82.164a1.924,1.924,0,0,0-1.922-1.922h-9.756a1.924,1.924,0,0,0-1.922,1.922Z" transform="translate(39.253 20.575)" fill="#002744"/>
    <path id="Rectángulo_2042" data-name="Rectángulo 2042" d="M.13-.5H19.773a.63.63,0,0,1,.63.63V2.607a.63.63,0,0,1-.63.63H.13a.63.63,0,0,1-.63-.63V.13A.63.63,0,0,1,.13-.5ZM19.142.761H.761V1.977H19.142Z" transform="translate(188.044 128.033)" fill="#002744"/>
    <path id="Línea_2033" data-name="Línea 2033" d="M14.992.761H.13A.63.63,0,0,1,.13-.5H14.992a.63.63,0,0,1,0,1.261Z" transform="translate(190.435 115.545)" fill="#002744"/>
    <path id="Línea_2034" data-name="Línea 2034" d="M14.992.761H.13A.63.63,0,0,1,.13-.5H14.992a.63.63,0,0,1,0,1.261Z" transform="translate(190.435 103.269)" fill="#002744"/>
    <path id="Trazado_9673" data-name="Trazado 9673" d="M83.7,127l37.271-4.132v-4.379H83.7Z" transform="translate(21.805 30.867)" fill="#edffef"/>
    <path id="Trazado_9674" data-name="Trazado 9674" d="M124.44,120.071h-42.8a.63.63,0,0,1-.63-.63v-1.688a2.925,2.925,0,0,1,2.922-2.922h38.217a2.925,2.925,0,0,1,2.922,2.922v1.688A.63.63,0,0,1,124.44,120.071Zm-42.17-1.26h41.54v-1.058a1.663,1.663,0,0,0-1.661-1.661H83.931a1.663,1.663,0,0,0-1.661,1.661Z" transform="translate(21.103 29.914)" fill="#002744"/>
    <path id="Rectángulo_2043" data-name="Rectángulo 2043" d="M.13-.5H37.4a.63.63,0,0,1,.63.63V34.474a.63.63,0,0,1-.63.63H.13a.63.63,0,0,1-.63-.63V.13A.63.63,0,0,1,.13-.5ZM36.771.761H.761V33.844h36.01Z" transform="translate(105.376 149.224)" fill="#002744"/>
    <path id="Línea_2035" data-name="Línea 2035" d="M.13,35.1a.63.63,0,0,1-.63-.63V.13A.63.63,0,0,1,.761.13V34.474A.63.63,0,0,1,.13,35.1Z" transform="translate(124.012 149.224)" fill="#002744"/>
    <path id="Línea_2036" data-name="Línea 2036" d="M.13,2.974a.63.63,0,0,1-.63-.63V.13A.63.63,0,0,1,.761.13V2.344A.63.63,0,0,1,.13,2.974Z" transform="translate(126.943 164.911)" fill="#002744"/>
    <path id="Línea_2037" data-name="Línea 2037" d="M.13,2.974a.63.63,0,0,1-.63-.63V.13A.63.63,0,0,1,.761.13V2.344A.63.63,0,0,1,.13,2.974Z" transform="translate(121.081 164.911)" fill="#002744"/>
    <path id="Trazado_9675" data-name="Trazado 9675" d="M136.861,142.356l18.628-25.447h7.533L145.01,142.356Z" transform="translate(35.653 30.455)" fill="#edffef"/>
    <path id="Trazado_9676" data-name="Trazado 9676" d="M145.1,142.356c.291,0,17.235-25.447,17.529-25.447h3.513Z" transform="translate(37.8 30.455)" fill="#edffef"/>
    <path id="Trazado_9677" data-name="Trazado 9677" d="M135.785,142.356l18.969-25.447-21.914,25.447Z" transform="translate(34.606 30.455)" fill="#edffef"/>
    <path id="Rectángulo_2044" data-name="Rectángulo 2044" d="M2.162-.5H42.729a2.665,2.665,0,0,1,2.662,2.662V23.545a2.665,2.665,0,0,1-2.662,2.662H2.162A2.665,2.665,0,0,1-.5,23.545V2.162A2.665,2.665,0,0,1,2.162-.5ZM42.729,24.947a1.4,1.4,0,0,0,1.4-1.4V2.162a1.4,1.4,0,0,0-1.4-1.4H2.162a1.4,1.4,0,0,0-1.4,1.4V23.545a1.4,1.4,0,0,0,1.4,1.4Z" transform="translate(160.665 147.234)" fill="#002744"/>
    <path id="Línea_2038" data-name="Línea 2038" d="M2.448.761H.13A.63.63,0,0,1,.13-.5H2.448a.63.63,0,1,1,0,1.261Z" transform="translate(200.51 170.62)" fill="#002744"/>
    <path id="Línea_2039" data-name="Línea 2039" d="M.812.761H.13A.63.63,0,0,1,.13-.5H.812a.63.63,0,1,1,0,1.261Z" transform="translate(195.465 170.62)" fill="#002744"/>
    <path id="Línea_2040" data-name="Línea 2040" d="M29.646.761H.13A.63.63,0,0,1,.13-.5H29.646a.63.63,0,1,1,0,1.261Z" transform="translate(163.973 170.62)" fill="#002744"/>
    <path id="Línea_2041" data-name="Línea 2041" d="M40.416.761H.13A.63.63,0,1,1,.13-.5H40.416a.63.63,0,1,1,0,1.261Z" transform="translate(162.541 149.224)" fill="#002744"/>
    <path id="Trazado_9678" data-name="Trazado 9678" d="M233.006,153.806h-59.42a33.95,33.95,0,0,1-8.7-1.119c-2.153-.572-1.572-2.829.729-2.829H226.16a29.691,29.691,0,0,1,7.611.979c2.259.6,1.649,2.968-.765,2.968" transform="translate(42.605 39.039)" fill="#99d6ff"/>
    <path id="Trazado_9679" data-name="Trazado 9679" d="M240.378,135.835v7.95l-.605,2.5-1.4,5.647c0,.033-.016.05-.016.067l-.084.369-.117.05-1.579.655h-4.085c-.672,0-.991.27-2.957,2.706-1.984,2.437-7.429,2.3-11.4,1.277-3.983-1.008-2.269-4.336-5.109-3.983h-4.941a4.3,4.3,0,0,0-3.126,1.6c-1.176,1.226-4.959,4.453-11.748,2.689a5.411,5.411,0,0,1-3.4-2.924,2.462,2.462,0,0,0-2.924-1.361,4.728,4.728,0,0,0-1.142.286,3.6,3.6,0,0,0-1.867,2c-.807,1.513-5.058,2.554-10.084,2.521s-3.614-4.808-7.277-4.808-6.371.572-6.371-2.638a38.246,38.246,0,0,1,.454-5.849s1.295-2.589,2.085-2.908c.773-.3,3.713-1.479,3.713-1.479l5.832-2.353s2.706-1.295,3.378-2.454c.689-1.176,3.58-6.706,5.211-8.824,1.646-2.118,3.747-2.033,6.067-2.033h31.7a1.907,1.907,0,0,1,.319.033.147.147,0,0,1,.084.018c.89.268,1.394,1.394,1.646,2.638a.147.147,0,0,0,.018.084l.05.3c.234,1.412,1.041,5.092,1.21,5.883a1.132,1.132,0,0,0,.033.151h.169l17.143.454,1.025,1.613Z" transform="translate(41.722 32.443)" fill="#99d6ff"/>
    <path id="Trazado_9680" data-name="Trazado 9680" d="M182.05,149.467s.817-2.287-.821-2.287-12.72,0-13.393,0-1,1.24.061,2.294,3.159,2.25,7.353,2.25a11.4,11.4,0,0,0,6.664-1.946Z" transform="translate(43.56 38.341)" fill="#09f"/>
    <path id="Trazado_9681" data-name="Trazado 9681" d="M174.253,136.938l12.193-12.113h6.683l-12.88,12.35Z" transform="translate(45.394 32.517)" fill="#09f"/>
    <path id="Trazado_9682" data-name="Trazado 9682" d="M180.376,136.938l12.431-12.113h2.171Z" transform="translate(46.989 32.517)" fill="#09f"/>
    <path id="Trazado_9683" data-name="Trazado 9683" d="M235.306,135.721c-.117-1.075-.437-1.664-1.025-1.613-.807.067-13.363-.185-15.311-.185a3.679,3.679,0,0,1-1.833-.269.47.47,0,0,1-.2-.151,2.151,2.151,0,0,1-.353-.555,37.4,37.4,0,0,1-.908-5.631.154.154,0,0,1-.016-.083c-.034-.219-.05-.4-.084-.572-.234-1.462-.655-1.932-1.563-2.067a.152.152,0,0,0-.083-.016,1.782,1.782,0,0,0-.32-.034h-.016c-.521-.034-2.168-.016-4.034,0-2.5.016-5.379.034-6.454,0h-.185a2.6,2.6,0,0,0-2.757,2c-.454,1.176-4.034,6.891-4.992,8.537a4.028,4.028,0,0,1-2.588,2.168c-1.177.555-7.261,3.025-8.438,3.513s-2.42,1.765-3.915,4.269c-1.194,2-.891,3.092-.891,5.563l1.428,2.773a4.756,4.756,0,0,1,1.143-.285,2.461,2.461,0,0,1,2.924,1.361,5.415,5.415,0,0,0,3.395,2.924c.2.053,1.5-.865,1.7-.822-5.033-4.374-4.364-13.989,4.214-13.989,6.436,0,8.457,5.708,7.243,10.524a6.941,6.941,0,0,1,1.719,0h4.941c2.84-.353,1.126,2.975,5.109,3.983.205.053,1.642-.161,1.855-.113-4.262-4.665-3.494-14.095,4.717-14.095,6.205,0,8.352,5.512,7.447,10.224h4.418l1.581-.655a2.313,2.313,0,0,0,.2-.421c0-.016.016-.033.016-.067.4-1.244,1.311-4.723,1.311-4.723s.034-.353.084-.924c.168-2.218.605-7.782.605-9.277a7.526,7.526,0,0,0-.084-1.295" transform="translate(46.709 32.439)" fill="#09f"/>
    <path id="Trazado_9684" data-name="Trazado 9684" d="M193.926,138.009h-20.9a1.468,1.468,0,0,1-1.266-2.209l5.229-8.929a5.749,5.749,0,0,1,4.942-2.833h19.74a1.59,1.59,0,0,1,1.372,2.395l-5.6,9.555A4.1,4.1,0,0,1,193.926,138.009ZM181.934,125.3a4.484,4.484,0,0,0-3.854,2.209l-5.228,8.928a.207.207,0,0,0,.178.312h20.9a2.832,2.832,0,0,0,2.436-1.4l5.6-9.556a.33.33,0,0,0-.284-.5Z" transform="translate(44.692 32.313)" fill="#002744"/>
    <path id="Trazado_9685" data-name="Trazado 9685" d="M183.2,143.54H161.006a1.344,1.344,0,0,1-1.153-2.035l1.572-2.624a3.157,3.157,0,0,1,2.695-1.528h23.45a.63.63,0,0,1,.541.954l-2.219,3.706A3.159,3.159,0,0,1,183.2,143.54Zm-19.078-4.926a1.89,1.89,0,0,0-1.614.915l-1.572,2.624a.076.076,0,0,0,0,.084.077.077,0,0,0,.073.043H183.2a1.892,1.892,0,0,0,1.614-.914l1.647-2.751Z" transform="translate(41.592 35.781)" fill="#002744"/>
    <path id="Línea_2042" data-name="Línea 2042" d="M.131,5.433A.63.63,0,0,1-.112,4.221L11.133-.452A.63.63,0,1,1,11.617.712L.372,5.385A.628.628,0,0,1,.131,5.433Z" transform="translate(228.488 169.325)" fill="#002744"/>
    <path id="Línea_2043" data-name="Línea 2043" d="M.13,5.454A.63.63,0,0,1-.1,4.238L11.583-.455a.63.63,0,1,1,.47,1.17L.365,5.408A.629.629,0,0,1,.13,5.454Z" transform="translate(205.066 168.994)" fill="#002744"/>
    <path id="Línea_2044" data-name="Línea 2044" d="M6.195.761H.13A.63.63,0,1,1,.13-.5H6.195a.63.63,0,1,1,0,1.261Z" transform="translate(224.659 178.56)" fill="#002744"/>
    <path id="Línea_2045" data-name="Línea 2045" d="M8.966.761H.13A.63.63,0,1,1,.13-.5H8.966a.63.63,0,1,1,0,1.261Z" transform="translate(247.597 178.56)" fill="#002744"/>
    <path id="Trazado_9686" data-name="Trazado 9686" d="M230.158,147.008H222.3a.63.63,0,0,1,0-1.261h7.855a.524.524,0,0,0,.523-.523v-9.256a1.282,1.282,0,0,0-1.281-1.281H213.658a1.783,1.783,0,0,1-1.77-1.51l-1.007-6.288a1.881,1.881,0,0,0-1.866-1.591H195.58a.63.63,0,1,1,0-1.261h13.436a3.136,3.136,0,0,1,3.111,2.652l1.007,6.288a.528.528,0,0,0,.525.448H229.4a2.544,2.544,0,0,1,2.541,2.541v9.256A1.786,1.786,0,0,1,230.158,147.008Z" transform="translate(50.785 32.313)" fill="#002744"/>
    <path id="Trazado_9687" data-name="Trazado 9687" d="M184.459,149.482H162.224a2.566,2.566,0,0,1-2.563-2.563v-5.527a.63.63,0,0,1,1.26,0v5.527a1.3,1.3,0,0,0,1.3,1.3h21.605v-6.2a.63.63,0,1,1,1.26,0v6.831A.63.63,0,0,1,184.459,149.482Z" transform="translate(41.592 36.669)" fill="#002744"/>
    <path id="Línea_2046" data-name="Línea 2046" d="M4.453.761H.13A.63.63,0,1,1,.13-.5H4.453a.63.63,0,1,1,0,1.261Z" transform="translate(225.921 185.391)" fill="#002744"/>
    <path id="Línea_2047" data-name="Línea 2047" d="M8.073.761H.13A.63.63,0,1,1,.13-.5H8.073a.63.63,0,0,1,0,1.261Z" transform="translate(248.141 185.391)" fill="#002744"/>
    <path id="Trazado_9688" data-name="Trazado 9688" d="M221.962,149.408h-5.057a.63.63,0,0,1,0-1.261h5.057a1.769,1.769,0,0,0,1.732-1.428l1-5.163a.63.63,0,1,1,1.237.24l-1,5.163A3.031,3.031,0,0,1,221.962,149.408Z" transform="translate(56.341 36.743)" fill="#002744"/>
    <path id="Trazado_9689" data-name="Trazado 9689" d="M212.926,154.741a8.274,8.274,0,1,1,8.274-8.274A8.284,8.284,0,0,1,212.926,154.741Zm0-15.287a7.013,7.013,0,1,0,7.013,7.013A7.022,7.022,0,0,0,212.926,139.453Z" transform="translate(53.312 36)" fill="#002744"/>
    <path id="Trazado_9690" data-name="Trazado 9690" d="M213.464,154.742H209.54c-3.838,0-6.96-3.712-6.96-8.274a9.092,9.092,0,0,1,2-5.808,6.417,6.417,0,0,1,4.962-2.467h3.924a.63.63,0,1,1,0,1.261H209.54c-3.143,0-5.7,3.147-5.7,7.015s2.557,7.013,5.7,7.013h3.924a.63.63,0,1,1,0,1.261Z" transform="translate(52.773 36)" fill="#002744"/>
    <path id="Trazado_9691" data-name="Trazado 9691" d="M192.608,154.741a8.274,8.274,0,1,1,8.274-8.274A8.284,8.284,0,0,1,192.608,154.741Zm0-15.287a7.013,7.013,0,1,0,7.013,7.013A7.022,7.022,0,0,0,192.608,139.453Z" transform="translate(48.02 36)" fill="#002744"/>
    <path id="Trazado_9692" data-name="Trazado 9692" d="M193.147,154.742h-3.924c-3.838,0-6.96-3.712-6.96-8.274a9.092,9.092,0,0,1,2-5.808,6.417,6.417,0,0,1,4.962-2.467h3.924a.63.63,0,0,1,0,1.261h-3.924c-3.143,0-5.7,3.147-5.7,7.015s2.557,7.013,5.7,7.013h3.924a.63.63,0,0,1,0,1.261Z" transform="translate(47.48 36)" fill="#002744"/>
    <path id="Trazado_9693" data-name="Trazado 9693" d="M176.03,152.53a8.277,8.277,0,0,1-7.587-4.968.63.63,0,1,1,1.155-.5,7.016,7.016,0,0,0,6.432,4.211,6.691,6.691,0,0,0,6.463-3.949.63.63,0,0,1,1.161.491A8.013,8.013,0,0,1,176.03,152.53Z" transform="translate(43.866 38.211)" fill="#002744"/>
    <path id="Trazado_9694" data-name="Trazado 9694" d="M176.592,152.531h-3.924c-2.788,0-5.3-1.965-6.4-5.007a.63.63,0,0,1,1.185-.429,5.8,5.8,0,0,0,5.213,4.175h3.924a.63.63,0,1,1,0,1.26Z" transform="translate(43.304 38.211)" fill="#002744"/>
    <path id="Línea_2048" data-name="Línea 2048" d="M.13,2.257A.63.63,0,0,1-.315,1.181l1.5-1.5a.63.63,0,0,1,.891.891l-1.5,1.5A.628.628,0,0,1,.13,2.257Z" transform="translate(267.372 168.814)" fill="#002744"/>
    <path id="Línea_2049" data-name="Línea 2049" d="M.13,2.257A.63.63,0,0,1-.315,1.181l1.5-1.5a.63.63,0,0,1,.891.891l-1.5,1.5A.628.628,0,0,1,.13,2.257Z" transform="translate(269.859 168.814)" fill="#002744"/>
    <path id="Línea_2050" data-name="Línea 2050" d="M.13,2.257A.63.63,0,0,1-.315,1.181l1.5-1.5a.63.63,0,0,1,.891.891l-1.5,1.5A.628.628,0,0,1,.13,2.257Z" transform="translate(272.345 168.814)" fill="#002744"/>
    <path id="Línea_2051" data-name="Línea 2051" d="M.13,2.257A.63.63,0,0,1-.315,1.181l1.5-1.5a.63.63,0,0,1,.891.891l-1.5,1.5A.628.628,0,0,1,.13,2.257Z" transform="translate(274.832 168.814)" fill="#002744"/>
    <path id="Elipse_127" data-name="Elipse 127" d="M2.186-.5A2.686,2.686,0,1,1-.5,2.186,2.689,2.689,0,0,1,2.186-.5Zm0,4.112A1.426,1.426,0,1,0,.761,2.186,1.427,1.427,0,0,0,2.186,3.612Z" transform="translate(238.442 180.281)" fill="#002744"/>
    <path id="Elipse_128" data-name="Elipse 128" d="M2.186-.5A2.686,2.686,0,1,1-.5,2.186,2.689,2.689,0,0,1,2.186-.5Zm0,4.112A1.426,1.426,0,1,0,.761,2.186,1.427,1.427,0,0,0,2.186,3.612Z" transform="translate(264.052 180.281)" fill="#002744"/>
    <path id="Trazado_9695" data-name="Trazado 9695" d="M164.094,144.7h-1.975a.63.63,0,1,1,0-1.26h1.975a1.515,1.515,0,0,0,1.354-.828l.518-1.01a.63.63,0,1,1,1.121.575l-.518,1.01A2.77,2.77,0,0,1,164.094,144.7Z" transform="translate(42.069 36.799)" fill="#002744"/>
    <path id="Trazado_9696" data-name="Trazado 9696" d="M179.139,144.7h-3.471A3.221,3.221,0,0,1,173,143.295l-.717-1.048a.63.63,0,1,1,1.04-.712l.717,1.049a1.961,1.961,0,0,0,1.623.857h3.471a.63.63,0,1,1,0,1.26Z" transform="translate(44.853 36.799)" fill="#002744"/>
    <path id="Trazado_9697" data-name="Trazado 9697" d="M207.407,134.935H197.383a2.1,2.1,0,0,1-1.866-3.049l2.885-5.649a.63.63,0,0,1,1.123.573l-2.885,5.65a.835.835,0,0,0,.743,1.215h10.024a.63.63,0,0,1,0,1.261Z" transform="translate(50.873 32.796)" fill="#002744"/>
    <path id="Línea_2052" data-name="Línea 2052" d="M.131,4.685A.63.63,0,0,1-.238,3.543L5.212-.381A.63.63,0,0,1,5.949.642L.5,4.566A.627.627,0,0,1,.131,4.685Z" transform="translate(220.28 107.239)" fill="#002744"/>
    <path id="Trazado_9698" data-name="Trazado 9698" d="M44.424,88.193V86.835h7.959V85.429H44.424v-.955h-1.06V79.762a1.531,1.531,0,0,0-1.53-1.53H40.7a1.53,1.53,0,0,0-1.53,1.53v4.712h-.819v.955H29.961v1.405h8.385v1.358h.819V99.666h-.819v.957H29.961v1.4h8.385v1.359h.819v58.1h-2.75v3.074H33.19v2.493H49.331v-2.493H46.145v-3.074H43.364v-58.1h1.06v-1.359h7.959v-1.4H44.424v-.957h-1.06V88.193Z" transform="translate(7.805 20.38)" fill="#99d6ff"/>
    <path id="Trazado_9699" data-name="Trazado 9699" d="M42.168,144.429a2.875,2.875,0,0,0-2.221,3.034H39.61s-1.574.153-1.574,2.384H32.523v-2.493h3.224v-3.074Z" transform="translate(8.472 37.585)" fill="#09f"/>
    <rect id="Rectángulo_2045" data-name="Rectángulo 2045" width="7.368" height="1.404" transform="translate(52.636 105.811)" fill="#09f"/>
    <rect id="Rectángulo_2046" data-name="Rectángulo 2046" width="7.655" height="1.404" transform="translate(38.145 105.811)" fill="#09f"/>
    <rect id="Rectángulo_2047" data-name="Rectángulo 2047" width="7.368" height="1.404" transform="translate(52.636 121.08)" fill="#09f"/>
    <rect id="Rectángulo_2048" data-name="Rectángulo 2048" width="7.655" height="1.404" transform="translate(38.145 121.08)" fill="#09f"/>
    <path id="Trazado_9700" data-name="Trazado 9700" d="M41.461,88.046l-4.2,2.662V86.471h4.2Z" transform="translate(9.707 22.526)" fill="#09f"/>
    <path id="Trazado_9701" data-name="Trazado 9701" d="M41.461,100.211l-4.2,2.662V98.637h4.2Z" transform="translate(9.707 25.695)" fill="#09f"/>
    <path id="Trazado_9702" data-name="Trazado 9702" d="M41.591,84.656a.63.63,0,0,1-.63-.63V80.113a1.121,1.121,0,0,0-1.119-1.121h-.7a1.122,1.122,0,0,0-1.121,1.121v3.913a.63.63,0,1,1-1.261,0V80.113a2.384,2.384,0,0,1,2.381-2.381h.7a2.383,2.383,0,0,1,2.38,2.381v3.913A.63.63,0,0,1,41.591,84.656Z" transform="translate(9.577 20.25)" fill="#002744"/>
    <path id="Trazado_9703" data-name="Trazado 9703" d="M37.253,143.548h5.812a3.051,3.051,0,0,1,3.048,3.048,1.686,1.686,0,0,1-1.683,1.688H35.888a1.685,1.685,0,0,1-1.683-1.683A3.052,3.052,0,0,1,37.253,143.548Zm7.177,3.475a.423.423,0,0,0,.422-.422,1.79,1.79,0,0,0-1.787-1.792H37.253a1.789,1.789,0,0,0-1.787,1.787.424.424,0,0,0,.422.427Z" transform="translate(8.911 37.395)" fill="#002744"/>
    <path id="Trazado_9704" data-name="Trazado 9704" d="M38.126,98.471H31.008a1.549,1.549,0,0,1,0-3.1h7.118a.63.63,0,0,1,.63.63v1.837A.63.63,0,0,1,38.126,98.471Zm-7.118-1.837a.288.288,0,0,0,0,.576H37.5v-.576Z" transform="translate(7.674 24.845)" fill="#002744"/>
    <path id="Trazado_9705" data-name="Trazado 9705" d="M41.73,95.374h7.118a1.549,1.549,0,0,1,0,3.1H41.73a.63.63,0,0,1-.63-.63V96A.63.63,0,0,1,41.73,95.374Zm7.118,1.837a.288.288,0,0,0,0-.576H42.36v.576Z" transform="translate(10.707 24.845)" fill="#002744"/>
    <path id="Rectángulo_2049" data-name="Rectángulo 2049" d="M1.253-.5H16.03a1.755,1.755,0,0,1,0,3.509H1.253a1.755,1.755,0,0,1,0-3.509ZM16.029,1.749a.494.494,0,0,0,0-.988H1.253a.494.494,0,0,0,0,.988Z" transform="translate(40.428 184.917)" fill="#002744"/>
    <path id="Rectángulo_2050" data-name="Rectángulo 2050" d="M.692-.5H6.206A1.193,1.193,0,0,1,7.4.691V3.842A1.194,1.194,0,0,1,6.2,5.035H.692A1.194,1.194,0,0,1-.5,3.842V.692A1.194,1.194,0,0,1,.692-.5ZM6.137.761H.761V3.774H6.137Z" transform="translate(45.671 119.515)" fill="#002744"/>
    <path id="Trazado_9706" data-name="Trazado 9706" d="M38.126,86.4H31.008a1.549,1.549,0,0,1,0-3.1h7.118a.63.63,0,0,1,.63.63V85.77A.63.63,0,0,1,38.126,86.4Zm-7.118-1.837a.288.288,0,0,0,0,.576H37.5v-.576Z" transform="translate(7.674 21.701)" fill="#002744"/>
    <path id="Trazado_9707" data-name="Trazado 9707" d="M41.73,83.3h7.118a1.549,1.549,0,0,1,0,3.1H41.73a.63.63,0,0,1-.63-.63V83.932A.63.63,0,0,1,41.73,83.3Zm7.118,1.837a.288.288,0,0,0,0-.576H42.36v.576Z" transform="translate(10.707 21.701)" fill="#002744"/>
    <path id="Rectángulo_2051" data-name="Rectángulo 2051" d="M.692-.5H6.206A1.193,1.193,0,0,1,7.4.691V3.842A1.194,1.194,0,0,1,6.2,5.035H.692A1.194,1.194,0,0,1-.5,3.842V.692A1.194,1.194,0,0,1,.692-.5ZM6.137.761H.761V3.774H6.137Z" transform="translate(45.671 104.299)" fill="#002744"/>
    <path id="Línea_2053" data-name="Línea 2053" d="M.13,11.7a.63.63,0,0,1-.63-.63V.13A.63.63,0,1,1,.761.13V11.073A.63.63,0,0,1,.13,11.7Z" transform="translate(46.839 108.573)" fill="#002744"/>
    <path id="Línea_2054" data-name="Línea 2054" d="M.13,11.7a.63.63,0,0,1-.63-.63V.13A.63.63,0,1,1,.761.13V11.073A.63.63,0,0,1,.13,11.7Z" transform="translate(51.038 108.573)" fill="#002744"/>
    <path id="Trazado_9708" data-name="Trazado 9708" d="M41.591,156.723h-4.2a.63.63,0,0,1-.63-.63V98.439a.63.63,0,0,1,1.26,0v57.023h2.938V98.439a.63.63,0,0,1,1.261,0v57.653A.63.63,0,0,1,41.591,156.723Z" transform="translate(9.577 25.48)" fill="#002744"/>
    <path id="Trazado_9709" data-name="Trazado 9709" d="M15.119,94.267a.63.63,0,0,1-.055-1.258c13.4-1.2,16.732-4.532,20.264-8.065a.63.63,0,0,1,.891.891,23.6,23.6,0,0,1-6.877,5.193c-3.458,1.655-7.96,2.683-14.166,3.237Z" transform="translate(3.774 22.08)" fill="#09f"/>
    <path id="Línea_2055" data-name="Línea 2055" d="M.13,4.163a.63.63,0,0,1-.63-.63V.13A.63.63,0,0,1,.761.13v3.4A.63.63,0,0,1,.13,4.163Z" transform="translate(39.417 104.724)" fill="#09f"/>
    <path id="Línea_2056" data-name="Línea 2056" d="M.13,4.163a.63.63,0,0,1-.63-.63V.13A.63.63,0,0,1,.761.13v3.4A.63.63,0,0,1,.13,4.163Z" transform="translate(40.429 104.724)" fill="#09f"/>
    <path id="Línea_2057" data-name="Línea 2057" d="M.13,4.163a.63.63,0,0,1-.63-.63V.13A.63.63,0,0,1,.761.13v3.4A.63.63,0,0,1,.13,4.163Z" transform="translate(41.582 104.724)" fill="#09f"/>
    <path id="Trazado_9710" data-name="Trazado 9710" d="M15.119,106.32a.63.63,0,0,1-.055-1.258c13.393-1.2,16.731-4.532,20.264-8.065a.63.63,0,0,1,.891.891,23.613,23.613,0,0,1-6.877,5.192c-3.459,1.655-7.96,2.684-14.166,3.238Z" transform="translate(3.774 25.22)" fill="#09f"/>
    <path id="Línea_2058" data-name="Línea 2058" d="M.13,4.163a.63.63,0,0,1-.63-.63V.13A.63.63,0,0,1,.761.13v3.4A.63.63,0,0,1,.13,4.163Z" transform="translate(39.417 119.916)" fill="#09f"/>
    <path id="Línea_2059" data-name="Línea 2059" d="M.13,4.163a.63.63,0,0,1-.63-.63V.13A.63.63,0,0,1,.761.13v3.4A.63.63,0,0,1,.13,4.163Z" transform="translate(40.429 119.916)" fill="#09f"/>
    <path id="Línea_2060" data-name="Línea 2060" d="M.13,4.163a.63.63,0,0,1-.63-.63V.13A.63.63,0,0,1,.761.13v3.4A.63.63,0,0,1,.13,4.163Z" transform="translate(41.582 119.916)" fill="#09f"/>
    <path id="Trazado_9711" data-name="Trazado 9711" d="M28.8,94.6q-.372,0-.745-.006a50.883,50.883,0,0,1-13.093-2.007.63.63,0,1,1,.346-1.212,45.465,45.465,0,0,0,23.412.772c5.541-1.388,10.546-4.013,13.733-7.2a.63.63,0,1,1,.891.891C50,89.18,44.785,91.925,39.029,93.367A42.085,42.085,0,0,1,28.8,94.6Z" transform="translate(3.779 22.08)" fill="#09f"/>
    <path id="Trazado_9712" data-name="Trazado 9712" d="M28.8,106.652q-.372,0-.745-.006a50.883,50.883,0,0,1-13.093-2.007.63.63,0,1,1,.346-1.212,45.465,45.465,0,0,0,23.412.772c5.541-1.388,10.546-4.013,13.733-7.2a.63.63,0,1,1,.891.891c-3.344,3.344-8.563,6.089-14.318,7.531A42.085,42.085,0,0,1,28.8,106.652Z" transform="translate(3.779 25.22)" fill="#09f"/>
    <path id="Línea_2061" data-name="Línea 2061" d="M.13,4.163a.63.63,0,0,1-.63-.63V.13A.63.63,0,0,1,.761.13v3.4A.63.63,0,0,1,.13,4.163Z" transform="translate(55.774 104.724)" fill="#09f"/>
    <path id="Línea_2062" data-name="Línea 2062" d="M.13,4.163a.63.63,0,0,1-.63-.63V.13A.63.63,0,0,1,.761.13v3.4A.63.63,0,0,1,.13,4.163Z" transform="translate(56.786 104.724)" fill="#09f"/>
    <path id="Línea_2063" data-name="Línea 2063" d="M.13,4.163a.63.63,0,0,1-.63-.63V.13A.63.63,0,0,1,.761.13v3.4A.63.63,0,0,1,.13,4.163Z" transform="translate(57.939 104.724)" fill="#09f"/>
    <path id="Línea_2064" data-name="Línea 2064" d="M.13,4.163a.63.63,0,0,1-.63-.63V.13A.63.63,0,0,1,.761.13v3.4A.63.63,0,0,1,.13,4.163Z" transform="translate(55.774 119.916)" fill="#09f"/>
    <path id="Línea_2065" data-name="Línea 2065" d="M.13,4.163a.63.63,0,0,1-.63-.63V.13A.63.63,0,0,1,.761.13v3.4A.63.63,0,0,1,.13,4.163Z" transform="translate(56.786 119.916)" fill="#09f"/>
    <path id="Línea_2066" data-name="Línea 2066" d="M.13,4.163a.63.63,0,0,1-.63-.63V.13A.63.63,0,0,1,.761.13v3.4A.63.63,0,0,1,.13,4.163Z" transform="translate(57.939 119.916)" fill="#09f"/>
    <path id="Trazado_9713" data-name="Trazado 9713" d="M38.984,88.064a.63.63,0,0,1-.63-.63V86.8a.63.63,0,1,1,1.261,0v.63A.63.63,0,0,1,38.984,88.064Zm0-4.412a.63.63,0,0,1-.63-.63v-.63a.63.63,0,1,1,1.261,0v.63A.63.63,0,0,1,38.984,83.652Zm0-4.412a.63.63,0,0,1-.63-.63v-.63a.63.63,0,0,1,1.261,0v.63A.63.63,0,0,1,38.984,79.241Zm0-4.412a.63.63,0,0,1-.63-.63v-.63a.63.63,0,0,1,1.261,0v.63A.63.63,0,0,1,38.984,74.829Zm0-4.412a.63.63,0,0,1-.63-.63v-.63a.63.63,0,1,1,1.261,0v.63A.63.63,0,0,1,38.984,70.417Zm0-4.412a.63.63,0,0,1-.63-.63v-.63a.63.63,0,1,1,1.261,0v.63A.63.63,0,0,1,38.984,66.005Zm0-4.412a.63.63,0,0,1-.63-.63v-.63a.63.63,0,0,1,1.261,0v.63A.63.63,0,0,1,38.984,61.594Zm0-4.412a.63.63,0,0,1-.63-.63v-.63a.63.63,0,1,1,1.261,0v.63A.63.63,0,0,1,38.984,57.182Zm0-4.412a.63.63,0,0,1-.63-.63v-.63a.63.63,0,1,1,1.261,0v.63A.63.63,0,0,1,38.984,52.77Zm0-4.412a.63.63,0,0,1-.63-.63V47.1a.63.63,0,0,1,1.261,0v.63A.63.63,0,0,1,38.984,48.358Zm0-4.412a.63.63,0,0,1-.63-.63v-.63a.63.63,0,0,1,1.261,0v.63A.63.63,0,0,1,38.984,43.947Zm.519-4.327a.63.63,0,0,1-.558-.923,5.219,5.219,0,0,1,.376-.61.63.63,0,1,1,1.025.733,3.955,3.955,0,0,0-.285.462A.63.63,0,0,1,39.5,39.619ZM42.99,37.2a.63.63,0,0,1-.076-1.256,5.264,5.264,0,0,1,.64-.039h.061a.63.63,0,0,1,.009,1.26h-.066a4.023,4.023,0,0,0-.491.03A.636.636,0,0,1,42.99,37.2Zm4.411-.063a.63.63,0,0,1,0-1.26l.63,0a.63.63,0,1,1,.009,1.26l-.63,0Zm4.412-.033a.63.63,0,0,1,0-1.26l.63,0a.63.63,0,1,1,.009,1.26l-.63,0Zm4.412-.033a.63.63,0,0,1,0-1.26l.63,0a.63.63,0,0,1,.009,1.26l-.63,0Zm4.412-.033a.63.63,0,0,1,0-1.26l.63,0a.63.63,0,1,1,.009,1.26l-.63,0Zm4.412-.033a.63.63,0,0,1,0-1.26l.63,0A.63.63,0,1,1,65.682,37l-.63,0Zm4.412-.033a.63.63,0,0,1,0-1.26l.63,0a.63.63,0,0,1,.009,1.26l-.63,0Zm4.412-.033a.63.63,0,0,1,0-1.26l.63,0a.63.63,0,0,1,.009,1.26l-.63,0Zm4.412-.033a.63.63,0,0,1,0-1.26l.63,0a.63.63,0,1,1,.009,1.26l-.63,0Zm4.412-.033a.63.63,0,0,1,0-1.26l.63,0a.63.63,0,0,1,.009,1.26l-.63,0Zm4.412-.033a.63.63,0,0,1,0-1.26l.63,0a.63.63,0,0,1,.009,1.26l-.63,0Zm4.412-.033a.63.63,0,0,1,0-1.26l.63,0a.63.63,0,0,1,.009,1.26l-.63,0Zm4.412-.033a.63.63,0,0,1,0-1.26l.63,0a.63.63,0,1,1,.009,1.26l-.63,0Zm4.412-.033a.63.63,0,0,1,0-1.261l.63,0a.63.63,0,1,1,.009,1.26l-.63,0Zm4.412-.033a.63.63,0,0,1,0-1.26l.63,0a.63.63,0,0,1,.009,1.26l-.63,0Zm4.412-.033a.63.63,0,0,1,0-1.26l.63,0a.63.63,0,1,1,.009,1.26l-.63,0Zm4.408-.08a.63.63,0,0,1-.094-1.253,3.929,3.929,0,0,0,.529-.118.63.63,0,0,1,.36,1.208,5.19,5.19,0,0,1-.7.157A.634.634,0,0,1,113.572,36.6Zm3.417-2.516a.631.631,0,0,1-.566-.907,3.923,3.923,0,0,0,.2-.5.63.63,0,0,1,1.2.391,5.186,5.186,0,0,1-.269.665A.63.63,0,0,1,116.989,34.083Zm.461-4.342a.63.63,0,0,1-.63-.63v-.63a.63.63,0,1,1,1.26,0v.63A.63.63,0,0,1,117.449,29.741Zm0-4.412a.63.63,0,0,1-.63-.63v-.593a.63.63,0,1,1,1.26,0V24.7A.63.63,0,0,1,117.449,25.329Z" transform="translate(9.991 6.116)" fill="#09f"/>
    <path id="Trazado_9714" data-name="Trazado 9714" d="M100.981,59.532a.63.63,0,0,1-.63-.63v-.4a.63.63,0,1,1,1.261,0v.4A.63.63,0,0,1,100.981,59.532Zm0-4.184a.63.63,0,0,1-.63-.63v-.63a.63.63,0,0,1,1.261,0v.63A.63.63,0,0,1,100.981,55.348Zm0-4.412a.63.63,0,0,1-.63-.63v-.63a.63.63,0,1,1,1.261,0v.63A.63.63,0,0,1,100.981,50.936Zm0-4.412a.63.63,0,0,1-.63-.63v-.63a.63.63,0,1,1,1.261,0v.63A.63.63,0,0,1,100.981,46.525Zm0-4.412a.63.63,0,0,1-.63-.63v-.338c0-.11,0-.222.01-.332a.63.63,0,1,1,1.258.079c-.005.083-.008.168-.008.253v.338A.63.63,0,0,1,100.981,42.113Zm1.7-3.893a.63.63,0,0,1-.4-1.12,5.226,5.226,0,0,1,.587-.411.63.63,0,1,1,.651,1.08,3.965,3.965,0,0,0-.445.312A.628.628,0,0,1,102.68,38.22Zm4.174-1.11a.63.63,0,0,1-.046-1.259l.629-.046a.63.63,0,1,1,.092,1.257l-.629.046Zm4.4-.323a.63.63,0,0,1-.046-1.259l.629-.046a.63.63,0,0,1,.092,1.257l-.629.046Zm4.4-.322a.63.63,0,0,1-.089-1.254,3.927,3.927,0,0,0,.53-.114.63.63,0,1,1,.35,1.211,5.191,5.191,0,0,1-.7.151A.636.636,0,0,1,115.653,36.464Zm3.436-2.489a.631.631,0,0,1-.564-.911,3.926,3.926,0,0,0,.207-.5.63.63,0,0,1,1.2.4,5.189,5.189,0,0,1-.274.663A.63.63,0,0,1,119.089,33.976Zm.477-4.338a.63.63,0,0,1-.63-.63v-.63a.63.63,0,0,1,1.261,0v.63A.63.63,0,0,1,119.566,29.638Zm0-4.412a.63.63,0,0,1-.63-.63v-.63a.63.63,0,0,1,1.261,0v.63A.63.63,0,0,1,119.566,25.226Z" transform="translate(26.142 6.079)" fill="#09f"/>
    <path id="Trazado_9715" data-name="Trazado 9715" d="M191.984,78.685a.63.63,0,0,1-.63-.63v-.63a.63.63,0,1,1,1.26,0v.63A.63.63,0,0,1,191.984,78.685Zm0-4.412a.63.63,0,0,1-.63-.63v-.63a.63.63,0,1,1,1.26,0v.63A.63.63,0,0,1,191.984,74.274Zm0-4.412a.63.63,0,0,1-.63-.63V68.6a.63.63,0,1,1,1.26,0v.63A.63.63,0,0,1,191.984,69.862Zm0-4.412a.63.63,0,0,1-.63-.63v-.63a.63.63,0,1,1,1.26,0v.63A.63.63,0,0,1,191.984,65.45Zm0-4.412a.63.63,0,0,1-.63-.63v-.63a.63.63,0,1,1,1.26,0v.63A.63.63,0,0,1,191.984,61.038Zm0-4.412a.63.63,0,0,1-.63-.63v-.63a.63.63,0,1,1,1.26,0V56A.63.63,0,0,1,191.984,56.627Zm0-4.412a.63.63,0,0,1-.63-.63v-.63a.63.63,0,1,1,1.26,0v.63A.63.63,0,0,1,191.984,52.215Zm0-4.412a.63.63,0,0,1-.63-.63v-.63a.63.63,0,1,1,1.26,0v.63A.63.63,0,0,1,191.984,47.8Zm0-4.412a.63.63,0,0,1-.63-.63v-.63a.63.63,0,1,1,1.26,0v.63A.63.63,0,0,1,191.984,43.391Zm-.747-4.265a.63.63,0,0,1-.527-.284,3.971,3.971,0,0,0-.329-.432.63.63,0,1,1,.949-.83,5.234,5.234,0,0,1,.433.57.63.63,0,0,1-.526.976Zm-3.707-2.063H186.9a.63.63,0,0,1,0-1.261h.515l.131,0a.63.63,0,0,1-.015,1.26Zm-4.412,0h-.63a.63.63,0,1,1,0-1.261h.63a.63.63,0,0,1,0,1.261Zm-4.412,0h-.63a.63.63,0,1,1,0-1.261h.63a.63.63,0,0,1,0,1.261Zm-4.412,0h-.63a.63.63,0,1,1,0-1.261h.63a.63.63,0,1,1,0,1.261Zm-4.412,0h-.63a.63.63,0,0,1,0-1.261h.63a.63.63,0,0,1,0,1.261Zm-4.412,0h-.63a.63.63,0,0,1,0-1.261h.63a.63.63,0,0,1,0,1.261Zm-4.412,0h-.63a.63.63,0,0,1,0-1.261h.63a.63.63,0,0,1,0,1.261Zm-4.412,0h-.63a.63.63,0,0,1,0-1.261h.63a.63.63,0,0,1,0,1.261Zm-4.412,0h-.63a.63.63,0,0,1,0-1.261h.63a.63.63,0,0,1,0,1.261Zm-4.412,0h-.63a.63.63,0,1,1,0-1.261h.63a.63.63,0,1,1,0,1.261Zm-4.412,0h-.63a.63.63,0,0,1,0-1.261h.63a.63.63,0,1,1,0,1.261Zm-4.412,0h-.63a.63.63,0,0,1,0-1.261H139a.63.63,0,0,1,0,1.261Zm-4.409-.047a.635.635,0,0,1-.09-.006,5.192,5.192,0,0,1-.7-.151.63.63,0,0,1,.35-1.211,3.929,3.929,0,0,0,.53.114.63.63,0,0,1-.089,1.254Zm-3.437-2.488a.63.63,0,0,1-.565-.349,5.189,5.189,0,0,1-.275-.663.63.63,0,1,1,1.2-.4,3.926,3.926,0,0,0,.208.5.631.631,0,0,1-.564.911Zm-.478-4.338a.63.63,0,0,1-.63-.63v-.63a.63.63,0,1,1,1.26,0v.63A.63.63,0,0,1,130.677,30.19Zm0-4.412a.63.63,0,0,1-.63-.63v-.63a.63.63,0,1,1,1.26,0v.63A.63.63,0,0,1,130.677,25.778Z" transform="translate(33.878 6.223)" fill="#09f"/>
    <path id="Trazado_9716" data-name="Trazado 9716" d="M199.316,142.643a.63.63,0,0,1-.63-.63v-.63a.63.63,0,0,1,1.261,0v.63A.63.63,0,0,1,199.316,142.643Zm0-4.412a.63.63,0,0,1-.63-.63v-.63a.63.63,0,1,1,1.261,0v.63A.63.63,0,0,1,199.316,138.231Zm0-4.412a.63.63,0,0,1-.63-.63v-.63a.63.63,0,1,1,1.261,0v.63A.63.63,0,0,1,199.316,133.819Zm0-4.412a.63.63,0,0,1-.63-.63v-.63a.63.63,0,0,1,1.261,0v.63A.63.63,0,0,1,199.316,129.407Zm0-4.412a.63.63,0,0,1-.63-.63v-.63a.63.63,0,0,1,1.261,0v.63A.63.63,0,0,1,199.316,125Zm0-4.412a.63.63,0,0,1-.63-.63v-.63a.63.63,0,1,1,1.261,0v.63A.63.63,0,0,1,199.316,120.584Zm0-4.412a.63.63,0,0,1-.63-.63v-.63a.63.63,0,0,1,1.261,0v.63A.63.63,0,0,1,199.316,116.172Zm0-4.412a.63.63,0,0,1-.63-.63v-.63a.63.63,0,0,1,1.261,0v.63A.63.63,0,0,1,199.316,111.76Zm0-4.412a.63.63,0,0,1-.63-.63v-.63a.63.63,0,1,1,1.261,0v.63A.63.63,0,0,1,199.316,107.349Zm0-4.412a.63.63,0,0,1-.63-.63v-.63a.63.63,0,0,1,1.261,0v.63A.63.63,0,0,1,199.316,102.937Zm0-4.412a.63.63,0,0,1-.63-.63v-.63a.63.63,0,0,1,1.261,0v.63A.63.63,0,0,1,199.316,98.525Zm0-4.412a.63.63,0,0,1-.63-.63v-.63a.63.63,0,0,1,1.261,0v.63A.63.63,0,0,1,199.316,94.113Zm0-4.412a.63.63,0,0,1-.63-.63v-.63a.63.63,0,1,1,1.261,0v.63A.63.63,0,0,1,199.316,89.7Zm0-4.412a.63.63,0,0,1-.63-.63v-.63a.63.63,0,1,1,1.261,0v.63A.63.63,0,0,1,199.316,85.29Zm0-4.412a.63.63,0,0,1-.63-.63v-.63a.63.63,0,1,1,1.261,0v.63A.63.63,0,0,1,199.316,80.878Zm0-4.412a.63.63,0,0,1-.63-.63v-.63a.63.63,0,1,1,1.261,0v.63A.63.63,0,0,1,199.316,76.466Zm0-4.412a.63.63,0,0,1-.63-.63v-.63a.63.63,0,0,1,1.261,0v.63A.63.63,0,0,1,199.316,72.054Zm0-4.412a.63.63,0,0,1-.63-.63v-.63a.63.63,0,0,1,1.261,0v.63A.63.63,0,0,1,199.316,67.643Zm0-4.412a.63.63,0,0,1-.63-.63v-.63a.63.63,0,1,1,1.261,0v.63A.63.63,0,0,1,199.316,63.231Zm0-4.412a.63.63,0,0,1-.63-.63v-.63a.63.63,0,0,1,1.261,0v.63A.63.63,0,0,1,199.316,58.819Zm0-4.412a.63.63,0,0,1-.63-.63v-.63a.63.63,0,1,1,1.261,0v.63A.63.63,0,0,1,199.316,54.407Zm0-4.412a.63.63,0,0,1-.63-.63v-.63a.63.63,0,0,1,1.261,0v.63A.63.63,0,0,1,199.316,50Zm0-4.412a.63.63,0,0,1-.63-.63v-.63a.63.63,0,0,1,1.261,0v.63A.63.63,0,0,1,199.316,45.584Zm0-4.412a.63.63,0,0,1-.63-.63v-.63a.63.63,0,0,1,1.261,0v.63A.63.63,0,0,1,199.316,41.172Zm-.619-4.3a.63.63,0,0,1-.545-.313,3.957,3.957,0,0,0-.305-.449.63.63,0,1,1,.991-.778,5.228,5.228,0,0,1,.4.593.63.63,0,0,1-.544.948Zm-3.592-2.257-.049,0c-.1-.008-.206-.012-.309-.012h-.272a.63.63,0,0,1,0-1.261h.272c.135,0,.272.005.406.016a.63.63,0,0,1-.048,1.259Zm-4.412-.014h-.63a.63.63,0,0,1,0-1.261h.63a.63.63,0,1,1,0,1.261Zm-4.412,0h-.63a.63.63,0,0,1,0-1.261h.63a.63.63,0,1,1,0,1.261Zm-4.412,0h-.63a.63.63,0,1,1,0-1.261h.63a.63.63,0,1,1,0,1.261Z" transform="translate(47.049 8.685)" fill="#09f"/>
    <path id="Trazado_9717" data-name="Trazado 9717" d="M145.875,34.528a.63.63,0,0,1-.565-.349,5.188,5.188,0,0,1-.274-.663.63.63,0,1,1,1.2-.4,3.925,3.925,0,0,0,.208.5.63.63,0,0,1-.564.911ZM145.4,30.19a.63.63,0,0,1-.63-.63v-.63a.63.63,0,1,1,1.26,0v.63A.63.63,0,0,1,145.4,30.19Zm0-4.412a.63.63,0,0,1-.63-.63v-.63a.63.63,0,1,1,1.26,0v.63A.63.63,0,0,1,145.4,25.778Z" transform="translate(37.713 6.223)" fill="#09f"/>
    <path id="Trazado_9718" data-name="Trazado 9718" d="M105.763,17.418a3.862,3.862,0,1,1-3.862-3.862,3.862,3.862,0,0,1,3.862,3.862" transform="translate(25.54 3.531)" fill="#09f"/>
    <path id="Trazado_9719" data-name="Trazado 9719" d="M120.484,17.418a3.862,3.862,0,1,1-3.862-3.862,3.863,3.863,0,0,1,3.862,3.862" transform="translate(29.375 3.531)" fill="#09f"/>
    <path id="Trazado_9720" data-name="Trazado 9720" d="M135.206,17.418a3.862,3.862,0,1,1-3.862-3.862,3.862,3.862,0,0,1,3.862,3.862" transform="translate(33.21 3.531)" fill="#09f"/>
    <path id="Trazado_9721" data-name="Trazado 9721" d="M149.928,17.418a3.862,3.862,0,1,1-3.862-3.862,3.863,3.863,0,0,1,3.862,3.862" transform="translate(37.045 3.531)" fill="#09f"/>
    <path id="Trazado_9722" data-name="Trazado 9722" d="M66.478,145.418a4.438,4.438,0,1,1-4.437-4.437,4.437,4.437,0,0,1,4.437,4.437" transform="translate(15.006 36.726)" fill="#ceef9e"/>
    <path id="Trazado_9723" data-name="Trazado 9723" d="M77.179,143.378a7.915,7.915,0,1,1-7.916-7.916,7.916,7.916,0,0,1,7.916,7.916" transform="translate(15.981 35.288)" fill="#ceef9e"/>
    <path id="Trazado_9724" data-name="Trazado 9724" d="M79.728,144.89a5.337,5.337,0,1,1-5.337-5.337,5.338,5.338,0,0,1,5.337,5.337" transform="translate(17.989 36.354)" fill="#ceef9e"/>
    <path id="Trazado_9725" data-name="Trazado 9725" d="M81.491,146.033a3.388,3.388,0,1,1-3.388-3.388,3.388,3.388,0,0,1,3.388,3.388" transform="translate(19.464 37.16)" fill="#ceef9e"/>
    <path id="Trazado_9726" data-name="Trazado 9726" d="M81.644,149.021H61.123v-4.838H81.794Z" transform="translate(15.923 37.56)" fill="#ceef9e"/>
    <path id="Trazado_9727" data-name="Trazado 9727" d="M82.322,152.054H61.8a5.068,5.068,0,0,1-.2-10.132,8.534,8.534,0,0,1,1.51-3.474.63.63,0,0,1,1.015.747,7.268,7.268,0,0,0-1.363,3.461.63.63,0,0,1-.674.556c-.063,0-.12-.013-.171-.019a1.12,1.12,0,0,0-.123-.013,3.807,3.807,0,0,0,0,7.615H82.322a2.758,2.758,0,0,0,.029-5.516.82.82,0,0,1-.1.006.63.63,0,0,1-.607-.46,4.685,4.685,0,0,0-4.259-3.417A.63.63,0,0,1,76.83,141a7.282,7.282,0,0,0-8.138-4.656.63.63,0,1,1-.224-1.24A8.63,8.63,0,0,1,70,134.962a8.54,8.54,0,0,1,7.865,5.223,5.945,5.945,0,0,1,4.851,3.852,4.019,4.019,0,0,1-.393,8.018Z" transform="translate(14.779 35.158)" fill="#002744"/>
    <path id="Trazado_9728" data-name="Trazado 9728" d="M64.122,137.213a.63.63,0,0,1-.33-1.168c.225-.138.463-.268.708-.388a.63.63,0,0,1,.553,1.133c-.209.1-.412.213-.6.33A.627.627,0,0,1,64.122,137.213Z" transform="translate(16.54 35.323)" fill="#002744"/>
    <path id="Trazado_9729" data-name="Trazado 9729" d="M145.27,149.763a4.438,4.438,0,1,0,4.437-4.437,4.437,4.437,0,0,0-4.437,4.437" transform="translate(37.843 37.858)" fill="#ceef9e"/>
    <path id="Trazado_9730" data-name="Trazado 9730" d="M136.007,147.722a7.915,7.915,0,1,0,7.916-7.916,7.916,7.916,0,0,0-7.916,7.916" transform="translate(35.43 36.42)" fill="#ceef9e"/>
    <path id="Trazado_9731" data-name="Trazado 9731" d="M132.391,149.235a5.337,5.337,0,1,0,5.337-5.337,5.338,5.338,0,0,0-5.337,5.337" transform="translate(34.488 37.486)" fill="#ceef9e"/>
    <path id="Trazado_9732" data-name="Trazado 9732" d="M129.822,150.378a3.388,3.388,0,1,0,3.388-3.388,3.388,3.388,0,0,0-3.388,3.388" transform="translate(33.819 38.292)" fill="#ceef9e"/>
    <path id="Trazado_9733" data-name="Trazado 9733" d="M132.541,153.366h20.521v-4.838H132.391Z" transform="translate(34.489 38.692)" fill="#ceef9e"/>
    <path id="Trazado_9734" data-name="Trazado 9734" d="M154.231,156.4H133.71a4.019,4.019,0,0,1-.393-8.018,5.949,5.949,0,0,1,4.851-3.853,8.541,8.541,0,0,1,7.865-5.222,8.628,8.628,0,0,1,1.531.137.63.63,0,0,1-.224,1.24,7.283,7.283,0,0,0-8.138,4.655.63.63,0,0,1-.557.412,4.688,4.688,0,0,0-4.259,3.418.63.63,0,0,1-.607.46.82.82,0,0,1-.1-.006,2.758,2.758,0,0,0,.029,5.516h20.521a3.807,3.807,0,0,0,0-7.615,1.122,1.122,0,0,0-.123.013c-.05.007-.107.014-.17.019a.63.63,0,0,1-.674-.555,7.279,7.279,0,0,0-1.363-3.462.63.63,0,0,1,1.016-.746,8.546,8.546,0,0,1,1.51,3.475,5.068,5.068,0,0,1-.195,10.132Z" transform="translate(33.785 36.29)" fill="#002744"/>
    <path id="Trazado_9735" data-name="Trazado 9735" d="M146.187,141.558a.627.627,0,0,1-.329-.093c-.19-.117-.393-.228-.6-.33a.63.63,0,0,1,.553-1.133c.245.12.484.251.708.388a.63.63,0,0,1-.33,1.168Z" transform="translate(37.748 36.454)" fill="#002744"/>
  </g>
</svg>
