<svg id="Illustration_office" xmlns="http://www.w3.org/2000/svg" width="60" height="60" viewBox="0 0 60 60">
  <g id="Grupo_2392" data-name="Grupo 2392" transform="translate(-940.708 -342)">
    <path id="Trazado_17722" data-name="Trazado 17722" d="M79.279,0h42.857a8.572,8.572,0,0,1,8.572,8.571V51.429A8.572,8.572,0,0,1,122.136,60H79.279a8.571,8.571,0,0,1-8.571-8.571V8.571A8.571,8.571,0,0,1,79.279,0" transform="translate(870 342)" fill="#99d6ff"/>
    <path id="Trazado_17723" data-name="Trazado 17723" d="M120.255,30.189v3.089h-.939V54.032h3.123a2.993,2.993,0,0,0,2.992-2.992V30.189Z" transform="translate(870 342)" fill="#09f"/>
    <path id="Trazado_17724" data-name="Trazado 17724" d="M125.368,31.965V51.041a3.063,3.063,0,0,1-3.063,3.063h-14.36V33.471" transform="translate(870 342)" fill="none" stroke="#002744" stroke-linecap="round" stroke-miterlimit="10" stroke-width="0.75"/>
    <line id="Línea_5974" data-name="Línea 5974" y2="20.633" transform="translate(989.223 375.471)" fill="none" stroke="#002744" stroke-linecap="round" stroke-miterlimit="10" stroke-width="0.75"/>
    <line id="Línea_5975" data-name="Línea 5975" x2="11.278" transform="translate(977.945 381.277)" fill="none" stroke="#002744" stroke-linecap="round" stroke-miterlimit="10" stroke-width="0.75"/>
    <line id="Línea_5976" data-name="Línea 5976" x2="11.278" transform="translate(977.945 387.148)" fill="none" stroke="#002744" stroke-linecap="round" stroke-miterlimit="10" stroke-width="0.75"/>
    <path id="Trazado_17725" data-name="Trazado 17725" d="M114.137,36.374a.932.932,0,1,1-.932-.932.932.932,0,0,1,.932.932" transform="translate(870 342)" fill="#002744"/>
    <path id="Trazado_17726" data-name="Trazado 17726" d="M114.137,42.213a.932.932,0,1,1-.932-.932.932.932,0,0,1,.932.932" transform="translate(870 342)" fill="#002744"/>
    <path id="Trazado_17727" data-name="Trazado 17727" d="M114.137,48.472a.932.932,0,1,1-.932-.932.932.932,0,0,1,.932.932" transform="translate(870 342)" fill="#002744"/>
    <rect id="Rectángulo_3365" data-name="Rectángulo 3365" width="37.302" height="3.012" rx="0.786" transform="translate(958.037 372.338)" fill="none" stroke="#002744" stroke-linecap="round" stroke-miterlimit="10" stroke-width="0.75"/>
    <path id="Trazado_17728" data-name="Trazado 17728" d="M119.425,30.339a.786.786,0,0,1,.786.786v1.44a.786.786,0,0,1-.786.786" transform="translate(870 342)" fill="none" stroke="#002744" stroke-linecap="round" stroke-miterlimit="10" stroke-width="0.75"/>
    <rect id="Rectángulo_3366" data-name="Rectángulo 3366" width="27.455" height="19.451" transform="translate(965.495 347.896)" fill="#ff895a"/>
    <rect id="Rectángulo_3367" data-name="Rectángulo 3367" width="4.379" height="2.47" transform="translate(976.494 367.635)" fill="#ff895a"/>
    <rect id="Rectángulo_3368" data-name="Rectángulo 3368" width="5.013" height="1.72" transform="translate(970.366 370.43)" fill="#ff895a"/>
    <path id="Trazado_17729" data-name="Trazado 17729" d="M113.2,25.344h-1.936l-.2,2.9-5.6.315-.092,1.711,6.915-.124.638-.86h.272Z" transform="translate(870 342)" fill="#fe5000"/>
    <rect id="Rectángulo_3369" data-name="Rectángulo 3369" width="2.884" height="19.244" transform="translate(990.21 348.104)" fill="#fe5000"/>
    <path id="Trazado_17730" data-name="Trazado 17730" d="M97.068,21.833,108.261,6.1h3.177L100.385,21.833Z" transform="translate(870 342)" fill="#fe5000"/>
    <path id="Trazado_17731" data-name="Trazado 17731" d="M113.353,6.1h3.163l-10.022,9.753Z" transform="translate(870 342)" fill="#fe5000"/>
    <path id="Trazado_17732" data-name="Trazado 17732" d="M95.35,16.712v4.206h.668L106.494,6.1h-3.831Z" transform="translate(870 342)" fill="#fe5000"/>
    <rect id="Rectángulo_3370" data-name="Rectángulo 3370" width="27.744" height="19.608" rx="1" transform="translate(965.35 347.896)" fill="none" stroke="#002744" stroke-linecap="round" stroke-miterlimit="10" stroke-width="0.75"/>
    <path id="Trazado_17733" data-name="Trazado 17733" d="M121.745,5.9c-1.052,0-1.379.531-1.379,1.185V24.319A1.186,1.186,0,0,1,119.18,25.5" transform="translate(870 342)" fill="none" stroke="#002744" stroke-linecap="round" stroke-miterlimit="10" stroke-width="0.75"/>
    <path id="Trazado_17734" data-name="Trazado 17734" d="M111.149,25.5v2.6a.179.179,0,0,1-.179.179h-4.722a1.028,1.028,0,0,0,0,2.055h5.2a1.757,1.757,0,0,0,1.757-1.757V25.5Z" transform="translate(870 342)" fill="none" stroke="#002744" stroke-linecap="round" stroke-miterlimit="10" stroke-width="0.75"/>
    <line id="Línea_5977" data-name="Línea 5977" y2="2.601" transform="translate(976.494 367.504)" fill="none" stroke="#002744" stroke-linecap="round" stroke-miterlimit="10" stroke-width="0.75"/>
    <path id="Trazado_17735" data-name="Trazado 17735" d="M108.714,28.283H101.25a1.027,1.027,0,1,0,0,2.055h7.643" transform="translate(870 342)" fill="none" stroke="#002744" stroke-linecap="round" stroke-miterlimit="10" stroke-width="0.75"/>
    <path id="Trazado_17736" data-name="Trazado 17736" d="M104.959,21.816h17.846" transform="translate(870 342)" fill="none" stroke="#002744" stroke-linecap="round" stroke-miterlimit="10" stroke-width="0.75"/>
    <line id="Línea_5978" data-name="Línea 5978" x2="0.686" transform="translate(971.871 363.834)" fill="none" stroke="#002744" stroke-linecap="round" stroke-miterlimit="10" stroke-width="0.75"/>
    <line id="Línea_5979" data-name="Línea 5979" x2="4.699" transform="translate(965.35 363.816)" fill="none" stroke="#002744" stroke-linecap="round" stroke-miterlimit="10" stroke-width="0.75"/>
    <rect id="Rectángulo_3371" data-name="Rectángulo 3371" width="1.814" height="2.086" transform="translate(945.551 393.641)" fill="#ff895a"/>
    <rect id="Rectángulo_3372" data-name="Rectángulo 3372" width="1.814" height="2.086" transform="translate(955.532 393.641)" fill="#ff895a"/>
    <rect id="Rectángulo_3373" data-name="Rectángulo 3373" width="1.814" height="2.086" transform="translate(961.302 393.641)" fill="#ff895a"/>
    <rect id="Rectángulo_3374" data-name="Rectángulo 3374" width="2.027" height="6.149" transform="translate(953.342 385.496)" fill="#ff895a"/>
    <rect id="Rectángulo_3375" data-name="Rectángulo 3375" width="16.564" height="1.559" transform="translate(945.637 390.285)" fill="#ff895a"/>
    <path id="Trazado_17737" data-name="Trazado 17737" d="M83.809,34.45h2.16a2.579,2.579,0,0,0,2.58-2.579v-11.4a3.189,3.189,0,0,0-3.19-3.189h-.465a5.565,5.565,0,0,0-5.566,5.565V29.97a4.48,4.48,0,0,0,4.481,4.48" transform="translate(870 342)" fill="#ff895a"/>
    <path id="Trazado_17738" data-name="Trazado 17738" d="M79.734,43.332h9.2a2.283,2.283,0,0,0,2.283-2.283v-.761a2.283,2.283,0,0,0-2.283-2.283h-9.2a2.283,2.283,0,0,0-2.283,2.283v.761a2.283,2.283,0,0,0,2.283,2.283" transform="translate(870 342)" fill="#ff895a"/>
    <path id="Trazado_17739" data-name="Trazado 17739" d="M77.451,40.927V27.939a3.745,3.745,0,0,1,1.877-3.246V38.934L77.486,41.28Z" transform="translate(870 342)" fill="#ff895a"/>
    <path id="Trazado_17740" data-name="Trazado 17740" d="M85.59,17.517a5.388,5.388,0,0,1,.72,3.5l-.116,12.649-.362.779s2.631.13,2.631-1.94V19.758c0-1.523-2.873-2.241-2.873-2.241" transform="translate(870 342)" fill="#fe5000"/>
    <path id="Trazado_17741" data-name="Trazado 17741" d="M87.418,38.371a3.4,3.4,0,0,1,3.441.563c.593.814,1.1,4.353-1.721,4.375-1.691.022-1.49-.238-1.331-1.1a7.217,7.217,0,0,0-.389-3.842" transform="translate(870 342)" fill="#fe5000"/>
    <path id="Trazado_17742" data-name="Trazado 17742" d="M83.809,34.45h2.16a2.579,2.579,0,0,0,2.58-2.579v-11.4a3.189,3.189,0,0,0-3.19-3.189h-.465a5.565,5.565,0,0,0-5.566,5.565V29.97A4.48,4.48,0,0,0,83.809,34.45Z" transform="translate(870 342)" fill="none" stroke="#002744" stroke-linecap="round" stroke-miterlimit="10" stroke-width="0.75"/>
    <path id="Trazado_17743" data-name="Trazado 17743" d="M84.87,17.287c1.2,0,1.439,1.423,1.439,2.372V32.885c0,1-.359,1.565-1.439,1.565" transform="translate(870 342)" fill="none" stroke="#002744" stroke-linecap="round" stroke-miterlimit="10" stroke-width="0.75"/>
    <rect id="Rectángulo_3376" data-name="Rectángulo 3376" width="13.765" height="5.327" rx="2.283" transform="translate(947.451 380.004)" fill="none" stroke="#002744" stroke-linecap="round" stroke-miterlimit="10" stroke-width="0.75"/>
    <path id="Trazado_17744" data-name="Trazado 17744" d="M86.831,38.005c1.564,0,1.564,5.327,0,5.327" transform="translate(870 342)" fill="none" stroke="#002744" stroke-linecap="round" stroke-miterlimit="10" stroke-width="0.75"/>
    <path id="Trazado_17745" data-name="Trazado 17745" d="M79.328,24.693h0a3.745,3.745,0,0,0-1.877,3.245V40.927" transform="translate(870 342)" fill="none" stroke="#002744" stroke-linecap="round" stroke-miterlimit="10" stroke-width="0.75"/>
    <line id="Línea_5980" data-name="Línea 5980" y2="9.265" transform="translate(949.348 370.793)" fill="none" stroke="#002744" stroke-linecap="round" stroke-miterlimit="10" stroke-width="0.75"/>
    <path id="Trazado_17746" data-name="Trazado 17746" d="M76.006,50.055H91.833a.651.651,0,0,0,.651-.651v-.1a1.239,1.239,0,0,0-1.24-1.239H76.594A1.239,1.239,0,0,0,75.355,49.3v.1A.651.651,0,0,0,76.006,50.055Z" transform="translate(870 342)" fill="none" stroke="#002744" stroke-linecap="round" stroke-miterlimit="10" stroke-width="0.75"/>
    <path id="Rectángulo_3377" data-name="Rectángulo 3377" d="M1.047,0h.111A1.048,1.048,0,0,1,2.206,1.048v.533A1.047,1.047,0,0,1,1.159,2.628H1.047A1.047,1.047,0,0,1,0,1.581V1.047A1.047,1.047,0,0,1,1.047,0Z" transform="translate(961.106 393.369)" fill="none" stroke="#002744" stroke-linecap="round" stroke-miterlimit="10" stroke-width="0.75"/>
    <path id="Rectángulo_3378" data-name="Rectángulo 3378" d="M1.047,0h.111A1.048,1.048,0,0,1,2.206,1.048v.533A1.047,1.047,0,0,1,1.159,2.628H1.047A1.047,1.047,0,0,1,0,1.581V1.047A1.047,1.047,0,0,1,1.047,0Z" transform="translate(955.358 393.369)" fill="none" stroke="#002744" stroke-linecap="round" stroke-miterlimit="10" stroke-width="0.75"/>
    <path id="Rectángulo_3379" data-name="Rectángulo 3379" d="M1.047,0h.111A1.048,1.048,0,0,1,2.206,1.048v.533A1.047,1.047,0,0,1,1.159,2.628H1.047A1.047,1.047,0,0,1,0,1.581V1.047A1.047,1.047,0,0,1,1.047,0Z" transform="translate(945.355 393.369)" fill="none" stroke="#002744" stroke-linecap="round" stroke-miterlimit="10" stroke-width="0.75"/>
    <rect id="Rectángulo_3380" data-name="Rectángulo 3380" width="2.206" height="4.733" transform="translate(953.231 385.332)" fill="none" stroke="#002744" stroke-linecap="round" stroke-miterlimit="10" stroke-width="0.75"/>
    <line id="Línea_5981" data-name="Línea 5981" y2="16.533" transform="translate(962.522 375.625)" fill="none" stroke="#002744" stroke-linecap="round" stroke-miterlimit="10" stroke-width="0.75"/>
    <line id="Línea_5982" data-name="Línea 5982" y1="1.247" transform="translate(962.522 392.156)" fill="none" stroke="#002744" stroke-linecap="round" stroke-miterlimit="10" stroke-width="0.75"/>
    <path id="Trazado_17747" data-name="Trazado 17747" d="M89.663,50.269v3.643h2.076" transform="translate(870 342)" fill="none" stroke="#002744" stroke-linecap="round" stroke-miterlimit="10" stroke-width="0.75"/>
    <line id="Línea_5983" data-name="Línea 5983" y2="4.569" transform="translate(959.664 385.496)" fill="none" stroke="#002744" stroke-linecap="round" stroke-miterlimit="10" stroke-width="0.75"/>
    <line id="Línea_5984" data-name="Línea 5984" y2="4.534" transform="translate(959.664 375.471)" fill="none" stroke="#002744" stroke-linecap="round" stroke-miterlimit="10" stroke-width="0.75"/>
  </g>
</svg>
