<svg id="illustration_Residuos" xmlns="http://www.w3.org/2000/svg" width="60" height="60" viewBox="0 0 60 60">
  <g id="Grupo_2464" data-name="Grupo 2464" transform="translate(-908.775 -695)">
    <path id="Trazado_18535" data-name="Trazado 18535" d="M150.346,0H193.2a8.572,8.572,0,0,1,8.572,8.571V51.429A8.572,8.572,0,0,1,193.2,60H150.346a8.571,8.571,0,0,1-8.571-8.571V8.571A8.571,8.571,0,0,1,150.346,0" transform="translate(767 695)" fill="#cee6ad"/>
    <path id="Trazado_18536" data-name="Trazado 18536" d="M161.413,11.253l21.774-.015a1.179,1.179,0,1,1,0,2.358l-21.919-.015" transform="translate(767 695)" fill="#ff895a"/>
    <path id="Trazado_18537" data-name="Trazado 18537" d="M167.8,8.253h8.184a6.612,6.612,0,0,1,3.625,1.082l2.9,1.9H161.268" transform="translate(767 695)" fill="#ff895a"/>
    <path id="Trazado_18538" data-name="Trazado 18538" d="M162.7,13.6h20.61a1.082,1.082,0,0,1,1.081,1.148l-1.935,32.43a4.862,4.862,0,0,1-4.853,4.572H162.261" transform="translate(767 695)" fill="#ff895a"/>
    <path id="Trazado_18539" data-name="Trazado 18539" d="M157.159,42.412l-.834-27.945a.845.845,0,0,1,.845-.87h21.57a.845.845,0,0,1,.844.9L177.6,47.82a4.176,4.176,0,0,1-4.168,3.927H157.438" transform="translate(767 695)" fill="#ff895a"/>
    <path id="Trazado_18540" data-name="Trazado 18540" d="M179.269,13.6l-21.918-.015a7.334,7.334,0,0,0-2.381.4l-4.218,1.731a1.119,1.119,0,0,1-.738-2.113l4.059-1.754a10.285,10.285,0,0,1,3.422-.589l21.774-.015a1.179,1.179,0,1,1,0,2.358" transform="translate(767 695)" fill="#ff895a"/>
    <path id="Trazado_18541" data-name="Trazado 18541" d="M179.028,11.239H157.786l2.9-1.9a6.612,6.612,0,0,1,3.625-1.082H172.5a6.618,6.618,0,0,1,3.626,1.082Z" transform="translate(767 695)" fill="#ff895a"/>
    <path id="Trazado_18542" data-name="Trazado 18542" d="M157.4,42.412h2.542a4.668,4.668,0,0,1,0,9.335H157.4" transform="translate(767 695)" fill="#ff895a"/>
    <path id="Trazado_18543" data-name="Trazado 18543" d="M162.063,47.079a4.668,4.668,0,1,1-4.667-4.667,4.667,4.667,0,0,1,4.667,4.667" transform="translate(767 695)" fill="#ff895a"/>
    <path id="Trazado_18544" data-name="Trazado 18544" d="M158.7,47.079a1.3,1.3,0,1,1-1.3-1.3,1.3,1.3,0,0,1,1.3,1.3" transform="translate(767 695)" fill="#ff895a"/>
    <path id="Trazado_18545" data-name="Trazado 18545" d="M156.266,18.805l-.108-3.63a1.532,1.532,0,0,1,1.531-1.578h20.872a.836.836,0,0,1,.835.887l-1.951,32.69a4.862,4.862,0,0,1-4.853,4.572H157.249" transform="translate(767 695)" fill="none" stroke="#002744" stroke-linecap="round" stroke-miterlimit="10" stroke-width="0.75"/>
    <line id="Línea_6288" data-name="Línea 6288" x1="0.026" y1="0.887" transform="translate(923.327 715.85)" fill="none" stroke="#002744" stroke-linecap="round" stroke-miterlimit="10" stroke-width="0.75"/>
    <line id="Línea_6289" data-name="Línea 6289" x1="0.492" y1="16.486" transform="translate(923.479 720.926)" fill="none" stroke="#002744" stroke-linecap="round" stroke-miterlimit="10" stroke-width="0.75"/>
    <path id="Trazado_18546" data-name="Trazado 18546" d="M162.512,13.6h20.74a.961.961,0,0,1,.959,1.019l-1.943,32.559a4.862,4.862,0,0,1-4.853,4.572H162.072" transform="translate(767 695)" fill="none" stroke="#002744" stroke-linecap="round" stroke-miterlimit="10" stroke-width="0.75"/>
    <path id="Trazado_18547" data-name="Trazado 18547" d="M179.081,13.6l-21.918-.015a7.334,7.334,0,0,0-2.381.4l-4.218,1.731a1.119,1.119,0,0,1-.738-2.113l4.059-1.754a10.285,10.285,0,0,1,3.422-.589l21.774-.015a1.179,1.179,0,1,1,0,2.358Z" transform="translate(767 695)" fill="none" stroke="#002744" stroke-linecap="round" stroke-miterlimit="10" stroke-width="0.75"/>
    <path id="Trazado_18548" data-name="Trazado 18548" d="M161.225,11.253,183,11.238a1.179,1.179,0,1,1,0,2.358l-21.919-.015" transform="translate(767 695)" fill="none" stroke="#002744" stroke-linecap="round" stroke-miterlimit="10" stroke-width="0.75"/>
    <path id="Trazado_18549" data-name="Trazado 18549" d="M178.84,11.239H157.6l2.9-1.9a6.612,6.612,0,0,1,3.625-1.082h8.184a6.618,6.618,0,0,1,3.626,1.082Z" transform="translate(767 695)" fill="none" stroke="#002744" stroke-linecap="round" stroke-miterlimit="10" stroke-width="0.75"/>
    <path id="Trazado_18550" data-name="Trazado 18550" d="M167.609,8.253h8.184a6.612,6.612,0,0,1,3.625,1.082l2.9,1.9H161.08" transform="translate(767 695)" fill="none" stroke="#002744" stroke-linecap="round" stroke-miterlimit="10" stroke-width="0.75"/>
    <path id="Trazado_18551" data-name="Trazado 18551" d="M161.875,47.079a4.668,4.668,0,1,1-4.667-4.667A4.667,4.667,0,0,1,161.875,47.079Z" transform="translate(767 695)" fill="none" stroke="#002744" stroke-linecap="round" stroke-miterlimit="10" stroke-width="0.75"/>
    <path id="Trazado_18552" data-name="Trazado 18552" d="M157.207,42.412h2.542a4.668,4.668,0,0,1,0,9.335h-2.542" transform="translate(767 695)" fill="none" stroke="#002744" stroke-linecap="round" stroke-miterlimit="10" stroke-width="0.75"/>
    <line id="Línea_6290" data-name="Línea 6290" x2="19.019" transform="translate(931.417 713.805)" fill="none" stroke="#002744" stroke-linecap="round" stroke-miterlimit="10" stroke-width="0.75"/>
    <circle id="Elipse_176" data-name="Elipse 176" cx="1.303" cy="1.303" r="1.303" transform="translate(922.905 740.777)" fill="none" stroke="#002744" stroke-linecap="round" stroke-miterlimit="10" stroke-width="0.75"/>
    <path id="Trazado_18553" data-name="Trazado 18553" d="M191.678,41.6,189,37.133a1.041,1.041,0,0,0-.823-.4h-1.323a1.044,1.044,0,0,0-.984.695L181.438,47.7a3.162,3.162,0,0,0,3.037,4.044h4.25a5.766,5.766,0,0,0,5.569-4.273A5.108,5.108,0,0,0,191.678,41.6Z" transform="translate(767 695)" fill="#4d997f"/>
    <path id="Trazado_18554" data-name="Trazado 18554" d="M186.854,35.614a.828.828,0,0,1-.825-.757l-.5-5.762a1.04,1.04,0,0,1,2.021-.423l.226.668a3.619,3.619,0,0,0,3.912,2.426.716.716,0,0,1,.763.455,1.332,1.332,0,0,1-.6,1.636l-2.966,1.652a.827.827,0,0,1-.4.1Z" transform="translate(767 695)" fill="#4d997f"/>
    <path id="Trazado_18555" data-name="Trazado 18555" d="M191.49,41.6l-2.676-4.468a1.041,1.041,0,0,0-.823-.4h-1.323a1.044,1.044,0,0,0-.984.695L181.25,47.7a3.162,3.162,0,0,0,3.037,4.044h4.25a5.766,5.766,0,0,0,5.569-4.273A5.108,5.108,0,0,0,191.49,41.6Z" transform="translate(767 695)" fill="none" stroke="#002744" stroke-linecap="round" stroke-miterlimit="10" stroke-width="0.75"/>
    <path id="Trazado_18556" data-name="Trazado 18556" d="M186.666,35.614a.828.828,0,0,1-.825-.757l-.5-5.762a1.04,1.04,0,0,1,2.021-.423l.226.668a3.619,3.619,0,0,0,3.912,2.426.716.716,0,0,1,.763.455,1.332,1.332,0,0,1-.6,1.636L188.7,35.509a.827.827,0,0,1-.4.1Z" transform="translate(767 695)" fill="none" stroke="#002744" stroke-linecap="round" stroke-miterlimit="10" stroke-width="0.75"/>
    <path id="Trazado_18557" data-name="Trazado 18557" d="M191.039,43.6c1.455,2.139,1.337,3.951.178,5.406" transform="translate(767 695)" fill="none" stroke="#002744" stroke-linecap="round" stroke-miterlimit="10" stroke-width="0.75"/>
    <line id="Línea_6291" data-name="Línea 6291" x1="0.713" y1="1.396" transform="translate(956.405 735.834)" fill="none" stroke="#002744" stroke-linecap="round" stroke-miterlimit="10" stroke-width="0.75"/>
    <line id="Línea_6292" data-name="Línea 6292" x1="0.056" y1="4.53" transform="translate(954.362 723.672)" fill="none" stroke="#002744" stroke-linecap="round" stroke-miterlimit="10" stroke-width="0.75"/>
  </g>
</svg>
