<svg xmlns="http://www.w3.org/2000/svg" xmlns:xlink="http://www.w3.org/1999/xlink" width="79.801" height="79.715" viewBox="0 0 79.801 79.715"><defs><style>.a,.d,.e,.f{fill:none;}.b{fill:#4d997f;}.c{clip-path:url(#a);}.d,.e,.f{stroke:#f7f9f7;stroke-miterlimit:10;}.e,.f{stroke-linecap:round;}.f{stroke-dasharray:0.512 5.118;}</style><clipPath id="a"><rect class="a" width="79.801" height="79.715" transform="translate(0 0)"/></clipPath></defs><g transform="translate(0 0)"><path class="b" d="M40.036,72.713l7.937,1.267,4.74-1.425-9.917-.79Z"/><path class="b" d="M52.841,77.74l-4.868.777V73.623l4.868-.777Z"/><path class="b" d="M44.8,78.874l1.995.041V74.022L44.8,73.98Z"/><g class="c"><path class="b" d="M43.586,8.358c-.463.006-1.075.19-.326.8a22.819,22.819,0,0,1,2.147,2.358l2.281.005s-1.207-3.2-4.1-3.166"/><path class="b" d="M43.586,19.335c-.463-.007-1.075-.227-.326-.961a26.214,26.214,0,0,0,2.147-2.821l2.281-.006s-1.207,3.834-4.1,3.788"/><rect class="b" width="2.465" height="52.344" transform="translate(40.037 19.577)"/><rect class="b" width="2.465" height="7.663" transform="translate(40.037 0.5)"/><path class="b" d="M17.942,39.635c0,2.537-1.651,6.66-4.376,6.66,3.805,0,12.544-1.715,12.544-8.148-.59.59-4.657,1.367-8.168,1.488"/><path class="b" d="M70.97,39.635c0,2.537-1.651,6.66-4.376,6.66,3.805,0,12.544-1.715,12.544-8.148-.59.59-4.657,1.367-8.168,1.488"/><path class="d" d="M42.613,70.422c5.837.177,10.228.945,10.228,1.865,0,1.051-5.733,1.9-12.805,1.9s-12.8-.852-12.8-1.9c0-.932,4.507-1.708,10.458-1.872"/><ellipse class="d" cx="12.805" cy="1.903" rx="12.805" ry="1.903" transform="translate(53.691 35.958)"/><path class="d" d="M52.841,72.287v5.024c0,1.051-5.733,1.9-12.805,1.9s-12.8-.853-12.8-1.9V72.287"/><path class="d" d="M42.5,18.937V71.92c0,.2-1.1.367-2.465.367s-2.466-.164-2.466-.367V18.937"/><path class="d" d="M37.571,8.593V.866c0-.2,1.1-.366,2.465-.366S42.5.664,42.5.866V8.593"/><path class="d" d="M45.743,13.87a5.706,5.706,0,1,1-5.707-5.707A5.707,5.707,0,0,1,45.743,13.87Z"/><path class="d" d="M48.005,15.386a5.708,5.708,0,0,1-5.5,4.19H40.037"/><path class="d" d="M40.036,8.163H42.5a5.707,5.707,0,0,1,5.112,3.166"/><path class="d" d="M45.235,11.519H56.042c3.589,0,4.187,4.786,8.375,4.786h5.145c2.154,0,2.274,2.632,0,2.632h-7.5c-4.383,0-4.92-3.709-8.54-3.709H45.743"/><path class="d" d="M34.965,11.519H24.158c-3.589,0-4.187,4.786-8.375,4.786H10.638c-2.154,0-2.274,2.632,0,2.632h7.5c4.383,0,4.92-3.709,8.54-3.709h7.779"/><path class="d" d="M66.063,18.956a.989.989,0,0,1-.806.593c-.628,0-1.137-.9-1.137-2.018s.509-2.018,1.137-2.018a.987.987,0,0,1,.8.591"/><path class="d" d="M67.566,18.956a.989.989,0,0,1-.806.593c-.628,0-1.137-.9-1.137-2.018s.509-2.018,1.137-2.018a.987.987,0,0,1,.805.591"/><path class="d" d="M69.189,18.956a.989.989,0,0,1-.806.593c-.628,0-1.137-.9-1.137-2.018s.509-2.018,1.137-2.018a.987.987,0,0,1,.805.591"/><path class="d" d="M12.774,18.956a.989.989,0,0,1-.806.593c-.628,0-1.137-.9-1.137-2.018s.509-2.018,1.137-2.018a.987.987,0,0,1,.8.591"/><path class="d" d="M14.277,18.956a.989.989,0,0,1-.806.593c-.628,0-1.137-.9-1.137-2.018s.509-2.018,1.137-2.018a.987.987,0,0,1,.805.591"/><path class="d" d="M15.9,18.956a.989.989,0,0,1-.806.593c-.628,0-1.137-.9-1.137-2.018s.509-2.018,1.137-2.018a.987.987,0,0,1,.805.591"/><path class="d" d="M68.384,19.549,79.3,37.86c0,4.66-5.733,8.438-12.805,8.438S53.691,42.52,53.691,37.86L65.258,19.549"/><ellipse class="d" cx="12.805" cy="1.903" rx="12.805" ry="1.903" transform="translate(0.5 35.958)"/><path class="d" d="M15.193,19.549,26.11,37.86c0,4.66-5.733,8.438-12.805,8.438S.5,42.52.5,37.86L12.067,19.549"/><line class="e" x2="0.25" transform="translate(0.5 50.115)"/><line class="f" x2="70.624" transform="translate(5.868 50.115)"/><line class="e" x2="0.25" transform="translate(79.051 50.115)"/><path class="b" d="M43.586,14.528a3.009,3.009,0,0,1-6.017,0,2.1,2.1,0,0,1,.047-.485,3.372,3.372,0,0,0,2.779,2.05A2.106,2.106,0,0,0,42.5,13.985c0-1.008-1.436-2.218-2.4-2.414a2.069,2.069,0,0,1,.475-.047,3,3,0,0,1,3,3"/><circle class="d" cx="2.053" cy="2.053" r="2.053" transform="translate(37.983 11.817)"/></g></g></svg>