<svg id="illustration_Papeleria" xmlns="http://www.w3.org/2000/svg" width="60" height="60" viewBox="0 0 60 60">
  <g id="Grupo_2458" data-name="Grupo 2458" transform="translate(-817.708 -610)">
    <path id="Trazado_18482" data-name="Trazado 18482" d="M79.279,0h42.857a8.572,8.572,0,0,1,8.572,8.571V51.429A8.572,8.572,0,0,1,122.136,60H79.279a8.571,8.571,0,0,1-8.571-8.571V8.571A8.571,8.571,0,0,1,79.279,0" transform="translate(747 610)" fill="#99d6ff"/>
    <path id="Trazado_18483" data-name="Trazado 18483" d="M114.688,46.458H93.641A1.744,1.744,0,0,1,91.9,44.714V10.95a1.744,1.744,0,0,1,1.744-1.744h23.326a1.744,1.744,0,0,1,1.744,1.744l-2.279,33.764a1.744,1.744,0,0,1-1.744,1.744" transform="translate(747 610)" fill="#09f"/>
    <path id="Trazado_18484" data-name="Trazado 18484" d="M121.565,45.123l-.228-24.843-7.32-7.273H98.545A1.744,1.744,0,0,0,96.8,14.751V46.607h23.28a1.483,1.483,0,0,0,1.484-1.484" transform="translate(747 610)" fill="#ff895a"/>
    <line id="Línea_6275" data-name="Línea 6275" y1="17.678" transform="translate(868.337 630.279)" fill="none" stroke="#002744" stroke-linecap="round" stroke-miterlimit="10" stroke-width="0.75"/>
    <line id="Línea_6276" data-name="Línea 6276" y1="0.913" transform="translate(868.337 650.787)" fill="none" stroke="#002744" stroke-linecap="round" stroke-miterlimit="10" stroke-width="0.75"/>
    <path id="Trazado_18485" data-name="Trazado 18485" d="M114.018,12.961H98.224A1.422,1.422,0,0,0,96.8,14.383V45.232a1.422,1.422,0,0,0,1.422,1.422h21.691a1.422,1.422,0,0,0,1.422-1.422v-.9" transform="translate(747 610)" fill="none" stroke="#002744" stroke-linecap="round" stroke-miterlimit="10" stroke-width="0.75"/>
    <path id="Trazado_18486" data-name="Trazado 18486" d="M114.018,12.961v6.163a1.156,1.156,0,0,0,1.156,1.156h6.163Z" transform="translate(747 610)" fill="none" stroke="#002744" stroke-linecap="round" stroke-linejoin="round" stroke-width="0.75"/>
    <path id="Trazado_18487" data-name="Trazado 18487" d="M96.8,37.477H93.32A1.422,1.422,0,0,1,91.9,36.055V10.628A1.422,1.422,0,0,1,93.32,9.206h23.969a1.423,1.423,0,0,1,1.423,1.422v7.027" transform="translate(747 610)" fill="none" stroke="#002744" stroke-linecap="round" stroke-miterlimit="10" stroke-width="0.75"/>
    <path id="Trazado_18488" data-name="Trazado 18488" d="M102.8,23.231V48.872a1.918,1.918,0,0,1-1.911,1.922H84.864L95.221,26.3h2.187V24.661a.853.853,0,0,0-.853-.841h-.288l.925-2.2h4.013a1.6,1.6,0,0,1,1.6,1.61" transform="translate(747 610)" fill="#fe5000"/>
    <path id="Trazado_18489" data-name="Trazado 18489" d="M98.117,21.621H92.83a2.427,2.427,0,0,0-1.874.9l-3,3.8H81.776a1.918,1.918,0,0,0-1.922,1.91V48.872a1.928,1.928,0,0,0,1.922,1.922H97.8a1.918,1.918,0,0,0,1.911-1.922V23.231a1.608,1.608,0,0,0-1.6-1.61M97.408,26.3h-6.2L92.794,24.3a1.263,1.263,0,0,1,.985-.481h2.776a.854.854,0,0,1,.853.841Z" transform="translate(747 610)" fill="#ff895a"/>
    <path id="Trazado_18490" data-name="Trazado 18490" d="M102.807,33.333l-3.093-.06-19.864-.06V41.7l19.864-.228,3.093.228Z" transform="translate(747 610)" fill="#fe5000"/>
    <path id="Trazado_18491" data-name="Trazado 18491" d="M86.888,22.488h-4.52v1.8h.522v2h3.592v-2h.406Z" transform="translate(747 610)" fill="#ff895a"/>
    <path id="Rectángulo_3455" data-name="Rectángulo 3455" d="M.489,0H4.157a.489.489,0,0,1,.489.489V1.558a.49.49,0,0,1-.49.49H.489A.489.489,0,0,1,0,1.559V.489A.489.489,0,0,1,.489,0Z" transform="translate(829.305 632.488)" fill="none" stroke="#002744" stroke-linecap="round" stroke-miterlimit="10" stroke-width="0.75"/>
    <path id="Trazado_18492" data-name="Trazado 18492" d="M90.959,22.538l-3,3.785H81.781a1.918,1.918,0,0,0-1.918,1.918V48.859a1.918,1.918,0,0,0,1.918,1.917H97.792a1.918,1.918,0,0,0,1.918-1.918V23.238a1.6,1.6,0,0,0-1.6-1.6H92.831A2.39,2.39,0,0,0,90.959,22.538Z" transform="translate(747 610)" fill="none" stroke="#002744" stroke-linecap="round" stroke-miterlimit="10" stroke-width="0.75"/>
    <path id="Trazado_18493" data-name="Trazado 18493" d="M84.871,50.777h16.01a1.918,1.918,0,0,0,1.918-1.918V23.239a1.6,1.6,0,0,0-1.6-1.6H97.189" transform="translate(747 610)" fill="none" stroke="#002744" stroke-linecap="round" stroke-miterlimit="10" stroke-width="0.75"/>
    <path id="Trazado_18494" data-name="Trazado 18494" d="M91.214,26.291,92.8,24.3a1.259,1.259,0,0,1,.986-.476h2.779a.845.845,0,0,1,.845.845v1.625Z" transform="translate(747 610)" fill="none" stroke="#002744" stroke-linecap="round" stroke-linejoin="round" stroke-width="0.75"/>
    <line id="Línea_6277" data-name="Línea 6277" y2="1.788" transform="translate(829.953 634.535)" fill="none" stroke="#002744" stroke-linecap="round" stroke-linejoin="round" stroke-width="0.75"/>
    <line id="Línea_6278" data-name="Línea 6278" y2="1.788" transform="translate(833.439 634.535)" fill="none" stroke="#002744" stroke-linecap="round" stroke-linejoin="round" stroke-width="0.75"/>
    <path id="Trazado_18495" data-name="Trazado 18495" d="M79.863,33.213l19.846.12h3.09" transform="translate(747 610)" fill="none" stroke="#002744" stroke-linecap="round" stroke-miterlimit="10" stroke-width="0.75"/>
    <path id="Trazado_18496" data-name="Trazado 18496" d="M79.863,41.7H102.8" transform="translate(747 610)" fill="none" stroke="#002744" stroke-linecap="round" stroke-miterlimit="10" stroke-width="0.75"/>
  </g>
</svg>
