<svg id="illustration_ViajesNegocios" xmlns="http://www.w3.org/2000/svg" width="60" height="60" viewBox="0 0 60 60">
  <g id="Grupo_2450" data-name="Grupo 2450" transform="translate(-811.639 -566)">
    <path id="Trazado_18389" data-name="Trazado 18389" d="M79.945,0H122.8a8.572,8.572,0,0,1,8.572,8.571V51.429A8.572,8.572,0,0,1,122.8,60H79.945a8.571,8.571,0,0,1-8.571-8.571V8.571A8.571,8.571,0,0,1,79.945,0" transform="translate(740.265 566)" fill="#99d6ff"/>
    <rect id="Rectángulo_3447" data-name="Rectángulo 3447" width="7.931" height="1.308" transform="translate(825.148 575.166)" fill="#ff895a"/>
    <path id="Trazado_18390" data-name="Trazado 18390" d="M93.932,43.514H84.325a4.891,4.891,0,0,1-4.891-4.891V21.838a4.891,4.891,0,0,1,4.891-4.891h9.607a4.891,4.891,0,0,1,4.891,4.891V38.623a4.891,4.891,0,0,1-4.891,4.891" transform="translate(740.265 566)" fill="#ff895a"/>
    <path id="Trazado_18391" data-name="Trazado 18391" d="M98.823,21.19V39.275a4.242,4.242,0,0,1-4.241,4.241H92.344a3.7,3.7,0,0,0,3.7-3.7V20.652a3.7,3.7,0,0,0-3.7-3.7h2.238a4.243,4.243,0,0,1,4.241,4.242" transform="translate(740.265 566)" fill="#fe5000"/>
    <path id="Trazado_18392" data-name="Trazado 18392" d="M116.746,33.81l.026,0h-.046a1.645,1.645,0,0,0-.187-.019H102.51a1.765,1.765,0,0,0-1.765,1.765v8.191a1.765,1.765,0,0,0,1.765,1.765h14.029a1.765,1.765,0,0,0,1.765-1.765V35.554a1.759,1.759,0,0,0-1.558-1.744" transform="translate(740.265 566)" fill="#09f"/>
    <path id="Trazado_18393" data-name="Trazado 18393" d="M89.419,16.946H92.14a3.7,3.7,0,0,1,3.7,3.7V39.809a3.7,3.7,0,0,1-3.7,3.7H89.419" transform="translate(740.265 566)" fill="none" stroke="#002744" stroke-linecap="round" stroke-miterlimit="10" stroke-width="0.75"/>
    <rect id="Rectángulo_3448" data-name="Rectángulo 3448" width="8.469" height="1.563" rx="0.669" transform="translate(824.954 575.016)" fill="none" stroke="#002744" stroke-linecap="round" stroke-miterlimit="10" stroke-width="0.75"/>
    <line id="Línea_6255" data-name="Línea 6255" y2="6.367" transform="translate(826.371 576.578)" fill="none" stroke="#002744" stroke-linecap="round" stroke-miterlimit="10" stroke-width="0.75"/>
    <line id="Línea_6256" data-name="Línea 6256" y2="6.367" transform="translate(832.006 576.578)" fill="none" stroke="#002744" stroke-linecap="round" stroke-miterlimit="10" stroke-width="0.75"/>
    <path id="Trazado_18394" data-name="Trazado 18394" d="M83.28,39.287h0a.846.846,0,0,1-.846-.846V24.983a.846.846,0,0,1,1.692,0V38.441A.846.846,0,0,1,83.28,39.287Z" transform="translate(740.265 566)" fill="none" stroke="#002744" stroke-linecap="round" stroke-miterlimit="10" stroke-width="0.75"/>
    <path id="Trazado_18395" data-name="Trazado 18395" d="M87.447,39.287h0a.846.846,0,0,1-.846-.846V24.983a.846.846,0,0,1,1.692,0V38.441A.846.846,0,0,1,87.447,39.287Z" transform="translate(740.265 566)" fill="none" stroke="#002744" stroke-linecap="round" stroke-miterlimit="10" stroke-width="0.75"/>
    <path id="Trazado_18396" data-name="Trazado 18396" d="M91.615,39.287h0a.846.846,0,0,1-.846-.846V24.983a.846.846,0,0,1,1.692,0V38.441A.846.846,0,0,1,91.615,39.287Z" transform="translate(740.265 566)" fill="none" stroke="#002744" stroke-linecap="round" stroke-miterlimit="10" stroke-width="0.75"/>
    <path id="Trazado_18397" data-name="Trazado 18397" d="M84.237,46.175h0a1.257,1.257,0,0,1-1.257-1.257v-.149a1.257,1.257,0,0,1,2.514,0v.149A1.257,1.257,0,0,1,84.237,46.175Z" transform="translate(740.265 566)" fill="none" stroke="#002744" stroke-linecap="round" stroke-miterlimit="10" stroke-width="0.75"/>
    <path id="Trazado_18398" data-name="Trazado 18398" d="M84.644,43.513h.494a1.256,1.256,0,0,1,1.256,1.257v.149a1.256,1.256,0,0,1-1.256,1.256h-.9" transform="translate(740.265 566)" fill="none" stroke="#002744" stroke-linecap="round" stroke-miterlimit="10" stroke-width="0.75"/>
    <path id="Trazado_18399" data-name="Trazado 18399" d="M92.709,46.175h0a1.257,1.257,0,0,1-1.257-1.257v-.149a1.257,1.257,0,0,1,2.514,0v.149A1.257,1.257,0,0,1,92.709,46.175Z" transform="translate(740.265 566)" fill="none" stroke="#002744" stroke-linecap="round" stroke-miterlimit="10" stroke-width="0.75"/>
    <path id="Trazado_18400" data-name="Trazado 18400" d="M93.116,43.513h.494a1.256,1.256,0,0,1,1.256,1.257v.149a1.256,1.256,0,0,1-1.256,1.256h-.9" transform="translate(740.265 566)" fill="none" stroke="#002744" stroke-linecap="round" stroke-miterlimit="10" stroke-width="0.75"/>
    <path id="Trazado_18401" data-name="Trazado 18401" d="M113.866,33.789H102.587a1.766,1.766,0,0,0-1.766,1.765v8.19a1.766,1.766,0,0,0,1.766,1.766h11.279a1.766,1.766,0,0,0,1.765-1.766v-8.19c0-1.476.64-1.746,1.217-1.746" transform="translate(740.265 566)" fill="none" stroke="#002744" stroke-linecap="round" stroke-miterlimit="10" stroke-width="0.75"/>
    <path id="Trazado_18402" data-name="Trazado 18402" d="M115.632,36V37.37a2.714,2.714,0,0,1-2.713,2.714h-9.384a2.714,2.714,0,0,1-2.713-2.714V36" transform="translate(740.265 566)" fill="none" stroke="#002744" stroke-linecap="round" stroke-miterlimit="10" stroke-width="0.75"/>
    <path id="Trazado_18403" data-name="Trazado 18403" d="M110.068,33.789h6.548a1.765,1.765,0,0,1,1.765,1.765v8.19a1.766,1.766,0,0,1-1.765,1.766h-6.548" transform="translate(740.265 566)" fill="none" stroke="#002744" stroke-linecap="round" stroke-miterlimit="10" stroke-width="0.75"/>
    <line id="Línea_6257" data-name="Línea 6257" x2="2.908" transform="translate(846.881 606.994)" fill="none" stroke="#002744" stroke-linecap="round" stroke-miterlimit="10" stroke-width="0.75"/>
    <path id="Trazado_18404" data-name="Trazado 18404" d="M107.333,40.995v1.454a.673.673,0,0,0,.673.673h.156a.673.673,0,0,0,.673-.673V40.995" transform="translate(740.265 566)" fill="none" stroke="#002744" stroke-linecap="round" stroke-miterlimit="10" stroke-width="0.75"/>
    <path id="Trazado_18405" data-name="Trazado 18405" d="M111.32,31.749h-4.146a.8.8,0,0,0-.8.8v1.244h1.1v-.738a.2.2,0,0,1,.2-.2h3.053a.2.2,0,0,1,.2.2v.738h1.056V32.422A.673.673,0,0,0,111.32,31.749Z" transform="translate(740.265 566)" fill="none" stroke="#002744" stroke-linecap="round" stroke-miterlimit="10" stroke-width="0.75"/>
    <line id="Línea_6258" data-name="Línea 6258" y1="0.53" transform="translate(819.494 591.641)" fill="none" stroke="#002744" stroke-linecap="round" stroke-miterlimit="10" stroke-width="0.75"/>
    <path id="Trazado_18406" data-name="Trazado 18406" d="M79.229,23.054V21.188a4.243,4.243,0,0,1,4.242-4.243h10.9a4.243,4.243,0,0,1,4.243,4.243V39.27a4.243,4.243,0,0,1-4.243,4.242h-10.9a4.242,4.242,0,0,1-4.242-4.242V27.645" transform="translate(740.265 566)" fill="none" stroke="#002744" stroke-linecap="round" stroke-miterlimit="10" stroke-width="0.75"/>
    <path id="Trazado_18407" data-name="Trazado 18407" d="M116.464,50.984h-38.3a2.4,2.4,0,1,1,0-4.809h38.3a2.4,2.4,0,0,1,0,4.809Z" transform="translate(740.265 566)" fill="none" stroke="#002744" stroke-linecap="round" stroke-miterlimit="10" stroke-width="0.75"/>
    <path id="Trazado_18408" data-name="Trazado 18408" d="M84.537,46.175h41.28a2.4,2.4,0,1,1,0,4.809H84.537" transform="translate(740.265 566)" fill="none" stroke="#002744" stroke-linecap="round" stroke-miterlimit="10" stroke-width="0.75"/>
    <path id="Trazado_18409" data-name="Trazado 18409" d="M116.122,49.333H78.507a.754.754,0,1,1,0-1.507h37.615a.754.754,0,0,1,0,1.507" transform="translate(740.265 566)" fill="#09f"/>
  </g>
</svg>
