<svg xmlns="http://www.w3.org/2000/svg" width="60" height="60" viewBox="0 0 60 60">
  <g id="Illustrarion_aire" transform="translate(0)">
    <path id="Trazado_18091" data-name="Trazado 18091" d="M221.377,0h42.857a8.572,8.572,0,0,1,8.572,8.571V51.429A8.572,8.572,0,0,1,264.234,60H221.377a8.571,8.571,0,0,1-8.571-8.571V8.571A8.571,8.571,0,0,1,221.377,0" transform="translate(-212.806)" fill="#f7f9f7"/>
    <path id="Trazado_18092" data-name="Trazado 18092" d="M253.658,18.286h9.379a2.411,2.411,0,0,1,2.411,2.412v16.5a2.411,2.411,0,0,1-2.411,2.412h-37.18" transform="translate(-212.806)" fill="#c6cccb"/>
    <path id="Trazado_18093" data-name="Trazado 18093" d="M233.036,18.286h26.469a2.66,2.66,0,0,1,2.66,2.66v16a2.66,2.66,0,0,1-2.66,2.66H222.822a2.66,2.66,0,0,1-2.659-2.66v-16a2.66,2.66,0,0,1,2.659-2.66h3.892" transform="translate(-212.806)" fill="#eef9ed"/>
    <path id="Trazado_18094" data-name="Trazado 18094" d="M223.591,39.171V34.884A2.412,2.412,0,0,1,226,32.472h30.322a2.411,2.411,0,0,1,2.411,2.412v4.287" transform="translate(-212.806)" fill="#c6cccb"/>
    <path id="Trazado_18095" data-name="Trazado 18095" d="M233.036,18.286h26.469a2.66,2.66,0,0,1,2.66,2.66v16a2.66,2.66,0,0,1-2.66,2.66H222.822a2.66,2.66,0,0,1-2.659-2.66v-16a2.66,2.66,0,0,1,2.659-2.66h3.892" transform="translate(-212.806)" fill="none" stroke="#002744" stroke-linecap="round" stroke-miterlimit="10" stroke-width="0.75"/>
    <line id="Línea_6103" data-name="Línea 6103" x2="1.133" transform="translate(15.554 18.287)" fill="none" stroke="#002744" stroke-linecap="round" stroke-miterlimit="10" stroke-width="0.75"/>
    <path id="Trazado_18096" data-name="Trazado 18096" d="M253.658,18.286h9.379a2.411,2.411,0,0,1,2.411,2.412v16.5a2.411,2.411,0,0,1-2.411,2.412h-37.18" transform="translate(-212.806)" fill="none" stroke="#002744" stroke-linecap="round" stroke-miterlimit="10" stroke-width="0.75"/>
    <path id="Trazado_18097" data-name="Trazado 18097" d="M223.591,39.171V34.884A2.412,2.412,0,0,1,226,32.472h30.322a2.411,2.411,0,0,1,2.411,2.412v4.287" transform="translate(-212.806)" fill="none" stroke="#002744" stroke-linecap="round" stroke-miterlimit="10" stroke-width="0.75"/>
    <line id="Línea_6104" data-name="Línea 6104" x2="28.739" transform="translate(13.988 34.816)" fill="none" stroke="#002744" stroke-linecap="round" stroke-miterlimit="10" stroke-width="0.75"/>
    <line id="Línea_6105" data-name="Línea 6105" x2="28.739" transform="translate(13.988 36.223)" fill="none" stroke="#002744" stroke-linecap="round" stroke-miterlimit="10" stroke-width="0.75"/>
    <line id="Línea_6106" data-name="Línea 6106" x2="28.739" transform="translate(13.988 37.629)" fill="none" stroke="#002744" stroke-linecap="round" stroke-miterlimit="10" stroke-width="0.75"/>
    <path id="Trazado_18098" data-name="Trazado 18098" d="M254.6,22.138h-25.9a.938.938,0,1,1,0-1.876h25.9a.938.938,0,1,1,0,1.876Z" transform="translate(-212.806)" fill="none" stroke="#002744" stroke-linecap="round" stroke-miterlimit="10" stroke-width="0.75"/>
    <path id="Trazado_18099" data-name="Trazado 18099" d="M254.6,25.488h0a.938.938,0,1,1,.938-.938A.938.938,0,0,1,254.6,25.488Z" transform="translate(-212.806)" fill="none" stroke="#002744" stroke-linecap="round" stroke-miterlimit="10" stroke-width="0.75"/>
    <path id="Trazado_18100" data-name="Trazado 18100" d="M251.069,25.488h0a.938.938,0,1,1,.938-.938A.938.938,0,0,1,251.069,25.488Z" transform="translate(-212.806)" fill="none" stroke="#002744" stroke-linecap="round" stroke-miterlimit="10" stroke-width="0.75"/>
    <path id="Trazado_18101" data-name="Trazado 18101" d="M247.543,25.488h0a.938.938,0,1,1,.938-.938A.938.938,0,0,1,247.543,25.488Z" transform="translate(-212.806)" fill="none" stroke="#002744" stroke-linecap="round" stroke-miterlimit="10" stroke-width="0.75"/>
    <path id="Trazado_18102" data-name="Trazado 18102" d="M224.28,41.79c-.226.768-.61.655-.836,1.423s.157.881-.069,1.648-.61.656-.837,1.424.157.884-.07,1.654-.611.657-.838,1.427" transform="translate(-212.806)" fill="none" stroke="#002744" stroke-linecap="round" stroke-miterlimit="10" stroke-width="0.75"/>
    <path id="Trazado_18103" data-name="Trazado 18103" d="M227.6,41.734c-.226.768-.649.644-.875,1.412s.2.892-.03,1.659-.649.644-.876,1.413" transform="translate(-212.806)" fill="none" stroke="#002744" stroke-linecap="round" stroke-miterlimit="10" stroke-width="0.75"/>
    <path id="Trazado_18104" data-name="Trazado 18104" d="M230.818,41.79c-.226.768-.61.655-.836,1.423s.157.881-.069,1.648-.61.656-.837,1.424.157.884-.07,1.654-.611.657-.838,1.427" transform="translate(-212.806)" fill="none" stroke="#002744" stroke-linecap="round" stroke-miterlimit="10" stroke-width="0.75"/>
    <path id="Trazado_18105" data-name="Trazado 18105" d="M248.187,41.79c-.226.768-.61.655-.836,1.423s.157.881-.069,1.648-.61.656-.837,1.424.157.884-.07,1.654-.611.657-.838,1.427" transform="translate(-212.806)" fill="none" stroke="#002744" stroke-linecap="round" stroke-miterlimit="10" stroke-width="0.75"/>
    <path id="Trazado_18106" data-name="Trazado 18106" d="M251.512,41.734c-.226.768-.649.644-.875,1.412s.2.892-.03,1.659-.649.644-.876,1.413" transform="translate(-212.806)" fill="none" stroke="#002744" stroke-linecap="round" stroke-miterlimit="10" stroke-width="0.75"/>
    <path id="Trazado_18107" data-name="Trazado 18107" d="M254.725,41.79c-.226.768-.61.655-.836,1.423s.157.881-.069,1.648-.61.656-.837,1.424.157.884-.07,1.654-.611.657-.838,1.427" transform="translate(-212.806)" fill="none" stroke="#002744" stroke-linecap="round" stroke-miterlimit="10" stroke-width="0.75"/>
  </g>
</svg>
