<svg xmlns="http://www.w3.org/2000/svg" width="60" height="60" viewBox="0 0 60 60">
  <g id="Illustration_extintor" transform="translate(0)">
    <g id="Grupo_2405" data-name="Grupo 2405" transform="translate(-926.775 -573)">
      <path id="Trazado_17900" data-name="Trazado 17900" d="M150.346,0H193.2a8.572,8.572,0,0,1,8.572,8.571V51.429A8.572,8.572,0,0,1,193.2,60H150.346a8.571,8.571,0,0,1-8.571-8.571V8.571A8.571,8.571,0,0,1,150.346,0" transform="translate(785 573)" fill="#cee6ad"/>
      <path id="Trazado_17901" data-name="Trazado 17901" d="M182,17.354l-6.49-1.758a.852.852,0,0,1-.629-.823V12.792a.852.852,0,0,1,.629-.823L182,10.211a.852.852,0,0,1,1.075.823v5.5a.852.852,0,0,1-1.075.823" transform="translate(785 573)" fill="#ff895a"/>
      <path id="Trazado_17902" data-name="Trazado 17902" d="M162.1,40.373V23.819a6.067,6.067,0,0,1,6.067-6.067h4.738a6.067,6.067,0,0,1,6.067,6.067v23.65a1.867,1.867,0,0,1-1.867,1.867H163.972a1.867,1.867,0,0,1-1.867-1.867V45.943" transform="translate(785 573)" fill="#ff895a"/>
      <path id="Trazado_17903" data-name="Trazado 17903" d="M178.975,23.821V47.464a1.871,1.871,0,0,1-1.865,1.876h-2.882a1.871,1.871,0,0,0,1.866-1.876V23.821a6.063,6.063,0,0,0-6.065-6.064h2.882a6.063,6.063,0,0,1,6.064,6.064" transform="translate(785 573)" fill="#fe5000"/>
      <path id="Trazado_17904" data-name="Trazado 17904" d="M170.029,17.752a6.067,6.067,0,0,1,6.067,6.067v23.65a1.867,1.867,0,0,1-1.867,1.867" transform="translate(785 573)" fill="none" stroke="#002744" stroke-linecap="round" stroke-miterlimit="10" stroke-width="0.75"/>
      <path id="Trazado_17905" data-name="Trazado 17905" d="M162.1,40.373V23.819a6.067,6.067,0,0,1,6.067-6.067h4.738a6.067,6.067,0,0,1,6.067,6.067v23.65a1.867,1.867,0,0,1-1.867,1.867H163.972a1.867,1.867,0,0,1-1.867-1.867V45.943" transform="translate(785 573)" fill="none" stroke="#002744" stroke-linecap="round" stroke-miterlimit="10" stroke-width="0.75"/>
      <line id="Línea_6043" data-name="Línea 6043" y1="0.608" transform="translate(947.105 616.352)" fill="none" stroke="#002744" stroke-linecap="round" stroke-miterlimit="10" stroke-width="0.75"/>
      <path id="Trazado_17906" data-name="Trazado 17906" d="M172.191,17.752h-4.546V10.788a.976.976,0,0,1,.975-.975h2.6a.975.975,0,0,1,.975.975Z" transform="translate(785 573)" fill="none" stroke="#002744" stroke-linecap="round" stroke-miterlimit="10" stroke-width="0.75"/>
      <path id="Trazado_17907" data-name="Trazado 17907" d="M160.475,18.584c0-2.731,2.625-5.078,7.17-5.078v1.867c-4.929,0-6.306,1.91-6.306,3.211C161.339,19.183,160.475,19.1,160.475,18.584Z" transform="translate(785 573)" fill="none" stroke="#002744" stroke-linecap="round" stroke-miterlimit="10" stroke-width="0.75"/>
      <path id="Trazado_17908" data-name="Trazado 17908" d="M167.645,11.318a2.188,2.188,0,1,1-2.187-2.187A2.187,2.187,0,0,1,167.645,11.318Z" transform="translate(785 573)" fill="none" stroke="#002744" stroke-linecap="round" stroke-miterlimit="10" stroke-width="0.75"/>
      <rect id="Rectángulo_3425" data-name="Rectángulo 3425" width="2.689" height="1.793" transform="translate(957.191 585.973)" fill="none" stroke="#002744" stroke-linecap="round" stroke-miterlimit="10" stroke-width="0.75"/>
      <path id="Trazado_17909" data-name="Trazado 17909" d="M182,17.44l-6.49-1.758a.852.852,0,0,1-.629-.823V12.878a.852.852,0,0,1,.629-.823L182,10.3a.852.852,0,0,1,1.075.823v5.5A.852.852,0,0,1,182,17.44Z" transform="translate(785 573)" fill="none" stroke="#002744" stroke-linecap="round" stroke-miterlimit="10" stroke-width="0.75"/>
      <path id="Trazado_17910" data-name="Trazado 17910" d="M168.388,37.865a3.915,3.915,0,0,1-1.653-6.459c2.131-2.588,2.523-2.828,2.479-4.285a3.7,3.7,0,0,1,1.936,2.936c.177,1.258-1.131,2.921.631,2.921.954,0,.826-1.29.826-1.29,1.316,1.316,1.5,5.2-1.587,6.059a1.791,1.791,0,0,0-.218-2.927c0,1.584-2.292,1.472-2.292-.432a3.347,3.347,0,0,1,.96-2.529s-2.048.444-2.048,3.793a3.125,3.125,0,0,0,.966,2.213" transform="translate(785 573)" fill="#4d997f"/>
      <path id="Trazado_17911" data-name="Trazado 17911" d="M168.388,37.865a3.915,3.915,0,0,1-1.653-6.459c2.131-2.588,2.523-2.828,2.479-4.285a3.7,3.7,0,0,1,1.936,2.936c.177,1.258-1.131,2.921.631,2.921.954,0,.826-1.29.826-1.29,1.316,1.316,1.5,5.2-1.587,6.059a1.791,1.791,0,0,0-.218-2.927c0,1.584-2.292,1.472-2.292-.432a3.347,3.347,0,0,1,.96-2.529s-2.048.444-2.048,3.793A3.125,3.125,0,0,0,168.388,37.865Z" transform="translate(785 573)" fill="none" stroke="#002744" stroke-linecap="round" stroke-linejoin="round" stroke-width="0.75"/>
    </g>
  </g>
</svg>
