<svg id="illustration_Bodega" xmlns="http://www.w3.org/2000/svg" xmlns:xlink="http://www.w3.org/1999/xlink" width="60" height="60" viewBox="0 0 60 60">
  <defs>
    <clipPath id="clip-path">
      <rect id="Rectángulo_3334" data-name="Rectángulo 3334" width="22.404" height="35.37" transform="translate(75.146 15.849)" fill="none"/>
    </clipPath>
    <clipPath id="clip-path-2">
      <rect id="Rectángulo_3335" data-name="Rectángulo 3335" width="43.78" height="43.81" transform="translate(82.486 7.409)" fill="none"/>
    </clipPath>
  </defs>
  <g id="Grupo_2384" data-name="Grupo 2384" transform="translate(-912.903 -273)">
    <path id="Trazado_17642" data-name="Trazado 17642" d="M79.279,0h42.857a8.572,8.572,0,0,1,8.572,8.571V51.429A8.572,8.572,0,0,1,122.136,60H79.279a8.571,8.571,0,0,1-8.571-8.571V8.571A8.571,8.571,0,0,1,79.279,0" transform="translate(842.195 273)" fill="#99d6ff"/>
    <rect id="Rectángulo_3333" data-name="Rectángulo 3333" width="2.802" height="7.99" transform="matrix(0.545, -0.838, 0.838, 0.545, 918.762, 284.732)" fill="#ff895a"/>
    <path id="Trazado_17643" data-name="Trazado 17643" d="M101.12,47.15a1.571,1.571,0,1,1-1.571-1.571,1.571,1.571,0,0,1,1.571,1.571" transform="translate(842.195 273)" fill="#09f"/>
    <g id="Grupo_2369" data-name="Grupo 2369" transform="translate(842.195 273)" opacity="0.5">
      <g id="Grupo_2368" data-name="Grupo 2368">
        <g id="Grupo_2367" data-name="Grupo 2367" clip-path="url(#clip-path)">
          <path id="Trazado_17644" data-name="Trazado 17644" d="M94.106,47.009a5.765,5.765,0,0,1,3.444-5.166v-.509L89.616,19.26l-5.49-3.13a1.224,1.224,0,0,0-1.24,0,2.508,2.508,0,0,1-.4-.28v1.31a1.825,1.825,0,0,0,.58,1.33h-.76a1.778,1.778,0,0,0-1.75,1.81V33.7a1.841,1.841,0,0,0,.3,1.01H76.9a1.753,1.753,0,0,0-1.75,1.75v13.01a1.746,1.746,0,0,0,1.75,1.75h19.17a5.558,5.558,0,0,1-1.96-4.21" fill="#09f"/>
        </g>
      </g>
    </g>
    <g id="Grupo_2372" data-name="Grupo 2372" transform="translate(842.195 273)" opacity="0.5">
      <g id="Grupo_2371" data-name="Grupo 2371">
        <g id="Grupo_2370" data-name="Grupo 2370" clip-path="url(#clip-path-2)">
          <path id="Trazado_17645" data-name="Trazado 17645" d="M126.266,36.459v13.01a1.746,1.746,0,0,1-1.75,1.75h-19.87a5.561,5.561,0,0,0,1.96-4.21,4.662,4.662,0,0,0-.13-1.13l12.81-4.74-.48-1.6-12.92,4.79a6.309,6.309,0,0,0-5.53-3.11,8.671,8.671,0,0,0-.89.061v-.161h-.13l-8.2-22.439-6.12-3.98-.63-1.131-1.9-1.3V9.209a1.782,1.782,0,0,1,1.75-1.8h7.71a1.776,1.776,0,0,1,1.75,1.8V17.16a1.79,1.79,0,0,1-.58,1.33h25.23A1.777,1.777,0,0,1,120.1,20.3V33.7a1.84,1.84,0,0,1-.3,1.009h4.72a1.753,1.753,0,0,1,1.75,1.75" fill="#09f"/>
        </g>
      </g>
    </g>
    <path id="Trazado_17646" data-name="Trazado 17646" d="M106.523,45.861a5.444,5.444,0,0,1-5.287,6.73H99.549" transform="translate(842.195 273)" fill="none" stroke="#002744" stroke-linecap="round" stroke-miterlimit="10" stroke-width="0.75"/>
    <path id="Trazado_17647" data-name="Trazado 17647" d="M101.254,47.15a1.7,1.7,0,1,1-1.7-1.7A1.7,1.7,0,0,1,101.254,47.15Z" transform="translate(842.195 273)" fill="none" stroke="#002744" stroke-linecap="round" stroke-miterlimit="10" stroke-width="0.75"/>
    <path id="Trazado_17648" data-name="Trazado 17648" d="M97.763,41.943l-7.342-20.78A3.822,3.822,0,0,0,88.9,19.235L83.7,15.854" transform="translate(842.195 273)" fill="none" stroke="#002744" stroke-linecap="round" stroke-miterlimit="10" stroke-width="0.75"/>
    <path id="Trazado_17649" data-name="Trazado 17649" d="M84.57,14.4l5.288,3.524a5.393,5.393,0,0,1,2.1,2.678l7.6,21.106" transform="translate(842.195 273)" fill="none" stroke="#002744" stroke-linecap="round" stroke-miterlimit="10" stroke-width="0.75"/>
    <path id="Trazado_17650" data-name="Trazado 17650" d="M77.249,12.33l-.528-.36c-.308-.211-.313-.741-.01-1.186l.594-.87c.3-.444.8-.634,1.107-.423l5.977,4.077c.308.21.313.741.01,1.185l-.594.871c-.3.444-.8.634-1.108.423l-.784-.535" transform="translate(842.195 273)" fill="none" stroke="#002744" stroke-linecap="round" stroke-miterlimit="10" stroke-width="0.75"/>
    <path id="Trazado_17651" data-name="Trazado 17651" d="M81.886,15.442c-.383-.261-.27-.426-.653-.688s-.5-.095-.878-.356-.271-.428-.655-.69-.5-.1-.883-.36-.273-.428-.659-.692-.5-.1-.885-.361" transform="translate(842.195 273)" fill="none" stroke="#002744" stroke-linecap="round" stroke-miterlimit="10" stroke-width="0.75"/>
    <path id="Trazado_17652" data-name="Trazado 17652" d="M104.6,44.8,118.8,39.538l.483,1.6L105.079,46.4" transform="translate(842.195 273)" fill="none" stroke="#002744" stroke-linecap="round" stroke-miterlimit="10" stroke-width="0.75"/>
    <path id="Trazado_17653" data-name="Trazado 17653" d="M120,37.394l-5.07-13.782a1.62,1.62,0,0,0-2.082-.963l-15.8,5.813a1.609,1.609,0,0,0-.951,2.078l4.1,11.154a4.529,4.529,0,0,1,4.244,3.151l14.595-5.368A1.621,1.621,0,0,0,120,37.394" transform="translate(842.195 273)" fill="#ff895a"/>
    <path id="Trazado_17654" data-name="Trazado 17654" d="M114.925,23.612,120,37.394a1.621,1.621,0,0,1-.963,2.083l-3.679,1.353L109.163,24l3.68-1.353a1.62,1.62,0,0,1,2.082.962" transform="translate(842.195 273)" fill="#fe5000"/>
    <path id="Trazado_17655" data-name="Trazado 17655" d="M100.181,41.674l-4.21-11.445a1.287,1.287,0,0,1,.763-1.652l16.42-6.04a1.288,1.288,0,0,1,1.652.764l5.3,14.406a1.287,1.287,0,0,1-.763,1.652l-14.87,5.469" transform="translate(842.195 273)" fill="none" stroke="#002744" stroke-linecap="round" stroke-miterlimit="10" stroke-width="0.75"/>
    <line id="Línea_5957" data-name="Línea 5957" x2="6.188" y2="16.821" transform="translate(951.625 296.908)" fill="none" stroke="#002744" stroke-linecap="round" stroke-miterlimit="10" stroke-width="0.75"/>
    <rect id="Rectángulo_3336" data-name="Rectángulo 3336" width="3.548" height="4.005" transform="matrix(0.939, -0.345, 0.345, 0.939, 943.008, 300.076)" fill="none" stroke="#002744" stroke-linecap="round" stroke-miterlimit="10" stroke-width="0.75"/>
    <path id="Trazado_17656" data-name="Trazado 17656" d="M106.05,11.213l4.047,11a1.3,1.3,0,0,1-.768,1.663L96.715,28.517a1.285,1.285,0,0,1-1.653-.771l-4.047-11a1.285,1.285,0,0,1,.759-1.659l12.614-4.64a1.293,1.293,0,0,1,1.662.768" transform="translate(842.195 273)" fill="#ff895a"/>
    <path id="Trazado_17657" data-name="Trazado 17657" d="M106.05,11.213l4.047,11a1.3,1.3,0,0,1-.768,1.663l-2.937,1.08-4.941-13.433,2.937-1.08a1.293,1.293,0,0,1,1.662.768" transform="translate(842.195 273)" fill="#fe5000"/>
    <path id="Rectángulo_3337" data-name="Rectángulo 3337" d="M1.286,0H14.733A1.287,1.287,0,0,1,16.02,1.287V13.021a1.286,1.286,0,0,1-1.286,1.286H1.287A1.287,1.287,0,0,1,0,13.021V1.286A1.286,1.286,0,0,1,1.286,0Z" transform="translate(932.759 288.531) rotate(-20.195)" fill="none" stroke="#002744" stroke-linecap="round" stroke-miterlimit="10" stroke-width="0.75"/>
    <line id="Línea_5958" data-name="Línea 5958" x2="4.94" y2="13.428" transform="translate(943.857 284.449)" fill="none" stroke="#002744" stroke-linecap="round" stroke-miterlimit="10" stroke-width="0.75"/>
    <rect id="Rectángulo_3338" data-name="Rectángulo 3338" width="2.832" height="3.198" transform="matrix(0.938, -0.345, 0.345, 0.938, 936.979, 286.979)" fill="none" stroke="#002744" stroke-linecap="round" stroke-miterlimit="10" stroke-width="0.75"/>
    <path id="Trazado_17658" data-name="Trazado 17658" d="M95.891,51.178a5.441,5.441,0,1,1,3.658,1.413" transform="translate(842.195 273)" fill="none" stroke="#002744" stroke-linecap="round" stroke-miterlimit="10" stroke-width="0.75"/>
    <path id="Trazado_17659" data-name="Trazado 17659" d="M98.273,52.44c-.1-.024-.2-.05-.3-.08a5.027,5.027,0,0,1-.483-.171" transform="translate(842.195 273)" fill="none" stroke="#002744" stroke-linecap="round" stroke-miterlimit="10" stroke-width="0.75"/>
  </g>
</svg>
