<svg xmlns="http://www.w3.org/2000/svg" width="60" height="60" viewBox="0 0 60 60">
  <g id="Illustración_PlantaCombustion" transform="translate(0)">
    <path id="Trazado_18172" data-name="Trazado 18172" d="M221.377.133h42.857A8.572,8.572,0,0,1,272.806,8.7V51.562a8.572,8.572,0,0,1-8.572,8.571H221.377a8.571,8.571,0,0,1-8.571-8.571V8.7A8.571,8.571,0,0,1,221.377.133" transform="translate(-212.806 -0.133)" fill="#f7f9f7"/>
    <path id="Trazado_18173" data-name="Trazado 18173" d="M246.242,13.4V11.856h.188V8.415h1.923V6.107H243.4V8.415h1.443v1.643h-2.913v-.04a.757.757,0,0,0-.756-.756h-2.023a.757.757,0,0,0-.757.756v1.171a.756.756,0,0,0,.757.756h2.023a.756.756,0,0,0,.756-.756v0h1.624V13.4h-2v3.088h7.814V13.4Z" transform="translate(-212.806 -0.133)" fill="#eef9ed"/>
    <path id="Trazado_18174" data-name="Trazado 18174" d="M253.2,18.19V52.05c0,.59-1.11,1.13-2.92,1.52a36.857,36.857,0,0,1-7.43.66c-5.71,0-10.35-.97-10.35-2.18V18.19c0-1.2,4.64-2.18,10.35-2.18a36.769,36.769,0,0,1,7.43.67c1.81.39,2.92.92,2.92,1.51" transform="translate(-212.806 -0.133)" fill="#eef9ed"/>
    <path id="Trazado_18175" data-name="Trazado 18175" d="M253.2,18.19V52.05c0,.59-1.11,1.13-2.92,1.52V16.68c1.81.39,2.92.92,2.92,1.51" transform="translate(-212.806 -0.133)" fill="#c6cccb"/>
    <line id="Línea_6151" data-name="Línea 6151" y1="0.795" transform="translate(19.608 22.607)" fill="none" stroke="#002744" stroke-linecap="round" stroke-miterlimit="10" stroke-width="0.75"/>
    <path id="Trazado_18176" data-name="Trazado 18176" d="M232.414,21.054V18.193c0-1.2,4.633-2.181,10.347-2.181s10.348.976,10.348,2.181V52.05c0,1.205-4.633,2.181-10.348,2.181s-10.347-.976-10.347-2.181V27.259" transform="translate(-212.806 -0.133)" fill="none" stroke="#002744" stroke-linecap="round" stroke-miterlimit="10" stroke-width="0.75"/>
    <rect id="Rectángulo_3437" data-name="Rectángulo 3437" width="7.777" height="14.518" rx="0.913" transform="translate(22.264 22.607)" fill="none" stroke="#002744" stroke-linecap="round" stroke-miterlimit="10" stroke-width="0.75"/>
    <path id="Trazado_18177" data-name="Trazado 18177" d="M241.312,16.033v-2a.652.652,0,0,1,.652-.652h6.89a.652.652,0,0,1,.652.652V15.87c0,.36-.037.6-.4.6" transform="translate(-212.806 -0.133)" fill="none" stroke="#002744" stroke-linecap="round" stroke-miterlimit="10" stroke-width="0.75"/>
    <path id="Trazado_18178" data-name="Trazado 18178" d="M239.611,12.06h0a1.211,1.211,0,0,1-1.211-1.211v-.376a1.211,1.211,0,0,1,2.422,0v.376A1.211,1.211,0,0,1,239.611,12.06Z" transform="translate(-212.806 -0.133)" fill="none" stroke="#002744" stroke-linecap="round" stroke-miterlimit="10" stroke-width="0.75"/>
    <path id="Trazado_18179" data-name="Trazado 18179" d="M239.611,9.262h1.211a1.211,1.211,0,0,1,1.211,1.211v.376a1.211,1.211,0,0,1-1.211,1.21h-1.211" transform="translate(-212.806 -0.133)" fill="none" stroke="#002744" stroke-linecap="round" stroke-miterlimit="10" stroke-width="0.75"/>
    <path id="Trazado_18180" data-name="Trazado 18180" d="M243.661,13.382V11.513a.329.329,0,0,0-.328-.328h-1.3" transform="translate(-212.806 -0.133)" fill="none" stroke="#002744" stroke-linecap="round" stroke-miterlimit="10" stroke-width="0.75"/>
    <path id="Trazado_18181" data-name="Trazado 18181" d="M242.033,9.76h1.3a1.755,1.755,0,0,1,1.753,1.754v1.868" transform="translate(-212.806 -0.133)" fill="none" stroke="#002744" stroke-linecap="round" stroke-miterlimit="10" stroke-width="0.75"/>
    <line id="Línea_6152" data-name="Línea 6152" y2="36.476" transform="translate(37.473 16.992)" fill="none" stroke="#002744" stroke-linecap="round" stroke-miterlimit="10" stroke-width="0.75"/>
    <line id="Línea_6153" data-name="Línea 6153" y2="2.896" transform="translate(34.775 13.25)" fill="none" stroke="#002744" stroke-linecap="round" stroke-miterlimit="10" stroke-width="0.75"/>
    <line id="Línea_6154" data-name="Línea 6154" y2="2.344" transform="translate(32.043 8.158)" fill="none" stroke="#002744" stroke-linecap="round" stroke-miterlimit="10" stroke-width="0.75"/>
    <line id="Línea_6155" data-name="Línea 6155" y2="5.091" transform="translate(33.625 8.158)" fill="none" stroke="#002744" stroke-linecap="round" stroke-miterlimit="10" stroke-width="0.75"/>
    <rect id="Rectángulo_3438" data-name="Rectángulo 3438" width="3.741" height="2.257" rx="0.483" transform="translate(30.599 5.9)" fill="none" stroke="#002744" stroke-linecap="round" stroke-miterlimit="10" stroke-width="0.75"/>
    <path id="Trazado_18182" data-name="Trazado 18182" d="M245.463,6.034H247.9a.46.46,0,0,1,.459.459V7.832a.46.46,0,0,1-.459.459h-2.432" transform="translate(-212.806 -0.133)" fill="none" stroke="#002744" stroke-linecap="round" stroke-miterlimit="10" stroke-width="0.75"/>
    <path id="Trazado_18183" data-name="Trazado 18183" d="M238.4,50.858a3.915,3.915,0,0,1-1.653-6.459c2.131-2.588,2.523-2.828,2.479-4.285a3.7,3.7,0,0,1,1.936,2.936c.177,1.258-1.131,2.921.631,2.921.955,0,.826-1.29.826-1.29,1.316,1.316,1.5,5.2-1.587,6.059a1.791,1.791,0,0,0-.218-2.927c0,1.584-2.292,1.472-2.292-.432a3.347,3.347,0,0,1,.96-2.529s-2.048.444-2.048,3.793a3.125,3.125,0,0,0,.966,2.213" transform="translate(-212.806 -0.133)" fill="#c6cccb"/>
    <path id="Trazado_18184" data-name="Trazado 18184" d="M238.4,50.858a3.915,3.915,0,0,1-1.653-6.459c2.131-2.588,2.523-2.828,2.479-4.285a3.7,3.7,0,0,1,1.936,2.936c.177,1.258-1.131,2.921.631,2.921.955,0,.826-1.29.826-1.29,1.316,1.316,1.5,5.2-1.587,6.059a1.791,1.791,0,0,0-.218-2.927c0,1.584-2.292,1.472-2.292-.432a3.347,3.347,0,0,1,.96-2.529s-2.048.444-2.048,3.793A3.125,3.125,0,0,0,238.4,50.858Z" transform="translate(-212.806 -0.133)" fill="none" stroke="#002744" stroke-linecap="round" stroke-linejoin="round" stroke-width="0.75"/>
    <path id="Trazado_18185" data-name="Trazado 18185" d="M247.581,23.894a1.152,1.152,0,1,1-1.153-1.153A1.153,1.153,0,0,1,247.581,23.894Z" transform="translate(-212.806 -0.133)" fill="none" stroke="#002744" stroke-linecap="round" stroke-linejoin="round" stroke-width="0.75"/>
    <path id="Trazado_18186" data-name="Trazado 18186" d="M247.581,28.162a1.152,1.152,0,1,1-1.153-1.153A1.153,1.153,0,0,1,247.581,28.162Z" transform="translate(-212.806 -0.133)" fill="none" stroke="#002744" stroke-linecap="round" stroke-linejoin="round" stroke-width="0.75"/>
    <path id="Trazado_18187" data-name="Trazado 18187" d="M240.65,32.04h0a.661.661,0,0,1-.661-.661V28.621a.661.661,0,0,1,1.322,0v2.758A.661.661,0,0,1,240.65,32.04Z" transform="translate(-212.806 -0.133)" fill="none" stroke="#002744" stroke-linecap="round" stroke-miterlimit="10" stroke-width="0.75"/>
  </g>
</svg>
