<svg id="Grupo_2975" data-name="Grupo 2975" xmlns="http://www.w3.org/2000/svg" xmlns:xlink="http://www.w3.org/1999/xlink" width="123.283" height="72.87" viewBox="0 0 123.283 72.87">
  <defs>
    <clipPath id="clip-path">
      <rect id="Rectángulo_3752" data-name="Rectángulo 3752" width="123.283" height="72.87" fill="none"/>
    </clipPath>
  </defs>
  <g id="Grupo_2974" data-name="Grupo 2974" transform="translate(0 0)" clip-path="url(#clip-path)">
    <path id="Trazado_19640" data-name="Trazado 19640" d="M39.89,25.549l-.159.236-.006.009a1.444,1.444,0,0,0,2.385,1.63l.173-.251a1.447,1.447,0,0,0-2.38-1.644l-.007.012Z" transform="translate(34.246 4.429)" fill="#002744"/>
    <path id="Trazado_19641" data-name="Trazado 19641" d="M43.512,29.522l-.384.42-.013.014a1.413,1.413,0,0,0,2.078,1.916l.413-.444a1.416,1.416,0,1,0-2.072-1.93l-.011.011Z" transform="translate(26.95 5.165)" fill="#002744"/>
    <path id="Trazado_19642" data-name="Trazado 19642" d="M47.711,33.187l-.442.363-.013.012A1.381,1.381,0,0,0,49,35.7l.471-.38a1.385,1.385,0,0,0-1.737-2.157l-.011.009Z" transform="translate(18.23 5.844)" fill="#002744"/>
    <path id="Trazado_19643" data-name="Trazado 19643" d="M52.385,36.3l-.486.3-.014.008a1.35,1.35,0,0,0,1.409,2.3l.517-.313a1.353,1.353,0,1,0-1.4-2.314l-.012.007Z" transform="translate(8.463 6.417)" fill="#002744"/>
    <path id="Trazado_19644" data-name="Trazado 19644" d="M57.419,38.835l-.522.239-.014.006a1.318,1.318,0,0,0,1.085,2.4l.551-.246a1.321,1.321,0,1,0-1.075-2.413l-.012.006Z" transform="translate(-2.112 6.884)" fill="#002744"/>
    <path id="Trazado_19645" data-name="Trazado 19645" d="M62.722,40.787l-.548.175-.013,0a1.287,1.287,0,0,0,.771,2.455l.575-.178a1.289,1.289,0,0,0-.761-2.464l-.012,0Z" transform="translate(-13.295 7.241)" fill="#002744"/>
    <path id="Trazado_19646" data-name="Trazado 19646" d="M68.211,42.141l-.564.11-.014,0a1.254,1.254,0,0,0,.465,2.465l.592-.108a1.257,1.257,0,0,0-.455-2.473l-.012,0Z" transform="translate(-24.902 7.489)" fill="#002744"/>
    <path id="Trazado_19647" data-name="Trazado 19647" d="M73.82,42.867l-.574.039h-.014a1.223,1.223,0,0,0,.153,2.44l.6-.035a1.225,1.225,0,1,0-.141-2.446H73.82Z" transform="translate(-36.77 7.622)" fill="#002744"/>
    <path id="Trazado_19648" data-name="Trazado 19648" d="M79.48,42.9l-.57-.044h-.018A1.191,1.191,0,0,0,78.7,45.23l.6.052a1.194,1.194,0,0,0,.2-2.379H79.48Z" transform="translate(-48.732 7.62)" fill="#002744"/>
    <path id="Trazado_19649" data-name="Trazado 19649" d="M85.092,42.1l-.545-.148-.024-.006a1.159,1.159,0,0,0-.62,2.233l.591.167a1.162,1.162,0,0,0,.631-2.237l-.012,0Z" transform="translate(-60.519 7.452)" fill="#002744"/>
    <path id="Trazado_19650" data-name="Trazado 19650" d="M90.378,40.173l-.458-.3-.038-.025a1.127,1.127,0,0,0-1.234,1.886l.526.35A1.131,1.131,0,0,0,90.422,40.2l-.009-.006Z" transform="translate(-71.462 7.055)" fill="#002744"/>
    <path id="Trazado_19651" data-name="Trazado 19651" d="M94.21,36.732l-.2-.472-.031-.069a1.094,1.094,0,0,0-2.015.854l.254.611a1.1,1.1,0,0,0,2.027-.847l0-.009Z" transform="translate(-79.26 6.318)" fill="#002744"/>
    <path id="Trazado_19652" data-name="Trazado 19652" d="M94.293,32.087l.145-.491.021-.073a1.063,1.063,0,0,0-2.036-.61l-.193.631a1.066,1.066,0,1,0,2.04.622l0-.011Z" transform="translate(-79.795 5.363)" fill="#002744"/>
    <path id="Trazado_19653" data-name="Trazado 19653" d="M90.121,28.5l.466-.233.058-.029a1.031,1.031,0,0,0-.913-1.849l-.584.285a1.035,1.035,0,1,0,.907,1.86l.009,0Z" transform="translate(-72.249 4.674)" fill="#002744"/>
    <path id="Trazado_19654" data-name="Trazado 19654" d="M84.238,27.434l.554.018h.033a1,1,0,0,0,.072-2l-.618-.025a1,1,0,1,0-.082,2h.042Z" transform="translate(-60.607 4.522)" fill="#002744"/>
    <path id="Trazado_19655" data-name="Trazado 19655" d="M78.583,28.338l.528.185.022.008a.969.969,0,0,0,.651-1.824l-.571-.207a.972.972,0,0,0-.661,1.828l.008,0Z" transform="translate(-48.905 4.702)" fill="#002744"/>
    <path id="Trazado_19656" data-name="Trazado 19656" d="M73.533,30.659l.458.326.02.015a.937.937,0,0,0,1.1-1.519l-.5-.362A.94.94,0,1,0,73.5,30.639l.008.006Z" transform="translate(-38.33 5.146)" fill="#002744"/>
    <path id="Trazado_19657" data-name="Trazado 19657" d="M69.529,34.233l.319.455.018.026a.9.9,0,0,0,1.488-1.031l-.35-.51a.908.908,0,1,0-1.5,1.027l0,.008Z" transform="translate(-29.908 5.829)" fill="#002744"/>
    <path id="Trazado_19658" data-name="Trazado 19658" d="M67.372,38.857l.1.541.006.035a.873.873,0,0,0,1.716-.323l-.111-.61a.876.876,0,0,0-1.724.314v.008Z" transform="translate(-25.257 6.719)" fill="#002744"/>
    <path id="Trazado_19659" data-name="Trazado 19659" d="M67.635,43.962l-.118.549-.006.026a.841.841,0,0,0,1.643.362l.135-.6a.845.845,0,1,0-1.648-.371v.008Z" transform="translate(-25.522 7.694)" fill="#002744"/>
    <path id="Trazado_19660" data-name="Trazado 19660" d="M69.809,48.868l-.273.5-.008.015a.81.81,0,0,0,1.419.78l.294-.529a.812.812,0,1,0-1.42-.789l0,.007Z" transform="translate(-29.836 8.612)" fill="#002744"/>
    <path id="Trazado_19661" data-name="Trazado 19661" d="M73.165,53.245l-.38.428-.012.013a.778.778,0,0,0,1.155,1.041l.409-.449a.781.781,0,0,0-1.155-1.052l0,.006Z" transform="translate(-36.737 9.42)" fill="#002744"/>
    <path id="Trazado_19662" data-name="Trazado 19662" d="M77.549,56.755l-.477.316-.014.009a.746.746,0,0,0,.816,1.248l.51-.33a.749.749,0,1,0-.814-1.257l-.007,0Z" transform="translate(-45.808 10.069)" fill="#002744"/>
    <path id="Trazado_19663" data-name="Trazado 19663" d="M82.684,59.158l-.542.191-.014.006A.714.714,0,0,0,82.6,60.7l.57-.194a.718.718,0,1,0-.464-1.358l-.006,0Z" transform="translate(-56.544 10.512)" fill="#002744"/>
    <path id="Trazado_19664" data-name="Trazado 19664" d="M88.19,60.442l-.572.078h-.012a.683.683,0,0,0,.178,1.354l.6-.075a.686.686,0,1,0-.172-1.36H88.19Z" transform="translate(-68.186 10.747)" fill="#002744"/>
    <path id="Trazado_19665" data-name="Trazado 19665" d="M93.791,60.76l-.582-.015H93.2a.65.65,0,0,0-.041,1.3l.6.022a.654.654,0,0,0,.048-1.307h-.015Z" transform="translate(-80.14 10.802)" fill="#002744"/>
    <path id="Trazado_19666" data-name="Trazado 19666" d="M99.336,60.292l-.578-.094H98.75a.62.62,0,0,0-.2,1.223l.592.1a.622.622,0,0,0,.211-1.226h-.013Z" transform="translate(-92.047 10.703)" fill="#002744"/>
    <path id="Trazado_19667" data-name="Trazado 19667" d="M104.473,59.1l-.261-.084-.019-.006a.589.589,0,0,0-.366,1.119l.289.1a.59.59,0,1,0,.373-1.12h-.006Z" transform="translate(-103.425 10.489)" fill="#002744"/>
    <path id="Trazado_19668" data-name="Trazado 19668" d="M1,17.034,67.028,1,19.811,30.164Z" transform="translate(55.077 0.178)" fill="#cee6ad"/>
    <path id="Trazado_19669" data-name="Trazado 19669" d="M16.654,51.781,1,30.164,48.217,1Z" transform="translate(73.889 0.178)" fill="#cee6ad"/>
    <path id="Trazado_19670" data-name="Trazado 19670" d="M35.1,25.76V40.532l7.058-5.026Z" transform="translate(39.792 4.581)" fill="#4d997f"/>
    <path id="Trazado_19671" data-name="Trazado 19671" d="M1,17.034,67.028,1,19.811,30.164Z" transform="translate(55.077 0.178)" fill="none" stroke="#002744" stroke-linecap="round" stroke-linejoin="round" stroke-width="2"/>
    <path id="Trazado_19672" data-name="Trazado 19672" d="M16.654,51.781,1,30.164,48.217,1Z" transform="translate(73.889 0.178)" fill="none" stroke="#002744" stroke-linecap="round" stroke-linejoin="round" stroke-width="2"/>
    <path id="Trazado_19673" data-name="Trazado 19673" d="M35.1,25.76V40.532l7.058-5.026Z" transform="translate(39.792 4.581)" fill="none" stroke="#002744" stroke-linecap="round" stroke-linejoin="round" stroke-width="2"/>
  </g>
</svg>
