<svg id="Illustration_Agropecuario" xmlns="http://www.w3.org/2000/svg" xmlns:xlink="http://www.w3.org/1999/xlink" width="60" height="60" viewBox="0 0 60 60">
  <defs>
    <clipPath id="clip-path">
      <rect id="Rectángulo_3582" data-name="Rectángulo 3582" width="60" height="60" fill="none"/>
    </clipPath>
  </defs>
  <g id="Grupo_2580" data-name="Grupo 2580">
    <g id="Grupo_2554" data-name="Grupo 2554" clip-path="url(#clip-path)">
      <path id="Trazado_19270" data-name="Trazado 19270" d="M8.571,0H51.428A8.572,8.572,0,0,1,60,8.571V51.429A8.572,8.572,0,0,1,51.428,60H8.571A8.571,8.571,0,0,1,0,51.429V8.571A8.571,8.571,0,0,1,8.571,0" fill="#99d6ff"/>
      <path id="Trazado_19271" data-name="Trazado 19271" d="M52.983,48.957H12.863A22.949,22.949,0,0,1,6.99,48.2c-1.454-.387-1.061-1.911.492-1.911H48.361a20.057,20.057,0,0,1,5.138.661c1.526.406,1.114,2.005-.516,2.005" fill="#09f"/>
      <rect id="Rectángulo_3572" data-name="Rectángulo 3572" width="60" height="1.391" transform="translate(0 33.172)" fill="#09f"/>
      <rect id="Rectángulo_3573" data-name="Rectángulo 3573" width="60" height="1.391" transform="translate(0 37.892)" fill="#09f"/>
      <path id="Trazado_19272" data-name="Trazado 19272" d="M3.058,40.844H2.682a.773.773,0,0,1-.773-.773V31.285a.774.774,0,0,1,.1-.384l.859-1.5.859,1.5a.774.774,0,0,1,.1.384v8.786a.773.773,0,0,1-.773.773" fill="#09f"/>
      <path id="Trazado_19273" data-name="Trazado 19273" d="M9.738,40.844H9.362a.773.773,0,0,1-.773-.773V31.285a.774.774,0,0,1,.1-.384l.859-1.5.859,1.5a.774.774,0,0,1,.1.384v8.786a.773.773,0,0,1-.773.773" fill="#09f"/>
      <path id="Trazado_19274" data-name="Trazado 19274" d="M16.419,40.844h-.377a.773.773,0,0,1-.772-.773V31.285a.774.774,0,0,1,.1-.384l.858-1.5.86,1.5a.784.784,0,0,1,.1.384v8.786a.773.773,0,0,1-.772.773" fill="#09f"/>
      <path id="Trazado_19275" data-name="Trazado 19275" d="M23.1,40.844h-.376a.773.773,0,0,1-.773-.773V31.285a.774.774,0,0,1,.1-.384l.859-1.5.859,1.5a.774.774,0,0,1,.1.384v8.786a.773.773,0,0,1-.773.773" fill="#09f"/>
      <path id="Trazado_19276" data-name="Trazado 19276" d="M29.779,40.844H29.4a.773.773,0,0,1-.773-.773V31.285a.774.774,0,0,1,.1-.384l.859-1.5.859,1.5a.774.774,0,0,1,.1.384v8.786a.773.773,0,0,1-.773.773" fill="#09f"/>
      <path id="Trazado_19277" data-name="Trazado 19277" d="M36.46,40.844h-.376a.773.773,0,0,1-.773-.773V31.285a.774.774,0,0,1,.1-.384l.859-1.5.859,1.5a.774.774,0,0,1,.1.384v8.786a.773.773,0,0,1-.773.773" fill="#09f"/>
      <path id="Trazado_19278" data-name="Trazado 19278" d="M43.14,40.844h-.376a.773.773,0,0,1-.773-.773V31.285a.774.774,0,0,1,.1-.384l.859-1.5.859,1.5a.774.774,0,0,1,.1.384v8.786a.773.773,0,0,1-.773.773" fill="#09f"/>
      <path id="Trazado_19279" data-name="Trazado 19279" d="M49.82,40.844h-.376a.773.773,0,0,1-.773-.773V31.285a.774.774,0,0,1,.1-.384l.859-1.5.859,1.5a.774.774,0,0,1,.1.384v8.786a.773.773,0,0,1-.773.773" fill="#09f"/>
      <path id="Trazado_19280" data-name="Trazado 19280" d="M56.5,40.844h-.376a.773.773,0,0,1-.773-.773V31.285a.774.774,0,0,1,.1-.384l.859-1.5.859,1.5a.774.774,0,0,1,.1.384v8.786a.773.773,0,0,1-.773.773" fill="#09f"/>
      <path id="Trazado_19281" data-name="Trazado 19281" d="M50.681,33.82h-.324a1.307,1.307,0,0,1-1.307-1.307V26.069l-2.957-2.958,2.077-2.077,2.906,2.907a3.112,3.112,0,0,1,.912,2.2v6.371a1.307,1.307,0,0,1-1.307,1.307" fill="#fe5000"/>
      <path id="Trazado_19282" data-name="Trazado 19282" d="M50.681,33.706h-.324A1.307,1.307,0,0,1,49.05,32.4V25.955L46.093,23,48.17,20.92l2.906,2.907a3.112,3.112,0,0,1,.912,2.2V32.4A1.307,1.307,0,0,1,50.681,33.706Z" fill="none" stroke="#002744" stroke-linecap="round" stroke-miterlimit="10" stroke-width="0.75"/>
      <path id="Trazado_19283" data-name="Trazado 19283" d="M37.205,27.5V44.858H40.49v-2.7a4.411,4.411,0,0,1,1.582-3.385l3.1-2.594Z" fill="#fe5000"/>
      <rect id="Rectángulo_3574" data-name="Rectángulo 3574" width="1.051" height="13.081" transform="translate(36.154 31.777)" fill="#ff895a"/>
      <path id="Trazado_19284" data-name="Trazado 19284" d="M37.205,27.744V32.02H36.154V45.1H40.49V42.4a4.411,4.411,0,0,1,1.582-3.385l3.1-2.594Z" fill="none" stroke="#002744" stroke-linecap="round" stroke-miterlimit="10" stroke-width="0.75"/>
      <path id="Trazado_19285" data-name="Trazado 19285" d="M48.637,27.5V44.858H45.352V41.81A3.671,3.671,0,0,0,44.038,39L40.671,36.18Z" fill="#ff895a"/>
      <path id="Trazado_19286" data-name="Trazado 19286" d="M49.815,27.5V44.858H46.53V41.81A3.671,3.671,0,0,0,45.216,39L41.849,36.18Z" fill="#fe5000"/>
      <path id="Trazado_19287" data-name="Trazado 19287" d="M48.637,29.028V27.744l-7.966,8.679,3.367,2.818a3.668,3.668,0,0,1,1.314,2.813V45.1h4.464V27.744Z" fill="none" stroke="#002744" stroke-linecap="round" stroke-miterlimit="10" stroke-width="0.75"/>
      <path id="Trazado_19288" data-name="Trazado 19288" d="M14.7,27.5V44.858h3.285v-2.7a4.411,4.411,0,0,1,1.582-3.385l3.1-2.594Z" fill="#fe5000"/>
      <rect id="Rectángulo_3575" data-name="Rectángulo 3575" width="1.051" height="13.081" transform="translate(13.652 31.777)" fill="#ff895a"/>
      <path id="Trazado_19289" data-name="Trazado 19289" d="M14.7,27.5v4.276H13.652V44.858h4.336v-2.7a4.413,4.413,0,0,1,1.581-3.385l3.1-2.594Z" fill="none" stroke="#002744" stroke-linecap="round" stroke-miterlimit="10" stroke-width="0.75"/>
      <path id="Trazado_19290" data-name="Trazado 19290" d="M47.408,37.291H23.839V17.712H47.408a2.407,2.407,0,0,1,2.407,2.407V34.884a2.407,2.407,0,0,1-2.407,2.407" fill="#fe5000"/>
      <path id="Trazado_19291" data-name="Trazado 19291" d="M45.6,17.713h-9.86a1.05,1.05,0,0,0-1.05,1.051v.967a1.051,1.051,0,0,0,1.05,1.051h2.791A1.042,1.042,0,0,0,39,22.758h3.748a1.042,1.042,0,0,0,.472-1.976H45.6a1.052,1.052,0,0,0,1.051-1.051v-.967A1.051,1.051,0,0,0,45.6,17.713" fill="#ff895a"/>
      <path id="Trazado_19292" data-name="Trazado 19292" d="M28.689,37.291H17.953a4.3,4.3,0,0,1-4.3-4.308V21.824a4.11,4.11,0,0,1,4.111-4.111H28.5a4.115,4.115,0,0,0-4.117,4.111V32.983a4.31,4.31,0,0,0,4.308,4.308" fill="#ff895a"/>
      <path id="Trazado_19293" data-name="Trazado 19293" d="M24.381,27.5V44.858h3.285v-2.7a4.411,4.411,0,0,1,1.582-3.385l3.1-2.594Z" fill="#fe5000"/>
      <rect id="Rectángulo_3576" data-name="Rectángulo 3576" width="1.051" height="9.736" transform="translate(23.33 35.122)" fill="#ff895a"/>
      <path id="Trazado_19294" data-name="Trazado 19294" d="M24.389,21.825A4.106,4.106,0,0,1,28.5,17.712H46.288a3.53,3.53,0,0,1,3.525,3.54v12.5a3.529,3.529,0,0,1-3.525,3.54H26.221" fill="none" stroke="#002744" stroke-linecap="round" stroke-miterlimit="10" stroke-width="0.75"/>
      <path id="Trazado_19295" data-name="Trazado 19295" d="M17.956,37.291a4.3,4.3,0,0,1-4.3-4.3V21.825a4.105,4.105,0,0,1,4.113-4.112H28.5a4.1,4.1,0,0,0-4.112,4.112v5.143" fill="none" stroke="#002744" stroke-linecap="round" stroke-miterlimit="10" stroke-width="0.75"/>
      <path id="Trazado_19296" data-name="Trazado 19296" d="M9.5,20.051l2.409-1.73a.543.543,0,0,0,.124-.757L11.273,16.5a.542.542,0,0,0-.757-.125l-1.027.98a1.915,1.915,0,0,0-.586,1.57l.116,1.2a.539.539,0,0,0,.484-.075" fill="#fe5000"/>
      <path id="Trazado_19297" data-name="Trazado 19297" d="M9.5,20.051l2.409-1.73a.543.543,0,0,0,.124-.757L11.273,16.5a.542.542,0,0,0-.757-.125l-1.027.98a1.915,1.915,0,0,0-.586,1.57l.116,1.2A.539.539,0,0,0,9.5,20.051Z" fill="none" stroke="#002744" stroke-linecap="round" stroke-miterlimit="10" stroke-width="0.75"/>
      <path id="Trazado_19298" data-name="Trazado 19298" d="M20.228,14.356H14.947A1.843,1.843,0,0,0,13.1,16.2V26.762A1.843,1.843,0,0,0,14.947,28.6h2.507a1.842,1.842,0,0,0,1.373-.614l2.774-3.1a1.842,1.842,0,0,0,.47-1.23V16.2a1.843,1.843,0,0,0-1.843-1.843" fill="#fe5000"/>
      <path id="Trazado_19299" data-name="Trazado 19299" d="M17.641,14.356H13.277A1.843,1.843,0,0,0,11.434,16.2l-.917,10.563A1.843,1.843,0,0,0,12.36,28.6h2.507a1.842,1.842,0,0,0,1.373-.614l2.774-3.1a1.842,1.842,0,0,0,.47-1.23V16.2a1.843,1.843,0,0,0-1.843-1.843" fill="#ff895a"/>
      <path id="Trazado_19300" data-name="Trazado 19300" d="M14.946,28.6h2.507a1.845,1.845,0,0,0,1.373-.613l2.774-3.1a1.842,1.842,0,0,0,.47-1.23V16.2a1.843,1.843,0,0,0-1.843-1.843h-2.64" fill="none" stroke="#002744" stroke-linecap="round" stroke-miterlimit="10" stroke-width="0.75"/>
      <path id="Trazado_19301" data-name="Trazado 19301" d="M17.641,14.356H13.277A1.843,1.843,0,0,0,11.434,16.2l-.917,10.563A1.843,1.843,0,0,0,12.36,28.6h2.507a1.842,1.842,0,0,0,1.373-.614l2.774-3.1a1.842,1.842,0,0,0,.47-1.23V16.2A1.843,1.843,0,0,0,17.641,14.356Z" fill="none" stroke="#002744" stroke-linecap="round" stroke-miterlimit="10" stroke-width="0.75"/>
      <rect id="Rectángulo_3577" data-name="Rectángulo 3577" width="4.616" height="2.878" rx="0.524" transform="translate(11.301 25.596)" fill="none" stroke="#002744" stroke-linecap="round" stroke-miterlimit="10" stroke-width="0.75"/>
      <line id="Línea_6537" data-name="Línea 6537" y2="0.247" transform="translate(12.895 26.914)" fill="none" stroke="#002744" stroke-linecap="round" stroke-miterlimit="10" stroke-width="0.75"/>
      <line id="Línea_6538" data-name="Línea 6538" y2="0.247" transform="translate(14.269 26.914)" fill="none" stroke="#002744" stroke-linecap="round" stroke-miterlimit="10" stroke-width="0.75"/>
      <path id="Trazado_19302" data-name="Trazado 19302" d="M15.822,19.819v-.827h1.594" fill="none" stroke="#002744" stroke-linecap="round" stroke-linejoin="round" stroke-width="0.75"/>
      <path id="Trazado_19303" data-name="Trazado 19303" d="M13.024,18.837h.716v.982" fill="none" stroke="#002744" stroke-linecap="round" stroke-linejoin="round" stroke-width="0.75"/>
      <path id="Trazado_19304" data-name="Trazado 19304" d="M23.264,20.051l-2.409-1.73a.543.543,0,0,1-.124-.757l.763-1.062a.542.542,0,0,1,.757-.125l1.027.98a1.915,1.915,0,0,1,.586,1.57l-.116,1.2a.539.539,0,0,1-.484-.075" fill="#ff895a"/>
      <path id="Trazado_19305" data-name="Trazado 19305" d="M23.264,20.051l-2.409-1.73a.543.543,0,0,1-.124-.757l.763-1.062a.542.542,0,0,1,.757-.125l1.027.98a1.915,1.915,0,0,1,.586,1.57l-.116,1.2A.539.539,0,0,1,23.264,20.051Z" fill="none" stroke="#002744" stroke-linecap="round" stroke-miterlimit="10" stroke-width="0.75"/>
      <path id="Trazado_19306" data-name="Trazado 19306" d="M20.574,33.5s-.161,3.335,2.24,3.751a.667.667,0,0,1,.516.673v6.937h4.336V42.136a4.487,4.487,0,0,1,1.672-3.493l1.68-1.352" fill="none" stroke="#002744" stroke-linecap="round" stroke-miterlimit="10" stroke-width="0.75"/>
      <path id="Trazado_19307" data-name="Trazado 19307" d="M32.311,26.5H27.854a.948.948,0,0,1-.948-.948v-.889a.948.948,0,0,1,.948-.949h4.457a.948.948,0,0,1,.948.949v.889a.948.948,0,0,1-.948.948" fill="#ff895a"/>
      <path id="Trazado_19308" data-name="Trazado 19308" d="M46.937,33.486H43.4a.763.763,0,0,1-.763-.762v-.715a.763.763,0,0,1,.763-.763h3.532a.763.763,0,0,1,.763.763v.715a.763.763,0,0,1-.763.762" fill="#ff895a"/>
      <path id="Trazado_19309" data-name="Trazado 19309" d="M27.923,47.289H23.485a.44.44,0,0,1-.441-.441V45.27a.441.441,0,0,1,.441-.441h4.438a.441.441,0,0,1,.441.441v1.578a.44.44,0,0,1-.441.441" fill="#fe5000"/>
      <rect id="Rectángulo_3578" data-name="Rectángulo 3578" width="5.32" height="2.46" rx="0.441" transform="translate(23.044 44.829)" fill="none" stroke="#002744" stroke-linecap="round" stroke-miterlimit="10" stroke-width="0.75"/>
      <path id="Trazado_19310" data-name="Trazado 19310" d="M17.9,47.289H13.457a.44.44,0,0,1-.441-.441V45.27a.441.441,0,0,1,.441-.441H17.9a.441.441,0,0,1,.441.441v1.578a.44.44,0,0,1-.441.441" fill="#fe5000"/>
      <rect id="Rectángulo_3579" data-name="Rectángulo 3579" width="5.32" height="2.46" rx="0.441" transform="translate(13.016 44.829)" fill="none" stroke="#002744" stroke-linecap="round" stroke-miterlimit="10" stroke-width="0.75"/>
      <path id="Trazado_19311" data-name="Trazado 19311" d="M40.537,47.289H36.1a.44.44,0,0,1-.441-.441V45.27a.441.441,0,0,1,.441-.441h4.438a.441.441,0,0,1,.441.441v1.578a.44.44,0,0,1-.441.441" fill="#fe5000"/>
      <rect id="Rectángulo_3580" data-name="Rectángulo 3580" width="5.32" height="2.46" rx="0.441" transform="translate(35.658 44.829)" fill="none" stroke="#002744" stroke-linecap="round" stroke-miterlimit="10" stroke-width="0.75"/>
      <path id="Trazado_19312" data-name="Trazado 19312" d="M49.919,47.289H45.481a.44.44,0,0,1-.441-.441V45.27a.441.441,0,0,1,.441-.441h4.438a.441.441,0,0,1,.441.441v1.578a.44.44,0,0,1-.441.441" fill="#fe5000"/>
      <rect id="Rectángulo_3581" data-name="Rectángulo 3581" width="5.32" height="2.46" rx="0.441" transform="translate(45.04 44.829)" fill="none" stroke="#002744" stroke-linecap="round" stroke-miterlimit="10" stroke-width="0.75"/>
    </g>
  </g>
</svg>
