<svg id="illustration_Add_OtherCategory" xmlns="http://www.w3.org/2000/svg" width="60" height="60" viewBox="0 0 60 60">
  <g id="Grupo_2500" data-name="Grupo 2500" transform="translate(-939.115 -1070.109)">
    <path id="Trazado_18901" data-name="Trazado 18901" d="M140.975,1.109h42.857A8.572,8.572,0,0,1,192.4,9.68V52.538a8.572,8.572,0,0,1-8.572,8.571H140.975a8.571,8.571,0,0,1-8.571-8.571V9.68a8.571,8.571,0,0,1,8.571-8.571" transform="translate(806.711 1069)" fill="#cee6ad"/>
    <path id="Trazado_18902" data-name="Trazado 18902" d="M151.813,16.467a1.417,1.417,0,0,1-.924-2.493,17.81,17.81,0,0,1,7.8-3.847,1.418,1.418,0,1,1,.6,2.772,14.952,14.952,0,0,0-6.554,3.226,1.407,1.407,0,0,1-.922.342" transform="translate(806.711 1069)" fill="#4d997f"/>
    <path id="Trazado_18903" data-name="Trazado 18903" d="M178.416,23.374a1.419,1.419,0,0,1-1.3-.843c-2.787-6.287-7.507-9.958-13.292-10.338a1.418,1.418,0,0,1,.186-2.83c6.788.446,12.511,4.826,15.7,12.018a1.418,1.418,0,0,1-1.295,1.993" transform="translate(806.711 1069)" fill="#4d997f"/>
    <path id="Trazado_18904" data-name="Trazado 18904" d="M158.684,45.536a1.408,1.408,0,0,1-.158-.009c-.388-.043-3.866-.573-6.537-5.772-1.518-2.959-2.223-6.992-2.043-11.667a13.624,13.624,0,0,1,3.317-8.707,1.418,1.418,0,0,1,2.131,1.872A10.848,10.848,0,0,0,152.78,28.2c-.162,4.189.436,7.737,1.732,10.263,1.97,3.836,4.262,4.238,4.358,4.252a1.435,1.435,0,0,1,1.2,1.592,1.407,1.407,0,0,1-1.388,1.232" transform="translate(806.711 1069)" fill="#4d997f"/>
    <path id="Trazado_18905" data-name="Trazado 18905" d="M172.139,41.767a1.418,1.418,0,0,1-1.36-1.822,28.41,28.41,0,0,0,1.3-12.282c-.335-4.549-3.572-7.767-5.656-8.509a12.546,12.546,0,0,0-6.474-.479,1.418,1.418,0,0,1-.579-2.776,15.357,15.357,0,0,1,8.005.583c3.347,1.193,7.123,5.444,7.533,10.973a31.117,31.117,0,0,1-1.41,13.3,1.418,1.418,0,0,1-1.357,1.014" transform="translate(806.711 1069)" fill="#4d997f"/>
    <path id="Trazado_18906" data-name="Trazado 18906" d="M157.347,36.057A1.419,1.419,0,0,1,155.94,34.8a44.435,44.435,0,0,1-.226-6.909,6.514,6.514,0,0,1,3.35-5.45,6.929,6.929,0,0,1,6.643.134,1.418,1.418,0,1,1-1.4,2.466,4.126,4.126,0,0,0-3.905-.1,3.607,3.607,0,0,0-1.859,3.151,42.1,42.1,0,0,0,.215,6.386,1.418,1.418,0,0,1-1.248,1.57,1.484,1.484,0,0,1-.163.009" transform="translate(806.711 1069)" fill="#4d997f"/>
    <path id="Trazado_18907" data-name="Trazado 18907" d="M167.832,30.819a1.419,1.419,0,0,1-1.418-1.405,9.016,9.016,0,0,0-.1-1.29,1.418,1.418,0,0,1,2.8-.479,12.18,12.18,0,0,1,.14,1.743,1.418,1.418,0,0,1-1.4,1.431Z" transform="translate(806.711 1069)" fill="#4d997f"/>
    <path id="Trazado_18908" data-name="Trazado 18908" d="M163.063,45.629a1.418,1.418,0,0,1-.679-2.663c2.9-1.575,4.274-5.81,3.935-8.995a1.418,1.418,0,1,1,2.82-.3c.432,4.055-1.314,9.564-5.4,11.786a1.406,1.406,0,0,1-.677.173" transform="translate(806.711 1069)" fill="#4d997f"/>
    <path id="Trazado_18909" data-name="Trazado 18909" d="M160.531,40.156a1.418,1.418,0,0,1-.646-2.681c.164-.137,1.732-1.649,1.21-8.555a1.417,1.417,0,0,1,2.827-.212c.7,9.206-2.021,11.014-2.872,11.35a1.417,1.417,0,0,1-.519.1m-.52-2.737h0" transform="translate(806.711 1069)" fill="#4d997f"/>
    <path id="Trazado_18910" data-name="Trazado 18910" d="M173.561,51.322a1.418,1.418,0,0,1-.975-2.447c1.8-1.705,4.114-6.014,5.054-10.951a37.367,37.367,0,0,0,.476-10.772,1.418,1.418,0,0,1,2.82-.3,40.227,40.227,0,0,1-.51,11.6c-.944,4.957-3.366,10.089-5.89,12.479a1.408,1.408,0,0,1-.975.389" transform="translate(806.711 1069)" fill="#4d997f"/>
    <path id="Trazado_18911" data-name="Trazado 18911" d="M162.782,51.758a1.418,1.418,0,0,1-.276-2.808,10.28,10.28,0,0,0,6.535-4.483,1.417,1.417,0,0,1,2.359,1.571,13.083,13.083,0,0,1-8.34,5.692,1.4,1.4,0,0,1-.278.028" transform="translate(806.711 1069)" fill="#4d997f"/>
    <path id="Trazado_18912" data-name="Trazado 18912" d="M146.821,40.507a1.418,1.418,0,0,1-1.282-.809c-2.858-6.006-2.39-16.7.926-21.182a1.418,1.418,0,1,1,2.28,1.686c-2.481,3.358-3.24,12.823-.645,18.278a1.417,1.417,0,0,1-1.279,2.027" transform="translate(806.711 1069)" fill="#4d997f"/>
    <path id="Trazado_18913" data-name="Trazado 18913" d="M156.535,51.814a1.408,1.408,0,0,1-.57-.121,17.711,17.711,0,0,1-8.235-7.335A1.418,1.418,0,0,1,150.22,43a15.081,15.081,0,0,0,6.888,6.1,1.418,1.418,0,0,1-.573,2.715" transform="translate(806.711 1069)" fill="#4d997f"/>
    <path id="Trazado_18914" data-name="Trazado 18914" d="M184.227,44.783a8.587,8.587,0,1,1-8.586-8.586,8.586,8.586,0,0,1,8.586,8.586" transform="translate(806.711 1069)" fill="#ff895a"/>
    <path id="Trazado_18915" data-name="Trazado 18915" d="M184.227,44.783a8.587,8.587,0,1,1-8.586-8.586A8.586,8.586,0,0,1,184.227,44.783Z" transform="translate(806.711 1069)" fill="none" stroke="#002744" stroke-linecap="round" stroke-linejoin="round" stroke-width="0.75"/>
    <path id="Trazado_18916" data-name="Trazado 18916" d="M179.4,43.335h-2.316V41.019a1.447,1.447,0,1,0-2.894,0v2.316h-2.316a1.447,1.447,0,1,0,0,2.894h2.316v2.316a1.447,1.447,0,1,0,2.894,0V46.229H179.4a1.447,1.447,0,0,0,0-2.894" transform="translate(806.711 1069)" fill="#fe5000"/>
    <path id="Trazado_18917" data-name="Trazado 18917" d="M179.4,43.559h-2.316V41.243a1.447,1.447,0,1,0-2.894,0v2.316h-2.316a1.447,1.447,0,1,0,0,2.894h2.316v2.316a1.447,1.447,0,1,0,2.894,0V46.453H179.4a1.447,1.447,0,0,0,0-2.894Z" transform="translate(806.711 1069)" fill="none" stroke="#002744" stroke-linecap="round" stroke-linejoin="round" stroke-width="0.75"/>
  </g>
</svg>
