<svg xmlns="http://www.w3.org/2000/svg" width="60" height="60" viewBox="0 0 60 60">
  <g id="Illustration_Car" transform="translate(0)">
    <path id="Trazado_18017" data-name="Trazado 18017" d="M221.377,0h42.857a8.572,8.572,0,0,1,8.572,8.571V51.429A8.572,8.572,0,0,1,264.234,60H221.377a8.571,8.571,0,0,1-8.571-8.571V8.571A8.571,8.571,0,0,1,221.377,0" transform="translate(-212.806)" fill="#f7f9f7"/>
    <path id="Trazado_18018" data-name="Trazado 18018" d="M263.545,41.067H226.891a20.956,20.956,0,0,1-5.365-.69c-1.328-.354-.97-1.745.449-1.745h37.347a18.3,18.3,0,0,1,4.7.6c1.393.37,1.017,1.831-.472,1.831" transform="translate(-212.806)" fill="#c6cccb"/>
    <path id="Trazado_18019" data-name="Trazado 18019" d="M267.548,25.912v4.9l-.373,1.545-.861,3.483c0,.021-.01.031-.01.042l-.052.228-.073.031-.974.4h-2.519c-.415,0-.612.166-1.825,1.67s-4.583,1.42-7.03.787-1.4-2.674-3.151-2.457h-3.049a2.655,2.655,0,0,0-1.928.985c-.726.757-3.058,2.748-7.247,1.659a3.335,3.335,0,0,1-2.094-1.8,1.52,1.52,0,0,0-1.8-.84,2.932,2.932,0,0,0-.705.177,2.214,2.214,0,0,0-1.151,1.233c-.5.933-3.121,1.576-6.221,1.556s-2.229-2.966-4.489-2.966-3.929.353-3.929-1.627a23.582,23.582,0,0,1,.28-3.608s.8-1.6,1.285-1.794,2.291-.912,2.291-.912l3.6-1.452a6.344,6.344,0,0,0,2.084-1.514c.425-.725,2.208-4.136,3.214-5.443s2.312-1.254,3.743-1.254h19.553a1.082,1.082,0,0,1,.2.021.1.1,0,0,1,.052.01c.55.166.861.86,1.016,1.628a.091.091,0,0,0,.011.052l.031.186c.145.871.643,3.142.746,3.629a.78.78,0,0,0,.021.093h.1l10.575.28.632,1Z" transform="translate(-212.806)" fill="#eef9ed"/>
    <path id="Trazado_18020" data-name="Trazado 18020" d="M232.7,37.96s.5-1.411-.506-1.411h-8.262c-.416,0-.616.765.038,1.416s1.948,1.388,4.535,1.388a7.032,7.032,0,0,0,4.111-1.2Z" transform="translate(-212.806)" fill="#c6cccb"/>
    <path id="Trazado_18021" data-name="Trazado 18021" d="M229.023,26.639l7.521-7.472h4.123l-7.945,7.618Z" transform="translate(-212.806)" fill="#c6cccb"/>
    <path id="Trazado_18022" data-name="Trazado 18022" d="M233.784,26.639l7.668-7.472h1.34Z" transform="translate(-212.806)" fill="#c6cccb"/>
    <path id="Trazado_18023" data-name="Trazado 18023" d="M267.5,25.84c-.073-.664-.27-1.026-.632-1-.5.041-8.243-.114-9.445-.114a2.275,2.275,0,0,1-1.131-.166.285.285,0,0,1-.124-.094,1.311,1.311,0,0,1-.218-.342,23.094,23.094,0,0,1-.56-3.473.1.1,0,0,1-.01-.052c-.021-.134-.031-.249-.052-.352-.145-.9-.4-1.192-.964-1.275a.089.089,0,0,0-.052-.011,1.178,1.178,0,0,0-.2-.021h-.01c-.322-.02-1.338-.01-2.488,0-1.545.011-3.318.021-3.982,0h-.114a1.6,1.6,0,0,0-1.7,1.234c-.28.726-2.488,4.251-3.079,5.267a2.486,2.486,0,0,1-1.6,1.337c-.726.343-4.479,1.867-5.2,2.167a5.967,5.967,0,0,0-2.416,2.634c-.736,1.233-.55,1.907-.55,3.431l.882,1.711a2.889,2.889,0,0,1,.705-.176,1.519,1.519,0,0,1,1.8.84,3.338,3.338,0,0,0,2.094,1.8c.125.032.926-.534,1.048-.507-3.1-2.7-2.692-8.629,2.6-8.629,3.97,0,5.217,3.52,4.468,6.491a4.27,4.27,0,0,1,1.06,0h3.049c1.752-.218.694,1.835,3.151,2.457.127.033,1.013-.1,1.144-.07-2.628-2.877-2.155-8.694,2.91-8.694,3.828,0,5.152,3.4,4.594,6.306H265.2l.974-.4a1.355,1.355,0,0,0,.125-.26c0-.01.01-.02.01-.041.249-.767.809-2.913.809-2.913s.021-.218.052-.571c.1-1.368.373-4.8.373-5.723a4.565,4.565,0,0,0-.052-.8" transform="translate(-212.806)" fill="#c6cccb"/>
    <path id="Trazado_18024" data-name="Trazado 18024" d="M229.911,21.7l.705-1.2a3.143,3.143,0,0,1,2.713-1.556h12.176a.594.594,0,0,1,.512.893l-3.452,5.893a2.131,2.131,0,0,1-1.838,1.055H227.836a.516.516,0,0,1-.445-.778l.481-.821" transform="translate(-212.806)" fill="none" stroke="#002744" stroke-linecap="round" stroke-miterlimit="10" stroke-width="0.75"/>
    <line id="Línea_6080" data-name="Línea 6080" y1="0.446" x2="0.261" transform="translate(15.658 23.729)" fill="none" stroke="#002744" stroke-linecap="round" stroke-miterlimit="10" stroke-width="0.75"/>
    <path id="Trazado_18025" data-name="Trazado 18025" d="M232.2,32.335H218.507a.44.44,0,0,1-.378-.666l.97-1.62a1.547,1.547,0,0,1,1.328-.753h14.466l-1.368,2.286A1.55,1.55,0,0,1,232.2,32.335Z" transform="translate(-212.806)" fill="none" stroke="#002744" stroke-linecap="round" stroke-miterlimit="10" stroke-width="0.75"/>
    <line id="Línea_6081" data-name="Línea 6081" x1="6.937" y2="2.883" transform="translate(21.751 26.639)" fill="none" stroke="#002744" stroke-linecap="round" stroke-miterlimit="10" stroke-width="0.75"/>
    <line id="Línea_6082" data-name="Línea 6082" x1="7.209" y2="2.895" transform="translate(7.304 26.434)" fill="none" stroke="#002744" stroke-linecap="round" stroke-miterlimit="10" stroke-width="0.75"/>
    <line id="Línea_6083" data-name="Línea 6083" x1="3.74" transform="translate(19.39 32.336)" fill="none" stroke="#002744" stroke-linecap="round" stroke-miterlimit="10" stroke-width="0.75"/>
    <line id="Línea_6084" data-name="Línea 6084" x1="5.451" transform="translate(33.539 32.336)" fill="none" stroke="#002744" stroke-linecap="round" stroke-miterlimit="10" stroke-width="0.75"/>
    <path id="Trazado_18026" data-name="Trazado 18026" d="M245.505,18.944h8.288a1.555,1.555,0,0,1,1.535,1.309l.621,3.879a.717.717,0,0,0,.708.6h9.71a1.179,1.179,0,0,1,1.179,1.179v5.71a.711.711,0,0,1-.711.711h-4.846" transform="translate(-212.806)" fill="none" stroke="#002744" stroke-linecap="round" stroke-miterlimit="10" stroke-width="0.75"/>
    <path id="Trazado_18027" data-name="Trazado 18027" d="M232.974,32.335v4.214H219.258a1.192,1.192,0,0,1-1.192-1.192v-3.41" transform="translate(-212.806)" fill="none" stroke="#002744" stroke-linecap="round" stroke-miterlimit="10" stroke-width="0.75"/>
    <line id="Línea_6085" data-name="Línea 6085" x1="2.666" transform="translate(20.168 36.549)" fill="none" stroke="#002744" stroke-linecap="round" stroke-miterlimit="10" stroke-width="0.75"/>
    <line id="Línea_6086" data-name="Línea 6086" x1="4.899" transform="translate(33.875 36.549)" fill="none" stroke="#002744" stroke-linecap="round" stroke-miterlimit="10" stroke-width="0.75"/>
    <path id="Trazado_18028" data-name="Trazado 18028" d="M267.275,32.169l-.619,3.185a1.477,1.477,0,0,1-1.45,1.195h-3.119" transform="translate(-212.806)" fill="none" stroke="#002744" stroke-linecap="round" stroke-miterlimit="10" stroke-width="0.75"/>
    <path id="Trazado_18029" data-name="Trazado 18029" d="M262.479,34.665a4.715,4.715,0,1,1-4.715-4.715A4.715,4.715,0,0,1,262.479,34.665Z" transform="translate(-212.806)" fill="none" stroke="#002744" stroke-linecap="round" stroke-miterlimit="10" stroke-width="0.75"/>
    <path id="Trazado_18030" data-name="Trazado 18030" d="M257.764,39.38h-2.42c-2.157,0-3.906-2.111-3.906-4.715s1.749-4.716,3.906-4.716h2.42" transform="translate(-212.806)" fill="none" stroke="#002744" stroke-linecap="round" stroke-miterlimit="10" stroke-width="0.75"/>
    <path id="Trazado_18031" data-name="Trazado 18031" d="M246.681,34.665a4.715,4.715,0,1,1-4.715-4.715A4.715,4.715,0,0,1,246.681,34.665Z" transform="translate(-212.806)" fill="none" stroke="#002744" stroke-linecap="round" stroke-miterlimit="10" stroke-width="0.75"/>
    <path id="Trazado_18032" data-name="Trazado 18032" d="M241.966,39.38h-2.42c-2.157,0-3.906-2.111-3.906-4.715s1.749-4.716,3.906-4.716h2.42" transform="translate(-212.806)" fill="none" stroke="#002744" stroke-linecap="round" stroke-miterlimit="10" stroke-width="0.75"/>
    <path id="Trazado_18033" data-name="Trazado 18033" d="M233.522,36.707a4.542,4.542,0,0,1-4.345,2.673,4.716,4.716,0,0,1-4.324-2.831" transform="translate(-212.806)" fill="none" stroke="#002744" stroke-linecap="round" stroke-miterlimit="10" stroke-width="0.75"/>
    <path id="Trazado_18034" data-name="Trazado 18034" d="M229.177,39.38h-2.42a3.962,3.962,0,0,1-3.582-2.832" transform="translate(-212.806)" fill="none" stroke="#002744" stroke-linecap="round" stroke-miterlimit="10" stroke-width="0.75"/>
    <line id="Línea_6087" data-name="Línea 6087" x1="0.923" y2="0.923" transform="translate(45.737 26.322)" fill="none" stroke="#002744" stroke-linecap="round" stroke-miterlimit="10" stroke-width="0.75"/>
    <line id="Línea_6088" data-name="Línea 6088" x1="0.923" y2="0.923" transform="translate(47.271 26.322)" fill="none" stroke="#002744" stroke-linecap="round" stroke-miterlimit="10" stroke-width="0.75"/>
    <line id="Línea_6089" data-name="Línea 6089" x1="0.923" y2="0.923" transform="translate(48.805 26.322)" fill="none" stroke="#002744" stroke-linecap="round" stroke-miterlimit="10" stroke-width="0.75"/>
    <line id="Línea_6090" data-name="Línea 6090" x1="0.923" y2="0.923" transform="translate(50.339 26.322)" fill="none" stroke="#002744" stroke-linecap="round" stroke-miterlimit="10" stroke-width="0.75"/>
    <path id="Trazado_18035" data-name="Trazado 18035" d="M243.234,34.665a1.268,1.268,0,1,1-1.268-1.268A1.268,1.268,0,0,1,243.234,34.665Z" transform="translate(-212.806)" fill="none" stroke="#002744" stroke-linecap="round" stroke-miterlimit="10" stroke-width="0.75"/>
    <path id="Trazado_18036" data-name="Trazado 18036" d="M259.032,34.665a1.269,1.269,0,1,1-1.268-1.268A1.268,1.268,0,0,1,259.032,34.665Z" transform="translate(-212.806)" fill="none" stroke="#002744" stroke-linecap="round" stroke-miterlimit="10" stroke-width="0.75"/>
    <path id="Trazado_18037" data-name="Trazado 18037" d="M222.206,32.335l-.319.623a1.329,1.329,0,0,1-1.182.722h-1.218" transform="translate(-212.806)" fill="none" stroke="#002744" stroke-linecap="round" stroke-miterlimit="10" stroke-width="0.75"/>
    <path id="Trazado_18038" data-name="Trazado 18038" d="M227.8,32.335l.442.647a1.6,1.6,0,0,0,1.322.7H231.7" transform="translate(-212.806)" fill="none" stroke="#002744" stroke-linecap="round" stroke-miterlimit="10" stroke-width="0.75"/>
    <path id="Trazado_18039" data-name="Trazado 18039" d="M247.646,20.386l-1.78,3.485a.9.9,0,0,0,.805,1.315h6.183" transform="translate(-212.806)" fill="none" stroke="#002744" stroke-linecap="round" stroke-miterlimit="10" stroke-width="0.75"/>
  </g>
</svg>
