<svg xmlns="http://www.w3.org/2000/svg" width="60" height="60" viewBox="0 0 60 60">
  <g id="Illustrarion_aire" transform="translate(0)">
    <g id="Grupo_2417" data-name="Grupo 2417" transform="translate(-966.775 -716.054)">
      <path id="Trazado_18040" data-name="Trazado 18040" d="M150.346,1.054H193.2a8.572,8.572,0,0,1,8.572,8.571V52.483a8.572,8.572,0,0,1-8.572,8.571H150.346a8.571,8.571,0,0,1-8.571-8.571V9.625a8.571,8.571,0,0,1,8.571-8.571" transform="translate(825 715)" fill="#cee6ad"/>
      <path id="Trazado_18041" data-name="Trazado 18041" d="M182.627,19.34h9.379a2.411,2.411,0,0,1,2.411,2.412v16.5a2.411,2.411,0,0,1-2.411,2.412h-37.18" transform="translate(825 715)" fill="#fe5000"/>
      <path id="Trazado_18042" data-name="Trazado 18042" d="M162.005,19.34h26.47a2.66,2.66,0,0,1,2.66,2.66V38a2.66,2.66,0,0,1-2.66,2.66H151.792a2.66,2.66,0,0,1-2.66-2.66V22a2.66,2.66,0,0,1,2.66-2.66h3.892" transform="translate(825 715)" fill="#ff895a"/>
      <path id="Trazado_18043" data-name="Trazado 18043" d="M152.561,40.224V35.937a2.412,2.412,0,0,1,2.412-2.412h30.322a2.411,2.411,0,0,1,2.411,2.412v4.287" transform="translate(825 715)" fill="#4d997f"/>
      <path id="Trazado_18044" data-name="Trazado 18044" d="M162.005,19.34h26.47a2.66,2.66,0,0,1,2.66,2.66V38a2.66,2.66,0,0,1-2.66,2.66H151.792a2.66,2.66,0,0,1-2.66-2.66V22a2.66,2.66,0,0,1,2.66-2.66h3.892" transform="translate(825 715)" fill="none" stroke="#002744" stroke-linecap="round" stroke-miterlimit="10" stroke-width="0.75"/>
      <line id="Línea_6091" data-name="Línea 6091" x2="1.133" transform="translate(982.33 734.34)" fill="none" stroke="#002744" stroke-linecap="round" stroke-miterlimit="10" stroke-width="0.75"/>
      <path id="Trazado_18045" data-name="Trazado 18045" d="M182.627,19.34h9.379a2.411,2.411,0,0,1,2.411,2.412v16.5a2.411,2.411,0,0,1-2.411,2.412h-37.18" transform="translate(825 715)" fill="none" stroke="#002744" stroke-linecap="round" stroke-miterlimit="10" stroke-width="0.75"/>
      <path id="Trazado_18046" data-name="Trazado 18046" d="M152.561,40.224V35.937a2.412,2.412,0,0,1,2.412-2.412h30.322a2.411,2.411,0,0,1,2.411,2.412v4.287" transform="translate(825 715)" fill="none" stroke="#002744" stroke-linecap="round" stroke-miterlimit="10" stroke-width="0.75"/>
      <line id="Línea_6092" data-name="Línea 6092" x2="28.739" transform="translate(980.764 750.869)" fill="none" stroke="#002744" stroke-linecap="round" stroke-miterlimit="10" stroke-width="0.75"/>
      <line id="Línea_6093" data-name="Línea 6093" x2="28.739" transform="translate(980.764 752.277)" fill="none" stroke="#002744" stroke-linecap="round" stroke-miterlimit="10" stroke-width="0.75"/>
      <line id="Línea_6094" data-name="Línea 6094" x2="28.739" transform="translate(980.764 753.684)" fill="none" stroke="#002744" stroke-linecap="round" stroke-miterlimit="10" stroke-width="0.75"/>
      <path id="Trazado_18047" data-name="Trazado 18047" d="M183.565,23.192h-25.9a.938.938,0,1,1,0-1.876h25.9a.938.938,0,1,1,0,1.876Z" transform="translate(825 715)" fill="none" stroke="#002744" stroke-linecap="round" stroke-miterlimit="10" stroke-width="0.75"/>
      <path id="Trazado_18048" data-name="Trazado 18048" d="M183.565,26.542h0a.938.938,0,1,1,.938-.938A.938.938,0,0,1,183.565,26.542Z" transform="translate(825 715)" fill="none" stroke="#002744" stroke-linecap="round" stroke-miterlimit="10" stroke-width="0.75"/>
      <path id="Trazado_18049" data-name="Trazado 18049" d="M180.039,26.542h0a.938.938,0,1,1,.938-.938A.938.938,0,0,1,180.039,26.542Z" transform="translate(825 715)" fill="none" stroke="#002744" stroke-linecap="round" stroke-miterlimit="10" stroke-width="0.75"/>
      <path id="Trazado_18050" data-name="Trazado 18050" d="M176.512,26.542h0a.938.938,0,1,1,.938-.938A.938.938,0,0,1,176.512,26.542Z" transform="translate(825 715)" fill="none" stroke="#002744" stroke-linecap="round" stroke-miterlimit="10" stroke-width="0.75"/>
      <path id="Trazado_18051" data-name="Trazado 18051" d="M153.249,42.844c-.226.768-.61.655-.836,1.423s.157.881-.069,1.648-.61.656-.837,1.424.157.884-.07,1.654-.611.657-.838,1.427" transform="translate(825 715)" fill="none" stroke="#002744" stroke-linecap="round" stroke-miterlimit="10" stroke-width="0.75"/>
      <path id="Trazado_18052" data-name="Trazado 18052" d="M156.574,42.787c-.226.768-.649.644-.875,1.412s.2.892-.03,1.659-.649.644-.876,1.413" transform="translate(825 715)" fill="none" stroke="#002744" stroke-linecap="round" stroke-miterlimit="10" stroke-width="0.75"/>
      <path id="Trazado_18053" data-name="Trazado 18053" d="M159.788,42.844c-.226.768-.61.655-.836,1.423s.157.881-.069,1.648-.61.656-.837,1.424.157.884-.07,1.654-.611.657-.838,1.427" transform="translate(825 715)" fill="none" stroke="#002744" stroke-linecap="round" stroke-miterlimit="10" stroke-width="0.75"/>
      <path id="Trazado_18054" data-name="Trazado 18054" d="M177.156,42.844c-.226.768-.61.655-.836,1.423s.157.881-.069,1.648-.61.656-.837,1.424.157.884-.07,1.654-.611.657-.838,1.427" transform="translate(825 715)" fill="none" stroke="#002744" stroke-linecap="round" stroke-miterlimit="10" stroke-width="0.75"/>
      <path id="Trazado_18055" data-name="Trazado 18055" d="M180.481,42.787c-.226.768-.649.644-.875,1.412s.2.892-.03,1.659-.649.644-.876,1.413" transform="translate(825 715)" fill="none" stroke="#002744" stroke-linecap="round" stroke-miterlimit="10" stroke-width="0.75"/>
      <path id="Trazado_18056" data-name="Trazado 18056" d="M183.7,42.844c-.226.768-.61.655-.836,1.423s.157.881-.069,1.648-.61.656-.837,1.424.157.884-.07,1.654-.611.657-.838,1.427" transform="translate(825 715)" fill="none" stroke="#002744" stroke-linecap="round" stroke-miterlimit="10" stroke-width="0.75"/>
    </g>
  </g>
</svg>
