<svg id="illustration_ConsumoAgua" xmlns="http://www.w3.org/2000/svg" width="60" height="60" viewBox="0 0 60 60">
  <g id="Grupo_2478" data-name="Grupo 2478" transform="translate(-754 -826)">
    <path id="Trazado_18730" data-name="Trazado 18730" d="M8.571,0H51.428A8.572,8.572,0,0,1,60,8.571V51.429A8.572,8.572,0,0,1,51.428,60H8.571A8.571,8.571,0,0,1,0,51.429V8.571A8.571,8.571,0,0,1,8.571,0" transform="translate(754 826)" fill="#eef9ed"/>
    <path id="Trazado_18731" data-name="Trazado 18731" d="M39.433,21.3h7.436a.806.806,0,0,0,.806-.806v-1.7a5.9,5.9,0,0,0-5.9-5.9H38.551" transform="translate(754 826)" fill="#fe5000"/>
    <path id="Trazado_18732" data-name="Trazado 18732" d="M39.4,22.95h7.8a.585.585,0,0,1,.585.585V39.343a.69.69,0,0,1-.689.689H38.812" transform="translate(754 826)" fill="#fe5000"/>
    <path id="Trazado_18733" data-name="Trazado 18733" d="M38.841,40.032h9.634a2.437,2.437,0,0,1,2.437,2.437v.455a.5.5,0,0,1-.5.5H36.9" transform="translate(754 826)" fill="#fe5000"/>
    <path id="Trazado_18734" data-name="Trazado 18734" d="M37.278,43.425h12.76a.874.874,0,0,1,0,1.748H37.278" transform="translate(754 826)" fill="#fe5000"/>
    <path id="Trazado_18735" data-name="Trazado 18735" d="M17.751,14.331h0a1.443,1.443,0,0,0,1.443,1.443H31.128a4.719,4.719,0,0,1,4.719,4.719.806.806,0,0,0,.806.806h7.436a.806.806,0,0,0,.806-.806v-1.7a5.9,5.9,0,0,0-5.9-5.9h-19.8a1.443,1.443,0,0,0-1.443,1.443" transform="translate(754 826)" fill="#ff895a"/>
    <path id="Trazado_18736" data-name="Trazado 18736" d="M36.51,22.95h7.8a.585.585,0,0,1,.585.585v16.5h-8.97v-.914a5.91,5.91,0,0,0-5.549-5.9L9.985,31.974a.95.95,0,0,1-.892-.948,5.269,5.269,0,0,1,5.346-5.268L30.933,26c3.939.073,4.992-1.068,4.992-2.462a.585.585,0,0,1,.585-.585" transform="translate(754 826)" fill="#ff895a"/>
    <path id="Trazado_18737" data-name="Trazado 18737" d="M47.669,43.425H34.163a.5.5,0,0,1-.5-.5v-.455A2.437,2.437,0,0,1,36.1,40.032h9.634a2.437,2.437,0,0,1,2.437,2.437v.455a.5.5,0,0,1-.5.5" transform="translate(754 826)" fill="#ff895a"/>
    <path id="Trazado_18738" data-name="Trazado 18738" d="M18.475,35.417,11.5,35.01a.353.353,0,0,1-.333-.374l.128-2.2a.354.354,0,0,1,.374-.333l6.976.407a.354.354,0,0,1,.333.374l-.129,2.2a.354.354,0,0,1-.374.333" transform="translate(754 826)" fill="#ff895a"/>
    <path id="Trazado_18739" data-name="Trazado 18739" d="M18.219,46.3a3.666,3.666,0,1,1-7.332,0c0-2.561,2.135-5.539,3.146-7.345a.594.594,0,0,1,1.04,0c1.011,1.806,3.146,4.472,3.146,7.345" transform="translate(754 826)" fill="#cee6ad"/>
    <path id="Trazado_18740" data-name="Trazado 18740" d="M47.3,45.173H34.537a.874.874,0,0,1,0-1.748H47.3a.874.874,0,1,1,0,1.748" transform="translate(754 826)" fill="#ff895a"/>
    <path id="Trazado_18741" data-name="Trazado 18741" d="M17.746,14.331h0a1.443,1.443,0,0,0,1.443,1.443H31.123a4.719,4.719,0,0,1,4.719,4.719.806.806,0,0,0,.806.806h7.436a.806.806,0,0,0,.806-.806v-1.7a5.9,5.9,0,0,0-5.9-5.9h-19.8A1.443,1.443,0,0,0,17.746,14.331Z" transform="translate(754 826)" fill="none" stroke="#002744" stroke-linecap="round" stroke-miterlimit="10" stroke-width="0.75"/>
    <path id="Trazado_18742" data-name="Trazado 18742" d="M39.428,21.3h7.436a.806.806,0,0,0,.806-.806v-1.7a5.9,5.9,0,0,0-5.9-5.9H38.546" transform="translate(754 826)" fill="none" stroke="#002744" stroke-linecap="round" stroke-miterlimit="10" stroke-width="0.75"/>
    <path id="Trazado_18743" data-name="Trazado 18743" d="M36.505,22.95h7.8a.585.585,0,0,1,.585.585v16.5H35.92v-.914a5.91,5.91,0,0,0-5.549-5.9L9.98,31.974a.95.95,0,0,1-.892-.948,5.269,5.269,0,0,1,5.346-5.268L30.928,26c3.939.073,4.992-1.068,4.992-2.462A.585.585,0,0,1,36.505,22.95Z" transform="translate(754 826)" fill="none" stroke="#002744" stroke-linecap="round" stroke-miterlimit="10" stroke-width="0.75"/>
    <path id="Trazado_18744" data-name="Trazado 18744" d="M38.807,40.032h8.281a.69.69,0,0,0,.689-.689V23.535a.585.585,0,0,0-.585-.585h-7.8" transform="translate(754 826)" fill="none" stroke="#002744" stroke-linecap="round" stroke-miterlimit="10" stroke-width="0.75"/>
    <path id="Trazado_18745" data-name="Trazado 18745" d="M47.665,43.425H34.159a.5.5,0,0,1-.5-.5v-.455A2.437,2.437,0,0,1,36.1,40.032h9.634a2.437,2.437,0,0,1,2.437,2.437v.455A.5.5,0,0,1,47.665,43.425Z" transform="translate(754 826)" fill="none" stroke="#002744" stroke-linecap="round" stroke-miterlimit="10" stroke-width="0.75"/>
    <rect id="Rectángulo_3468" data-name="Rectángulo 3468" width="2.912" height="7.696" rx="0.354" transform="matrix(0.058, -0.998, 0.998, 0.058, 765.142, 860.99)" fill="none" stroke="#002744" stroke-linecap="round" stroke-miterlimit="10" stroke-width="0.75"/>
    <path id="Trazado_18746" data-name="Trazado 18746" d="M18.214,46.3a3.666,3.666,0,0,1-7.332,0c0-2.561,2.135-5.539,3.146-7.345a.594.594,0,0,1,1.04,0C16.079,40.759,18.214,43.425,18.214,46.3Z" transform="translate(754 826)" fill="none" stroke="#002744" stroke-linecap="round" stroke-miterlimit="10" stroke-width="0.75"/>
    <path id="Trazado_18747" data-name="Trazado 18747" d="M47.292,45.173H34.532a.874.874,0,0,1,0-1.748h12.76a.874.874,0,0,1,0,1.748Z" transform="translate(754 826)" fill="none" stroke="#002744" stroke-linecap="round" stroke-miterlimit="10" stroke-width="0.75"/>
    <path id="Trazado_18748" data-name="Trazado 18748" d="M38.836,40.032H48.47a2.437,2.437,0,0,1,2.437,2.437v.455a.5.5,0,0,1-.5.5H36.9" transform="translate(754 826)" fill="none" stroke="#002744" stroke-linecap="round" stroke-miterlimit="10" stroke-width="0.75"/>
    <path id="Trazado_18749" data-name="Trazado 18749" d="M37.273,43.425h12.76a.874.874,0,0,1,0,1.748H37.273" transform="translate(754 826)" fill="none" stroke="#002744" stroke-linecap="round" stroke-miterlimit="10" stroke-width="0.75"/>
    <line id="Línea_6325" data-name="Línea 6325" x2="0.849" y2="0.061" transform="translate(771.071 859.59)" fill="none" stroke="#002744" stroke-linecap="round" stroke-miterlimit="10" stroke-width="0.75"/>
    <line id="Línea_6326" data-name="Línea 6326" x2="3.328" y2="0.241" transform="translate(766.38 859.25)" fill="none" stroke="#002744" stroke-linecap="round" stroke-miterlimit="10" stroke-width="0.75"/>
    <path id="Trazado_18750" data-name="Trazado 18750" d="M16.81,46.285a2.257,2.257,0,0,1-2.257,2.257" transform="translate(754 826)" fill="none" stroke="#002744" stroke-linecap="round" stroke-miterlimit="10" stroke-width="0.75"/>
    <path id="Trazado_18751" data-name="Trazado 18751" d="M16.6,44.6a9.228,9.228,0,0,0-.61-1.611" transform="translate(754 826)" fill="none" stroke="#002744" stroke-linecap="round" stroke-miterlimit="10" stroke-width="0.75"/>
  </g>
</svg>
