<svg xmlns="http://www.w3.org/2000/svg" xmlns:xlink="http://www.w3.org/1999/xlink" width="60" height="60" viewBox="0 0 60 60">
  <defs>
    <clipPath id="clip-path">
      <rect id="Rectángulo_3340" data-name="Rectángulo 3340" width="22.405" height="35.37" transform="translate(217.243 15.849)" fill="none"/>
    </clipPath>
    <clipPath id="clip-path-2">
      <rect id="Rectángulo_3341" data-name="Rectángulo 3341" width="43.78" height="43.81" transform="translate(224.583 7.409)" fill="none"/>
    </clipPath>
  </defs>
  <g id="illustration_Bodega" transform="translate(0)">
    <path id="Trazado_17660" data-name="Trazado 17660" d="M221.377,0h42.857a8.572,8.572,0,0,1,8.572,8.571V51.429A8.572,8.572,0,0,1,264.234,60H221.377a8.571,8.571,0,0,1-8.571-8.571V8.571A8.571,8.571,0,0,1,221.377,0" transform="translate(-212.806)" fill="#f7f9f7"/>
    <rect id="Rectángulo_3339" data-name="Rectángulo 3339" width="2.802" height="7.99" transform="matrix(0.545, -0.838, 0.838, 0.545, 5.859, 11.732)" fill="#eef9ed"/>
    <path id="Trazado_17661" data-name="Trazado 17661" d="M243.218,47.15a1.571,1.571,0,1,1-1.571-1.571,1.571,1.571,0,0,1,1.571,1.571" transform="translate(-212.806)" fill="#eef9ed"/>
    <g id="Grupo_2375" data-name="Grupo 2375" transform="translate(-212.806)" opacity="0.5">
      <g id="Grupo_2374" data-name="Grupo 2374">
        <g id="Grupo_2373" data-name="Grupo 2373" clip-path="url(#clip-path)">
          <path id="Trazado_17662" data-name="Trazado 17662" d="M236.2,47.009a5.765,5.765,0,0,1,3.444-5.166v-.509L231.713,19.26l-5.49-3.13a1.224,1.224,0,0,0-1.24,0,2.508,2.508,0,0,1-.4-.28v1.31a1.825,1.825,0,0,0,.58,1.33h-.76a1.778,1.778,0,0,0-1.75,1.81V33.7a1.841,1.841,0,0,0,.3,1.01h-3.96a1.753,1.753,0,0,0-1.75,1.75v13.01a1.746,1.746,0,0,0,1.75,1.75h19.17a5.558,5.558,0,0,1-1.96-4.21" fill="#c6cccb"/>
        </g>
      </g>
    </g>
    <g id="Grupo_2378" data-name="Grupo 2378" transform="translate(-212.806)" opacity="0.5">
      <g id="Grupo_2377" data-name="Grupo 2377">
        <g id="Grupo_2376" data-name="Grupo 2376" clip-path="url(#clip-path-2)">
          <path id="Trazado_17663" data-name="Trazado 17663" d="M268.363,36.459v13.01a1.746,1.746,0,0,1-1.75,1.75h-19.87a5.561,5.561,0,0,0,1.96-4.21,4.662,4.662,0,0,0-.13-1.13l12.81-4.74-.48-1.6-12.92,4.79a6.309,6.309,0,0,0-5.53-3.11,8.671,8.671,0,0,0-.89.061v-.161h-.13l-8.2-22.439-6.12-3.98-.63-1.131-1.9-1.3V9.209a1.782,1.782,0,0,1,1.75-1.8h7.71a1.776,1.776,0,0,1,1.75,1.8V17.16a1.79,1.79,0,0,1-.58,1.33h25.23a1.777,1.777,0,0,1,1.75,1.809V33.7a1.84,1.84,0,0,1-.3,1.009h4.72a1.753,1.753,0,0,1,1.75,1.75" fill="#c6cccb"/>
        </g>
      </g>
    </g>
    <path id="Trazado_17664" data-name="Trazado 17664" d="M248.621,45.861a5.444,5.444,0,0,1-5.287,6.73h-1.687" transform="translate(-212.806)" fill="none" stroke="#002744" stroke-linecap="round" stroke-miterlimit="10" stroke-width="0.75"/>
    <path id="Trazado_17665" data-name="Trazado 17665" d="M243.351,47.15a1.7,1.7,0,1,1-1.7-1.7A1.7,1.7,0,0,1,243.351,47.15Z" transform="translate(-212.806)" fill="none" stroke="#002744" stroke-linecap="round" stroke-miterlimit="10" stroke-width="0.75"/>
    <path id="Trazado_17666" data-name="Trazado 17666" d="M239.86,41.943l-7.342-20.78A3.822,3.822,0,0,0,231,19.235l-5.208-3.381" transform="translate(-212.806)" fill="none" stroke="#002744" stroke-linecap="round" stroke-miterlimit="10" stroke-width="0.75"/>
    <path id="Trazado_17667" data-name="Trazado 17667" d="M226.668,14.4l5.288,3.524a5.393,5.393,0,0,1,2.1,2.678l7.6,21.106" transform="translate(-212.806)" fill="none" stroke="#002744" stroke-linecap="round" stroke-miterlimit="10" stroke-width="0.75"/>
    <path id="Trazado_17668" data-name="Trazado 17668" d="M219.346,12.33l-.528-.36c-.308-.211-.313-.741-.01-1.186l.594-.87c.3-.444.8-.634,1.107-.423l5.977,4.077c.308.21.313.741.01,1.185l-.594.871c-.3.444-.8.634-1.108.423l-.784-.535" transform="translate(-212.806)" fill="none" stroke="#002744" stroke-linecap="round" stroke-miterlimit="10" stroke-width="0.75"/>
    <path id="Trazado_17669" data-name="Trazado 17669" d="M223.983,15.442c-.383-.261-.27-.426-.653-.688s-.495-.095-.878-.356-.271-.428-.655-.69-.5-.1-.883-.36-.273-.428-.659-.692-.5-.1-.885-.361" transform="translate(-212.806)" fill="none" stroke="#002744" stroke-linecap="round" stroke-miterlimit="10" stroke-width="0.75"/>
    <path id="Trazado_17670" data-name="Trazado 17670" d="M246.693,44.8,260.9,39.538l.483,1.6L247.176,46.4" transform="translate(-212.806)" fill="none" stroke="#002744" stroke-linecap="round" stroke-miterlimit="10" stroke-width="0.75"/>
    <path id="Trazado_17671" data-name="Trazado 17671" d="M262.092,37.394l-5.07-13.782a1.62,1.62,0,0,0-2.082-.963l-15.8,5.813a1.609,1.609,0,0,0-.951,2.078l4.1,11.154a4.529,4.529,0,0,1,4.244,3.151l14.6-5.368a1.621,1.621,0,0,0,.962-2.083" transform="translate(-212.806)" fill="#eef9ed"/>
    <path id="Trazado_17672" data-name="Trazado 17672" d="M257.022,23.612l5.07,13.782a1.622,1.622,0,0,1-.962,2.083l-3.68,1.353L251.26,24l3.68-1.353a1.62,1.62,0,0,1,2.082.962" transform="translate(-212.806)" fill="#c6cccb"/>
    <path id="Trazado_17673" data-name="Trazado 17673" d="M242.278,41.674l-4.21-11.445a1.287,1.287,0,0,1,.763-1.652l16.42-6.04a1.288,1.288,0,0,1,1.652.764l5.3,14.406a1.287,1.287,0,0,1-.763,1.652l-14.87,5.469" transform="translate(-212.806)" fill="none" stroke="#002744" stroke-linecap="round" stroke-miterlimit="10" stroke-width="0.75"/>
    <line id="Línea_5959" data-name="Línea 5959" x2="6.188" y2="16.821" transform="translate(38.721 23.908)" fill="none" stroke="#002744" stroke-linecap="round" stroke-miterlimit="10" stroke-width="0.75"/>
    <rect id="Rectángulo_3342" data-name="Rectángulo 3342" width="3.548" height="4.005" transform="matrix(0.939, -0.345, 0.345, 0.939, 30.105, 27.076)" fill="none" stroke="#002744" stroke-linecap="round" stroke-miterlimit="10" stroke-width="0.75"/>
    <path id="Trazado_17674" data-name="Trazado 17674" d="M248.147,11.213l4.047,11a1.3,1.3,0,0,1-.768,1.663l-12.614,4.639a1.285,1.285,0,0,1-1.653-.771l-4.047-11a1.285,1.285,0,0,1,.759-1.659l12.614-4.64a1.293,1.293,0,0,1,1.662.768" transform="translate(-212.806)" fill="#eef9ed"/>
    <path id="Trazado_17675" data-name="Trazado 17675" d="M248.147,11.213l4.047,11a1.3,1.3,0,0,1-.768,1.663l-2.937,1.08-4.941-13.433,2.937-1.08a1.293,1.293,0,0,1,1.662.768" transform="translate(-212.806)" fill="#c6cccb"/>
    <path id="Rectángulo_3343" data-name="Rectángulo 3343" d="M1.287,0H14.733A1.287,1.287,0,0,1,16.02,1.287V13.021a1.287,1.287,0,0,1-1.287,1.287H1.286A1.286,1.286,0,0,1,0,13.021V1.287A1.287,1.287,0,0,1,1.287,0Z" transform="translate(19.856 15.531) rotate(-20.195)" fill="none" stroke="#002744" stroke-linecap="round" stroke-miterlimit="10" stroke-width="0.75"/>
    <line id="Línea_5960" data-name="Línea 5960" x2="4.94" y2="13.428" transform="translate(30.954 11.449)" fill="none" stroke="#002744" stroke-linecap="round" stroke-miterlimit="10" stroke-width="0.75"/>
    <rect id="Rectángulo_3344" data-name="Rectángulo 3344" width="2.832" height="3.198" transform="matrix(0.938, -0.345, 0.345, 0.938, 24.076, 13.979)" fill="none" stroke="#002744" stroke-linecap="round" stroke-miterlimit="10" stroke-width="0.75"/>
    <path id="Trazado_17676" data-name="Trazado 17676" d="M237.988,51.178a5.441,5.441,0,1,1,3.658,1.413" transform="translate(-212.806)" fill="none" stroke="#002744" stroke-linecap="round" stroke-miterlimit="10" stroke-width="0.75"/>
    <path id="Trazado_17677" data-name="Trazado 17677" d="M240.37,52.44c-.1-.024-.2-.05-.295-.08a5.026,5.026,0,0,1-.483-.171" transform="translate(-212.806)" fill="none" stroke="#002744" stroke-linecap="round" stroke-miterlimit="10" stroke-width="0.75"/>
  </g>
</svg>
