<svg id="Illustrarion_aire" xmlns="http://www.w3.org/2000/svg" width="60" height="60" viewBox="0 0 60 60">
  <g id="Grupo_2418" data-name="Grupo 2418" transform="translate(-895.708 -716.054)">
    <path id="Trazado_18057" data-name="Trazado 18057" d="M79.279,1.054h42.857a8.572,8.572,0,0,1,8.572,8.571V52.483a8.572,8.572,0,0,1-8.572,8.571H79.279a8.571,8.571,0,0,1-8.571-8.571V9.625a8.571,8.571,0,0,1,8.571-8.571" transform="translate(825 715)" fill="#99d6ff"/>
    <path id="Trazado_18058" data-name="Trazado 18058" d="M111.56,19.34h9.379a2.411,2.411,0,0,1,2.411,2.412v16.5a2.411,2.411,0,0,1-2.411,2.412H83.759" transform="translate(825 715)" fill="#fe5000"/>
    <path id="Trazado_18059" data-name="Trazado 18059" d="M90.938,19.34h26.47a2.66,2.66,0,0,1,2.66,2.66V38a2.66,2.66,0,0,1-2.66,2.66H80.725A2.66,2.66,0,0,1,78.065,38V22a2.66,2.66,0,0,1,2.66-2.66h3.892" transform="translate(825 715)" fill="#ff895a"/>
    <path id="Trazado_18060" data-name="Trazado 18060" d="M81.494,40.224V35.937a2.412,2.412,0,0,1,2.412-2.412h30.322a2.411,2.411,0,0,1,2.411,2.412v4.287" transform="translate(825 715)" fill="#09f"/>
    <path id="Trazado_18061" data-name="Trazado 18061" d="M90.938,19.34h26.47a2.66,2.66,0,0,1,2.66,2.66V38a2.66,2.66,0,0,1-2.66,2.66H80.725A2.66,2.66,0,0,1,78.065,38V22a2.66,2.66,0,0,1,2.66-2.66h3.892" transform="translate(825 715)" fill="none" stroke="#002744" stroke-linecap="round" stroke-miterlimit="10" stroke-width="0.75"/>
    <line id="Línea_6095" data-name="Línea 6095" x2="1.133" transform="translate(911.263 734.34)" fill="none" stroke="#002744" stroke-linecap="round" stroke-miterlimit="10" stroke-width="0.75"/>
    <path id="Trazado_18062" data-name="Trazado 18062" d="M111.56,19.34h9.379a2.411,2.411,0,0,1,2.411,2.412v16.5a2.411,2.411,0,0,1-2.411,2.412H83.759" transform="translate(825 715)" fill="none" stroke="#002744" stroke-linecap="round" stroke-miterlimit="10" stroke-width="0.75"/>
    <path id="Trazado_18063" data-name="Trazado 18063" d="M81.494,40.224V35.937a2.412,2.412,0,0,1,2.412-2.412h30.322a2.411,2.411,0,0,1,2.411,2.412v4.287" transform="translate(825 715)" fill="none" stroke="#002744" stroke-linecap="round" stroke-miterlimit="10" stroke-width="0.75"/>
    <line id="Línea_6096" data-name="Línea 6096" x2="28.739" transform="translate(909.697 750.869)" fill="none" stroke="#002744" stroke-linecap="round" stroke-miterlimit="10" stroke-width="0.75"/>
    <line id="Línea_6097" data-name="Línea 6097" x2="28.739" transform="translate(909.697 752.277)" fill="none" stroke="#002744" stroke-linecap="round" stroke-miterlimit="10" stroke-width="0.75"/>
    <line id="Línea_6098" data-name="Línea 6098" x2="28.739" transform="translate(909.697 753.684)" fill="none" stroke="#002744" stroke-linecap="round" stroke-miterlimit="10" stroke-width="0.75"/>
    <path id="Trazado_18064" data-name="Trazado 18064" d="M112.5,23.192H86.6a.938.938,0,1,1,0-1.876h25.9a.938.938,0,0,1,0,1.876Z" transform="translate(825 715)" fill="none" stroke="#002744" stroke-linecap="round" stroke-miterlimit="10" stroke-width="0.75"/>
    <path id="Trazado_18065" data-name="Trazado 18065" d="M112.5,26.542h0a.938.938,0,1,1,.938-.938A.938.938,0,0,1,112.5,26.542Z" transform="translate(825 715)" fill="none" stroke="#002744" stroke-linecap="round" stroke-miterlimit="10" stroke-width="0.75"/>
    <path id="Trazado_18066" data-name="Trazado 18066" d="M108.972,26.542h0a.938.938,0,1,1,.938-.938A.938.938,0,0,1,108.972,26.542Z" transform="translate(825 715)" fill="none" stroke="#002744" stroke-linecap="round" stroke-miterlimit="10" stroke-width="0.75"/>
    <path id="Trazado_18067" data-name="Trazado 18067" d="M105.446,26.542h0a.938.938,0,1,1,.938-.938A.938.938,0,0,1,105.446,26.542Z" transform="translate(825 715)" fill="none" stroke="#002744" stroke-linecap="round" stroke-miterlimit="10" stroke-width="0.75"/>
    <path id="Trazado_18068" data-name="Trazado 18068" d="M82.182,42.844c-.226.768-.61.655-.836,1.423s.157.881-.069,1.648-.61.656-.837,1.424.157.884-.07,1.654-.611.657-.838,1.427" transform="translate(825 715)" fill="none" stroke="#002744" stroke-linecap="round" stroke-miterlimit="10" stroke-width="0.75"/>
    <path id="Trazado_18069" data-name="Trazado 18069" d="M85.507,42.787c-.226.768-.649.644-.875,1.412s.2.892-.03,1.659-.649.644-.876,1.413" transform="translate(825 715)" fill="none" stroke="#002744" stroke-linecap="round" stroke-miterlimit="10" stroke-width="0.75"/>
    <path id="Trazado_18070" data-name="Trazado 18070" d="M88.721,42.844c-.226.768-.61.655-.836,1.423s.157.881-.069,1.648-.61.656-.837,1.424.157.884-.07,1.654-.611.657-.838,1.427" transform="translate(825 715)" fill="none" stroke="#002744" stroke-linecap="round" stroke-miterlimit="10" stroke-width="0.75"/>
    <path id="Trazado_18071" data-name="Trazado 18071" d="M106.09,42.844c-.226.768-.61.655-.836,1.423s.157.881-.069,1.648-.61.656-.837,1.424.157.884-.07,1.654-.611.657-.838,1.427" transform="translate(825 715)" fill="none" stroke="#002744" stroke-linecap="round" stroke-miterlimit="10" stroke-width="0.75"/>
    <path id="Trazado_18072" data-name="Trazado 18072" d="M109.414,42.787c-.226.768-.649.644-.875,1.412s.2.892-.03,1.659-.649.644-.876,1.413" transform="translate(825 715)" fill="none" stroke="#002744" stroke-linecap="round" stroke-miterlimit="10" stroke-width="0.75"/>
    <path id="Trazado_18073" data-name="Trazado 18073" d="M112.628,42.844c-.226.768-.61.655-.836,1.423s.157.881-.069,1.648-.61.656-.837,1.424.157.884-.07,1.654-.611.657-.838,1.427" transform="translate(825 715)" fill="none" stroke="#002744" stroke-linecap="round" stroke-miterlimit="10" stroke-width="0.75"/>
  </g>
</svg>
