<svg id="illustration_ViajesNegocios" xmlns="http://www.w3.org/2000/svg" width="60" height="60" viewBox="0 0 60 60">
  <g id="Grupo_2449" data-name="Grupo 2449" transform="translate(-882.706 -566)">
    <path id="Trazado_18368" data-name="Trazado 18368" d="M151.012,0h42.857a8.572,8.572,0,0,1,8.572,8.571V51.429A8.572,8.572,0,0,1,193.869,60H151.012a8.571,8.571,0,0,1-8.571-8.571V8.571A8.571,8.571,0,0,1,151.012,0" transform="translate(740.265 566)" fill="#cee6ad"/>
    <rect id="Rectángulo_3445" data-name="Rectángulo 3445" width="7.931" height="1.308" transform="translate(896.216 575.166)" fill="#ff895a"/>
    <path id="Trazado_18369" data-name="Trazado 18369" d="M165,43.514h-9.607a4.891,4.891,0,0,1-4.891-4.891V21.838a4.891,4.891,0,0,1,4.891-4.891H165a4.891,4.891,0,0,1,4.891,4.891V38.623A4.891,4.891,0,0,1,165,43.514" transform="translate(740.265 566)" fill="#ff895a"/>
    <path id="Trazado_18370" data-name="Trazado 18370" d="M169.89,21.19V39.275a4.242,4.242,0,0,1-4.241,4.241h-2.238a3.7,3.7,0,0,0,3.7-3.7V20.652a3.7,3.7,0,0,0-3.7-3.7h2.238a4.243,4.243,0,0,1,4.241,4.242" transform="translate(740.265 566)" fill="#fe5000"/>
    <path id="Trazado_18371" data-name="Trazado 18371" d="M187.813,33.81l.026,0h-.046a1.645,1.645,0,0,0-.187-.019H173.577a1.765,1.765,0,0,0-1.765,1.765v8.191a1.765,1.765,0,0,0,1.765,1.765h14.029a1.765,1.765,0,0,0,1.765-1.765V35.554a1.759,1.759,0,0,0-1.558-1.744" transform="translate(740.265 566)" fill="#4d997f"/>
    <path id="Trazado_18372" data-name="Trazado 18372" d="M160.486,16.946h2.721a3.7,3.7,0,0,1,3.7,3.7V39.809a3.7,3.7,0,0,1-3.7,3.7h-2.721" transform="translate(740.265 566)" fill="none" stroke="#002744" stroke-linecap="round" stroke-miterlimit="10" stroke-width="0.75"/>
    <rect id="Rectángulo_3446" data-name="Rectángulo 3446" width="8.469" height="1.563" rx="0.669" transform="translate(896.021 575.016)" fill="none" stroke="#002744" stroke-linecap="round" stroke-miterlimit="10" stroke-width="0.75"/>
    <line id="Línea_6251" data-name="Línea 6251" y2="6.367" transform="translate(897.438 576.578)" fill="none" stroke="#002744" stroke-linecap="round" stroke-miterlimit="10" stroke-width="0.75"/>
    <line id="Línea_6252" data-name="Línea 6252" y2="6.367" transform="translate(903.073 576.578)" fill="none" stroke="#002744" stroke-linecap="round" stroke-miterlimit="10" stroke-width="0.75"/>
    <path id="Trazado_18373" data-name="Trazado 18373" d="M154.347,39.287h0a.846.846,0,0,1-.846-.846V24.983a.846.846,0,1,1,1.692,0V38.441A.846.846,0,0,1,154.347,39.287Z" transform="translate(740.265 566)" fill="none" stroke="#002744" stroke-linecap="round" stroke-miterlimit="10" stroke-width="0.75"/>
    <path id="Trazado_18374" data-name="Trazado 18374" d="M158.514,39.287h0a.846.846,0,0,1-.846-.846V24.983a.846.846,0,1,1,1.692,0V38.441A.846.846,0,0,1,158.514,39.287Z" transform="translate(740.265 566)" fill="none" stroke="#002744" stroke-linecap="round" stroke-miterlimit="10" stroke-width="0.75"/>
    <path id="Trazado_18375" data-name="Trazado 18375" d="M162.682,39.287h0a.846.846,0,0,1-.846-.846V24.983a.846.846,0,1,1,1.692,0V38.441A.846.846,0,0,1,162.682,39.287Z" transform="translate(740.265 566)" fill="none" stroke="#002744" stroke-linecap="round" stroke-miterlimit="10" stroke-width="0.75"/>
    <path id="Trazado_18376" data-name="Trazado 18376" d="M155.3,46.175h0a1.257,1.257,0,0,1-1.257-1.257v-.149a1.257,1.257,0,0,1,2.514,0v.149A1.257,1.257,0,0,1,155.3,46.175Z" transform="translate(740.265 566)" fill="none" stroke="#002744" stroke-linecap="round" stroke-miterlimit="10" stroke-width="0.75"/>
    <path id="Trazado_18377" data-name="Trazado 18377" d="M155.711,43.513h.494a1.256,1.256,0,0,1,1.256,1.257v.149a1.256,1.256,0,0,1-1.256,1.256h-.9" transform="translate(740.265 566)" fill="none" stroke="#002744" stroke-linecap="round" stroke-miterlimit="10" stroke-width="0.75"/>
    <path id="Trazado_18378" data-name="Trazado 18378" d="M163.776,46.175h0a1.257,1.257,0,0,1-1.257-1.257v-.149a1.257,1.257,0,0,1,2.514,0v.149A1.257,1.257,0,0,1,163.776,46.175Z" transform="translate(740.265 566)" fill="none" stroke="#002744" stroke-linecap="round" stroke-miterlimit="10" stroke-width="0.75"/>
    <path id="Trazado_18379" data-name="Trazado 18379" d="M164.183,43.513h.494a1.256,1.256,0,0,1,1.256,1.257v.149a1.256,1.256,0,0,1-1.256,1.256h-.9" transform="translate(740.265 566)" fill="none" stroke="#002744" stroke-linecap="round" stroke-miterlimit="10" stroke-width="0.75"/>
    <path id="Trazado_18380" data-name="Trazado 18380" d="M184.933,33.789H173.654a1.766,1.766,0,0,0-1.766,1.765v8.19a1.766,1.766,0,0,0,1.766,1.766h11.279a1.766,1.766,0,0,0,1.765-1.766v-8.19c0-1.476.64-1.746,1.217-1.746" transform="translate(740.265 566)" fill="none" stroke="#002744" stroke-linecap="round" stroke-miterlimit="10" stroke-width="0.75"/>
    <path id="Trazado_18381" data-name="Trazado 18381" d="M186.7,36V37.37a2.714,2.714,0,0,1-2.713,2.714H174.6a2.714,2.714,0,0,1-2.713-2.714V36" transform="translate(740.265 566)" fill="none" stroke="#002744" stroke-linecap="round" stroke-miterlimit="10" stroke-width="0.75"/>
    <path id="Trazado_18382" data-name="Trazado 18382" d="M181.135,33.789h6.548a1.765,1.765,0,0,1,1.765,1.765v8.19a1.766,1.766,0,0,1-1.765,1.766h-6.548" transform="translate(740.265 566)" fill="none" stroke="#002744" stroke-linecap="round" stroke-miterlimit="10" stroke-width="0.75"/>
    <line id="Línea_6253" data-name="Línea 6253" x2="2.908" transform="translate(917.948 606.994)" fill="none" stroke="#002744" stroke-linecap="round" stroke-miterlimit="10" stroke-width="0.75"/>
    <path id="Trazado_18383" data-name="Trazado 18383" d="M178.4,40.995v1.454a.673.673,0,0,0,.673.673h.156a.673.673,0,0,0,.673-.673V40.995" transform="translate(740.265 566)" fill="none" stroke="#002744" stroke-linecap="round" stroke-miterlimit="10" stroke-width="0.75"/>
    <path id="Trazado_18384" data-name="Trazado 18384" d="M182.387,31.749H178.24a.8.8,0,0,0-.795.8v1.244h1.1v-.738a.2.2,0,0,1,.2-.2H181.8a.2.2,0,0,1,.2.2v.738h1.056V32.422A.672.672,0,0,0,182.387,31.749Z" transform="translate(740.265 566)" fill="none" stroke="#002744" stroke-linecap="round" stroke-miterlimit="10" stroke-width="0.75"/>
    <line id="Línea_6254" data-name="Línea 6254" y1="0.53" transform="translate(890.561 591.641)" fill="none" stroke="#002744" stroke-linecap="round" stroke-miterlimit="10" stroke-width="0.75"/>
    <path id="Trazado_18385" data-name="Trazado 18385" d="M150.3,23.054V21.188a4.243,4.243,0,0,1,4.242-4.243h10.9a4.243,4.243,0,0,1,4.243,4.243V39.27a4.243,4.243,0,0,1-4.243,4.242h-10.9A4.242,4.242,0,0,1,150.3,39.27V27.645" transform="translate(740.265 566)" fill="none" stroke="#002744" stroke-linecap="round" stroke-miterlimit="10" stroke-width="0.75"/>
    <path id="Trazado_18386" data-name="Trazado 18386" d="M187.531,50.984h-38.3a2.4,2.4,0,1,1,0-4.809h38.3a2.4,2.4,0,0,1,0,4.809Z" transform="translate(740.265 566)" fill="none" stroke="#002744" stroke-linecap="round" stroke-miterlimit="10" stroke-width="0.75"/>
    <path id="Trazado_18387" data-name="Trazado 18387" d="M155.6,46.175h41.28a2.4,2.4,0,1,1,0,4.809H155.6" transform="translate(740.265 566)" fill="none" stroke="#002744" stroke-linecap="round" stroke-miterlimit="10" stroke-width="0.75"/>
    <path id="Trazado_18388" data-name="Trazado 18388" d="M187.189,49.333H149.574a.754.754,0,1,1,0-1.507h37.615a.754.754,0,0,1,0,1.507" transform="translate(740.265 566)" fill="#4d997f"/>
  </g>
</svg>
