<svg id="Grupo_1315" data-name="Grupo 1315" xmlns="http://www.w3.org/2000/svg" xmlns:xlink="http://www.w3.org/1999/xlink" width="300" height="213" viewBox="0 0 300 213">
  <defs>
    <clipPath id="clip-path">
      <rect id="Rectángulo_1935" data-name="Rectángulo 1935" width="300" height="213" fill="none"/>
    </clipPath>
  </defs>
  <g id="Grupo_1115" data-name="Grupo 1115">
    <g id="Grupo_1114" data-name="Grupo 1114" clip-path="url(#clip-path)">
      <path id="Trazado_8907" data-name="Trazado 8907" d="M12.614,0H287.6a12.614,12.614,0,0,1,12.614,12.614V200.562A12.614,12.614,0,0,1,287.6,213.176H12.614A12.614,12.614,0,0,1,0,200.562V12.614A12.614,12.614,0,0,1,12.614,0" fill="#fff"/>
      <rect id="Rectángulo_1934" data-name="Rectángulo 1934" width="195.789" height="131.491" rx="5.975" transform="translate(55.22 40.497)" fill="#fff"/>
      <path id="Línea_1715" data-name="Línea 1715" d="M5.146.761H.131A.631.631,0,0,1,.131-.5H5.146a.631.631,0,1,1,0,1.261Z" transform="translate(198.327 171.857)" fill="#002744"/>
      <path id="Trazado_8908" data-name="Trazado 8908" d="M232.159,164.357H200.041a.631.631,0,0,1,0-1.261h32.118a6.914,6.914,0,0,0,6.906-6.906V39.773a6.914,6.914,0,0,0-6.906-6.906H51.445a6.915,6.915,0,0,0-6.907,6.906V156.189a6.915,6.915,0,0,0,6.907,6.906H169.952a.631.631,0,0,1,0,1.261H51.445a8.177,8.177,0,0,1-8.169-8.168V39.773A8.177,8.177,0,0,1,51.445,31.6H232.159a8.177,8.177,0,0,1,8.168,8.168V156.189A8.177,8.177,0,0,1,232.159,164.357Z" transform="translate(11.312 8.261)" fill="#002744"/>
      <path id="Trazado_8909" data-name="Trazado 8909" d="M74.447,182.85H29.259a6.308,6.308,0,0,1-6.307-6.307V26.485a6.308,6.308,0,0,1,6.307-6.307H74.447a6.308,6.308,0,0,1,6.307,6.307V176.543a6.308,6.308,0,0,1-6.307,6.307" transform="translate(6 5.274)" fill="#edffef"/>
      <path id="Trazado_8910" data-name="Trazado 8910" d="M69.414,35.182H29.19a1.764,1.764,0,0,1-1.763-1.763v-1.57a1.764,1.764,0,0,1,1.763-1.763H69.414a1.764,1.764,0,0,1,1.763,1.763v1.57a1.764,1.764,0,0,1-1.763,1.763" transform="translate(7.169 7.864)" fill="#4d997f"/>
      <path id="Trazado_8911" data-name="Trazado 8911" d="M69.414,52.714H29.19a1.764,1.764,0,0,1-1.763-1.763V49.38a1.764,1.764,0,0,1,1.763-1.763H69.414a1.764,1.764,0,0,1,1.763,1.763v1.57a1.764,1.764,0,0,1-1.763,1.763" transform="translate(7.169 12.447)" fill="#4d997f"/>
      <path id="Trazado_8912" data-name="Trazado 8912" d="M69.414,60.113H29.19a1.764,1.764,0,0,1-1.763-1.763v-1.57a1.764,1.764,0,0,1,1.763-1.763H69.414a1.764,1.764,0,0,1,1.763,1.763v1.57a1.764,1.764,0,0,1-1.763,1.763" transform="translate(7.169 14.381)" fill="#4d997f"/>
      <path id="Trazado_8913" data-name="Trazado 8913" d="M32.118,44.51h-3.55a1.24,1.24,0,0,1-1.24-1.24v-3.55a1.24,1.24,0,0,1,1.24-1.24h3.55a1.24,1.24,0,0,1,1.24,1.24v3.55a1.24,1.24,0,0,1-1.24,1.24" transform="translate(7.143 10.059)" fill="#4d997f"/>
    </g>
  </g>
  <text id="Registros" transform="translate(42.542 55.002)" fill="#4d997f" font-size="8" font-family="Sora" font-weight="700"><tspan x="0" y="0" letter-spacing="-0.009em">R</tspan><tspan y="0">egist</tspan><tspan y="0" letter-spacing="-0.003em">r</tspan><tspan y="0">os</tspan></text>
  <g id="Grupo_1117" data-name="Grupo 1117">
    <g id="Grupo_1116" data-name="Grupo 1116" clip-path="url(#clip-path)">
      <path id="Rectángulo_1936" data-name="Rectángulo 1936" d="M6.438-.5H51.626a6.946,6.946,0,0,1,6.938,6.938V156.5a6.946,6.946,0,0,1-6.938,6.938H6.438A6.946,6.946,0,0,1-.5,156.5V6.438A6.946,6.946,0,0,1,6.438-.5ZM51.626,162.172A5.683,5.683,0,0,0,57.3,156.5V6.438A5.683,5.683,0,0,0,51.626.761H6.438A5.683,5.683,0,0,0,.761,6.438V156.5a5.683,5.683,0,0,0,5.676,5.676Z" transform="translate(28.82 24.776)" fill="#002744"/>
      <path id="Línea_1716" data-name="Línea 1716" d="M86.969.761H.131A.631.631,0,0,1,.131-.5H86.969a.631.631,0,1,1,0,1.261Z" transform="translate(164.041 56.175)" fill="#002744"/>
      <path id="Línea_1717" data-name="Línea 1717" d="M14.32.761H.131A.631.631,0,0,1,.131-.5H14.32a.631.631,0,1,1,0,1.261Z" transform="translate(142.881 56.175)" fill="#002744"/>
      <path id="Línea_1718" data-name="Línea 1718" d="M3.634.761H.131A.631.631,0,0,1,.131-.5h3.5a.631.631,0,1,1,0,1.261Z" transform="translate(126.185 56.175)" fill="#002744"/>
      <path id="Trazado_8914" data-name="Trazado 8914" d="M168.342,39.128a3.123,3.123,0,1,1-3.123-3.123,3.123,3.123,0,0,1,3.123,3.123" transform="translate(42.372 9.412)" fill="#cee6ad"/>
      <path id="Trazado_8915" data-name="Trazado 8915" d="M175.124,39.128A3.124,3.124,0,1,1,172,36.005a3.124,3.124,0,0,1,3.124,3.123" transform="translate(44.144 9.412)" fill="#cee6ad"/>
      <path id="Trazado_8916" data-name="Trazado 8916" d="M179.355,42.251a3.123,3.123,0,0,1,0-6.246h12.758a3.123,3.123,0,0,1,0,6.246Z" transform="translate(46.067 9.412)" fill="#cee6ad"/>
      <path id="Trazado_8917" data-name="Trazado 8917" d="M101.226,50.248,99.3,60.112l-5.182-3.064Z" transform="translate(24.603 13.135)" fill="#09f"/>
      <path id="Trazado_8918" data-name="Trazado 8918" d="M65.907,45.28S63.2,53.026,63.959,55.463,75.27,90.752,75.27,90.752s3.392,3.232,5.959.116,2.629-3.674,4.281-5.193,3.247-1.23,4.243-.221,12.113,13.33,15.041,15.223,5.213,2.765,7.6-.465,9.931-11.916,10.454-13.583.855-4.023,1.64-6.182a33.031,33.031,0,0,0,1.081-6.622Z" transform="translate(16.683 11.836)" fill="#09f"/>
      <path id="Trazado_8919" data-name="Trazado 8919" d="M123.747,69.729,103.716,58.667l5.01-6.08a3.8,3.8,0,0,0-2.405-6.185l-36-5.059a4.3,4.3,0,0,0-4.7,5.541L76.7,82.2a3.8,3.8,0,0,0,6.564,1.28l6.3-7.65,16.962,17.039a4.185,4.185,0,0,0,6.331-.463l12.223-16.523a4.184,4.184,0,0,0-1.341-6.153" transform="translate(17.102 10.796)" fill="#99d6ff"/>
      <path id="Trazado_8920" data-name="Trazado 8920" d="M109.629,94.863h0a4.781,4.781,0,0,1-3.411-1.419L90.631,77.785a1.135,1.135,0,0,0-1.68.079l-5.066,6.148a4.433,4.433,0,0,1-7.653-1.492L65.154,47.2a4.875,4.875,0,0,1,.727-4.387A4.935,4.935,0,0,1,69.839,40.8a5.075,5.075,0,0,1,.7.049l36,5.059a4.433,4.433,0,0,1,2.8,7.21l-4.069,4.938a.6.6,0,0,0,.172.9l18.736,10.348a4.815,4.815,0,0,1,1.543,7.08L113.5,92.911A4.774,4.774,0,0,1,109.629,94.863ZM89.827,76.19a2.381,2.381,0,0,1,1.7.705l15.587,15.659a3.554,3.554,0,0,0,5.377-.393l12.223-16.523a3.554,3.554,0,0,0-1.139-5.226L104.838,60.065a1.859,1.859,0,0,1-.536-2.81l4.069-4.938a3.172,3.172,0,0,0-2.007-5.159l-36-5.059a3.809,3.809,0,0,0-.528-.037,3.668,3.668,0,0,0-3.481,4.765L77.436,82.142a3.176,3.176,0,0,0,3.042,2.224,3.106,3.106,0,0,0,2.434-1.156l5.066-6.148A2.389,2.389,0,0,1,89.827,76.19Z" transform="translate(16.971 10.665)" fill="#002744"/>
      <path id="Trazado_8921" data-name="Trazado 8921" d="M98.357,59.142a.631.631,0,0,1-.486-1.032c1.454-1.764,2.362-7.2,2.589-9.14a.631.631,0,1,1,1.253.146c-.035.3-.882,7.387-2.868,9.8A.629.629,0,0,1,98.357,59.142Z" transform="translate(25.546 12.655)" fill="#002744"/>
      <path id="Trazado_8922" data-name="Trazado 8922" d="M108.65,103.847a4.807,4.807,0,0,1-3.411-1.419L88.624,85.613a1.134,1.134,0,0,0-1.677.08l-5.066,6.148a4.434,4.434,0,0,1-7.653-1.493L63.4,55.82a10.92,10.92,0,0,1,.32-5.2c.633-2.06,1.905-7.006,1.918-7.056a.631.631,0,0,1,1.222.314c-.052.2-1.293,5.024-1.934,7.113a9.8,9.8,0,0,0-.322,4.449L75.432,89.971a3.173,3.173,0,0,0,5.476,1.068l5.066-6.148a2.4,2.4,0,0,1,3.546-.166l16.615,16.815a3.553,3.553,0,0,0,5.374-.395l10.052-13.588a15.626,15.626,0,0,0,2.76-6.266l1.553-7.943a.631.631,0,1,1,1.238.242l-1.553,7.943a16.894,16.894,0,0,1-2.984,6.774L112.523,101.9A4.812,4.812,0,0,1,109,103.834Q108.825,103.847,108.65,103.847Z" transform="translate(16.519 11.264)" fill="#002744"/>
      <path id="Línea_1719" data-name="Línea 1719" d="M.132,5.556a.631.631,0,0,1-.626-.712L.125.05A.631.631,0,1,1,1.376.212L.756,5.006A.631.631,0,0,1,.132,5.556Z" transform="translate(105.996 87.358)" fill="#002744"/>
      <path id="Línea_1720" data-name="Línea 1720" d="M.132,2.018a.631.631,0,0,1-.626-.712L-.332.05A.631.631,0,0,1,.919.212L.756,1.468A.631.631,0,0,1,.132,2.018Z" transform="translate(93.764 99.95)" fill="#002744"/>
      <path id="Línea_1721" data-name="Línea 1721" d="M.131,3.7a.631.631,0,0,1-.626-.711L-.115.05A.631.631,0,0,1,1.136.211L.756,3.154A.631.631,0,0,1,.131,3.7Z" transform="translate(94.259 94.438)" fill="#002744"/>
      <path id="Línea_1722" data-name="Línea 1722" d="M.132,9.089a.631.631,0,0,1-.625-.723L.742.038A.631.631,0,1,1,1.99.223L.755,8.551A.631.631,0,0,1,.132,9.089Z" transform="translate(95.498 95.579)" fill="#002744"/>
      <path id="Línea_1723" data-name="Línea 1723" d="M.132,7.461a.631.631,0,0,1-.625-.723L.5.038A.631.631,0,1,1,1.749.223l-.994,6.7A.631.631,0,0,1,.132,7.461Z" transform="translate(103.142 89.445)" fill="#002744"/>
      <path id="Línea_1724" data-name="Línea 1724" d="M.131,10.245a.631.631,0,0,1-.622-.74L1.169.022A.631.631,0,0,1,2.412.239L.752,9.723A.631.631,0,0,1,.131,10.245Z" transform="translate(123.252 104.466)" fill="#002744"/>
      <path id="Línea_1725" data-name="Línea 1725" d="M.131,1.679A.631.631,0,0,1-.493.953l.14-.917A.631.631,0,0,1,.894.226l-.14.917A.631.631,0,0,1,.131,1.679Z" transform="translate(126.933 110.191)" fill="#002744"/>
      <path id="Línea_1726" data-name="Línea 1726" d="M.132,4.2a.631.631,0,0,1-.624-.726L.032.035a.631.631,0,0,1,1.247.19L.754,3.662A.631.631,0,0,1,.132,4.2Z" transform="translate(127.424 104.466)" fill="#002744"/>
      <path id="Línea_1727" data-name="Línea 1727" d="M.132,3.707a.631.631,0,0,1-.625-.723L-.057.038A.631.631,0,1,1,1.191.223L.755,3.169A.631.631,0,0,1,.132,3.707Z" transform="translate(98.224 95.388)" fill="#002744"/>
      <path id="Trazado_8923" data-name="Trazado 8923" d="M114.9,84.677l.2.24a1.549,1.549,0,0,1-2.392,1.968l-.2-.248a1.549,1.549,0,1,1,2.392-1.969Z" transform="translate(29.314 21.984)" fill="#09f"/>
      <path id="Trazado_8924" data-name="Trazado 8924" d="M118.266,88.521l.426.447.008.008a1.53,1.53,0,0,1-2.206,2.12l-.444-.46a1.531,1.531,0,1,1,2.2-2.128l.006.006Z" transform="translate(30.223 23.013)" fill="#09f"/>
      <path id="Trazado_8925" data-name="Trazado 8925" d="M122.1,92.257l.462.412.008.006a1.511,1.511,0,0,1-2.007,2.26l-.479-.423a1.513,1.513,0,0,1,2-2.268l.006.005Z" transform="translate(31.256 24.014)" fill="#09f"/>
      <path id="Trazado_8926" data-name="Trazado 8926" d="M126.222,95.684l.492.375.009.006a1.493,1.493,0,0,1-1.8,2.38l-.51-.383a1.495,1.495,0,0,1,1.8-2.389l.008.005Z" transform="translate(32.365 24.93)" fill="#09f"/>
      <path id="Trazado_8927" data-name="Trazado 8927" d="M130.6,98.787l.52.337.008.005a1.475,1.475,0,0,1-1.6,2.479l-.537-.344a1.476,1.476,0,0,1,1.593-2.486l.006.005Z" transform="translate(33.54 25.759)" fill="#09f"/>
      <path id="Trazado_8928" data-name="Trazado 8928" d="M135.2,101.56l.542.3.009,0a1.456,1.456,0,0,1-1.4,2.556l-.56-.3a1.458,1.458,0,0,1,1.391-2.562l.008,0Z" transform="translate(34.773 26.499)" fill="#09f"/>
      <path id="Trazado_8929" data-name="Trazado 8929" d="M139.986,104l.563.26.009,0a1.438,1.438,0,0,1-1.2,2.614l-.58-.264a1.439,1.439,0,1,1,1.193-2.62l.008,0Z" transform="translate(36.056 27.15)" fill="#09f"/>
      <path id="Trazado_8930" data-name="Trazado 8930" d="M144.936,106.106l.579.222.009,0a1.419,1.419,0,0,1-1.008,2.654l-.6-.223a1.422,1.422,0,0,1,1-2.662l.008,0Z" transform="translate(37.38 27.71)" fill="#09f"/>
      <path id="Trazado_8931" data-name="Trazado 8931" d="M150.022,107.879l.592.183.008,0a1.4,1.4,0,0,1-.82,2.68l-.609-.185a1.4,1.4,0,1,1,.814-2.686l.008,0Z" transform="translate(38.738 28.182)" fill="#09f"/>
      <path id="Trazado_8932" data-name="Trazado 8932" d="M155.213,109.318l.6.145h.008a1.383,1.383,0,0,1-.638,2.692l-.621-.145a1.385,1.385,0,0,1,.632-2.7l.008,0Z" transform="translate(40.124 28.565)" fill="#09f"/>
      <path id="Trazado_8933" data-name="Trazado 8933" d="M160.488,110.424l.612.106h.008a1.365,1.365,0,0,1-.459,2.691l-.628-.106a1.366,1.366,0,0,1,.453-2.694h.015Z" transform="translate(41.531 28.859)" fill="#09f"/>
      <path id="Trazado_8934" data-name="Trazado 8934" d="M165.824,111.194l.617.067h.009a1.346,1.346,0,0,1-.284,2.677l-.633-.064a1.348,1.348,0,0,1,.276-2.682h.015Z" transform="translate(42.954 29.064)" fill="#09f"/>
      <path id="Trazado_8935" data-name="Trazado 8935" d="M171.2,111.617l.621.026h.008a1.328,1.328,0,0,1-.106,2.654l-.637-.024a1.329,1.329,0,1,1,.1-2.656h.015Z" transform="translate(44.386 29.176)" fill="#09f"/>
      <path id="Trazado_8936" data-name="Trazado 8936" d="M176.587,111.686l.621-.016h.009a1.31,1.31,0,0,1,.073,2.619l-.637.019a1.311,1.311,0,0,1-.081-2.621h.015Z" transform="translate(45.823 29.19)" fill="#09f"/>
      <path id="Trazado_8937" data-name="Trazado 8937" d="M181.96,111.38l.617-.062h.009a1.291,1.291,0,0,1,.264,2.568l-.634.067a1.293,1.293,0,0,1-.271-2.572h.016Z" transform="translate(47.257 29.097)" fill="#09f"/>
      <path id="Trazado_8938" data-name="Trazado 8938" d="M187.284,110.662l.608-.112h.011a1.272,1.272,0,0,1,.467,2.5l-.628.12a1.275,1.275,0,0,1-.474-2.505h.016Z" transform="translate(48.68 28.892)" fill="#09f"/>
      <path id="Trazado_8939" data-name="Trazado 8939" d="M192.509,109.48l.593-.17.013,0a1.254,1.254,0,0,1,.7,2.409l-.616.18a1.256,1.256,0,1,1-.7-2.412h.006Z" transform="translate(50.08 28.56)" fill="#09f"/>
      <path id="Trazado_8940" data-name="Trazado 8940" d="M197.55,107.761l.565-.238.015-.006a1.236,1.236,0,0,1,.966,2.276l-.593.254a1.238,1.238,0,0,1-.974-2.276l.006,0Z" transform="translate(51.438 28.079)" fill="#09f"/>
      <path id="Trazado_8941" data-name="Trazado 8941" d="M202.268,105.4l.516-.323.018-.01a1.217,1.217,0,0,1,1.3,2.061l-.549.347a1.219,1.219,0,1,1-1.3-2.061l.005,0Z" transform="translate(52.718 27.415)" fill="#09f"/>
      <path id="Trazado_8942" data-name="Trazado 8942" d="M206.4,102.255l.424-.424.02-.02a1.2,1.2,0,0,1,1.7,1.692l-.464.468a1.2,1.2,0,1,1-1.705-1.69l.005-.005Z" transform="translate(53.855 26.521)" fill="#09f"/>
      <path id="Trazado_8943" data-name="Trazado 8943" d="M209.464,98.225l.26-.522.018-.037a1.18,1.18,0,0,1,2.118,1.043l-.291.6a1.182,1.182,0,1,1-2.124-1.039l0-.006Z" transform="translate(54.717 25.358)" fill="#09f"/>
      <path id="Trazado_8944" data-name="Trazado 8944" d="M210.843,93.45l.037-.584,0-.042a1.162,1.162,0,0,1,2.32.135l-.038.67a1.164,1.164,0,0,1-2.324-.131v-.005Z" transform="translate(55.113 23.979)" fill="#09f"/>
      <path id="Trazado_8945" data-name="Trazado 8945" d="M210.371,88.414l-.168-.564-.011-.038a1.144,1.144,0,0,1,2.191-.656l.193.638a1.146,1.146,0,0,1-2.194.662v-.006Z" transform="translate(54.931 22.57)" fill="#09f"/>
      <path id="Trazado_8946" data-name="Trazado 8946" d="M208.144,83.991l-.385-.431-.033-.037a1.126,1.126,0,0,1,1.676-1.5l.452.5a1.127,1.127,0,1,1-1.674,1.509l-.005-.005Z" transform="translate(54.225 21.343)" fill="#09f"/>
      <path id="Trazado_8947" data-name="Trazado 8947" d="M204.192,81.01l-.541-.23-.035-.015a1.108,1.108,0,0,1,.862-2.041l.613.257a1.109,1.109,0,0,1-.858,2.046l-.005,0Z" transform="translate(53.049 20.556)" fill="#09f"/>
      <path id="Trazado_8948" data-name="Trazado 8948" d="M199.248,79.713l-.6-.052h-.025a1.089,1.089,0,0,1,.179-2.171l.647.052a1.091,1.091,0,0,1-.174,2.175h-.008Z" transform="translate(51.66 20.254)" fill="#09f"/>
      <path id="Trazado_8949" data-name="Trazado 8949" d="M194.021,79.8l-.6.082-.018,0a1.07,1.07,0,0,1-.3-2.12l.64-.091a1.072,1.072,0,1,1,.3,2.123h-.006Z" transform="translate(50.237 20.302)" fill="#09f"/>
      <path id="Trazado_8950" data-name="Trazado 8950" d="M188.846,80.932l-.584.185-.014.005a1.053,1.053,0,0,1-.643-2l.612-.2a1.054,1.054,0,0,1,.65,2.006h-.006Z" transform="translate(48.849 20.616)" fill="#09f"/>
      <path id="Trazado_8951" data-name="Trazado 8951" d="M183.891,82.887l-.545.27-.013.006a1.034,1.034,0,0,1-.925-1.849l.569-.286a1.036,1.036,0,0,1,.931,1.85l-.005,0Z" transform="translate(47.533 21.152)" fill="#09f"/>
      <path id="Trazado_8952" data-name="Trazado 8952" d="M179.285,85.56l-.5.349-.013.008a1.015,1.015,0,0,1-1.168-1.661l.52-.367a1.017,1.017,0,0,1,1.176,1.66l-.005,0Z" transform="translate(46.314 21.879)" fill="#09f"/>
      <path id="Trazado_8953" data-name="Trazado 8953" d="M175.144,88.9l-.439.426-.011.011a1,1,0,0,1-1.394-1.427l.459-.45a1,1,0,0,1,1.4,1.425l0,0Z" transform="translate(45.222 22.788)" fill="#09f"/>
      <path id="Trazado_8954" data-name="Trazado 8954" d="M171.629,92.88l-.353.5-.01.014a.979.979,0,0,1-1.6-1.13l.371-.527a.98.98,0,1,1,1.6,1.129l0,0Z" transform="translate(44.304 23.87)" fill="#09f"/>
      <path id="Trazado_8955" data-name="Trazado 8955" d="M168.951,97.432l-.242.556-.008.018a.96.96,0,0,1-1.763-.761l.255-.594a.962.962,0,0,1,1.768.758l0,.005Z" transform="translate(43.617 25.112)" fill="#09f"/>
      <path id="Trazado_8956" data-name="Trazado 8956" d="M167.33,102.43l-.109.6,0,.02a.942.942,0,0,1-1.854-.332l.112-.636a.944.944,0,0,1,1.859.327v.005Z" transform="translate(43.222 26.479)" fill="#09f"/>
      <path id="Trazado_8957" data-name="Trazado 8957" d="M166.918,107.66l.033.607v.019a.924.924,0,0,1-1.844.1l-.039-.645a.926.926,0,0,1,1.848-.11v.024Z" transform="translate(43.148 27.908)" fill="#09f"/>
      <path id="Trazado_8958" data-name="Trazado 8958" d="M167.715,112.87l.16.59.005.015a.905.905,0,0,1-1.746.481l-.173-.619a.907.907,0,1,1,1.748-.487v.005Z" transform="translate(43.373 29.325)" fill="#09f"/>
      <path id="Trazado_8959" data-name="Trazado 8959" d="M169.527,117.859l.262.552.005.013a.887.887,0,0,1-1.6.763l-.276-.574a.889.889,0,0,1,1.6-.769l0,0Z" transform="translate(43.87 30.672)" fill="#09f"/>
      <path id="Trazado_8960" data-name="Trazado 8960" d="M172.127,122.525l.341.516.005.009a.868.868,0,0,1-1.447.96l-.354-.531a.87.87,0,0,1,1.448-.966l0,.005Z" transform="translate(44.575 31.923)" fill="#09f"/>
      <path id="Trazado_8961" data-name="Trazado 8961" d="M175.32,126.845l.4.473.006.008a.851.851,0,0,1-1.3,1.1l-.415-.486a.852.852,0,0,1,1.294-1.109l0,0Z" transform="translate(45.434 33.076)" fill="#09f"/>
      <path id="Trazado_8962" data-name="Trazado 8962" d="M179.018,130.732l.458.416.008.006a.832.832,0,0,1-1.115,1.235l-.476-.428a.833.833,0,1,1,1.114-1.24l0,0Z" transform="translate(46.429 34.115)" fill="#09f"/>
      <path id="Trazado_8963" data-name="Trazado 8963" d="M183.2,134.083l.511.348.009.006a.814.814,0,0,1-.913,1.347l-.53-.358a.815.815,0,1,1,.911-1.351h0Z" transform="translate(47.554 35.01)" fill="#09f"/>
      <path id="Trazado_8964" data-name="Trazado 8964" d="M187.815,136.816l.555.274.009.005a.8.8,0,0,1-.7,1.428l-.574-.28a.8.8,0,1,1,.7-1.433l0,0Z" transform="translate(48.792 35.741)" fill="#09f"/>
      <path id="Trazado_8965" data-name="Trazado 8965" d="M192.765,138.892l.588.2.009,0a.777.777,0,0,1-.492,1.473l-.605-.2a.778.778,0,0,1,.488-1.478h0Z" transform="translate(50.118 36.295)" fill="#09f"/>
      <path id="Trazado_8966" data-name="Trazado 8966" d="M197.954,140.313l.608.124h.009a.759.759,0,0,1-.3,1.488l-.624-.125a.76.76,0,1,1,.3-1.491h.011Z" transform="translate(51.505 36.673)" fill="#09f"/>
      <path id="Trazado_8967" data-name="Trazado 8967" d="M203.288,141.116l.619.055h.008a.74.74,0,0,1-.13,1.475l-.633-.054a.742.742,0,0,1,.125-1.478h.011Z" transform="translate(52.926 36.886)" fill="#09f"/>
      <path id="Trazado_8968" data-name="Trazado 8968" d="M208.689,141.359l.623,0a.722.722,0,1,1,.02,1.443l-.636.008a.723.723,0,0,1-.018-1.447Z" transform="translate(54.362 36.95)" fill="#09f"/>
      <path id="Trazado_8969" data-name="Trazado 8969" d="M214.1,141.116l.622-.058a.7.7,0,1,1,.139,1.4l-.631.062a.705.705,0,0,1-.139-1.4Z" transform="translate(55.797 36.871)" fill="#09f"/>
      <path id="Trazado_8970" data-name="Trazado 8970" d="M219.485,140.429l.617-.106a.685.685,0,1,1,.24,1.35l-.626.11a.687.687,0,1,1-.238-1.352Z" transform="translate(57.223 36.677)" fill="#09f"/>
      <path id="Trazado_8971" data-name="Trazado 8971" d="M224.807,139.346l.609-.149a.667.667,0,1,1,.325,1.293l-.617.154a.668.668,0,0,1-.325-1.3Z" transform="translate(58.63 36.38)" fill="#09f"/>
      <path id="Trazado_8972" data-name="Trazado 8972" d="M230.046,137.895l.6-.192a.646.646,0,0,1,.817.414.653.653,0,0,1-.415.819l-.607.2a.65.65,0,0,1-.4-1.236Z" transform="translate(60.015 35.987)" fill="#09f"/>
      <path id="Trazado_8973" data-name="Trazado 8973" d="M235.193,136.017l.274-.117.014-.006a.63.63,0,0,1,.5,1.157l-.294.13a.631.631,0,1,1-.506-1.157l0,0Z" transform="translate(61.377 35.509)" fill="#09f"/>
      <path id="Trazado_8974" data-name="Trazado 8974" d="M65.281,39.371,83.565,8.207,93.171,18.24Z" transform="translate(17.064 2.145)" fill="#09f"/>
      <path id="Trazado_8975" data-name="Trazado 8975" d="M48.164,47.617,25.631,86.429,13.645,74.022Z" transform="translate(3.567 12.447)" fill="#09f"/>
      <path id="Trazado_8976" data-name="Trazado 8976" d="M51.419,53.105l8.32,35.16-13.875-.614Z" transform="translate(11.989 13.882)" fill="#09f"/>
      <path id="Trazado_8977" data-name="Trazado 8977" d="M74.881,39.644l20.541-7.919.772,8.427Z" transform="translate(19.574 8.293)" fill="#09f"/>
    </g>
  </g>
</svg>
