<svg xmlns="http://www.w3.org/2000/svg" width="60" height="60" viewBox="0 0 60 60"><defs><style>.a{fill:#eef9ed;}.b{fill:#cee6ad;}.c{fill:none;stroke:#002744;stroke-linecap:round;stroke-miterlimit:10;stroke-width:0.75px;}.d{fill:#002744;}.e{fill:#ff895a;}.f{fill:#fe5000;}</style></defs><path class="a" d="M8.571,0H51.428A8.572,8.572,0,0,1,60,8.571V51.429A8.572,8.572,0,0,1,51.428,60H8.571A8.571,8.571,0,0,1,0,51.429V8.571A8.571,8.571,0,0,1,8.571,0"/><path class="b" d="M49.547,30.189v3.089h-.939V54.032h3.123a2.993,2.993,0,0,0,2.992-2.992V30.189Z"/><path class="c" d="M54.66,31.965V51.041A3.063,3.063,0,0,1,51.6,54.1H37.237V33.471"/><line class="c" y2="20.633" transform="translate(48.516 33.471)"/><line class="c" x2="11.278" transform="translate(37.237 39.277)"/><line class="c" x2="11.278" transform="translate(37.237 45.148)"/><path class="d" d="M43.429,36.374a.933.933,0,1,1-.932-.932.932.932,0,0,1,.932.932"/><path class="d" d="M43.429,42.213a.933.933,0,1,1-.932-.932.932.932,0,0,1,.932.932"/><path class="d" d="M43.429,48.472a.933.933,0,1,1-.932-.932.932.932,0,0,1,.932.932"/><rect class="c" width="37.302" height="3.012" rx="0.786" transform="translate(17.329 30.338)"/><path class="c" d="M48.717,30.339a.786.786,0,0,1,.786.786v1.44a.786.786,0,0,1-.786.786"/><rect class="e" width="27.455" height="19.451" transform="translate(24.787 5.896)"/><rect class="e" width="4.379" height="2.47" transform="translate(35.786 25.635)"/><rect class="e" width="5.013" height="1.72" transform="translate(29.658 28.43)"/><path class="f" d="M42.5,25.344H40.56l-.2,2.9-5.6.315-.092,1.711,6.915-.124.638-.86H42.5Z"/><rect class="f" width="2.884" height="19.244" transform="translate(49.502 6.104)"/><path class="f" d="M26.36,21.833,37.553,6.1H40.73L29.677,21.833Z"/><path class="f" d="M42.645,6.1h3.163L35.786,15.853Z"/><path class="f" d="M24.642,16.712v4.206h.668L35.786,6.1H31.955Z"/><rect class="c" width="27.744" height="19.608" rx="1" transform="translate(24.642 5.896)"/><path class="c" d="M51.038,5.9c-1.052,0-1.379.531-1.379,1.185V24.319A1.186,1.186,0,0,1,48.473,25.5"/><path class="c" d="M40.441,25.5v2.6a.179.179,0,0,1-.179.179H35.54a1.028,1.028,0,0,0,0,2.055h5.2A1.757,1.757,0,0,0,42.5,28.582V25.5Z"/><line class="c" y2="2.601" transform="translate(35.786 25.504)"/><path class="c" d="M38.006,28.283H30.542a1.027,1.027,0,1,0,0,2.055h7.643"/><path class="c" d="M34.251,21.816H52.1"/><line class="c" x2="0.686" transform="translate(31.163 21.834)"/><line class="c" x2="4.699" transform="translate(24.642 21.816)"/><rect class="e" width="1.814" height="2.086" transform="translate(4.843 51.641)"/><rect class="e" width="1.814" height="2.086" transform="translate(14.825 51.641)"/><rect class="e" width="1.814" height="2.086" transform="translate(20.594 51.641)"/><rect class="e" width="2.027" height="6.149" transform="translate(12.634 43.496)"/><rect class="e" width="16.564" height="1.559" transform="translate(4.929 48.285)"/><path class="e" d="M13.1,34.45h2.161a2.58,2.58,0,0,0,2.58-2.579v-11.4a3.189,3.189,0,0,0-3.19-3.189h-.466a5.564,5.564,0,0,0-5.565,5.565V29.97a4.48,4.48,0,0,0,4.48,4.48"/><path class="e" d="M9.026,43.332h9.2a2.283,2.283,0,0,0,2.283-2.283v-.761a2.283,2.283,0,0,0-2.283-2.283h-9.2a2.283,2.283,0,0,0-2.283,2.283v.761a2.283,2.283,0,0,0,2.283,2.283"/><path class="e" d="M6.743,40.927V27.939A3.745,3.745,0,0,1,8.62,24.693V38.934L6.778,41.28Z"/><path class="f" d="M14.882,17.517a5.388,5.388,0,0,1,.72,3.5l-.116,12.649-.362.779s2.631.13,2.631-1.94V19.758c0-1.523-2.873-2.241-2.873-2.241"/><path class="f" d="M16.71,38.371a3.4,3.4,0,0,1,3.441.563c.593.814,1.1,4.353-1.721,4.375-1.691.022-1.49-.238-1.331-1.1a7.217,7.217,0,0,0-.389-3.842"/><path class="c" d="M13.1,34.45h2.161a2.58,2.58,0,0,0,2.58-2.579v-11.4a3.189,3.189,0,0,0-3.19-3.189h-.466a5.564,5.564,0,0,0-5.565,5.565V29.97A4.48,4.48,0,0,0,13.1,34.45Z"/><path class="c" d="M14.163,17.287c1.2,0,1.439,1.423,1.439,2.372V32.885c0,1-.359,1.565-1.439,1.565"/><rect class="c" width="13.765" height="5.327" rx="2.283" transform="translate(6.743 38.004)"/><path class="c" d="M16.124,38.005c1.564,0,1.564,5.327,0,5.327"/><path class="c" d="M8.62,24.693h0a3.745,3.745,0,0,0-1.877,3.245V40.927"/><line class="c" y2="9.265" transform="translate(8.64 28.793)"/><path class="c" d="M5.3,50.055H21.125a.651.651,0,0,0,.651-.651v-.1a1.239,1.239,0,0,0-1.24-1.239H5.886A1.239,1.239,0,0,0,4.647,49.3v.1A.651.651,0,0,0,5.3,50.055Z"/><path class="c" d="M1.047,0h.111A1.048,1.048,0,0,1,2.206,1.048v.533A1.047,1.047,0,0,1,1.159,2.628H1.047A1.047,1.047,0,0,1,0,1.581V1.047A1.047,1.047,0,0,1,1.047,0Z" transform="translate(20.399 51.369)"/><path class="c" d="M1.047,0h.111A1.048,1.048,0,0,1,2.206,1.048v.533A1.047,1.047,0,0,1,1.159,2.628H1.047A1.047,1.047,0,0,1,0,1.581V1.047A1.047,1.047,0,0,1,1.047,0Z" transform="translate(14.65 51.369)"/><path class="c" d="M1.047,0h.111A1.048,1.048,0,0,1,2.206,1.048v.533A1.047,1.047,0,0,1,1.159,2.628H1.047A1.047,1.047,0,0,1,0,1.581V1.047A1.047,1.047,0,0,1,1.047,0Z" transform="translate(4.647 51.369)"/><rect class="c" width="2.206" height="4.733" transform="translate(12.523 43.332)"/><line class="c" y2="16.533" transform="translate(21.814 33.625)"/><line class="c" y1="1.247" transform="translate(21.814 50.156)"/><path class="c" d="M18.955,50.269v3.643h2.076"/><line class="c" y2="4.569" transform="translate(18.956 43.496)"/><line class="c" y2="4.534" transform="translate(18.956 33.471)"/></svg>