<svg id="Illustration_office" xmlns="http://www.w3.org/2000/svg" width="60" height="60" viewBox="0 0 60 60">
  <g id="Grupo_2390" data-name="Grupo 2390" transform="translate(-870 -342)">
    <path id="Trazado_17774" data-name="Trazado 17774" d="M8.571,0H51.428A8.572,8.572,0,0,1,60,8.571V51.429A8.572,8.572,0,0,1,51.428,60H8.571A8.571,8.571,0,0,1,0,51.429V8.571A8.571,8.571,0,0,1,8.571,0" transform="translate(870 342)" fill="#eef9ed"/>
    <path id="Trazado_17775" data-name="Trazado 17775" d="M49.547,30.189v3.089h-.939V54.032h3.123a2.993,2.993,0,0,0,2.992-2.992V30.189Z" transform="translate(870 342)" fill="#cee6ad"/>
    <path id="Trazado_17776" data-name="Trazado 17776" d="M54.66,31.965V51.041A3.063,3.063,0,0,1,51.6,54.1H37.237V33.471" transform="translate(870 342)" fill="none" stroke="#002744" stroke-linecap="round" stroke-miterlimit="10" stroke-width="0.75"/>
    <line id="Línea_5996" data-name="Línea 5996" y2="20.633" transform="translate(918.516 375.471)" fill="none" stroke="#002744" stroke-linecap="round" stroke-miterlimit="10" stroke-width="0.75"/>
    <line id="Línea_5997" data-name="Línea 5997" x2="11.278" transform="translate(907.237 381.277)" fill="none" stroke="#002744" stroke-linecap="round" stroke-miterlimit="10" stroke-width="0.75"/>
    <line id="Línea_5998" data-name="Línea 5998" x2="11.278" transform="translate(907.237 387.148)" fill="none" stroke="#002744" stroke-linecap="round" stroke-miterlimit="10" stroke-width="0.75"/>
    <path id="Trazado_17777" data-name="Trazado 17777" d="M43.429,36.374a.933.933,0,1,1-.932-.932.932.932,0,0,1,.932.932" transform="translate(870 342)" fill="#002744"/>
    <path id="Trazado_17778" data-name="Trazado 17778" d="M43.429,42.213a.933.933,0,1,1-.932-.932.932.932,0,0,1,.932.932" transform="translate(870 342)" fill="#002744"/>
    <path id="Trazado_17779" data-name="Trazado 17779" d="M43.429,48.472a.933.933,0,1,1-.932-.932.932.932,0,0,1,.932.932" transform="translate(870 342)" fill="#002744"/>
    <rect id="Rectángulo_3397" data-name="Rectángulo 3397" width="37.302" height="3.012" rx="0.786" transform="translate(887.329 372.338)" fill="none" stroke="#002744" stroke-linecap="round" stroke-miterlimit="10" stroke-width="0.75"/>
    <path id="Trazado_17780" data-name="Trazado 17780" d="M48.717,30.339a.786.786,0,0,1,.786.786v1.44a.786.786,0,0,1-.786.786" transform="translate(870 342)" fill="none" stroke="#002744" stroke-linecap="round" stroke-miterlimit="10" stroke-width="0.75"/>
    <rect id="Rectángulo_3398" data-name="Rectángulo 3398" width="27.455" height="19.451" transform="translate(894.787 347.896)" fill="#ff895a"/>
    <rect id="Rectángulo_3399" data-name="Rectángulo 3399" width="4.379" height="2.47" transform="translate(905.786 367.635)" fill="#ff895a"/>
    <rect id="Rectángulo_3400" data-name="Rectángulo 3400" width="5.013" height="1.72" transform="translate(899.658 370.43)" fill="#ff895a"/>
    <path id="Trazado_17781" data-name="Trazado 17781" d="M42.5,25.344H40.56l-.2,2.9-5.6.315-.092,1.711,6.915-.124.638-.86H42.5Z" transform="translate(870 342)" fill="#fe5000"/>
    <rect id="Rectángulo_3401" data-name="Rectángulo 3401" width="2.884" height="19.244" transform="translate(919.502 348.104)" fill="#fe5000"/>
    <path id="Trazado_17782" data-name="Trazado 17782" d="M26.36,21.833,37.553,6.1H40.73L29.677,21.833Z" transform="translate(870 342)" fill="#fe5000"/>
    <path id="Trazado_17783" data-name="Trazado 17783" d="M42.645,6.1h3.163L35.786,15.853Z" transform="translate(870 342)" fill="#fe5000"/>
    <path id="Trazado_17784" data-name="Trazado 17784" d="M24.642,16.712v4.206h.668L35.786,6.1H31.955Z" transform="translate(870 342)" fill="#fe5000"/>
    <rect id="Rectángulo_3402" data-name="Rectángulo 3402" width="27.744" height="19.608" rx="1" transform="translate(894.642 347.896)" fill="none" stroke="#002744" stroke-linecap="round" stroke-miterlimit="10" stroke-width="0.75"/>
    <path id="Trazado_17785" data-name="Trazado 17785" d="M51.038,5.9c-1.052,0-1.379.531-1.379,1.185V24.319A1.186,1.186,0,0,1,48.473,25.5" transform="translate(870 342)" fill="none" stroke="#002744" stroke-linecap="round" stroke-miterlimit="10" stroke-width="0.75"/>
    <path id="Trazado_17786" data-name="Trazado 17786" d="M40.441,25.5v2.6a.179.179,0,0,1-.179.179H35.54a1.028,1.028,0,0,0,0,2.055h5.2A1.757,1.757,0,0,0,42.5,28.582V25.5Z" transform="translate(870 342)" fill="none" stroke="#002744" stroke-linecap="round" stroke-miterlimit="10" stroke-width="0.75"/>
    <line id="Línea_5999" data-name="Línea 5999" y2="2.601" transform="translate(905.786 367.504)" fill="none" stroke="#002744" stroke-linecap="round" stroke-miterlimit="10" stroke-width="0.75"/>
    <path id="Trazado_17787" data-name="Trazado 17787" d="M38.006,28.283H30.542a1.027,1.027,0,1,0,0,2.055h7.643" transform="translate(870 342)" fill="none" stroke="#002744" stroke-linecap="round" stroke-miterlimit="10" stroke-width="0.75"/>
    <path id="Trazado_17788" data-name="Trazado 17788" d="M34.251,21.816H52.1" transform="translate(870 342)" fill="none" stroke="#002744" stroke-linecap="round" stroke-miterlimit="10" stroke-width="0.75"/>
    <line id="Línea_6000" data-name="Línea 6000" x2="0.686" transform="translate(901.163 363.834)" fill="none" stroke="#002744" stroke-linecap="round" stroke-miterlimit="10" stroke-width="0.75"/>
    <line id="Línea_6001" data-name="Línea 6001" x2="4.699" transform="translate(894.642 363.816)" fill="none" stroke="#002744" stroke-linecap="round" stroke-miterlimit="10" stroke-width="0.75"/>
    <rect id="Rectángulo_3403" data-name="Rectángulo 3403" width="1.814" height="2.086" transform="translate(874.843 393.641)" fill="#ff895a"/>
    <rect id="Rectángulo_3404" data-name="Rectángulo 3404" width="1.814" height="2.086" transform="translate(884.825 393.641)" fill="#ff895a"/>
    <rect id="Rectángulo_3405" data-name="Rectángulo 3405" width="1.814" height="2.086" transform="translate(890.594 393.641)" fill="#ff895a"/>
    <rect id="Rectángulo_3406" data-name="Rectángulo 3406" width="2.027" height="6.149" transform="translate(882.634 385.496)" fill="#ff895a"/>
    <rect id="Rectángulo_3407" data-name="Rectángulo 3407" width="16.564" height="1.559" transform="translate(874.929 390.285)" fill="#ff895a"/>
    <path id="Trazado_17789" data-name="Trazado 17789" d="M13.1,34.45h2.161a2.58,2.58,0,0,0,2.58-2.579v-11.4a3.189,3.189,0,0,0-3.19-3.189h-.466a5.564,5.564,0,0,0-5.565,5.565V29.97a4.48,4.48,0,0,0,4.48,4.48" transform="translate(870 342)" fill="#ff895a"/>
    <path id="Trazado_17790" data-name="Trazado 17790" d="M9.026,43.332h9.2a2.283,2.283,0,0,0,2.283-2.283v-.761a2.283,2.283,0,0,0-2.283-2.283h-9.2a2.283,2.283,0,0,0-2.283,2.283v.761a2.283,2.283,0,0,0,2.283,2.283" transform="translate(870 342)" fill="#ff895a"/>
    <path id="Trazado_17791" data-name="Trazado 17791" d="M6.743,40.927V27.939A3.745,3.745,0,0,1,8.62,24.693V38.934L6.778,41.28Z" transform="translate(870 342)" fill="#ff895a"/>
    <path id="Trazado_17792" data-name="Trazado 17792" d="M14.882,17.517a5.388,5.388,0,0,1,.72,3.5l-.116,12.649-.362.779s2.631.13,2.631-1.94V19.758c0-1.523-2.873-2.241-2.873-2.241" transform="translate(870 342)" fill="#fe5000"/>
    <path id="Trazado_17793" data-name="Trazado 17793" d="M16.71,38.371a3.4,3.4,0,0,1,3.441.563c.593.814,1.1,4.353-1.721,4.375-1.691.022-1.49-.238-1.331-1.1a7.217,7.217,0,0,0-.389-3.842" transform="translate(870 342)" fill="#fe5000"/>
    <path id="Trazado_17794" data-name="Trazado 17794" d="M13.1,34.45h2.161a2.58,2.58,0,0,0,2.58-2.579v-11.4a3.189,3.189,0,0,0-3.19-3.189h-.466a5.564,5.564,0,0,0-5.565,5.565V29.97A4.48,4.48,0,0,0,13.1,34.45Z" transform="translate(870 342)" fill="none" stroke="#002744" stroke-linecap="round" stroke-miterlimit="10" stroke-width="0.75"/>
    <path id="Trazado_17795" data-name="Trazado 17795" d="M14.163,17.287c1.2,0,1.439,1.423,1.439,2.372V32.885c0,1-.359,1.565-1.439,1.565" transform="translate(870 342)" fill="none" stroke="#002744" stroke-linecap="round" stroke-miterlimit="10" stroke-width="0.75"/>
    <rect id="Rectángulo_3408" data-name="Rectángulo 3408" width="13.765" height="5.327" rx="2.283" transform="translate(876.743 380.004)" fill="none" stroke="#002744" stroke-linecap="round" stroke-miterlimit="10" stroke-width="0.75"/>
    <path id="Trazado_17796" data-name="Trazado 17796" d="M16.124,38.005c1.564,0,1.564,5.327,0,5.327" transform="translate(870 342)" fill="none" stroke="#002744" stroke-linecap="round" stroke-miterlimit="10" stroke-width="0.75"/>
    <path id="Trazado_17797" data-name="Trazado 17797" d="M8.62,24.693h0a3.745,3.745,0,0,0-1.877,3.245V40.927" transform="translate(870 342)" fill="none" stroke="#002744" stroke-linecap="round" stroke-miterlimit="10" stroke-width="0.75"/>
    <line id="Línea_6002" data-name="Línea 6002" y2="9.265" transform="translate(878.64 370.793)" fill="none" stroke="#002744" stroke-linecap="round" stroke-miterlimit="10" stroke-width="0.75"/>
    <path id="Trazado_17798" data-name="Trazado 17798" d="M5.3,50.055H21.125a.651.651,0,0,0,.651-.651v-.1a1.239,1.239,0,0,0-1.24-1.239H5.886A1.239,1.239,0,0,0,4.647,49.3v.1A.651.651,0,0,0,5.3,50.055Z" transform="translate(870 342)" fill="none" stroke="#002744" stroke-linecap="round" stroke-miterlimit="10" stroke-width="0.75"/>
    <path id="Rectángulo_3409" data-name="Rectángulo 3409" d="M1.047,0h.111A1.048,1.048,0,0,1,2.206,1.048v.533A1.047,1.047,0,0,1,1.159,2.628H1.047A1.047,1.047,0,0,1,0,1.581V1.047A1.047,1.047,0,0,1,1.047,0Z" transform="translate(890.399 393.369)" fill="none" stroke="#002744" stroke-linecap="round" stroke-miterlimit="10" stroke-width="0.75"/>
    <path id="Rectángulo_3410" data-name="Rectángulo 3410" d="M1.047,0h.111A1.048,1.048,0,0,1,2.206,1.048v.533A1.047,1.047,0,0,1,1.159,2.628H1.047A1.047,1.047,0,0,1,0,1.581V1.047A1.047,1.047,0,0,1,1.047,0Z" transform="translate(884.65 393.369)" fill="none" stroke="#002744" stroke-linecap="round" stroke-miterlimit="10" stroke-width="0.75"/>
    <path id="Rectángulo_3411" data-name="Rectángulo 3411" d="M1.047,0h.111A1.048,1.048,0,0,1,2.206,1.048v.533A1.047,1.047,0,0,1,1.159,2.628H1.047A1.047,1.047,0,0,1,0,1.581V1.047A1.047,1.047,0,0,1,1.047,0Z" transform="translate(874.647 393.369)" fill="none" stroke="#002744" stroke-linecap="round" stroke-miterlimit="10" stroke-width="0.75"/>
    <rect id="Rectángulo_3412" data-name="Rectángulo 3412" width="2.206" height="4.733" transform="translate(882.523 385.332)" fill="none" stroke="#002744" stroke-linecap="round" stroke-miterlimit="10" stroke-width="0.75"/>
    <line id="Línea_6003" data-name="Línea 6003" y2="16.533" transform="translate(891.814 375.625)" fill="none" stroke="#002744" stroke-linecap="round" stroke-miterlimit="10" stroke-width="0.75"/>
    <line id="Línea_6004" data-name="Línea 6004" y1="1.247" transform="translate(891.814 392.156)" fill="none" stroke="#002744" stroke-linecap="round" stroke-miterlimit="10" stroke-width="0.75"/>
    <path id="Trazado_17799" data-name="Trazado 17799" d="M18.955,50.269v3.643h2.076" transform="translate(870 342)" fill="none" stroke="#002744" stroke-linecap="round" stroke-miterlimit="10" stroke-width="0.75"/>
    <line id="Línea_6005" data-name="Línea 6005" y2="4.569" transform="translate(888.956 385.496)" fill="none" stroke="#002744" stroke-linecap="round" stroke-miterlimit="10" stroke-width="0.75"/>
    <line id="Línea_6006" data-name="Línea 6006" y2="4.534" transform="translate(888.956 375.471)" fill="none" stroke="#002744" stroke-linecap="round" stroke-miterlimit="10" stroke-width="0.75"/>
  </g>
</svg>
