<svg id="Illustration_Fabric" xmlns="http://www.w3.org/2000/svg" width="60.19" height="60" viewBox="0 0 60.19 60">
  <g id="Grupo_2398" data-name="Grupo 2398" transform="translate(-837 -398)">
    <path id="Trazado_17875" data-name="Trazado 17875" d="M8.571,0H51.428A8.572,8.572,0,0,1,60,8.571V51.429A8.572,8.572,0,0,1,51.428,60H8.571A8.571,8.571,0,0,1,0,51.429V8.571A8.571,8.571,0,0,1,8.571,0" transform="translate(837 398)" fill="#eef9ed"/>
    <path id="Trazado_17876" data-name="Trazado 17876" d="M50.178,33.3v11.95a1.319,1.319,0,0,1-1.321,1.32h-13.7a1.311,1.311,0,0,1-1.311-1.32V33.3a1.311,1.311,0,0,1,1.311-1.32h13.7a1.319,1.319,0,0,1,1.321,1.32" transform="translate(837 398)" fill="#ff895a"/>
    <path id="Trazado_17877" data-name="Trazado 17877" d="M50.178,33.3v11.95a1.319,1.319,0,0,1-1.321,1.32h-3.19V31.982h3.19a1.319,1.319,0,0,1,1.321,1.32" transform="translate(837 398)" fill="#fe5000"/>
    <path id="Trazado_17878" data-name="Trazado 17878" d="M26.154,32.6,22.469,42a1.331,1.331,0,0,1-1.719.748L8,37.751a1.32,1.32,0,0,1-.742-1.706l4.367-11.132a1.315,1.315,0,0,1,1.7-.754L23.111,28l2.737,1.081L22.7,33.952l.163.725.521.392.832-.1Z" transform="translate(837 398)" fill="#ff895a"/>
    <path id="Trazado_17879" data-name="Trazado 17879" d="M26.154,32.6,22.469,42a1.331,1.331,0,0,1-1.719.748L17.789,41.58,23.111,28l2.737,1.081L22.7,33.952l.163.725.521.392.832-.1Z" transform="translate(837 398)" fill="#fe5000"/>
    <path id="Trazado_17880" data-name="Trazado 17880" d="M41.1,46.569c4.8,0,3.858,6.594.215,6.594H52.67a3.3,3.3,0,1,0,0-6.594Z" transform="translate(837 398)" fill="#cee6ad"/>
    <path id="Trazado_17881" data-name="Trazado 17881" d="M18.839,46.569H41.1a3.3,3.3,0,1,1,0,6.594H8.777a3.3,3.3,0,1,1,0-6.594h4.537" transform="translate(837 398)" fill="none" stroke="#002744" stroke-linecap="round" stroke-miterlimit="10" stroke-width="0.75"/>
    <line id="Línea_6034" data-name="Línea 6034" x2="1.374" transform="translate(852.75 444.568)" fill="none" stroke="#002744" stroke-linecap="round" stroke-miterlimit="10" stroke-width="0.75"/>
    <path id="Trazado_17882" data-name="Trazado 17882" d="M30.9,46.569H52.67a3.3,3.3,0,1,1,0,6.594H30.9" transform="translate(837 398)" fill="none" stroke="#002744" stroke-linecap="round" stroke-miterlimit="10" stroke-width="0.75"/>
    <path id="Trazado_17883" data-name="Trazado 17883" d="M12.627,49.866a1.833,1.833,0,1,1-1.834-1.834A1.834,1.834,0,0,1,12.627,49.866Z" transform="translate(837 398)" fill="none" stroke="#002744" stroke-linecap="round" stroke-miterlimit="10" stroke-width="0.75"/>
    <path id="Trazado_17884" data-name="Trazado 17884" d="M19.7,49.866a1.833,1.833,0,1,1-1.834-1.834A1.834,1.834,0,0,1,19.7,49.866Z" transform="translate(837 398)" fill="none" stroke="#002744" stroke-linecap="round" stroke-miterlimit="10" stroke-width="0.75"/>
    <path id="Trazado_17885" data-name="Trazado 17885" d="M26.771,49.866a1.833,1.833,0,1,1-1.834-1.834A1.834,1.834,0,0,1,26.771,49.866Z" transform="translate(837 398)" fill="none" stroke="#002744" stroke-linecap="round" stroke-miterlimit="10" stroke-width="0.75"/>
    <path id="Trazado_17886" data-name="Trazado 17886" d="M33.843,49.866a1.833,1.833,0,1,1-1.834-1.834A1.834,1.834,0,0,1,33.843,49.866Z" transform="translate(837 398)" fill="none" stroke="#002744" stroke-linecap="round" stroke-miterlimit="10" stroke-width="0.75"/>
    <path id="Trazado_17887" data-name="Trazado 17887" d="M40.915,49.866a1.833,1.833,0,1,1-1.834-1.834A1.834,1.834,0,0,1,40.915,49.866Z" transform="translate(837 398)" fill="none" stroke="#002744" stroke-linecap="round" stroke-miterlimit="10" stroke-width="0.75"/>
    <rect id="Rectángulo_3422" data-name="Rectángulo 3422" width="16.331" height="14.585" rx="1.287" transform="translate(870.843 429.984)" fill="none" stroke="#002744" stroke-linecap="round" stroke-miterlimit="10" stroke-width="0.75"/>
    <line id="Línea_6035" data-name="Línea 6035" y2="14.585" transform="translate(882.897 429.984)" fill="none" stroke="#002744" stroke-linecap="round" stroke-miterlimit="10" stroke-width="0.75"/>
    <rect id="Rectángulo_3423" data-name="Rectángulo 3423" width="2.887" height="3.259" transform="translate(875.427 429.984)" fill="none" stroke="#002744" stroke-linecap="round" stroke-miterlimit="10" stroke-width="0.75"/>
    <path id="Trazado_17888" data-name="Trazado 17888" d="M26.127,32.676l-3.659,9.352a1.287,1.287,0,0,1-1.667.73L7.989,37.745a1.286,1.286,0,0,1-.729-1.667l4.376-11.186a1.286,1.286,0,0,1,1.667-.729L25.922,29.1" transform="translate(837 398)" fill="none" stroke="#002744" stroke-linecap="round" stroke-miterlimit="10" stroke-width="0.75"/>
    <line id="Línea_6036" data-name="Línea 6036" x1="5.314" y2="13.582" transform="translate(855.017 426.086)" fill="none" stroke="#002744" stroke-linecap="round" stroke-miterlimit="10" stroke-width="0.75"/>
    <rect id="Rectángulo_3424" data-name="Rectángulo 3424" width="3.259" height="2.887" transform="translate(852.186 426.4) rotate(-68.633)" fill="none" stroke="#002744" stroke-linecap="round" stroke-miterlimit="10" stroke-width="0.75"/>
    <path id="Trazado_17889" data-name="Trazado 17889" d="M25.455,17.247a2.851,2.851,0,1,1-1.937-3.536A2.851,2.851,0,0,1,25.455,17.247Z" transform="translate(837 398)" fill="none" stroke="#002744" stroke-linecap="round" stroke-miterlimit="10" stroke-width="0.75"/>
    <path id="Trazado_17890" data-name="Trazado 17890" d="M26.9,18.323a2.884,2.884,0,0,0,.243-.584A2.85,2.85,0,0,0,25.2,14.2l-1.686-.493" transform="translate(837 398)" fill="none" stroke="#002744" stroke-linecap="round" stroke-miterlimit="10" stroke-width="0.75"/>
    <path id="Trazado_17891" data-name="Trazado 17891" d="M23.906,16.794a1.237,1.237,0,1,1-.84-1.533A1.238,1.238,0,0,1,23.906,16.794Z" transform="translate(837 398)" fill="none" stroke="#002744" stroke-linecap="round" stroke-miterlimit="10" stroke-width="0.75"/>
    <path id="Trazado_17892" data-name="Trazado 17892" d="M11.664,21.4a1.236,1.236,0,1,1-.84-1.533A1.237,1.237,0,0,1,11.664,21.4Z" transform="translate(837 398)" fill="none" stroke="#002744" stroke-linecap="round" stroke-miterlimit="10" stroke-width="0.75"/>
    <path id="Trazado_17893" data-name="Trazado 17893" d="M30.612,26.936a1.236,1.236,0,1,1-.84-1.533A1.237,1.237,0,0,1,30.612,26.936Z" transform="translate(837 398)" fill="none" stroke="#002744" stroke-linecap="round" stroke-miterlimit="10" stroke-width="0.75"/>
    <line id="Línea_6037" data-name="Línea 6037" y1="5.596" x2="10.886" transform="translate(846.885 412.373)" fill="none" stroke="#002744" stroke-linecap="round" stroke-miterlimit="10" stroke-width="0.75"/>
    <line id="Línea_6038" data-name="Línea 6038" y1="3.052" x2="11.086" transform="translate(847.833 417.184)" fill="none" stroke="#002744" stroke-linecap="round" stroke-miterlimit="10" stroke-width="0.75"/>
    <line id="Línea_6039" data-name="Línea 6039" x2="7.059" y2="8.295" transform="translate(858.301 416.916)" fill="none" stroke="#002744" stroke-linecap="round" stroke-miterlimit="10" stroke-width="0.75"/>
    <line id="Línea_6040" data-name="Línea 6040" x1="5.202" y1="10.722" transform="translate(862.307 413.271)" fill="none" stroke="#002744" stroke-linecap="round" stroke-miterlimit="10" stroke-width="0.75"/>
    <path id="Trazado_17894" data-name="Trazado 17894" d="M28.326,25.88l-5.447,7.654a1,1,0,0,0,1.6,1.206l5.8-7.264" transform="translate(837 398)" fill="none" stroke="#002744" stroke-linecap="round" stroke-miterlimit="10" stroke-width="0.75"/>
    <line id="Línea_6041" data-name="Línea 6041" x1="0.302" y1="3.247" transform="translate(848.711 419.125)" fill="none" stroke="#002744" stroke-linecap="round" stroke-miterlimit="10" stroke-width="0.75"/>
    <line id="Línea_6042" data-name="Línea 6042" x2="0.98" y2="6.955" transform="translate(846.275 419.334)" fill="none" stroke="#002744" stroke-linecap="round" stroke-miterlimit="10" stroke-width="0.75"/>
    <path id="Trazado_17895" data-name="Trazado 17895" d="M21.786,13.706l0-2.55,2.814.005L24.6,13.9" transform="translate(837 398)" fill="none" stroke="#002744" stroke-linecap="round" stroke-miterlimit="10" stroke-width="0.75"/>
    <path id="Trazado_17896" data-name="Trazado 17896" d="M21.8,7.248l0-1.811a.74.74,0,0,1,.742-.738l1.334,0a.74.74,0,0,1,.738.742l0,1.81" transform="translate(837 398)" fill="none" stroke="#002744" stroke-linecap="round" stroke-miterlimit="10" stroke-width="0.75"/>
    <path id="Trazado_17897" data-name="Trazado 17897" d="M24.948,11.161l-3.5-.007a.639.639,0,0,1,0-1.277l3.5.007a.639.639,0,1,1,0,1.277Z" transform="translate(837 398)" fill="none" stroke="#002744" stroke-linecap="round" stroke-miterlimit="10" stroke-width="0.75"/>
    <path id="Trazado_17898" data-name="Trazado 17898" d="M24.953,8.654l-3.5-.007a.639.639,0,0,1,0-1.277l3.5.007a.639.639,0,1,1,0,1.277Z" transform="translate(837 398)" fill="none" stroke="#002744" stroke-linecap="round" stroke-miterlimit="10" stroke-width="0.75"/>
    <path id="Trazado_17899" data-name="Trazado 17899" d="M24.6,9.76,21.8,9.755a.492.492,0,0,1,0-.983l2.794.005a.492.492,0,0,1,0,.983Z" transform="translate(837 398)" fill="none" stroke="#002744" stroke-linecap="round" stroke-miterlimit="10" stroke-width="0.75"/>
  </g>
  <g id="Grupo_2396" data-name="Grupo 2396" transform="translate(-836.81 -398)">
    <path id="Trazado_17875-2" data-name="Trazado 17875" d="M8.571,0H51.428A8.572,8.572,0,0,1,60,8.571V51.429A8.572,8.572,0,0,1,51.428,60H8.571A8.571,8.571,0,0,1,0,51.429V8.571A8.571,8.571,0,0,1,8.571,0" transform="translate(837 398)" fill="#eef9ed"/>
    <path id="Trazado_17876-2" data-name="Trazado 17876" d="M50.178,33.3v11.95a1.319,1.319,0,0,1-1.321,1.32h-13.7a1.311,1.311,0,0,1-1.311-1.32V33.3a1.311,1.311,0,0,1,1.311-1.32h13.7a1.319,1.319,0,0,1,1.321,1.32" transform="translate(837 398)" fill="#ff895a"/>
    <path id="Trazado_17877-2" data-name="Trazado 17877" d="M50.178,33.3v11.95a1.319,1.319,0,0,1-1.321,1.32h-3.19V31.982h3.19a1.319,1.319,0,0,1,1.321,1.32" transform="translate(837 398)" fill="#fe5000"/>
    <path id="Trazado_17878-2" data-name="Trazado 17878" d="M26.154,32.6,22.469,42a1.331,1.331,0,0,1-1.719.748L8,37.751a1.32,1.32,0,0,1-.742-1.706l4.367-11.132a1.315,1.315,0,0,1,1.7-.754L23.111,28l2.737,1.081L22.7,33.952l.163.725.521.392.832-.1Z" transform="translate(837 398)" fill="#ff895a"/>
    <path id="Trazado_17879-2" data-name="Trazado 17879" d="M26.154,32.6,22.469,42a1.331,1.331,0,0,1-1.719.748L17.789,41.58,23.111,28l2.737,1.081L22.7,33.952l.163.725.521.392.832-.1Z" transform="translate(837 398)" fill="#fe5000"/>
    <path id="Trazado_17880-2" data-name="Trazado 17880" d="M41.1,46.569c4.8,0,3.858,6.594.215,6.594H52.67a3.3,3.3,0,1,0,0-6.594Z" transform="translate(837 398)" fill="#cee6ad"/>
    <path id="Trazado_17881-2" data-name="Trazado 17881" d="M18.839,46.569H41.1a3.3,3.3,0,1,1,0,6.594H8.777a3.3,3.3,0,1,1,0-6.594h4.537" transform="translate(837 398)" fill="none" stroke="#002744" stroke-linecap="round" stroke-miterlimit="10" stroke-width="0.75"/>
    <line id="Línea_6034-2" data-name="Línea 6034" x2="1.374" transform="translate(852.75 444.568)" fill="none" stroke="#002744" stroke-linecap="round" stroke-miterlimit="10" stroke-width="0.75"/>
    <path id="Trazado_17882-2" data-name="Trazado 17882" d="M30.9,46.569H52.67a3.3,3.3,0,1,1,0,6.594H30.9" transform="translate(837 398)" fill="none" stroke="#002744" stroke-linecap="round" stroke-miterlimit="10" stroke-width="0.75"/>
    <path id="Trazado_17883-2" data-name="Trazado 17883" d="M12.627,49.866a1.833,1.833,0,1,1-1.834-1.834A1.834,1.834,0,0,1,12.627,49.866Z" transform="translate(837 398)" fill="none" stroke="#002744" stroke-linecap="round" stroke-miterlimit="10" stroke-width="0.75"/>
    <path id="Trazado_17884-2" data-name="Trazado 17884" d="M19.7,49.866a1.833,1.833,0,1,1-1.834-1.834A1.834,1.834,0,0,1,19.7,49.866Z" transform="translate(837 398)" fill="none" stroke="#002744" stroke-linecap="round" stroke-miterlimit="10" stroke-width="0.75"/>
    <path id="Trazado_17885-2" data-name="Trazado 17885" d="M26.771,49.866a1.833,1.833,0,1,1-1.834-1.834A1.834,1.834,0,0,1,26.771,49.866Z" transform="translate(837 398)" fill="none" stroke="#002744" stroke-linecap="round" stroke-miterlimit="10" stroke-width="0.75"/>
    <path id="Trazado_17886-2" data-name="Trazado 17886" d="M33.843,49.866a1.833,1.833,0,1,1-1.834-1.834A1.834,1.834,0,0,1,33.843,49.866Z" transform="translate(837 398)" fill="none" stroke="#002744" stroke-linecap="round" stroke-miterlimit="10" stroke-width="0.75"/>
    <path id="Trazado_17887-2" data-name="Trazado 17887" d="M40.915,49.866a1.833,1.833,0,1,1-1.834-1.834A1.834,1.834,0,0,1,40.915,49.866Z" transform="translate(837 398)" fill="none" stroke="#002744" stroke-linecap="round" stroke-miterlimit="10" stroke-width="0.75"/>
    <rect id="Rectángulo_3422-2" data-name="Rectángulo 3422" width="16.331" height="14.585" rx="1.287" transform="translate(870.843 429.984)" fill="none" stroke="#002744" stroke-linecap="round" stroke-miterlimit="10" stroke-width="0.75"/>
    <line id="Línea_6035-2" data-name="Línea 6035" y2="14.585" transform="translate(882.897 429.984)" fill="none" stroke="#002744" stroke-linecap="round" stroke-miterlimit="10" stroke-width="0.75"/>
    <rect id="Rectángulo_3423-2" data-name="Rectángulo 3423" width="2.887" height="3.259" transform="translate(875.427 429.984)" fill="none" stroke="#002744" stroke-linecap="round" stroke-miterlimit="10" stroke-width="0.75"/>
    <path id="Trazado_17888-2" data-name="Trazado 17888" d="M26.127,32.676l-3.659,9.352a1.287,1.287,0,0,1-1.667.73L7.989,37.745a1.286,1.286,0,0,1-.729-1.667l4.376-11.186a1.286,1.286,0,0,1,1.667-.729L25.922,29.1" transform="translate(837 398)" fill="none" stroke="#002744" stroke-linecap="round" stroke-miterlimit="10" stroke-width="0.75"/>
    <line id="Línea_6036-2" data-name="Línea 6036" x1="5.314" y2="13.582" transform="translate(855.017 426.086)" fill="none" stroke="#002744" stroke-linecap="round" stroke-miterlimit="10" stroke-width="0.75"/>
    <rect id="Rectángulo_3424-2" data-name="Rectángulo 3424" width="3.259" height="2.887" transform="translate(852.186 426.4) rotate(-68.633)" fill="none" stroke="#002744" stroke-linecap="round" stroke-miterlimit="10" stroke-width="0.75"/>
    <path id="Trazado_17889-2" data-name="Trazado 17889" d="M25.455,17.247a2.851,2.851,0,1,1-1.937-3.536A2.851,2.851,0,0,1,25.455,17.247Z" transform="translate(837 398)" fill="none" stroke="#002744" stroke-linecap="round" stroke-miterlimit="10" stroke-width="0.75"/>
    <path id="Trazado_17890-2" data-name="Trazado 17890" d="M26.9,18.323a2.884,2.884,0,0,0,.243-.584A2.85,2.85,0,0,0,25.2,14.2l-1.686-.493" transform="translate(837 398)" fill="none" stroke="#002744" stroke-linecap="round" stroke-miterlimit="10" stroke-width="0.75"/>
    <path id="Trazado_17891-2" data-name="Trazado 17891" d="M23.906,16.794a1.237,1.237,0,1,1-.84-1.533A1.238,1.238,0,0,1,23.906,16.794Z" transform="translate(837 398)" fill="none" stroke="#002744" stroke-linecap="round" stroke-miterlimit="10" stroke-width="0.75"/>
    <path id="Trazado_17892-2" data-name="Trazado 17892" d="M11.664,21.4a1.236,1.236,0,1,1-.84-1.533A1.237,1.237,0,0,1,11.664,21.4Z" transform="translate(837 398)" fill="none" stroke="#002744" stroke-linecap="round" stroke-miterlimit="10" stroke-width="0.75"/>
    <path id="Trazado_17893-2" data-name="Trazado 17893" d="M30.612,26.936a1.236,1.236,0,1,1-.84-1.533A1.237,1.237,0,0,1,30.612,26.936Z" transform="translate(837 398)" fill="none" stroke="#002744" stroke-linecap="round" stroke-miterlimit="10" stroke-width="0.75"/>
    <line id="Línea_6037-2" data-name="Línea 6037" y1="5.596" x2="10.886" transform="translate(846.885 412.373)" fill="none" stroke="#002744" stroke-linecap="round" stroke-miterlimit="10" stroke-width="0.75"/>
    <line id="Línea_6038-2" data-name="Línea 6038" y1="3.052" x2="11.086" transform="translate(847.833 417.184)" fill="none" stroke="#002744" stroke-linecap="round" stroke-miterlimit="10" stroke-width="0.75"/>
    <line id="Línea_6039-2" data-name="Línea 6039" x2="7.059" y2="8.295" transform="translate(858.301 416.916)" fill="none" stroke="#002744" stroke-linecap="round" stroke-miterlimit="10" stroke-width="0.75"/>
    <line id="Línea_6040-2" data-name="Línea 6040" x1="5.202" y1="10.722" transform="translate(862.307 413.271)" fill="none" stroke="#002744" stroke-linecap="round" stroke-miterlimit="10" stroke-width="0.75"/>
    <path id="Trazado_17894-2" data-name="Trazado 17894" d="M28.326,25.88l-5.447,7.654a1,1,0,0,0,1.6,1.206l5.8-7.264" transform="translate(837 398)" fill="none" stroke="#002744" stroke-linecap="round" stroke-miterlimit="10" stroke-width="0.75"/>
    <line id="Línea_6041-2" data-name="Línea 6041" x1="0.302" y1="3.247" transform="translate(848.711 419.125)" fill="none" stroke="#002744" stroke-linecap="round" stroke-miterlimit="10" stroke-width="0.75"/>
    <line id="Línea_6042-2" data-name="Línea 6042" x2="0.98" y2="6.955" transform="translate(846.275 419.334)" fill="none" stroke="#002744" stroke-linecap="round" stroke-miterlimit="10" stroke-width="0.75"/>
    <path id="Trazado_17895-2" data-name="Trazado 17895" d="M21.786,13.706l0-2.55,2.814.005L24.6,13.9" transform="translate(837 398)" fill="none" stroke="#002744" stroke-linecap="round" stroke-miterlimit="10" stroke-width="0.75"/>
    <path id="Trazado_17896-2" data-name="Trazado 17896" d="M21.8,7.248l0-1.811a.74.74,0,0,1,.742-.738l1.334,0a.74.74,0,0,1,.738.742l0,1.81" transform="translate(837 398)" fill="none" stroke="#002744" stroke-linecap="round" stroke-miterlimit="10" stroke-width="0.75"/>
    <path id="Trazado_17897-2" data-name="Trazado 17897" d="M24.948,11.161l-3.5-.007a.639.639,0,0,1,0-1.277l3.5.007a.639.639,0,1,1,0,1.277Z" transform="translate(837 398)" fill="none" stroke="#002744" stroke-linecap="round" stroke-miterlimit="10" stroke-width="0.75"/>
    <path id="Trazado_17898-2" data-name="Trazado 17898" d="M24.953,8.654l-3.5-.007a.639.639,0,0,1,0-1.277l3.5.007a.639.639,0,1,1,0,1.277Z" transform="translate(837 398)" fill="none" stroke="#002744" stroke-linecap="round" stroke-miterlimit="10" stroke-width="0.75"/>
    <path id="Trazado_17899-2" data-name="Trazado 17899" d="M24.6,9.76,21.8,9.755a.492.492,0,0,1,0-.983l2.794.005a.492.492,0,0,1,0,.983Z" transform="translate(837 398)" fill="none" stroke="#002744" stroke-linecap="round" stroke-miterlimit="10" stroke-width="0.75"/>
  </g>
</svg>
