<svg id="illustration_AdquisicionTech" xmlns="http://www.w3.org/2000/svg" width="60" height="60" viewBox="0 0 60 60">
  <g id="Grupo_2469" data-name="Grupo 2469" transform="translate(0)">
    <path id="Trazado_18604" data-name="Trazado 18604" d="M221.377,0h42.857a8.572,8.572,0,0,1,8.572,8.571V51.429A8.572,8.572,0,0,1,264.234,60H221.377a8.571,8.571,0,0,1-8.571-8.571V8.571A8.571,8.571,0,0,1,221.377,0" transform="translate(-212.806)" fill="#f7f9f7"/>
    <path id="Trazado_18605" data-name="Trazado 18605" d="M261.638,40.65H225.229a1.8,1.8,0,0,1-1.8-1.8V14.469a1.8,1.8,0,0,1,1.8-1.8h36.409a1.8,1.8,0,0,1,1.8,1.8V38.853a1.8,1.8,0,0,1-1.8,1.8" transform="translate(-212.806)" fill="#eef9ed"/>
    <rect id="Rectángulo_3457" data-name="Rectángulo 3457" width="6.871" height="4.476" transform="translate(26.254 40.84)" fill="#eef9ed"/>
    <path id="Trazado_18606" data-name="Trazado 18606" d="M237.92,47.508h-6.25a1.006,1.006,0,0,1,0-2.012h6.25Z" transform="translate(-212.806)" fill="#eef9ed"/>
    <path id="Trazado_18607" data-name="Trazado 18607" d="M249.175,40.42h-2.791V44.4a1.121,1.121,0,0,1-1.125,1.121L238.73,45.5a1.062,1.062,0,1,0,0,2.123h8.555a1.5,1.5,0,0,0,1.5-1.5v-.012h.393Z" transform="translate(-212.806)" fill="#c6cccb"/>
    <path id="Trazado_18608" data-name="Trazado 18608" d="M261.78,40.65h-.424c-.544,0-1.806.252-2.152-.114-.32-.34.255-1.279.255-1.783V14.276a1.9,1.9,0,0,1,1.9-1.9h.424a1.9,1.9,0,0,1,1.9,1.9V38.753a1.9,1.9,0,0,1-1.9,1.9" transform="translate(-212.806)" fill="#c6cccb"/>
    <path id="Trazado_18609" data-name="Trazado 18609" d="M225.908,35.358l16.139-22.686h4.58L230.691,35.358Z" transform="translate(-212.806)" fill="#c6cccb"/>
    <path id="Trazado_18610" data-name="Trazado 18610" d="M249.389,12.672h4.561L239.5,26.734Z" transform="translate(-212.806)" fill="#c6cccb"/>
    <path id="Trazado_18611" data-name="Trazado 18611" d="M223.432,27.974v6.065h.964l15.1-21.366h-5.525Z" transform="translate(-212.806)" fill="#c6cccb"/>
    <path id="Trazado_18612" data-name="Trazado 18612" d="M262.523,47.348h-6.937a3.213,3.213,0,0,1,3.213-3.212h1.477a2.247,2.247,0,0,1,2.247,2.247Z" transform="translate(-212.806)" fill="#c6cccb"/>
    <rect id="Rectángulo_3458" data-name="Rectángulo 3458" width="40.003" height="28.271" rx="1.994" transform="translate(10.625 12.379)" fill="none" stroke="#002744" stroke-linecap="round" stroke-miterlimit="10" stroke-width="0.75"/>
    <path id="Trazado_18613" data-name="Trazado 18613" d="M261.49,12.379a1.878,1.878,0,0,0-1.989,2.054V38.941a1.709,1.709,0,0,1-1.709,1.709" transform="translate(-212.806)" fill="none" stroke="#002744" stroke-linecap="round" stroke-miterlimit="10" stroke-width="0.75"/>
    <path id="Trazado_18614" data-name="Trazado 18614" d="M246.212,40.65v4.074a.773.773,0,0,1-.773.772h-6.712a1.063,1.063,0,1,0,0,2.125h7.913a2.533,2.533,0,0,0,2.534-2.534V40.65Z" transform="translate(-212.806)" fill="none" stroke="#002744" stroke-linecap="round" stroke-miterlimit="10" stroke-width="0.75"/>
    <path id="Trazado_18615" data-name="Trazado 18615" d="M242.023,40.65H239.06v4.074a.772.772,0,0,1-.772.772h-6.713a1.063,1.063,0,1,0,0,2.125h7.914" transform="translate(-212.806)" fill="none" stroke="#002744" stroke-linecap="round" stroke-miterlimit="10" stroke-width="0.75"/>
    <line id="Línea_6303" data-name="Línea 6303" x2="40.317" transform="translate(13.102 47.621)" fill="none" stroke="#002744" stroke-linecap="round" stroke-miterlimit="10" stroke-width="0.75"/>
    <line id="Línea_6304" data-name="Línea 6304" x2="2.308" transform="translate(6.58 47.621)" fill="none" stroke="#002744" stroke-linecap="round" stroke-miterlimit="10" stroke-width="0.75"/>
    <path id="Trazado_18616" data-name="Trazado 18616" d="M255.587,47.621a3.721,3.721,0,0,1,6.937-1.873,1.235,1.235,0,0,1-1.047,1.873Z" transform="translate(-212.806)" fill="none" stroke="#002744" stroke-linecap="round" stroke-miterlimit="10" stroke-width="0.75"/>
    <path id="Trazado_18617" data-name="Trazado 18617" d="M259.46,45.123a7.722,7.722,0,0,1,2.03-.509" transform="translate(-212.806)" fill="none" stroke="#002744" stroke-linecap="round" stroke-miterlimit="10" stroke-width="0.75"/>
    <path id="Trazado_18618" data-name="Trazado 18618" d="M237.287,35.333h25.731" transform="translate(-212.806)" fill="none" stroke="#002744" stroke-linecap="round" stroke-miterlimit="10" stroke-width="0.75"/>
    <line id="Línea_6305" data-name="Línea 6305" x2="0.99" transform="translate(20.027 35.357)" fill="none" stroke="#002744" stroke-linecap="round" stroke-miterlimit="10" stroke-width="0.75"/>
    <line id="Línea_6306" data-name="Línea 6306" x2="6.775" transform="translate(10.626 35.332)" fill="none" stroke="#002744" stroke-linecap="round" stroke-miterlimit="10" stroke-width="0.75"/>
  </g>
</svg>
