<svg xmlns="http://www.w3.org/2000/svg" width="71" height="26" viewBox="0 0 71 26"><defs><style>.a{fill:#eef9ed;fill-rule:evenodd;}</style></defs><g transform="translate(-1625 -5530)"><g transform="translate(1666 5532)"><path class="a" d="M309.67,23.426C310.6,21.816,311,19.22,311,15c0-4.207-.394-6.788-1.336-8.441-.944-1.717-2.063-2.262-4.285-2.393C303.863,4.058,300.094,4,296,4s-7.871.058-9.4.163c-2.209.13-3.329.676-4.28,2.4C281.4,8.209,281,10.8,281,15.012c0,4.185.4,6.792,1.334,8.434.94,1.7,2.041,2.239,4.27,2.4,1.6.095,5.584.157,9.4.157s7.789-.063,9.375-.156C307.628,25.685,308.73,25.144,309.67,23.426Zm-4.463-16.52c1.39.082,1.647.208,2.088,1.012.642,1.12.978,3.311.978,7.093,0,3.754-.338,5.957-.974,7.057-.443.806-.7.932-2.095,1.03-1.5.088-5.445.151-9.2.151s-7.71-.062-9.226-.152c-1.379-.1-1.638-.225-2.07-1.006-.641-1.127-.98-3.342-.98-7.1s.338-5.955.975-7.086c.439-.794.7-.921,2.075-1,1.456-.1,5.191-.157,9.226-.157S303.763,6.808,305.207,6.907Zm-11.935,3.968L300.091,15l-6.818,4.125Z" transform="translate(-281 -4)"/></g><g transform="translate(1625 5530)"><path class="a" d="M244.6,2h20.8A2.6,2.6,0,0,1,268,4.6V25.4a2.6,2.6,0,0,1-2.6,2.6H244.6a2.6,2.6,0,0,1-2.6-2.6V4.6A2.6,2.6,0,0,1,244.6,2Zm0,2.6V25.4h20.8V4.6Zm11.7,6.5a3.93,3.93,0,0,0-2.012.588L253.7,11.1h-1.3v9.1H255V15a1.414,1.414,0,0,1,1.3-1.3h1.3a1.414,1.414,0,0,1,1.3,1.3v5.2h2.6V15a3.949,3.949,0,0,0-3.9-3.9Zm-6.5-1.3a1.3,1.3,0,1,0-1.3-1.3A1.3,1.3,0,0,0,249.8,9.8Zm-1.3,1.3v9.1h2.6V11.1Z" transform="translate(-242 -2)"/></g></g></svg>