<svg xmlns="http://www.w3.org/2000/svg" xmlns:xlink="http://www.w3.org/1999/xlink" width="197.61" height="64.42" viewBox="0 0 197.61 64.42"><defs><style>.a{fill:none;}.b{clip-path:url(#a);}.c{fill:#fff;}</style><clipPath id="a"><rect class="a" width="197.61" height="64.42"/></clipPath></defs><g transform="translate(11.914 0.95)"><g class="b" transform="translate(-11.914 -0.95)"><path class="c" d="M0,12.625C0,3.321,2.553,0,9.665,0A27.454,27.454,0,0,1,15.4.469,1.064,1.064,0,0,1,16.3,1.782l-.066.568a1.043,1.043,0,0,1-1.251.977c-1.6-.132-2.967-.174-5.315-.174-4.5,0-5.944,2.3-5.944,9.472S5.16,22.1,9.665,22.1a47.782,47.782,0,0,0,5.81-.235,1.028,1.028,0,0,1,1.255.978l.066.537a1.035,1.035,0,0,1-.868,1.277,25.079,25.079,0,0,1-6.264.6C2.554,25.25,0,21.926,0,12.625" transform="translate(0 0)"/><path class="c" d="M36.205,29.078c-3.174,0-5.392-1.746-5.392-4.95V22.4c0-2.754,1.847-4.341,5.035-4.341h6.4a.348.348,0,0,0,.393-.392v-.935c-.032-2.259-.853-2.786-3.525-2.786-1.35,0-3.763,0-6.029.138a1.116,1.116,0,0,1-1.343-1.052c-.19-1.013.061-1.4,1.1-1.555a51.51,51.51,0,0,1,7.007-.438c4.119,0,6.225,1.3,6.225,5.693v10.8a1.08,1.08,0,0,1-1.211,1.216h-.379c-.731,0-1.057-.1-1.272-1.031l-.075-.427c-.092-.331-.291-.428-.52-.2a9.568,9.568,0,0,1-6.409,1.993Zm.7-2.912a9,9,0,0,0,5.441-1.452.784.784,0,0,0,.287-.648V21.034a.348.348,0,0,0-.393-.392l-5.75.018c-1.69.066-2.212.864-2.212,2.229V23.7c0,1.751.84,2.469,2.625,2.469Z" transform="translate(-10.937 -3.917)"/><path class="c" d="M62.468,27.647V12.641a1,1,0,0,1,1.119-1.123h.5c.7,0,1.084.194,1.181.877l.039.331a.388.388,0,0,0,.674.26,13.572,13.572,0,0,1,6.335-1.862c.77-.092,1.159.388,1.057,1.159l-.1.938c-.1.7-.484.933-1.158,1.057a39.478,39.478,0,0,0-5.824,1.215.551.551,0,0,0-.388.551v11.6a1,1,0,0,1-1.123,1.123H63.592a1,1,0,0,1-1.124-1.123" transform="translate(-22.172 -3.945)"/><path class="c" d="M92.386,25.288a26.955,26.955,0,0,1-6.949-.964,1.1,1.1,0,0,1-.842-1.159V1.324A1.086,1.086,0,0,1,85.812.108h1a1.084,1.084,0,0,1,1.216,1.216V4.8a18.32,18.32,0,0,1-.163,2.857c-.066.511.163.459.612.3a13.67,13.67,0,0,1,4.644-.794c4.21,0,7.139,1.275,7.139,9.22,0,5.7-1.726,8.912-7.877,8.912Zm.215-2.876c2.955-.061,4.13-1.48,4.13-6.159,0-5.171-1.147-6.129-4.007-6.129a17.864,17.864,0,0,0-4.336.579c-.29.066-.387.348-.387.793l.03,9.8a.7.7,0,0,0,.608.731,17.1,17.1,0,0,0,3.963.387Z" transform="translate(-30.026 -0.038)"/><path class="c" d="M146.462,27.528V12.707a1.079,1.079,0,0,1,1.206-1.216h.568c.762,0,1.146.291,1.238.846l.04.362c.031.3.26.362.586.168a14.063,14.063,0,0,1,7.1-1.831c3.036,0,4.685,1.653,4.685,4.756V27.528a1.085,1.085,0,0,1-1.215,1.215h-1a1.083,1.083,0,0,1-1.215-1.215V16.791c0-2.2-.566-2.848-2.2-2.848a13.552,13.552,0,0,0-6.066,1.523.462.462,0,0,0-.3.459v11.6a1.083,1.083,0,0,1-1.215,1.215h-1a1.085,1.085,0,0,1-1.216-1.215" transform="translate(-51.985 -3.917)"/><path class="c" d="M178.473,20.643V1.325A1.084,1.084,0,0,1,179.689.109h1a1.082,1.082,0,0,1,1.216,1.216l-.031,18.544a1.985,1.985,0,0,0,2.244,2.214h.48a1.171,1.171,0,0,1,1.3,1.11l.031.413c.062.726-.163,1.264-.9,1.391a14.225,14.225,0,0,1-2.222.2c-2.649,0-4.342-1.611-4.342-4.557" transform="translate(-63.347 -0.039)"/><path class="c" d="M194.857,36.16c-.705.1-1.09-.274-1.255-.972a1.186,1.186,0,0,1,.828-1.538,6.737,6.737,0,0,0,3.709-3.343,6.831,6.831,0,0,0,.394-.819c.132-.3-.026-.494-.371-.524a1.968,1.968,0,0,1-1.537-1.361l-5.436-14.574c-.29-.771.061-1.287.9-1.287H193.4a1.183,1.183,0,0,1,1.251.929l3.992,11.612c.186.566.341,1.137.522,1.7.066.29.172.418.345.418s.308-.128.375-.388c.222-.6.4-1.2.589-1.737l3.931-11.6a1.183,1.183,0,0,1,1.251-.929h1.347c.837,0,1.189.515.9,1.287l-6.223,16.8c-1.044,2.811-3.011,5.817-6.826,6.336Z" transform="translate(-67.825 -4.168)"/><path class="c" d="M227.865,26.547c-2.956,0-4.506-1.735-4.506-4.865V12.1a.429.429,0,0,0-.484-.484h-1.346c-1.017,0-1.308-.383-1.308-1.211,0-1.008.383-1.271,1.277-1.334l1.377-.076c.326-.031.484-.194.484-.489V5.02A1,1,0,0,1,224.482,3.9h1.157a1,1,0,0,1,1.124,1.124V8.475a.429.429,0,0,0,.484.484h3.547c.961,0,1.308.446,1.308,1.318,0,.955-.291,1.339-1.308,1.339h-3.547a.429.429,0,0,0-.484.484v9.115c0,1.627.594,2.213,2.244,2.213h1.469c.767,0,1.124.281,1.251,1.263.128,1.131-.224,1.489-.873,1.586a23.3,23.3,0,0,1-2.99.269Z" transform="translate(-78.165 -1.383)"/><path class="c" d="M244.375,27.777V12.956a1.083,1.083,0,0,1,1.216-1.216h.973a1.082,1.082,0,0,1,1.216,1.216V27.777a1.082,1.082,0,0,1-1.216,1.216h-.973a1.085,1.085,0,0,1-1.216-1.216" transform="translate(-86.738 -4.167)"/><path class="c" d="M265.1,29.168c-6.027,0-8.242-2.4-8.242-9.066s2.245-9.066,8.268-9.066a20.247,20.247,0,0,1,4.6.526A1.125,1.125,0,0,1,270.629,13a1.214,1.214,0,0,1-1.348,1.048c-1.3-.063-2.645-.107-3.579-.107-3.9,0-5.247,1.377-5.247,6.158,0,4.813,1.351,6.189,5.247,6.189.828,0,2.391-.044,3.881-.2a1.1,1.1,0,0,1,1.379.987,1.179,1.179,0,0,1-.9,1.5,21.446,21.446,0,0,1-4.959.592Z" transform="translate(-91.17 -3.917)"/><path class="c" d="M284.979,28.778c-.766-.092-1.026-.542-.96-1.431.066-.92.419-1.211,1.19-1.176,1.435.054,3.163.094,4.89.089,3.782-.009,4.907-.344,4.907-2.109,0-1.537-1-1.94-2.729-2.3l-4.622-1.015c-2.843-.648-3.923-2.234-3.923-5,0-3.532,2-4.839,6.721-4.8,1.914.035,4.27.177,6.255.419a1.077,1.077,0,0,1,1,1.37c-.1.982-.453,1.273-1.251,1.237-1.8-.075-3.65-.12-5.476-.124-2.984-.009-3.933.228-3.933,1.9,0,1.6.828,1.951,2.458,2.34l4.684,1.046c2.88.653,4.131,1.98,4.131,4.93,0,3.823-2.343,4.981-7.484,4.981a48.866,48.866,0,0,1-5.854-.353" transform="translate(-100.708 -3.917)"/><path class="c" d="M121.737,24.636l-7.077-7.078a8.8,8.8,0,0,0-1.206,3.259l8.283,8.283Z" transform="translate(-40.269 -6.232)"/><path class="c" d="M122.7,17.232l-4.174-4.174a8.892,8.892,0,0,0-2.352,2.112L122.7,21.7Z" transform="translate(-41.236 -4.635)"/><path class="c" d="M131.07,11.867a8.81,8.81,0,0,0-3.3-.831v4.135Z" transform="translate(-45.35 -3.917)"/><path class="c" d="M124.476,11.036a8.815,8.815,0,0,0-3.3.831l3.3,3.3Z" transform="translate(-43.009 -3.917)"/><path class="c" d="M113.289,24.529c0,.05,0,.1,0,.15a8.867,8.867,0,0,0,8.392,8.853v-.615Z" transform="translate(-40.209 -8.706)"/><path class="c" d="M127.766,21.7l6.526-6.526a8.9,8.9,0,0,0-2.352-2.113l-4.174,4.175Z" transform="translate(-45.349 -4.635)"/><path class="c" d="M127.766,29.1l8.283-8.283a8.807,8.807,0,0,0-1.206-3.258l-7.077,7.077Z" transform="translate(-45.349 -6.232)"/><path class="c" d="M127.766,33.532a8.867,8.867,0,0,0,8.392-8.853c0-.05,0-.1,0-.15l-8.388,8.388Z" transform="translate(-45.349 -8.706)"/><path class="c" d="M17.009,80.184a.716.716,0,0,1-.8-.8V64.126c0-2.2,1.487-3.488,3.777-3.488H27.3a.724.724,0,0,1,.737.846l-.02.472a.744.744,0,0,1-.842.772H20.6c-1.319,0-1.889.57-1.889,1.889v4.167a.31.31,0,0,0,.348.348l7.015.008a.709.709,0,0,1,.8.792v.428a.711.711,0,0,1-.8.792l-7.015.008a.31.31,0,0,0-.348.348v7.875a.714.714,0,0,1-.8.8h-.906Z" transform="translate(-5.753 -21.523)"/><path class="c" d="M39.542,76.276c0-4.96,1.7-7.263,6.425-7.263,4.66,0,6.4,2.3,6.4,7.263s-1.744,7.242-6.4,7.242c-4.721,0-6.425-2.282-6.425-7.242m10.322,0c0-3.711-.975-5.226-3.9-5.226-2.985,0-3.9,1.515-3.9,5.226,0,3.691.913,5.206,3.9,5.206,2.923,0,3.9-1.515,3.9-5.206" transform="translate(-14.035 -24.495)"/><path class="c" d="M65.843,76.276c0-4.96,1.7-7.263,6.424-7.263,4.66,0,6.4,2.3,6.4,7.263s-1.744,7.242-6.4,7.242c-4.721,0-6.424-2.282-6.424-7.242m10.321,0c0-3.711-.975-5.226-3.9-5.226-2.985,0-3.9,1.515-3.9,5.226,0,3.691.913,5.206,3.9,5.206,2.923,0,3.9-1.515,3.9-5.206" transform="translate(-23.37 -24.495)"/><path class="c" d="M96.966,81.361c-2.324,0-3.53-1.33-3.53-3.729V69.557a.31.31,0,0,0-.348-.348H91.854c-.714,0-.924-.272-.924-.855,0-.7.271-.893.9-.937l1.254-.064c.238-.022.348-.139.348-.356V64.033a.717.717,0,0,1,.8-.8h.8a.714.714,0,0,1,.8.8v2.943a.31.31,0,0,0,.349.349h3.129c.681,0,.924.312.924.939,0,.673-.208.945-.924.945H96.18a.31.31,0,0,0-.349.348v7.758c0,1.336.532,1.854,1.874,1.854h1.349c.542,0,.8.193.89.88.09.782-.16,1.042-.627,1.109a19.163,19.163,0,0,1-2.352.205Z" transform="translate(-32.275 -22.444)"/><path class="c" d="M112.542,88.916a.772.772,0,0,1-.862-.862V70.623a.783.783,0,0,1,.606-.828,21.436,21.436,0,0,1,5.551-.78c4.772,0,6.177,2.478,6.177,7.138,0,6.169-2.187,7.345-5.59,7.345a11.846,11.846,0,0,1-4.008-.712c-.32-.118-.488-.144-.439.216a11.928,11.928,0,0,1,.119,2.044v3.007a.769.769,0,0,1-.862.862h-.692Zm8.986-12.68c0-3.912-1.009-5.144-3.548-5.186a14.03,14.03,0,0,0-3.454.37.494.494,0,0,0-.432.513l-.02,8.344c0,.312.07.505.279.555a14.613,14.613,0,0,0,3.8.567c2.411,0,3.374-.922,3.374-5.164" transform="translate(-39.64 -24.496)"/><path class="c" d="M138.374,82.376V70.192a.711.711,0,0,1,.792-.8h.338c.485,0,.764.139.834.634l.035.369c.041.279.263.348.48.188a11.507,11.507,0,0,1,5.294-1.511c.549-.061.829.279.751.829l-.069.643c-.078.5-.348.668-.829.75a24.474,24.474,0,0,0-4.932,1.078.394.394,0,0,0-.279.4v9.606a.711.711,0,0,1-.8.8h-.815a.717.717,0,0,1-.8-.8" transform="translate(-49.114 -24.514)"/><path class="c" d="M157.263,61.983a1.582,1.582,0,1,1,1.589,1.588,1.586,1.586,0,0,1-1.589-1.588m.382,17.258V67.181a.767.767,0,0,1,.861-.861h.672a.765.765,0,0,1,.862.861v12.06a.765.765,0,0,1-.862.862h-.672a.771.771,0,0,1-.861-.862" transform="translate(-55.819 -21.441)"/><path class="c" d="M170.379,82.3V70.235a.76.76,0,0,1,.846-.861h.395c.535,0,.806.209.868.614l.035.389c.021.217.188.266.426.126a11.855,11.855,0,0,1,5.811-1.491c2.429,0,3.737,1.317,3.737,3.794V82.3a.772.772,0,0,1-.862.862h-.692a.768.768,0,0,1-.862-.862v-8.8c0-1.823-.545-2.422-1.98-2.422a11.654,11.654,0,0,0-5.09,1.284.332.332,0,0,0-.217.335V82.3a.768.768,0,0,1-.862.862h-.692a.771.771,0,0,1-.862-.862" transform="translate(-60.474 -24.495)"/><path class="c" d="M201.414,81.361c-2.323,0-3.53-1.33-3.53-3.729V69.557a.31.31,0,0,0-.348-.348H196.3c-.714,0-.924-.272-.924-.855,0-.7.271-.893.9-.937l1.254-.064c.238-.022.348-.139.348-.356V64.033a.717.717,0,0,1,.8-.8h.8a.714.714,0,0,1,.8.8v2.943a.31.31,0,0,0,.349.349h3.129c.681,0,.924.312.924.939,0,.673-.208.945-.924.945h-3.129a.31.31,0,0,0-.349.348v7.758c0,1.336.532,1.854,1.874,1.854H203.5c.542,0,.8.193.89.88.09.782-.16,1.042-.627,1.109a19.162,19.162,0,0,1-2.352.205Z" transform="translate(-69.347 -22.444)"/><path class="c" d="M0,80.7V50.837a1.083,1.083,0,0,1,1.216-1.216h.973A1.082,1.082,0,0,1,3.4,50.837V80.7a1.082,1.082,0,0,1-1.216,1.216H1.216A1.085,1.085,0,0,1,0,80.7" transform="translate(0 -17.613)"/><path class="c" d="M243.708,2.213a2.135,2.135,0,1,1,2.147,2.147,2.139,2.139,0,0,1-2.147-2.147" transform="translate(-86.502 -0.032)"/></g></g></svg>