<svg xmlns="http://www.w3.org/2000/svg" width="17.5" height="21.5" viewBox="0 0 17.5 21.5">
  <g id="icon_trush" transform="translate(0.75 0.75)">
    <path id="Trazado_5883" data-name="Trazado 5883" d="M226,202v8" transform="translate(-220 -194)" fill="none" stroke="#9CA09F" stroke-linecap="round" stroke-linejoin="round" stroke-width="1.5"/>
    <path id="Trazado_5884" data-name="Trazado 5884" d="M230,202v8" transform="translate(-220 -194)" fill="none" stroke="#9CA09F" stroke-linecap="round" stroke-linejoin="round" stroke-width="1.5"/>
    <path id="Trazado_5885" data-name="Trazado 5885" d="M235,199l-1,13.125a1.82,1.82,0,0,1-.586,1.326A2.073,2.073,0,0,1,232,214h-8a2.073,2.073,0,0,1-1.414-.549,1.82,1.82,0,0,1-.586-1.326L221,199Z" transform="translate(-220 -194)" fill="none" stroke="#9CA09F" stroke-linecap="round" stroke-linejoin="round" stroke-width="1.5"/>
    <path id="Trazado_5886" data-name="Trazado 5886" d="M225,195v1a1,1,0,0,0,1,1h4a1,1,0,0,0,1-1v-1a1,1,0,0,0-1-1h-4A1,1,0,0,0,225,195Z" transform="translate(-220 -194)" fill="none" stroke="#9CA09F" stroke-width="1.5"/>
    <path id="Trazado_5887" data-name="Trazado 5887" d="M220,197.5v1a.5.5,0,0,0,.5.5h15a.5.5,0,0,0,.5-.5v-1a.5.5,0,0,0-.5-.5h-15A.5.5,0,0,0,220,197.5Z" transform="translate(-220 -194)" fill="none" stroke="#9CA09F" stroke-width="1.5"/>
  </g>
</svg>
