<svg xmlns="http://www.w3.org/2000/svg" xmlns:xlink="http://www.w3.org/1999/xlink" width="60" height="60" viewBox="0 0 60 60"><defs><style>.a,.f{fill:none;}.b{clip-path:url(#a);}.c{fill:#f7f9f7;}.d{fill:#c6cccb;}.e{fill:#eef9ed;}.f{stroke:#002744;stroke-linecap:round;stroke-miterlimit:10;stroke-width:0.75px;}</style><clipPath id="a"><rect class="a" width="60" height="60"/></clipPath></defs><g class="b"><path class="c" d="M8.571,0H51.428A8.572,8.572,0,0,1,60,8.571V51.429A8.572,8.572,0,0,1,51.428,60H8.571A8.571,8.571,0,0,1,0,51.429V8.571A8.571,8.571,0,0,1,8.571,0"/><path class="d" d="M50.74,41.067H14.086a20.956,20.956,0,0,1-5.365-.69c-1.328-.354-.97-1.745.449-1.745H46.517a18.3,18.3,0,0,1,4.7.6c1.393.37,1.017,1.831-.472,1.831"/><path class="e" d="M54.743,25.912v4.9l-.373,1.545-.861,3.483c0,.021-.01.031-.01.042l-.052.228-.073.031-.974.4H49.881c-.415,0-.612.166-1.825,1.67s-4.583,1.42-7.03.787-1.4-2.674-3.151-2.457H34.826a2.655,2.655,0,0,0-1.928.985c-.726.757-3.058,2.748-7.247,1.659a3.335,3.335,0,0,1-2.094-1.8,1.52,1.52,0,0,0-1.8-.84,2.932,2.932,0,0,0-.7.177A2.214,2.214,0,0,0,19.9,37.959c-.5.933-3.121,1.576-6.221,1.556s-2.229-2.966-4.489-2.966-3.929.353-3.929-1.627a23.582,23.582,0,0,1,.28-3.608s.8-1.6,1.285-1.794,2.291-.912,2.291-.912l3.6-1.452A6.344,6.344,0,0,0,14.8,25.642c.425-.725,2.208-4.136,3.214-5.443s2.312-1.254,3.743-1.254H41.306a1.082,1.082,0,0,1,.2.021.1.1,0,0,1,.052.01c.55.166.861.86,1.016,1.628a.091.091,0,0,0,.011.052l.031.186c.145.871.642,3.142.746,3.629a.782.782,0,0,0,.021.093h.1l10.575.28.632,1Z"/><path class="d" d="M19.9,37.96s.5-1.411-.506-1.411H11.129c-.416,0-.616.765.038,1.416s1.948,1.388,4.535,1.388a7.032,7.032,0,0,0,4.111-1.2Z"/><path class="d" d="M16.218,26.639l7.521-7.472h4.123l-7.945,7.618Z"/><path class="d" d="M20.979,26.639l7.668-7.472h1.34Z"/><path class="d" d="M54.691,25.84c-.073-.664-.27-1.026-.632-1-.5.041-8.243-.114-9.445-.114a2.275,2.275,0,0,1-1.131-.166.285.285,0,0,1-.124-.094,1.311,1.311,0,0,1-.218-.342,23.093,23.093,0,0,1-.56-3.473.1.1,0,0,1-.01-.052c-.021-.134-.031-.249-.052-.352-.145-.9-.4-1.192-.964-1.275a.089.089,0,0,0-.052-.011,1.178,1.178,0,0,0-.2-.021H41.3c-.322-.02-1.338-.01-2.488,0-1.545.011-3.318.021-3.982,0h-.114a1.6,1.6,0,0,0-1.7,1.234c-.28.726-2.488,4.251-3.079,5.267a2.486,2.486,0,0,1-1.6,1.337c-.726.343-4.479,1.867-5.2,2.167a5.967,5.967,0,0,0-2.416,2.634c-.736,1.233-.55,1.907-.55,3.431l.882,1.711a2.889,2.889,0,0,1,.7-.176,1.519,1.519,0,0,1,1.8.84,3.338,3.338,0,0,0,2.094,1.8c.125.032.926-.534,1.048-.507-3.1-2.7-2.692-8.629,2.6-8.629,3.97,0,5.217,3.52,4.468,6.491a4.27,4.27,0,0,1,1.06,0h3.049c1.752-.218.694,1.835,3.151,2.457.127.033,1.013-.1,1.144-.07-2.628-2.877-2.155-8.694,2.91-8.694,3.828,0,5.152,3.4,4.594,6.306H52.4l.974-.4a1.357,1.357,0,0,0,.125-.26c0-.01.01-.02.01-.041.249-.767.809-2.913.809-2.913s.021-.218.052-.571c.1-1.368.373-4.8.373-5.723a4.565,4.565,0,0,0-.052-.8"/><path class="f" d="M17.1,21.7l.7-1.2a3.143,3.143,0,0,1,2.713-1.556H32.7a.594.594,0,0,1,.512.893L29.759,25.73a2.131,2.131,0,0,1-1.838,1.055H15.03a.516.516,0,0,1-.445-.778l.481-.821"/><line class="f" y1="0.446" x2="0.261" transform="translate(15.659 23.728)"/><path class="f" d="M19.39,32.335H5.7a.44.44,0,0,1-.378-.666l.97-1.62A1.547,1.547,0,0,1,7.621,29.3H22.087l-1.368,2.286A1.55,1.55,0,0,1,19.39,32.335Z"/><line class="f" x1="6.937" y2="2.883" transform="translate(21.752 26.639)"/><line class="f" x1="7.209" y2="2.895" transform="translate(7.305 26.434)"/><line class="f" x1="3.74" transform="translate(19.391 32.335)"/><line class="f" x1="5.451" transform="translate(33.54 32.335)"/><path class="f" d="M32.7,18.944h8.288a1.555,1.555,0,0,1,1.535,1.309l.621,3.879a.717.717,0,0,0,.708.6h9.71a1.179,1.179,0,0,1,1.179,1.179v5.71a.711.711,0,0,1-.711.711H49.184"/><path class="f" d="M20.169,32.335v4.214H6.453a1.192,1.192,0,0,1-1.192-1.192v-3.41"/><line class="f" x1="2.666" transform="translate(20.169 36.549)"/><line class="f" x1="4.899" transform="translate(33.876 36.549)"/><path class="f" d="M54.47,32.169l-.619,3.185a1.477,1.477,0,0,1-1.45,1.195H49.282"/><path class="f" d="M49.674,34.665a4.715,4.715,0,1,1-4.715-4.715A4.715,4.715,0,0,1,49.674,34.665Z"/><path class="f" d="M44.958,39.38h-2.42c-2.157,0-3.906-2.111-3.906-4.715s1.749-4.716,3.906-4.716h2.42"/><path class="f" d="M33.876,34.665a4.715,4.715,0,1,1-4.715-4.715A4.715,4.715,0,0,1,33.876,34.665Z"/><path class="f" d="M29.16,39.38H26.74c-2.157,0-3.906-2.111-3.906-4.715s1.749-4.716,3.906-4.716h2.42"/><path class="f" d="M20.717,36.707a4.542,4.542,0,0,1-4.345,2.673,4.716,4.716,0,0,1-4.324-2.831"/><path class="f" d="M16.372,39.38h-2.42a3.962,3.962,0,0,1-3.582-2.832"/><line class="f" x1="0.923" y2="0.923" transform="translate(45.738 26.323)"/><line class="f" x1="0.923" y2="0.923" transform="translate(47.272 26.323)"/><line class="f" x1="0.923" y2="0.923" transform="translate(48.806 26.323)"/><line class="f" x1="0.923" y2="0.923" transform="translate(50.34 26.323)"/><path class="f" d="M30.429,34.665A1.269,1.269,0,1,1,29.161,33.4,1.268,1.268,0,0,1,30.429,34.665Z"/><path class="f" d="M46.227,34.665A1.269,1.269,0,1,1,44.959,33.4,1.268,1.268,0,0,1,46.227,34.665Z"/><path class="f" d="M9.4,32.335l-.319.623A1.329,1.329,0,0,1,7.9,33.68H6.682"/><path class="f" d="M14.992,32.335l.442.647a1.6,1.6,0,0,0,1.322.7H18.9"/><path class="f" d="M34.841,20.386l-1.78,3.485a.9.9,0,0,0,.805,1.315h6.183"/></g></svg>