<svg xmlns="http://www.w3.org/2000/svg" width="21.217" height="13.5" viewBox="0 0 21.217 13.5">
  <g id="icon_viewPassword" transform="translate(0.783 0.75)">
    <path id="Trazado_5893" data-name="Trazado 5893" d="M2.338,240.5a.844.844,0,0,1,0-1C3.375,238.061,6.765,234,12,234s8.625,4.061,9.662,5.5a.844.844,0,0,1,0,1c-1.037,1.44-4.427,5.5-9.662,5.5S3.375,241.939,2.338,240.5Z" transform="translate(-2.175 -234)" fill="none" stroke="#202626" stroke-linecap="round" stroke-linejoin="round" stroke-width="1.5"/>
    <path id="Trazado_5894" data-name="Trazado 5894" d="M12,243a3,3,0,1,0-3-3A3,3,0,0,0,12,243Z" transform="translate(-2.175 -234)" fill="none" stroke="#202626" stroke-linecap="round" stroke-linejoin="round" stroke-width="1.5"/>
  </g>
</svg>
