<svg xmlns="http://www.w3.org/2000/svg" width="21.217" height="16.502" viewBox="0 0 21.217 16.502">
  <g id="icon_hidePassword" transform="translate(0.783 1.061)">
    <path id="Trazado_5895" data-name="Trazado 5895" d="M38.338,240.5a.844.844,0,0,1,0-1c1.037-1.44,4.427-5.5,9.662-5.5s8.625,4.061,9.662,5.5a.844.844,0,0,1,0,1c-1.037,1.44-4.427,5.5-9.662,5.5S39.375,241.939,38.338,240.5Z" transform="translate(-38.175 -232.311)" fill="none" stroke="#202626" stroke-linecap="round" stroke-linejoin="round" stroke-width="1.5"/>
    <path id="Trazado_5896" data-name="Trazado 5896" d="M38,230l14.381,14.381" transform="translate(-35.865 -230)" fill="none" stroke="#202626" stroke-linecap="round" stroke-linejoin="round" stroke-width="1.5"/>
    <path id="Trazado_5897" data-name="Trazado 5897" d="M48,243a3,3,0,1,0-3-3A3,3,0,0,0,48,243Z" transform="translate(-38.175 -232.311)" fill="none" stroke="#202626" stroke-linecap="round" stroke-linejoin="round" stroke-width="1.5"/>
  </g>
</svg>
