<svg id="Illustration_PlantaEnergia" xmlns="http://www.w3.org/2000/svg" width="60" height="60" viewBox="0 0 60 60">
  <g id="Grupo_2426" data-name="Grupo 2426" transform="translate(-973.903 -774)">
    <path id="Trazado_18140" data-name="Trazado 18140" d="M79.279,0h42.857a8.572,8.572,0,0,1,8.572,8.571V51.429A8.572,8.572,0,0,1,122.136,60H79.279a8.571,8.571,0,0,1-8.571-8.571V8.571A8.571,8.571,0,0,1,79.279,0" transform="translate(903.195 774)" fill="#99d6ff"/>
    <path id="Trazado_18141" data-name="Trazado 18141" d="M98.525,48.349h23.68V46.712s-1.64-1.786-1.64-3.076H80.851c0,1.29-1.64,3.076-1.64,3.076v1.637H99.4" transform="translate(903.195 774)" fill="#fe5000"/>
    <path id="Trazado_18142" data-name="Trazado 18142" d="M87.243,11.651H117.1a3.489,3.489,0,0,1,3.489,3.489v28.5H87.243" transform="translate(903.195 774)" fill="#fe5000"/>
    <path id="Trazado_18143" data-name="Trazado 18143" d="M112.841,43.636H80.856v-28.5a3.491,3.491,0,0,1,3.49-3.49h25.006a3.49,3.49,0,0,1,3.489,3.49Z" transform="translate(903.195 774)" fill="#ff895a"/>
    <path id="Trazado_18144" data-name="Trazado 18144" d="M112.841,43.636H80.856v-28.5a3.491,3.491,0,0,1,3.49-3.49h25.006a3.49,3.49,0,0,1,3.489,3.49Z" transform="translate(903.195 774)" fill="none" stroke="#002744" stroke-linecap="round" stroke-miterlimit="10" stroke-width="0.75"/>
    <path id="Trazado_18145" data-name="Trazado 18145" d="M87.243,11.651H117.1a3.489,3.489,0,0,1,3.489,3.489v28.5H87.243" transform="translate(903.195 774)" fill="none" stroke="#002744" stroke-linecap="round" stroke-miterlimit="10" stroke-width="0.75"/>
    <path id="Trazado_18146" data-name="Trazado 18146" d="M80.851,43.315c0,1.378-1.64,3.285-1.64,3.285v1.749H99.4" transform="translate(903.195 774)" fill="none" stroke="#002744" stroke-linecap="round" stroke-miterlimit="10" stroke-width="0.75"/>
    <path id="Trazado_18147" data-name="Trazado 18147" d="M120.565,43.315c0,1.378,1.64,3.285,1.64,3.285v1.749H98.525" transform="translate(903.195 774)" fill="none" stroke="#002744" stroke-linecap="round" stroke-miterlimit="10" stroke-width="0.75"/>
    <path id="Trazado_18148" data-name="Trazado 18148" d="M112.871,43.315c0,1.378,1.64,3.285,1.64,3.285v1.749H94.323" transform="translate(903.195 774)" fill="none" stroke="#002744" stroke-linecap="round" stroke-miterlimit="10" stroke-width="0.75"/>
    <rect id="Rectángulo_3433" data-name="Rectángulo 3433" width="22.268" height="12.15" rx="1.586" transform="translate(988.91 790.092)" fill="none" stroke="#002744" stroke-linecap="round" stroke-miterlimit="10" stroke-width="0.75"/>
    <path id="Trazado_18149" data-name="Trazado 18149" d="M96.666,35.054l1.882-4.3a.328.328,0,0,0-.571-.312l-4.516,6.4s2.685.028,3.66,0L95.58,41.1a.327.327,0,0,0,.571.311c.667-.977,3.436-5.341,4.042-6.228,0,0-2.608-.1-3.527-.126" transform="translate(903.195 774)" fill="#09f"/>
    <path id="Trazado_18150" data-name="Trazado 18150" d="M96.612,35.054l1.882-4.3a.328.328,0,0,0-.571-.312l-4.516,6.4s2.685.028,3.66,0L95.526,41.1a.327.327,0,0,0,.571.311c.667-.977,3.436-5.341,4.042-6.228C100.139,35.18,97.531,35.08,96.612,35.054Z" transform="translate(903.195 774)" fill="none" stroke="#002744" stroke-linejoin="round" stroke-width="0.75"/>
    <line id="Línea_6129" data-name="Línea 6129" x2="4.798" transform="translate(1017.506 806.799)" fill="none" stroke="#002744" stroke-linecap="round" stroke-miterlimit="10" stroke-width="0.75"/>
    <line id="Línea_6130" data-name="Línea 6130" x2="4.798" transform="translate(1017.506 808.396)" fill="none" stroke="#002744" stroke-linecap="round" stroke-miterlimit="10" stroke-width="0.75"/>
    <line id="Línea_6131" data-name="Línea 6131" x2="4.798" transform="translate(1017.506 809.994)" fill="none" stroke="#002744" stroke-linecap="round" stroke-miterlimit="10" stroke-width="0.75"/>
    <line id="Línea_6132" data-name="Línea 6132" x2="4.798" transform="translate(1017.506 811.592)" fill="none" stroke="#002744" stroke-linecap="round" stroke-miterlimit="10" stroke-width="0.75"/>
    <line id="Línea_6133" data-name="Línea 6133" x2="4.798" transform="translate(1017.506 813.189)" fill="none" stroke="#002744" stroke-linecap="round" stroke-miterlimit="10" stroke-width="0.75"/>
    <line id="Línea_6134" data-name="Línea 6134" x2="1.609" transform="translate(1009.568 809.994)" fill="none" stroke="#002744" stroke-linecap="round" stroke-miterlimit="10" stroke-width="0.75"/>
    <line id="Línea_6135" data-name="Línea 6135" x2="1.609" transform="translate(1009.568 811.592)" fill="none" stroke="#002744" stroke-linecap="round" stroke-miterlimit="10" stroke-width="0.75"/>
    <line id="Línea_6136" data-name="Línea 6136" x2="1.609" transform="translate(1009.568 813.189)" fill="none" stroke="#002744" stroke-linecap="round" stroke-miterlimit="10" stroke-width="0.75"/>
    <line id="Línea_6137" data-name="Línea 6137" x2="1.609" transform="translate(988.909 809.994)" fill="none" stroke="#002744" stroke-linecap="round" stroke-miterlimit="10" stroke-width="0.75"/>
    <line id="Línea_6138" data-name="Línea 6138" x2="1.609" transform="translate(988.909 811.592)" fill="none" stroke="#002744" stroke-linecap="round" stroke-miterlimit="10" stroke-width="0.75"/>
    <line id="Línea_6139" data-name="Línea 6139" x2="1.609" transform="translate(988.909 813.189)" fill="none" stroke="#002744" stroke-linecap="round" stroke-miterlimit="10" stroke-width="0.75"/>
    <path id="Trazado_18151" data-name="Trazado 18151" d="M117.582,18.361c0,.733-.39,1.328-.871,1.328s-.872-.595-.872-1.328.39-1.328.872-1.328S117.582,17.628,117.582,18.361Z" transform="translate(903.195 774)" fill="none" stroke="#002744" stroke-linecap="round" stroke-miterlimit="10" stroke-width="0.75"/>
    <path id="Trazado_18152" data-name="Trazado 18152" d="M117.582,22.875c0,.734-.39,1.329-.871,1.329s-.872-.6-.872-1.329.39-1.327.872-1.327S117.582,22.143,117.582,22.875Z" transform="translate(903.195 774)" fill="none" stroke="#002744" stroke-linecap="round" stroke-miterlimit="10" stroke-width="0.75"/>
    <path id="Trazado_18153" data-name="Trazado 18153" d="M93.176,17.352l-5.812,9.02v.593h3.549l6.306-9.613Z" transform="translate(903.195 774)" fill="#fe5000"/>
    <path id="Trazado_18154" data-name="Trazado 18154" d="M96.234,20.481l-4.178,6.484h1.81Z" transform="translate(903.195 774)" fill="#fe5000"/>
    <path id="Trazado_18155" data-name="Trazado 18155" d="M87.363,24.406l4.545-7.054H89.12L87.363,22.31Z" transform="translate(903.195 774)" fill="#fe5000"/>
    <rect id="Rectángulo_3434" data-name="Rectángulo 3434" width="19.05" height="9.613" rx="0.447" transform="translate(990.518 791.352)" fill="none" stroke="#002744" stroke-linecap="round" stroke-miterlimit="10" stroke-width="0.75"/>
  </g>
</svg>
