<svg id="illustration_AdquisicionTech" xmlns="http://www.w3.org/2000/svg" width="60" height="60" viewBox="0 0 60 60">
  <g id="Grupo_2471" data-name="Grupo 2471" transform="translate(-950.775 -784)">
    <path id="Trazado_18619" data-name="Trazado 18619" d="M150.346,0H193.2a8.572,8.572,0,0,1,8.572,8.571V51.429A8.572,8.572,0,0,1,193.2,60H150.346a8.571,8.571,0,0,1-8.571-8.571V8.571A8.571,8.571,0,0,1,150.346,0" transform="translate(809 784)" fill="#cee6ad"/>
    <path id="Trazado_18620" data-name="Trazado 18620" d="M190.607,40.65H154.2a1.8,1.8,0,0,1-1.8-1.8V14.469a1.8,1.8,0,0,1,1.8-1.8h36.409a1.8,1.8,0,0,1,1.8,1.8V38.853a1.8,1.8,0,0,1-1.8,1.8" transform="translate(809 784)" fill="#ff895a"/>
    <rect id="Rectángulo_3459" data-name="Rectángulo 3459" width="6.871" height="4.476" transform="translate(977.029 824.84)" fill="#ff895a"/>
    <path id="Trazado_18621" data-name="Trazado 18621" d="M166.889,47.508h-6.25a1.006,1.006,0,1,1,0-2.012h6.25Z" transform="translate(809 784)" fill="#ff895a"/>
    <path id="Trazado_18622" data-name="Trazado 18622" d="M178.144,40.42h-2.791V44.4a1.121,1.121,0,0,1-1.125,1.121L167.7,45.5a1.062,1.062,0,1,0,0,2.123h8.555a1.5,1.5,0,0,0,1.5-1.5v-.012h.393Z" transform="translate(809 784)" fill="#fe5000"/>
    <path id="Trazado_18623" data-name="Trazado 18623" d="M190.75,40.65h-.424c-.544,0-1.806.252-2.152-.114-.32-.34.255-1.279.255-1.783V14.276a1.9,1.9,0,0,1,1.9-1.9h.424a1.9,1.9,0,0,1,1.9,1.9V38.753a1.9,1.9,0,0,1-1.9,1.9" transform="translate(809 784)" fill="#fe5000"/>
    <path id="Trazado_18624" data-name="Trazado 18624" d="M154.878,35.358l16.139-22.686h4.58L159.661,35.358Z" transform="translate(809 784)" fill="#fe5000"/>
    <path id="Trazado_18625" data-name="Trazado 18625" d="M178.359,12.672h4.561L168.469,26.734Z" transform="translate(809 784)" fill="#fe5000"/>
    <path id="Trazado_18626" data-name="Trazado 18626" d="M152.4,27.974v6.065h.964l15.1-21.366h-5.524Z" transform="translate(809 784)" fill="#fe5000"/>
    <path id="Trazado_18627" data-name="Trazado 18627" d="M191.493,47.348h-6.937a3.213,3.213,0,0,1,3.213-3.212h1.477a2.247,2.247,0,0,1,2.247,2.247Z" transform="translate(809 784)" fill="#4d997f"/>
    <rect id="Rectángulo_3460" data-name="Rectángulo 3460" width="40.003" height="28.271" rx="1.994" transform="translate(961.401 796.379)" fill="none" stroke="#002744" stroke-linecap="round" stroke-miterlimit="10" stroke-width="0.75"/>
    <path id="Trazado_18628" data-name="Trazado 18628" d="M190.459,12.379a1.878,1.878,0,0,0-1.989,2.054V38.941a1.709,1.709,0,0,1-1.709,1.709" transform="translate(809 784)" fill="none" stroke="#002744" stroke-linecap="round" stroke-miterlimit="10" stroke-width="0.75"/>
    <path id="Trazado_18629" data-name="Trazado 18629" d="M175.181,40.65v4.074a.772.772,0,0,1-.772.772H167.7a1.063,1.063,0,1,0,0,2.125h7.914a2.533,2.533,0,0,0,2.534-2.534V40.65Z" transform="translate(809 784)" fill="none" stroke="#002744" stroke-linecap="round" stroke-miterlimit="10" stroke-width="0.75"/>
    <path id="Trazado_18630" data-name="Trazado 18630" d="M170.993,40.65H168.03v4.074a.772.772,0,0,1-.772.772h-6.713a1.063,1.063,0,1,0,0,2.125h7.914" transform="translate(809 784)" fill="none" stroke="#002744" stroke-linecap="round" stroke-miterlimit="10" stroke-width="0.75"/>
    <line id="Línea_6307" data-name="Línea 6307" x2="40.317" transform="translate(963.878 831.621)" fill="none" stroke="#002744" stroke-linecap="round" stroke-miterlimit="10" stroke-width="0.75"/>
    <line id="Línea_6308" data-name="Línea 6308" x2="2.308" transform="translate(957.355 831.621)" fill="none" stroke="#002744" stroke-linecap="round" stroke-miterlimit="10" stroke-width="0.75"/>
    <path id="Trazado_18631" data-name="Trazado 18631" d="M184.557,47.621a3.721,3.721,0,0,1,6.936-1.873,1.235,1.235,0,0,1-1.046,1.873Z" transform="translate(809 784)" fill="none" stroke="#002744" stroke-linecap="round" stroke-miterlimit="10" stroke-width="0.75"/>
    <path id="Trazado_18632" data-name="Trazado 18632" d="M188.429,45.123a7.734,7.734,0,0,1,2.03-.509" transform="translate(809 784)" fill="none" stroke="#002744" stroke-linecap="round" stroke-miterlimit="10" stroke-width="0.75"/>
    <path id="Trazado_18633" data-name="Trazado 18633" d="M166.256,35.333h25.731" transform="translate(809 784)" fill="none" stroke="#002744" stroke-linecap="round" stroke-miterlimit="10" stroke-width="0.75"/>
    <line id="Línea_6309" data-name="Línea 6309" x2="0.99" transform="translate(970.803 819.357)" fill="none" stroke="#002744" stroke-linecap="round" stroke-miterlimit="10" stroke-width="0.75"/>
    <line id="Línea_6310" data-name="Línea 6310" x2="6.775" transform="translate(961.401 819.332)" fill="none" stroke="#002744" stroke-linecap="round" stroke-miterlimit="10" stroke-width="0.75"/>
  </g>
</svg>
