<svg xmlns="http://www.w3.org/2000/svg" width="60" height="60" viewBox="0 0 60 60">
  <g id="Illustration_Fabric" transform="translate(0)">
    <path id="Trazado_17850" data-name="Trazado 17850" d="M221.377,0h42.857a8.572,8.572,0,0,1,8.572,8.571V51.429A8.572,8.572,0,0,1,264.234,60H221.377a8.571,8.571,0,0,1-8.571-8.571V8.571A8.571,8.571,0,0,1,221.377,0" transform="translate(-212.806)" fill="#f7f9f7"/>
    <path id="Trazado_17851" data-name="Trazado 17851" d="M262.983,33.3v11.95a1.319,1.319,0,0,1-1.32,1.32h-13.7a1.31,1.31,0,0,1-1.31-1.32V33.3a1.31,1.31,0,0,1,1.31-1.32h13.7a1.319,1.319,0,0,1,1.32,1.32" transform="translate(-212.806)" fill="#eef9ed"/>
    <path id="Trazado_17852" data-name="Trazado 17852" d="M262.983,33.3v11.95a1.319,1.319,0,0,1-1.32,1.32h-3.19V31.982h3.19a1.319,1.319,0,0,1,1.32,1.32" transform="translate(-212.806)" fill="#c6cccb"/>
    <path id="Trazado_17853" data-name="Trazado 17853" d="M238.959,32.6,235.274,42a1.331,1.331,0,0,1-1.719.748l-12.75-5a1.32,1.32,0,0,1-.742-1.706l4.367-11.132a1.315,1.315,0,0,1,1.7-.754L235.916,28l2.737,1.081-3.143,4.874.163.725.521.392.832-.1Z" transform="translate(-212.806)" fill="#eef9ed"/>
    <path id="Trazado_17854" data-name="Trazado 17854" d="M238.959,32.6,235.274,42a1.331,1.331,0,0,1-1.719.748l-2.961-1.167L235.916,28l2.737,1.081-3.143,4.874.163.725.521.392.832-.1Z" transform="translate(-212.806)" fill="#c6cccb"/>
    <path id="Trazado_17855" data-name="Trazado 17855" d="M253.9,46.569c4.8,0,3.858,6.594.215,6.594h11.356a3.3,3.3,0,0,0,0-6.594Z" transform="translate(-212.806)" fill="#c6cccb"/>
    <path id="Trazado_17856" data-name="Trazado 17856" d="M231.644,46.569H253.9a3.3,3.3,0,0,1,0,6.594H221.582a3.3,3.3,0,0,1,0-6.594h4.537" transform="translate(-212.806)" fill="none" stroke="#002744" stroke-linecap="round" stroke-miterlimit="10" stroke-width="0.75"/>
    <line id="Línea_6025" data-name="Línea 6025" x2="1.374" transform="translate(15.749 46.568)" fill="none" stroke="#002744" stroke-linecap="round" stroke-miterlimit="10" stroke-width="0.75"/>
    <path id="Trazado_17857" data-name="Trazado 17857" d="M243.707,46.569h21.768a3.3,3.3,0,0,1,0,6.594H243.707" transform="translate(-212.806)" fill="none" stroke="#002744" stroke-linecap="round" stroke-miterlimit="10" stroke-width="0.75"/>
    <path id="Trazado_17858" data-name="Trazado 17858" d="M225.433,49.866a1.833,1.833,0,1,1-1.834-1.834A1.834,1.834,0,0,1,225.433,49.866Z" transform="translate(-212.806)" fill="none" stroke="#002744" stroke-linecap="round" stroke-miterlimit="10" stroke-width="0.75"/>
    <path id="Trazado_17859" data-name="Trazado 17859" d="M232.505,49.866a1.834,1.834,0,1,1-1.835-1.834A1.835,1.835,0,0,1,232.505,49.866Z" transform="translate(-212.806)" fill="none" stroke="#002744" stroke-linecap="round" stroke-miterlimit="10" stroke-width="0.75"/>
    <path id="Trazado_17860" data-name="Trazado 17860" d="M239.576,49.866a1.834,1.834,0,1,1-1.834-1.834A1.834,1.834,0,0,1,239.576,49.866Z" transform="translate(-212.806)" fill="none" stroke="#002744" stroke-linecap="round" stroke-miterlimit="10" stroke-width="0.75"/>
    <path id="Trazado_17861" data-name="Trazado 17861" d="M246.648,49.866a1.833,1.833,0,1,1-1.834-1.834A1.834,1.834,0,0,1,246.648,49.866Z" transform="translate(-212.806)" fill="none" stroke="#002744" stroke-linecap="round" stroke-miterlimit="10" stroke-width="0.75"/>
    <path id="Trazado_17862" data-name="Trazado 17862" d="M253.72,49.866a1.834,1.834,0,1,1-1.834-1.834A1.834,1.834,0,0,1,253.72,49.866Z" transform="translate(-212.806)" fill="none" stroke="#002744" stroke-linecap="round" stroke-miterlimit="10" stroke-width="0.75"/>
    <rect id="Rectángulo_3419" data-name="Rectángulo 3419" width="16.331" height="14.585" rx="1.287" transform="translate(33.842 31.984)" fill="none" stroke="#002744" stroke-linecap="round" stroke-miterlimit="10" stroke-width="0.75"/>
    <line id="Línea_6026" data-name="Línea 6026" y2="14.585" transform="translate(45.897 31.984)" fill="none" stroke="#002744" stroke-linecap="round" stroke-miterlimit="10" stroke-width="0.75"/>
    <rect id="Rectángulo_3420" data-name="Rectángulo 3420" width="2.887" height="3.259" transform="translate(38.426 31.984)" fill="none" stroke="#002744" stroke-linecap="round" stroke-miterlimit="10" stroke-width="0.75"/>
    <path id="Trazado_17863" data-name="Trazado 17863" d="M238.932,32.676l-3.659,9.352a1.287,1.287,0,0,1-1.667.73l-12.812-5.013a1.286,1.286,0,0,1-.729-1.667l4.376-11.186a1.286,1.286,0,0,1,1.667-.729L238.727,29.1" transform="translate(-212.806)" fill="none" stroke="#002744" stroke-linecap="round" stroke-miterlimit="10" stroke-width="0.75"/>
    <line id="Línea_6027" data-name="Línea 6027" x1="5.314" y2="13.582" transform="translate(18.016 28.086)" fill="none" stroke="#002744" stroke-linecap="round" stroke-miterlimit="10" stroke-width="0.75"/>
    <rect id="Rectángulo_3421" data-name="Rectángulo 3421" width="3.259" height="2.887" transform="translate(15.185 28.4) rotate(-68.633)" fill="none" stroke="#002744" stroke-linecap="round" stroke-miterlimit="10" stroke-width="0.75"/>
    <path id="Trazado_17864" data-name="Trazado 17864" d="M238.261,17.247a2.851,2.851,0,1,1-1.937-3.536A2.851,2.851,0,0,1,238.261,17.247Z" transform="translate(-212.806)" fill="none" stroke="#002744" stroke-linecap="round" stroke-miterlimit="10" stroke-width="0.75"/>
    <path id="Trazado_17865" data-name="Trazado 17865" d="M239.7,18.323a2.884,2.884,0,0,0,.243-.584A2.85,2.85,0,0,0,238.01,14.2l-1.686-.493" transform="translate(-212.806)" fill="none" stroke="#002744" stroke-linecap="round" stroke-miterlimit="10" stroke-width="0.75"/>
    <path id="Trazado_17866" data-name="Trazado 17866" d="M236.711,16.794a1.236,1.236,0,1,1-.84-1.533A1.237,1.237,0,0,1,236.711,16.794Z" transform="translate(-212.806)" fill="none" stroke="#002744" stroke-linecap="round" stroke-miterlimit="10" stroke-width="0.75"/>
    <path id="Trazado_17867" data-name="Trazado 17867" d="M224.47,21.4a1.236,1.236,0,1,1-.84-1.533A1.237,1.237,0,0,1,224.47,21.4Z" transform="translate(-212.806)" fill="none" stroke="#002744" stroke-linecap="round" stroke-miterlimit="10" stroke-width="0.75"/>
    <path id="Trazado_17868" data-name="Trazado 17868" d="M243.417,26.936a1.236,1.236,0,1,1-.84-1.533A1.237,1.237,0,0,1,243.417,26.936Z" transform="translate(-212.806)" fill="none" stroke="#002744" stroke-linecap="round" stroke-miterlimit="10" stroke-width="0.75"/>
    <line id="Línea_6028" data-name="Línea 6028" y1="5.596" x2="10.886" transform="translate(9.884 14.373)" fill="none" stroke="#002744" stroke-linecap="round" stroke-miterlimit="10" stroke-width="0.75"/>
    <line id="Línea_6029" data-name="Línea 6029" y1="3.052" x2="11.086" transform="translate(10.833 19.184)" fill="none" stroke="#002744" stroke-linecap="round" stroke-miterlimit="10" stroke-width="0.75"/>
    <line id="Línea_6030" data-name="Línea 6030" x2="7.059" y2="8.295" transform="translate(21.3 18.916)" fill="none" stroke="#002744" stroke-linecap="round" stroke-miterlimit="10" stroke-width="0.75"/>
    <line id="Línea_6031" data-name="Línea 6031" x1="5.202" y1="10.722" transform="translate(25.306 15.271)" fill="none" stroke="#002744" stroke-linecap="round" stroke-miterlimit="10" stroke-width="0.75"/>
    <path id="Trazado_17869" data-name="Trazado 17869" d="M241.131,25.88l-5.447,7.654a1,1,0,0,0,1.6,1.206l5.8-7.264" transform="translate(-212.806)" fill="none" stroke="#002744" stroke-linecap="round" stroke-miterlimit="10" stroke-width="0.75"/>
    <line id="Línea_6032" data-name="Línea 6032" x1="0.302" y1="3.247" transform="translate(11.711 21.125)" fill="none" stroke="#002744" stroke-linecap="round" stroke-miterlimit="10" stroke-width="0.75"/>
    <line id="Línea_6033" data-name="Línea 6033" x2="0.98" y2="6.955" transform="translate(9.274 21.334)" fill="none" stroke="#002744" stroke-linecap="round" stroke-miterlimit="10" stroke-width="0.75"/>
    <path id="Trazado_17870" data-name="Trazado 17870" d="M234.591,13.706l0-2.55,2.814.005L237.4,13.9" transform="translate(-212.806)" fill="none" stroke="#002744" stroke-linecap="round" stroke-miterlimit="10" stroke-width="0.75"/>
    <path id="Trazado_17871" data-name="Trazado 17871" d="M234.6,7.248l0-1.811a.74.74,0,0,1,.742-.738l1.334,0a.74.74,0,0,1,.738.742l0,1.81" transform="translate(-212.806)" fill="none" stroke="#002744" stroke-linecap="round" stroke-miterlimit="10" stroke-width="0.75"/>
    <path id="Trazado_17872" data-name="Trazado 17872" d="M237.754,11.161l-3.5-.007a.639.639,0,0,1,0-1.277l3.5.007a.639.639,0,1,1,0,1.277Z" transform="translate(-212.806)" fill="none" stroke="#002744" stroke-linecap="round" stroke-miterlimit="10" stroke-width="0.75"/>
    <path id="Trazado_17873" data-name="Trazado 17873" d="M237.759,8.654l-3.5-.007a.639.639,0,1,1,0-1.277l3.5.007a.639.639,0,1,1,0,1.277Z" transform="translate(-212.806)" fill="none" stroke="#002744" stroke-linecap="round" stroke-miterlimit="10" stroke-width="0.75"/>
    <path id="Trazado_17874" data-name="Trazado 17874" d="M237.4,9.76l-2.794-.005a.492.492,0,0,1,0-.983l2.794.005a.492.492,0,0,1,0,.983Z" transform="translate(-212.806)" fill="none" stroke="#002744" stroke-linecap="round" stroke-miterlimit="10" stroke-width="0.75"/>
  </g>
</svg>
