<svg id="illustration_Papeleria" xmlns="http://www.w3.org/2000/svg" width="60" height="60" viewBox="0 0 60 60">
  <g id="Grupo_2454" data-name="Grupo 2454" transform="translate(-747 -610)">
    <path id="Trazado_18497" data-name="Trazado 18497" d="M8.571,0H51.428A8.572,8.572,0,0,1,60,8.571V51.429A8.572,8.572,0,0,1,51.428,60H8.571A8.571,8.571,0,0,1,0,51.429V8.571A8.571,8.571,0,0,1,8.571,0" transform="translate(747 610)" fill="#eef9ed"/>
    <path id="Trazado_18498" data-name="Trazado 18498" d="M43.981,46.458H22.934a1.744,1.744,0,0,1-1.744-1.744V10.95a1.744,1.744,0,0,1,1.744-1.744H46.26A1.744,1.744,0,0,1,48,10.95L45.725,44.714a1.744,1.744,0,0,1-1.744,1.744" transform="translate(747 610)" fill="#cee6ad"/>
    <path id="Trazado_18499" data-name="Trazado 18499" d="M50.858,45.123,50.63,20.28l-7.32-7.273H27.838a1.744,1.744,0,0,0-1.744,1.744V46.607h23.28a1.483,1.483,0,0,0,1.484-1.484" transform="translate(747 610)" fill="#ff895a"/>
    <line id="Línea_6279" data-name="Línea 6279" y1="17.678" transform="translate(797.629 630.279)" fill="none" stroke="#002744" stroke-linecap="round" stroke-miterlimit="10" stroke-width="0.75"/>
    <line id="Línea_6280" data-name="Línea 6280" y1="0.913" transform="translate(797.629 650.787)" fill="none" stroke="#002744" stroke-linecap="round" stroke-miterlimit="10" stroke-width="0.75"/>
    <path id="Trazado_18500" data-name="Trazado 18500" d="M43.31,12.961H27.516a1.422,1.422,0,0,0-1.422,1.422V45.232a1.422,1.422,0,0,0,1.422,1.422H49.207a1.422,1.422,0,0,0,1.422-1.422v-.9" transform="translate(747 610)" fill="none" stroke="#002744" stroke-linecap="round" stroke-miterlimit="10" stroke-width="0.75"/>
    <path id="Trazado_18501" data-name="Trazado 18501" d="M43.31,12.961v6.163a1.156,1.156,0,0,0,1.156,1.156h6.163Z" transform="translate(747 610)" fill="none" stroke="#002744" stroke-linecap="round" stroke-linejoin="round" stroke-width="0.75"/>
    <path id="Trazado_18502" data-name="Trazado 18502" d="M26.094,37.477H22.612a1.422,1.422,0,0,1-1.422-1.422V10.628a1.422,1.422,0,0,1,1.422-1.422H46.581A1.423,1.423,0,0,1,48,10.628v7.027" transform="translate(747 610)" fill="none" stroke="#002744" stroke-linecap="round" stroke-miterlimit="10" stroke-width="0.75"/>
    <path id="Trazado_18503" data-name="Trazado 18503" d="M32.1,23.231V48.872a1.918,1.918,0,0,1-1.911,1.922H14.156L24.513,26.3H26.7V24.661a.853.853,0,0,0-.853-.841h-.288l.925-2.2H30.5a1.6,1.6,0,0,1,1.6,1.61" transform="translate(747 610)" fill="#fe5000"/>
    <path id="Trazado_18504" data-name="Trazado 18504" d="M27.409,21.621H22.122a2.427,2.427,0,0,0-1.874.9l-3,3.8H11.068a1.918,1.918,0,0,0-1.922,1.91V48.872a1.928,1.928,0,0,0,1.922,1.922H27.1a1.918,1.918,0,0,0,1.911-1.922V23.231a1.608,1.608,0,0,0-1.6-1.61M26.7,26.3H20.5L22.086,24.3a1.263,1.263,0,0,1,.985-.481h2.776a.854.854,0,0,1,.853.841Z" transform="translate(747 610)" fill="#ff895a"/>
    <path id="Trazado_18505" data-name="Trazado 18505" d="M32.1,33.333l-3.093-.06-19.864-.06V41.7l19.864-.228L32.1,41.7Z" transform="translate(747 610)" fill="#fe5000"/>
    <path id="Trazado_18506" data-name="Trazado 18506" d="M16.18,22.488H11.66v1.8h.522v2h3.592v-2h.406Z" transform="translate(747 610)" fill="#ff895a"/>
    <path id="Rectángulo_3456" data-name="Rectángulo 3456" d="M.489,0H4.157a.489.489,0,0,1,.489.489V1.558a.49.49,0,0,1-.49.49H.489A.489.489,0,0,1,0,1.559V.489A.489.489,0,0,1,.489,0Z" transform="translate(758.597 632.488)" fill="none" stroke="#002744" stroke-linecap="round" stroke-miterlimit="10" stroke-width="0.75"/>
    <path id="Trazado_18507" data-name="Trazado 18507" d="M20.251,22.538l-3,3.785H11.073a1.918,1.918,0,0,0-1.918,1.918V48.859a1.918,1.918,0,0,0,1.918,1.917H27.084A1.918,1.918,0,0,0,29,48.858V23.238a1.6,1.6,0,0,0-1.605-1.6H22.123A2.39,2.39,0,0,0,20.251,22.538Z" transform="translate(747 610)" fill="none" stroke="#002744" stroke-linecap="round" stroke-miterlimit="10" stroke-width="0.75"/>
    <path id="Trazado_18508" data-name="Trazado 18508" d="M14.163,50.777h16.01a1.918,1.918,0,0,0,1.918-1.918V23.239a1.6,1.6,0,0,0-1.6-1.6H26.481" transform="translate(747 610)" fill="none" stroke="#002744" stroke-linecap="round" stroke-miterlimit="10" stroke-width="0.75"/>
    <path id="Trazado_18509" data-name="Trazado 18509" d="M20.506,26.291,22.088,24.3a1.259,1.259,0,0,1,.986-.476h2.779a.845.845,0,0,1,.845.845v1.625Z" transform="translate(747 610)" fill="none" stroke="#002744" stroke-linecap="round" stroke-linejoin="round" stroke-width="0.75"/>
    <line id="Línea_6281" data-name="Línea 6281" y2="1.788" transform="translate(759.245 634.535)" fill="none" stroke="#002744" stroke-linecap="round" stroke-linejoin="round" stroke-width="0.75"/>
    <line id="Línea_6282" data-name="Línea 6282" y2="1.788" transform="translate(762.731 634.535)" fill="none" stroke="#002744" stroke-linecap="round" stroke-linejoin="round" stroke-width="0.75"/>
    <path id="Trazado_18510" data-name="Trazado 18510" d="M9.155,33.213,29,33.333h3.09" transform="translate(747 610)" fill="none" stroke="#002744" stroke-linecap="round" stroke-miterlimit="10" stroke-width="0.75"/>
    <path id="Trazado_18511" data-name="Trazado 18511" d="M9.155,41.7H32.091" transform="translate(747 610)" fill="none" stroke="#002744" stroke-linecap="round" stroke-miterlimit="10" stroke-width="0.75"/>
  </g>
</svg>
