<svg id="illustration_Mensajeria" xmlns="http://www.w3.org/2000/svg" width="60" height="60" viewBox="0 0 60 60">
  <g id="Grupo_2484" data-name="Grupo 2484" transform="translate(-807 -891)">
    <path id="Trazado_18803" data-name="Trazado 18803" d="M8.571,0H51.428A8.572,8.572,0,0,1,60,8.571V51.429A8.572,8.572,0,0,1,51.428,60H8.571A8.571,8.571,0,0,1,0,51.429V8.571A8.571,8.571,0,0,1,8.571,0" transform="translate(807 891)" fill="#eef9ed"/>
    <path id="Trazado_18804" data-name="Trazado 18804" d="M23.041,16.832H45.488V37.838a2.345,2.345,0,0,1-2.345,2.345h-20.1" transform="translate(807 891)" fill="#fe5000"/>
    <path id="Trazado_18805" data-name="Trazado 18805" d="M19.711,40.183H46.219a1.731,1.731,0,0,1,1.731,1.731v6.6a1.731,1.731,0,0,1-1.731,1.731H33.572" transform="translate(807 891)" fill="#fe5000"/>
    <path id="Trazado_18806" data-name="Trazado 18806" d="M37.185,40.183h-19.3a2.745,2.745,0,0,1-2.745-2.744V16.832H39.929V37.439a2.744,2.744,0,0,1-2.744,2.744" transform="translate(807 891)" fill="#ff895a"/>
    <path id="Trazado_18807" data-name="Trazado 18807" d="M28.943,22.34h-2.8a.936.936,0,0,1-.936-.936V16.832h4.671V21.4a.936.936,0,0,1-.936.936" transform="translate(807 891)" fill="#cee6ad"/>
    <path id="Trazado_18808" data-name="Trazado 18808" d="M15.906,50.244H13.538a1.731,1.731,0,0,1-1.731-1.731v-6.6a1.731,1.731,0,0,1,1.731-1.731H40.66a1.731,1.731,0,0,1,1.731,1.731v6.6a1.731,1.731,0,0,1-1.731,1.731H21.274" transform="translate(807 891)" fill="#ff895a"/>
    <path id="Trazado_18809" data-name="Trazado 18809" d="M28.428,43.787H25.772a1.007,1.007,0,0,1-1.007-1.007v-2.6h4.67v2.6a1.007,1.007,0,0,1-1.007,1.007" transform="translate(807 891)" fill="#cee6ad"/>
    <path id="Trazado_18810" data-name="Trazado 18810" d="M50.476,11.756H46.634a2.071,2.071,0,0,0-1.347.5L39.93,16.832H45.5l5.208-4.451a.355.355,0,0,0-.231-.625" transform="translate(807 891)" fill="#ff895a"/>
    <path id="Trazado_18811" data-name="Trazado 18811" d="M13.334,11.756H9.523a.355.355,0,0,0-.212.64l5.955,4.436h5.569l-6.262-4.665a2.073,2.073,0,0,0-1.239-.411" transform="translate(807 891)" fill="#fe5000"/>
    <path id="Trazado_18812" data-name="Trazado 18812" d="M37.185,40.183h-19.3a2.745,2.745,0,0,1-2.745-2.744V16.832H39.929V37.439A2.744,2.744,0,0,1,37.185,40.183Z" transform="translate(807 891)" fill="none" stroke="#002744" stroke-linecap="round" stroke-miterlimit="10" stroke-width="0.75"/>
    <path id="Trazado_18813" data-name="Trazado 18813" d="M23.041,16.832H45.488V37.838a2.345,2.345,0,0,1-2.345,2.345h-20.1" transform="translate(807 891)" fill="none" stroke="#002744" stroke-linecap="round" stroke-miterlimit="10" stroke-width="0.75"/>
    <path id="Trazado_18814" data-name="Trazado 18814" d="M28.943,22.34h-2.8a.936.936,0,0,1-.936-.936V16.832h4.671V21.4A.936.936,0,0,1,28.943,22.34Z" transform="translate(807 891)" fill="none" stroke="#002744" stroke-linecap="round" stroke-miterlimit="10" stroke-width="0.75"/>
    <line id="Línea_6345" data-name="Línea 6345" y2="2.843" transform="translate(837.843 924.838)" fill="none" stroke="#002744" stroke-linecap="round" stroke-miterlimit="10" stroke-width="0.75"/>
    <line id="Línea_6346" data-name="Línea 6346" y2="2.843" transform="translate(838.985 924.838)" fill="none" stroke="#002744" stroke-linecap="round" stroke-miterlimit="10" stroke-width="0.75"/>
    <line id="Línea_6347" data-name="Línea 6347" y2="2.843" transform="translate(840.127 924.838)" fill="none" stroke="#002744" stroke-linecap="round" stroke-miterlimit="10" stroke-width="0.75"/>
    <line id="Línea_6348" data-name="Línea 6348" y2="2.843" transform="translate(841.27 924.838)" fill="none" stroke="#002744" stroke-linecap="round" stroke-miterlimit="10" stroke-width="0.75"/>
    <line id="Línea_6349" data-name="Línea 6349" y2="2.843" transform="translate(842.412 924.838)" fill="none" stroke="#002744" stroke-linecap="round" stroke-miterlimit="10" stroke-width="0.75"/>
    <line id="Línea_6350" data-name="Línea 6350" x1="0.914" transform="translate(824.429 941.244)" fill="none" stroke="#002744" stroke-linecap="round" stroke-miterlimit="10" stroke-width="0.75"/>
    <path id="Trazado_18815" data-name="Trazado 18815" d="M15.906,50.244H13.538a1.731,1.731,0,0,1-1.731-1.731v-6.6a1.731,1.731,0,0,1,1.731-1.731H40.66a1.731,1.731,0,0,1,1.731,1.731v6.6a1.731,1.731,0,0,1-1.731,1.731H21.274" transform="translate(807 891)" fill="none" stroke="#002744" stroke-linecap="round" stroke-miterlimit="10" stroke-width="0.75"/>
    <path id="Trazado_18816" data-name="Trazado 18816" d="M19.711,40.183H46.219a1.731,1.731,0,0,1,1.731,1.731v6.6a1.731,1.731,0,0,1-1.731,1.731H33.572" transform="translate(807 891)" fill="none" stroke="#002744" stroke-linecap="round" stroke-miterlimit="10" stroke-width="0.75"/>
    <path id="Trazado_18817" data-name="Trazado 18817" d="M28.428,43.787H25.772a1.007,1.007,0,0,1-1.007-1.007v-2.6h4.67v2.6A1.007,1.007,0,0,1,28.428,43.787Z" transform="translate(807 891)" fill="none" stroke="#002744" stroke-linecap="round" stroke-miterlimit="10" stroke-width="0.75"/>
    <path id="Trazado_18818" data-name="Trazado 18818" d="M50.476,11.756H46.634a2.071,2.071,0,0,0-1.347.5L39.93,16.832H45.5l5.208-4.451A.355.355,0,0,0,50.476,11.756Z" transform="translate(807 891)" fill="none" stroke="#002744" stroke-linecap="round" stroke-miterlimit="10" stroke-width="0.75"/>
    <path id="Trazado_18819" data-name="Trazado 18819" d="M13.334,11.756H9.523a.355.355,0,0,0-.212.64l5.955,4.436h5.569l-6.262-4.665A2.073,2.073,0,0,0,13.334,11.756Z" transform="translate(807 891)" fill="none" stroke="#002744" stroke-linecap="round" stroke-linejoin="round" stroke-width="0.75"/>
  </g>
</svg>
