<svg id="illustration_Bodega" xmlns="http://www.w3.org/2000/svg" width="60" height="60" viewBox="0 0 60 60">
  <g id="Grupo_2382" data-name="Grupo 2382" transform="translate(-842.195 -273)">
    <path id="Trazado_17678" data-name="Trazado 17678" d="M8.571,0H51.428A8.572,8.572,0,0,1,60,8.571V51.429A8.572,8.572,0,0,1,51.428,60H8.571A8.571,8.571,0,0,1,0,51.429V8.571A8.571,8.571,0,0,1,8.571,0" transform="translate(842.195 273)" fill="#eef9ed"/>
    <rect id="Rectángulo_3345" data-name="Rectángulo 3345" width="2.802" height="7.99" transform="matrix(0.545, -0.838, 0.838, 0.545, 848.054, 284.732)" fill="#ff895a"/>
    <path id="Trazado_17679" data-name="Trazado 17679" d="M30.413,47.15a1.571,1.571,0,1,1-1.571-1.571,1.571,1.571,0,0,1,1.571,1.571" transform="translate(842.195 273)" fill="#4d997f"/>
    <path id="Trazado_17680" data-name="Trazado 17680" d="M23.4,47.009a5.765,5.765,0,0,1,3.444-5.166v-.509L18.908,19.26l-5.49-3.13a1.224,1.224,0,0,0-1.24,0,2.508,2.508,0,0,1-.4-.28v1.31a1.825,1.825,0,0,0,.58,1.33H11.6a1.778,1.778,0,0,0-1.75,1.81V33.7a1.841,1.841,0,0,0,.3,1.01H6.188a1.753,1.753,0,0,0-1.75,1.75v13.01a1.746,1.746,0,0,0,1.75,1.75h19.17a5.558,5.558,0,0,1-1.96-4.21" transform="translate(842.195 273)" fill="#cee6ad"/>
    <path id="Trazado_17681" data-name="Trazado 17681" d="M55.558,36.459v13.01a1.746,1.746,0,0,1-1.75,1.75H33.938a5.561,5.561,0,0,0,1.96-4.21,4.662,4.662,0,0,0-.13-1.13l12.81-4.74-.48-1.6-12.92,4.79a6.309,6.309,0,0,0-5.53-3.11,8.671,8.671,0,0,0-.89.061v-.161h-.13l-8.2-22.439-6.12-3.98-.63-1.131-1.9-1.3V9.209a1.782,1.782,0,0,1,1.75-1.8h7.71a1.776,1.776,0,0,1,1.75,1.8V17.16a1.79,1.79,0,0,1-.58,1.33h25.23a1.777,1.777,0,0,1,1.75,1.809V33.7a1.84,1.84,0,0,1-.3,1.009h4.72a1.753,1.753,0,0,1,1.75,1.75" transform="translate(842.195 273)" fill="#cee6ad"/>
    <path id="Trazado_17682" data-name="Trazado 17682" d="M35.816,45.861a5.444,5.444,0,0,1-5.287,6.73H28.842" transform="translate(842.195 273)" fill="none" stroke="#002744" stroke-linecap="round" stroke-miterlimit="10" stroke-width="0.75"/>
    <path id="Trazado_17683" data-name="Trazado 17683" d="M30.546,47.15a1.7,1.7,0,1,1-1.7-1.7A1.7,1.7,0,0,1,30.546,47.15Z" transform="translate(842.195 273)" fill="none" stroke="#002744" stroke-linecap="round" stroke-miterlimit="10" stroke-width="0.75"/>
    <path id="Trazado_17684" data-name="Trazado 17684" d="M27.055,41.943l-7.342-20.78A3.822,3.822,0,0,0,18.2,19.235l-5.208-3.381" transform="translate(842.195 273)" fill="none" stroke="#002744" stroke-linecap="round" stroke-miterlimit="10" stroke-width="0.75"/>
    <path id="Trazado_17685" data-name="Trazado 17685" d="M13.862,14.4l5.288,3.524a5.393,5.393,0,0,1,2.1,2.678l7.595,21.106" transform="translate(842.195 273)" fill="none" stroke="#002744" stroke-linecap="round" stroke-miterlimit="10" stroke-width="0.75"/>
    <path id="Trazado_17686" data-name="Trazado 17686" d="M6.541,12.33l-.528-.36C5.7,11.759,5.7,11.229,6,10.784l.594-.87c.3-.444.8-.634,1.107-.423l5.977,4.077c.308.21.313.741.01,1.185l-.594.871c-.3.444-.8.634-1.108.423l-.784-.535" transform="translate(842.195 273)" fill="none" stroke="#002744" stroke-linecap="round" stroke-miterlimit="10" stroke-width="0.75"/>
    <path id="Trazado_17687" data-name="Trazado 17687" d="M11.178,15.442c-.383-.261-.27-.426-.653-.688s-.495-.095-.878-.356-.271-.428-.655-.69-.5-.1-.883-.36-.273-.428-.659-.692-.5-.1-.885-.361" transform="translate(842.195 273)" fill="none" stroke="#002744" stroke-linecap="round" stroke-miterlimit="10" stroke-width="0.75"/>
    <path id="Trazado_17688" data-name="Trazado 17688" d="M33.888,44.8l14.206-5.259.483,1.6L34.371,46.4" transform="translate(842.195 273)" fill="none" stroke="#002744" stroke-linecap="round" stroke-miterlimit="10" stroke-width="0.75"/>
    <path id="Trazado_17689" data-name="Trazado 17689" d="M49.287,37.394l-5.07-13.782a1.62,1.62,0,0,0-2.082-.963l-15.8,5.813a1.609,1.609,0,0,0-.951,2.078l4.1,11.154a4.529,4.529,0,0,1,4.244,3.151l14.6-5.368a1.621,1.621,0,0,0,.962-2.083" transform="translate(842.195 273)" fill="#ff895a"/>
    <path id="Trazado_17690" data-name="Trazado 17690" d="M44.217,23.612l5.07,13.782a1.621,1.621,0,0,1-.963,2.083L44.645,40.83,38.455,24l3.68-1.353a1.62,1.62,0,0,1,2.082.962" transform="translate(842.195 273)" fill="#fe5000"/>
    <path id="Trazado_17691" data-name="Trazado 17691" d="M29.473,41.674l-4.21-11.445a1.287,1.287,0,0,1,.763-1.652l16.42-6.04A1.288,1.288,0,0,1,44.1,23.3l5.3,14.406a1.287,1.287,0,0,1-.763,1.652l-14.87,5.469" transform="translate(842.195 273)" fill="none" stroke="#002744" stroke-linecap="round" stroke-miterlimit="10" stroke-width="0.75"/>
    <line id="Línea_5961" data-name="Línea 5961" x2="6.188" y2="16.821" transform="translate(880.917 296.908)" fill="none" stroke="#002744" stroke-linecap="round" stroke-miterlimit="10" stroke-width="0.75"/>
    <rect id="Rectángulo_3346" data-name="Rectángulo 3346" width="3.548" height="4.005" transform="matrix(0.939, -0.345, 0.345, 0.939, 872.3, 300.076)" fill="none" stroke="#002744" stroke-linecap="round" stroke-miterlimit="10" stroke-width="0.75"/>
    <path id="Trazado_17692" data-name="Trazado 17692" d="M35.342,11.213l4.047,11a1.3,1.3,0,0,1-.768,1.663L26.007,28.517a1.285,1.285,0,0,1-1.653-.771l-4.047-11a1.285,1.285,0,0,1,.759-1.659l12.614-4.64a1.293,1.293,0,0,1,1.662.768" transform="translate(842.195 273)" fill="#ff895a"/>
    <path id="Trazado_17693" data-name="Trazado 17693" d="M35.342,11.213l4.047,11a1.3,1.3,0,0,1-.768,1.663l-2.937,1.08L30.743,11.525l2.937-1.08a1.293,1.293,0,0,1,1.662.768" transform="translate(842.195 273)" fill="#fe5000"/>
    <path id="Rectángulo_3347" data-name="Rectángulo 3347" d="M1.286,0H14.733A1.287,1.287,0,0,1,16.02,1.287V13.021a1.287,1.287,0,0,1-1.287,1.287H1.286A1.286,1.286,0,0,1,0,13.021V1.286A1.286,1.286,0,0,1,1.286,0Z" transform="matrix(0.939, -0.345, 0.345, 0.939, 862.051, 288.531)" fill="none" stroke="#002744" stroke-linecap="round" stroke-miterlimit="10" stroke-width="0.75"/>
    <line id="Línea_5962" data-name="Línea 5962" x2="4.94" y2="13.428" transform="translate(873.149 284.449)" fill="none" stroke="#002744" stroke-linecap="round" stroke-miterlimit="10" stroke-width="0.75"/>
    <rect id="Rectángulo_3348" data-name="Rectángulo 3348" width="2.832" height="3.198" transform="translate(866.271 286.979) rotate(-20.201)" fill="none" stroke="#002744" stroke-linecap="round" stroke-miterlimit="10" stroke-width="0.75"/>
    <path id="Trazado_17694" data-name="Trazado 17694" d="M25.183,51.178a5.441,5.441,0,1,1,3.658,1.413" transform="translate(842.195 273)" fill="none" stroke="#002744" stroke-linecap="round" stroke-miterlimit="10" stroke-width="0.75"/>
    <path id="Trazado_17695" data-name="Trazado 17695" d="M27.565,52.44c-.1-.024-.2-.05-.3-.08a5.026,5.026,0,0,1-.483-.171" transform="translate(842.195 273)" fill="none" stroke="#002744" stroke-linecap="round" stroke-miterlimit="10" stroke-width="0.75"/>
  </g>
</svg>
