<svg id="Illustration_extintor" xmlns="http://www.w3.org/2000/svg" width="60" height="60" viewBox="0 0 60 60">
  <g id="Grupo_2404" data-name="Grupo 2404" transform="translate(-785 -573)">
    <path id="Trazado_17924" data-name="Trazado 17924" d="M8.571,0H51.428A8.572,8.572,0,0,1,60,8.571V51.429A8.572,8.572,0,0,1,51.428,60H8.571A8.571,8.571,0,0,1,0,51.429V8.571A8.571,8.571,0,0,1,8.571,0" transform="translate(785 573)" fill="#eef9ed"/>
    <path id="Trazado_17925" data-name="Trazado 17925" d="M40.222,17.354,33.732,15.6a.852.852,0,0,1-.629-.823V12.792a.852.852,0,0,1,.629-.823l6.49-1.758a.852.852,0,0,1,1.075.823v5.5a.852.852,0,0,1-1.075.823" transform="translate(785 573)" fill="#ff895a"/>
    <path id="Trazado_17926" data-name="Trazado 17926" d="M20.33,40.373V23.819A6.067,6.067,0,0,1,26.4,17.752h4.738A6.067,6.067,0,0,1,37.2,23.819v23.65a1.867,1.867,0,0,1-1.867,1.867H22.2a1.867,1.867,0,0,1-1.867-1.867V45.943" transform="translate(785 573)" fill="#ff895a"/>
    <path id="Trazado_17927" data-name="Trazado 17927" d="M37.2,23.821V47.464a1.871,1.871,0,0,1-1.865,1.876H32.453a1.871,1.871,0,0,0,1.866-1.876V23.821a6.063,6.063,0,0,0-6.065-6.064h2.882A6.063,6.063,0,0,1,37.2,23.821" transform="translate(785 573)" fill="#fe5000"/>
    <path id="Trazado_17928" data-name="Trazado 17928" d="M28.254,17.752a6.067,6.067,0,0,1,6.067,6.067v23.65a1.867,1.867,0,0,1-1.867,1.867" transform="translate(785 573)" fill="none" stroke="#002744" stroke-linecap="round" stroke-miterlimit="10" stroke-width="0.75"/>
    <path id="Trazado_17929" data-name="Trazado 17929" d="M20.33,40.373V23.819A6.067,6.067,0,0,1,26.4,17.752h4.738A6.067,6.067,0,0,1,37.2,23.819v23.65a1.867,1.867,0,0,1-1.867,1.867H22.2a1.867,1.867,0,0,1-1.867-1.867V45.943" transform="translate(785 573)" fill="none" stroke="#002744" stroke-linecap="round" stroke-miterlimit="10" stroke-width="0.75"/>
    <line id="Línea_6045" data-name="Línea 6045" y1="0.608" transform="translate(805.33 616.352)" fill="none" stroke="#002744" stroke-linecap="round" stroke-miterlimit="10" stroke-width="0.75"/>
    <path id="Trazado_17930" data-name="Trazado 17930" d="M30.416,17.752H25.87V10.788a.976.976,0,0,1,.975-.975h2.6a.975.975,0,0,1,.975.975Z" transform="translate(785 573)" fill="none" stroke="#002744" stroke-linecap="round" stroke-miterlimit="10" stroke-width="0.75"/>
    <path id="Trazado_17931" data-name="Trazado 17931" d="M18.7,18.584c0-2.731,2.625-5.078,7.17-5.078v1.867c-4.929,0-6.306,1.91-6.306,3.211C19.564,19.183,18.7,19.1,18.7,18.584Z" transform="translate(785 573)" fill="none" stroke="#002744" stroke-linecap="round" stroke-miterlimit="10" stroke-width="0.75"/>
    <path id="Trazado_17932" data-name="Trazado 17932" d="M25.871,11.318a2.188,2.188,0,1,1-2.187-2.187A2.187,2.187,0,0,1,25.871,11.318Z" transform="translate(785 573)" fill="none" stroke="#002744" stroke-linecap="round" stroke-miterlimit="10" stroke-width="0.75"/>
    <rect id="Rectángulo_3427" data-name="Rectángulo 3427" width="2.689" height="1.793" transform="translate(815.416 585.973)" fill="none" stroke="#002744" stroke-linecap="round" stroke-miterlimit="10" stroke-width="0.75"/>
    <path id="Trazado_17933" data-name="Trazado 17933" d="M40.224,17.44l-6.49-1.758a.852.852,0,0,1-.629-.823V12.878a.852.852,0,0,1,.629-.823l6.49-1.758a.852.852,0,0,1,1.075.823v5.5A.852.852,0,0,1,40.224,17.44Z" transform="translate(785 573)" fill="none" stroke="#002744" stroke-linecap="round" stroke-miterlimit="10" stroke-width="0.75"/>
    <path id="Trazado_17934" data-name="Trazado 17934" d="M26.613,37.865a3.915,3.915,0,0,1-1.653-6.459c2.131-2.588,2.523-2.828,2.479-4.285a3.7,3.7,0,0,1,1.936,2.936c.177,1.258-1.131,2.921.631,2.921.954,0,.826-1.29.826-1.29,1.316,1.316,1.5,5.2-1.587,6.059a1.791,1.791,0,0,0-.218-2.927c0,1.584-2.292,1.472-2.292-.432a3.347,3.347,0,0,1,.96-2.529s-2.048.444-2.048,3.793a3.125,3.125,0,0,0,.966,2.213" transform="translate(785 573)" fill="#cee6ad"/>
    <path id="Trazado_17935" data-name="Trazado 17935" d="M26.613,37.865a3.915,3.915,0,0,1-1.653-6.459c2.131-2.588,2.523-2.828,2.479-4.285a3.7,3.7,0,0,1,1.936,2.936c.177,1.258-1.131,2.921.631,2.921.954,0,.826-1.29.826-1.29,1.316,1.316,1.5,5.2-1.587,6.059a1.791,1.791,0,0,0-.218-2.927c0,1.584-2.292,1.472-2.292-.432a3.347,3.347,0,0,1,.96-2.529s-2.048.444-2.048,3.793A3.125,3.125,0,0,0,26.613,37.865Z" transform="translate(785 573)" fill="none" stroke="#002744" stroke-linecap="round" stroke-linejoin="round" stroke-width="0.75"/>
  </g>
</svg>
