<svg id="illustration_HomeOffice" xmlns="http://www.w3.org/2000/svg" width="60" height="60" viewBox="0 0 60 60">
  <g id="Grupo_2491" data-name="Grupo 2491" transform="translate(0)">
    <path id="Trazado_18820" data-name="Trazado 18820" d="M221.377,0h42.857a8.572,8.572,0,0,1,8.572,8.571V51.429A8.572,8.572,0,0,1,264.234,60H221.377a8.571,8.571,0,0,1-8.571-8.571V8.571A8.571,8.571,0,0,1,221.377,0" transform="translate(-212.806)" fill="#f7f9f7"/>
    <path id="Trazado_18821" data-name="Trazado 18821" d="M239.107,51.644h21.279a4.893,4.893,0,0,0,4.893-4.892V27.875a3.719,3.719,0,0,0-1.368-2.882l-12.166-9.927a2.536,2.536,0,0,0-1.607-.573h-4.645" transform="translate(-212.806)" fill="#c6cccb"/>
    <path id="Trazado_18822" data-name="Trazado 18822" d="M230.352,28.235v-.36a3.721,3.721,0,0,1,1.368-2.883l12.166-9.926a2.543,2.543,0,0,1,3.216,0l12.165,9.926a3.722,3.722,0,0,1,1.369,2.883V46.751a4.894,4.894,0,0,1-4.893,4.894h-20.5a4.894,4.894,0,0,1-4.893-4.894V38.7" transform="translate(-212.806)" fill="#eef9ed"/>
    <path id="Trazado_18823" data-name="Trazado 18823" d="M250.138,51.644H240.85V39.891a1.716,1.716,0,0,1,1.715-1.717h5.858a1.716,1.716,0,0,1,1.715,1.717Z" transform="translate(-212.806)" fill="#c6cccb"/>
    <path id="Trazado_18824" data-name="Trazado 18824" d="M249.63,27a4.137,4.137,0,1,1-4.136-4.136A4.136,4.136,0,0,1,249.63,27" transform="translate(-212.806)" fill="#c6cccb"/>
    <path id="Trazado_18825" data-name="Trazado 18825" d="M238.5,12.8a1.587,1.587,0,0,0-.2.02,2.544,2.544,0,0,0-3.738-1.177,3.99,3.99,0,0,0-7.917.707,3.942,3.942,0,0,0,.069.682,1.994,1.994,0,1,0-1.493,3.312H238.5a1.772,1.772,0,1,0,0-3.544" transform="translate(-212.806)" fill="#eef9ed"/>
    <path id="Trazado_18826" data-name="Trazado 18826" d="M232.923,33.437a6.255,6.255,0,1,1-6.255-6.255,6.254,6.254,0,0,1,6.255,6.255" transform="translate(-212.806)" fill="#c6cccb"/>
    <path id="Trazado_18827" data-name="Trazado 18827" d="M263.263,37.59h-.428a.594.594,0,0,1-.594-.594V31.523a.594.594,0,0,1,.594-.594h.428a.594.594,0,0,1,.594.594V37a.594.594,0,0,1-.594.594" transform="translate(-212.806)" fill="#eef9ed"/>
    <path id="Trazado_18828" data-name="Trazado 18828" d="M230.269,28.235v-.36a3.721,3.721,0,0,1,1.368-2.883L243.8,15.066a2.543,2.543,0,0,1,3.216,0l12.165,9.926a3.722,3.722,0,0,1,1.369,2.883V46.751a4.894,4.894,0,0,1-4.893,4.894h-20.5a4.894,4.894,0,0,1-4.893-4.894V38.7" transform="translate(-212.806)" fill="none" stroke="#002744" stroke-linecap="round" stroke-miterlimit="10" stroke-width="0.75"/>
    <path id="Trazado_18829" data-name="Trazado 18829" d="M239.025,51.644H260.3a4.893,4.893,0,0,0,4.894-4.892V27.875a3.72,3.72,0,0,0-1.369-2.882l-12.166-9.927a2.532,2.532,0,0,0-1.607-.573H245.41" transform="translate(-212.806)" fill="none" stroke="#002744" stroke-linecap="round" stroke-miterlimit="10" stroke-width="0.75"/>
    <path id="Trazado_18830" data-name="Trazado 18830" d="M250.055,51.644h-9.288V39.891a1.716,1.716,0,0,1,1.715-1.717h5.858a1.716,1.716,0,0,1,1.715,1.717Z" transform="translate(-212.806)" fill="none" stroke="#002744" stroke-linecap="round" stroke-miterlimit="10" stroke-width="0.75"/>
    <path id="Trazado_18831" data-name="Trazado 18831" d="M249.547,27a4.136,4.136,0,1,1-4.136-4.136A4.136,4.136,0,0,1,249.547,27Z" transform="translate(-212.806)" fill="none" stroke="#002744" stroke-linecap="round" stroke-miterlimit="10" stroke-width="0.75"/>
    <rect id="Rectángulo_3469" data-name="Rectángulo 3469" width="2.749" height="1.858" transform="translate(41.349 31.578)" fill="none" stroke="#002744" stroke-linecap="round" stroke-linejoin="round" stroke-width="0.75"/>
    <rect id="Rectángulo_3470" data-name="Rectángulo 3470" width="2.749" height="1.858" transform="translate(43.023 33.438)" fill="none" stroke="#002744" stroke-linecap="round" stroke-linejoin="round" stroke-width="0.75"/>
    <line id="Línea_6351" data-name="Línea 6351" x1="0.316" transform="translate(39.799 35.295)" fill="none" stroke="#002744" stroke-linecap="round" stroke-miterlimit="10" stroke-width="0.75"/>
    <line id="Línea_6352" data-name="Línea 6352" x1="1.492" transform="translate(41.531 35.295)" fill="none" stroke="#002744" stroke-linecap="round" stroke-miterlimit="10" stroke-width="0.75"/>
    <path id="Trazado_18832" data-name="Trazado 18832" d="M238.417,12.8a1.587,1.587,0,0,0-.2.02,2.544,2.544,0,0,0-3.738-1.177,3.99,3.99,0,0,0-7.917.707,3.942,3.942,0,0,0,.069.682,1.994,1.994,0,1,0-1.493,3.312h13.275a1.772,1.772,0,0,0,0-3.544Z" transform="translate(-212.806)" fill="none" stroke="#002744" stroke-linecap="round" stroke-linejoin="round" stroke-width="0.75"/>
    <circle id="Elipse_179" data-name="Elipse 179" cx="6.255" cy="6.255" r="6.255" transform="translate(7.524 27.182)" fill="none" stroke="#002744" stroke-linecap="round" stroke-linejoin="round" stroke-width="0.75"/>
    <line id="Línea_6353" data-name="Línea 6353" y2="18.889" transform="translate(13.779 32.756)" fill="none" stroke="#002744" stroke-linecap="round" stroke-linejoin="round" stroke-width="0.75"/>
    <line id="Línea_6354" data-name="Línea 6354" x2="2.346" y2="2.346" transform="translate(11.411 33.715)" fill="none" stroke="#002744" stroke-linecap="round" stroke-linejoin="round" stroke-width="0.75"/>
    <line id="Línea_6355" data-name="Línea 6355" x2="1.173" y2="1.173" transform="translate(12.583 37.234)" fill="none" stroke="#002744" stroke-linecap="round" stroke-linejoin="round" stroke-width="0.75"/>
    <line id="Línea_6356" data-name="Línea 6356" y1="1.393" x2="1.393" transform="translate(13.779 35.574)" fill="none" stroke="#002744" stroke-linecap="round" stroke-linejoin="round" stroke-width="0.75"/>
    <line id="Línea_6357" data-name="Línea 6357" x2="4.471" transform="translate(46.807 25.412)" fill="none" stroke="#002744" stroke-linecap="round" stroke-miterlimit="10" stroke-width="0.75"/>
    <line id="Línea_6358" data-name="Línea 6358" x2="4.471" transform="translate(47.747 27.801)" fill="none" stroke="#002744" stroke-linecap="round" stroke-miterlimit="10" stroke-width="0.75"/>
    <rect id="Rectángulo_3471" data-name="Rectángulo 3471" width="1.616" height="6.661" rx="0.594" transform="translate(49.352 30.93)" fill="none" stroke="#002744" stroke-linecap="round" stroke-miterlimit="10" stroke-width="0.75"/>
    <path id="Trazado_18833" data-name="Trazado 18833" d="M242.942,27.681c.018.062,2.946-3.246,2.946-3.246l1.164.6-3.311,3.9Z" transform="translate(-212.806)" fill="#eef9ed"/>
    <path id="Trazado_18834" data-name="Trazado 18834" d="M247.422,25.411c.027.038-2.945,3.976-2.945,3.976h.73l2.769-3.464Z" transform="translate(-212.806)" fill="#eef9ed"/>
    <path id="Trazado_18835" data-name="Trazado 18835" d="M247.975,27a2.565,2.565,0,1,1-2.564-2.564A2.564,2.564,0,0,1,247.975,27Z" transform="translate(-212.806)" fill="none" stroke="#002744" stroke-linecap="round" stroke-miterlimit="10" stroke-width="0.75"/>
  </g>
</svg>
