<svg xmlns="http://www.w3.org/2000/svg" width="60" height="60" viewBox="0 0 60 60">
  <g id="Illustration_Car" transform="translate(0)">
    <g id="Grupo_2411" data-name="Grupo 2411" transform="translate(-1002.775 -650)">
      <path id="Trazado_17948" data-name="Trazado 17948" d="M150.346,0H193.2a8.572,8.572,0,0,1,8.572,8.571V51.429A8.572,8.572,0,0,1,193.2,60H150.346a8.571,8.571,0,0,1-8.571-8.571V8.571A8.571,8.571,0,0,1,150.346,0" transform="translate(861 650)" fill="#cee6ad"/>
      <path id="Trazado_17949" data-name="Trazado 17949" d="M192.515,41.067H155.861a20.956,20.956,0,0,1-5.365-.69c-1.328-.354-.97-1.745.449-1.745h37.347a18.3,18.3,0,0,1,4.695.6c1.393.37,1.017,1.831-.472,1.831" transform="translate(861 650)" fill="#4d997f"/>
      <path id="Trazado_17950" data-name="Trazado 17950" d="M196.518,25.912v4.9l-.373,1.545-.862,3.483c0,.021-.01.031-.01.042l-.052.228-.073.031-.974.4h-2.519c-.415,0-.612.166-1.825,1.67s-4.583,1.42-7.03.787-1.4-2.674-3.151-2.457H176.6a2.651,2.651,0,0,0-1.927.985c-.726.757-3.058,2.748-7.248,1.659a3.335,3.335,0,0,1-2.094-1.8,1.52,1.52,0,0,0-1.8-.84,2.944,2.944,0,0,0-.7.177,2.214,2.214,0,0,0-1.151,1.233c-.5.933-3.121,1.576-6.22,1.556s-2.23-2.966-4.489-2.966-3.929.353-3.929-1.627a23.582,23.582,0,0,1,.28-3.608s.8-1.6,1.285-1.794,2.29-.912,2.29-.912l3.6-1.452a6.334,6.334,0,0,0,2.084-1.514c.425-.725,2.209-4.136,3.215-5.443s2.311-1.254,3.742-1.254H183.08a1.082,1.082,0,0,1,.2.021.1.1,0,0,1,.052.01c.551.166.861.86,1.016,1.628a.091.091,0,0,0,.011.052l.031.186c.146.871.642,3.142.746,3.629.012.062.021.093.021.093h.1l10.575.28.632,1Z" transform="translate(861 650)" fill="#ff895a"/>
      <path id="Trazado_17951" data-name="Trazado 17951" d="M161.671,37.96s.5-1.411-.506-1.411H152.9c-.416,0-.616.765.038,1.416s1.948,1.388,4.535,1.388a7.032,7.032,0,0,0,4.111-1.2Z" transform="translate(861 650)" fill="#fe5000"/>
      <path id="Trazado_17952" data-name="Trazado 17952" d="M157.993,26.639l7.521-7.472h4.123l-7.945,7.618Z" transform="translate(861 650)" fill="#fe5000"/>
      <path id="Trazado_17953" data-name="Trazado 17953" d="M162.754,26.639l7.668-7.472h1.34Z" transform="translate(861 650)" fill="#fe5000"/>
      <path id="Trazado_17954" data-name="Trazado 17954" d="M196.466,25.84c-.073-.664-.27-1.026-.632-1-.5.041-8.243-.114-9.445-.114a2.275,2.275,0,0,1-1.131-.166.285.285,0,0,1-.124-.094,1.311,1.311,0,0,1-.218-.342,23.092,23.092,0,0,1-.56-3.473.1.1,0,0,1-.01-.052c-.021-.134-.031-.249-.052-.352-.145-.9-.4-1.192-.964-1.275a.089.089,0,0,0-.052-.011,1.178,1.178,0,0,0-.2-.021h-.01c-.322-.02-1.338-.01-2.488,0-1.545.011-3.318.021-3.982,0h-.114a1.6,1.6,0,0,0-1.7,1.234c-.28.726-2.488,4.251-3.079,5.267a2.486,2.486,0,0,1-1.6,1.337c-.726.343-4.479,1.867-5.2,2.167a5.967,5.967,0,0,0-2.416,2.634c-.736,1.233-.55,1.907-.55,3.431l.882,1.711a2.889,2.889,0,0,1,.705-.176,1.519,1.519,0,0,1,1.8.84,3.338,3.338,0,0,0,2.094,1.8c.125.032.926-.534,1.048-.507-3.1-2.7-2.692-8.629,2.6-8.629,3.97,0,5.217,3.52,4.468,6.491a4.27,4.27,0,0,1,1.06,0h3.049c1.752-.218.694,1.835,3.151,2.457.127.033,1.013-.1,1.144-.07-2.628-2.877-2.155-8.694,2.911-8.694,3.827,0,5.151,3.4,4.593,6.306h2.726l.974-.4a1.356,1.356,0,0,0,.125-.26c0-.01.01-.02.01-.041.249-.767.809-2.913.809-2.913s.021-.218.052-.571c.1-1.368.373-4.8.373-5.723a4.565,4.565,0,0,0-.052-.8" transform="translate(861 650)" fill="#fe5000"/>
      <path id="Trazado_17955" data-name="Trazado 17955" d="M158.88,21.7l.705-1.2a3.143,3.143,0,0,1,2.713-1.556h12.176a.594.594,0,0,1,.512.893l-3.452,5.893a2.131,2.131,0,0,1-1.838,1.055H156.8a.516.516,0,0,1-.445-.778l.481-.821" transform="translate(861 650)" fill="none" stroke="#002744" stroke-linecap="round" stroke-miterlimit="10" stroke-width="0.75"/>
      <line id="Línea_6047" data-name="Línea 6047" y1="0.446" x2="0.261" transform="translate(1018.434 673.729)" fill="none" stroke="#002744" stroke-linecap="round" stroke-miterlimit="10" stroke-width="0.75"/>
      <path id="Trazado_17956" data-name="Trazado 17956" d="M161.165,32.335H147.476a.44.44,0,0,1-.378-.666l.97-1.62A1.548,1.548,0,0,1,149.4,29.3h14.466l-1.368,2.286A1.55,1.55,0,0,1,161.165,32.335Z" transform="translate(861 650)" fill="none" stroke="#002744" stroke-linecap="round" stroke-miterlimit="10" stroke-width="0.75"/>
      <line id="Línea_6048" data-name="Línea 6048" x1="6.937" y2="2.883" transform="translate(1024.527 676.639)" fill="none" stroke="#002744" stroke-linecap="round" stroke-miterlimit="10" stroke-width="0.75"/>
      <line id="Línea_6049" data-name="Línea 6049" x1="7.209" y2="2.895" transform="translate(1010.08 676.434)" fill="none" stroke="#002744" stroke-linecap="round" stroke-miterlimit="10" stroke-width="0.75"/>
      <line id="Línea_6050" data-name="Línea 6050" x1="3.74" transform="translate(1022.166 682.336)" fill="none" stroke="#002744" stroke-linecap="round" stroke-miterlimit="10" stroke-width="0.75"/>
      <line id="Línea_6051" data-name="Línea 6051" x1="5.451" transform="translate(1036.314 682.336)" fill="none" stroke="#002744" stroke-linecap="round" stroke-miterlimit="10" stroke-width="0.75"/>
      <path id="Trazado_17957" data-name="Trazado 17957" d="M174.474,18.944h8.288a1.555,1.555,0,0,1,1.535,1.309l.621,3.879a.717.717,0,0,0,.708.6h9.71a1.179,1.179,0,0,1,1.179,1.179v5.71a.711.711,0,0,1-.711.711h-4.846" transform="translate(861 650)" fill="none" stroke="#002744" stroke-linecap="round" stroke-miterlimit="10" stroke-width="0.75"/>
      <path id="Trazado_17958" data-name="Trazado 17958" d="M161.943,32.335v4.214H148.227a1.192,1.192,0,0,1-1.192-1.192v-3.41" transform="translate(861 650)" fill="none" stroke="#002744" stroke-linecap="round" stroke-miterlimit="10" stroke-width="0.75"/>
      <line id="Línea_6052" data-name="Línea 6052" x1="2.666" transform="translate(1022.943 686.549)" fill="none" stroke="#002744" stroke-linecap="round" stroke-miterlimit="10" stroke-width="0.75"/>
      <line id="Línea_6053" data-name="Línea 6053" x1="4.899" transform="translate(1036.651 686.549)" fill="none" stroke="#002744" stroke-linecap="round" stroke-miterlimit="10" stroke-width="0.75"/>
      <path id="Trazado_17959" data-name="Trazado 17959" d="M196.245,32.169l-.619,3.185a1.479,1.479,0,0,1-1.45,1.195h-3.119" transform="translate(861 650)" fill="none" stroke="#002744" stroke-linecap="round" stroke-miterlimit="10" stroke-width="0.75"/>
      <path id="Trazado_17960" data-name="Trazado 17960" d="M191.449,34.665a4.715,4.715,0,1,1-4.715-4.715A4.715,4.715,0,0,1,191.449,34.665Z" transform="translate(861 650)" fill="none" stroke="#002744" stroke-linecap="round" stroke-miterlimit="10" stroke-width="0.75"/>
      <path id="Trazado_17961" data-name="Trazado 17961" d="M186.733,39.38h-2.42c-2.157,0-3.906-2.111-3.906-4.715s1.749-4.716,3.906-4.716h2.42" transform="translate(861 650)" fill="none" stroke="#002744" stroke-linecap="round" stroke-miterlimit="10" stroke-width="0.75"/>
      <path id="Trazado_17962" data-name="Trazado 17962" d="M175.65,34.665a4.715,4.715,0,1,1-4.715-4.715A4.715,4.715,0,0,1,175.65,34.665Z" transform="translate(861 650)" fill="none" stroke="#002744" stroke-linecap="round" stroke-miterlimit="10" stroke-width="0.75"/>
      <path id="Trazado_17963" data-name="Trazado 17963" d="M170.935,39.38h-2.42c-2.157,0-3.906-2.111-3.906-4.715s1.749-4.716,3.906-4.716h2.42" transform="translate(861 650)" fill="none" stroke="#002744" stroke-linecap="round" stroke-miterlimit="10" stroke-width="0.75"/>
      <path id="Trazado_17964" data-name="Trazado 17964" d="M162.492,36.707a4.542,4.542,0,0,1-4.345,2.673,4.716,4.716,0,0,1-4.324-2.831" transform="translate(861 650)" fill="none" stroke="#002744" stroke-linecap="round" stroke-miterlimit="10" stroke-width="0.75"/>
      <path id="Trazado_17965" data-name="Trazado 17965" d="M158.147,39.38h-2.42a3.962,3.962,0,0,1-3.582-2.832" transform="translate(861 650)" fill="none" stroke="#002744" stroke-linecap="round" stroke-miterlimit="10" stroke-width="0.75"/>
      <line id="Línea_6054" data-name="Línea 6054" x1="0.923" y2="0.923" transform="translate(1048.513 676.322)" fill="none" stroke="#002744" stroke-linecap="round" stroke-miterlimit="10" stroke-width="0.75"/>
      <line id="Línea_6055" data-name="Línea 6055" x1="0.923" y2="0.923" transform="translate(1050.047 676.322)" fill="none" stroke="#002744" stroke-linecap="round" stroke-miterlimit="10" stroke-width="0.75"/>
      <line id="Línea_6056" data-name="Línea 6056" x1="0.923" y2="0.923" transform="translate(1051.581 676.322)" fill="none" stroke="#002744" stroke-linecap="round" stroke-miterlimit="10" stroke-width="0.75"/>
      <line id="Línea_6057" data-name="Línea 6057" x1="0.923" y2="0.923" transform="translate(1053.115 676.322)" fill="none" stroke="#002744" stroke-linecap="round" stroke-miterlimit="10" stroke-width="0.75"/>
      <path id="Trazado_17966" data-name="Trazado 17966" d="M172.2,34.665a1.269,1.269,0,1,1-1.268-1.268A1.268,1.268,0,0,1,172.2,34.665Z" transform="translate(861 650)" fill="none" stroke="#002744" stroke-linecap="round" stroke-miterlimit="10" stroke-width="0.75"/>
      <path id="Trazado_17967" data-name="Trazado 17967" d="M188,34.665a1.269,1.269,0,1,1-1.268-1.268A1.268,1.268,0,0,1,188,34.665Z" transform="translate(861 650)" fill="none" stroke="#002744" stroke-linecap="round" stroke-miterlimit="10" stroke-width="0.75"/>
      <path id="Trazado_17968" data-name="Trazado 17968" d="M151.176,32.335l-.319.623a1.329,1.329,0,0,1-1.182.722h-1.218" transform="translate(861 650)" fill="none" stroke="#002744" stroke-linecap="round" stroke-miterlimit="10" stroke-width="0.75"/>
      <path id="Trazado_17969" data-name="Trazado 17969" d="M156.767,32.335l.442.647a1.6,1.6,0,0,0,1.322.7h2.142" transform="translate(861 650)" fill="none" stroke="#002744" stroke-linecap="round" stroke-miterlimit="10" stroke-width="0.75"/>
      <path id="Trazado_17970" data-name="Trazado 17970" d="M176.616,20.386l-1.78,3.485a.9.9,0,0,0,.805,1.315h6.183" transform="translate(861 650)" fill="none" stroke="#002744" stroke-linecap="round" stroke-miterlimit="10" stroke-width="0.75"/>
    </g>
  </g>
</svg>
