<svg id="illustration_Residuos" xmlns="http://www.w3.org/2000/svg" width="60" height="60" viewBox="0 0 60 60">
  <g id="Grupo_2463" data-name="Grupo 2463" transform="translate(-767 -695)">
    <path id="Trazado_18581" data-name="Trazado 18581" d="M8.571,0H51.428A8.572,8.572,0,0,1,60,8.571V51.429A8.572,8.572,0,0,1,51.428,60H8.571A8.571,8.571,0,0,1,0,51.429V8.571A8.571,8.571,0,0,1,8.571,0" transform="translate(767 695)" fill="#eef9ed"/>
    <path id="Trazado_18582" data-name="Trazado 18582" d="M19.638,11.253l21.774-.015a1.179,1.179,0,1,1,0,2.358l-21.919-.015" transform="translate(767 695)" fill="#ff895a"/>
    <path id="Trazado_18583" data-name="Trazado 18583" d="M26.022,8.253h8.184a6.612,6.612,0,0,1,3.625,1.082l2.9,1.9H19.493" transform="translate(767 695)" fill="#ff895a"/>
    <path id="Trazado_18584" data-name="Trazado 18584" d="M20.926,13.6h20.61a1.082,1.082,0,0,1,1.081,1.148l-1.935,32.43a4.862,4.862,0,0,1-4.853,4.572H20.486" transform="translate(767 695)" fill="#ff895a"/>
    <path id="Trazado_18585" data-name="Trazado 18585" d="M15.384,42.412,14.55,14.467a.845.845,0,0,1,.845-.87h21.57a.845.845,0,0,1,.844.9L35.82,47.82a4.176,4.176,0,0,1-4.168,3.927H15.663" transform="translate(767 695)" fill="#ff895a"/>
    <path id="Trazado_18586" data-name="Trazado 18586" d="M37.495,13.6l-21.918-.015a7.334,7.334,0,0,0-2.381.4L8.978,15.709A1.119,1.119,0,0,1,8.24,13.6L12.3,11.842a10.285,10.285,0,0,1,3.422-.589l21.774-.015a1.179,1.179,0,1,1,0,2.358" transform="translate(767 695)" fill="#ff895a"/>
    <path id="Trazado_18587" data-name="Trazado 18587" d="M37.254,11.239H16.012l2.9-1.9a6.612,6.612,0,0,1,3.625-1.082h8.184a6.618,6.618,0,0,1,3.626,1.082Z" transform="translate(767 695)" fill="#ff895a"/>
    <path id="Trazado_18588" data-name="Trazado 18588" d="M15.621,42.412h2.542a4.668,4.668,0,0,1,0,9.335H15.621" transform="translate(767 695)" fill="#ff895a"/>
    <path id="Trazado_18589" data-name="Trazado 18589" d="M20.288,47.079a4.668,4.668,0,1,1-4.667-4.667,4.667,4.667,0,0,1,4.667,4.667" transform="translate(767 695)" fill="#ff895a"/>
    <path id="Trazado_18590" data-name="Trazado 18590" d="M16.924,47.079a1.3,1.3,0,1,1-1.3-1.3,1.3,1.3,0,0,1,1.3,1.3" transform="translate(767 695)" fill="#ff895a"/>
    <path id="Trazado_18591" data-name="Trazado 18591" d="M14.491,18.805l-.108-3.63A1.532,1.532,0,0,1,15.914,13.6H36.786a.836.836,0,0,1,.835.887L35.67,47.174a4.862,4.862,0,0,1-4.853,4.572H15.474" transform="translate(767 695)" fill="none" stroke="#002744" stroke-linecap="round" stroke-miterlimit="10" stroke-width="0.75"/>
    <line id="Línea_6298" data-name="Línea 6298" x1="0.026" y1="0.887" transform="translate(781.553 715.85)" fill="none" stroke="#002744" stroke-linecap="round" stroke-miterlimit="10" stroke-width="0.75"/>
    <line id="Línea_6299" data-name="Línea 6299" x1="0.492" y1="16.486" transform="translate(781.704 720.926)" fill="none" stroke="#002744" stroke-linecap="round" stroke-miterlimit="10" stroke-width="0.75"/>
    <path id="Trazado_18592" data-name="Trazado 18592" d="M20.737,13.6h20.74a.961.961,0,0,1,.959,1.019L40.493,47.175a4.862,4.862,0,0,1-4.853,4.572H20.3" transform="translate(767 695)" fill="none" stroke="#002744" stroke-linecap="round" stroke-miterlimit="10" stroke-width="0.75"/>
    <path id="Trazado_18593" data-name="Trazado 18593" d="M37.306,13.6l-21.918-.015a7.329,7.329,0,0,0-2.381.4L8.789,15.709A1.119,1.119,0,0,1,8.051,13.6l4.059-1.754a10.285,10.285,0,0,1,3.422-.589l21.774-.015a1.179,1.179,0,1,1,0,2.358Z" transform="translate(767 695)" fill="none" stroke="#002744" stroke-linecap="round" stroke-miterlimit="10" stroke-width="0.75"/>
    <path id="Trazado_18594" data-name="Trazado 18594" d="M19.45,11.253l21.774-.015a1.179,1.179,0,1,1,0,2.358l-21.919-.015" transform="translate(767 695)" fill="none" stroke="#002744" stroke-linecap="round" stroke-miterlimit="10" stroke-width="0.75"/>
    <path id="Trazado_18595" data-name="Trazado 18595" d="M37.065,11.239H15.823l2.9-1.9a6.612,6.612,0,0,1,3.625-1.082h8.184a6.618,6.618,0,0,1,3.626,1.082Z" transform="translate(767 695)" fill="none" stroke="#002744" stroke-linecap="round" stroke-miterlimit="10" stroke-width="0.75"/>
    <path id="Trazado_18596" data-name="Trazado 18596" d="M25.834,8.253h8.184a6.612,6.612,0,0,1,3.625,1.082l2.9,1.9H19.305" transform="translate(767 695)" fill="none" stroke="#002744" stroke-linecap="round" stroke-miterlimit="10" stroke-width="0.75"/>
    <path id="Trazado_18597" data-name="Trazado 18597" d="M20.1,47.079a4.668,4.668,0,1,1-4.667-4.667A4.667,4.667,0,0,1,20.1,47.079Z" transform="translate(767 695)" fill="none" stroke="#002744" stroke-linecap="round" stroke-miterlimit="10" stroke-width="0.75"/>
    <path id="Trazado_18598" data-name="Trazado 18598" d="M15.432,42.412h2.542a4.668,4.668,0,0,1,0,9.335H15.432" transform="translate(767 695)" fill="none" stroke="#002744" stroke-linecap="round" stroke-miterlimit="10" stroke-width="0.75"/>
    <line id="Línea_6300" data-name="Línea 6300" x2="19.019" transform="translate(789.642 713.805)" fill="none" stroke="#002744" stroke-linecap="round" stroke-miterlimit="10" stroke-width="0.75"/>
    <circle id="Elipse_178" data-name="Elipse 178" cx="1.303" cy="1.303" r="1.303" transform="translate(781.13 740.777)" fill="none" stroke="#002744" stroke-linecap="round" stroke-miterlimit="10" stroke-width="0.75"/>
    <path id="Trazado_18599" data-name="Trazado 18599" d="M49.9,41.6l-2.676-4.468a1.041,1.041,0,0,0-.823-.4H45.081a1.044,1.044,0,0,0-.984.695L39.663,47.7A3.162,3.162,0,0,0,42.7,51.747h4.25a5.766,5.766,0,0,0,5.569-4.273A5.108,5.108,0,0,0,49.9,41.6Z" transform="translate(767 695)" fill="#cee6ad"/>
    <path id="Trazado_18600" data-name="Trazado 18600" d="M45.079,35.614a.828.828,0,0,1-.825-.757l-.5-5.762a1.04,1.04,0,0,1,2.021-.423L46,29.34a3.619,3.619,0,0,0,3.912,2.426.716.716,0,0,1,.763.455,1.332,1.332,0,0,1-.6,1.636l-2.966,1.652a.827.827,0,0,1-.4.1Z" transform="translate(767 695)" fill="#cee6ad"/>
    <path id="Trazado_18601" data-name="Trazado 18601" d="M49.715,41.6l-2.676-4.468a1.041,1.041,0,0,0-.823-.4H44.893a1.044,1.044,0,0,0-.984.695L39.475,47.7a3.162,3.162,0,0,0,3.037,4.044h4.25a5.766,5.766,0,0,0,5.569-4.273A5.108,5.108,0,0,0,49.715,41.6Z" transform="translate(767 695)" fill="none" stroke="#002744" stroke-linecap="round" stroke-miterlimit="10" stroke-width="0.75"/>
    <path id="Trazado_18602" data-name="Trazado 18602" d="M44.891,35.614a.828.828,0,0,1-.825-.757l-.5-5.762a1.04,1.04,0,0,1,2.021-.423l.226.668a3.619,3.619,0,0,0,3.912,2.426.716.716,0,0,1,.763.455,1.332,1.332,0,0,1-.6,1.636l-2.966,1.652a.827.827,0,0,1-.4.1Z" transform="translate(767 695)" fill="none" stroke="#002744" stroke-linecap="round" stroke-miterlimit="10" stroke-width="0.75"/>
    <path id="Trazado_18603" data-name="Trazado 18603" d="M49.264,43.6c1.455,2.139,1.337,3.951.178,5.406" transform="translate(767 695)" fill="none" stroke="#002744" stroke-linecap="round" stroke-miterlimit="10" stroke-width="0.75"/>
    <line id="Línea_6301" data-name="Línea 6301" x1="0.713" y1="1.396" transform="translate(814.63 735.834)" fill="none" stroke="#002744" stroke-linecap="round" stroke-miterlimit="10" stroke-width="0.75"/>
    <line id="Línea_6302" data-name="Línea 6302" x1="0.056" y1="4.53" transform="translate(812.587 723.672)" fill="none" stroke="#002744" stroke-linecap="round" stroke-miterlimit="10" stroke-width="0.75"/>
  </g>
</svg>
