<svg id="illustration_HomeOffice" xmlns="http://www.w3.org/2000/svg" width="60" height="60" viewBox="0 0 60 60">
  <g id="Grupo_2492" data-name="Grupo 2492" transform="translate(-756 -951)">
    <path id="Trazado_18868" data-name="Trazado 18868" d="M8.571,0H51.428A8.572,8.572,0,0,1,60,8.571V51.429A8.572,8.572,0,0,1,51.428,60H8.571A8.571,8.571,0,0,1,0,51.429V8.571A8.571,8.571,0,0,1,8.571,0" transform="translate(756 951)" fill="#eef9ed"/>
    <path id="Trazado_18869" data-name="Trazado 18869" d="M26.3,51.644H47.581a4.893,4.893,0,0,0,4.893-4.892V27.875a3.719,3.719,0,0,0-1.368-2.882L38.94,15.066a2.536,2.536,0,0,0-1.607-.573H32.689" transform="translate(756 951)" fill="#fe5000"/>
    <path id="Trazado_18870" data-name="Trazado 18870" d="M17.547,28.235v-.36a3.721,3.721,0,0,1,1.368-2.883l12.166-9.926a2.543,2.543,0,0,1,3.216,0l12.165,9.926a3.722,3.722,0,0,1,1.369,2.883V46.751a4.894,4.894,0,0,1-4.893,4.894H22.44a4.894,4.894,0,0,1-4.893-4.894V38.7" transform="translate(756 951)" fill="#ff895a"/>
    <path id="Trazado_18871" data-name="Trazado 18871" d="M37.333,51.644H28.045V39.891a1.716,1.716,0,0,1,1.715-1.717h5.858a1.716,1.716,0,0,1,1.715,1.717Z" transform="translate(756 951)" fill="#fe5000"/>
    <path id="Trazado_18872" data-name="Trazado 18872" d="M35.394,27a2.706,2.706,0,1,1-2.705-2.7A2.7,2.7,0,0,1,35.394,27" transform="translate(756 951)" fill="#fe5000"/>
    <path id="Trazado_18873" data-name="Trazado 18873" d="M25.695,12.8a1.587,1.587,0,0,0-.2.02,2.544,2.544,0,0,0-3.738-1.177,3.99,3.99,0,0,0-7.917.707,3.942,3.942,0,0,0,.069.682,1.994,1.994,0,1,0-1.493,3.312H25.695a1.772,1.772,0,0,0,0-3.544" transform="translate(756 951)" fill="#ff895a"/>
    <path id="Trazado_18874" data-name="Trazado 18874" d="M20.118,33.437a6.255,6.255,0,1,1-6.255-6.255,6.254,6.254,0,0,1,6.255,6.255" transform="translate(756 951)" fill="#cee6ad"/>
    <path id="Trazado_18875" data-name="Trazado 18875" d="M50.458,37.59H50.03A.594.594,0,0,1,49.436,37V31.523a.594.594,0,0,1,.594-.594h.428a.594.594,0,0,1,.594.594V37a.594.594,0,0,1-.594.594" transform="translate(756 951)" fill="#ff895a"/>
    <path id="Trazado_18876" data-name="Trazado 18876" d="M17.464,28.235v-.36a3.721,3.721,0,0,1,1.368-2.883L31,15.066a2.543,2.543,0,0,1,3.216,0l12.165,9.926a3.722,3.722,0,0,1,1.369,2.883V46.751a4.894,4.894,0,0,1-4.893,4.894h-20.5a4.894,4.894,0,0,1-4.893-4.894V38.7" transform="translate(756 951)" fill="none" stroke="#002744" stroke-linecap="round" stroke-miterlimit="10" stroke-width="0.75"/>
    <path id="Trazado_18877" data-name="Trazado 18877" d="M26.219,51.644H47.5a4.893,4.893,0,0,0,4.893-4.892V27.875a3.719,3.719,0,0,0-1.368-2.882L38.857,15.066a2.536,2.536,0,0,0-1.607-.573H32.6" transform="translate(756 951)" fill="none" stroke="#002744" stroke-linecap="round" stroke-miterlimit="10" stroke-width="0.75"/>
    <path id="Trazado_18878" data-name="Trazado 18878" d="M37.25,51.644H27.962V39.891a1.716,1.716,0,0,1,1.715-1.717h5.858a1.716,1.716,0,0,1,1.715,1.717Z" transform="translate(756 951)" fill="none" stroke="#002744" stroke-linecap="round" stroke-miterlimit="10" stroke-width="0.75"/>
    <path id="Trazado_18879" data-name="Trazado 18879" d="M36.742,27a4.137,4.137,0,1,1-4.136-4.136A4.136,4.136,0,0,1,36.742,27Z" transform="translate(756 951)" fill="none" stroke="#002744" stroke-linecap="round" stroke-miterlimit="10" stroke-width="0.75"/>
    <rect id="Rectángulo_3478" data-name="Rectángulo 3478" width="2.749" height="1.858" transform="translate(797.35 982.578)" fill="none" stroke="#002744" stroke-linecap="round" stroke-linejoin="round" stroke-width="0.75"/>
    <rect id="Rectángulo_3479" data-name="Rectángulo 3479" width="2.749" height="1.858" transform="translate(799.024 984.438)" fill="none" stroke="#002744" stroke-linecap="round" stroke-linejoin="round" stroke-width="0.75"/>
    <line id="Línea_6375" data-name="Línea 6375" x1="0.316" transform="translate(795.8 986.295)" fill="none" stroke="#002744" stroke-linecap="round" stroke-miterlimit="10" stroke-width="0.75"/>
    <line id="Línea_6376" data-name="Línea 6376" x1="1.492" transform="translate(797.532 986.295)" fill="none" stroke="#002744" stroke-linecap="round" stroke-miterlimit="10" stroke-width="0.75"/>
    <path id="Trazado_18880" data-name="Trazado 18880" d="M25.612,12.8a1.587,1.587,0,0,0-.2.02,2.544,2.544,0,0,0-3.738-1.177,3.99,3.99,0,0,0-7.917.707,3.942,3.942,0,0,0,.069.682,1.994,1.994,0,1,0-1.493,3.312H25.612a1.772,1.772,0,1,0,0-3.544Z" transform="translate(756 951)" fill="none" stroke="#002744" stroke-linecap="round" stroke-linejoin="round" stroke-width="0.75"/>
    <circle id="Elipse_182" data-name="Elipse 182" cx="6.255" cy="6.255" r="6.255" transform="translate(763.525 978.182)" fill="none" stroke="#002744" stroke-linecap="round" stroke-linejoin="round" stroke-width="0.75"/>
    <line id="Línea_6377" data-name="Línea 6377" y2="18.889" transform="translate(769.78 983.756)" fill="none" stroke="#002744" stroke-linecap="round" stroke-linejoin="round" stroke-width="0.75"/>
    <line id="Línea_6378" data-name="Línea 6378" x2="2.346" y2="2.346" transform="translate(767.412 984.715)" fill="none" stroke="#002744" stroke-linecap="round" stroke-linejoin="round" stroke-width="0.75"/>
    <line id="Línea_6379" data-name="Línea 6379" x2="1.173" y2="1.173" transform="translate(768.584 988.234)" fill="none" stroke="#002744" stroke-linecap="round" stroke-linejoin="round" stroke-width="0.75"/>
    <line id="Línea_6380" data-name="Línea 6380" y1="1.393" x2="1.393" transform="translate(769.78 986.574)" fill="none" stroke="#002744" stroke-linecap="round" stroke-linejoin="round" stroke-width="0.75"/>
    <line id="Línea_6381" data-name="Línea 6381" x2="4.471" transform="translate(802.808 976.412)" fill="none" stroke="#002744" stroke-linecap="round" stroke-miterlimit="10" stroke-width="0.75"/>
    <line id="Línea_6382" data-name="Línea 6382" x2="4.471" transform="translate(803.748 978.801)" fill="none" stroke="#002744" stroke-linecap="round" stroke-miterlimit="10" stroke-width="0.75"/>
    <rect id="Rectángulo_3480" data-name="Rectángulo 3480" width="1.616" height="6.661" rx="0.594" transform="translate(805.353 981.93)" fill="none" stroke="#002744" stroke-linecap="round" stroke-miterlimit="10" stroke-width="0.75"/>
    <path id="Trazado_18881" data-name="Trazado 18881" d="M30.136,27.681c.018.062,2.946-3.246,2.946-3.246l1.164.6-3.311,3.9Z" transform="translate(756 951)" fill="#ff895a"/>
    <path id="Trazado_18882" data-name="Trazado 18882" d="M34.616,25.411c.027.038-2.945,3.976-2.945,3.976h.73l2.769-3.464Z" transform="translate(756 951)" fill="#ff895a"/>
    <path id="Trazado_18883" data-name="Trazado 18883" d="M35.17,27a2.564,2.564,0,1,1-2.564-2.564A2.564,2.564,0,0,1,35.17,27Z" transform="translate(756 951)" fill="none" stroke="#002744" stroke-linecap="round" stroke-miterlimit="10" stroke-width="0.75"/>
  </g>
</svg>
