<svg xmlns="http://www.w3.org/2000/svg" width="60" height="60" viewBox="0 0 60 60">
  <g id="Illustration_OtherSpace" transform="translate(0)">
    <g id="Grupo_2359" data-name="Grupo 2359" transform="translate(-944.775 -189)">
      <path id="Trazado_17514" data-name="Trazado 17514" d="M150.346,0H193.2a8.572,8.572,0,0,1,8.572,8.571V51.429A8.572,8.572,0,0,1,193.2,60H150.346a8.571,8.571,0,0,1-8.571-8.571V8.571A8.571,8.571,0,0,1,150.346,0" transform="translate(803 189)" fill="#cee6ad"/>
      <path id="Trazado_17515" data-name="Trazado 17515" d="M152.2,49.5h-3.047a1.347,1.347,0,0,1-1.346-1.347V43.2a.353.353,0,0,1,.353-.353h5.033a.354.354,0,0,1,.354.353v4.957A1.347,1.347,0,0,1,152.2,49.5" transform="translate(803 189)" fill="#fe5000"/>
      <path id="Trazado_17516" data-name="Trazado 17516" d="M156.122,29.979a45.446,45.446,0,0,0-3.764,5.412h0a65.832,65.832,0,0,0-1.718-8.11A65.6,65.6,0,0,0,149.09,35.4h0a45.379,45.379,0,0,0-3.763-5.412,50.677,50.677,0,0,0,3.147,12.39h.123c0,.117-.005.233-.005.351h4.357c0-.12-.005-.238-.006-.357h.036a50.729,50.729,0,0,0,3.147-12.39" transform="translate(803 189)" fill="#ceef9e"/>
      <path id="Trazado_17517" data-name="Trazado 17517" d="M148.544,42.725a65.858,65.858,0,0,1,2.05-15.445A62.518,62.518,0,0,1,152.9,42.725" transform="translate(803 189)" fill="none" stroke="#002744" stroke-linecap="round" stroke-linejoin="round" stroke-width="0.75"/>
      <path id="Trazado_17518" data-name="Trazado 17518" d="M152.314,35.39a45.48,45.48,0,0,1,3.764-5.411,50.716,50.716,0,0,1-3.147,12.389" transform="translate(803 189)" fill="none" stroke="#002744" stroke-linecap="round" stroke-linejoin="round" stroke-width="0.75"/>
      <path id="Trazado_17519" data-name="Trazado 17519" d="M149.042,35.4a45.447,45.447,0,0,0-3.764-5.412,50.73,50.73,0,0,0,3.147,12.39" transform="translate(803 189)" fill="none" stroke="#002744" stroke-linecap="round" stroke-linejoin="round" stroke-width="0.75"/>
      <path id="Trazado_17520" data-name="Trazado 17520" d="M152.2,49.5h-3.047a1.347,1.347,0,0,1-1.346-1.347V43.2a.353.353,0,0,1,.353-.353h5.033a.354.354,0,0,1,.354.353v4.957A1.347,1.347,0,0,1,152.2,49.5Z" transform="translate(803 189)" fill="none" stroke="#002744" stroke-linecap="round" stroke-linejoin="round" stroke-width="0.75"/>
      <line id="Línea_5920" data-name="Línea 5920" x2="3.005" transform="translate(953.542 234.576)" fill="none" stroke="#002744" stroke-linecap="round" stroke-linejoin="round" stroke-width="0.75"/>
      <rect id="Rectángulo_3306" data-name="Rectángulo 3306" width="2.718" height="1.485" transform="translate(973.424 201.16)" fill="#ceef9e"/>
      <rect id="Rectángulo_3307" data-name="Rectángulo 3307" width="2.027" height="1.604" transform="translate(973.803 199.75)" fill="#ceef9e"/>
      <path id="Trazado_17521" data-name="Trazado 17521" d="M176.864,21.993H166.673a1.628,1.628,0,0,1-1.628-1.628v-.1a6.466,6.466,0,0,1,6.466-6.466h.515a6.466,6.466,0,0,1,6.466,6.466v.1a1.628,1.628,0,0,1-1.628,1.628" transform="translate(803 189)" fill="#ceef9e"/>
      <path id="Trazado_17522" data-name="Trazado 17522" d="M197.292,39.439v7.64a1.509,1.509,0,0,1-1.51,1.51h-11.84l-.62,0H169l-.4,0h-12.04a1.507,1.507,0,0,1-1.5-1.51v-7.7a1.632,1.632,0,0,1,1.63-1.64h.87v-1.72a5.348,5.348,0,0,1,5.34-5.35h26.74a5.356,5.356,0,0,1,5.35,5.35V37.8h.66a1.635,1.635,0,0,1,1.64,1.64" transform="translate(803 189)" fill="#ff895a"/>
      <path id="Trazado_17523" data-name="Trazado 17523" d="M173.05,44.456H161.344a1.3,1.3,0,0,1-1.3-1.3V41.623a1.3,1.3,0,0,1,1.3-1.3H173.05a1.3,1.3,0,0,1,1.3,1.3V43.16a1.3,1.3,0,0,1-1.3,1.3" transform="translate(803 189)" fill="#fe5000"/>
      <path id="Trazado_17524" data-name="Trazado 17524" d="M187.733,44.456H176.027a1.3,1.3,0,0,1-1.3-1.3V41.623a1.3,1.3,0,0,1,1.3-1.3h11.706a1.3,1.3,0,0,1,1.3,1.3V43.16a1.3,1.3,0,0,1-1.3,1.3" transform="translate(803 189)" fill="#fe5000"/>
      <path id="Trazado_17525" data-name="Trazado 17525" d="M197.292,39.439v7.64a1.509,1.509,0,0,1-1.51,1.51h-3.3l-.17-.04s1.83-.54,1.83-1.46v-7.07c0-1.84-.76-2.31-2.49-2.31,0-4.68-2.37-7.04-4.98-7.04h2.97a5.356,5.356,0,0,1,5.35,5.35V37.8h.66a1.635,1.635,0,0,1,1.64,1.64" transform="translate(803 189)" fill="#fe5000"/>
      <path id="Trazado_17526" data-name="Trazado 17526" d="M158.414,48.585h-1.723a1.633,1.633,0,0,1-1.633-1.634v-7.6a1.633,1.633,0,0,1,1.633-1.633h1.723a1.634,1.634,0,0,1,1.634,1.633v6.943" transform="translate(803 189)" fill="none" stroke="#002744" stroke-linecap="round" stroke-miterlimit="10" stroke-width="0.75"/>
      <line id="Línea_5921" data-name="Línea 5921" x1="2.522" transform="translate(962.539 237.584)" fill="none" stroke="#002744" stroke-linecap="round" stroke-miterlimit="10" stroke-width="0.75"/>
      <line id="Línea_5922" data-name="Línea 5922" x2="26.347" transform="translate(964.429 233.455)" fill="none" stroke="#002744" stroke-linecap="round" stroke-miterlimit="10" stroke-width="0.75"/>
      <rect id="Rectángulo_3308" data-name="Rectángulo 3308" width="14.554" height="4.128" rx="1.547" transform="translate(963.048 229.328)" fill="none" stroke="#002744" stroke-linecap="round" stroke-miterlimit="10" stroke-width="0.75"/>
      <rect id="Rectángulo_3309" data-name="Rectángulo 3309" width="14.554" height="4.128" rx="1.547" transform="translate(977.603 229.328)" fill="none" stroke="#002744" stroke-linecap="round" stroke-miterlimit="10" stroke-width="0.75"/>
      <path id="Trazado_17527" data-name="Trazado 17527" d="M157.553,37.712V36.255a5.584,5.584,0,0,1,5.583-5.583h22.933a5.584,5.584,0,0,1,5.583,5.583v1.457" transform="translate(803 189)" fill="none" stroke="#002744" stroke-linecap="round" stroke-miterlimit="10" stroke-width="0.75"/>
      <path id="Trazado_17528" data-name="Trazado 17528" d="M164.236,30.673h25.55a5.253,5.253,0,0,1,5.252,5.252v1.788" transform="translate(803 189)" fill="none" stroke="#002744" stroke-linecap="round" stroke-miterlimit="10" stroke-width="0.75"/>
      <path id="Trazado_17529" data-name="Trazado 17529" d="M163.531,48.585h28.983a1.633,1.633,0,0,0,1.633-1.634v-7.6a1.633,1.633,0,0,0-1.633-1.633h-1.723a1.634,1.634,0,0,0-1.634,1.633v7.1" transform="translate(803 189)" fill="none" stroke="#002744" stroke-linecap="round" stroke-miterlimit="10" stroke-width="0.75"/>
      <path id="Trazado_17530" data-name="Trazado 17530" d="M192.781,37.712h2.881a1.644,1.644,0,0,1,1.634,1.652v7.568a1.643,1.643,0,0,1-1.634,1.652h-2.881" transform="translate(803 189)" fill="none" stroke="#002744" stroke-linecap="round" stroke-miterlimit="10" stroke-width="0.75"/>
      <path id="Trazado_17531" data-name="Trazado 17531" d="M157.838,48.584a6.437,6.437,0,0,0-1.169,3.608c-.557,0-.913.274-.913.586s.276.517.78.517h.894a.547.547,0,0,0,.53-.493c.208-1.506,1.6-3.136,2.707-4.218" transform="translate(803 189)" fill="none" stroke="#002744" stroke-linecap="round" stroke-miterlimit="10" stroke-width="0.75"/>
      <path id="Trazado_17532" data-name="Trazado 17532" d="M191.292,48.584a6.437,6.437,0,0,1,1.169,3.608c.557,0,.913.274.913.586s-.276.517-.78.517H191.7a.547.547,0,0,1-.531-.493c-.208-1.506-1.6-3.136-2.707-4.218" transform="translate(803 189)" fill="none" stroke="#002744" stroke-linecap="round" stroke-miterlimit="10" stroke-width="0.75"/>
      <path id="Trazado_17533" data-name="Trazado 17533" d="M177.094,21.993H166.426a1.4,1.4,0,0,1-1.4-1.4V20.25a6.448,6.448,0,0,1,6.448-6.448h.567a6.449,6.449,0,0,1,6.448,6.448v.345A1.4,1.4,0,0,1,177.094,21.993Z" transform="translate(803 189)" fill="none" stroke="#002744" stroke-linecap="round" stroke-miterlimit="10" stroke-width="0.75"/>
      <path id="Trazado_17534" data-name="Trazado 17534" d="M172.5,13.8h-1.478a.821.821,0,0,1,0-1.641H172.5a.821.821,0,0,1,0,1.641Z" transform="translate(803 189)" fill="none" stroke="#002744" stroke-linecap="round" stroke-miterlimit="10" stroke-width="0.75"/>
      <path id="Trazado_17535" data-name="Trazado 17535" d="M172.841,12.161H170.68a.164.164,0,0,1-.164-.163v-.221a1.244,1.244,0,1,1,2.488,0V12A.163.163,0,0,1,172.841,12.161Z" transform="translate(803 189)" fill="none" stroke="#002744" stroke-linecap="round" stroke-miterlimit="10" stroke-width="0.75"/>
      <line id="Línea_5923" data-name="Línea 5923" y1="4.996" transform="translate(974.76 194.537)" fill="none" stroke="#002744" stroke-linecap="round" stroke-miterlimit="10" stroke-width="0.75"/>
      <line id="Línea_5924" data-name="Línea 5924" x2="9.067" transform="translate(972.296 208.822)" fill="none" stroke="#002744" stroke-linecap="round" stroke-miterlimit="10" stroke-width="0.75"/>
      <line id="Línea_5925" data-name="Línea 5925" x2="0.29" transform="translate(970.849 208.822)" fill="none" stroke="#002744" stroke-linecap="round" stroke-miterlimit="10" stroke-width="0.75"/>
      <line id="Línea_5926" data-name="Línea 5926" x2="1.512" transform="translate(968.045 208.822)" fill="none" stroke="#002744" stroke-linecap="round" stroke-miterlimit="10" stroke-width="0.75"/>
    </g>
  </g>
</svg>
