<svg id="illustration_ViajesNegocios" xmlns="http://www.w3.org/2000/svg" width="60" height="60" viewBox="0 0 60 60">
  <g id="Grupo_2448" data-name="Grupo 2448" transform="translate(-740.265 -566)">
    <path id="Trazado_18410" data-name="Trazado 18410" d="M8.571,0H51.428A8.572,8.572,0,0,1,60,8.571V51.429A8.572,8.572,0,0,1,51.428,60H8.571A8.571,8.571,0,0,1,0,51.429V8.571A8.571,8.571,0,0,1,8.571,0" transform="translate(740.265 566)" fill="#eef9ed"/>
    <rect id="Rectángulo_3449" data-name="Rectángulo 3449" width="7.931" height="1.308" transform="translate(753.774 575.166)" fill="#ff895a"/>
    <path id="Trazado_18411" data-name="Trazado 18411" d="M22.559,43.514H12.951a4.891,4.891,0,0,1-4.89-4.891V21.838a4.891,4.891,0,0,1,4.89-4.891h9.608a4.891,4.891,0,0,1,4.89,4.891V38.623a4.891,4.891,0,0,1-4.89,4.891" transform="translate(740.265 566)" fill="#ff895a"/>
    <path id="Trazado_18412" data-name="Trazado 18412" d="M27.449,21.19V39.275a4.242,4.242,0,0,1-4.241,4.241H20.97a3.7,3.7,0,0,0,3.7-3.7V20.652a3.7,3.7,0,0,0-3.7-3.7h2.238a4.243,4.243,0,0,1,4.241,4.242" transform="translate(740.265 566)" fill="#fe5000"/>
    <path id="Trazado_18413" data-name="Trazado 18413" d="M45.373,33.81l.026,0h-.046a1.645,1.645,0,0,0-.187-.019H31.137a1.765,1.765,0,0,0-1.765,1.765v8.191a1.765,1.765,0,0,0,1.765,1.765H45.166a1.765,1.765,0,0,0,1.765-1.765V35.554a1.759,1.759,0,0,0-1.558-1.744" transform="translate(740.265 566)" fill="#cee6ad"/>
    <path id="Trazado_18414" data-name="Trazado 18414" d="M18.046,16.946h2.721a3.7,3.7,0,0,1,3.7,3.7V39.809a3.7,3.7,0,0,1-3.7,3.7H18.046" transform="translate(740.265 566)" fill="none" stroke="#002744" stroke-linecap="round" stroke-miterlimit="10" stroke-width="0.75"/>
    <rect id="Rectángulo_3450" data-name="Rectángulo 3450" width="8.469" height="1.563" rx="0.669" transform="translate(753.58 575.016)" fill="none" stroke="#002744" stroke-linecap="round" stroke-miterlimit="10" stroke-width="0.75"/>
    <line id="Línea_6259" data-name="Línea 6259" y2="6.367" transform="translate(754.998 576.578)" fill="none" stroke="#002744" stroke-linecap="round" stroke-miterlimit="10" stroke-width="0.75"/>
    <line id="Línea_6260" data-name="Línea 6260" y2="6.367" transform="translate(760.632 576.578)" fill="none" stroke="#002744" stroke-linecap="round" stroke-miterlimit="10" stroke-width="0.75"/>
    <path id="Trazado_18415" data-name="Trazado 18415" d="M11.907,39.287h0a.846.846,0,0,1-.846-.846V24.983a.846.846,0,1,1,1.692,0V38.441A.846.846,0,0,1,11.907,39.287Z" transform="translate(740.265 566)" fill="none" stroke="#002744" stroke-linecap="round" stroke-miterlimit="10" stroke-width="0.75"/>
    <path id="Trazado_18416" data-name="Trazado 18416" d="M16.074,39.287h0a.846.846,0,0,1-.846-.846V24.983a.847.847,0,0,1,1.693,0V38.441A.847.847,0,0,1,16.074,39.287Z" transform="translate(740.265 566)" fill="none" stroke="#002744" stroke-linecap="round" stroke-miterlimit="10" stroke-width="0.75"/>
    <path id="Trazado_18417" data-name="Trazado 18417" d="M20.241,39.287h0a.846.846,0,0,1-.846-.846V24.983a.846.846,0,0,1,1.693,0V38.441A.847.847,0,0,1,20.241,39.287Z" transform="translate(740.265 566)" fill="none" stroke="#002744" stroke-linecap="round" stroke-miterlimit="10" stroke-width="0.75"/>
    <path id="Trazado_18418" data-name="Trazado 18418" d="M12.864,46.175h0a1.257,1.257,0,0,1-1.257-1.257v-.149a1.257,1.257,0,0,1,2.514,0v.149A1.257,1.257,0,0,1,12.864,46.175Z" transform="translate(740.265 566)" fill="none" stroke="#002744" stroke-linecap="round" stroke-miterlimit="10" stroke-width="0.75"/>
    <path id="Trazado_18419" data-name="Trazado 18419" d="M13.271,43.513h.494a1.256,1.256,0,0,1,1.256,1.257v.149a1.256,1.256,0,0,1-1.256,1.256h-.9" transform="translate(740.265 566)" fill="none" stroke="#002744" stroke-linecap="round" stroke-miterlimit="10" stroke-width="0.75"/>
    <path id="Trazado_18420" data-name="Trazado 18420" d="M21.336,46.175h0a1.257,1.257,0,0,1-1.257-1.257v-.149a1.257,1.257,0,0,1,2.514,0v.149A1.257,1.257,0,0,1,21.336,46.175Z" transform="translate(740.265 566)" fill="none" stroke="#002744" stroke-linecap="round" stroke-miterlimit="10" stroke-width="0.75"/>
    <path id="Trazado_18421" data-name="Trazado 18421" d="M21.743,43.513h.494a1.256,1.256,0,0,1,1.256,1.257v.149a1.256,1.256,0,0,1-1.256,1.256h-.9" transform="translate(740.265 566)" fill="none" stroke="#002744" stroke-linecap="round" stroke-miterlimit="10" stroke-width="0.75"/>
    <path id="Trazado_18422" data-name="Trazado 18422" d="M42.493,33.789H31.214a1.766,1.766,0,0,0-1.766,1.765v8.19a1.766,1.766,0,0,0,1.766,1.766H42.493a1.766,1.766,0,0,0,1.765-1.766v-8.19c0-1.476.64-1.746,1.217-1.746" transform="translate(740.265 566)" fill="none" stroke="#002744" stroke-linecap="round" stroke-miterlimit="10" stroke-width="0.75"/>
    <path id="Trazado_18423" data-name="Trazado 18423" d="M44.258,36V37.37a2.714,2.714,0,0,1-2.713,2.714H32.161a2.714,2.714,0,0,1-2.713-2.714V36" transform="translate(740.265 566)" fill="none" stroke="#002744" stroke-linecap="round" stroke-miterlimit="10" stroke-width="0.75"/>
    <path id="Trazado_18424" data-name="Trazado 18424" d="M38.694,33.789h6.548a1.765,1.765,0,0,1,1.765,1.765v8.19a1.766,1.766,0,0,1-1.765,1.766H38.694" transform="translate(740.265 566)" fill="none" stroke="#002744" stroke-linecap="round" stroke-miterlimit="10" stroke-width="0.75"/>
    <line id="Línea_6261" data-name="Línea 6261" x2="2.908" transform="translate(775.508 606.994)" fill="none" stroke="#002744" stroke-linecap="round" stroke-miterlimit="10" stroke-width="0.75"/>
    <path id="Trazado_18425" data-name="Trazado 18425" d="M35.96,40.995v1.454a.673.673,0,0,0,.673.673h.156a.673.673,0,0,0,.673-.673V40.995" transform="translate(740.265 566)" fill="none" stroke="#002744" stroke-linecap="round" stroke-miterlimit="10" stroke-width="0.75"/>
    <path id="Trazado_18426" data-name="Trazado 18426" d="M39.946,31.749H35.8a.8.8,0,0,0-.8.8v1.244h1.1v-.738a.2.2,0,0,1,.2-.2H39.36a.2.2,0,0,1,.2.2v.738h1.056V32.422A.673.673,0,0,0,39.946,31.749Z" transform="translate(740.265 566)" fill="none" stroke="#002744" stroke-linecap="round" stroke-miterlimit="10" stroke-width="0.75"/>
    <line id="Línea_6262" data-name="Línea 6262" y1="0.53" transform="translate(748.121 591.641)" fill="none" stroke="#002744" stroke-linecap="round" stroke-miterlimit="10" stroke-width="0.75"/>
    <path id="Trazado_18427" data-name="Trazado 18427" d="M7.856,23.054V21.188A4.243,4.243,0,0,1,12.1,16.945H23a4.243,4.243,0,0,1,4.243,4.243V39.27A4.243,4.243,0,0,1,23,43.512H12.1A4.242,4.242,0,0,1,7.856,39.27V27.645" transform="translate(740.265 566)" fill="none" stroke="#002744" stroke-linecap="round" stroke-miterlimit="10" stroke-width="0.75"/>
    <path id="Trazado_18428" data-name="Trazado 18428" d="M45.091,50.984H6.792a2.4,2.4,0,1,1,0-4.809h38.3a2.4,2.4,0,0,1,0,4.809Z" transform="translate(740.265 566)" fill="none" stroke="#002744" stroke-linecap="round" stroke-miterlimit="10" stroke-width="0.75"/>
    <path id="Trazado_18429" data-name="Trazado 18429" d="M13.164,46.175h41.28a2.4,2.4,0,1,1,0,4.809H13.164" transform="translate(740.265 566)" fill="none" stroke="#002744" stroke-linecap="round" stroke-miterlimit="10" stroke-width="0.75"/>
    <path id="Trazado_18430" data-name="Trazado 18430" d="M44.749,49.333H7.134a.754.754,0,1,1,0-1.507H44.749a.754.754,0,0,1,0,1.507" transform="translate(740.265 566)" fill="#cee6ad"/>
  </g>
</svg>
