<svg xmlns="http://www.w3.org/2000/svg" width="60" height="60" viewBox="0 0 60 60">
  <g id="Illustration_office" transform="translate(0)">
    <path id="Trazado_17748" data-name="Trazado 17748" d="M221.377,0h42.857a8.572,8.572,0,0,1,8.572,8.571V51.429A8.572,8.572,0,0,1,264.234,60H221.377a8.571,8.571,0,0,1-8.571-8.571V8.571A8.571,8.571,0,0,1,221.377,0" transform="translate(-212.806)" fill="#f7f9f7"/>
    <path id="Trazado_17749" data-name="Trazado 17749" d="M262.352,30.189v3.089h-.939V54.032h3.123a2.993,2.993,0,0,0,2.992-2.992V30.189Z" transform="translate(-212.806)" fill="#c6cccb"/>
    <path id="Trazado_17750" data-name="Trazado 17750" d="M267.465,31.965V51.041A3.063,3.063,0,0,1,264.4,54.1h-14.36V33.471" transform="translate(-212.806)" fill="none" stroke="#002744" stroke-linecap="round" stroke-miterlimit="10" stroke-width="0.75"/>
    <line id="Línea_5985" data-name="Línea 5985" y2="20.633" transform="translate(48.514 33.471)" fill="none" stroke="#002744" stroke-linecap="round" stroke-miterlimit="10" stroke-width="0.75"/>
    <line id="Línea_5986" data-name="Línea 5986" x2="11.278" transform="translate(37.236 39.277)" fill="none" stroke="#002744" stroke-linecap="round" stroke-miterlimit="10" stroke-width="0.75"/>
    <line id="Línea_5987" data-name="Línea 5987" x2="11.278" transform="translate(37.236 45.148)" fill="none" stroke="#002744" stroke-linecap="round" stroke-miterlimit="10" stroke-width="0.75"/>
    <path id="Trazado_17751" data-name="Trazado 17751" d="M256.234,36.374a.933.933,0,1,1-.932-.932.932.932,0,0,1,.932.932" transform="translate(-212.806)" fill="#002744"/>
    <path id="Trazado_17752" data-name="Trazado 17752" d="M256.234,42.213a.933.933,0,1,1-.932-.932.932.932,0,0,1,.932.932" transform="translate(-212.806)" fill="#002744"/>
    <path id="Trazado_17753" data-name="Trazado 17753" d="M256.234,48.472a.933.933,0,1,1-.932-.932.932.932,0,0,1,.932.932" transform="translate(-212.806)" fill="#002744"/>
    <rect id="Rectángulo_3381" data-name="Rectángulo 3381" width="37.302" height="3.012" rx="0.786" transform="translate(17.329 30.338)" fill="none" stroke="#002744" stroke-linecap="round" stroke-miterlimit="10" stroke-width="0.75"/>
    <path id="Trazado_17754" data-name="Trazado 17754" d="M261.522,30.339a.786.786,0,0,1,.786.786v1.44a.786.786,0,0,1-.786.786" transform="translate(-212.806)" fill="none" stroke="#002744" stroke-linecap="round" stroke-miterlimit="10" stroke-width="0.75"/>
    <rect id="Rectángulo_3382" data-name="Rectángulo 3382" width="27.455" height="19.451" transform="translate(24.786 5.896)" fill="#eef9ed"/>
    <rect id="Rectángulo_3383" data-name="Rectángulo 3383" width="4.379" height="2.47" transform="translate(35.785 25.635)" fill="#eef9ed"/>
    <rect id="Rectángulo_3384" data-name="Rectángulo 3384" width="5.013" height="1.72" transform="translate(29.657 28.43)" fill="#eef9ed"/>
    <path id="Trazado_17755" data-name="Trazado 17755" d="M255.3,25.344h-1.936l-.2,2.9-5.6.315-.092,1.711,6.915-.124.638-.86h.272Z" transform="translate(-212.806)" fill="#c6cccb"/>
    <rect id="Rectángulo_3385" data-name="Rectángulo 3385" width="2.884" height="19.244" transform="translate(49.502 6.104)" fill="#c6cccb"/>
    <path id="Trazado_17756" data-name="Trazado 17756" d="M239.165,21.833,250.358,6.1h3.177L242.482,21.833Z" transform="translate(-212.806)" fill="#c6cccb"/>
    <path id="Trazado_17757" data-name="Trazado 17757" d="M255.451,6.1h3.163l-10.022,9.753Z" transform="translate(-212.806)" fill="#c6cccb"/>
    <path id="Trazado_17758" data-name="Trazado 17758" d="M237.447,16.712v4.206h.668L248.591,6.1H244.76Z" transform="translate(-212.806)" fill="#c6cccb"/>
    <rect id="Rectángulo_3386" data-name="Rectángulo 3386" width="27.744" height="19.608" rx="1" transform="translate(24.641 5.896)" fill="none" stroke="#002744" stroke-linecap="round" stroke-miterlimit="10" stroke-width="0.75"/>
    <path id="Trazado_17759" data-name="Trazado 17759" d="M263.843,5.9c-1.052,0-1.379.531-1.379,1.185V24.319a1.186,1.186,0,0,1-1.186,1.185" transform="translate(-212.806)" fill="none" stroke="#002744" stroke-linecap="round" stroke-miterlimit="10" stroke-width="0.75"/>
    <path id="Trazado_17760" data-name="Trazado 17760" d="M253.247,25.5v2.6a.179.179,0,0,1-.179.179h-4.722a1.028,1.028,0,1,0,0,2.055h5.2a1.757,1.757,0,0,0,1.757-1.757V25.5Z" transform="translate(-212.806)" fill="none" stroke="#002744" stroke-linecap="round" stroke-miterlimit="10" stroke-width="0.75"/>
    <line id="Línea_5988" data-name="Línea 5988" y2="2.601" transform="translate(35.786 25.504)" fill="none" stroke="#002744" stroke-linecap="round" stroke-miterlimit="10" stroke-width="0.75"/>
    <path id="Trazado_17761" data-name="Trazado 17761" d="M250.811,28.283h-7.464a1.027,1.027,0,1,0,0,2.055h7.643" transform="translate(-212.806)" fill="none" stroke="#002744" stroke-linecap="round" stroke-miterlimit="10" stroke-width="0.75"/>
    <path id="Trazado_17762" data-name="Trazado 17762" d="M247.057,21.816H264.9" transform="translate(-212.806)" fill="none" stroke="#002744" stroke-linecap="round" stroke-miterlimit="10" stroke-width="0.75"/>
    <line id="Línea_5989" data-name="Línea 5989" x2="0.686" transform="translate(31.162 21.834)" fill="none" stroke="#002744" stroke-linecap="round" stroke-miterlimit="10" stroke-width="0.75"/>
    <line id="Línea_5990" data-name="Línea 5990" x2="4.699" transform="translate(24.642 21.816)" fill="none" stroke="#002744" stroke-linecap="round" stroke-miterlimit="10" stroke-width="0.75"/>
    <rect id="Rectángulo_3387" data-name="Rectángulo 3387" width="1.814" height="2.086" transform="translate(4.842 51.641)" fill="#eef9ed"/>
    <rect id="Rectángulo_3388" data-name="Rectángulo 3388" width="1.814" height="2.086" transform="translate(14.824 51.641)" fill="#eef9ed"/>
    <rect id="Rectángulo_3389" data-name="Rectángulo 3389" width="1.814" height="2.086" transform="translate(20.594 51.641)" fill="#eef9ed"/>
    <rect id="Rectángulo_3390" data-name="Rectángulo 3390" width="2.027" height="6.149" transform="translate(12.633 43.496)" fill="#eef9ed"/>
    <rect id="Rectángulo_3391" data-name="Rectángulo 3391" width="16.564" height="1.559" transform="translate(4.928 48.285)" fill="#eef9ed"/>
    <path id="Trazado_17763" data-name="Trazado 17763" d="M225.906,34.45h2.161a2.58,2.58,0,0,0,2.58-2.579v-11.4a3.189,3.189,0,0,0-3.19-3.189h-.466a5.564,5.564,0,0,0-5.565,5.565V29.97a4.48,4.48,0,0,0,4.48,4.48" transform="translate(-212.806)" fill="#eef9ed"/>
    <path id="Trazado_17764" data-name="Trazado 17764" d="M221.831,43.332h9.2a2.283,2.283,0,0,0,2.283-2.283v-.761a2.283,2.283,0,0,0-2.283-2.283h-9.2a2.283,2.283,0,0,0-2.283,2.283v.761a2.283,2.283,0,0,0,2.283,2.283" transform="translate(-212.806)" fill="#eef9ed"/>
    <path id="Trazado_17765" data-name="Trazado 17765" d="M219.548,40.927V27.939a3.745,3.745,0,0,1,1.877-3.246V38.934l-1.842,2.346Z" transform="translate(-212.806)" fill="#eef9ed"/>
    <path id="Trazado_17766" data-name="Trazado 17766" d="M227.687,17.517a5.388,5.388,0,0,1,.72,3.5l-.116,12.649-.361.779s2.63.13,2.63-1.94V19.758c0-1.523-2.873-2.241-2.873-2.241" transform="translate(-212.806)" fill="#c6cccb"/>
    <path id="Trazado_17767" data-name="Trazado 17767" d="M229.515,38.371a3.4,3.4,0,0,1,3.441.563c.593.814,1.1,4.353-1.721,4.375-1.691.022-1.49-.238-1.331-1.1a7.217,7.217,0,0,0-.389-3.842" transform="translate(-212.806)" fill="#c6cccb"/>
    <path id="Trazado_17768" data-name="Trazado 17768" d="M225.906,34.45h2.161a2.58,2.58,0,0,0,2.58-2.579v-11.4a3.189,3.189,0,0,0-3.19-3.189h-.466a5.564,5.564,0,0,0-5.565,5.565V29.97A4.48,4.48,0,0,0,225.906,34.45Z" transform="translate(-212.806)" fill="none" stroke="#002744" stroke-linecap="round" stroke-miterlimit="10" stroke-width="0.75"/>
    <path id="Trazado_17769" data-name="Trazado 17769" d="M226.968,17.287c1.2,0,1.439,1.423,1.439,2.372V32.885c0,1-.359,1.565-1.439,1.565" transform="translate(-212.806)" fill="none" stroke="#002744" stroke-linecap="round" stroke-miterlimit="10" stroke-width="0.75"/>
    <rect id="Rectángulo_3392" data-name="Rectángulo 3392" width="13.765" height="5.327" rx="2.283" transform="translate(6.742 38.004)" fill="none" stroke="#002744" stroke-linecap="round" stroke-miterlimit="10" stroke-width="0.75"/>
    <path id="Trazado_17770" data-name="Trazado 17770" d="M228.929,38.005c1.564,0,1.564,5.327,0,5.327" transform="translate(-212.806)" fill="none" stroke="#002744" stroke-linecap="round" stroke-miterlimit="10" stroke-width="0.75"/>
    <path id="Trazado_17771" data-name="Trazado 17771" d="M221.425,24.693h0a3.745,3.745,0,0,0-1.877,3.245V40.927" transform="translate(-212.806)" fill="none" stroke="#002744" stroke-linecap="round" stroke-miterlimit="10" stroke-width="0.75"/>
    <line id="Línea_5991" data-name="Línea 5991" y2="9.265" transform="translate(8.639 28.793)" fill="none" stroke="#002744" stroke-linecap="round" stroke-miterlimit="10" stroke-width="0.75"/>
    <path id="Trazado_17772" data-name="Trazado 17772" d="M218.1,50.055H233.93a.651.651,0,0,0,.651-.651v-.1a1.239,1.239,0,0,0-1.24-1.239h-14.65a1.239,1.239,0,0,0-1.239,1.239v.1A.651.651,0,0,0,218.1,50.055Z" transform="translate(-212.806)" fill="none" stroke="#002744" stroke-linecap="round" stroke-miterlimit="10" stroke-width="0.75"/>
    <path id="Rectángulo_3393" data-name="Rectángulo 3393" d="M1.047,0h.111A1.048,1.048,0,0,1,2.206,1.048v.533A1.047,1.047,0,0,1,1.159,2.628H1.047A1.047,1.047,0,0,1,0,1.581V1.047A1.047,1.047,0,0,1,1.047,0Z" transform="translate(20.398 51.369)" fill="none" stroke="#002744" stroke-linecap="round" stroke-miterlimit="10" stroke-width="0.75"/>
    <path id="Rectángulo_3394" data-name="Rectángulo 3394" d="M1.047,0h.111A1.048,1.048,0,0,1,2.206,1.048v.533A1.047,1.047,0,0,1,1.159,2.628H1.047A1.047,1.047,0,0,1,0,1.581V1.047A1.047,1.047,0,0,1,1.047,0Z" transform="translate(14.65 51.369)" fill="none" stroke="#002744" stroke-linecap="round" stroke-miterlimit="10" stroke-width="0.75"/>
    <path id="Rectángulo_3395" data-name="Rectángulo 3395" d="M1.047,0h.111A1.048,1.048,0,0,1,2.206,1.048v.533A1.047,1.047,0,0,1,1.159,2.628H1.047A1.047,1.047,0,0,1,0,1.581V1.047A1.047,1.047,0,0,1,1.047,0Z" transform="translate(4.646 51.369)" fill="none" stroke="#002744" stroke-linecap="round" stroke-miterlimit="10" stroke-width="0.75"/>
    <rect id="Rectángulo_3396" data-name="Rectángulo 3396" width="2.206" height="4.733" transform="translate(12.522 43.332)" fill="none" stroke="#002744" stroke-linecap="round" stroke-miterlimit="10" stroke-width="0.75"/>
    <line id="Línea_5992" data-name="Línea 5992" y2="16.533" transform="translate(21.814 33.625)" fill="none" stroke="#002744" stroke-linecap="round" stroke-miterlimit="10" stroke-width="0.75"/>
    <line id="Línea_5993" data-name="Línea 5993" y1="1.247" transform="translate(21.814 50.156)" fill="none" stroke="#002744" stroke-linecap="round" stroke-miterlimit="10" stroke-width="0.75"/>
    <path id="Trazado_17773" data-name="Trazado 17773" d="M231.761,50.269v3.643h2.076" transform="translate(-212.806)" fill="none" stroke="#002744" stroke-linecap="round" stroke-miterlimit="10" stroke-width="0.75"/>
    <line id="Línea_5994" data-name="Línea 5994" y2="4.569" transform="translate(18.955 43.496)" fill="none" stroke="#002744" stroke-linecap="round" stroke-miterlimit="10" stroke-width="0.75"/>
    <line id="Línea_5995" data-name="Línea 5995" y2="4.534" transform="translate(18.955 33.471)" fill="none" stroke="#002744" stroke-linecap="round" stroke-miterlimit="10" stroke-width="0.75"/>
  </g>
</svg>
