<svg id="illustration_HomeOffice" xmlns="http://www.w3.org/2000/svg" width="60" height="60" viewBox="0 0 60 60">
  <g id="Grupo_2494" data-name="Grupo 2494" transform="translate(-826.708 -951)">
    <path id="Trazado_18852" data-name="Trazado 18852" d="M79.279,0h42.857a8.572,8.572,0,0,1,8.572,8.571V51.429A8.572,8.572,0,0,1,122.136,60H79.279a8.571,8.571,0,0,1-8.571-8.571V8.571A8.571,8.571,0,0,1,79.279,0" transform="translate(756 951)" fill="#99d6ff"/>
    <path id="Trazado_18853" data-name="Trazado 18853" d="M97.01,51.644h21.279a4.893,4.893,0,0,0,4.893-4.892V27.875a3.719,3.719,0,0,0-1.368-2.882l-12.166-9.927a2.536,2.536,0,0,0-1.607-.573H103.4" transform="translate(756 951)" fill="#fe5000"/>
    <path id="Trazado_18854" data-name="Trazado 18854" d="M88.255,28.235v-.36a3.721,3.721,0,0,1,1.368-2.883l12.166-9.926a2.543,2.543,0,0,1,3.216,0l12.165,9.926a3.722,3.722,0,0,1,1.369,2.883V46.751a4.894,4.894,0,0,1-4.893,4.894h-20.5a4.894,4.894,0,0,1-4.893-4.894V38.7" transform="translate(756 951)" fill="#ff895a"/>
    <path id="Trazado_18855" data-name="Trazado 18855" d="M108.041,51.644H98.753V39.891a1.716,1.716,0,0,1,1.715-1.717h5.858a1.716,1.716,0,0,1,1.715,1.717Z" transform="translate(756 951)" fill="#fe5000"/>
    <path id="Trazado_18856" data-name="Trazado 18856" d="M106.1,27a2.705,2.705,0,1,1-2.7-2.7,2.7,2.7,0,0,1,2.7,2.7" transform="translate(756 951)" fill="#fe5000"/>
    <path id="Trazado_18857" data-name="Trazado 18857" d="M96.4,12.8a1.587,1.587,0,0,0-.2.02,2.544,2.544,0,0,0-3.738-1.177,3.99,3.99,0,0,0-7.917.707,3.942,3.942,0,0,0,.069.682,1.994,1.994,0,1,0-1.493,3.312H96.4a1.772,1.772,0,1,0,0-3.544" transform="translate(756 951)" fill="#ff895a"/>
    <path id="Trazado_18858" data-name="Trazado 18858" d="M90.826,33.437a6.255,6.255,0,1,1-6.255-6.255,6.254,6.254,0,0,1,6.255,6.255" transform="translate(756 951)" fill="#09f"/>
    <path id="Trazado_18859" data-name="Trazado 18859" d="M121.166,37.59h-.428a.594.594,0,0,1-.594-.594V31.523a.594.594,0,0,1,.594-.594h.428a.594.594,0,0,1,.594.594V37a.594.594,0,0,1-.594.594" transform="translate(756 951)" fill="#ff895a"/>
    <path id="Trazado_18860" data-name="Trazado 18860" d="M88.172,28.235v-.36a3.721,3.721,0,0,1,1.368-2.883l12.166-9.926a2.543,2.543,0,0,1,3.216,0l12.165,9.926a3.722,3.722,0,0,1,1.369,2.883V46.751a4.894,4.894,0,0,1-4.893,4.894h-20.5a4.894,4.894,0,0,1-4.893-4.894V38.7" transform="translate(756 951)" fill="none" stroke="#002744" stroke-linecap="round" stroke-miterlimit="10" stroke-width="0.75"/>
    <path id="Trazado_18861" data-name="Trazado 18861" d="M96.927,51.644h21.279a4.893,4.893,0,0,0,4.893-4.892V27.875a3.719,3.719,0,0,0-1.368-2.882l-12.166-9.927a2.536,2.536,0,0,0-1.607-.573h-4.645" transform="translate(756 951)" fill="none" stroke="#002744" stroke-linecap="round" stroke-miterlimit="10" stroke-width="0.75"/>
    <path id="Trazado_18862" data-name="Trazado 18862" d="M107.958,51.644H98.67V39.891a1.716,1.716,0,0,1,1.715-1.717h5.858a1.716,1.716,0,0,1,1.715,1.717Z" transform="translate(756 951)" fill="none" stroke="#002744" stroke-linecap="round" stroke-miterlimit="10" stroke-width="0.75"/>
    <path id="Trazado_18863" data-name="Trazado 18863" d="M107.45,27a4.136,4.136,0,1,1-4.136-4.136A4.136,4.136,0,0,1,107.45,27Z" transform="translate(756 951)" fill="none" stroke="#002744" stroke-linecap="round" stroke-miterlimit="10" stroke-width="0.75"/>
    <rect id="Rectángulo_3475" data-name="Rectángulo 3475" width="2.749" height="1.858" transform="translate(868.057 982.578)" fill="none" stroke="#002744" stroke-linecap="round" stroke-linejoin="round" stroke-width="0.75"/>
    <rect id="Rectángulo_3476" data-name="Rectángulo 3476" width="2.749" height="1.858" transform="translate(869.732 984.438)" fill="none" stroke="#002744" stroke-linecap="round" stroke-linejoin="round" stroke-width="0.75"/>
    <line id="Línea_6367" data-name="Línea 6367" x1="0.316" transform="translate(866.507 986.295)" fill="none" stroke="#002744" stroke-linecap="round" stroke-miterlimit="10" stroke-width="0.75"/>
    <line id="Línea_6368" data-name="Línea 6368" x1="1.492" transform="translate(868.24 986.295)" fill="none" stroke="#002744" stroke-linecap="round" stroke-miterlimit="10" stroke-width="0.75"/>
    <path id="Trazado_18864" data-name="Trazado 18864" d="M96.32,12.8a1.587,1.587,0,0,0-.2.02,2.544,2.544,0,0,0-3.738-1.177,3.99,3.99,0,0,0-7.917.707,3.942,3.942,0,0,0,.069.682,1.994,1.994,0,1,0-1.493,3.312H96.32a1.772,1.772,0,1,0,0-3.544Z" transform="translate(756 951)" fill="none" stroke="#002744" stroke-linecap="round" stroke-linejoin="round" stroke-width="0.75"/>
    <circle id="Elipse_181" data-name="Elipse 181" cx="6.255" cy="6.255" r="6.255" transform="translate(834.233 978.182)" fill="none" stroke="#002744" stroke-linecap="round" stroke-linejoin="round" stroke-width="0.75"/>
    <line id="Línea_6369" data-name="Línea 6369" y2="18.889" transform="translate(840.488 983.756)" fill="none" stroke="#002744" stroke-linecap="round" stroke-linejoin="round" stroke-width="0.75"/>
    <line id="Línea_6370" data-name="Línea 6370" x2="2.346" y2="2.346" transform="translate(838.119 984.715)" fill="none" stroke="#002744" stroke-linecap="round" stroke-linejoin="round" stroke-width="0.75"/>
    <line id="Línea_6371" data-name="Línea 6371" x2="1.173" y2="1.173" transform="translate(839.292 988.234)" fill="none" stroke="#002744" stroke-linecap="round" stroke-linejoin="round" stroke-width="0.75"/>
    <line id="Línea_6372" data-name="Línea 6372" y1="1.393" x2="1.393" transform="translate(840.488 986.574)" fill="none" stroke="#002744" stroke-linecap="round" stroke-linejoin="round" stroke-width="0.75"/>
    <line id="Línea_6373" data-name="Línea 6373" x2="4.471" transform="translate(873.516 976.412)" fill="none" stroke="#002744" stroke-linecap="round" stroke-miterlimit="10" stroke-width="0.75"/>
    <line id="Línea_6374" data-name="Línea 6374" x2="4.471" transform="translate(874.456 978.801)" fill="none" stroke="#002744" stroke-linecap="round" stroke-miterlimit="10" stroke-width="0.75"/>
    <rect id="Rectángulo_3477" data-name="Rectángulo 3477" width="1.616" height="6.661" rx="0.594" transform="translate(876.061 981.93)" fill="none" stroke="#002744" stroke-linecap="round" stroke-miterlimit="10" stroke-width="0.75"/>
    <path id="Trazado_18865" data-name="Trazado 18865" d="M100.844,27.681c.018.062,2.946-3.246,2.946-3.246l1.164.6-3.311,3.9Z" transform="translate(756 951)" fill="#ff895a"/>
    <path id="Trazado_18866" data-name="Trazado 18866" d="M105.324,25.411c.027.038-2.945,3.976-2.945,3.976h.73l2.769-3.464Z" transform="translate(756 951)" fill="#ff895a"/>
    <path id="Trazado_18867" data-name="Trazado 18867" d="M105.878,27a2.564,2.564,0,1,1-2.564-2.564A2.564,2.564,0,0,1,105.878,27Z" transform="translate(756 951)" fill="none" stroke="#002744" stroke-linecap="round" stroke-miterlimit="10" stroke-width="0.75"/>
  </g>
</svg>
