<svg id="Illustration_DeleteElement" xmlns="http://www.w3.org/2000/svg" xmlns:xlink="http://www.w3.org/1999/xlink" width="133.641" height="169.796" viewBox="0 0 133.641 169.796">
  <defs>
    <clipPath id="clip-path">
      <rect id="Rectángulo_2362" data-name="Rectángulo 2362" width="133.641" height="169.796" fill="none"/>
    </clipPath>
  </defs>
  <g id="Grupo_1495" data-name="Grupo 1495">
    <g id="Grupo_1494" data-name="Grupo 1494" clip-path="url(#clip-path)">
      <path id="Trazado_11090" data-name="Trazado 11090" d="M132.557,181.841c0,1.823-23.352,3.3-52.159,3.3s-52.159-1.477-52.159-3.3,23.352-3.3,52.159-3.3,52.159,1.477,52.159,3.3" transform="translate(-2.427 -15.344)" fill="#c6cccb"/>
      <path id="Trazado_11091" data-name="Trazado 11091" d="M126.619,90.654A63.309,63.309,0,1,1,63.309,27.345a63.309,63.309,0,0,1,63.309,63.309" transform="translate(3.511 4.672)" fill="#ff1a1a"/>
      <path id="Trazado_11092" data-name="Trazado 11092" d="M63.968,50.861h51.524a.535.535,0,0,1,.535.555L112.31,164.384a7.254,7.254,0,0,1-7.249,6.979H63.968" transform="translate(-5.498 -4.371)" fill="#c6cccb"/>
      <path id="Trazado_11093" data-name="Trazado 11093" d="M43.326,40.193h67.924a3.465,3.465,0,0,1,3.465,3.465V48.6a1.348,1.348,0,0,1-1.347,1.348H40.738" transform="translate(-3.501 -3.454)" fill="#c6cccb"/>
      <path id="Trazado_11094" data-name="Trazado 11094" d="M85.885,171.364H38.654a8.1,8.1,0,0,1-8.09-7.77L26.606,50.935l.071-.074H97.9a.139.139,0,0,1,.138.144l-3.688,112.2a8.476,8.476,0,0,1-8.469,8.155" transform="translate(-2.287 -4.371)" fill="#f7f9f7"/>
      <path id="Trazado_11095" data-name="Trazado 11095" d="M96.636,49.944H27.219a1.231,1.231,0,0,1-1.231-1.231V43.789a3.6,3.6,0,0,1,3.6-3.6H94.7a3.165,3.165,0,0,1,3.165,3.165v5.355a1.231,1.231,0,0,1-1.231,1.231" transform="translate(-2.234 -3.454)" fill="#f7f9f7"/>
      <path id="Trazado_11096" data-name="Trazado 11096" d="M46.357,180.084l1.7-23.077a5.059,5.059,0,0,1,5.044-4.685H76.378a5.058,5.058,0,0,1,5.045,4.691l1.66,22.812" transform="translate(-3.984 -13.091)" fill="#c6cccb"/>
      <path id="Trazado_11097" data-name="Trazado 11097" d="M46.3,7.783,36.86,10.2A3.555,3.555,0,0,0,34.3,14.531l4.259,22.876H46.3" transform="translate(-2.938 -0.669)" fill="#c6cccb"/>
      <path id="Trazado_11098" data-name="Trazado 11098" d="M106.467,37.395l4.259-22.877a3.556,3.556,0,0,0-2.562-4.328L98.18,7.631l3.85,3.792.135,25.972Z" transform="translate(-8.438 -0.656)" fill="#c6cccb"/>
      <path id="Trazado_11099" data-name="Trazado 11099" d="M87.6.5h-36.3a3.557,3.557,0,0,0-3.557,3.557V36.782H97.825V10.727Z" transform="translate(-4.103 -0.043)" fill="#f7f9f7"/>
      <path id="Trazado_11100" data-name="Trazado 11100" d="M101.572,10.727h-6.9A3.324,3.324,0,0,1,91.345,7.4V.5" transform="translate(-7.851 -0.043)" fill="#f7f9f7"/>
      <path id="Trazado_11101" data-name="Trazado 11101" d="M104.523,56.714h14.06l.266-5.854H104.6Z" transform="translate(-8.983 -4.371)" fill="#9ca09f"/>
      <path id="Trazado_11102" data-name="Trazado 11102" d="M97.827,56.714H26.666l-.06-5.78,71.3-.074Z" transform="translate(-2.287 -4.371)" fill="#c6cccb"/>
      <path id="Trazado_11103" data-name="Trazado 11103" d="M57.187,161.211H69.416a1.018,1.018,0,0,1,1.017,1.017v8.385a1.017,1.017,0,0,1-1.017,1.017H57.187a1.018,1.018,0,0,1-1.018-1.017v-8.385a1.018,1.018,0,0,1,1.018-1.017" transform="translate(-4.827 -13.855)" fill="#f7f9f7"/>
      <path id="Trazado_11104" data-name="Trazado 11104" d="M66.4,161.211h6.876a1.139,1.139,0,0,1,1.163,1.114v8.191a1.138,1.138,0,0,1-1.163,1.114H66.4" transform="translate(-5.707 -13.855)" fill="#f7f9f7"/>
    </g>
  </g>
  <g id="Grupo_1497" data-name="Grupo 1497">
    <g id="Grupo_1496" data-name="Grupo 1496" clip-path="url(#clip-path)">
      <path id="Trazado_11105" data-name="Trazado 11105" d="M85.951,171.364H38.72a8.1,8.1,0,0,1-8.09-7.77L26.672,50.935l.071-.074H97.971a.139.139,0,0,1,.138.144l-3.689,112.2A8.475,8.475,0,0,1,85.951,171.364Z" transform="translate(-2.292 -4.371)" fill="none" stroke="#7f8182" stroke-miterlimit="10" stroke-width="1"/>
      <path id="Trazado_11106" data-name="Trazado 11106" d="M63.46,50.861h51.524a.535.535,0,0,1,.535.555L111.8,164.384a7.254,7.254,0,0,1-7.249,6.979H63.46" transform="translate(-5.454 -4.371)" fill="none" stroke="#7f8182" stroke-miterlimit="10" stroke-width="1"/>
      <rect id="Rectángulo_2363" data-name="Rectángulo 2363" width="14.263" height="10.419" rx="1.113" transform="translate(51.403 147.355)" fill="none" stroke="#7f8182" stroke-miterlimit="10" stroke-width="1"/>
      <path id="Trazado_11107" data-name="Trazado 11107" d="M66.467,161.211h6.876a1.139,1.139,0,0,1,1.163,1.114v8.191a1.138,1.138,0,0,1-1.163,1.114H66.467" transform="translate(-5.712 -13.855)" fill="none" stroke="#7f8182" stroke-miterlimit="10" stroke-width="1"/>
      <line id="Línea_2610" data-name="Línea 2610" y1="5.502" transform="translate(62.398 149.902)" fill="none" stroke="#7f8182" stroke-linecap="round" stroke-miterlimit="10" stroke-width="1"/>
      <line id="Línea_2611" data-name="Línea 2611" y1="5.502" transform="translate(59.84 149.902)" fill="none" stroke="#7f8182" stroke-linecap="round" stroke-miterlimit="10" stroke-width="1"/>
      <line id="Línea_2612" data-name="Línea 2612" y1="5.502" transform="translate(57.282 149.902)" fill="none" stroke="#7f8182" stroke-linecap="round" stroke-miterlimit="10" stroke-width="1"/>
      <line id="Línea_2613" data-name="Línea 2613" y1="5.502" transform="translate(54.724 149.902)" fill="none" stroke="#7f8182" stroke-linecap="round" stroke-miterlimit="10" stroke-width="1"/>
      <path id="Trazado_11108" data-name="Trazado 11108" d="M63.17,87.057,48.582,112.324a.8.8,0,0,0,.691,1.2H78.449a.8.8,0,0,0,.69-1.2L64.551,87.057A.8.8,0,0,0,63.17,87.057Z" transform="translate(-4.166 -7.448)" fill="none" stroke="#ff1a1a" stroke-miterlimit="10" stroke-width="3"/>
      <path id="Trazado_11109" data-name="Trazado 11109" d="M63.551,107.365h3.21V110.1h-3.21Zm.2-9.663h2.8v8.2h-2.8Z" transform="translate(-5.462 -8.397)" fill="#ff1a1a"/>
      <path id="Trazado_11110" data-name="Trazado 11110" d="M96.7,49.944H27.285a1.231,1.231,0,0,1-1.231-1.231V43.789a3.6,3.6,0,0,1,3.6-3.6H94.768a3.165,3.165,0,0,1,3.165,3.165v5.355A1.231,1.231,0,0,1,96.7,49.944Z" transform="translate(-2.239 -3.454)" fill="none" stroke="#7f8182" stroke-miterlimit="10" stroke-width="1"/>
      <path id="Trazado_11111" data-name="Trazado 11111" d="M42.818,40.193h67.924a3.465,3.465,0,0,1,3.465,3.465V48.6a1.348,1.348,0,0,1-1.347,1.348H40.23" transform="translate(-3.458 -3.454)" fill="none" stroke="#7f8182" stroke-miterlimit="10" stroke-width="1"/>
      <path id="Trazado_11112" data-name="Trazado 11112" d="M46.357,180.084l1.7-23.077a5.059,5.059,0,0,1,5.044-4.685H76.378a5.058,5.058,0,0,1,5.045,4.691l1.66,22.812" transform="translate(-3.984 -13.091)" fill="none" stroke="#7f8182" stroke-miterlimit="10" stroke-width="1"/>
      <path id="Trazado_11113" data-name="Trazado 11113" d="M87.6.5h-36.3a3.557,3.557,0,0,0-3.557,3.557V36.782H97.825V10.727Z" transform="translate(-4.103 -0.043)" fill="none" stroke="#7f8182" stroke-linecap="round" stroke-miterlimit="10" stroke-width="1"/>
      <path id="Trazado_11114" data-name="Trazado 11114" d="M46.6,7.783,37.155,10.2a3.555,3.555,0,0,0-2.562,4.328l4.259,22.876H46.6" transform="translate(-2.963 -0.669)" fill="none" stroke="#7f8182" stroke-linecap="round" stroke-miterlimit="10" stroke-width="1"/>
      <path id="Trazado_11115" data-name="Trazado 11115" d="M98.476,7.631l9.983,2.558a3.558,3.558,0,0,1,2.562,4.328l-4.259,22.877H99.017" transform="translate(-8.463 -0.656)" fill="none" stroke="#7f8182" stroke-linecap="round" stroke-miterlimit="10" stroke-width="1"/>
      <path id="Trazado_11116" data-name="Trazado 11116" d="M101.572,10.727h-6.9A3.324,3.324,0,0,1,91.345,7.4V.5" transform="translate(-7.851 -0.043)" fill="none" stroke="#7f8182" stroke-linecap="round" stroke-miterlimit="10" stroke-width="1"/>
      <line id="Línea_2614" data-name="Línea 2614" x2="24.314" transform="translate(51.566 5.571)" fill="none" stroke="#7f8182" stroke-linecap="round" stroke-miterlimit="10" stroke-width="2"/>
      <line id="Línea_2615" data-name="Línea 2615" x2="22.498" transform="translate(51.566 9.495)" fill="none" stroke="#7f8182" stroke-linecap="round" stroke-miterlimit="10" stroke-width="2"/>
      <line id="Línea_2616" data-name="Línea 2616" x2="24.314" transform="translate(51.566 13.419)" fill="none" stroke="#7f8182" stroke-linecap="round" stroke-miterlimit="10" stroke-width="2"/>
      <line id="Línea_2617" data-name="Línea 2617" x2="33.93" transform="translate(51.566 17.343)" fill="none" stroke="#7f8182" stroke-linecap="round" stroke-miterlimit="10" stroke-width="2"/>
      <line id="Línea_2618" data-name="Línea 2618" x2="30.508" transform="translate(51.566 21.267)" fill="none" stroke="#7f8182" stroke-linecap="round" stroke-miterlimit="10" stroke-width="2"/>
      <line id="Línea_2619" data-name="Línea 2619" x2="33.93" transform="translate(51.566 25.191)" fill="none" stroke="#7f8182" stroke-linecap="round" stroke-miterlimit="10" stroke-width="2"/>
      <line id="Línea_2620" data-name="Línea 2620" x2="34.223" transform="translate(51.566 29.116)" fill="none" stroke="#7f8182" stroke-linecap="round" stroke-miterlimit="10" stroke-width="2"/>
      <line id="Línea_2621" data-name="Línea 2621" x2="34.223" transform="translate(51.566 33.04)" fill="none" stroke="#7f8182" stroke-linecap="round" stroke-miterlimit="10" stroke-width="2"/>
    </g>
  </g>
</svg>
