<svg id="illustration_ConsumoEnergia" xmlns="http://www.w3.org/2000/svg" width="60" height="60" viewBox="0 0 60 60">
  <g id="Grupo_2436" data-name="Grupo 2436" transform="translate(-774 -956)">
    <path id="Trazado_18284" data-name="Trazado 18284" d="M8.571,0H51.428A8.572,8.572,0,0,1,60,8.571V51.429A8.572,8.572,0,0,1,51.428,60H8.571A8.571,8.571,0,0,1,0,51.429V8.571A8.571,8.571,0,0,1,8.571,0" transform="translate(774 956)" fill="#eef9ed"/>
    <path id="Trazado_18285" data-name="Trazado 18285" d="M33.162,16.607h-6.15a1.135,1.135,0,0,1,0-2.27h6.15a1.135,1.135,0,1,1,0,2.27" transform="translate(774 956)" fill="#ff895a"/>
    <path id="Trazado_18286" data-name="Trazado 18286" d="M33.162,14.337h-6.15a1.135,1.135,0,0,1,0-2.27h6.15a1.135,1.135,0,1,1,0,2.27" transform="translate(774 956)" fill="#ff895a"/>
    <path id="Trazado_18287" data-name="Trazado 18287" d="M40.78,34.406A11.013,11.013,0,1,1,21.9,25.594a9.7,9.7,0,0,0,2.789-6.725v-.7a1.566,1.566,0,0,1,1.565-1.566h7.156a1.566,1.566,0,0,1,1.566,1.566v.7a9.27,9.27,0,0,0,2.64,6.574,10.986,10.986,0,0,1,3.163,8.958" transform="translate(774 956)" fill="#ff895a"/>
    <path id="Trazado_18288" data-name="Trazado 18288" d="M40.93,34.407a11.052,11.052,0,0,1-9.67,9.76,10.524,10.524,0,0,1-2.02.04c4.95-.69,9.31-4.83,9.82-9.8a10.992,10.992,0,0,0-3.16-8.96,9.27,9.27,0,0,1-2.64-6.57v-.7c0-.87-1.07-1.57-1.93-1.57a1.135,1.135,0,1,0,0-2.27,1.135,1.135,0,1,0,0-2.27h1.73a1.135,1.135,0,0,1,0,2.27,1.135,1.135,0,0,1,0,2.27h.5a1.566,1.566,0,0,1,1.57,1.57v.7a9.27,9.27,0,0,0,2.64,6.57,10.959,10.959,0,0,1,3.16,8.96" transform="translate(774 956)" fill="#fe5000"/>
    <path id="Trazado_18289" data-name="Trazado 18289" d="M32.038,10.723H27.962a.753.753,0,0,1-.753-.753,2.748,2.748,0,0,1,2.748-2.749h.086A2.748,2.748,0,0,1,32.791,9.97a.753.753,0,0,1-.753.753" transform="translate(774 956)" fill="#ff895a"/>
    <path id="Trazado_18290" data-name="Trazado 18290" d="M24.652,21.188a9.261,9.261,0,0,0,.3-2.319v-.7a1.566,1.566,0,0,1,1.565-1.566h7.156a1.566,1.566,0,0,1,1.566,1.566v.7a9.27,9.27,0,0,0,2.64,6.574,11.014,11.014,0,1,1-15.716.146q.232-.24.448-.495" transform="translate(774 956)" fill="none" stroke="#002744" stroke-linecap="round" stroke-miterlimit="10" stroke-width="0.75"/>
    <path id="Trazado_18291" data-name="Trazado 18291" d="M23.425,23.994q.206-.321.384-.654" transform="translate(774 956)" fill="none" stroke="#002744" stroke-linecap="round" stroke-miterlimit="10" stroke-width="0.75"/>
    <path id="Trazado_18292" data-name="Trazado 18292" d="M31.54,16.607a1.566,1.566,0,0,1,1.566,1.566v.7a9.27,9.27,0,0,0,2.64,6.574A11.01,11.01,0,0,1,29.24,44.17" transform="translate(774 956)" fill="none" stroke="#002744" stroke-linecap="round" stroke-miterlimit="10" stroke-width="0.75"/>
    <path id="Trazado_18293" data-name="Trazado 18293" d="M33.162,16.607h-6.15a1.135,1.135,0,0,1,0-2.27h6.15a1.135,1.135,0,1,1,0,2.27Z" transform="translate(774 956)" fill="none" stroke="#002744" stroke-linecap="round" stroke-miterlimit="10" stroke-width="0.75"/>
    <path id="Trazado_18294" data-name="Trazado 18294" d="M33.162,14.337h-6.15a1.135,1.135,0,0,1,0-2.27h6.15a1.135,1.135,0,1,1,0,2.27Z" transform="translate(774 956)" fill="none" stroke="#002744" stroke-linecap="round" stroke-miterlimit="10" stroke-width="0.75"/>
    <path id="Trazado_18295" data-name="Trazado 18295" d="M29.829,14.337H31.18a1.135,1.135,0,0,1,0,2.27H29.829" transform="translate(774 956)" fill="none" stroke="#002744" stroke-linecap="round" stroke-miterlimit="10" stroke-width="0.75"/>
    <path id="Trazado_18296" data-name="Trazado 18296" d="M29.829,12.067H31.18a1.135,1.135,0,0,1,0,2.27H29.829" transform="translate(774 956)" fill="none" stroke="#002744" stroke-linecap="round" stroke-miterlimit="10" stroke-width="0.75"/>
    <path id="Trazado_18297" data-name="Trazado 18297" d="M32.125,10.723H28.049A.753.753,0,0,1,27.3,9.97a2.748,2.748,0,0,1,2.748-2.749h.086A2.748,2.748,0,0,1,32.878,9.97.753.753,0,0,1,32.125,10.723Z" transform="translate(774 956)" fill="none" stroke="#002744" stroke-linecap="round" stroke-miterlimit="10" stroke-width="0.75"/>
    <path id="Trazado_18298" data-name="Trazado 18298" d="M29.615,28.785l2.5-5.706a.435.435,0,0,0-.757-.413l-6,8.492s3.565.036,4.859,0l-2.045,5.649a.433.433,0,0,0,.757.413c.886-1.3,4.562-7.091,5.366-8.268,0,0-3.462-.132-4.682-.167" transform="translate(774 956)" fill="#cee6ad"/>
    <line id="Línea_6204" data-name="Línea 6204" y2="4.013" transform="translate(804.087 1004.766)" fill="none" stroke="#002744" stroke-linecap="round" stroke-linejoin="round" stroke-width="0.75"/>
    <line id="Línea_6205" data-name="Línea 6205" x2="2.006" y2="3.475" transform="translate(812.577 1002.445)" fill="none" stroke="#002744" stroke-linecap="round" stroke-linejoin="round" stroke-width="0.75"/>
    <line id="Línea_6206" data-name="Línea 6206" x2="3.475" y2="2.006" transform="translate(818.768 996.189)" fill="none" stroke="#002744" stroke-linecap="round" stroke-linejoin="round" stroke-width="0.75"/>
    <line id="Línea_6207" data-name="Línea 6207" x2="4.013" transform="translate(821.002 987.676)" fill="none" stroke="#002744" stroke-linecap="round" stroke-linejoin="round" stroke-width="0.75"/>
    <line id="Línea_6208" data-name="Línea 6208" y1="2.006" x2="3.475" transform="translate(818.68 977.182)" fill="none" stroke="#002744" stroke-linecap="round" stroke-linejoin="round" stroke-width="0.75"/>
    <line id="Línea_6209" data-name="Línea 6209" y1="3.475" x2="2.006" transform="translate(812.425 969.521)" fill="none" stroke="#002744" stroke-linecap="round" stroke-linejoin="round" stroke-width="0.75"/>
    <line id="Línea_6210" data-name="Línea 6210" x1="2.006" y1="3.475" transform="translate(793.417 969.609)" fill="none" stroke="#002744" stroke-linecap="round" stroke-linejoin="round" stroke-width="0.75"/>
    <line id="Línea_6211" data-name="Línea 6211" x1="3.475" y1="2.006" transform="translate(785.757 977.332)" fill="none" stroke="#002744" stroke-linecap="round" stroke-linejoin="round" stroke-width="0.75"/>
    <line id="Línea_6212" data-name="Línea 6212" x1="4.013" transform="translate(782.985 987.852)" fill="none" stroke="#002744" stroke-linecap="round" stroke-linejoin="round" stroke-width="0.75"/>
    <line id="Línea_6213" data-name="Línea 6213" x1="3.475" y2="2.006" transform="translate(785.845 996.34)" fill="none" stroke="#002744" stroke-linecap="round" stroke-linejoin="round" stroke-width="0.75"/>
    <line id="Línea_6214" data-name="Línea 6214" x1="2.006" y2="3.475" transform="translate(793.569 1002.531)" fill="none" stroke="#002744" stroke-linecap="round" stroke-linejoin="round" stroke-width="0.75"/>
    <path id="Trazado_18299" data-name="Trazado 18299" d="M29.615,28.785l2.5-5.706a.435.435,0,0,0-.757-.413l-6,8.492s3.565.036,4.859,0l-2.045,5.649a.433.433,0,0,0,.757.413c.886-1.3,4.562-7.091,5.366-8.268C34.3,28.952,30.835,28.82,29.615,28.785Z" transform="translate(774 956)" fill="none" stroke="#002744" stroke-linejoin="round" stroke-width="0.75"/>
  </g>
</svg>
