<svg id="Illustration_extintor" xmlns="http://www.w3.org/2000/svg" width="60" height="60" viewBox="0 0 60 60">
  <g id="Grupo_2406" data-name="Grupo 2406" transform="translate(-855.708 -573)">
    <path id="Trazado_17912" data-name="Trazado 17912" d="M79.279,0h42.857a8.572,8.572,0,0,1,8.572,8.571V51.429A8.572,8.572,0,0,1,122.136,60H79.279a8.571,8.571,0,0,1-8.571-8.571V8.571A8.571,8.571,0,0,1,79.279,0" transform="translate(785 573)" fill="#99d6ff"/>
    <path id="Trazado_17913" data-name="Trazado 17913" d="M110.93,17.354,104.44,15.6a.852.852,0,0,1-.629-.823V12.792a.852.852,0,0,1,.629-.823l6.49-1.758a.852.852,0,0,1,1.075.823v5.5a.852.852,0,0,1-1.075.823" transform="translate(785 573)" fill="#ff895a"/>
    <path id="Trazado_17914" data-name="Trazado 17914" d="M91.038,40.373V23.819a6.067,6.067,0,0,1,6.067-6.067h4.738a6.067,6.067,0,0,1,6.067,6.067v23.65a1.867,1.867,0,0,1-1.867,1.867H92.9a1.867,1.867,0,0,1-1.867-1.867V45.943" transform="translate(785 573)" fill="#ff895a"/>
    <path id="Trazado_17915" data-name="Trazado 17915" d="M107.908,23.821V47.464a1.871,1.871,0,0,1-1.865,1.876h-2.882a1.871,1.871,0,0,0,1.866-1.876V23.821a6.063,6.063,0,0,0-6.065-6.064h2.882a6.063,6.063,0,0,1,6.064,6.064" transform="translate(785 573)" fill="#fe5000"/>
    <path id="Trazado_17916" data-name="Trazado 17916" d="M98.962,17.752a6.067,6.067,0,0,1,6.067,6.067v23.65a1.867,1.867,0,0,1-1.867,1.867" transform="translate(785 573)" fill="none" stroke="#002744" stroke-linecap="round" stroke-miterlimit="10" stroke-width="0.75"/>
    <path id="Trazado_17917" data-name="Trazado 17917" d="M91.038,40.373V23.819a6.067,6.067,0,0,1,6.067-6.067h4.738a6.067,6.067,0,0,1,6.067,6.067v23.65a1.867,1.867,0,0,1-1.867,1.867H92.9a1.867,1.867,0,0,1-1.867-1.867V45.943" transform="translate(785 573)" fill="none" stroke="#002744" stroke-linecap="round" stroke-miterlimit="10" stroke-width="0.75"/>
    <line id="Línea_6044" data-name="Línea 6044" y1="0.608" transform="translate(876.038 616.352)" fill="none" stroke="#002744" stroke-linecap="round" stroke-miterlimit="10" stroke-width="0.75"/>
    <path id="Trazado_17918" data-name="Trazado 17918" d="M101.124,17.752H96.578V10.788a.976.976,0,0,1,.975-.975h2.6a.975.975,0,0,1,.975.975Z" transform="translate(785 573)" fill="none" stroke="#002744" stroke-linecap="round" stroke-miterlimit="10" stroke-width="0.75"/>
    <path id="Trazado_17919" data-name="Trazado 17919" d="M89.408,18.584c0-2.731,2.625-5.078,7.17-5.078v1.867c-4.929,0-6.306,1.91-6.306,3.211C90.272,19.183,89.408,19.1,89.408,18.584Z" transform="translate(785 573)" fill="none" stroke="#002744" stroke-linecap="round" stroke-miterlimit="10" stroke-width="0.75"/>
    <path id="Trazado_17920" data-name="Trazado 17920" d="M96.578,11.318a2.188,2.188,0,1,1-2.187-2.187A2.187,2.187,0,0,1,96.578,11.318Z" transform="translate(785 573)" fill="none" stroke="#002744" stroke-linecap="round" stroke-miterlimit="10" stroke-width="0.75"/>
    <rect id="Rectángulo_3426" data-name="Rectángulo 3426" width="2.689" height="1.793" transform="translate(886.124 585.973)" fill="none" stroke="#002744" stroke-linecap="round" stroke-miterlimit="10" stroke-width="0.75"/>
    <path id="Trazado_17921" data-name="Trazado 17921" d="M110.932,17.44l-6.49-1.758a.852.852,0,0,1-.629-.823V12.878a.852.852,0,0,1,.629-.823l6.49-1.758a.852.852,0,0,1,1.075.823v5.5A.852.852,0,0,1,110.932,17.44Z" transform="translate(785 573)" fill="none" stroke="#002744" stroke-linecap="round" stroke-miterlimit="10" stroke-width="0.75"/>
    <path id="Trazado_17922" data-name="Trazado 17922" d="M97.321,37.865a3.915,3.915,0,0,1-1.653-6.459c2.131-2.588,2.523-2.828,2.479-4.285a3.7,3.7,0,0,1,1.936,2.936c.177,1.258-1.131,2.921.631,2.921.954,0,.826-1.29.826-1.29,1.316,1.316,1.5,5.2-1.587,6.059a1.791,1.791,0,0,0-.218-2.927c0,1.584-2.292,1.472-2.292-.432a3.347,3.347,0,0,1,.96-2.529s-2.048.444-2.048,3.793a3.125,3.125,0,0,0,.966,2.213" transform="translate(785 573)" fill="#09f"/>
    <path id="Trazado_17923" data-name="Trazado 17923" d="M97.321,37.865a3.915,3.915,0,0,1-1.653-6.459c2.131-2.588,2.523-2.828,2.479-4.285a3.7,3.7,0,0,1,1.936,2.936c.177,1.258-1.131,2.921.631,2.921.954,0,.826-1.29.826-1.29,1.316,1.316,1.5,5.2-1.587,6.059a1.791,1.791,0,0,0-.218-2.927c0,1.584-2.292,1.472-2.292-.432a3.347,3.347,0,0,1,.96-2.529s-2.048.444-2.048,3.793A3.125,3.125,0,0,0,97.321,37.865Z" transform="translate(785 573)" fill="none" stroke="#002744" stroke-linecap="round" stroke-linejoin="round" stroke-width="0.75"/>
  </g>
</svg>
