<svg id="Illustración_PlantaCombustion" xmlns="http://www.w3.org/2000/svg" width="60" height="60" viewBox="0 0 60 60">
  <g id="Grupo_2430" data-name="Grupo 2430" transform="translate(-858 -861.133)">
    <path id="Trazado_18220" data-name="Trazado 18220" d="M8.571.133H51.428A8.572,8.572,0,0,1,60,8.7V51.562a8.572,8.572,0,0,1-8.572,8.571H8.571A8.571,8.571,0,0,1,0,51.562V8.7A8.571,8.571,0,0,1,8.571.133" transform="translate(858 861)" fill="#eef9ed"/>
    <path id="Trazado_18221" data-name="Trazado 18221" d="M33.437,13.4V11.856h.188V8.415h1.923V6.107H30.6V8.415h1.443v1.643H29.13v-.04a.757.757,0,0,0-.756-.756H26.351a.757.757,0,0,0-.757.756v1.171a.756.756,0,0,0,.757.756h2.023a.756.756,0,0,0,.756-.756v0h1.624V13.4h-2v3.088h7.814V13.4Z" transform="translate(858 861)" fill="#ff895a"/>
    <path id="Trazado_18222" data-name="Trazado 18222" d="M40.391,18.19V52.05c0,.59-1.11,1.13-2.92,1.52a36.857,36.857,0,0,1-7.43.66c-5.71,0-10.35-.97-10.35-2.18V18.19c0-1.2,4.64-2.18,10.35-2.18a36.769,36.769,0,0,1,7.43.67c1.81.39,2.92.92,2.92,1.51" transform="translate(858 861)" fill="#ff895a"/>
    <path id="Trazado_18223" data-name="Trazado 18223" d="M40.391,18.19V52.05c0,.59-1.11,1.13-2.92,1.52V16.68c1.81.39,2.92.92,2.92,1.51" transform="translate(858 861)" fill="#fe5000"/>
    <line id="Línea_6166" data-name="Línea 6166" y1="0.795" transform="translate(877.609 883.74)" fill="none" stroke="#002744" stroke-linecap="round" stroke-miterlimit="10" stroke-width="0.75"/>
    <path id="Trazado_18224" data-name="Trazado 18224" d="M19.609,21.054V18.193c0-1.2,4.633-2.181,10.347-2.181S40.3,16.988,40.3,18.193V52.05c0,1.205-4.633,2.181-10.348,2.181s-10.347-.976-10.347-2.181V27.259" transform="translate(858 861)" fill="none" stroke="#002744" stroke-linecap="round" stroke-miterlimit="10" stroke-width="0.75"/>
    <rect id="Rectángulo_3443" data-name="Rectángulo 3443" width="7.777" height="14.518" rx="0.913" transform="translate(880.265 883.74)" fill="none" stroke="#002744" stroke-linecap="round" stroke-miterlimit="10" stroke-width="0.75"/>
    <path id="Trazado_18225" data-name="Trazado 18225" d="M28.506,16.033v-2a.652.652,0,0,1,.652-.652h6.89a.652.652,0,0,1,.652.652V15.87c0,.36-.037.6-.4.6" transform="translate(858 861)" fill="none" stroke="#002744" stroke-linecap="round" stroke-miterlimit="10" stroke-width="0.75"/>
    <path id="Trazado_18226" data-name="Trazado 18226" d="M26.806,12.06h0a1.211,1.211,0,0,1-1.212-1.211v-.376a1.211,1.211,0,0,1,2.422,0v.376A1.211,1.211,0,0,1,26.806,12.06Z" transform="translate(858 861)" fill="none" stroke="#002744" stroke-linecap="round" stroke-miterlimit="10" stroke-width="0.75"/>
    <path id="Trazado_18227" data-name="Trazado 18227" d="M26.806,9.262h1.21a1.211,1.211,0,0,1,1.211,1.211v.376a1.211,1.211,0,0,1-1.211,1.21h-1.21" transform="translate(858 861)" fill="none" stroke="#002744" stroke-linecap="round" stroke-miterlimit="10" stroke-width="0.75"/>
    <path id="Trazado_18228" data-name="Trazado 18228" d="M30.856,13.382V11.513a.329.329,0,0,0-.328-.328h-1.3" transform="translate(858 861)" fill="none" stroke="#002744" stroke-linecap="round" stroke-miterlimit="10" stroke-width="0.75"/>
    <path id="Trazado_18229" data-name="Trazado 18229" d="M29.227,9.76h1.3a1.755,1.755,0,0,1,1.753,1.754v1.868" transform="translate(858 861)" fill="none" stroke="#002744" stroke-linecap="round" stroke-miterlimit="10" stroke-width="0.75"/>
    <line id="Línea_6167" data-name="Línea 6167" y2="36.476" transform="translate(895.474 878.125)" fill="none" stroke="#002744" stroke-linecap="round" stroke-miterlimit="10" stroke-width="0.75"/>
    <line id="Línea_6168" data-name="Línea 6168" y2="2.896" transform="translate(892.776 874.383)" fill="none" stroke="#002744" stroke-linecap="round" stroke-miterlimit="10" stroke-width="0.75"/>
    <line id="Línea_6169" data-name="Línea 6169" y2="2.344" transform="translate(890.043 869.291)" fill="none" stroke="#002744" stroke-linecap="round" stroke-miterlimit="10" stroke-width="0.75"/>
    <line id="Línea_6170" data-name="Línea 6170" y2="5.091" transform="translate(891.625 869.291)" fill="none" stroke="#002744" stroke-linecap="round" stroke-miterlimit="10" stroke-width="0.75"/>
    <rect id="Rectángulo_3444" data-name="Rectángulo 3444" width="3.741" height="2.257" rx="0.483" transform="translate(888.6 867.033)" fill="none" stroke="#002744" stroke-linecap="round" stroke-miterlimit="10" stroke-width="0.75"/>
    <path id="Trazado_18230" data-name="Trazado 18230" d="M32.658,6.034H35.09a.46.46,0,0,1,.459.459V7.832a.46.46,0,0,1-.459.459H32.658" transform="translate(858 861)" fill="none" stroke="#002744" stroke-linecap="round" stroke-miterlimit="10" stroke-width="0.75"/>
    <path id="Trazado_18231" data-name="Trazado 18231" d="M25.59,50.858A3.915,3.915,0,0,1,23.937,44.4c2.131-2.588,2.523-2.828,2.479-4.285a3.7,3.7,0,0,1,1.936,2.936c.177,1.258-1.131,2.921.631,2.921.955,0,.826-1.29.826-1.29,1.316,1.316,1.5,5.2-1.587,6.059A1.791,1.791,0,0,0,28,47.813c0,1.584-2.292,1.472-2.292-.432a3.347,3.347,0,0,1,.96-2.529s-2.048.444-2.048,3.793a3.125,3.125,0,0,0,.966,2.213" transform="translate(858 861)" fill="#cee6ad"/>
    <path id="Trazado_18232" data-name="Trazado 18232" d="M25.59,50.858A3.915,3.915,0,0,1,23.937,44.4c2.131-2.588,2.523-2.828,2.479-4.285a3.7,3.7,0,0,1,1.936,2.936c.177,1.258-1.131,2.921.631,2.921.955,0,.826-1.29.826-1.29,1.316,1.316,1.5,5.2-1.587,6.059A1.791,1.791,0,0,0,28,47.813c0,1.584-2.292,1.472-2.292-.432a3.347,3.347,0,0,1,.96-2.529s-2.048.444-2.048,3.793A3.125,3.125,0,0,0,25.59,50.858Z" transform="translate(858 861)" fill="none" stroke="#002744" stroke-linecap="round" stroke-linejoin="round" stroke-width="0.75"/>
    <path id="Trazado_18233" data-name="Trazado 18233" d="M34.776,23.894a1.153,1.153,0,1,1-1.153-1.153A1.153,1.153,0,0,1,34.776,23.894Z" transform="translate(858 861)" fill="none" stroke="#002744" stroke-linecap="round" stroke-linejoin="round" stroke-width="0.75"/>
    <path id="Trazado_18234" data-name="Trazado 18234" d="M34.776,28.162a1.153,1.153,0,1,1-1.153-1.153A1.153,1.153,0,0,1,34.776,28.162Z" transform="translate(858 861)" fill="none" stroke="#002744" stroke-linecap="round" stroke-linejoin="round" stroke-width="0.75"/>
    <path id="Trazado_18235" data-name="Trazado 18235" d="M27.845,32.04h0a.661.661,0,0,1-.661-.661V28.621a.661.661,0,1,1,1.322,0v2.758A.661.661,0,0,1,27.845,32.04Z" transform="translate(858 861)" fill="none" stroke="#002744" stroke-linecap="round" stroke-miterlimit="10" stroke-width="0.75"/>
  </g>
</svg>
