<svg id="illustration_Papeleria" xmlns="http://www.w3.org/2000/svg" width="60" height="60" viewBox="0 0 60 60">
  <g id="Grupo_2456" data-name="Grupo 2456" transform="translate(0)">
    <path id="Trazado_18452" data-name="Trazado 18452" d="M221.377,0h42.857a8.572,8.572,0,0,1,8.572,8.571V51.429A8.572,8.572,0,0,1,264.234,60H221.377a8.571,8.571,0,0,1-8.571-8.571V8.571A8.571,8.571,0,0,1,221.377,0" transform="translate(-212.806)" fill="#f7f9f7"/>
    <path id="Trazado_18453" data-name="Trazado 18453" d="M256.786,46.458H235.739a1.744,1.744,0,0,1-1.744-1.744V10.95a1.744,1.744,0,0,1,1.744-1.744h23.326a1.744,1.744,0,0,1,1.744,1.744L258.53,44.714a1.744,1.744,0,0,1-1.744,1.744" transform="translate(-212.806)" fill="#c6cccb"/>
    <path id="Trazado_18454" data-name="Trazado 18454" d="M263.663,45.123l-.228-24.843-7.32-7.273H240.643a1.744,1.744,0,0,0-1.744,1.744V46.607h23.28a1.483,1.483,0,0,0,1.484-1.484" transform="translate(-212.806)" fill="#eef9ed"/>
    <line id="Línea_6267" data-name="Línea 6267" y1="17.678" transform="translate(50.628 20.279)" fill="none" stroke="#002744" stroke-linecap="round" stroke-miterlimit="10" stroke-width="0.75"/>
    <line id="Línea_6268" data-name="Línea 6268" y1="0.913" transform="translate(50.628 40.787)" fill="none" stroke="#002744" stroke-linecap="round" stroke-miterlimit="10" stroke-width="0.75"/>
    <path id="Trazado_18455" data-name="Trazado 18455" d="M256.115,12.961H240.321a1.422,1.422,0,0,0-1.422,1.422V45.232a1.422,1.422,0,0,0,1.422,1.422h21.691a1.422,1.422,0,0,0,1.422-1.422v-.9" transform="translate(-212.806)" fill="none" stroke="#002744" stroke-linecap="round" stroke-miterlimit="10" stroke-width="0.75"/>
    <path id="Trazado_18456" data-name="Trazado 18456" d="M256.115,12.961v6.163a1.156,1.156,0,0,0,1.156,1.156h6.163Z" transform="translate(-212.806)" fill="none" stroke="#002744" stroke-linecap="round" stroke-linejoin="round" stroke-width="0.75"/>
    <path id="Trazado_18457" data-name="Trazado 18457" d="M238.9,37.477h-3.482a1.422,1.422,0,0,1-1.422-1.422V10.628a1.422,1.422,0,0,1,1.422-1.422h23.969a1.423,1.423,0,0,1,1.423,1.422v7.027" transform="translate(-212.806)" fill="none" stroke="#002744" stroke-linecap="round" stroke-miterlimit="10" stroke-width="0.75"/>
    <path id="Trazado_18458" data-name="Trazado 18458" d="M244.9,23.231V48.872a1.918,1.918,0,0,1-1.911,1.922H226.961l10.357-24.5h2.187V24.661a.853.853,0,0,0-.853-.841h-.288l.925-2.2H243.3a1.6,1.6,0,0,1,1.6,1.61" transform="translate(-212.806)" fill="#c6cccb"/>
    <path id="Trazado_18459" data-name="Trazado 18459" d="M240.214,21.621h-5.287a2.427,2.427,0,0,0-1.874.9l-3,3.8h-6.176a1.918,1.918,0,0,0-1.922,1.91V48.872a1.928,1.928,0,0,0,1.922,1.922H239.9a1.918,1.918,0,0,0,1.911-1.922V23.231a1.608,1.608,0,0,0-1.6-1.61m-.709,4.674h-6.2l1.586-1.994a1.263,1.263,0,0,1,.985-.481h2.776a.854.854,0,0,1,.853.841Z" transform="translate(-212.806)" fill="#eef9ed"/>
    <path id="Trazado_18460" data-name="Trazado 18460" d="M244.9,33.333l-3.093-.06-19.864-.06V41.7l19.864-.228,3.093.228Z" transform="translate(-212.806)" fill="#c6cccb"/>
    <path id="Trazado_18461" data-name="Trazado 18461" d="M228.985,22.488h-4.52v1.8h.522v2h3.592v-2h.406Z" transform="translate(-212.806)" fill="#eef9ed"/>
    <path id="Rectángulo_3453" data-name="Rectángulo 3453" d="M.489,0H4.157a.489.489,0,0,1,.489.489V1.558a.49.49,0,0,1-.49.49H.489A.489.489,0,0,1,0,1.559V.489A.489.489,0,0,1,.489,0Z" transform="translate(11.596 22.488)" fill="none" stroke="#002744" stroke-linecap="round" stroke-miterlimit="10" stroke-width="0.75"/>
    <path id="Trazado_18462" data-name="Trazado 18462" d="M233.056,22.538l-3,3.785h-6.174a1.918,1.918,0,0,0-1.918,1.918V48.859a1.918,1.918,0,0,0,1.918,1.917h16.011a1.918,1.918,0,0,0,1.918-1.918V23.238a1.6,1.6,0,0,0-1.605-1.6h-5.274A2.39,2.39,0,0,0,233.056,22.538Z" transform="translate(-212.806)" fill="none" stroke="#002744" stroke-linecap="round" stroke-miterlimit="10" stroke-width="0.75"/>
    <path id="Trazado_18463" data-name="Trazado 18463" d="M226.968,50.777h16.01a1.918,1.918,0,0,0,1.918-1.918V23.239a1.6,1.6,0,0,0-1.6-1.6h-4.006" transform="translate(-212.806)" fill="none" stroke="#002744" stroke-linecap="round" stroke-miterlimit="10" stroke-width="0.75"/>
    <path id="Trazado_18464" data-name="Trazado 18464" d="M233.311,26.291l1.582-1.994a1.259,1.259,0,0,1,.986-.476h2.779a.845.845,0,0,1,.845.845v1.625Z" transform="translate(-212.806)" fill="none" stroke="#002744" stroke-linecap="round" stroke-linejoin="round" stroke-width="0.75"/>
    <line id="Línea_6269" data-name="Línea 6269" y2="1.788" transform="translate(12.244 24.535)" fill="none" stroke="#002744" stroke-linecap="round" stroke-linejoin="round" stroke-width="0.75"/>
    <line id="Línea_6270" data-name="Línea 6270" y2="1.788" transform="translate(15.73 24.535)" fill="none" stroke="#002744" stroke-linecap="round" stroke-linejoin="round" stroke-width="0.75"/>
    <path id="Trazado_18465" data-name="Trazado 18465" d="M221.96,33.213l19.846.12h3.09" transform="translate(-212.806)" fill="none" stroke="#002744" stroke-linecap="round" stroke-miterlimit="10" stroke-width="0.75"/>
    <path id="Trazado_18466" data-name="Trazado 18466" d="M221.96,41.7H244.9" transform="translate(-212.806)" fill="none" stroke="#002744" stroke-linecap="round" stroke-miterlimit="10" stroke-width="0.75"/>
  </g>
</svg>
