<svg id="Illustration_PlantaEnergia" xmlns="http://www.w3.org/2000/svg" width="60" height="60" viewBox="0 0 60 60">
  <g id="Grupo_2424" data-name="Grupo 2424" transform="translate(-903.195 -774)">
    <path id="Trazado_18156" data-name="Trazado 18156" d="M8.571,0H51.428A8.572,8.572,0,0,1,60,8.571V51.429A8.572,8.572,0,0,1,51.428,60H8.571A8.571,8.571,0,0,1,0,51.429V8.571A8.571,8.571,0,0,1,8.571,0" transform="translate(903.195 774)" fill="#eef9ed"/>
    <path id="Trazado_18157" data-name="Trazado 18157" d="M27.817,48.349H51.5V46.712s-1.64-1.786-1.64-3.076H10.143c0,1.29-1.64,3.076-1.64,3.076v1.637H28.69" transform="translate(903.195 774)" fill="#fe5000"/>
    <path id="Trazado_18158" data-name="Trazado 18158" d="M16.535,11.651H46.394a3.489,3.489,0,0,1,3.489,3.489v28.5H16.535" transform="translate(903.195 774)" fill="#fe5000"/>
    <path id="Trazado_18159" data-name="Trazado 18159" d="M42.133,43.636H10.148v-28.5a3.491,3.491,0,0,1,3.49-3.49H38.644a3.49,3.49,0,0,1,3.489,3.49Z" transform="translate(903.195 774)" fill="#ff895a"/>
    <path id="Trazado_18160" data-name="Trazado 18160" d="M42.133,43.636H10.148v-28.5a3.491,3.491,0,0,1,3.49-3.49H38.644a3.49,3.49,0,0,1,3.489,3.49Z" transform="translate(903.195 774)" fill="none" stroke="#002744" stroke-linecap="round" stroke-miterlimit="10" stroke-width="0.75"/>
    <path id="Trazado_18161" data-name="Trazado 18161" d="M16.535,11.651H46.394a3.489,3.489,0,0,1,3.489,3.489v28.5H16.535" transform="translate(903.195 774)" fill="none" stroke="#002744" stroke-linecap="round" stroke-miterlimit="10" stroke-width="0.75"/>
    <path id="Trazado_18162" data-name="Trazado 18162" d="M10.143,43.315c0,1.378-1.64,3.285-1.64,3.285v1.749H28.691" transform="translate(903.195 774)" fill="none" stroke="#002744" stroke-linecap="round" stroke-miterlimit="10" stroke-width="0.75"/>
    <path id="Trazado_18163" data-name="Trazado 18163" d="M49.857,43.315c0,1.378,1.64,3.285,1.64,3.285v1.749H27.817" transform="translate(903.195 774)" fill="none" stroke="#002744" stroke-linecap="round" stroke-miterlimit="10" stroke-width="0.75"/>
    <path id="Trazado_18164" data-name="Trazado 18164" d="M42.163,43.315c0,1.378,1.64,3.285,1.64,3.285v1.749H23.615" transform="translate(903.195 774)" fill="none" stroke="#002744" stroke-linecap="round" stroke-miterlimit="10" stroke-width="0.75"/>
    <rect id="Rectángulo_3435" data-name="Rectángulo 3435" width="22.268" height="12.15" rx="1.586" transform="translate(918.202 790.092)" fill="none" stroke="#002744" stroke-linecap="round" stroke-miterlimit="10" stroke-width="0.75"/>
    <path id="Trazado_18165" data-name="Trazado 18165" d="M25.958,35.054l1.882-4.3a.328.328,0,0,0-.571-.312l-4.516,6.4s2.685.028,3.66,0L24.872,41.1a.327.327,0,0,0,.571.311c.667-.977,3.436-5.341,4.042-6.228,0,0-2.608-.1-3.527-.126" transform="translate(903.195 774)" fill="#cee6ad"/>
    <path id="Trazado_18166" data-name="Trazado 18166" d="M25.9,35.054l1.882-4.3a.328.328,0,0,0-.571-.312l-4.516,6.4s2.685.028,3.66,0L24.818,41.1a.327.327,0,0,0,.571.311c.667-.977,3.436-5.341,4.042-6.228C29.431,35.18,26.823,35.08,25.9,35.054Z" transform="translate(903.195 774)" fill="none" stroke="#002744" stroke-linejoin="round" stroke-width="0.75"/>
    <line id="Línea_6140" data-name="Línea 6140" x2="4.798" transform="translate(946.798 806.799)" fill="none" stroke="#002744" stroke-linecap="round" stroke-miterlimit="10" stroke-width="0.75"/>
    <line id="Línea_6141" data-name="Línea 6141" x2="4.798" transform="translate(946.798 808.396)" fill="none" stroke="#002744" stroke-linecap="round" stroke-miterlimit="10" stroke-width="0.75"/>
    <line id="Línea_6142" data-name="Línea 6142" x2="4.798" transform="translate(946.798 809.994)" fill="none" stroke="#002744" stroke-linecap="round" stroke-miterlimit="10" stroke-width="0.75"/>
    <line id="Línea_6143" data-name="Línea 6143" x2="4.798" transform="translate(946.798 811.592)" fill="none" stroke="#002744" stroke-linecap="round" stroke-miterlimit="10" stroke-width="0.75"/>
    <line id="Línea_6144" data-name="Línea 6144" x2="4.798" transform="translate(946.798 813.189)" fill="none" stroke="#002744" stroke-linecap="round" stroke-miterlimit="10" stroke-width="0.75"/>
    <line id="Línea_6145" data-name="Línea 6145" x2="1.609" transform="translate(938.86 809.994)" fill="none" stroke="#002744" stroke-linecap="round" stroke-miterlimit="10" stroke-width="0.75"/>
    <line id="Línea_6146" data-name="Línea 6146" x2="1.609" transform="translate(938.86 811.592)" fill="none" stroke="#002744" stroke-linecap="round" stroke-miterlimit="10" stroke-width="0.75"/>
    <line id="Línea_6147" data-name="Línea 6147" x2="1.609" transform="translate(938.86 813.189)" fill="none" stroke="#002744" stroke-linecap="round" stroke-miterlimit="10" stroke-width="0.75"/>
    <line id="Línea_6148" data-name="Línea 6148" x2="1.609" transform="translate(918.201 809.994)" fill="none" stroke="#002744" stroke-linecap="round" stroke-miterlimit="10" stroke-width="0.75"/>
    <line id="Línea_6149" data-name="Línea 6149" x2="1.609" transform="translate(918.201 811.592)" fill="none" stroke="#002744" stroke-linecap="round" stroke-miterlimit="10" stroke-width="0.75"/>
    <line id="Línea_6150" data-name="Línea 6150" x2="1.609" transform="translate(918.201 813.189)" fill="none" stroke="#002744" stroke-linecap="round" stroke-miterlimit="10" stroke-width="0.75"/>
    <path id="Trazado_18167" data-name="Trazado 18167" d="M46.874,18.361c0,.733-.39,1.328-.871,1.328s-.872-.595-.872-1.328.39-1.328.872-1.328S46.874,17.628,46.874,18.361Z" transform="translate(903.195 774)" fill="none" stroke="#002744" stroke-linecap="round" stroke-miterlimit="10" stroke-width="0.75"/>
    <path id="Trazado_18168" data-name="Trazado 18168" d="M46.874,22.875c0,.734-.39,1.329-.871,1.329s-.872-.6-.872-1.329.39-1.327.872-1.327S46.874,22.143,46.874,22.875Z" transform="translate(903.195 774)" fill="none" stroke="#002744" stroke-linecap="round" stroke-miterlimit="10" stroke-width="0.75"/>
    <path id="Trazado_18169" data-name="Trazado 18169" d="M22.468,17.352l-5.812,9.02v.593H20.2l6.306-9.613Z" transform="translate(903.195 774)" fill="#fe5000"/>
    <path id="Trazado_18170" data-name="Trazado 18170" d="M25.526,20.481l-4.178,6.484h1.81Z" transform="translate(903.195 774)" fill="#fe5000"/>
    <path id="Trazado_18171" data-name="Trazado 18171" d="M16.656,24.406,21.2,17.352H18.413L16.656,22.31Z" transform="translate(903.195 774)" fill="#fe5000"/>
    <rect id="Rectángulo_3436" data-name="Rectángulo 3436" width="19.05" height="9.613" rx="0.447" transform="translate(919.811 791.352)" fill="none" stroke="#002744" stroke-linecap="round" stroke-miterlimit="10" stroke-width="0.75"/>
  </g>
</svg>
