<svg id="illustration_Residuos" xmlns="http://www.w3.org/2000/svg" width="60" height="60" viewBox="0 0 60 60">
  <g id="Grupo_2465" data-name="Grupo 2465" transform="translate(-837.708 -695)">
    <path id="Trazado_18558" data-name="Trazado 18558" d="M79.279,0h42.857a8.572,8.572,0,0,1,8.572,8.571V51.429A8.572,8.572,0,0,1,122.136,60H79.279a8.571,8.571,0,0,1-8.571-8.571V8.571A8.571,8.571,0,0,1,79.279,0" transform="translate(767 695)" fill="#99d6ff"/>
    <path id="Trazado_18559" data-name="Trazado 18559" d="M90.346,11.253l21.774-.015a1.179,1.179,0,1,1,0,2.358L90.2,13.581" transform="translate(767 695)" fill="#ff895a"/>
    <path id="Trazado_18560" data-name="Trazado 18560" d="M96.73,8.253h8.184a6.612,6.612,0,0,1,3.625,1.082l2.9,1.9H90.2" transform="translate(767 695)" fill="#ff895a"/>
    <path id="Trazado_18561" data-name="Trazado 18561" d="M91.634,13.6h20.61a1.082,1.082,0,0,1,1.081,1.148l-1.935,32.43a4.862,4.862,0,0,1-4.853,4.572H91.194" transform="translate(767 695)" fill="#ff895a"/>
    <path id="Trazado_18562" data-name="Trazado 18562" d="M86.092,42.412l-.834-27.945a.845.845,0,0,1,.845-.87h21.57a.845.845,0,0,1,.844.9L106.528,47.82a4.176,4.176,0,0,1-4.168,3.927H86.371" transform="translate(767 695)" fill="#ff895a"/>
    <path id="Trazado_18563" data-name="Trazado 18563" d="M108.2,13.6l-21.917-.015a7.335,7.335,0,0,0-2.382.4l-4.218,1.731a1.119,1.119,0,0,1-.738-2.113l4.06-1.754a10.275,10.275,0,0,1,3.421-.589l21.774-.015a1.179,1.179,0,0,1,0,2.358" transform="translate(767 695)" fill="#ff895a"/>
    <path id="Trazado_18564" data-name="Trazado 18564" d="M107.961,11.239H86.719l2.9-1.9a6.612,6.612,0,0,1,3.625-1.082h8.184a6.618,6.618,0,0,1,3.626,1.082Z" transform="translate(767 695)" fill="#ff895a"/>
    <path id="Trazado_18565" data-name="Trazado 18565" d="M86.329,42.412h2.542a4.668,4.668,0,0,1,0,9.335H86.329" transform="translate(767 695)" fill="#ff895a"/>
    <path id="Trazado_18566" data-name="Trazado 18566" d="M91,47.079a4.667,4.667,0,1,1-4.667-4.667A4.667,4.667,0,0,1,91,47.079" transform="translate(767 695)" fill="#ff895a"/>
    <path id="Trazado_18567" data-name="Trazado 18567" d="M87.632,47.079a1.3,1.3,0,1,1-1.3-1.3,1.3,1.3,0,0,1,1.3,1.3" transform="translate(767 695)" fill="#ff895a"/>
    <path id="Trazado_18568" data-name="Trazado 18568" d="M85.2,18.805l-.108-3.63A1.532,1.532,0,0,1,86.622,13.6h20.872a.836.836,0,0,1,.835.887l-1.951,32.69a4.862,4.862,0,0,1-4.853,4.572H86.182" transform="translate(767 695)" fill="none" stroke="#002744" stroke-linecap="round" stroke-miterlimit="10" stroke-width="0.75"/>
    <line id="Línea_6293" data-name="Línea 6293" x1="0.026" y1="0.887" transform="translate(852.26 715.85)" fill="none" stroke="#002744" stroke-linecap="round" stroke-miterlimit="10" stroke-width="0.75"/>
    <line id="Línea_6294" data-name="Línea 6294" x1="0.492" y1="16.486" transform="translate(852.412 720.926)" fill="none" stroke="#002744" stroke-linecap="round" stroke-miterlimit="10" stroke-width="0.75"/>
    <path id="Trazado_18569" data-name="Trazado 18569" d="M91.445,13.6h20.74a.961.961,0,0,1,.959,1.019L111.2,47.175a4.862,4.862,0,0,1-4.853,4.572H91" transform="translate(767 695)" fill="none" stroke="#002744" stroke-linecap="round" stroke-miterlimit="10" stroke-width="0.75"/>
    <path id="Trazado_18570" data-name="Trazado 18570" d="M108.014,13.6,86.1,13.581a7.334,7.334,0,0,0-2.381.4L79.5,15.709a1.119,1.119,0,0,1-.738-2.113l4.059-1.754a10.285,10.285,0,0,1,3.422-.589l21.774-.015a1.179,1.179,0,1,1,0,2.358Z" transform="translate(767 695)" fill="none" stroke="#002744" stroke-linecap="round" stroke-miterlimit="10" stroke-width="0.75"/>
    <path id="Trazado_18571" data-name="Trazado 18571" d="M90.158,11.253l21.774-.015a1.179,1.179,0,1,1,0,2.358l-21.919-.015" transform="translate(767 695)" fill="none" stroke="#002744" stroke-linecap="round" stroke-miterlimit="10" stroke-width="0.75"/>
    <path id="Trazado_18572" data-name="Trazado 18572" d="M107.773,11.239H86.531l2.9-1.9A6.612,6.612,0,0,1,93.06,8.254h8.184a6.618,6.618,0,0,1,3.626,1.082Z" transform="translate(767 695)" fill="none" stroke="#002744" stroke-linecap="round" stroke-miterlimit="10" stroke-width="0.75"/>
    <path id="Trazado_18573" data-name="Trazado 18573" d="M96.542,8.253h8.184a6.612,6.612,0,0,1,3.625,1.082l2.9,1.9H90.013" transform="translate(767 695)" fill="none" stroke="#002744" stroke-linecap="round" stroke-miterlimit="10" stroke-width="0.75"/>
    <path id="Trazado_18574" data-name="Trazado 18574" d="M90.808,47.079a4.667,4.667,0,1,1-4.667-4.667A4.667,4.667,0,0,1,90.808,47.079Z" transform="translate(767 695)" fill="none" stroke="#002744" stroke-linecap="round" stroke-miterlimit="10" stroke-width="0.75"/>
    <path id="Trazado_18575" data-name="Trazado 18575" d="M86.14,42.412h2.542a4.668,4.668,0,0,1,0,9.335H86.14" transform="translate(767 695)" fill="none" stroke="#002744" stroke-linecap="round" stroke-miterlimit="10" stroke-width="0.75"/>
    <line id="Línea_6295" data-name="Línea 6295" x2="19.019" transform="translate(860.35 713.805)" fill="none" stroke="#002744" stroke-linecap="round" stroke-miterlimit="10" stroke-width="0.75"/>
    <circle id="Elipse_177" data-name="Elipse 177" cx="1.303" cy="1.303" r="1.303" transform="translate(851.837 740.777)" fill="none" stroke="#002744" stroke-linecap="round" stroke-miterlimit="10" stroke-width="0.75"/>
    <path id="Trazado_18576" data-name="Trazado 18576" d="M120.611,41.6l-2.676-4.468a1.041,1.041,0,0,0-.823-.4h-1.323a1.044,1.044,0,0,0-.984.695L110.371,47.7a3.162,3.162,0,0,0,3.037,4.044h4.25a5.766,5.766,0,0,0,5.569-4.273A5.108,5.108,0,0,0,120.611,41.6Z" transform="translate(767 695)" fill="#09f"/>
    <path id="Trazado_18577" data-name="Trazado 18577" d="M115.787,35.614a.828.828,0,0,1-.825-.757l-.5-5.762a1.04,1.04,0,0,1,2.021-.423l.226.668a3.619,3.619,0,0,0,3.912,2.426.716.716,0,0,1,.763.455,1.332,1.332,0,0,1-.6,1.636l-2.966,1.652a.827.827,0,0,1-.4.1Z" transform="translate(767 695)" fill="#09f"/>
    <path id="Trazado_18578" data-name="Trazado 18578" d="M120.423,41.6l-2.676-4.468a1.041,1.041,0,0,0-.823-.4H115.6a1.044,1.044,0,0,0-.984.695L110.183,47.7a3.162,3.162,0,0,0,3.037,4.044h4.25a5.766,5.766,0,0,0,5.569-4.273A5.108,5.108,0,0,0,120.423,41.6Z" transform="translate(767 695)" fill="none" stroke="#002744" stroke-linecap="round" stroke-miterlimit="10" stroke-width="0.75"/>
    <path id="Trazado_18579" data-name="Trazado 18579" d="M115.6,35.614a.828.828,0,0,1-.825-.757l-.5-5.762a1.04,1.04,0,0,1,2.021-.423l.226.668a3.619,3.619,0,0,0,3.912,2.426.716.716,0,0,1,.763.455,1.332,1.332,0,0,1-.6,1.636l-2.966,1.652a.827.827,0,0,1-.4.1Z" transform="translate(767 695)" fill="none" stroke="#002744" stroke-linecap="round" stroke-miterlimit="10" stroke-width="0.75"/>
    <path id="Trazado_18580" data-name="Trazado 18580" d="M119.972,43.6c1.455,2.139,1.337,3.951.178,5.406" transform="translate(767 695)" fill="none" stroke="#002744" stroke-linecap="round" stroke-miterlimit="10" stroke-width="0.75"/>
    <line id="Línea_6296" data-name="Línea 6296" x1="0.713" y1="1.396" transform="translate(885.338 735.834)" fill="none" stroke="#002744" stroke-linecap="round" stroke-miterlimit="10" stroke-width="0.75"/>
    <line id="Línea_6297" data-name="Línea 6297" x1="0.056" y1="4.53" transform="translate(883.295 723.672)" fill="none" stroke="#002744" stroke-linecap="round" stroke-miterlimit="10" stroke-width="0.75"/>
  </g>
</svg>
