<svg xmlns="http://www.w3.org/2000/svg" width="60" height="60" viewBox="0 0 60 60">
  <g id="Illustración_PlantaCombustion" transform="translate(0)">
    <g id="Grupo_2431" data-name="Grupo 2431" transform="translate(-999.775 -861.133)">
      <path id="Trazado_18188" data-name="Trazado 18188" d="M150.346.133H193.2A8.572,8.572,0,0,1,201.775,8.7V51.562a8.572,8.572,0,0,1-8.572,8.571H150.346a8.571,8.571,0,0,1-8.571-8.571V8.7A8.571,8.571,0,0,1,150.346.133" transform="translate(858 861)" fill="#cee6ad"/>
      <path id="Trazado_18189" data-name="Trazado 18189" d="M175.212,13.4V11.856h.188V8.415h1.923V6.107h-4.948V8.415h1.443v1.643H170.9v-.04a.757.757,0,0,0-.756-.756h-2.023a.757.757,0,0,0-.757.756v1.171a.756.756,0,0,0,.757.756h2.023a.756.756,0,0,0,.756-.756v0h1.624V13.4h-2v3.088h7.814V13.4Z" transform="translate(858 861)" fill="#ff895a"/>
      <path id="Trazado_18190" data-name="Trazado 18190" d="M182.166,18.19V52.05c0,.59-1.11,1.13-2.92,1.52a36.857,36.857,0,0,1-7.43.66c-5.71,0-10.35-.97-10.35-2.18V18.19c0-1.2,4.64-2.18,10.35-2.18a36.769,36.769,0,0,1,7.43.67c1.81.39,2.92.92,2.92,1.51" transform="translate(858 861)" fill="#ff895a"/>
      <path id="Trazado_18191" data-name="Trazado 18191" d="M182.166,18.19V52.05c0,.59-1.11,1.13-2.92,1.52V16.68c1.81.39,2.92.92,2.92,1.51" transform="translate(858 861)" fill="#fe5000"/>
      <line id="Línea_6156" data-name="Línea 6156" y1="0.795" transform="translate(1019.383 883.74)" fill="none" stroke="#002744" stroke-linecap="round" stroke-miterlimit="10" stroke-width="0.75"/>
      <path id="Trazado_18192" data-name="Trazado 18192" d="M161.383,21.054V18.193c0-1.2,4.633-2.181,10.347-2.181s10.348.976,10.348,2.181V52.05c0,1.205-4.633,2.181-10.348,2.181s-10.347-.976-10.347-2.181V27.259" transform="translate(858 861)" fill="none" stroke="#002744" stroke-linecap="round" stroke-miterlimit="10" stroke-width="0.75"/>
      <rect id="Rectángulo_3439" data-name="Rectángulo 3439" width="7.777" height="14.518" rx="0.913" transform="translate(1022.039 883.74)" fill="none" stroke="#002744" stroke-linecap="round" stroke-miterlimit="10" stroke-width="0.75"/>
      <path id="Trazado_18193" data-name="Trazado 18193" d="M170.281,16.033v-2a.652.652,0,0,1,.652-.652h6.89a.652.652,0,0,1,.652.652V15.87c0,.36-.037.6-.4.6" transform="translate(858 861)" fill="none" stroke="#002744" stroke-linecap="round" stroke-miterlimit="10" stroke-width="0.75"/>
      <path id="Trazado_18194" data-name="Trazado 18194" d="M168.58,12.06h0a1.211,1.211,0,0,1-1.211-1.211v-.376a1.211,1.211,0,0,1,2.422,0v.376A1.211,1.211,0,0,1,168.58,12.06Z" transform="translate(858 861)" fill="none" stroke="#002744" stroke-linecap="round" stroke-miterlimit="10" stroke-width="0.75"/>
      <path id="Trazado_18195" data-name="Trazado 18195" d="M168.58,9.262h1.211A1.211,1.211,0,0,1,171,10.473v.376a1.211,1.211,0,0,1-1.211,1.21H168.58" transform="translate(858 861)" fill="none" stroke="#002744" stroke-linecap="round" stroke-miterlimit="10" stroke-width="0.75"/>
      <path id="Trazado_18196" data-name="Trazado 18196" d="M172.63,13.382V11.513a.329.329,0,0,0-.328-.328H171" transform="translate(858 861)" fill="none" stroke="#002744" stroke-linecap="round" stroke-miterlimit="10" stroke-width="0.75"/>
      <path id="Trazado_18197" data-name="Trazado 18197" d="M171,9.76h1.3a1.755,1.755,0,0,1,1.753,1.754v1.868" transform="translate(858 861)" fill="none" stroke="#002744" stroke-linecap="round" stroke-miterlimit="10" stroke-width="0.75"/>
      <line id="Línea_6157" data-name="Línea 6157" y2="36.476" transform="translate(1037.249 878.125)" fill="none" stroke="#002744" stroke-linecap="round" stroke-miterlimit="10" stroke-width="0.75"/>
      <line id="Línea_6158" data-name="Línea 6158" y2="2.896" transform="translate(1034.551 874.383)" fill="none" stroke="#002744" stroke-linecap="round" stroke-miterlimit="10" stroke-width="0.75"/>
      <line id="Línea_6159" data-name="Línea 6159" y2="2.344" transform="translate(1031.818 869.291)" fill="none" stroke="#002744" stroke-linecap="round" stroke-miterlimit="10" stroke-width="0.75"/>
      <line id="Línea_6160" data-name="Línea 6160" y2="5.091" transform="translate(1033.4 869.291)" fill="none" stroke="#002744" stroke-linecap="round" stroke-miterlimit="10" stroke-width="0.75"/>
      <rect id="Rectángulo_3440" data-name="Rectángulo 3440" width="3.741" height="2.257" rx="0.483" transform="translate(1030.375 867.033)" fill="none" stroke="#002744" stroke-linecap="round" stroke-miterlimit="10" stroke-width="0.75"/>
      <path id="Trazado_18198" data-name="Trazado 18198" d="M174.432,6.034h2.432a.46.46,0,0,1,.459.459V7.832a.46.46,0,0,1-.459.459h-2.432" transform="translate(858 861)" fill="none" stroke="#002744" stroke-linecap="round" stroke-miterlimit="10" stroke-width="0.75"/>
      <path id="Trazado_18199" data-name="Trazado 18199" d="M167.365,50.858a3.915,3.915,0,0,1-1.653-6.459c2.131-2.588,2.523-2.828,2.479-4.285a3.7,3.7,0,0,1,1.936,2.936c.177,1.258-1.131,2.921.631,2.921.954,0,.826-1.29.826-1.29,1.316,1.316,1.5,5.2-1.587,6.059a1.791,1.791,0,0,0-.218-2.927c0,1.584-2.292,1.472-2.292-.432a3.347,3.347,0,0,1,.96-2.529s-2.048.444-2.048,3.793a3.125,3.125,0,0,0,.966,2.213" transform="translate(858 861)" fill="#4d997f"/>
      <path id="Trazado_18200" data-name="Trazado 18200" d="M167.365,50.858a3.915,3.915,0,0,1-1.653-6.459c2.131-2.588,2.523-2.828,2.479-4.285a3.7,3.7,0,0,1,1.936,2.936c.177,1.258-1.131,2.921.631,2.921.954,0,.826-1.29.826-1.29,1.316,1.316,1.5,5.2-1.587,6.059a1.791,1.791,0,0,0-.218-2.927c0,1.584-2.292,1.472-2.292-.432a3.347,3.347,0,0,1,.96-2.529s-2.048.444-2.048,3.793A3.125,3.125,0,0,0,167.365,50.858Z" transform="translate(858 861)" fill="none" stroke="#002744" stroke-linecap="round" stroke-linejoin="round" stroke-width="0.75"/>
      <path id="Trazado_18201" data-name="Trazado 18201" d="M176.551,23.894a1.152,1.152,0,1,1-1.153-1.153A1.153,1.153,0,0,1,176.551,23.894Z" transform="translate(858 861)" fill="none" stroke="#002744" stroke-linecap="round" stroke-linejoin="round" stroke-width="0.75"/>
      <path id="Trazado_18202" data-name="Trazado 18202" d="M176.551,28.162a1.152,1.152,0,1,1-1.153-1.153A1.153,1.153,0,0,1,176.551,28.162Z" transform="translate(858 861)" fill="none" stroke="#002744" stroke-linecap="round" stroke-linejoin="round" stroke-width="0.75"/>
      <path id="Trazado_18203" data-name="Trazado 18203" d="M169.62,32.04h0a.661.661,0,0,1-.661-.661V28.621a.661.661,0,0,1,1.322,0v2.758A.661.661,0,0,1,169.62,32.04Z" transform="translate(858 861)" fill="none" stroke="#002744" stroke-linecap="round" stroke-miterlimit="10" stroke-width="0.75"/>
    </g>
  </g>
</svg>
