<svg xmlns="http://www.w3.org/2000/svg" width="60" height="60" viewBox="0 0 60 60">
  <g id="Illustration_office" transform="translate(0)">
    <g id="Grupo_2391" data-name="Grupo 2391" transform="translate(-1011.775 -342)">
      <path id="Trazado_17696" data-name="Trazado 17696" d="M150.346,0H193.2a8.572,8.572,0,0,1,8.572,8.571V51.429A8.572,8.572,0,0,1,193.2,60H150.346a8.571,8.571,0,0,1-8.571-8.571V8.571A8.571,8.571,0,0,1,150.346,0" transform="translate(870 342)" fill="#cee6ad"/>
      <path id="Trazado_17697" data-name="Trazado 17697" d="M191.322,30.189v3.089h-.939V54.032h3.123A2.993,2.993,0,0,0,196.5,51.04V30.189Z" transform="translate(870 342)" fill="#4d997f"/>
      <path id="Trazado_17698" data-name="Trazado 17698" d="M196.435,31.965V51.041a3.063,3.063,0,0,1-3.063,3.063h-14.36V33.471" transform="translate(870 342)" fill="none" stroke="#002744" stroke-linecap="round" stroke-miterlimit="10" stroke-width="0.75"/>
      <line id="Línea_5963" data-name="Línea 5963" y2="20.633" transform="translate(1060.29 375.471)" fill="none" stroke="#002744" stroke-linecap="round" stroke-miterlimit="10" stroke-width="0.75"/>
      <line id="Línea_5964" data-name="Línea 5964" x2="11.278" transform="translate(1049.012 381.277)" fill="none" stroke="#002744" stroke-linecap="round" stroke-miterlimit="10" stroke-width="0.75"/>
      <line id="Línea_5965" data-name="Línea 5965" x2="11.278" transform="translate(1049.012 387.148)" fill="none" stroke="#002744" stroke-linecap="round" stroke-miterlimit="10" stroke-width="0.75"/>
      <path id="Trazado_17699" data-name="Trazado 17699" d="M185.2,36.374a.932.932,0,1,1-.932-.932.932.932,0,0,1,.932.932" transform="translate(870 342)" fill="#002744"/>
      <path id="Trazado_17700" data-name="Trazado 17700" d="M185.2,42.213a.932.932,0,1,1-.932-.932.932.932,0,0,1,.932.932" transform="translate(870 342)" fill="#002744"/>
      <path id="Trazado_17701" data-name="Trazado 17701" d="M185.2,48.472a.932.932,0,1,1-.932-.932.932.932,0,0,1,.932.932" transform="translate(870 342)" fill="#002744"/>
      <rect id="Rectángulo_3349" data-name="Rectángulo 3349" width="37.302" height="3.012" rx="0.786" transform="translate(1029.104 372.338)" fill="none" stroke="#002744" stroke-linecap="round" stroke-miterlimit="10" stroke-width="0.75"/>
      <path id="Trazado_17702" data-name="Trazado 17702" d="M190.492,30.339a.786.786,0,0,1,.785.786v1.44a.786.786,0,0,1-.785.786" transform="translate(870 342)" fill="none" stroke="#002744" stroke-linecap="round" stroke-miterlimit="10" stroke-width="0.75"/>
      <rect id="Rectángulo_3350" data-name="Rectángulo 3350" width="27.455" height="19.451" transform="translate(1036.562 347.896)" fill="#ff895a"/>
      <rect id="Rectángulo_3351" data-name="Rectángulo 3351" width="4.379" height="2.47" transform="translate(1047.561 367.635)" fill="#ff895a"/>
      <rect id="Rectángulo_3352" data-name="Rectángulo 3352" width="5.013" height="1.72" transform="translate(1041.433 370.43)" fill="#ff895a"/>
      <path id="Trazado_17703" data-name="Trazado 17703" d="M184.271,25.344h-1.936l-.2,2.9-5.6.315-.092,1.711,6.915-.124.638-.86h.272Z" transform="translate(870 342)" fill="#fe5000"/>
      <rect id="Rectángulo_3353" data-name="Rectángulo 3353" width="2.884" height="19.244" transform="translate(1061.277 348.104)" fill="#fe5000"/>
      <path id="Trazado_17704" data-name="Trazado 17704" d="M168.135,21.833,179.328,6.1H182.5L171.452,21.833Z" transform="translate(870 342)" fill="#fe5000"/>
      <path id="Trazado_17705" data-name="Trazado 17705" d="M184.42,6.1h3.163l-10.022,9.753Z" transform="translate(870 342)" fill="#fe5000"/>
      <path id="Trazado_17706" data-name="Trazado 17706" d="M166.417,16.712v4.206h.668L177.561,6.1H173.73Z" transform="translate(870 342)" fill="#fe5000"/>
      <rect id="Rectángulo_3354" data-name="Rectángulo 3354" width="27.744" height="19.608" rx="1" transform="translate(1036.417 347.896)" fill="none" stroke="#002744" stroke-linecap="round" stroke-miterlimit="10" stroke-width="0.75"/>
      <path id="Trazado_17707" data-name="Trazado 17707" d="M192.813,5.9c-1.053,0-1.38.531-1.38,1.185V24.319a1.186,1.186,0,0,1-1.186,1.185" transform="translate(870 342)" fill="none" stroke="#002744" stroke-linecap="round" stroke-miterlimit="10" stroke-width="0.75"/>
      <path id="Trazado_17708" data-name="Trazado 17708" d="M182.216,25.5v2.6a.179.179,0,0,1-.179.179h-4.722a1.028,1.028,0,0,0,0,2.055h5.2a1.757,1.757,0,0,0,1.757-1.757V25.5Z" transform="translate(870 342)" fill="none" stroke="#002744" stroke-linecap="round" stroke-miterlimit="10" stroke-width="0.75"/>
      <line id="Línea_5966" data-name="Línea 5966" y2="2.601" transform="translate(1047.561 367.504)" fill="none" stroke="#002744" stroke-linecap="round" stroke-miterlimit="10" stroke-width="0.75"/>
      <path id="Trazado_17709" data-name="Trazado 17709" d="M179.781,28.283h-7.464a1.027,1.027,0,1,0,0,2.055h7.643" transform="translate(870 342)" fill="none" stroke="#002744" stroke-linecap="round" stroke-miterlimit="10" stroke-width="0.75"/>
      <path id="Trazado_17710" data-name="Trazado 17710" d="M176.026,21.816h17.846" transform="translate(870 342)" fill="none" stroke="#002744" stroke-linecap="round" stroke-miterlimit="10" stroke-width="0.75"/>
      <line id="Línea_5967" data-name="Línea 5967" x2="0.686" transform="translate(1042.938 363.834)" fill="none" stroke="#002744" stroke-linecap="round" stroke-miterlimit="10" stroke-width="0.75"/>
      <line id="Línea_5968" data-name="Línea 5968" x2="4.699" transform="translate(1036.417 363.816)" fill="none" stroke="#002744" stroke-linecap="round" stroke-miterlimit="10" stroke-width="0.75"/>
      <rect id="Rectángulo_3355" data-name="Rectángulo 3355" width="1.814" height="2.086" transform="translate(1016.618 393.641)" fill="#ff895a"/>
      <rect id="Rectángulo_3356" data-name="Rectángulo 3356" width="1.814" height="2.086" transform="translate(1026.599 393.641)" fill="#ff895a"/>
      <rect id="Rectángulo_3357" data-name="Rectángulo 3357" width="1.814" height="2.086" transform="translate(1032.369 393.641)" fill="#ff895a"/>
      <rect id="Rectángulo_3358" data-name="Rectángulo 3358" width="2.027" height="6.149" transform="translate(1024.409 385.496)" fill="#ff895a"/>
      <rect id="Rectángulo_3359" data-name="Rectángulo 3359" width="16.564" height="1.559" transform="translate(1016.704 390.285)" fill="#ff895a"/>
      <path id="Trazado_17711" data-name="Trazado 17711" d="M154.876,34.45h2.16a2.58,2.58,0,0,0,2.581-2.579v-11.4a3.19,3.19,0,0,0-3.191-3.189h-.466a5.564,5.564,0,0,0-5.565,5.565V29.97a4.48,4.48,0,0,0,4.481,4.48" transform="translate(870 342)" fill="#ff895a"/>
      <path id="Trazado_17712" data-name="Trazado 17712" d="M150.8,43.332H160a2.283,2.283,0,0,0,2.283-2.283v-.761A2.283,2.283,0,0,0,160,38.005h-9.2a2.283,2.283,0,0,0-2.283,2.283v.761a2.283,2.283,0,0,0,2.283,2.283" transform="translate(870 342)" fill="#ff895a"/>
      <path id="Trazado_17713" data-name="Trazado 17713" d="M148.518,40.927V27.939a3.745,3.745,0,0,1,1.877-3.246V38.934l-1.842,2.346Z" transform="translate(870 342)" fill="#ff895a"/>
      <path id="Trazado_17714" data-name="Trazado 17714" d="M156.657,17.517a5.388,5.388,0,0,1,.72,3.5l-.116,12.649-.361.779s2.63.13,2.63-1.94V19.758c0-1.523-2.873-2.241-2.873-2.241" transform="translate(870 342)" fill="#fe5000"/>
      <path id="Trazado_17715" data-name="Trazado 17715" d="M158.485,38.371a3.4,3.4,0,0,1,3.441.563c.593.814,1.1,4.353-1.721,4.375-1.691.022-1.49-.238-1.331-1.1a7.217,7.217,0,0,0-.389-3.842" transform="translate(870 342)" fill="#fe5000"/>
      <path id="Trazado_17716" data-name="Trazado 17716" d="M154.876,34.45h2.16a2.58,2.58,0,0,0,2.581-2.579v-11.4a3.19,3.19,0,0,0-3.191-3.189h-.466a5.564,5.564,0,0,0-5.565,5.565V29.97A4.48,4.48,0,0,0,154.876,34.45Z" transform="translate(870 342)" fill="none" stroke="#002744" stroke-linecap="round" stroke-miterlimit="10" stroke-width="0.75"/>
      <path id="Trazado_17717" data-name="Trazado 17717" d="M155.937,17.287c1.2,0,1.439,1.423,1.439,2.372V32.885c0,1-.359,1.565-1.439,1.565" transform="translate(870 342)" fill="none" stroke="#002744" stroke-linecap="round" stroke-miterlimit="10" stroke-width="0.75"/>
      <rect id="Rectángulo_3360" data-name="Rectángulo 3360" width="13.765" height="5.327" rx="2.283" transform="translate(1018.518 380.004)" fill="none" stroke="#002744" stroke-linecap="round" stroke-miterlimit="10" stroke-width="0.75"/>
      <path id="Trazado_17718" data-name="Trazado 17718" d="M157.9,38.005c1.564,0,1.564,5.327,0,5.327" transform="translate(870 342)" fill="none" stroke="#002744" stroke-linecap="round" stroke-miterlimit="10" stroke-width="0.75"/>
      <path id="Trazado_17719" data-name="Trazado 17719" d="M150.4,24.693h0a3.745,3.745,0,0,0-1.877,3.245V40.927" transform="translate(870 342)" fill="none" stroke="#002744" stroke-linecap="round" stroke-miterlimit="10" stroke-width="0.75"/>
      <line id="Línea_5969" data-name="Línea 5969" y2="9.265" transform="translate(1020.415 370.793)" fill="none" stroke="#002744" stroke-linecap="round" stroke-miterlimit="10" stroke-width="0.75"/>
      <path id="Trazado_17720" data-name="Trazado 17720" d="M147.073,50.055H162.9a.651.651,0,0,0,.651-.651v-.1a1.239,1.239,0,0,0-1.24-1.239h-14.65a1.239,1.239,0,0,0-1.239,1.239v.1A.651.651,0,0,0,147.073,50.055Z" transform="translate(870 342)" fill="none" stroke="#002744" stroke-linecap="round" stroke-miterlimit="10" stroke-width="0.75"/>
      <path id="Rectángulo_3361" data-name="Rectángulo 3361" d="M1.047,0h.111A1.048,1.048,0,0,1,2.206,1.048v.533A1.047,1.047,0,0,1,1.159,2.628H1.047A1.047,1.047,0,0,1,0,1.581V1.047A1.047,1.047,0,0,1,1.047,0Z" transform="translate(1032.174 393.369)" fill="none" stroke="#002744" stroke-linecap="round" stroke-miterlimit="10" stroke-width="0.75"/>
      <path id="Rectángulo_3362" data-name="Rectángulo 3362" d="M1.047,0h.111A1.048,1.048,0,0,1,2.206,1.048v.533A1.047,1.047,0,0,1,1.159,2.628H1.047A1.047,1.047,0,0,1,0,1.581V1.047A1.047,1.047,0,0,1,1.047,0Z" transform="translate(1026.425 393.369)" fill="none" stroke="#002744" stroke-linecap="round" stroke-miterlimit="10" stroke-width="0.75"/>
      <path id="Rectángulo_3363" data-name="Rectángulo 3363" d="M1.047,0h.111A1.048,1.048,0,0,1,2.206,1.048v.533A1.047,1.047,0,0,1,1.159,2.628H1.047A1.047,1.047,0,0,1,0,1.581V1.047A1.047,1.047,0,0,1,1.047,0Z" transform="translate(1016.422 393.369)" fill="none" stroke="#002744" stroke-linecap="round" stroke-miterlimit="10" stroke-width="0.75"/>
      <rect id="Rectángulo_3364" data-name="Rectángulo 3364" width="2.206" height="4.733" transform="translate(1024.298 385.332)" fill="none" stroke="#002744" stroke-linecap="round" stroke-miterlimit="10" stroke-width="0.75"/>
      <line id="Línea_5970" data-name="Línea 5970" y2="16.533" transform="translate(1033.589 375.625)" fill="none" stroke="#002744" stroke-linecap="round" stroke-miterlimit="10" stroke-width="0.75"/>
      <line id="Línea_5971" data-name="Línea 5971" y1="1.247" transform="translate(1033.589 392.156)" fill="none" stroke="#002744" stroke-linecap="round" stroke-miterlimit="10" stroke-width="0.75"/>
      <path id="Trazado_17721" data-name="Trazado 17721" d="M160.73,50.269v3.643h2.076" transform="translate(870 342)" fill="none" stroke="#002744" stroke-linecap="round" stroke-miterlimit="10" stroke-width="0.75"/>
      <line id="Línea_5972" data-name="Línea 5972" y2="4.569" transform="translate(1030.73 385.496)" fill="none" stroke="#002744" stroke-linecap="round" stroke-miterlimit="10" stroke-width="0.75"/>
      <line id="Línea_5973" data-name="Línea 5973" y2="4.534" transform="translate(1030.73 375.471)" fill="none" stroke="#002744" stroke-linecap="round" stroke-miterlimit="10" stroke-width="0.75"/>
    </g>
  </g>
</svg>
