<svg id="illustration_Desplazamientos" xmlns="http://www.w3.org/2000/svg" width="60" height="60" viewBox="0 0 60 60">
  <g id="Grupo_2442" data-name="Grupo 2442" transform="translate(-701 -551)">
    <path id="Trazado_18351" data-name="Trazado 18351" d="M8.571,0H51.428A8.572,8.572,0,0,1,60,8.571V51.429A8.572,8.572,0,0,1,51.428,60H8.571A8.571,8.571,0,0,1,0,51.429V8.571A8.571,8.571,0,0,1,8.571,0" transform="translate(701 551)" fill="#eef9ed"/>
    <path id="Trazado_18352" data-name="Trazado 18352" d="M52.844,47.59H16.19a20.956,20.956,0,0,1-5.365-.69c-1.328-.353-.97-1.745.449-1.745H48.621a18.3,18.3,0,0,1,4.7.6c1.393.37,1.017,1.831-.472,1.831" transform="translate(701 551)" fill="#cee6ad"/>
    <path id="Trazado_18353" data-name="Trazado 18353" d="M53.771,40.6h-.733a.634.634,0,0,0-.648.562c-.324,2.832-2.32,4.964-4.656,4.964H44.8a5.742,5.742,0,0,1-5.543-4.384.636.636,0,0,0-.614-.494H26.928a.636.636,0,0,0-.614.494c-.563,2.542-2.473,4.384-4.537,4.384H18.861a5.711,5.711,0,0,1-5.713-5.7,5.089,5.089,0,0,1,.239-1.534.657.657,0,0,0-.29-.717l-1.279-.784a5.342,5.342,0,0,1,1.825-3.155,7.207,7.207,0,0,1,5.031-1.945.652.652,0,0,0,.648-.613,14.257,14.257,0,0,1,3.956-8.818.64.64,0,0,0-.46-1.074l-1.4-.017a.5.5,0,0,1-.358-.188.539.539,0,0,1-.119-.392L21.5,17.9a.839.839,0,0,1,.818-.7l1.16-.017a2.516,2.516,0,0,1,1.739.716l.1.136a.635.635,0,0,0,.631.222.61.61,0,0,0,.477-.427l.512-1.654.17-.119a.665.665,0,0,0-.221.341l-1.075,3.479a.851.851,0,0,1-.051.222.648.648,0,0,0,.068.631L26.6,21.75a.636.636,0,0,0-.631-.221.615.615,0,0,0-.495.494c-.1.46-.256.972-.443,1.6-.938,3.138-2.354,7.879.528,11.887,2.32,3.24,5.3,3.7,7.334,3.052a4.22,4.22,0,0,0,3.121-3.854,6.374,6.374,0,0,0-1.569-4.4,3.6,3.6,0,0,1-.955-1.978.64.64,0,0,0-.239-.443.981.981,0,0,1-.409-.751V26.73a1.59,1.59,0,0,1,1.569-1.586H46.932a1.921,1.921,0,0,1,1.91,1.927,1.039,1.039,0,0,1-.511.87.6.6,0,0,0-.307.528.635.635,0,0,0,.29.546c2.643,1.688,5.457,5.611,5.457,11.58" transform="translate(701 551)" fill="#ff895a"/>
    <path id="Trazado_18354" data-name="Trazado 18354" d="M24.463,41.292a5.675,5.675,0,1,0-5.639,5.045,5.6,5.6,0,0,0,.874-.074,5.6,5.6,0,0,0,.874.074,5.673,5.673,0,0,0,5.639-5.045Z" transform="translate(701 551)" fill="#fe5000"/>
    <path id="Trazado_18355" data-name="Trazado 18355" d="M52.361,40.963c-.13,3.02-2.19,5.41-4.72,5.41h-2.93a5.718,5.718,0,0,1-5.65-4.86c-.019-.16-.04-.32-.05-.48l11.4-.06Z" transform="translate(701 551)" fill="#fe5000"/>
    <line id="Línea_6242" data-name="Línea 6242" y1="0.01" transform="translate(751.412 591.963)" fill="#fe5000"/>
    <path id="Trazado_18356" data-name="Trazado 18356" d="M13.148,40.661a5.709,5.709,0,1,0,5.708-5.708A5.708,5.708,0,0,0,13.148,40.661Z" transform="translate(701 551)" fill="none" stroke="#002744" stroke-linecap="round" stroke-miterlimit="10" stroke-width="0.75"/>
    <path id="Trazado_18357" data-name="Trazado 18357" d="M18.856,46.37h2.93c2.317,0,4.245-2.229,4.65-4.885" transform="translate(701 551)" fill="none" stroke="#002744" stroke-linecap="round" stroke-miterlimit="10" stroke-width="0.75"/>
    <path id="Trazado_18358" data-name="Trazado 18358" d="M17.321,40.661a1.536,1.536,0,1,0,1.535-1.535A1.535,1.535,0,0,0,17.321,40.661Z" transform="translate(701 551)" fill="none" stroke="#002744" stroke-linecap="round" stroke-miterlimit="10" stroke-width="0.75"/>
    <path id="Trazado_18359" data-name="Trazado 18359" d="M39.1,41.031a5.709,5.709,0,0,0,11.4-.066" transform="translate(701 551)" fill="none" stroke="#002744" stroke-linecap="round" stroke-miterlimit="10" stroke-width="0.75"/>
    <path id="Trazado_18360" data-name="Trazado 18360" d="M44.8,46.37h2.93c2.527,0,4.59-2.393,4.721-5.4" transform="translate(701 551)" fill="none" stroke="#002744" stroke-linecap="round" stroke-miterlimit="10" stroke-width="0.75"/>
    <path id="Trazado_18361" data-name="Trazado 18361" d="M43.261,40.843a1.535,1.535,0,0,0,3.071,0" transform="translate(701 551)" fill="none" stroke="#002744" stroke-linecap="round" stroke-miterlimit="10" stroke-width="0.75"/>
    <path id="Trazado_18362" data-name="Trazado 18362" d="M13.514,38.663l-1.693-1.021c0-1.582,2.73-5.481,7.476-5.127,4.594.343,7.688,2.912,7.688,8.97" transform="translate(701 551)" fill="none" stroke="#002744" stroke-linecap="round" stroke-miterlimit="10" stroke-width="0.75"/>
    <line id="Línea_6243" data-name="Línea 6243" x1="14.588" transform="translate(725.5 592.484)" fill="none" stroke="#002744" stroke-linecap="round" stroke-miterlimit="10" stroke-width="0.75"/>
    <path id="Trazado_18363" data-name="Trazado 18363" d="M38.357,40.843s-2.109-6.447.743-8.712,14.667-1.458,14.667,8.712Z" transform="translate(701 551)" fill="none" stroke="#002744" stroke-linecap="round" stroke-miterlimit="10" stroke-width="0.75"/>
    <path id="Trazado_18364" data-name="Trazado 18364" d="M53.767,40.843c0-8.591-5.577-12.5-8-12.5H33.458c0,2.213,2.56,2.532,2.56,6.606,0,3.906-6.346,6.532-10.455.8s.579-13.077,0-14.711c0,0-6.266,4.356-6.266,11.471" transform="translate(701 551)" fill="none" stroke="#002744" stroke-linecap="round" stroke-miterlimit="10" stroke-width="0.75"/>
    <path id="Trazado_18365" data-name="Trazado 18365" d="M48.242,28.347H33.413a.574.574,0,0,1-.574-.573V26.312a.927.927,0,0,1,.927-.927h13.96a1.127,1.127,0,0,1,1.126,1.127v1.225A.61.61,0,0,1,48.242,28.347Z" transform="translate(701 551)" fill="none" stroke="#002744" stroke-linecap="round" stroke-miterlimit="10" stroke-width="0.75"/>
    <path id="Trazado_18366" data-name="Trazado 18366" d="M23.565,22.036,21.44,22.01a.5.5,0,0,1-.484-.58l.562-3.293a.828.828,0,0,1,.8-.689l1.206-.02a2.3,2.3,0,1,1,.039,4.608Z" transform="translate(701 551)" fill="none" stroke="#002744" stroke-linecap="round" stroke-miterlimit="10" stroke-width="0.75"/>
    <line id="Línea_6244" data-name="Línea 6244" x2="1.508" y2="2.052" transform="translate(726.753 571.836)" fill="none" stroke="#002744" stroke-linecap="round" stroke-miterlimit="10" stroke-width="0.75"/>
    <path id="Trazado_18367" data-name="Trazado 18367" d="M25.849,20.022l1.1-3.613,1.508-.967" transform="translate(701 551)" fill="none" stroke="#002744" stroke-linecap="round" stroke-miterlimit="10" stroke-width="0.75"/>
    <line id="Línea_6245" data-name="Línea 6245" x2="0.683" y2="2.782" transform="translate(729.126 564.627)" fill="none" stroke="#002744" stroke-linecap="round" stroke-miterlimit="10" stroke-width="0.75"/>
    <line id="Línea_6246" data-name="Línea 6246" y2="2.962" transform="translate(740.088 576.385)" fill="none" stroke="#002744" stroke-linecap="round" stroke-miterlimit="10" stroke-width="0.75"/>
    <line id="Línea_6247" data-name="Línea 6247" x1="12.222" y1="3.651" transform="translate(707.634 565.584)" fill="none" stroke="#002744" stroke-linecap="round" stroke-miterlimit="10" stroke-width="0.75"/>
    <line id="Línea_6248" data-name="Línea 6248" y1="3.652" x2="12.222" transform="translate(707.404 572.848)" fill="none" stroke="#002744" stroke-linecap="round" stroke-miterlimit="10" stroke-width="0.75"/>
    <line id="Línea_6249" data-name="Línea 6249" y1="0.418" x2="4.742" transform="translate(715.114 571.436)" fill="none" stroke="#002744" stroke-linecap="round" stroke-miterlimit="10" stroke-width="0.75"/>
    <line id="Línea_6250" data-name="Línea 6250" y1="0.142" x2="1.606" transform="translate(710.761 572.096)" fill="none" stroke="#002744" stroke-linecap="round" stroke-miterlimit="10" stroke-width="0.75"/>
  </g>
</svg>
