<svg id="illustration_Papeleria" xmlns="http://www.w3.org/2000/svg" width="60" height="60" viewBox="0 0 60 60">
  <g id="Grupo_2457" data-name="Grupo 2457" transform="translate(-888.775 -610)">
    <path id="Trazado_18467" data-name="Trazado 18467" d="M150.346,0H193.2a8.572,8.572,0,0,1,8.572,8.571V51.429A8.572,8.572,0,0,1,193.2,60H150.346a8.571,8.571,0,0,1-8.571-8.571V8.571A8.571,8.571,0,0,1,150.346,0" transform="translate(747 610)" fill="#cee6ad"/>
    <path id="Trazado_18468" data-name="Trazado 18468" d="M185.755,46.458H164.708a1.744,1.744,0,0,1-1.744-1.744V10.95a1.744,1.744,0,0,1,1.744-1.744h23.326a1.744,1.744,0,0,1,1.744,1.744L187.5,44.714a1.744,1.744,0,0,1-1.744,1.744" transform="translate(747 610)" fill="#4d997f"/>
    <path id="Trazado_18469" data-name="Trazado 18469" d="M192.632,45.123,192.4,20.28l-7.32-7.273H169.612a1.744,1.744,0,0,0-1.744,1.744V46.607h23.28a1.483,1.483,0,0,0,1.484-1.484" transform="translate(747 610)" fill="#ff895a"/>
    <line id="Línea_6271" data-name="Línea 6271" y1="17.678" transform="translate(939.404 630.279)" fill="none" stroke="#002744" stroke-linecap="round" stroke-miterlimit="10" stroke-width="0.75"/>
    <line id="Línea_6272" data-name="Línea 6272" y1="0.913" transform="translate(939.404 650.787)" fill="none" stroke="#002744" stroke-linecap="round" stroke-miterlimit="10" stroke-width="0.75"/>
    <path id="Trazado_18470" data-name="Trazado 18470" d="M185.085,12.961h-15.8a1.422,1.422,0,0,0-1.422,1.422V45.232a1.422,1.422,0,0,0,1.422,1.422h21.691a1.421,1.421,0,0,0,1.422-1.422v-.9" transform="translate(747 610)" fill="none" stroke="#002744" stroke-linecap="round" stroke-miterlimit="10" stroke-width="0.75"/>
    <path id="Trazado_18471" data-name="Trazado 18471" d="M185.085,12.961v6.163a1.155,1.155,0,0,0,1.155,1.156H192.4Z" transform="translate(747 610)" fill="none" stroke="#002744" stroke-linecap="round" stroke-linejoin="round" stroke-width="0.75"/>
    <path id="Trazado_18472" data-name="Trazado 18472" d="M167.869,37.477h-3.482a1.422,1.422,0,0,1-1.422-1.422V10.628a1.422,1.422,0,0,1,1.422-1.422h23.969a1.423,1.423,0,0,1,1.423,1.422v7.027" transform="translate(747 610)" fill="none" stroke="#002744" stroke-linecap="round" stroke-miterlimit="10" stroke-width="0.75"/>
    <path id="Trazado_18473" data-name="Trazado 18473" d="M173.87,23.231V48.872a1.918,1.918,0,0,1-1.911,1.922H155.931l10.357-24.5h2.187V24.661a.853.853,0,0,0-.853-.841h-.288l.925-2.2h4.013a1.6,1.6,0,0,1,1.6,1.61" transform="translate(747 610)" fill="#fe5000"/>
    <path id="Trazado_18474" data-name="Trazado 18474" d="M169.184,21.621H163.9a2.427,2.427,0,0,0-1.874.9l-3,3.8h-6.176a1.918,1.918,0,0,0-1.922,1.91V48.872a1.928,1.928,0,0,0,1.922,1.922h16.028a1.918,1.918,0,0,0,1.911-1.922V23.231a1.608,1.608,0,0,0-1.6-1.61m-.709,4.674h-6.2l1.586-1.994a1.263,1.263,0,0,1,.985-.481h2.776a.854.854,0,0,1,.853.841Z" transform="translate(747 610)" fill="#ff895a"/>
    <path id="Trazado_18475" data-name="Trazado 18475" d="M173.874,33.333l-3.093-.06-19.864-.06V41.7l19.864-.228,3.093.228Z" transform="translate(747 610)" fill="#fe5000"/>
    <path id="Trazado_18476" data-name="Trazado 18476" d="M157.955,22.488h-4.52v1.8h.522v2h3.592v-2h.406Z" transform="translate(747 610)" fill="#ff895a"/>
    <path id="Rectángulo_3454" data-name="Rectángulo 3454" d="M.489,0H4.157a.489.489,0,0,1,.489.489V1.558a.49.49,0,0,1-.49.49H.489A.489.489,0,0,1,0,1.559V.489A.489.489,0,0,1,.489,0Z" transform="translate(900.372 632.488)" fill="none" stroke="#002744" stroke-linecap="round" stroke-miterlimit="10" stroke-width="0.75"/>
    <path id="Trazado_18477" data-name="Trazado 18477" d="M162.026,22.538l-3,3.785h-6.174a1.918,1.918,0,0,0-1.918,1.918V48.859a1.918,1.918,0,0,0,1.918,1.917h16.011a1.918,1.918,0,0,0,1.918-1.918V23.238a1.6,1.6,0,0,0-1.6-1.6H163.9A2.39,2.39,0,0,0,162.026,22.538Z" transform="translate(747 610)" fill="none" stroke="#002744" stroke-linecap="round" stroke-miterlimit="10" stroke-width="0.75"/>
    <path id="Trazado_18478" data-name="Trazado 18478" d="M155.938,50.777h16.01a1.918,1.918,0,0,0,1.918-1.918V23.239a1.6,1.6,0,0,0-1.6-1.6h-4.006" transform="translate(747 610)" fill="none" stroke="#002744" stroke-linecap="round" stroke-miterlimit="10" stroke-width="0.75"/>
    <path id="Trazado_18479" data-name="Trazado 18479" d="M162.281,26.291l1.582-1.994a1.259,1.259,0,0,1,.986-.476h2.779a.845.845,0,0,1,.845.845v1.625Z" transform="translate(747 610)" fill="none" stroke="#002744" stroke-linecap="round" stroke-linejoin="round" stroke-width="0.75"/>
    <line id="Línea_6273" data-name="Línea 6273" y2="1.788" transform="translate(901.02 634.535)" fill="none" stroke="#002744" stroke-linecap="round" stroke-linejoin="round" stroke-width="0.75"/>
    <line id="Línea_6274" data-name="Línea 6274" y2="1.788" transform="translate(904.506 634.535)" fill="none" stroke="#002744" stroke-linecap="round" stroke-linejoin="round" stroke-width="0.75"/>
    <path id="Trazado_18480" data-name="Trazado 18480" d="M150.93,33.213l19.846.12h3.09" transform="translate(747 610)" fill="none" stroke="#002744" stroke-linecap="round" stroke-miterlimit="10" stroke-width="0.75"/>
    <path id="Trazado_18481" data-name="Trazado 18481" d="M150.93,41.7h22.936" transform="translate(747 610)" fill="none" stroke="#002744" stroke-linecap="round" stroke-miterlimit="10" stroke-width="0.75"/>
  </g>
</svg>
