<svg id="Illustration_Car" xmlns="http://www.w3.org/2000/svg" width="60" height="60" viewBox="0 0 60 60">
  <g id="Grupo_2412" data-name="Grupo 2412" transform="translate(-931.708 -650)">
    <path id="Trazado_17971" data-name="Trazado 17971" d="M79.279,0h42.857a8.572,8.572,0,0,1,8.572,8.571V51.429A8.572,8.572,0,0,1,122.136,60H79.279a8.571,8.571,0,0,1-8.571-8.571V8.571A8.571,8.571,0,0,1,79.279,0" transform="translate(861 650)" fill="#99d6ff"/>
    <path id="Trazado_17972" data-name="Trazado 17972" d="M121.448,41.067H84.794a20.956,20.956,0,0,1-5.365-.69c-1.328-.354-.97-1.745.449-1.745h37.347a18.3,18.3,0,0,1,4.695.6c1.393.37,1.017,1.831-.472,1.831" transform="translate(861 650)" fill="#09f"/>
    <path id="Trazado_17973" data-name="Trazado 17973" d="M125.451,25.912v4.9l-.373,1.545-.861,3.483c0,.021-.01.031-.01.042l-.052.228-.073.031-.974.4h-2.519c-.415,0-.612.166-1.825,1.67s-4.583,1.42-7.03.787-1.4-2.674-3.151-2.457h-3.049a2.655,2.655,0,0,0-1.928.985c-.726.757-3.058,2.748-7.247,1.659a3.335,3.335,0,0,1-2.094-1.8,1.52,1.52,0,0,0-1.8-.84,2.932,2.932,0,0,0-.705.177,2.214,2.214,0,0,0-1.151,1.233c-.5.933-3.121,1.576-6.221,1.556s-2.229-2.966-4.489-2.966-3.929.353-3.929-1.627a23.582,23.582,0,0,1,.28-3.608s.8-1.6,1.285-1.794,2.291-.912,2.291-.912l3.6-1.452A6.344,6.344,0,0,0,85.5,25.642c.425-.725,2.208-4.136,3.214-5.443s2.312-1.254,3.743-1.254h19.553a1.082,1.082,0,0,1,.2.021.1.1,0,0,1,.052.01c.55.166.861.86,1.016,1.628a.091.091,0,0,0,.011.052l.031.186c.145.871.642,3.142.746,3.629a.784.784,0,0,0,.021.093h.1l10.575.28.632,1Z" transform="translate(861 650)" fill="#ff895a"/>
    <path id="Trazado_17974" data-name="Trazado 17974" d="M90.6,37.96s.5-1.411-.506-1.411H81.836c-.416,0-.616.765.038,1.416s1.948,1.388,4.535,1.388a7.032,7.032,0,0,0,4.111-1.2Z" transform="translate(861 650)" fill="#fe5000"/>
    <path id="Trazado_17975" data-name="Trazado 17975" d="M86.926,26.639l7.521-7.472H98.57l-7.945,7.618Z" transform="translate(861 650)" fill="#fe5000"/>
    <path id="Trazado_17976" data-name="Trazado 17976" d="M91.687,26.639l7.668-7.472h1.34Z" transform="translate(861 650)" fill="#fe5000"/>
    <path id="Trazado_17977" data-name="Trazado 17977" d="M125.4,25.84c-.073-.664-.27-1.026-.632-1-.5.041-8.243-.114-9.445-.114a2.275,2.275,0,0,1-1.131-.166.285.285,0,0,1-.124-.094,1.311,1.311,0,0,1-.218-.342,23.093,23.093,0,0,1-.56-3.473.1.1,0,0,1-.01-.052c-.021-.134-.031-.249-.052-.352-.145-.9-.4-1.192-.964-1.275a.089.089,0,0,0-.052-.011,1.178,1.178,0,0,0-.2-.021H112c-.322-.02-1.338-.01-2.488,0-1.545.011-3.318.021-3.982,0h-.114a1.6,1.6,0,0,0-1.7,1.234c-.28.726-2.488,4.251-3.079,5.267a2.486,2.486,0,0,1-1.6,1.337c-.726.343-4.479,1.867-5.2,2.167a5.967,5.967,0,0,0-2.416,2.634c-.736,1.233-.55,1.907-.55,3.431l.882,1.711a2.889,2.889,0,0,1,.705-.176,1.519,1.519,0,0,1,1.8.84,3.338,3.338,0,0,0,2.094,1.8c.125.032.926-.534,1.048-.507-3.1-2.7-2.692-8.629,2.6-8.629,3.97,0,5.217,3.52,4.468,6.491a4.27,4.27,0,0,1,1.06,0h3.049c1.752-.218.694,1.835,3.151,2.457.127.033,1.013-.1,1.144-.07-2.628-2.877-2.155-8.694,2.91-8.694,3.828,0,5.152,3.4,4.594,6.306h2.726l.974-.4a1.357,1.357,0,0,0,.125-.26c0-.01.01-.02.01-.041.249-.767.809-2.913.809-2.913s.021-.218.052-.571c.1-1.368.373-4.8.373-5.723a4.565,4.565,0,0,0-.052-.8" transform="translate(861 650)" fill="#fe5000"/>
    <path id="Trazado_17978" data-name="Trazado 17978" d="M87.813,21.7l.7-1.2a3.143,3.143,0,0,1,2.713-1.556h12.176a.594.594,0,0,1,.512.893l-3.452,5.893a2.131,2.131,0,0,1-1.838,1.055H85.738a.516.516,0,0,1-.445-.778l.481-.821" transform="translate(861 650)" fill="none" stroke="#002744" stroke-linecap="round" stroke-miterlimit="10" stroke-width="0.75"/>
    <line id="Línea_6058" data-name="Línea 6058" y1="0.446" x2="0.261" transform="translate(947.367 673.729)" fill="none" stroke="#002744" stroke-linecap="round" stroke-miterlimit="10" stroke-width="0.75"/>
    <path id="Trazado_17979" data-name="Trazado 17979" d="M90.1,32.335H76.409a.44.44,0,0,1-.378-.666l.97-1.62a1.547,1.547,0,0,1,1.328-.753H92.795l-1.368,2.286A1.55,1.55,0,0,1,90.1,32.335Z" transform="translate(861 650)" fill="none" stroke="#002744" stroke-linecap="round" stroke-miterlimit="10" stroke-width="0.75"/>
    <line id="Línea_6059" data-name="Línea 6059" x1="6.937" y2="2.883" transform="translate(953.46 676.639)" fill="none" stroke="#002744" stroke-linecap="round" stroke-miterlimit="10" stroke-width="0.75"/>
    <line id="Línea_6060" data-name="Línea 6060" x1="7.209" y2="2.895" transform="translate(939.013 676.434)" fill="none" stroke="#002744" stroke-linecap="round" stroke-miterlimit="10" stroke-width="0.75"/>
    <line id="Línea_6061" data-name="Línea 6061" x1="3.74" transform="translate(951.099 682.336)" fill="none" stroke="#002744" stroke-linecap="round" stroke-miterlimit="10" stroke-width="0.75"/>
    <line id="Línea_6062" data-name="Línea 6062" x1="5.451" transform="translate(965.248 682.336)" fill="none" stroke="#002744" stroke-linecap="round" stroke-miterlimit="10" stroke-width="0.75"/>
    <path id="Trazado_17980" data-name="Trazado 17980" d="M103.408,18.944h8.287a1.555,1.555,0,0,1,1.535,1.309l.622,3.879a.716.716,0,0,0,.708.6h9.71a1.179,1.179,0,0,1,1.179,1.179v5.71a.711.711,0,0,1-.712.711h-4.846" transform="translate(861 650)" fill="none" stroke="#002744" stroke-linecap="round" stroke-miterlimit="10" stroke-width="0.75"/>
    <path id="Trazado_17981" data-name="Trazado 17981" d="M90.876,32.335v4.214H77.16a1.192,1.192,0,0,1-1.192-1.192v-3.41" transform="translate(861 650)" fill="none" stroke="#002744" stroke-linecap="round" stroke-miterlimit="10" stroke-width="0.75"/>
    <line id="Línea_6063" data-name="Línea 6063" x1="2.666" transform="translate(951.876 686.549)" fill="none" stroke="#002744" stroke-linecap="round" stroke-miterlimit="10" stroke-width="0.75"/>
    <line id="Línea_6064" data-name="Línea 6064" x1="4.899" transform="translate(965.584 686.549)" fill="none" stroke="#002744" stroke-linecap="round" stroke-miterlimit="10" stroke-width="0.75"/>
    <path id="Trazado_17982" data-name="Trazado 17982" d="M125.178,32.169l-.619,3.185a1.477,1.477,0,0,1-1.45,1.195H119.99" transform="translate(861 650)" fill="none" stroke="#002744" stroke-linecap="round" stroke-miterlimit="10" stroke-width="0.75"/>
    <path id="Trazado_17983" data-name="Trazado 17983" d="M120.382,34.665a4.716,4.716,0,1,1-4.715-4.715A4.715,4.715,0,0,1,120.382,34.665Z" transform="translate(861 650)" fill="none" stroke="#002744" stroke-linecap="round" stroke-miterlimit="10" stroke-width="0.75"/>
    <path id="Trazado_17984" data-name="Trazado 17984" d="M115.666,39.38h-2.42c-2.157,0-3.906-2.111-3.906-4.715s1.749-4.716,3.906-4.716h2.42" transform="translate(861 650)" fill="none" stroke="#002744" stroke-linecap="round" stroke-miterlimit="10" stroke-width="0.75"/>
    <path id="Trazado_17985" data-name="Trazado 17985" d="M104.584,34.665a4.715,4.715,0,1,1-4.715-4.715A4.715,4.715,0,0,1,104.584,34.665Z" transform="translate(861 650)" fill="none" stroke="#002744" stroke-linecap="round" stroke-miterlimit="10" stroke-width="0.75"/>
    <path id="Trazado_17986" data-name="Trazado 17986" d="M99.868,39.38h-2.42c-2.157,0-3.906-2.111-3.906-4.715s1.749-4.716,3.906-4.716h2.42" transform="translate(861 650)" fill="none" stroke="#002744" stroke-linecap="round" stroke-miterlimit="10" stroke-width="0.75"/>
    <path id="Trazado_17987" data-name="Trazado 17987" d="M91.425,36.707A4.542,4.542,0,0,1,87.08,39.38a4.716,4.716,0,0,1-4.324-2.831" transform="translate(861 650)" fill="none" stroke="#002744" stroke-linecap="round" stroke-miterlimit="10" stroke-width="0.75"/>
    <path id="Trazado_17988" data-name="Trazado 17988" d="M87.08,39.38H84.66a3.962,3.962,0,0,1-3.582-2.832" transform="translate(861 650)" fill="none" stroke="#002744" stroke-linecap="round" stroke-miterlimit="10" stroke-width="0.75"/>
    <line id="Línea_6065" data-name="Línea 6065" x1="0.923" y2="0.923" transform="translate(977.446 676.322)" fill="none" stroke="#002744" stroke-linecap="round" stroke-miterlimit="10" stroke-width="0.75"/>
    <line id="Línea_6066" data-name="Línea 6066" x1="0.923" y2="0.923" transform="translate(978.98 676.322)" fill="none" stroke="#002744" stroke-linecap="round" stroke-miterlimit="10" stroke-width="0.75"/>
    <line id="Línea_6067" data-name="Línea 6067" x1="0.923" y2="0.923" transform="translate(980.514 676.322)" fill="none" stroke="#002744" stroke-linecap="round" stroke-miterlimit="10" stroke-width="0.75"/>
    <line id="Línea_6068" data-name="Línea 6068" x1="0.923" y2="0.923" transform="translate(982.048 676.322)" fill="none" stroke="#002744" stroke-linecap="round" stroke-miterlimit="10" stroke-width="0.75"/>
    <path id="Trazado_17989" data-name="Trazado 17989" d="M101.136,34.665A1.269,1.269,0,1,1,99.868,33.4,1.268,1.268,0,0,1,101.136,34.665Z" transform="translate(861 650)" fill="none" stroke="#002744" stroke-linecap="round" stroke-miterlimit="10" stroke-width="0.75"/>
    <path id="Trazado_17990" data-name="Trazado 17990" d="M116.935,34.665a1.269,1.269,0,1,1-1.269-1.268A1.269,1.269,0,0,1,116.935,34.665Z" transform="translate(861 650)" fill="none" stroke="#002744" stroke-linecap="round" stroke-miterlimit="10" stroke-width="0.75"/>
    <path id="Trazado_17991" data-name="Trazado 17991" d="M80.109,32.335l-.319.623a1.329,1.329,0,0,1-1.182.722H77.39" transform="translate(861 650)" fill="none" stroke="#002744" stroke-linecap="round" stroke-miterlimit="10" stroke-width="0.75"/>
    <path id="Trazado_17992" data-name="Trazado 17992" d="M85.7,32.335l.442.647a1.6,1.6,0,0,0,1.322.7h2.142" transform="translate(861 650)" fill="none" stroke="#002744" stroke-linecap="round" stroke-miterlimit="10" stroke-width="0.75"/>
    <path id="Trazado_17993" data-name="Trazado 17993" d="M105.549,20.386l-1.78,3.485a.9.9,0,0,0,.805,1.315h6.183" transform="translate(861 650)" fill="none" stroke="#002744" stroke-linecap="round" stroke-miterlimit="10" stroke-width="0.75"/>
  </g>
</svg>
