<svg id="illustration_Mensajeria" xmlns="http://www.w3.org/2000/svg" width="60" height="60" viewBox="0 0 60 60">
  <g id="Grupo_2485" data-name="Grupo 2485" transform="translate(-948.775 -891)">
    <path id="Trazado_18769" data-name="Trazado 18769" d="M150.346,0H193.2a8.572,8.572,0,0,1,8.572,8.571V51.429A8.572,8.572,0,0,1,193.2,60H150.346a8.571,8.571,0,0,1-8.571-8.571V8.571A8.571,8.571,0,0,1,150.346,0" transform="translate(807 891)" fill="#cee6ad"/>
    <path id="Trazado_18770" data-name="Trazado 18770" d="M164.816,16.832h22.447V37.838a2.345,2.345,0,0,1-2.345,2.345h-20.1" transform="translate(807 891)" fill="#fe5000"/>
    <path id="Trazado_18771" data-name="Trazado 18771" d="M161.486,40.183h26.508a1.731,1.731,0,0,1,1.731,1.731v6.6a1.731,1.731,0,0,1-1.731,1.731H175.347" transform="translate(807 891)" fill="#fe5000"/>
    <path id="Trazado_18772" data-name="Trazado 18772" d="M178.96,40.183h-19.3a2.745,2.745,0,0,1-2.745-2.744V16.832H181.7V37.439a2.744,2.744,0,0,1-2.744,2.744" transform="translate(807 891)" fill="#ff895a"/>
    <path id="Trazado_18773" data-name="Trazado 18773" d="M170.718,22.34h-2.8a.936.936,0,0,1-.936-.936V16.832h4.671V21.4a.936.936,0,0,1-.936.936" transform="translate(807 891)" fill="#4d997f"/>
    <path id="Trazado_18774" data-name="Trazado 18774" d="M157.681,50.244h-2.368a1.731,1.731,0,0,1-1.731-1.731v-6.6a1.731,1.731,0,0,1,1.731-1.731h27.122a1.731,1.731,0,0,1,1.731,1.731v6.6a1.731,1.731,0,0,1-1.731,1.731H163.049" transform="translate(807 891)" fill="#ff895a"/>
    <path id="Trazado_18775" data-name="Trazado 18775" d="M170.2,43.787h-2.656a1.007,1.007,0,0,1-1.007-1.007v-2.6h4.67v2.6a1.007,1.007,0,0,1-1.007,1.007" transform="translate(807 891)" fill="#4d997f"/>
    <path id="Trazado_18776" data-name="Trazado 18776" d="M192.251,11.756h-3.842a2.071,2.071,0,0,0-1.347.5l-5.357,4.579h5.569l5.208-4.451a.355.355,0,0,0-.231-.625" transform="translate(807 891)" fill="#ff895a"/>
    <path id="Trazado_18777" data-name="Trazado 18777" d="M155.109,11.756H151.3a.355.355,0,0,0-.212.64l5.955,4.436h5.569l-6.262-4.665a2.073,2.073,0,0,0-1.239-.411" transform="translate(807 891)" fill="#fe5000"/>
    <path id="Trazado_18778" data-name="Trazado 18778" d="M178.96,40.183h-19.3a2.745,2.745,0,0,1-2.745-2.744V16.832H181.7V37.439A2.744,2.744,0,0,1,178.96,40.183Z" transform="translate(807 891)" fill="none" stroke="#002744" stroke-linecap="round" stroke-miterlimit="10" stroke-width="0.75"/>
    <path id="Trazado_18779" data-name="Trazado 18779" d="M164.816,16.832h22.447V37.838a2.345,2.345,0,0,1-2.345,2.345h-20.1" transform="translate(807 891)" fill="none" stroke="#002744" stroke-linecap="round" stroke-miterlimit="10" stroke-width="0.75"/>
    <path id="Trazado_18780" data-name="Trazado 18780" d="M170.718,22.34h-2.8a.936.936,0,0,1-.936-.936V16.832h4.671V21.4A.936.936,0,0,1,170.718,22.34Z" transform="translate(807 891)" fill="none" stroke="#002744" stroke-linecap="round" stroke-miterlimit="10" stroke-width="0.75"/>
    <line id="Línea_6333" data-name="Línea 6333" y2="2.843" transform="translate(979.618 924.838)" fill="none" stroke="#002744" stroke-linecap="round" stroke-miterlimit="10" stroke-width="0.75"/>
    <line id="Línea_6334" data-name="Línea 6334" y2="2.843" transform="translate(980.76 924.838)" fill="none" stroke="#002744" stroke-linecap="round" stroke-miterlimit="10" stroke-width="0.75"/>
    <line id="Línea_6335" data-name="Línea 6335" y2="2.843" transform="translate(981.902 924.838)" fill="none" stroke="#002744" stroke-linecap="round" stroke-miterlimit="10" stroke-width="0.75"/>
    <line id="Línea_6336" data-name="Línea 6336" y2="2.843" transform="translate(983.044 924.838)" fill="none" stroke="#002744" stroke-linecap="round" stroke-miterlimit="10" stroke-width="0.75"/>
    <line id="Línea_6337" data-name="Línea 6337" y2="2.843" transform="translate(984.187 924.838)" fill="none" stroke="#002744" stroke-linecap="round" stroke-miterlimit="10" stroke-width="0.75"/>
    <line id="Línea_6338" data-name="Línea 6338" x1="0.914" transform="translate(966.204 941.244)" fill="none" stroke="#002744" stroke-linecap="round" stroke-miterlimit="10" stroke-width="0.75"/>
    <path id="Trazado_18781" data-name="Trazado 18781" d="M157.681,50.244h-2.368a1.731,1.731,0,0,1-1.731-1.731v-6.6a1.731,1.731,0,0,1,1.731-1.731h27.122a1.731,1.731,0,0,1,1.731,1.731v6.6a1.731,1.731,0,0,1-1.731,1.731H163.049" transform="translate(807 891)" fill="none" stroke="#002744" stroke-linecap="round" stroke-miterlimit="10" stroke-width="0.75"/>
    <path id="Trazado_18782" data-name="Trazado 18782" d="M161.486,40.183h26.508a1.731,1.731,0,0,1,1.731,1.731v6.6a1.731,1.731,0,0,1-1.731,1.731H175.347" transform="translate(807 891)" fill="none" stroke="#002744" stroke-linecap="round" stroke-miterlimit="10" stroke-width="0.75"/>
    <path id="Trazado_18783" data-name="Trazado 18783" d="M170.2,43.787h-2.656a1.007,1.007,0,0,1-1.007-1.007v-2.6h4.67v2.6A1.007,1.007,0,0,1,170.2,43.787Z" transform="translate(807 891)" fill="none" stroke="#002744" stroke-linecap="round" stroke-miterlimit="10" stroke-width="0.75"/>
    <path id="Trazado_18784" data-name="Trazado 18784" d="M192.251,11.756h-3.842a2.071,2.071,0,0,0-1.347.5l-5.357,4.579h5.569l5.208-4.451A.355.355,0,0,0,192.251,11.756Z" transform="translate(807 891)" fill="none" stroke="#002744" stroke-linecap="round" stroke-miterlimit="10" stroke-width="0.75"/>
    <path id="Trazado_18785" data-name="Trazado 18785" d="M155.109,11.756H151.3a.355.355,0,0,0-.212.64l5.955,4.436h5.569l-6.262-4.665A2.073,2.073,0,0,0,155.109,11.756Z" transform="translate(807 891)" fill="none" stroke="#002744" stroke-linecap="round" stroke-linejoin="round" stroke-width="0.75"/>
  </g>
</svg>
