<svg xmlns="http://www.w3.org/2000/svg" width="60" height="60" viewBox="0 0 60 60">
  <g id="illustration_ConsumoEnergia" transform="translate(0)">
    <path id="Trazado_18236" data-name="Trazado 18236" d="M221.377,1.848h42.857a8.572,8.572,0,0,1,8.572,8.571V53.277a8.572,8.572,0,0,1-8.572,8.571H221.377a8.571,8.571,0,0,1-8.571-8.571V10.419a8.571,8.571,0,0,1,8.571-8.571" transform="translate(-212.806 -1.848)" fill="#f7f9f7"/>
    <path id="Trazado_18237" data-name="Trazado 18237" d="M245.968,18.455h-6.15a1.135,1.135,0,0,1,0-2.27h6.15a1.135,1.135,0,0,1,0,2.27" transform="translate(-212.806 -1.848)" fill="#e8f9ec"/>
    <path id="Trazado_18238" data-name="Trazado 18238" d="M245.968,16.185h-6.15a1.135,1.135,0,0,1,0-2.27h6.15a1.135,1.135,0,0,1,0,2.27" transform="translate(-212.806 -1.848)" fill="#e8f9ec"/>
    <path id="Trazado_18239" data-name="Trazado 18239" d="M253.585,36.254a11.013,11.013,0,1,1-18.879-8.812,9.7,9.7,0,0,0,2.789-6.725v-.7a1.566,1.566,0,0,1,1.565-1.566h7.156a1.566,1.566,0,0,1,1.566,1.566v.7a9.27,9.27,0,0,0,2.64,6.574,10.986,10.986,0,0,1,3.163,8.958" transform="translate(-212.806 -1.848)" fill="#eef9ed"/>
    <path id="Trazado_18240" data-name="Trazado 18240" d="M253.735,36.255a11.052,11.052,0,0,1-9.67,9.76,10.524,10.524,0,0,1-2.02.04c4.95-.69,9.31-4.83,9.82-9.8a10.992,10.992,0,0,0-3.16-8.96,9.27,9.27,0,0,1-2.64-6.57v-.7c0-.87-1.07-1.57-1.93-1.57a1.135,1.135,0,1,0,0-2.27,1.135,1.135,0,1,0,0-2.27h1.73a1.135,1.135,0,0,1,0,2.27,1.135,1.135,0,0,1,0,2.27h.5a1.566,1.566,0,0,1,1.57,1.57v.7a9.27,9.27,0,0,0,2.64,6.57,10.959,10.959,0,0,1,3.16,8.96" transform="translate(-212.806 -1.848)" fill="#c6cccb"/>
    <path id="Trazado_18241" data-name="Trazado 18241" d="M244.843,12.571h-4.076a.753.753,0,0,1-.753-.753,2.748,2.748,0,0,1,2.748-2.749h.086a2.748,2.748,0,0,1,2.748,2.749.753.753,0,0,1-.753.753" transform="translate(-212.806 -1.848)" fill="#e8f9ec"/>
    <path id="Trazado_18242" data-name="Trazado 18242" d="M237.458,23.036a9.263,9.263,0,0,0,.3-2.32v-.695a1.566,1.566,0,0,1,1.565-1.566h7.156a1.566,1.566,0,0,1,1.566,1.566v.7a9.27,9.27,0,0,0,2.64,6.574,11.014,11.014,0,1,1-15.716.146q.232-.24.448-.495" transform="translate(-212.806 -1.848)" fill="none" stroke="#002744" stroke-linecap="round" stroke-miterlimit="10" stroke-width="0.75"/>
    <path id="Trazado_18243" data-name="Trazado 18243" d="M236.23,25.841q.206-.321.384-.654" transform="translate(-212.806 -1.848)" fill="none" stroke="#002744" stroke-linecap="round" stroke-miterlimit="10" stroke-width="0.75"/>
    <path id="Trazado_18244" data-name="Trazado 18244" d="M244.345,18.455a1.566,1.566,0,0,1,1.566,1.566v.7a9.27,9.27,0,0,0,2.64,6.574,11.01,11.01,0,0,1-6.506,18.722" transform="translate(-212.806 -1.848)" fill="none" stroke="#002744" stroke-linecap="round" stroke-miterlimit="10" stroke-width="0.75"/>
    <path id="Trazado_18245" data-name="Trazado 18245" d="M245.968,18.455h-6.15a1.135,1.135,0,0,1,0-2.27h6.15a1.135,1.135,0,0,1,0,2.27Z" transform="translate(-212.806 -1.848)" fill="none" stroke="#002744" stroke-linecap="round" stroke-miterlimit="10" stroke-width="0.75"/>
    <path id="Trazado_18246" data-name="Trazado 18246" d="M245.968,16.185h-6.15a1.135,1.135,0,0,1,0-2.27h6.15a1.135,1.135,0,0,1,0,2.27Z" transform="translate(-212.806 -1.848)" fill="none" stroke="#002744" stroke-linecap="round" stroke-miterlimit="10" stroke-width="0.75"/>
    <path id="Trazado_18247" data-name="Trazado 18247" d="M242.634,16.185h1.351a1.135,1.135,0,0,1,0,2.27h-1.351" transform="translate(-212.806 -1.848)" fill="none" stroke="#002744" stroke-linecap="round" stroke-miterlimit="10" stroke-width="0.75"/>
    <path id="Trazado_18248" data-name="Trazado 18248" d="M242.634,13.915h1.351a1.135,1.135,0,0,1,0,2.27h-1.351" transform="translate(-212.806 -1.848)" fill="none" stroke="#002744" stroke-linecap="round" stroke-miterlimit="10" stroke-width="0.75"/>
    <path id="Trazado_18249" data-name="Trazado 18249" d="M244.931,12.571h-4.076a.753.753,0,0,1-.753-.753,2.748,2.748,0,0,1,2.748-2.749h.086a2.748,2.748,0,0,1,2.748,2.749A.753.753,0,0,1,244.931,12.571Z" transform="translate(-212.806 -1.848)" fill="none" stroke="#002744" stroke-linecap="round" stroke-miterlimit="10" stroke-width="0.75"/>
    <path id="Trazado_18250" data-name="Trazado 18250" d="M242.421,30.633l2.5-5.706a.435.435,0,0,0-.757-.413l-6,8.492s3.565.036,4.859,0l-2.045,5.649a.433.433,0,0,0,.757.413c.886-1.3,4.562-7.091,5.366-8.268,0,0-3.462-.132-4.682-.167" transform="translate(-212.806 -1.848)" fill="#c6cccb"/>
    <line id="Línea_6171" data-name="Línea 6171" y2="4.013" transform="translate(30.087 48.765)" fill="none" stroke="#002744" stroke-linecap="round" stroke-linejoin="round" stroke-width="0.75"/>
    <line id="Línea_6172" data-name="Línea 6172" x2="2.006" y2="3.475" transform="translate(38.576 46.443)" fill="none" stroke="#002744" stroke-linecap="round" stroke-linejoin="round" stroke-width="0.75"/>
    <line id="Línea_6173" data-name="Línea 6173" x2="3.475" y2="2.006" transform="translate(44.767 40.189)" fill="none" stroke="#002744" stroke-linecap="round" stroke-linejoin="round" stroke-width="0.75"/>
    <line id="Línea_6174" data-name="Línea 6174" x2="4.013" transform="translate(47.001 31.675)" fill="none" stroke="#002744" stroke-linecap="round" stroke-linejoin="round" stroke-width="0.75"/>
    <line id="Línea_6175" data-name="Línea 6175" y1="2.006" x2="3.475" transform="translate(44.679 21.181)" fill="none" stroke="#002744" stroke-linecap="round" stroke-linejoin="round" stroke-width="0.75"/>
    <line id="Línea_6176" data-name="Línea 6176" y1="3.475" x2="2.006" transform="translate(38.424 13.521)" fill="none" stroke="#002744" stroke-linecap="round" stroke-linejoin="round" stroke-width="0.75"/>
    <line id="Línea_6177" data-name="Línea 6177" x1="2.006" y1="3.475" transform="translate(19.417 13.609)" fill="none" stroke="#002744" stroke-linecap="round" stroke-linejoin="round" stroke-width="0.75"/>
    <line id="Línea_6178" data-name="Línea 6178" x1="3.475" y1="2.006" transform="translate(11.756 21.332)" fill="none" stroke="#002744" stroke-linecap="round" stroke-linejoin="round" stroke-width="0.75"/>
    <line id="Línea_6179" data-name="Línea 6179" x1="4.013" transform="translate(8.984 31.851)" fill="none" stroke="#002744" stroke-linecap="round" stroke-linejoin="round" stroke-width="0.75"/>
    <line id="Línea_6180" data-name="Línea 6180" x1="3.475" y2="2.006" transform="translate(11.844 40.339)" fill="none" stroke="#002744" stroke-linecap="round" stroke-linejoin="round" stroke-width="0.75"/>
    <line id="Línea_6181" data-name="Línea 6181" x1="2.006" y2="3.475" transform="translate(19.568 46.531)" fill="none" stroke="#002744" stroke-linecap="round" stroke-linejoin="round" stroke-width="0.75"/>
    <path id="Trazado_18251" data-name="Trazado 18251" d="M242.421,30.633l2.5-5.706a.435.435,0,0,0-.757-.413l-6,8.492s3.565.036,4.859,0l-2.045,5.649a.433.433,0,0,0,.757.413c.886-1.3,4.562-7.091,5.366-8.268C247.1,30.8,243.641,30.668,242.421,30.633Z" transform="translate(-212.806 -1.848)" fill="none" stroke="#002744" stroke-linejoin="round" stroke-width="0.75"/>
  </g>
</svg>
