<svg xmlns="http://www.w3.org/2000/svg" width="60" height="60" viewBox="0 0 60 60">
  <g id="Illustration_OtherSpace" transform="translate(0)">
    <path id="Trazado_17558" data-name="Trazado 17558" d="M221.377,0h42.857a8.572,8.572,0,0,1,8.572,8.571V51.429A8.572,8.572,0,0,1,264.234,60H221.377a8.571,8.571,0,0,1-8.571-8.571V8.571A8.571,8.571,0,0,1,221.377,0" transform="translate(-212.806)" fill="#f7f9f7"/>
    <path id="Trazado_17559" data-name="Trazado 17559" d="M223.232,49.5h-3.047a1.347,1.347,0,0,1-1.346-1.347V43.2a.353.353,0,0,1,.353-.353h5.033a.354.354,0,0,1,.354.353v4.957a1.347,1.347,0,0,1-1.347,1.347" transform="translate(-212.806)" fill="#c6cccb"/>
    <path id="Trazado_17560" data-name="Trazado 17560" d="M227.152,29.979a45.446,45.446,0,0,0-3.764,5.412h0a65.832,65.832,0,0,0-1.718-8.11A65.6,65.6,0,0,0,220.12,35.4h0a45.377,45.377,0,0,0-3.763-5.412,50.677,50.677,0,0,0,3.147,12.39h.123c0,.117-.005.233-.005.351h4.357c0-.12-.005-.238-.006-.357h.036a50.729,50.729,0,0,0,3.147-12.39" transform="translate(-212.806)" fill="#c6cccb"/>
    <path id="Trazado_17561" data-name="Trazado 17561" d="M219.574,42.725a65.858,65.858,0,0,1,2.05-15.445,62.518,62.518,0,0,1,2.307,15.445" transform="translate(-212.806)" fill="none" stroke="#002744" stroke-linecap="round" stroke-linejoin="round" stroke-width="0.75"/>
    <path id="Trazado_17562" data-name="Trazado 17562" d="M223.344,35.39a45.48,45.48,0,0,1,3.764-5.411,50.716,50.716,0,0,1-3.147,12.389" transform="translate(-212.806)" fill="none" stroke="#002744" stroke-linecap="round" stroke-linejoin="round" stroke-width="0.75"/>
    <path id="Trazado_17563" data-name="Trazado 17563" d="M220.072,35.4a45.447,45.447,0,0,0-3.764-5.412,50.73,50.73,0,0,0,3.147,12.39" transform="translate(-212.806)" fill="none" stroke="#002744" stroke-linecap="round" stroke-linejoin="round" stroke-width="0.75"/>
    <path id="Trazado_17564" data-name="Trazado 17564" d="M223.232,49.5h-3.047a1.347,1.347,0,0,1-1.346-1.347V43.2a.353.353,0,0,1,.353-.353h5.033a.354.354,0,0,1,.354.353v4.957A1.347,1.347,0,0,1,223.232,49.5Z" transform="translate(-212.806)" fill="none" stroke="#002744" stroke-linecap="round" stroke-linejoin="round" stroke-width="0.75"/>
    <line id="Línea_5934" data-name="Línea 5934" x2="3.005" transform="translate(8.767 45.576)" fill="none" stroke="#002744" stroke-linecap="round" stroke-linejoin="round" stroke-width="0.75"/>
    <rect id="Rectángulo_3314" data-name="Rectángulo 3314" width="2.718" height="1.485" transform="translate(28.649 12.16)" fill="#c6cccb"/>
    <rect id="Rectángulo_3315" data-name="Rectángulo 3315" width="2.027" height="1.604" transform="translate(29.028 10.75)" fill="#c6cccb"/>
    <path id="Trazado_17565" data-name="Trazado 17565" d="M247.894,21.993H237.7a1.628,1.628,0,0,1-1.628-1.628v-.1a6.466,6.466,0,0,1,6.466-6.466h.515a6.466,6.466,0,0,1,6.466,6.466v.1a1.628,1.628,0,0,1-1.628,1.628" transform="translate(-212.806)" fill="#c6cccb"/>
    <path id="Trazado_17566" data-name="Trazado 17566" d="M268.323,39.439v7.64a1.509,1.509,0,0,1-1.51,1.51h-11.84l-.62,0h-14.32l-.4,0h-12.04a1.507,1.507,0,0,1-1.5-1.51v-7.7a1.632,1.632,0,0,1,1.63-1.64h.87v-1.72a5.348,5.348,0,0,1,5.34-5.35h26.74a5.356,5.356,0,0,1,5.35,5.35V37.8h.66a1.635,1.635,0,0,1,1.64,1.64" transform="translate(-212.806)" fill="#eef9ed"/>
    <path id="Trazado_17567" data-name="Trazado 17567" d="M244.08,44.456H232.374a1.3,1.3,0,0,1-1.3-1.3V41.623a1.3,1.3,0,0,1,1.3-1.3H244.08a1.3,1.3,0,0,1,1.3,1.3V43.16a1.3,1.3,0,0,1-1.3,1.3" transform="translate(-212.806)" fill="#c6cccb"/>
    <path id="Trazado_17568" data-name="Trazado 17568" d="M258.763,44.456H247.057a1.3,1.3,0,0,1-1.3-1.3V41.623a1.3,1.3,0,0,1,1.3-1.3h11.706a1.3,1.3,0,0,1,1.3,1.3V43.16a1.3,1.3,0,0,1-1.3,1.3" transform="translate(-212.806)" fill="#c6cccb"/>
    <path id="Trazado_17569" data-name="Trazado 17569" d="M268.323,39.439v7.64a1.509,1.509,0,0,1-1.51,1.51h-3.3l-.17-.04s1.83-.54,1.83-1.46v-7.07c0-1.84-.76-2.31-2.49-2.31,0-4.68-2.37-7.04-4.98-7.04h2.97a5.356,5.356,0,0,1,5.35,5.35V37.8h.66a1.635,1.635,0,0,1,1.64,1.64" transform="translate(-212.806)" fill="#c6cccb"/>
    <path id="Trazado_17570" data-name="Trazado 17570" d="M229.445,48.585h-1.723a1.633,1.633,0,0,1-1.633-1.634v-7.6a1.633,1.633,0,0,1,1.633-1.633h1.723a1.634,1.634,0,0,1,1.634,1.633v6.943" transform="translate(-212.806)" fill="none" stroke="#002744" stroke-linecap="round" stroke-miterlimit="10" stroke-width="0.75"/>
    <line id="Línea_5935" data-name="Línea 5935" x1="2.522" transform="translate(17.763 48.584)" fill="none" stroke="#002744" stroke-linecap="round" stroke-miterlimit="10" stroke-width="0.75"/>
    <line id="Línea_5936" data-name="Línea 5936" x2="26.347" transform="translate(19.654 44.455)" fill="none" stroke="#002744" stroke-linecap="round" stroke-miterlimit="10" stroke-width="0.75"/>
    <rect id="Rectángulo_3316" data-name="Rectángulo 3316" width="14.554" height="4.128" rx="1.547" transform="translate(18.273 40.328)" fill="none" stroke="#002744" stroke-linecap="round" stroke-miterlimit="10" stroke-width="0.75"/>
    <rect id="Rectángulo_3317" data-name="Rectángulo 3317" width="14.554" height="4.128" rx="1.547" transform="translate(32.827 40.328)" fill="none" stroke="#002744" stroke-linecap="round" stroke-miterlimit="10" stroke-width="0.75"/>
    <path id="Trazado_17571" data-name="Trazado 17571" d="M228.583,37.712V36.255a5.584,5.584,0,0,1,5.583-5.583H257.1a5.584,5.584,0,0,1,5.583,5.583v1.457" transform="translate(-212.806)" fill="none" stroke="#002744" stroke-linecap="round" stroke-miterlimit="10" stroke-width="0.75"/>
    <path id="Trazado_17572" data-name="Trazado 17572" d="M235.267,30.673h25.55a5.253,5.253,0,0,1,5.252,5.252v1.788" transform="translate(-212.806)" fill="none" stroke="#002744" stroke-linecap="round" stroke-miterlimit="10" stroke-width="0.75"/>
    <path id="Trazado_17573" data-name="Trazado 17573" d="M234.561,48.585h28.983a1.633,1.633,0,0,0,1.633-1.634v-7.6a1.633,1.633,0,0,0-1.633-1.633h-1.723a1.634,1.634,0,0,0-1.634,1.633v7.1" transform="translate(-212.806)" fill="none" stroke="#002744" stroke-linecap="round" stroke-miterlimit="10" stroke-width="0.75"/>
    <path id="Trazado_17574" data-name="Trazado 17574" d="M263.811,37.712h2.881a1.644,1.644,0,0,1,1.634,1.652v7.568a1.643,1.643,0,0,1-1.634,1.652h-2.881" transform="translate(-212.806)" fill="none" stroke="#002744" stroke-linecap="round" stroke-miterlimit="10" stroke-width="0.75"/>
    <path id="Trazado_17575" data-name="Trazado 17575" d="M228.868,48.584a6.437,6.437,0,0,0-1.169,3.608c-.557,0-.913.274-.913.586s.276.517.78.517h.893a.547.547,0,0,0,.531-.493c.208-1.506,1.6-3.136,2.707-4.218" transform="translate(-212.806)" fill="none" stroke="#002744" stroke-linecap="round" stroke-miterlimit="10" stroke-width="0.75"/>
    <path id="Trazado_17576" data-name="Trazado 17576" d="M262.322,48.584a6.437,6.437,0,0,1,1.169,3.608c.557,0,.913.274.913.586s-.276.517-.78.517h-.893a.547.547,0,0,1-.531-.493c-.208-1.506-1.6-3.136-2.707-4.218" transform="translate(-212.806)" fill="none" stroke="#002744" stroke-linecap="round" stroke-miterlimit="10" stroke-width="0.75"/>
    <path id="Trazado_17577" data-name="Trazado 17577" d="M248.124,21.993H237.457a1.4,1.4,0,0,1-1.4-1.4V20.25a6.448,6.448,0,0,1,6.448-6.448h.567a6.448,6.448,0,0,1,6.448,6.448v.345A1.4,1.4,0,0,1,248.124,21.993Z" transform="translate(-212.806)" fill="none" stroke="#002744" stroke-linecap="round" stroke-miterlimit="10" stroke-width="0.75"/>
    <path id="Trazado_17578" data-name="Trazado 17578" d="M243.529,13.8h-1.478a.821.821,0,0,1,0-1.641h1.478a.821.821,0,0,1,0,1.641Z" transform="translate(-212.806)" fill="none" stroke="#002744" stroke-linecap="round" stroke-miterlimit="10" stroke-width="0.75"/>
    <path id="Trazado_17579" data-name="Trazado 17579" d="M243.871,12.161H241.71a.164.164,0,0,1-.164-.163v-.221a1.244,1.244,0,1,1,2.488,0V12A.163.163,0,0,1,243.871,12.161Z" transform="translate(-212.806)" fill="none" stroke="#002744" stroke-linecap="round" stroke-miterlimit="10" stroke-width="0.75"/>
    <line id="Línea_5937" data-name="Línea 5937" y1="4.996" transform="translate(29.984 5.537)" fill="none" stroke="#002744" stroke-linecap="round" stroke-miterlimit="10" stroke-width="0.75"/>
    <line id="Línea_5938" data-name="Línea 5938" x2="9.067" transform="translate(27.521 19.822)" fill="none" stroke="#002744" stroke-linecap="round" stroke-miterlimit="10" stroke-width="0.75"/>
    <line id="Línea_5939" data-name="Línea 5939" x2="0.29" transform="translate(26.073 19.822)" fill="none" stroke="#002744" stroke-linecap="round" stroke-miterlimit="10" stroke-width="0.75"/>
    <line id="Línea_5940" data-name="Línea 5940" x2="1.512" transform="translate(23.269 19.822)" fill="none" stroke="#002744" stroke-linecap="round" stroke-miterlimit="10" stroke-width="0.75"/>
  </g>
</svg>
