<svg id="Illustration_extintor" xmlns="http://www.w3.org/2000/svg" width="60" height="60" viewBox="0 0 60 60">
  <path id="Trazado_17936" data-name="Trazado 17936" d="M221.377,0h42.857a8.572,8.572,0,0,1,8.572,8.571V51.429A8.572,8.572,0,0,1,264.234,60H221.377a8.571,8.571,0,0,1-8.571-8.571V8.571A8.571,8.571,0,0,1,221.377,0" transform="translate(-212.806)" fill="#f7f9f7"/>
  <path id="Trazado_17937" data-name="Trazado 17937" d="M253.027,17.354l-6.49-1.758a.852.852,0,0,1-.629-.823V12.792a.852.852,0,0,1,.629-.823l6.49-1.758a.852.852,0,0,1,1.075.823v5.5a.852.852,0,0,1-1.075.823" transform="translate(-212.806)" fill="#eef9ed"/>
  <path id="Trazado_17938" data-name="Trazado 17938" d="M233.135,40.373V23.819a6.067,6.067,0,0,1,6.067-6.067h4.738a6.067,6.067,0,0,1,6.067,6.067v23.65a1.867,1.867,0,0,1-1.867,1.867H235a1.867,1.867,0,0,1-1.867-1.867V45.943" transform="translate(-212.806)" fill="#eef9ed"/>
  <path id="Trazado_17939" data-name="Trazado 17939" d="M250.005,23.821V47.464a1.871,1.871,0,0,1-1.865,1.876h-2.882a1.871,1.871,0,0,0,1.866-1.876V23.821a6.063,6.063,0,0,0-6.065-6.064h2.882a6.063,6.063,0,0,1,6.064,6.064" transform="translate(-212.806)" fill="#c6cccb"/>
  <path id="Trazado_17940" data-name="Trazado 17940" d="M241.059,17.752a6.067,6.067,0,0,1,6.067,6.067v23.65a1.867,1.867,0,0,1-1.867,1.867" transform="translate(-212.806)" fill="none" stroke="#002744" stroke-linecap="round" stroke-miterlimit="10" stroke-width="0.75"/>
  <path id="Trazado_17941" data-name="Trazado 17941" d="M233.135,40.373V23.819a6.067,6.067,0,0,1,6.067-6.067h4.738a6.067,6.067,0,0,1,6.067,6.067v23.65a1.867,1.867,0,0,1-1.867,1.867H235a1.867,1.867,0,0,1-1.867-1.867V45.943" transform="translate(-212.806)" fill="none" stroke="#002744" stroke-linecap="round" stroke-miterlimit="10" stroke-width="0.75"/>
  <line id="Línea_6046" data-name="Línea 6046" y1="0.608" transform="translate(20.33 43.352)" fill="none" stroke="#002744" stroke-linecap="round" stroke-miterlimit="10" stroke-width="0.75"/>
  <path id="Trazado_17942" data-name="Trazado 17942" d="M243.221,17.752h-4.546V10.788a.976.976,0,0,1,.975-.975h2.6a.975.975,0,0,1,.975.975Z" transform="translate(-212.806)" fill="none" stroke="#002744" stroke-linecap="round" stroke-miterlimit="10" stroke-width="0.75"/>
  <path id="Trazado_17943" data-name="Trazado 17943" d="M231.505,18.584c0-2.731,2.625-5.078,7.17-5.078v1.867c-4.929,0-6.306,1.91-6.306,3.211C232.369,19.183,231.505,19.1,231.505,18.584Z" transform="translate(-212.806)" fill="none" stroke="#002744" stroke-linecap="round" stroke-miterlimit="10" stroke-width="0.75"/>
  <path id="Trazado_17944" data-name="Trazado 17944" d="M238.676,11.318a2.188,2.188,0,1,1-2.187-2.187A2.187,2.187,0,0,1,238.676,11.318Z" transform="translate(-212.806)" fill="none" stroke="#002744" stroke-linecap="round" stroke-miterlimit="10" stroke-width="0.75"/>
  <rect id="Rectángulo_3428" data-name="Rectángulo 3428" width="2.689" height="1.793" transform="translate(30.415 12.973)" fill="none" stroke="#002744" stroke-linecap="round" stroke-miterlimit="10" stroke-width="0.75"/>
  <path id="Trazado_17945" data-name="Trazado 17945" d="M253.03,17.44l-6.49-1.758a.852.852,0,0,1-.629-.823V12.878a.852.852,0,0,1,.629-.823l6.49-1.758a.852.852,0,0,1,1.075.823v5.5A.852.852,0,0,1,253.03,17.44Z" transform="translate(-212.806)" fill="none" stroke="#002744" stroke-linecap="round" stroke-miterlimit="10" stroke-width="0.75"/>
  <path id="Trazado_17946" data-name="Trazado 17946" d="M239.325,37.865a3.915,3.915,0,0,1-1.653-6.459c2.131-2.588,2.523-2.828,2.479-4.285a3.7,3.7,0,0,1,1.936,2.936c.177,1.258-1.131,2.921.631,2.921.954,0,.826-1.29.826-1.29,1.316,1.316,1.5,5.2-1.587,6.059a1.791,1.791,0,0,0-.218-2.927c0,1.584-2.292,1.472-2.292-.432a3.347,3.347,0,0,1,.96-2.529s-2.048.444-2.048,3.793a3.125,3.125,0,0,0,.966,2.213" transform="translate(-212.806)" fill="#c6cccb"/>
  <path id="Trazado_17947" data-name="Trazado 17947" d="M239.325,37.865a3.915,3.915,0,0,1-1.653-6.459c2.131-2.588,2.523-2.828,2.479-4.285a3.7,3.7,0,0,1,1.936,2.936c.177,1.258-1.131,2.921.631,2.921.954,0,.826-1.29.826-1.29,1.316,1.316,1.5,5.2-1.587,6.059a1.791,1.791,0,0,0-.218-2.927c0,1.584-2.292,1.472-2.292-.432a3.347,3.347,0,0,1,.96-2.529s-2.048.444-2.048,3.793A3.125,3.125,0,0,0,239.325,37.865Z" transform="translate(-212.806)" fill="none" stroke="#002744" stroke-linecap="round" stroke-linejoin="round" stroke-width="0.75"/>
</svg>
