<svg xmlns="http://www.w3.org/2000/svg" width="60" height="60" viewBox="0 0 60 60">
  <g id="illustration_ConsumoEnergia" transform="translate(0)">
    <g id="Grupo_2437" data-name="Grupo 2437" transform="translate(-915.775 -956)">
      <path id="Trazado_18252" data-name="Trazado 18252" d="M150.346,0H193.2a8.572,8.572,0,0,1,8.572,8.571V51.429A8.572,8.572,0,0,1,193.2,60H150.346a8.571,8.571,0,0,1-8.571-8.571V8.571A8.571,8.571,0,0,1,150.346,0" transform="translate(774 956)" fill="#cee6ad"/>
      <path id="Trazado_18253" data-name="Trazado 18253" d="M174.937,16.607h-6.15a1.135,1.135,0,1,1,0-2.27h6.15a1.135,1.135,0,1,1,0,2.27" transform="translate(774 956)" fill="#ff895a"/>
      <path id="Trazado_18254" data-name="Trazado 18254" d="M174.937,14.337h-6.15a1.135,1.135,0,1,1,0-2.27h6.15a1.135,1.135,0,1,1,0,2.27" transform="translate(774 956)" fill="#ff895a"/>
      <path id="Trazado_18255" data-name="Trazado 18255" d="M182.555,34.406a11.013,11.013,0,1,1-18.879-8.812,9.7,9.7,0,0,0,2.789-6.725v-.7a1.566,1.566,0,0,1,1.565-1.566h7.156a1.566,1.566,0,0,1,1.566,1.566v.7a9.27,9.27,0,0,0,2.64,6.574,10.986,10.986,0,0,1,3.163,8.958" transform="translate(774 956)" fill="#ff895a"/>
      <path id="Trazado_18256" data-name="Trazado 18256" d="M182.705,34.407a11.052,11.052,0,0,1-9.67,9.76,10.524,10.524,0,0,1-2.02.04c4.95-.69,9.31-4.83,9.82-9.8a10.992,10.992,0,0,0-3.16-8.96,9.27,9.27,0,0,1-2.64-6.57v-.7c0-.87-1.07-1.57-1.93-1.57a1.135,1.135,0,1,0,0-2.27,1.135,1.135,0,1,0,0-2.27h1.73a1.135,1.135,0,0,1,0,2.27,1.135,1.135,0,0,1,0,2.27h.5a1.566,1.566,0,0,1,1.57,1.57v.7a9.27,9.27,0,0,0,2.64,6.57,10.959,10.959,0,0,1,3.16,8.96" transform="translate(774 956)" fill="#fe5000"/>
      <path id="Trazado_18257" data-name="Trazado 18257" d="M173.813,10.723h-4.076a.753.753,0,0,1-.753-.753,2.748,2.748,0,0,1,2.748-2.749h.086a2.748,2.748,0,0,1,2.748,2.749.753.753,0,0,1-.753.753" transform="translate(774 956)" fill="#ff895a"/>
      <path id="Trazado_18258" data-name="Trazado 18258" d="M166.427,21.188a9.261,9.261,0,0,0,.3-2.319v-.7a1.566,1.566,0,0,1,1.565-1.566h7.156a1.566,1.566,0,0,1,1.566,1.566v.7a9.27,9.27,0,0,0,2.64,6.574,11.014,11.014,0,1,1-15.716.146q.232-.24.448-.495" transform="translate(774 956)" fill="none" stroke="#002744" stroke-linecap="round" stroke-miterlimit="10" stroke-width="0.75"/>
      <path id="Trazado_18259" data-name="Trazado 18259" d="M165.2,23.994q.206-.321.384-.654" transform="translate(774 956)" fill="none" stroke="#002744" stroke-linecap="round" stroke-miterlimit="10" stroke-width="0.75"/>
      <path id="Trazado_18260" data-name="Trazado 18260" d="M173.315,16.607a1.566,1.566,0,0,1,1.566,1.566v.7a9.27,9.27,0,0,0,2.64,6.574,11.01,11.01,0,0,1-6.506,18.722" transform="translate(774 956)" fill="none" stroke="#002744" stroke-linecap="round" stroke-miterlimit="10" stroke-width="0.75"/>
      <path id="Trazado_18261" data-name="Trazado 18261" d="M174.937,16.607h-6.15a1.135,1.135,0,1,1,0-2.27h6.15a1.135,1.135,0,1,1,0,2.27Z" transform="translate(774 956)" fill="none" stroke="#002744" stroke-linecap="round" stroke-miterlimit="10" stroke-width="0.75"/>
      <path id="Trazado_18262" data-name="Trazado 18262" d="M174.937,14.337h-6.15a1.135,1.135,0,1,1,0-2.27h6.15a1.135,1.135,0,1,1,0,2.27Z" transform="translate(774 956)" fill="none" stroke="#002744" stroke-linecap="round" stroke-miterlimit="10" stroke-width="0.75"/>
      <path id="Trazado_18263" data-name="Trazado 18263" d="M171.6,14.337h1.351a1.135,1.135,0,0,1,0,2.27H171.6" transform="translate(774 956)" fill="none" stroke="#002744" stroke-linecap="round" stroke-miterlimit="10" stroke-width="0.75"/>
      <path id="Trazado_18264" data-name="Trazado 18264" d="M171.6,12.067h1.351a1.135,1.135,0,0,1,0,2.27H171.6" transform="translate(774 956)" fill="none" stroke="#002744" stroke-linecap="round" stroke-miterlimit="10" stroke-width="0.75"/>
      <path id="Trazado_18265" data-name="Trazado 18265" d="M173.9,10.723h-4.076a.753.753,0,0,1-.753-.753,2.748,2.748,0,0,1,2.748-2.749h.086a2.748,2.748,0,0,1,2.748,2.749A.753.753,0,0,1,173.9,10.723Z" transform="translate(774 956)" fill="none" stroke="#002744" stroke-linecap="round" stroke-miterlimit="10" stroke-width="0.75"/>
      <path id="Trazado_18266" data-name="Trazado 18266" d="M171.39,28.785l2.5-5.706a.435.435,0,0,0-.757-.413l-6,8.492s3.565.036,4.859,0l-2.045,5.649a.433.433,0,0,0,.757.413c.886-1.3,4.562-7.091,5.366-8.268,0,0-3.462-.132-4.682-.167" transform="translate(774 956)" fill="#4d997f"/>
      <line id="Línea_6182" data-name="Línea 6182" y2="4.013" transform="translate(945.862 1004.766)" fill="none" stroke="#002744" stroke-linecap="round" stroke-linejoin="round" stroke-width="0.75"/>
      <line id="Línea_6183" data-name="Línea 6183" x2="2.006" y2="3.475" transform="translate(954.352 1002.445)" fill="none" stroke="#002744" stroke-linecap="round" stroke-linejoin="round" stroke-width="0.75"/>
      <line id="Línea_6184" data-name="Línea 6184" x2="3.475" y2="2.006" transform="translate(960.542 996.189)" fill="none" stroke="#002744" stroke-linecap="round" stroke-linejoin="round" stroke-width="0.75"/>
      <line id="Línea_6185" data-name="Línea 6185" x2="4.013" transform="translate(962.777 987.676)" fill="none" stroke="#002744" stroke-linecap="round" stroke-linejoin="round" stroke-width="0.75"/>
      <line id="Línea_6186" data-name="Línea 6186" y1="2.006" x2="3.475" transform="translate(960.455 977.182)" fill="none" stroke="#002744" stroke-linecap="round" stroke-linejoin="round" stroke-width="0.75"/>
      <line id="Línea_6187" data-name="Línea 6187" y1="3.475" x2="2.006" transform="translate(954.2 969.521)" fill="none" stroke="#002744" stroke-linecap="round" stroke-linejoin="round" stroke-width="0.75"/>
      <line id="Línea_6188" data-name="Línea 6188" x1="2.006" y1="3.475" transform="translate(935.192 969.609)" fill="none" stroke="#002744" stroke-linecap="round" stroke-linejoin="round" stroke-width="0.75"/>
      <line id="Línea_6189" data-name="Línea 6189" x1="3.475" y1="2.006" transform="translate(927.532 977.332)" fill="none" stroke="#002744" stroke-linecap="round" stroke-linejoin="round" stroke-width="0.75"/>
      <line id="Línea_6190" data-name="Línea 6190" x1="4.013" transform="translate(924.76 987.852)" fill="none" stroke="#002744" stroke-linecap="round" stroke-linejoin="round" stroke-width="0.75"/>
      <line id="Línea_6191" data-name="Línea 6191" x1="3.475" y2="2.006" transform="translate(927.62 996.34)" fill="none" stroke="#002744" stroke-linecap="round" stroke-linejoin="round" stroke-width="0.75"/>
      <line id="Línea_6192" data-name="Línea 6192" x1="2.006" y2="3.475" transform="translate(935.344 1002.531)" fill="none" stroke="#002744" stroke-linecap="round" stroke-linejoin="round" stroke-width="0.75"/>
      <path id="Trazado_18267" data-name="Trazado 18267" d="M171.39,28.785l2.5-5.706a.435.435,0,0,0-.757-.413l-6,8.492s3.565.036,4.859,0l-2.045,5.649a.433.433,0,0,0,.757.413c.886-1.3,4.562-7.091,5.366-8.268C176.072,28.952,172.61,28.82,171.39,28.785Z" transform="translate(774 956)" fill="none" stroke="#002744" stroke-linejoin="round" stroke-width="0.75"/>
    </g>
  </g>
</svg>
