<svg id="illustration_Mensajeria" xmlns="http://www.w3.org/2000/svg" width="60" height="60" viewBox="0 0 60 60">
  <g id="Grupo_2486" data-name="Grupo 2486" transform="translate(-877.708 -891)">
    <path id="Trazado_18786" data-name="Trazado 18786" d="M79.279,0h42.857a8.572,8.572,0,0,1,8.572,8.571V51.429A8.572,8.572,0,0,1,122.136,60H79.279a8.571,8.571,0,0,1-8.571-8.571V8.571A8.571,8.571,0,0,1,79.279,0" transform="translate(807 891)" fill="#99d6ff"/>
    <path id="Trazado_18787" data-name="Trazado 18787" d="M93.749,16.832H116.2V37.838a2.345,2.345,0,0,1-2.345,2.345h-20.1" transform="translate(807 891)" fill="#fe5000"/>
    <path id="Trazado_18788" data-name="Trazado 18788" d="M90.419,40.183h26.508a1.731,1.731,0,0,1,1.731,1.731v6.6a1.731,1.731,0,0,1-1.731,1.731H104.28" transform="translate(807 891)" fill="#fe5000"/>
    <path id="Trazado_18789" data-name="Trazado 18789" d="M107.893,40.183H88.59a2.745,2.745,0,0,1-2.745-2.744V16.832h24.792V37.439a2.744,2.744,0,0,1-2.744,2.744" transform="translate(807 891)" fill="#ff895a"/>
    <path id="Trazado_18790" data-name="Trazado 18790" d="M99.651,22.34h-2.8a.936.936,0,0,1-.936-.936V16.832h4.671V21.4a.936.936,0,0,1-.936.936" transform="translate(807 891)" fill="#09f"/>
    <path id="Trazado_18791" data-name="Trazado 18791" d="M86.614,50.244H84.246a1.731,1.731,0,0,1-1.731-1.731v-6.6a1.731,1.731,0,0,1,1.731-1.731h27.122a1.731,1.731,0,0,1,1.731,1.731v6.6a1.731,1.731,0,0,1-1.731,1.731H91.982" transform="translate(807 891)" fill="#ff895a"/>
    <path id="Trazado_18792" data-name="Trazado 18792" d="M99.136,43.787H96.48a1.007,1.007,0,0,1-1.007-1.007v-2.6h4.67v2.6a1.007,1.007,0,0,1-1.007,1.007" transform="translate(807 891)" fill="#09f"/>
    <path id="Trazado_18793" data-name="Trazado 18793" d="M121.184,11.756h-3.842a2.071,2.071,0,0,0-1.347.5l-5.357,4.579h5.569l5.208-4.451a.355.355,0,0,0-.231-.625" transform="translate(807 891)" fill="#ff895a"/>
    <path id="Trazado_18794" data-name="Trazado 18794" d="M84.042,11.756H80.231a.355.355,0,0,0-.212.64l5.955,4.436h5.569l-6.262-4.665a2.073,2.073,0,0,0-1.239-.411" transform="translate(807 891)" fill="#fe5000"/>
    <path id="Trazado_18795" data-name="Trazado 18795" d="M107.893,40.183H88.59a2.745,2.745,0,0,1-2.745-2.744V16.832h24.792V37.439A2.744,2.744,0,0,1,107.893,40.183Z" transform="translate(807 891)" fill="none" stroke="#002744" stroke-linecap="round" stroke-miterlimit="10" stroke-width="0.75"/>
    <path id="Trazado_18796" data-name="Trazado 18796" d="M93.749,16.832H116.2V37.838a2.345,2.345,0,0,1-2.345,2.345h-20.1" transform="translate(807 891)" fill="none" stroke="#002744" stroke-linecap="round" stroke-miterlimit="10" stroke-width="0.75"/>
    <path id="Trazado_18797" data-name="Trazado 18797" d="M99.651,22.34h-2.8a.936.936,0,0,1-.936-.936V16.832h4.671V21.4A.936.936,0,0,1,99.651,22.34Z" transform="translate(807 891)" fill="none" stroke="#002744" stroke-linecap="round" stroke-miterlimit="10" stroke-width="0.75"/>
    <line id="Línea_6339" data-name="Línea 6339" y2="2.843" transform="translate(908.551 924.838)" fill="none" stroke="#002744" stroke-linecap="round" stroke-miterlimit="10" stroke-width="0.75"/>
    <line id="Línea_6340" data-name="Línea 6340" y2="2.843" transform="translate(909.693 924.838)" fill="none" stroke="#002744" stroke-linecap="round" stroke-miterlimit="10" stroke-width="0.75"/>
    <line id="Línea_6341" data-name="Línea 6341" y2="2.843" transform="translate(910.835 924.838)" fill="none" stroke="#002744" stroke-linecap="round" stroke-miterlimit="10" stroke-width="0.75"/>
    <line id="Línea_6342" data-name="Línea 6342" y2="2.843" transform="translate(911.978 924.838)" fill="none" stroke="#002744" stroke-linecap="round" stroke-miterlimit="10" stroke-width="0.75"/>
    <line id="Línea_6343" data-name="Línea 6343" y2="2.843" transform="translate(913.12 924.838)" fill="none" stroke="#002744" stroke-linecap="round" stroke-miterlimit="10" stroke-width="0.75"/>
    <line id="Línea_6344" data-name="Línea 6344" x1="0.914" transform="translate(895.137 941.244)" fill="none" stroke="#002744" stroke-linecap="round" stroke-miterlimit="10" stroke-width="0.75"/>
    <path id="Trazado_18798" data-name="Trazado 18798" d="M86.614,50.244H84.246a1.731,1.731,0,0,1-1.731-1.731v-6.6a1.731,1.731,0,0,1,1.731-1.731h27.122a1.731,1.731,0,0,1,1.731,1.731v6.6a1.731,1.731,0,0,1-1.731,1.731H91.982" transform="translate(807 891)" fill="none" stroke="#002744" stroke-linecap="round" stroke-miterlimit="10" stroke-width="0.75"/>
    <path id="Trazado_18799" data-name="Trazado 18799" d="M90.419,40.183h26.508a1.731,1.731,0,0,1,1.731,1.731v6.6a1.731,1.731,0,0,1-1.731,1.731H104.28" transform="translate(807 891)" fill="none" stroke="#002744" stroke-linecap="round" stroke-miterlimit="10" stroke-width="0.75"/>
    <path id="Trazado_18800" data-name="Trazado 18800" d="M99.136,43.787H96.48a1.007,1.007,0,0,1-1.007-1.007v-2.6h4.67v2.6A1.007,1.007,0,0,1,99.136,43.787Z" transform="translate(807 891)" fill="none" stroke="#002744" stroke-linecap="round" stroke-miterlimit="10" stroke-width="0.75"/>
    <path id="Trazado_18801" data-name="Trazado 18801" d="M121.184,11.756h-3.842a2.071,2.071,0,0,0-1.347.5l-5.357,4.579h5.569l5.208-4.451A.355.355,0,0,0,121.184,11.756Z" transform="translate(807 891)" fill="none" stroke="#002744" stroke-linecap="round" stroke-miterlimit="10" stroke-width="0.75"/>
    <path id="Trazado_18802" data-name="Trazado 18802" d="M84.042,11.756H80.231a.355.355,0,0,0-.212.64l5.955,4.436h5.569l-6.262-4.665A2.073,2.073,0,0,0,84.042,11.756Z" transform="translate(807 891)" fill="none" stroke="#002744" stroke-linecap="round" stroke-linejoin="round" stroke-width="0.75"/>
  </g>
</svg>
