<svg xmlns="http://www.w3.org/2000/svg" xmlns:xlink="http://www.w3.org/1999/xlink" width="48.045" height="81.673" viewBox="0 0 48.045 81.673"><defs><style>.a,.d,.e,.f{fill:none;}.b{fill:#4d997f;}.c{clip-path:url(#a);}.d,.e,.f{stroke:#f7f9f7;stroke-miterlimit:10;}.e,.f{stroke-linecap:round;}.f{stroke-dasharray:0.5 5;}</style><clipPath id="a"><rect class="a" width="48.045" height="81.673" transform="translate(0 0)"/></clipPath></defs><g transform="translate(0 0)"><rect class="b" width="2.897" height="2.279" transform="translate(22.574 20.157)"/><rect class="b" width="2.897" height="2.279" transform="translate(22.574 15.341)"/><rect class="b" width="2.897" height="2.279" transform="translate(22.574 10.525)"/><g class="c"><rect class="d" width="47.045" height="80.673" rx="8.718" transform="translate(0.5 0.5)"/><path class="d" d="M28.547,53.508V10.426a4.525,4.525,0,0,0-9.049,0V53.509a1.969,1.969,0,0,1-.98,1.709,11.032,11.032,0,0,0-5.541,9.362A11.171,11.171,0,0,0,23.694,75.83,11.042,11.042,0,0,0,29.51,55.208,1.954,1.954,0,0,1,28.547,53.508Z"/><path class="b" d="M27.781,57.893a4.411,4.411,0,0,1-2.31-3.847V24.973h-2.9V54.045A4.434,4.434,0,0,1,20.248,57.9a7.746,7.746,0,0,0-3.962,7.327,7.835,7.835,0,0,0,7.513,7.2,7.754,7.754,0,0,0,3.982-14.534"/><path class="d" d="M25.471,54.046V10.485a1.449,1.449,0,0,0-2.9,0v43.56A4.434,4.434,0,0,1,20.248,57.9a7.747,7.747,0,0,0-3.962,7.327,7.836,7.836,0,0,0,7.513,7.2,7.754,7.754,0,0,0,3.982-14.535A4.411,4.411,0,0,1,25.471,54.046Z"/><line class="e" x2="5.208" transform="translate(34.736 52.053)"/><line class="e" x2="2.604" transform="translate(34.736 49.185)"/><line class="e" x2="2.604" transform="translate(34.736 46.317)"/><line class="e" x2="5.208" transform="translate(34.736 43.45)"/><line class="e" x2="2.604" transform="translate(34.736 40.582)"/><line class="e" x2="2.604" transform="translate(34.736 37.714)"/><line class="e" x2="5.208" transform="translate(34.736 34.846)"/><line class="e" x2="2.604" transform="translate(34.736 31.979)"/><line class="e" x2="2.604" transform="translate(34.736 29.111)"/><line class="e" x2="5.208" transform="translate(34.736 26.243)"/><line class="e" x2="2.604" transform="translate(34.736 23.375)"/><line class="e" x2="2.604" transform="translate(34.736 20.508)"/><line class="e" x2="5.208" transform="translate(34.736 17.64)"/><line class="e" x2="5.208" transform="translate(34.736 9.037)"/><line class="e" x2="2.604" transform="translate(34.736 14.772)"/><line class="e" x2="2.604" transform="translate(34.736 11.904)"/><line class="f" y2="69.492" transform="translate(8.05 5.836)"/></g></g></svg>