<svg id="illustration_ConsumoAgua" xmlns="http://www.w3.org/2000/svg" width="60" height="60" viewBox="0 0 60 60">
  <g id="Grupo_2477" data-name="Grupo 2477" transform="translate(0)">
    <path id="Trazado_18664" data-name="Trazado 18664" d="M221.377,0h42.857a8.572,8.572,0,0,1,8.572,8.571V51.429A8.572,8.572,0,0,1,264.234,60H221.377a8.571,8.571,0,0,1-8.571-8.571V8.571A8.571,8.571,0,0,1,221.377,0" transform="translate(-212.806)" fill="#f7f9f7"/>
    <path id="Trazado_18665" data-name="Trazado 18665" d="M252.238,21.3h7.436a.806.806,0,0,0,.806-.806v-1.7a5.9,5.9,0,0,0-5.9-5.9h-3.222" transform="translate(-212.806)" fill="#c6cccb"/>
    <path id="Trazado_18666" data-name="Trazado 18666" d="M252.2,22.95H260a.585.585,0,0,1,.585.585V39.343a.69.69,0,0,1-.689.689h-8.281" transform="translate(-212.806)" fill="#c6cccb"/>
    <path id="Trazado_18667" data-name="Trazado 18667" d="M251.646,40.032h9.634a2.437,2.437,0,0,1,2.437,2.437v.455a.5.5,0,0,1-.5.5H249.71" transform="translate(-212.806)" fill="#c6cccb"/>
    <path id="Trazado_18668" data-name="Trazado 18668" d="M250.083,43.425h12.76a.874.874,0,1,1,0,1.748h-12.76" transform="translate(-212.806)" fill="#c6cccb"/>
    <path id="Trazado_18669" data-name="Trazado 18669" d="M230.556,14.331h0A1.443,1.443,0,0,0,232,15.774h11.934a4.719,4.719,0,0,1,4.719,4.719.806.806,0,0,0,.806.806h7.436a.806.806,0,0,0,.806-.806v-1.7a5.9,5.9,0,0,0-5.9-5.9H232a1.443,1.443,0,0,0-1.443,1.443" transform="translate(-212.806)" fill="#eef9ed"/>
    <path id="Trazado_18670" data-name="Trazado 18670" d="M249.315,22.95h7.8a.585.585,0,0,1,.585.585v16.5h-8.97v-.914a5.91,5.91,0,0,0-5.549-5.9L222.79,31.974a.95.95,0,0,1-.892-.948,5.269,5.269,0,0,1,5.346-5.268L243.738,26c3.939.073,4.992-1.068,4.992-2.462a.585.585,0,0,1,.585-.585" transform="translate(-212.806)" fill="#eef9ed"/>
    <path id="Trazado_18671" data-name="Trazado 18671" d="M260.475,43.425H246.969a.5.5,0,0,1-.5-.5v-.455a2.437,2.437,0,0,1,2.437-2.437h9.634a2.437,2.437,0,0,1,2.437,2.437v.455a.5.5,0,0,1-.5.5" transform="translate(-212.806)" fill="#eef9ed"/>
    <path id="Trazado_18672" data-name="Trazado 18672" d="M231.281,35.417l-6.975-.407a.353.353,0,0,1-.333-.374l.128-2.2a.354.354,0,0,1,.374-.333l6.976.407a.354.354,0,0,1,.333.374l-.129,2.2a.354.354,0,0,1-.374.333" transform="translate(-212.806)" fill="#eef9ed"/>
    <path id="Trazado_18673" data-name="Trazado 18673" d="M231.024,46.3a3.666,3.666,0,1,1-7.332,0c0-2.561,2.135-5.539,3.146-7.345a.594.594,0,0,1,1.04,0c1.011,1.806,3.146,4.472,3.146,7.345" transform="translate(-212.806)" fill="#c6cccb"/>
    <path id="Trazado_18674" data-name="Trazado 18674" d="M260.1,45.173h-12.76a.874.874,0,0,1,0-1.748H260.1a.874.874,0,1,1,0,1.748" transform="translate(-212.806)" fill="#eef9ed"/>
    <path id="Trazado_18675" data-name="Trazado 18675" d="M230.551,14.331h0a1.443,1.443,0,0,0,1.443,1.443h11.934a4.719,4.719,0,0,1,4.719,4.719.806.806,0,0,0,.806.806h7.436a.806.806,0,0,0,.806-.806v-1.7a5.9,5.9,0,0,0-5.9-5.9h-19.8A1.443,1.443,0,0,0,230.551,14.331Z" transform="translate(-212.806)" fill="none" stroke="#002744" stroke-linecap="round" stroke-miterlimit="10" stroke-width="0.75"/>
    <path id="Trazado_18676" data-name="Trazado 18676" d="M252.234,21.3h7.436a.806.806,0,0,0,.806-.806v-1.7a5.9,5.9,0,0,0-5.9-5.9h-3.222" transform="translate(-212.806)" fill="none" stroke="#002744" stroke-linecap="round" stroke-miterlimit="10" stroke-width="0.75"/>
    <path id="Trazado_18677" data-name="Trazado 18677" d="M249.31,22.95h7.8a.585.585,0,0,1,.585.585v16.5h-8.97v-.914a5.91,5.91,0,0,0-5.549-5.9l-20.391-1.245a.95.95,0,0,1-.892-.948,5.269,5.269,0,0,1,5.346-5.268L243.733,26c3.939.073,4.992-1.068,4.992-2.462A.585.585,0,0,1,249.31,22.95Z" transform="translate(-212.806)" fill="none" stroke="#002744" stroke-linecap="round" stroke-miterlimit="10" stroke-width="0.75"/>
    <path id="Trazado_18678" data-name="Trazado 18678" d="M251.612,40.032h8.281a.69.69,0,0,0,.689-.689V23.535A.585.585,0,0,0,260,22.95h-7.8" transform="translate(-212.806)" fill="none" stroke="#002744" stroke-linecap="round" stroke-miterlimit="10" stroke-width="0.75"/>
    <path id="Trazado_18679" data-name="Trazado 18679" d="M260.47,43.425H246.964a.5.5,0,0,1-.5-.5v-.455a2.437,2.437,0,0,1,2.437-2.437h9.634a2.437,2.437,0,0,1,2.437,2.437v.455A.5.5,0,0,1,260.47,43.425Z" transform="translate(-212.806)" fill="none" stroke="#002744" stroke-linecap="round" stroke-miterlimit="10" stroke-width="0.75"/>
    <rect id="Rectángulo_3465" data-name="Rectángulo 3465" width="2.912" height="7.696" rx="0.354" transform="matrix(0.058, -0.998, 0.998, 0.058, 11.141, 34.99)" fill="none" stroke="#002744" stroke-linecap="round" stroke-miterlimit="10" stroke-width="0.75"/>
    <path id="Trazado_18680" data-name="Trazado 18680" d="M231.019,46.3a3.666,3.666,0,1,1-7.332,0c0-2.561,2.135-5.539,3.146-7.345a.594.594,0,0,1,1.04,0C228.884,40.759,231.019,43.425,231.019,46.3Z" transform="translate(-212.806)" fill="none" stroke="#002744" stroke-linecap="round" stroke-miterlimit="10" stroke-width="0.75"/>
    <path id="Trazado_18681" data-name="Trazado 18681" d="M260.1,45.173h-12.76a.874.874,0,1,1,0-1.748H260.1a.874.874,0,1,1,0,1.748Z" transform="translate(-212.806)" fill="none" stroke="#002744" stroke-linecap="round" stroke-miterlimit="10" stroke-width="0.75"/>
    <path id="Trazado_18682" data-name="Trazado 18682" d="M251.641,40.032h9.634a2.437,2.437,0,0,1,2.437,2.437v.455a.5.5,0,0,1-.5.5H249.705" transform="translate(-212.806)" fill="none" stroke="#002744" stroke-linecap="round" stroke-miterlimit="10" stroke-width="0.75"/>
    <path id="Trazado_18683" data-name="Trazado 18683" d="M250.079,43.425h12.76a.874.874,0,0,1,0,1.748h-12.76" transform="translate(-212.806)" fill="none" stroke="#002744" stroke-linecap="round" stroke-miterlimit="10" stroke-width="0.75"/>
    <line id="Línea_6319" data-name="Línea 6319" x2="0.849" y2="0.061" transform="translate(17.07 33.59)" fill="none" stroke="#002744" stroke-linecap="round" stroke-miterlimit="10" stroke-width="0.75"/>
    <line id="Línea_6320" data-name="Línea 6320" x2="3.328" y2="0.241" transform="translate(12.379 33.25)" fill="none" stroke="#002744" stroke-linecap="round" stroke-miterlimit="10" stroke-width="0.75"/>
    <path id="Trazado_18684" data-name="Trazado 18684" d="M229.615,46.285a2.257,2.257,0,0,1-2.257,2.257" transform="translate(-212.806)" fill="none" stroke="#002744" stroke-linecap="round" stroke-miterlimit="10" stroke-width="0.75"/>
    <path id="Trazado_18685" data-name="Trazado 18685" d="M229.4,44.6a9.228,9.228,0,0,0-.61-1.611" transform="translate(-212.806)" fill="none" stroke="#002744" stroke-linecap="round" stroke-miterlimit="10" stroke-width="0.75"/>
  </g>
</svg>
