<svg id="Grupo_1316" data-name="Grupo 1316" xmlns="http://www.w3.org/2000/svg" xmlns:xlink="http://www.w3.org/1999/xlink" width="300" height="213" viewBox="0 0 300 213">
  <defs>
    <clipPath id="clip-path">
      <rect id="Rectángulo_1959" data-name="Rectángulo 1959" width="300" height="213" fill="none"/>
    </clipPath>
  </defs>
  <g id="Grupo_1123" data-name="Grupo 1123">
    <g id="Grupo_1122" data-name="Grupo 1122" clip-path="url(#clip-path)">
      <path id="Trazado_9118" data-name="Trazado 9118" d="M12.6,0H287.17a12.6,12.6,0,0,1,12.6,12.6V200.263a12.6,12.6,0,0,1-12.6,12.6H12.6A12.6,12.6,0,0,1,0,200.263V12.6A12.6,12.6,0,0,1,12.6,0" fill="#fff"/>
      <path id="Trazado_9119" data-name="Trazado 9119" d="M90.323,51.187H60.435a2.864,2.864,0,0,1-2.864-2.863V43.505A12.765,12.765,0,0,1,70.336,30.74H90.323Z" transform="translate(14.941 7.978)" fill="#eef9ed"/>
      <path id="Trazado_9120" data-name="Trazado 9120" d="M189.123,154.107,189.2,47.541a16.809,16.809,0,0,0-16.815-16.8H68.959a16.8,16.8,0,0,1,16.815,16.8L85.7,154.107a16.809,16.809,0,0,0,16.815,16.8H205.938a16.8,16.8,0,0,1-16.815-16.8" transform="translate(17.896 7.977)" fill="#eef9ed"/>
      <path id="Trazado_9121" data-name="Trazado 9121" d="M207.194,131.889a2.93,2.93,0,0,1,2.826,3.748,12.755,12.755,0,0,1-12.2,9.023H95.156A12.774,12.774,0,0,0,107.7,134.235a2.9,2.9,0,0,1,2.865-2.346Z" transform="translate(24.695 34.227)" fill="#eef9ed"/>
      <path id="Trazado_9122" data-name="Trazado 9122" d="M105.738,42.89h-12.7a2.017,2.017,0,1,1,0-4.034h12.7a2.017,2.017,0,0,1,0,4.034" transform="translate(23.622 10.084)" fill="#4d997f"/>
      <path id="Trazado_9123" data-name="Trazado 9123" d="M140.892,49.406H93.041a2.017,2.017,0,1,1,0-4.034h47.852a2.017,2.017,0,0,1,0,4.034" transform="translate(23.622 11.775)" fill="#4d997f"/>
      <path id="Trazado_9124" data-name="Trazado 9124" d="M169.482,56.048H93.041a2.017,2.017,0,1,1,0-4.034h76.441a2.017,2.017,0,0,1,0,4.034" transform="translate(23.622 13.499)" fill="#4d997f"/>
      <path id="Trazado_9125" data-name="Trazado 9125" d="M169.482,62.82H93.041a2.017,2.017,0,1,1,0-4.034h76.441a2.017,2.017,0,0,1,0,4.034" transform="translate(23.622 15.256)" fill="#4d997f"/>
      <path id="Trazado_9126" data-name="Trazado 9126" d="M169.482,110.229H93.041a2.017,2.017,0,1,1,0-4.034h76.441a2.017,2.017,0,0,1,0,4.034" transform="translate(23.622 27.559)" fill="#4d997f"/>
      <path id="Trazado_9127" data-name="Trazado 9127" d="M169.482,117H93.041a2.017,2.017,0,1,1,0-4.034h76.441a2.017,2.017,0,0,1,0,4.034" transform="translate(23.622 29.317)" fill="#4d997f"/>
      <path id="Trazado_9128" data-name="Trazado 9128" d="M169.482,123.591H93.041a2.017,2.017,0,1,1,0-4.034h76.441a2.017,2.017,0,0,1,0,4.034" transform="translate(23.622 31.027)" fill="#4d997f"/>
      <path id="Trazado_9129" data-name="Trazado 9129" d="M157.756,49.406h-19.53a2.017,2.017,0,0,1,0-4.034h19.53a2.017,2.017,0,0,1,0,4.034" transform="translate(35.349 11.775)" fill="#4d997f"/>
      <path id="Trazado_9130" data-name="Trazado 9130" d="M115.739,125.221h47.852a2.017,2.017,0,1,1,0,4.034H115.739a2.017,2.017,0,0,1,0-4.034" transform="translate(29.513 32.497)" fill="#4d997f"/>
      <path id="Trazado_9131" data-name="Trazado 9131" d="M93.04,125.221h19.53a2.017,2.017,0,0,1,0,4.034H93.04a2.017,2.017,0,0,1,0-4.034" transform="translate(23.622 32.497)" fill="#4d997f"/>
      <path id="Trazado_9132" data-name="Trazado 9132" d="M88.856,51.947H60.564a3.5,3.5,0,0,1-3.493-3.493V43.635A13.394,13.394,0,0,1,70.466,30.24H90.453a.63.63,0,1,1,0,1.26H70.466A12.149,12.149,0,0,0,58.331,43.635v4.819a2.236,2.236,0,0,0,2.233,2.233H88.856a.63.63,0,0,1,0,1.26Z" transform="translate(14.811 7.848)" fill="#002744"/>
      <path id="Trazado_9133" data-name="Trazado 9133" d="M102.513,171.669a17.438,17.438,0,0,1-17.444-17.432L85.144,47.67A16.2,16.2,0,0,0,68.959,31.5v-1.26H172.384a17.438,17.438,0,0,1,17.444,17.432l-.076,106.567a15.212,15.212,0,0,0,.462,3.853.63.63,0,0,1-1.208.356,16.162,16.162,0,0,1-.513-4.21l.076-106.567A16.2,16.2,0,0,0,172.384,31.5H75.5A17.462,17.462,0,0,1,86.4,47.671l-.076,106.567a16.2,16.2,0,0,0,16.185,16.172.63.63,0,1,1,0,1.26Z" transform="translate(17.896 7.848)" fill="#002744"/>
      <path id="Trazado_9134" data-name="Trazado 9134" d="M110.564,131.389h96.63a3.559,3.559,0,0,1,2.885,1.457,3.471,3.471,0,0,1,.544,3.1,13.385,13.385,0,0,1-12.806,9.469H95.156v-1.26a12.144,12.144,0,0,0,11.923-9.91A3.53,3.53,0,0,1,110.564,131.389Zm87.253,12.772a12.125,12.125,0,0,0,11.6-8.577,2.223,2.223,0,0,0-.351-1.988,2.311,2.311,0,0,0-1.873-.947h-96.63a2.27,2.27,0,0,0-2.246,1.832,13.454,13.454,0,0,1-7.483,9.68Z" transform="translate(24.695 34.098)" fill="#002744"/>
      <path id="Trazado_9135" data-name="Trazado 9135" d="M217.978,113.549H62.5a4.931,4.931,0,0,1-4.931-4.931v-41.7A4.931,4.931,0,0,1,62.5,61.988H217.978A6.923,6.923,0,0,1,224.9,68.91v37.716a6.923,6.923,0,0,1-6.922,6.922" transform="translate(14.941 16.087)" fill="#99d6ff"/>
      <path id="Trazado_9136" data-name="Trazado 9136" d="M215.958,104.858H61.8V95.477h162v1.538a7.843,7.843,0,0,1-7.843,7.843" transform="translate(16.039 24.778)" fill="#09f"/>
      <path id="Trazado_9137" data-name="Trazado 9137" d="M61.571,113.549h.856a4.857,4.857,0,0,1-4.857-4.857V66.845a4.858,4.858,0,0,1,4.857-4.857h-.856A8.227,8.227,0,0,1,69.8,70.216v35.105a8.227,8.227,0,0,1-8.227,8.227" transform="translate(14.941 16.087)" fill="#09f"/>
      <path id="Trazado_9138" data-name="Trazado 9138" d="M218.108,114.308H62.632a5.567,5.567,0,0,1-5.561-5.561v-41.7a5.567,5.567,0,0,1,5.561-5.561H218.108a7.561,7.561,0,0,1,7.552,7.552v37.716A7.561,7.561,0,0,1,218.108,114.308ZM62.632,62.748a4.306,4.306,0,0,0-4.3,4.3v41.7a4.306,4.306,0,0,0,4.3,4.3H218.108a6.3,6.3,0,0,0,6.293-6.293V69.04a6.3,6.3,0,0,0-6.293-6.293Z" transform="translate(14.811 15.957)" fill="#002744"/>
      <path id="Trazado_9139" data-name="Trazado 9139" d="M60.964,114.309a.63.63,0,0,1,0-1.26,7.916,7.916,0,0,0,7.907-7.907V70.655c0-4.258-3.472-7.906-6.314-7.906a.63.63,0,1,1,0-1.26,7.193,7.193,0,0,1,5.117,2.716,9.839,9.839,0,0,1,2.456,6.449v34.488A9.177,9.177,0,0,1,60.964,114.309Z" transform="translate(15.658 15.957)" fill="#002744"/>
      <path id="Trazado_9140" data-name="Trazado 9140" d="M199.437,93.682H137.864a1.655,1.655,0,0,1,0-3.31h61.573a1.655,1.655,0,1,1,0,3.31" transform="translate(35.349 23.453)" fill="#09f"/>
      <path id="Trazado_9141" data-name="Trazado 9141" d="M109.032,69.1H71.139a1.655,1.655,0,0,1,0-3.31h37.893a1.655,1.655,0,0,1,0,3.31" transform="translate(18.032 17.074)" fill="#09f"/>
      <path id="Trazado_9142" data-name="Trazado 9142" d="M112.765,69.1h-4.947a1.655,1.655,0,1,1,0-3.31h4.947a1.655,1.655,0,1,1,0,3.31" transform="translate(27.551 17.074)" fill="#09f"/>
      <path id="Trazado_9143" data-name="Trazado 9143" d="M78.148,79.62a1.147,1.147,0,0,1-.649-.208,1.513,1.513,0,0,1-.5-1.86c3.32-6.82,8.286-9.223,11.872-10a15.891,15.891,0,0,1,14.065,3.835,1.565,1.565,0,0,1,.134,2,1.137,1.137,0,0,1-1.724.275,13.7,13.7,0,0,0-11.992-3.209c-3.056.65-7.31,2.69-10.239,8.542a1.074,1.074,0,0,1-.965.621" transform="translate(19.946 17.441)" fill="#002744"/>
      <path id="Trazado_9144" data-name="Trazado 9144" d="M100.787,89.137a1.043,1.043,0,0,1-.215-.023,1.113,1.113,0,0,1-.79-1.409c1.218-4.847.889-8.383-1.227-12.128a1.545,1.545,0,0,1,.4-1.92,1.083,1.083,0,0,1,1.668.33c2.428,4.4,2.791,8.674,1.343,14.181a1.264,1.264,0,0,1-1.178.969" transform="translate(25.53 19.049)" fill="#002744"/>
      <path id="Trazado_9145" data-name="Trazado 9145" d="M77.794,86.642a1.236,1.236,0,0,1-1.067-.675c-.855-1.583-.927-4.209-.833-6.172a1.1,1.1,0,0,1,1.241-1.1,1.392,1.392,0,0,1,1.1,1.467,10.794,10.794,0,0,0,.45,4.727,1.2,1.2,0,0,1-.4,1.631,1.019,1.019,0,0,1-.49.125" transform="translate(19.688 20.418)" fill="#002744"/>
      <path id="Trazado_9146" data-name="Trazado 9146" d="M80.23,94.671a1.122,1.122,0,0,1-.317-.048,1.215,1.215,0,0,1-.819-1.408,61.427,61.427,0,0,0,1.17-12.193l.005-.18A9.544,9.544,0,0,1,82.376,75.3a1.1,1.1,0,0,1,1.7.03,1.479,1.479,0,0,1,.042,1.911,6.926,6.926,0,0,0-1.509,3.821l-.005.179A63.469,63.469,0,0,1,81.229,93.87a1.023,1.023,0,0,1-1,.8" transform="translate(20.519 19.442)" fill="#002744"/>
      <path id="Trazado_9147" data-name="Trazado 9147" d="M98.811,97.585a1.01,1.01,0,0,1-.122-.008,1.044,1.044,0,0,1-.9-1.222c.013-.086,1.378-9.066,1.1-13.032-.229-3.307-1.354-5.809-3.362-7.368-3-2.335-7.053-1.952-8.948-1.357a1.232,1.232,0,0,1-1.509-.976,1.414,1.414,0,0,1,.82-1.731,12.387,12.387,0,0,1,11.051,1.766c2.6,2.057,4.03,5.235,4.266,9.348.246,4.269-1.222,13.239-1.282,13.6a1.16,1.16,0,0,1-1.121.979" transform="translate(22.065 18.508)" fill="#002744"/>
      <path id="Trazado_9148" data-name="Trazado 9148" d="M84.056,98.258a1.1,1.1,0,0,1-.276-.035,1.133,1.133,0,0,1-.811-1.325,60.163,60.163,0,0,0,1.194-11.147c.052-1.246.1-2.469.185-3.692a6.372,6.372,0,0,1,6.463-6.324A5.761,5.761,0,0,1,96.5,81.6c.081,2.69-.089,6.089-.1,6.23A1.2,1.2,0,0,1,95.248,89h-.024a1.137,1.137,0,0,1-1.073-1.22c0-.033.132-3.433.025-6.009a3.335,3.335,0,0,0-3.42-3.363,3.964,3.964,0,0,0-4.1,3.925c-.1,1.2-.159,2.391-.222,3.609a62.963,62.963,0,0,1-1.377,11.511,1.03,1.03,0,0,1-1.006.8" transform="translate(21.525 19.654)" fill="#002744"/>
      <path id="Trazado_9149" data-name="Trazado 9149" d="M92.069,96.095a1.044,1.044,0,0,1-1.043-1.029,34.837,34.837,0,0,1,.4-5.5A1.131,1.131,0,0,1,92.7,88.59a1.1,1.1,0,0,1,.9,1.294,33.019,33.019,0,0,0-.436,5.1,1.1,1.1,0,0,1-1.05,1.108h-.039" transform="translate(23.622 22.988)" fill="#002744"/>
      <path id="Trazado_9150" data-name="Trazado 9150" d="M87.85,96.023a1.092,1.092,0,0,1-.127-.008,1.079,1.079,0,0,1-.941-1.184c.029-.282.506-2.97.559-3.4a1.072,1.072,0,1,1,2.126.278c-.058.419-.539,3.1-.571,3.377a1.057,1.057,0,0,1-1.047.936" transform="translate(22.52 23.485)" fill="#002744"/>
      <path id="Trazado_9151" data-name="Trazado 9151" d="M88.816,91.482h-.052a1.14,1.14,0,0,1-1.057-1.2c0-.074.276-7.744.3-9.139A1.216,1.216,0,0,1,89.167,79.9H89.2a1.228,1.228,0,0,1,1.127,1.314c-.044,1.414-.4,8.868-.411,9.172a1.128,1.128,0,0,1-1.1,1.1" transform="translate(22.761 20.735)" fill="#002744"/>
    </g>
  </g>
  <text id="Calcular" transform="translate(133.712 109.492)" fill="#002744" font-size="22" font-family="Sora" font-weight="800"><tspan x="0" y="0">Calcular</tspan></text>
  <g id="Grupo_1125" data-name="Grupo 1125">
    <g id="Grupo_1124" data-name="Grupo 1124" clip-path="url(#clip-path)">
      <path id="Trazado_9152" data-name="Trazado 9152" d="M203.047,91.064l-1.329,6.811L198.14,95.76Z" transform="translate(51.421 23.633)" fill="#005c99"/>
      <path id="Trazado_9153" data-name="Trazado 9153" d="M178.628,87.628s-1.872,5.349-1.344,7.031,7.81,24.368,7.81,24.368,2.341,2.231,4.114.081a32.632,32.632,0,0,1,2.956-3.587,1.97,1.97,0,0,1,2.931-.152c.688.7,8.364,9.2,10.386,10.512s3.6,1.909,5.248-.321,6.858-8.228,7.22-9.38.589-2.777,1.131-4.269a22.869,22.869,0,0,0,.748-4.573Z" transform="translate(45.984 22.741)" fill="#cee6ad"/>
      <path id="Trazado_9154" data-name="Trazado 9154" d="M218.569,104.507l-13.831-7.638,3.459-4.2a2.626,2.626,0,0,0-1.66-4.271l-24.858-3.493a2.967,2.967,0,0,0-3.243,3.826l7.65,24.384a2.625,2.625,0,0,0,4.532.884l4.354-5.282,11.711,11.766a2.89,2.89,0,0,0,4.372-.321l8.44-11.409a2.889,2.889,0,0,0-.926-4.248" transform="translate(46.271 22.027)" fill="#eef9ed"/>
      <path id="Trazado_9155" data-name="Trazado 9155" d="M208.86,122.1h0a3.5,3.5,0,0,1-2.493-1.036L195.6,110.246a.589.589,0,0,0-.871.04l-3.5,4.245a3.254,3.254,0,0,1-5.619-1.1l-7.65-24.384a3.559,3.559,0,0,1,.531-3.2,3.6,3.6,0,0,1,2.889-1.472,3.7,3.7,0,0,1,.513.036L206.754,87.9a3.256,3.256,0,0,1,2.058,5.3L206,96.611a.214.214,0,0,0-.046.179.218.218,0,0,0,.11.152L219,104.085a3.518,3.518,0,0,1,1.127,5.174l-8.44,11.41A3.488,3.488,0,0,1,208.86,122.1Zm-13.673-13.282a1.835,1.835,0,0,1,1.31.544l10.763,10.813a2.261,2.261,0,0,0,3.419-.25l8.44-11.41a2.259,2.259,0,0,0-.724-3.323l-12.936-7.144a1.479,1.479,0,0,1-.427-2.234l2.81-3.411a2,2,0,0,0-1.262-3.247L181.722,85.66a2.436,2.436,0,0,0-.338-.024,2.339,2.339,0,0,0-2.218,3.038l7.65,24.384a2,2,0,0,0,1.914,1.4,1.954,1.954,0,0,0,1.531-.728l3.5-4.245A1.841,1.841,0,0,1,195.187,108.813Z" transform="translate(46.141 21.897)" fill="#002744"/>
      <path id="Trazado_9156" data-name="Trazado 9156" d="M201.567,97.094l-.972-.8c.974-1.181,1.59-4.884,1.745-6.211l1.251.146C203.529,90.754,202.95,95.416,201.567,97.094Z" transform="translate(52.058 23.378)" fill="#002744"/>
      <path id="Trazado_9157" data-name="Trazado 9157" d="M208.182,128.2a3.517,3.517,0,0,1-2.494-1.036l-11.473-11.611a.588.588,0,0,0-.87.043l-3.5,4.244a3.255,3.255,0,0,1-5.619-1.1l-7.479-23.841a7.756,7.756,0,0,1,.219-3.7c.436-1.419,1.313-4.83,1.322-4.864l1.22.313c-.036.141-.893,3.475-1.338,4.922a6.649,6.649,0,0,0-.222,2.956l7.479,23.842a2,2,0,0,0,3.445.672l3.5-4.245a1.848,1.848,0,0,1,2.737-.127l11.473,11.61a2.261,2.261,0,0,0,3.418-.252l6.94-9.382a10.606,10.606,0,0,0,1.872-4.248l1.072-5.485,1.236.242-1.072,5.485a11.873,11.873,0,0,1-2.1,4.755l-6.94,9.382a3.515,3.515,0,0,1-2.571,1.417Q208.312,128.2,208.182,128.2Z" transform="translate(45.83 22.406)" fill="#002744"/>
      <path id="Línea_1814" data-name="Línea 1814" d="M.131,4.07a.63.63,0,0,1-.625-.71L-.068.049A.63.63,0,1,1,1.181.21L.754,3.52A.63.63,0,0,1,.131,4.07Z" transform="translate(240.735 131.212)" fill="#002744"/>
      <path id="Línea_1815" data-name="Línea 1815" d="M.131,1.627A.63.63,0,0,1-.495.917L-.383.049A.63.63,0,1,1,.866.21l-.112.868A.63.63,0,0,1,.131,1.627Z" transform="translate(232.289 139.907)" fill="#002744"/>
      <path id="Línea_1816" data-name="Línea 1816" d="M.131,2.791a.63.63,0,0,1-.625-.71L-.233.049A.63.63,0,1,1,1.016.21L.754,2.242A.63.63,0,0,1,.131,2.791Z" transform="translate(232.63 136.1)" fill="#002744"/>
      <path id="Línea_1817" data-name="Línea 1817" d="M.131,6.509a.63.63,0,0,1-.624-.722L.36.037A.63.63,0,1,1,1.605.222L.753,5.972A.63.63,0,0,1,.131,6.509Z" transform="translate(233.485 136.889)" fill="#002744"/>
      <path id="Línea_1818" data-name="Línea 1818" d="M.131,5.385a.63.63,0,0,1-.624-.722L.193.037A.63.63,0,0,1,1.439.222L.753,4.847A.63.63,0,0,1,.131,5.385Z" transform="translate(238.763 132.653)" fill="#002744"/>
      <path id="Línea_1819" data-name="Línea 1819" d="M.131,7.308a.63.63,0,0,1-.621-.738L.656.021A.63.63,0,0,1,1.9.238L.75,6.787A.63.63,0,0,1,.131,7.308Z" transform="translate(252.65 143.025)" fill="#002744"/>
      <path id="Línea_1820" data-name="Línea 1820" d="M.131,1.393A.63.63,0,0,1-.493.668L-.4.034A.63.63,0,0,1,.849.225l-.1.634A.63.63,0,0,1,.131,1.393Z" transform="translate(255.191 146.978)" fill="#002744"/>
      <path id="Línea_1821" data-name="Línea 1821" d="M.131,3.133a.63.63,0,0,1-.623-.725L-.13.035a.63.63,0,1,1,1.245.19L.752,2.6A.63.63,0,0,1,.131,3.133Z" transform="translate(255.53 143.025)" fill="#002744"/>
      <path id="Línea_1822" data-name="Línea 1822" d="M.131,2.794a.63.63,0,0,1-.624-.722l.3-2.034A.63.63,0,1,1,1.055.222l-.3,2.034A.63.63,0,0,1,.131,2.794Z" transform="translate(235.367 136.756)" fill="#002744"/>
      <path id="Línea_1823" data-name="Línea 1823" d="M.647,21.138a3.15,3.15,0,0,1-2.88-4.418L5.4-.619a3.149,3.149,0,0,1,5.764,2.537L3.531,19.257A3.15,3.15,0,0,1,.647,21.138Z" transform="translate(40.318 56.423)" fill="#eef9ed"/>
      <path id="Línea_1824" data-name="Línea 1824" d="M17.987,11.43a3.137,3.137,0,0,1-1.267-.268L-.619,3.531A3.149,3.149,0,0,1,1.917-2.233L19.257,5.4a3.149,3.149,0,0,1-1.27,6.032Z" transform="translate(35.463 61.277)" fill="#eef9ed"/>
      <path id="Línea_1825" data-name="Línea 1825" d="M.646,19.959a3.149,3.149,0,0,1-2.683-4.792L7.847-.994A3.149,3.149,0,1,1,13.22,2.292L3.335,18.453A3.147,3.147,0,0,1,.646,19.959Z" transform="translate(223.192 36.822)" fill="#eef9ed"/>
      <path id="Trazado_9158" data-name="Trazado 9158" d="M189.863,48.335a5.554,5.554,0,1,1,5.5-4.811A5.605,5.605,0,0,1,189.863,48.335Zm-.006-6.071a.516.516,0,0,0-.067,1.028.54.54,0,0,0,.073,0,.516.516,0,0,0,.065-1.028A.534.534,0,0,0,189.857,42.264Z" transform="translate(47.83 9.661)" fill="#eef9ed"/>
      <path id="Trazado_9159" data-name="Trazado 9159" d="M176,36.457a5.554,5.554,0,1,1,5.5-4.811A5.605,5.605,0,0,1,176,36.457ZM176,30.386a.516.516,0,0,0-.067,1.028.539.539,0,0,0,.073,0,.516.516,0,0,0,.065-1.028A.534.534,0,0,0,176,30.386Z" transform="translate(44.234 6.578)" fill="#eef9ed"/>
      <path id="Trazado_9160" data-name="Trazado 9160" d="M58.366,154.707a2.518,2.518,0,0,1-1.72-.678l-10.561-9.861a2.519,2.519,0,1,1,3.438-3.682l5.912,5.52-.85-12.967a2.519,2.519,0,0,1,1.669-2.538l20.036-7.134a2.519,2.519,0,0,1,1.69,4.746l-18.243,6.5,1.141,17.414a2.519,2.519,0,0,1-2.513,2.684Z" transform="translate(11.752 31.978)" fill="#eef9ed"/>
      <path id="Línea_1826" data-name="Línea 1826" d="M15.422,7.05a2.522,2.522,0,0,1-.656-.087L-.136,2.952a2.519,2.519,0,1,1,1.31-4.865L16.075,2.1a2.519,2.519,0,0,1-.653,4.952Z" transform="translate(32.913 152.093)" fill="#eef9ed"/>
      <path id="Trazado_9161" data-name="Trazado 9161" d="M206.819,50.014a6.784,6.784,0,1,1-6.783,6.784A6.791,6.791,0,0,1,206.819,50.014Zm0,8.529a1.746,1.746,0,1,0-1.744-1.746A1.748,1.748,0,0,0,206.819,58.543Z" transform="translate(51.913 12.979)" fill="#eef9ed"/>
      <path id="Trazado_9162" data-name="Trazado 9162" d="M180.431,51.247l1.528,29.376,5.258-31.456Z" transform="translate(46.825 12.759)" fill="#cee6ad"/>
      <path id="Trazado_9163" data-name="Trazado 9163" d="M166.411,68.644l9.278,7.8L169.4,61.654Z" transform="translate(43.186 16)" fill="#cee6ad"/>
      <path id="Trazado_9164" data-name="Trazado 9164" d="M176.2,94.884l-21.285,11.639,8.655,3.129Z" transform="translate(40.204 24.624)" fill="#cee6ad"/>
    </g>
  </g>
</svg>
