<svg xmlns="http://www.w3.org/2000/svg" xmlns:xlink="http://www.w3.org/1999/xlink" width="74.444" height="74.444" viewBox="0 0 74.444 74.444"><defs><style>.a,.d,.e,.f{fill:none;}.b{clip-path:url(#a);}.c{fill:#4d997f;}.d,.e,.f{stroke:#f7f9f7;stroke-miterlimit:10;}.e,.f{stroke-linecap:round;}.f{stroke-dasharray:0.509 5.093;}</style><clipPath id="a"><rect class="a" width="74.444" height="74.444" transform="translate(0 0)"/></clipPath></defs><g transform="translate(0 0)"><g class="b"><path class="c" d="M14.95,26.6c.964-.322,3.4.2,4.623.388s1.229.775,1.163,1.541c-.057.624,1.038,2.026,1.4,2.366-.006.551-.73.624-1.288.54-.592-.089-1.026-1.28-.96-2.055s.066-1.352-1.163-1.542-3.659-.709-4.623-.387a2.275,2.275,0,0,0-.643.35,3.491,3.491,0,0,1,1.494-1.2"/><path class="c" d="M18.157,42.434c-.9-.388-1.664-2.127-2.118-3.025s-.132-.965-.709-1.334-1.475-.274-1.862-.917-1.352-2.184-1.816-1.73-.624,0-1.4-.775-2.382-2.184-2.184-2.638a6.347,6.347,0,0,0-.132-2.638c-.189-.9-.9.256-1.154,0a6.459,6.459,0,0,1,0-3.4c.322-1.163.965-2.506,1.021-3.149s-.378-.643-.255-1.484A17.594,17.594,0,0,1,8.9,18a6.061,6.061,0,0,1,1.655-2.184,9.277,9.277,0,0,0-.8,1.333A17.594,17.594,0,0,0,8.4,20.49c-.123.842.321.842.265,1.484s-.709,1.986-1.031,3.149a6.556,6.556,0,0,0,0,3.4c.255.256.965-.9,1.154,0a6.344,6.344,0,0,1,.132,2.638c-.2.454,1.409,1.863,2.184,2.638s.936,1.22,1.4.766,1.428,1.1,1.815,1.74,1.286.538,1.863.917.255.434.709,1.333,1.22,2.637,2.118,3.025.841.255,1.484,0a.987.987,0,0,1,1.352.511c.322.51.445,2.127,0,2.316a2.136,2.136,0,0,0-.624.529,3.331,3.331,0,0,0-.227-1.995,1,1,0,0,0-1.352-.51c-.643.255-.576.388-1.484,0"/><path class="c" d="M31.642,73.228c.378.577-.066.775-.775.388a10.273,10.273,0,0,1-3.281-2.506,6.2,6.2,0,0,1-.766-3.734c0-1.608-.709-6.817-.841-7.971s-.577-1.541-2.184-2.25-1.352-.9-1.74-1.928-1.087-.9-1.475-2-1.673-2.184-1.739-3.083.132-.642.2-.9-.2-.709-.577-1.163.123-.576.379-.709a2,2,0,0,0,.378-.264.963.963,0,0,0,.094.122c.379.454.643.9.577,1.163s-.255,0-.2.9,1.352,1.994,1.739,3.082,1.1.964,1.475,1.995.132,1.219,1.74,1.928,2.061,1.1,2.184,2.251.841,6.362.841,7.97a6.2,6.2,0,0,0,.766,3.734,6.826,6.826,0,0,0,2.042,1.768c.218.445.889.794,1.163,1.2"/><path class="c" d="M73.944,37.225A36.729,36.729,0,0,1,43.813,73.351a52.173,52.173,0,0,0,0-72.252A36.728,36.728,0,0,1,73.944,37.225"/><circle class="d" cx="36.722" cy="36.722" r="36.722" transform="translate(0.5 0.5)"/><path class="e" d="M55.355,5.559l.245-.053"/><path class="f" d="M60.662,4.99a10.322,10.322,0,0,1,7.279,2.73C75.224,15,67.464,34.574,50.608,51.43S14.182,76.047,6.9,68.763C4.42,66.285,3.683,62.386,4.453,57.655"/><path class="e" d="M4.978,55.165l.063-.242"/><path class="d" d="M18,5.929c-.545.342.455.8,0,1.447a10.718,10.718,0,0,1-1.419,2.058c-.514.385-1.8.9-2.186,1.929a7.978,7.978,0,0,1-.9,2.25,8.778,8.778,0,0,1-1.543,1.35,5.863,5.863,0,0,0-1.672,2.186,17.348,17.348,0,0,0-1.35,3.343c-.129.836.321.836.257,1.479s-.707,1.993-1.029,3.15a6.552,6.552,0,0,0,0,3.408c.258.257.965-.9,1.158,0a6.341,6.341,0,0,1,.128,2.636c-.193.45,1.415,1.864,2.186,2.636s.938,1.222,1.4.772,1.427,1.093,1.813,1.735,1.286.542,1.865.914.257.437.707,1.337,1.221,2.636,2.121,3.022.836.257,1.479,0a.989.989,0,0,1,1.35.514c.322.514.45,2.122,0,2.314s-1.157,1.222-1.35,1.415a4.379,4.379,0,0,1-.836.707c-.257.129-.771.257-.385.707s.643.9.578,1.158-.257,0-.193.9,1.351,1.993,1.736,3.086,1.093.964,1.479,1.993S23.523,55.6,25.13,56.3s2.057,1.093,2.186,2.25.836,6.365.836,7.972a6.191,6.191,0,0,0,.771,3.73A10.167,10.167,0,0,0,32.2,72.763c.708.386,1.158.193.772-.386s-1.543-1.028-1.157-1.8.257-.064.385-.772-.064-.9.065-1.157a3.466,3.466,0,0,1,.848-1.029,13.231,13.231,0,0,1,2.173-1.028c.708-.386.643-.579.965-1.029s1.028-.514,1.607-.964a6.027,6.027,0,0,0,2.186-2.829c.322-1.286.772-.707,2.572-1.479s2.186-.9,2.764-2.507.258-1.994.643-3.215.708-.9,1.543-1.929A3.736,3.736,0,0,0,48.6,50.2a5.359,5.359,0,0,0,0-1.543c-.064-.064-.514,1.029-1.35.514s-3.922-1.286-4.822-.771-1.8-1.35-2.636-1.286A1.264,1.264,0,0,1,38.5,46.017a3.221,3.221,0,0,0-.257-1.543,2.021,2.021,0,0,0-2.058-1.479c-1.285,0-2.057.45-2.378-.129s-.708-.771-.836-1.028a4.19,4.19,0,0,0-1.543-1.415c-.579-.193-2.7.386-3.858-.643s-1.414-1.671-2.443-.835a6.087,6.087,0,0,1-3.215,1.35c-.771,0-1.093.9-1.993-.129s-1.029-.9-1.157-2.057.643-1.736.064-2.186-1.8-.129-1.864-.965a8.928,8.928,0,0,1,.385-2.121c.065-.579-.064-1.093-.45-1.158s-.835,1.158-1.414,1.35-1.222.322-1.607-.321-.45-.321-.772-1.286a3.1,3.1,0,0,1-.129-2.379A4.633,4.633,0,0,1,15.229,26.6c.964-.321,3.407.193,4.629.386s1.221.771,1.157,1.543.129,2.314.707,2.186.708-1.479.643-2.508-.128-1.8.579-2.186,2.122-.964,2.636-1.864-.45-1.093.836-1.929,2.379-1.479,2.829-1.8-.129-1.157.707-1.415a3.544,3.544,0,0,0,1.607-1.028.65.65,0,0,0,0-.836c-.257-.45,1.543-.964,2.7-1.029s1.028.257,1.414.707.386-.707-.064-1.928a5.247,5.247,0,0,0-1.8-2.122s-.515-.964-.772-1.543-1.093.964-1.736.193a6.318,6.318,0,0,0-1.35-1.222c-.321-.257-1.35-.321-1.286.643a2.57,2.57,0,0,1-1.093,2.443c-.771.386-.707,1.672-1.157,2.058s-.129-1.672-.836-2.443-1.929-1.479-1.929-1.929,1.543-.707,2.636-1.222,1.631-.514,2-1.286,1.274-2.637,1.017-2.54a5.458,5.458,0,0,1-1.8,0C26.673,5.833,25.387,5.7,25,5.19s-1.607-.643-1.607-.643a1.519,1.519,0,0,1,.63-1.6"/><path class="d" d="M34.207,4.422c-.714-.286-.156.7,1.015.937a2.308,2.308,0,0,1,1.561,2.186c0,.546-1.249,1.639,0,2.5s2.342,2.888,2.889,2.186-.313-2.342.39-3.045,1.171-.937,1.4-1.327,1.015-.312.547-1.093S41.7,5.593,41,4.812s-1.555-2.175-2.885-1.868S34.6,4.578,34.207,4.422Z"/><path class="d" d="M49.211,2.5c.453.826,1.858,1.45,1.78,1.841s-3.286.312-2.346.936,3.361,2.655,3.673,3.591.468,1.093.859,1.015.624-.78.858-1.015,1.015.781,1.171.235-.39-1.406-1.171-1.874S52.552,6.658,52.786,6.2s1.927-.142,2.447.639S57.158,9.453,56.846,9.9a3.053,3.053,0,0,0-.7,1.622c-.078.78.391,1.717.078,2.107s-.55.559-.624.781c-.156.468,1.561.859,2.108,2.186s-1.562.937-1.952,1.249,0,1.093.312,1.873A3.44,3.44,0,0,0,57.794,21.6c.769.312,1.238-1.093,1.55-1.171-.078-1.4.156-2.888,0-3.357a1.579,1.579,0,0,1,.055-1.483c.335-.39.491-1.015.726-1.171a3.262,3.262,0,0,1,2.185.312c.469.391,1.406,2.108,2.108,2.264s1.249-.39.781-1.015-1.015-1.327-1.562-1.951-.858-.7-1.249-1.249.122-2.183-.07-2.361"/><path class="d" d="M68.4,17.818A3.265,3.265,0,0,1,66.761,19.8c-.313,0,.078,1.261.312,1.84s-2.108.111-2.342-.513a4.882,4.882,0,0,0-1.639-1.718c-.625-.468-1.8,1.015-2.577,1.562s-2.185,1.093-2.029,1.717a5.218,5.218,0,0,1-.391,3.2c-.546.78-.936.858-.858,1.8s-.645,4.06-.01,5.153a5.4,5.4,0,0,1,.868,2.5,7.147,7.147,0,0,0,1.874,3.669c1.015.78,2.03,2.186,3.279,2.107s.974-1.327,2.126-1.327,1-2.029,2.089-2.185.625,1.483,1.4,1.8,1.249-1.093,1.328.156-.781,2.889,0,4.918a4.867,4.867,0,0,1,0,3.982c-.318,1.014-1.176,4.918-1.489,5.854s-.858,3.175-.858,3.175"/></g></g></svg>