<svg id="illustration_ConsumoEnergia" xmlns="http://www.w3.org/2000/svg" width="60" height="60" viewBox="0 0 60 60">
  <g id="Grupo_2438" data-name="Grupo 2438" transform="translate(-844.708 -956)">
    <path id="Trazado_18268" data-name="Trazado 18268" d="M79.279,0h42.857a8.572,8.572,0,0,1,8.572,8.571V51.429A8.572,8.572,0,0,1,122.136,60H79.279a8.571,8.571,0,0,1-8.571-8.571V8.571A8.571,8.571,0,0,1,79.279,0" transform="translate(774 956)" fill="#99d6ff"/>
    <path id="Trazado_18269" data-name="Trazado 18269" d="M103.87,16.607H97.72a1.135,1.135,0,1,1,0-2.27h6.15a1.135,1.135,0,0,1,0,2.27" transform="translate(774 956)" fill="#ff895a"/>
    <path id="Trazado_18270" data-name="Trazado 18270" d="M103.87,14.337H97.72a1.135,1.135,0,1,1,0-2.27h6.15a1.135,1.135,0,0,1,0,2.27" transform="translate(774 956)" fill="#ff895a"/>
    <path id="Trazado_18271" data-name="Trazado 18271" d="M111.488,34.406a11.013,11.013,0,1,1-18.879-8.812A9.7,9.7,0,0,0,95.4,18.869v-.7a1.566,1.566,0,0,1,1.565-1.566h7.156a1.566,1.566,0,0,1,1.566,1.566v.7a9.27,9.27,0,0,0,2.64,6.574,10.986,10.986,0,0,1,3.163,8.958" transform="translate(774 956)" fill="#ff895a"/>
    <path id="Trazado_18272" data-name="Trazado 18272" d="M111.638,34.407a11.052,11.052,0,0,1-9.67,9.76,10.524,10.524,0,0,1-2.02.04c4.95-.69,9.31-4.83,9.82-9.8a10.992,10.992,0,0,0-3.16-8.96,9.27,9.27,0,0,1-2.64-6.57v-.7c0-.87-1.07-1.57-1.93-1.57a1.135,1.135,0,1,0,0-2.27,1.135,1.135,0,1,0,0-2.27h1.73a1.135,1.135,0,0,1,0,2.27,1.135,1.135,0,0,1,0,2.27h.5a1.566,1.566,0,0,1,1.57,1.57v.7a9.27,9.27,0,0,0,2.64,6.57,10.959,10.959,0,0,1,3.16,8.96" transform="translate(774 956)" fill="#fe5000"/>
    <path id="Trazado_18273" data-name="Trazado 18273" d="M102.746,10.723H98.67a.753.753,0,0,1-.753-.753,2.748,2.748,0,0,1,2.748-2.749h.086A2.748,2.748,0,0,1,103.5,9.97a.753.753,0,0,1-.753.753" transform="translate(774 956)" fill="#ff895a"/>
    <path id="Trazado_18274" data-name="Trazado 18274" d="M95.36,21.188a9.261,9.261,0,0,0,.3-2.319v-.7a1.566,1.566,0,0,1,1.565-1.566h7.156a1.566,1.566,0,0,1,1.566,1.566v.7a9.27,9.27,0,0,0,2.64,6.574,11.014,11.014,0,1,1-15.716.146q.233-.24.448-.495" transform="translate(774 956)" fill="none" stroke="#002744" stroke-linecap="round" stroke-miterlimit="10" stroke-width="0.75"/>
    <path id="Trazado_18275" data-name="Trazado 18275" d="M94.133,23.994q.205-.321.384-.654" transform="translate(774 956)" fill="none" stroke="#002744" stroke-linecap="round" stroke-miterlimit="10" stroke-width="0.75"/>
    <path id="Trazado_18276" data-name="Trazado 18276" d="M102.248,16.607a1.566,1.566,0,0,1,1.566,1.566v.7a9.27,9.27,0,0,0,2.64,6.574A11.01,11.01,0,0,1,99.948,44.17" transform="translate(774 956)" fill="none" stroke="#002744" stroke-linecap="round" stroke-miterlimit="10" stroke-width="0.75"/>
    <path id="Trazado_18277" data-name="Trazado 18277" d="M103.87,16.607H97.72a1.135,1.135,0,1,1,0-2.27h6.15a1.135,1.135,0,0,1,0,2.27Z" transform="translate(774 956)" fill="none" stroke="#002744" stroke-linecap="round" stroke-miterlimit="10" stroke-width="0.75"/>
    <path id="Trazado_18278" data-name="Trazado 18278" d="M103.87,14.337H97.72a1.135,1.135,0,1,1,0-2.27h6.15a1.135,1.135,0,0,1,0,2.27Z" transform="translate(774 956)" fill="none" stroke="#002744" stroke-linecap="round" stroke-miterlimit="10" stroke-width="0.75"/>
    <path id="Trazado_18279" data-name="Trazado 18279" d="M100.537,14.337h1.351a1.135,1.135,0,1,1,0,2.27h-1.351" transform="translate(774 956)" fill="none" stroke="#002744" stroke-linecap="round" stroke-miterlimit="10" stroke-width="0.75"/>
    <path id="Trazado_18280" data-name="Trazado 18280" d="M100.537,12.067h1.351a1.135,1.135,0,1,1,0,2.27h-1.351" transform="translate(774 956)" fill="none" stroke="#002744" stroke-linecap="round" stroke-miterlimit="10" stroke-width="0.75"/>
    <path id="Trazado_18281" data-name="Trazado 18281" d="M102.833,10.723H98.757A.753.753,0,0,1,98,9.97a2.748,2.748,0,0,1,2.748-2.749h.086a2.748,2.748,0,0,1,2.748,2.749A.753.753,0,0,1,102.833,10.723Z" transform="translate(774 956)" fill="none" stroke="#002744" stroke-linecap="round" stroke-miterlimit="10" stroke-width="0.75"/>
    <path id="Trazado_18282" data-name="Trazado 18282" d="M100.323,28.785l2.5-5.706a.435.435,0,0,0-.757-.413l-6,8.492s3.565.036,4.859,0l-2.045,5.649a.433.433,0,0,0,.757.413c.886-1.3,4.562-7.091,5.366-8.268,0,0-3.462-.132-4.682-.167" transform="translate(774 956)" fill="#09f"/>
    <line id="Línea_6193" data-name="Línea 6193" y2="4.013" transform="translate(874.795 1004.766)" fill="none" stroke="#002744" stroke-linecap="round" stroke-linejoin="round" stroke-width="0.75"/>
    <line id="Línea_6194" data-name="Línea 6194" x2="2.006" y2="3.475" transform="translate(883.285 1002.445)" fill="none" stroke="#002744" stroke-linecap="round" stroke-linejoin="round" stroke-width="0.75"/>
    <line id="Línea_6195" data-name="Línea 6195" x2="3.475" y2="2.006" transform="translate(889.476 996.189)" fill="none" stroke="#002744" stroke-linecap="round" stroke-linejoin="round" stroke-width="0.75"/>
    <line id="Línea_6196" data-name="Línea 6196" x2="4.013" transform="translate(891.71 987.676)" fill="none" stroke="#002744" stroke-linecap="round" stroke-linejoin="round" stroke-width="0.75"/>
    <line id="Línea_6197" data-name="Línea 6197" y1="2.006" x2="3.475" transform="translate(889.388 977.182)" fill="none" stroke="#002744" stroke-linecap="round" stroke-linejoin="round" stroke-width="0.75"/>
    <line id="Línea_6198" data-name="Línea 6198" y1="3.475" x2="2.006" transform="translate(883.133 969.521)" fill="none" stroke="#002744" stroke-linecap="round" stroke-linejoin="round" stroke-width="0.75"/>
    <line id="Línea_6199" data-name="Línea 6199" x1="2.006" y1="3.475" transform="translate(864.125 969.609)" fill="none" stroke="#002744" stroke-linecap="round" stroke-linejoin="round" stroke-width="0.75"/>
    <line id="Línea_6200" data-name="Línea 6200" x1="3.475" y1="2.006" transform="translate(856.465 977.332)" fill="none" stroke="#002744" stroke-linecap="round" stroke-linejoin="round" stroke-width="0.75"/>
    <line id="Línea_6201" data-name="Línea 6201" x1="4.013" transform="translate(853.693 987.852)" fill="none" stroke="#002744" stroke-linecap="round" stroke-linejoin="round" stroke-width="0.75"/>
    <line id="Línea_6202" data-name="Línea 6202" x1="3.475" y2="2.006" transform="translate(856.553 996.34)" fill="none" stroke="#002744" stroke-linecap="round" stroke-linejoin="round" stroke-width="0.75"/>
    <line id="Línea_6203" data-name="Línea 6203" x1="2.006" y2="3.475" transform="translate(864.277 1002.531)" fill="none" stroke="#002744" stroke-linecap="round" stroke-linejoin="round" stroke-width="0.75"/>
    <path id="Trazado_18283" data-name="Trazado 18283" d="M100.323,28.785l2.5-5.706a.435.435,0,0,0-.757-.413l-6,8.492s3.565.036,4.859,0l-2.045,5.649a.433.433,0,0,0,.757.413c.886-1.3,4.562-7.091,5.366-8.268C105,28.952,101.543,28.82,100.323,28.785Z" transform="translate(774 956)" fill="none" stroke="#002744" stroke-linejoin="round" stroke-width="0.75"/>
  </g>
</svg>
