<svg xmlns="http://www.w3.org/2000/svg" xmlns:xlink="http://www.w3.org/1999/xlink" width="70" height="70" viewBox="0 0 70 70"><defs><style>.a,.e{fill:none;}.b{clip-path:url(#a);}.c{fill:#99d6ff;}.d{fill:#09f;}.e{stroke:#002744;stroke-linecap:round;stroke-miterlimit:10;stroke-width:0.75px;}.f{fill:#002744;}.g{fill:#ff895a;}.h{fill:#fe5000;}</style><clipPath id="a"><rect class="a" width="70" height="70"/></clipPath></defs><g class="b"><path class="c" d="M9.9,0H59.415a9.9,9.9,0,0,1,9.9,9.9V59.416a9.9,9.9,0,0,1-9.9,9.9H9.9a9.9,9.9,0,0,1-9.9-9.9V9.9A9.9,9.9,0,0,1,9.9,0"/><path class="d" d="M49.693,30.189v3.569H48.608V57.735h3.608a3.457,3.457,0,0,0,3.457-3.457V30.189Z" transform="translate(7.549 4.688)"/><path class="e" d="M57.366,31.965V54a3.539,3.539,0,0,1-3.539,3.539H37.237V33.7" transform="translate(5.783 4.964)"/><line class="e" y2="23.837" transform="translate(56.05 38.669)"/><line class="e" x2="13.029" transform="translate(43.02 45.378)"/><line class="e" x2="13.029" transform="translate(43.02 52.16)"/><path class="f" d="M43.719,36.519a1.077,1.077,0,1,1-1.077-1.077,1.076,1.076,0,0,1,1.077,1.077" transform="translate(6.455 5.504)"/><path class="f" d="M43.719,42.358a1.077,1.077,0,1,1-1.077-1.077,1.076,1.076,0,0,1,1.077,1.077" transform="translate(6.455 6.411)"/><path class="f" d="M43.719,48.617a1.077,1.077,0,1,1-1.077-1.077,1.076,1.076,0,0,1,1.077,1.077" transform="translate(6.455 7.383)"/><rect class="e" width="43.095" height="3.48" rx="0.786" transform="translate(20.021 35.05)"/><path class="e" d="M48.717,30.339a.908.908,0,0,1,.908.908v1.664a.908.908,0,0,1-.908.908" transform="translate(7.566 4.712)"/><rect class="g" width="31.719" height="22.472" transform="translate(28.636 6.812)"/><rect class="g" width="5.059" height="2.854" transform="translate(41.344 29.616)"/><rect class="g" width="5.792" height="1.987" transform="translate(34.264 32.844)"/><path class="h" d="M43.712,25.344H41.475L41.249,28.7l-6.471.364-.106,1.977L42.66,30.9,43.4,29.9h.314Z" transform="translate(5.385 3.936)"/><rect class="h" width="3.332" height="22.233" transform="translate(57.19 7.051)"/><path class="h" d="M26.36,24.277,39.291,6.1h3.67L30.192,24.277Z" transform="translate(4.094 0.947)"/><path class="h" d="M43.711,6.1h3.654L35.786,17.367Z" transform="translate(5.558 0.947)"/><path class="h" d="M24.642,18.36v4.859h.772L37.517,6.1H33.091Z" transform="translate(3.827 0.947)"/><rect class="e" width="32.053" height="22.653" rx="1" transform="translate(28.469 6.811)"/><path class="e" d="M51.436,5.9c-1.215,0-1.593.613-1.593,1.369V27.18a1.37,1.37,0,0,1-1.37,1.369" transform="translate(7.528 0.916)"/><path class="e" d="M41.362,25.5v3a.207.207,0,0,1-.207.207H35.7a1.187,1.187,0,0,0,0,2.374h6.006a2.03,2.03,0,0,0,2.03-2.03V25.5Z" transform="translate(5.36 3.961)"/><line class="e" y2="3.005" transform="translate(41.344 29.464)"/><path class="e" d="M39.325,28.283H30.7a1.187,1.187,0,1,0,0,2.374h8.83" transform="translate(4.584 4.392)"/><path class="e" d="M34.251,21.816H54.869" transform="translate(5.319 3.388)"/><line class="e" x2="0.793" transform="translate(36.002 25.224)"/><line class="e" x2="5.429" transform="translate(28.469 25.204)"/><rect class="g" width="2.096" height="2.41" transform="translate(5.595 59.66)"/><rect class="g" width="2.096" height="2.41" transform="translate(17.127 59.66)"/><rect class="g" width="2.096" height="2.41" transform="translate(23.792 59.66)"/><rect class="g" width="2.342" height="7.104" transform="translate(14.596 50.251)"/><rect class="g" width="19.136" height="1.801" transform="translate(5.694 55.785)"/><path class="g" d="M13.8,37.115h2.5a2.98,2.98,0,0,0,2.981-2.98V20.971a3.684,3.684,0,0,0-3.685-3.684H15.05a6.428,6.428,0,0,0-6.429,6.429V31.94A5.175,5.175,0,0,0,13.8,37.115" transform="translate(1.339 2.685)"/><path class="g" d="M9.381,44.159H20.008a2.637,2.637,0,0,0,2.638-2.638v-.879a2.637,2.637,0,0,0-2.638-2.638H9.381a2.637,2.637,0,0,0-2.638,2.638v.879a2.637,2.637,0,0,0,2.638,2.638" transform="translate(1.047 5.902)"/><path class="g" d="M6.743,43.448V28.443a4.327,4.327,0,0,1,2.168-3.75V41.146l-2.128,2.71Z" transform="translate(1.047 3.835)"/><path class="h" d="M14.882,17.517a6.224,6.224,0,0,1,.832,4.049L15.58,36.18l-.418.9s3.04.15,3.04-2.241V20.106c0-1.76-3.319-2.589-3.319-2.589" transform="translate(2.311 2.72)"/><path class="h" d="M16.71,38.408a3.928,3.928,0,0,1,3.975.65c.685.94,1.266,5.029-1.988,5.054-1.954.025-1.721-.275-1.538-1.266a8.338,8.338,0,0,0-.449-4.439" transform="translate(2.595 5.922)"/><path class="e" d="M13.8,37.115h2.5a2.98,2.98,0,0,0,2.981-2.98V20.971a3.684,3.684,0,0,0-3.685-3.684H15.05a6.428,6.428,0,0,0-6.429,6.429V31.94A5.175,5.175,0,0,0,13.8,37.115Z" transform="translate(1.339 2.685)"/><path class="e" d="M14.163,17.287c1.385,0,1.662,1.644,1.662,2.74v15.28c0,1.16-.415,1.808-1.662,1.808" transform="translate(2.2 2.685)"/><rect class="e" width="15.903" height="6.154" rx="2.283" transform="translate(7.79 43.907)"/><path class="e" d="M16.124,38.005c1.807,0,1.807,6.154,0,6.154" transform="translate(2.504 5.902)"/><path class="e" d="M8.911,24.693h0a4.326,4.326,0,0,0-2.168,3.749V43.448" transform="translate(1.047 3.835)"/><line class="e" y2="10.704" transform="translate(9.982 33.265)"/><path class="e" d="M5.4,50.364H23.684a.752.752,0,0,0,.752-.752V49.5A1.431,1.431,0,0,0,23,48.065H6.078A1.431,1.431,0,0,0,4.647,49.5v.116A.752.752,0,0,0,5.4,50.364Z" transform="translate(0.722 7.465)"/><path class="e" d="M1.047,0H1.5A1.048,1.048,0,0,1,2.549,1.048v.941A1.047,1.047,0,0,1,1.5,3.036H1.047A1.047,1.047,0,0,1,0,1.989V1.047A1.047,1.047,0,0,1,1.047,0Z" transform="translate(23.567 59.347)"/><path class="e" d="M1.047,0H1.5A1.048,1.048,0,0,1,2.549,1.048v.941A1.047,1.047,0,0,1,1.5,3.036H1.047A1.047,1.047,0,0,1,0,1.989V1.047A1.047,1.047,0,0,1,1.047,0Z" transform="translate(16.926 59.347)"/><path class="e" d="M1.047,0H1.5A1.048,1.048,0,0,1,2.549,1.048v.941A1.047,1.047,0,0,1,1.5,3.036H1.047A1.047,1.047,0,0,1,0,1.989V1.047A1.047,1.047,0,0,1,1.047,0Z" transform="translate(5.369 59.347)"/><rect class="e" width="2.549" height="5.468" transform="translate(14.468 50.062)"/><line class="e" y2="19.101" transform="translate(25.203 38.847)"/><line class="e" y1="1.441" transform="translate(25.203 57.946)"/><path class="e" d="M18.955,50.269v4.209h2.4" transform="translate(2.944 7.807)"/><line class="e" y2="5.279" transform="translate(21.899 50.251)"/><line class="e" y2="5.238" transform="translate(21.899 38.669)"/></g></svg>