<svg xmlns="http://www.w3.org/2000/svg" xmlns:xlink="http://www.w3.org/1999/xlink" width="184.329" height="29.857" viewBox="0 0 184.329 29.857"><defs><style>.a{fill:none;}.b{clip-path:url(#a);}.c{fill:#fff;}</style><clipPath id="a"><rect class="a" width="184.329" height="29.857"/></clipPath></defs><g transform="translate(0 0)"><g class="b" transform="translate(0 0.001)"><path class="c" d="M0,11.776C0,3.1,2.381,0,9.015,0a25.6,25.6,0,0,1,5.352.437A.993.993,0,0,1,15.2,1.662l-.061.529a.973.973,0,0,1-1.167.912c-1.494-.122-2.768-.162-4.957-.162-4.2,0-5.544,2.148-5.544,8.836s1.342,8.836,5.544,8.836a44.629,44.629,0,0,0,5.42-.219.959.959,0,0,1,1.171.912l.061.5A.965.965,0,0,1,14.858,23a23.405,23.405,0,0,1-5.843.556C2.383,23.553,0,20.453,0,11.776" transform="translate(0 0)"/><path class="c" d="M33.69,27.094c-2.961,0-5.03-1.628-5.03-4.616V20.862c0-2.57,1.723-4.05,4.7-4.05h5.967a.324.324,0,0,0,.366-.366v-.872c-.029-2.108-.8-2.6-3.288-2.6-1.259,0-3.51,0-5.624.129a1.041,1.041,0,0,1-1.254-.981c-.176-.944.058-1.3,1.027-1.45a48.058,48.058,0,0,1,6.536-.408c3.842,0,5.807,1.215,5.807,5.311V25.647a1.008,1.008,0,0,1-1.13,1.134H41.41c-.681,0-.986-.1-1.186-.961l-.071-.4c-.086-.309-.27-.4-.485-.186a8.926,8.926,0,0,1-5.979,1.859Zm.657-2.716a8.4,8.4,0,0,0,5.076-1.354.733.733,0,0,0,.267-.6V19.59a.325.325,0,0,0-.366-.366l-5.364.017c-1.577.061-2.064.805-2.064,2.079v.754c0,1.633.784,2.3,2.449,2.3Z" transform="translate(-10.119 -3.624)"/><path class="c" d="M58.1,25.759v-14a.933.933,0,0,1,1.043-1.047h.463c.65,0,1.01.18,1.1.818l.038.309a.362.362,0,0,0,.628.243,12.652,12.652,0,0,1,5.91-1.737c.719-.086,1.08.362.985,1.08l-.091.875c-.094.657-.452.871-1.08.986a36.76,36.76,0,0,0-5.432,1.133.514.514,0,0,0-.362.514V25.759a.932.932,0,0,1-1.047,1.047H59.151A.936.936,0,0,1,58.1,25.759" transform="translate(-20.515 -3.65)"/><path class="c" d="M85.951,23.589a25.127,25.127,0,0,1-6.481-.9,1.024,1.024,0,0,1-.785-1.081V1.236A1.013,1.013,0,0,1,79.819.1h.936a1.011,1.011,0,0,1,1.134,1.135V4.477a17.028,17.028,0,0,1-.152,2.665c-.061.477.152.428.571.276a12.756,12.756,0,0,1,4.332-.741c3.927,0,6.659,1.189,6.659,8.6,0,5.315-1.61,8.313-7.348,8.313Zm.2-2.682C88.908,20.849,90,19.526,90,15.161c0-4.824-1.069-5.717-3.738-5.717a16.648,16.648,0,0,0-4.045.54c-.271.061-.361.324-.361.739l.028,9.139a.652.652,0,0,0,.567.682,15.923,15.923,0,0,0,3.7.361Z" transform="translate(-27.782 -0.036)"/><path class="c" d="M136.228,25.648V11.822a1.006,1.006,0,0,1,1.126-1.133h.529c.711,0,1.069.271,1.155.789l.037.338c.029.275.243.337.547.157a13.113,13.113,0,0,1,6.626-1.709c2.833,0,4.371,1.542,4.371,4.437V25.648a1.012,1.012,0,0,1-1.134,1.133h-.935a1.011,1.011,0,0,1-1.135-1.133V15.632c0-2.047-.527-2.656-2.049-2.656a12.638,12.638,0,0,0-5.657,1.421.43.43,0,0,0-.276.428V25.648a1.01,1.01,0,0,1-1.133,1.133h-.937a1.012,1.012,0,0,1-1.134-1.133" transform="translate(-48.1 -3.624)"/><path class="c" d="M166,19.256V1.236A1.011,1.011,0,0,1,167.135.1h.937a1.009,1.009,0,0,1,1.134,1.134l-.029,17.3A1.852,1.852,0,0,0,171.27,20.6h.448a1.093,1.093,0,0,1,1.216,1.035l.029.386c.058.678-.153,1.179-.838,1.3a13.272,13.272,0,0,1-2.073.189c-2.472,0-4.05-1.5-4.05-4.25" transform="translate(-58.612 -0.036)"/><path class="c" d="M181.25,33.7c-.657.1-1.016-.256-1.171-.907a1.106,1.106,0,0,1,.772-1.434,6.285,6.285,0,0,0,3.46-3.118,6.316,6.316,0,0,0,.368-.764c.122-.276-.025-.461-.346-.49a1.835,1.835,0,0,1-1.434-1.269l-5.07-13.595c-.271-.719.057-1.2.838-1.2h1.228a1.1,1.1,0,0,1,1.167.867l3.724,10.832c.173.528.318,1.06.487,1.583.062.271.16.391.322.391s.287-.12.349-.362c.207-.561.376-1.117.549-1.621l3.667-10.823a1.1,1.1,0,0,1,1.168-.867h1.256c.781,0,1.109.481.838,1.2l-5.8,15.668c-.974,2.622-2.808,5.426-6.367,5.91Z" transform="translate(-62.755 -3.856)"/><path class="c" d="M211.962,24.753c-2.757,0-4.2-1.619-4.2-4.538V11.277a.4.4,0,0,0-.452-.452h-1.256c-.949,0-1.22-.357-1.22-1.129,0-.941.358-1.186,1.192-1.245l1.284-.071c.3-.03.452-.181.452-.456V4.672a.936.936,0,0,1,1.049-1.047h1.079a.935.935,0,0,1,1.048,1.048V7.9a.4.4,0,0,0,.452.452h3.31c.9,0,1.219.415,1.219,1.228,0,.891-.27,1.249-1.219,1.249h-3.31a.4.4,0,0,0-.452.452v8.5c0,1.518.554,2.064,2.093,2.064H214.4c.715,0,1.047.263,1.166,1.179.119,1.055-.209,1.39-.814,1.479a21.628,21.628,0,0,1-2.79.251Z" transform="translate(-72.322 -1.28)"/><path class="c" d="M226.678,2.064a1.991,1.991,0,1,1,2,2,1.995,1.995,0,0,1-2-2m.4,19.99V8.229a1.011,1.011,0,0,1,1.134-1.134h.908a1.009,1.009,0,0,1,1.134,1.134V22.054a1.009,1.009,0,0,1-1.134,1.134h-.908a1.012,1.012,0,0,1-1.134-1.134" transform="translate(-80.036 -0.03)"/><path class="c" d="M246.6,27.178c-5.622,0-7.688-2.239-7.688-8.456s2.094-8.456,7.713-8.456a18.854,18.854,0,0,1,4.3.49,1.049,1.049,0,0,1,.834,1.344,1.132,1.132,0,0,1-1.258.977c-1.216-.059-2.467-.1-3.339-.1-3.634,0-4.894,1.284-4.894,5.745,0,4.49,1.26,5.774,4.894,5.774.772,0,2.23-.041,3.619-.186a1.023,1.023,0,0,1,1.287.921,1.1,1.1,0,0,1-.838,1.4,19.991,19.991,0,0,1-4.625.552Z" transform="translate(-84.356 -3.625)"/><path class="c" d="M265.068,26.815c-.715-.086-.957-.505-.9-1.335.062-.858.39-1.13,1.109-1.1,1.339.05,2.951.087,4.562.083,3.528-.008,4.577-.322,4.577-1.967,0-1.434-.93-1.811-2.545-2.146l-4.312-.947c-2.652-.6-3.66-2.084-3.66-4.665,0-3.294,1.864-4.514,6.27-4.476,1.785.033,3.982.165,5.835.391a1,1,0,0,1,.928,1.278c-.09.915-.424,1.187-1.167,1.154-1.679-.071-3.4-.112-5.108-.116-2.783-.008-3.669.213-3.669,1.769,0,1.5.773,1.82,2.293,2.183l4.369.976c2.686.609,3.854,1.847,3.854,4.6,0,3.565-2.185,4.646-6.981,4.646a45.53,45.53,0,0,1-5.461-.33" transform="translate(-93.18 -3.624)"/><path class="c" d="M113.252,22.934l-6.6-6.6a8.217,8.217,0,0,0-1.124,3.039l7.726,7.726Z" transform="translate(-37.26 -5.767)"/><path class="c" d="M114.146,16.039l-3.894-3.894a8.306,8.306,0,0,0-2.194,1.97l6.087,6.087Z" transform="translate(-38.154 -4.289)"/><path class="c" d="M121.92,11.041a8.214,8.214,0,0,0-3.082-.776v3.858Z" transform="translate(-41.96 -3.625)"/><path class="c" d="M115.787,10.265a8.226,8.226,0,0,0-3.081.776l3.081,3.082Z" transform="translate(-39.795 -3.625)"/><path class="c" d="M105.372,22.815c0,.047,0,.093,0,.14a8.27,8.27,0,0,0,7.828,8.259v-.574Z" transform="translate(-37.204 -8.056)"/><path class="c" d="M118.838,20.2l6.087-6.087a8.32,8.32,0,0,0-2.194-1.971l-3.894,3.894Z" transform="translate(-41.96 -4.288)"/><path class="c" d="M118.838,27.1l7.726-7.726a8.213,8.213,0,0,0-1.124-3.039l-6.6,6.6Z" transform="translate(-41.96 -5.767)"/><path class="c" d="M118.838,31.213a8.271,8.271,0,0,0,7.828-8.259c0-.047,0-.093,0-.14l-7.824,7.824Z" transform="translate(-41.96 -8.056)"/></g></g></svg>